<svg xmlns="http://www.w3.org/2000/svg" width="171.614" height="167.5" viewBox="0 0 171.614 167.5"><defs><style>.a{fill:#e8ebec;}.b{fill:#00ebc7;}.c{fill:#273d83;}</style></defs><g transform="translate(0)"><path class="a" d="M141.572,131.478a1.978,1.978,0,0,1-1.24-.448l-25.82-20.677H20.253A7.253,7.253,0,0,1,13,103.1V29.253A7.253,7.253,0,0,1,20.253,22H136.3a7.253,7.253,0,0,1,7.253,7.253V129.473a1.952,1.952,0,0,1-1.108,1.767,2.109,2.109,0,0,1-.87.237ZM20.253,25.982a3.3,3.3,0,0,0-3.3,3.3v73.847a3.3,3.3,0,0,0,3.3,3.27H115.2a1.925,1.925,0,0,1,1.24.448l23.156,18.462V29.279a3.3,3.3,0,0,0-3.3-3.3Z" transform="translate(21.286 36.022)"/><path class="a" d="M1.978,126.726a2.057,2.057,0,0,1-.87-.185A2,2,0,0,1,0,124.748V19.253A7.253,7.253,0,0,1,7.253,12H123.3a7.253,7.253,0,0,1,7.253,7.253V98.374a7.253,7.253,0,0,1-7.253,7.253H29.011L3.218,126.3a1.952,1.952,0,0,1-1.24.422ZM7.253,15.956a3.3,3.3,0,0,0-3.3,3.323V120.634l23.156-18.462a1.925,1.925,0,0,1,1.24-.448H123.3a3.3,3.3,0,0,0,3.3-3.349V19.253a3.3,3.3,0,0,0-3.3-3.3Z" transform="translate(0 19.649)"/><path class="b" d="M66.654,87.047h-37.4a1.662,1.662,0,0,1-1.662-1.662V81.4a18.462,18.462,0,0,0-5.512-13.187,37.372,37.372,0,1,1,51.983-.237,18.3,18.3,0,0,0-5.749,13.187v4.378a1.662,1.662,0,0,1-1.662,1.5Z" transform="translate(17.32 6.342)"/><path class="a" d="M50.627,48.3H24.253A7.253,7.253,0,0,1,17,41.043V35.768a2,2,0,0,1,1.978-1.978H55.9a2,2,0,0,1,1.978,1.978v5.275A7.253,7.253,0,0,1,50.627,48.3ZM20.956,37.746v3.3a3.3,3.3,0,0,0,3.3,3.3H50.627a3.3,3.3,0,0,0,3.3-3.3v-3.3Z" transform="translate(27.835 55.327)"/><path class="a" d="M50.627,52.3H24.253a7.253,7.253,0,0,1,0-14.506H50.627a7.253,7.253,0,0,1,0,14.506ZM24.253,41.746a3.3,3.3,0,0,0,0,6.593H50.627a3.3,3.3,0,1,0,0-6.593Z" transform="translate(27.835 61.877)"/><path class="a" d="M45.288,62.761H29.807a1.767,1.767,0,0,1-1.714-1.292L16.936,20.958a1.82,1.82,0,0,1,.686-1.925,1.793,1.793,0,0,1,2.031,0L28.91,25.2l7.622-6.092a1.82,1.82,0,0,1,2.215,0L46.37,25.2l9.257-6.171a1.741,1.741,0,0,1,2.031,0,1.714,1.714,0,0,1,.659,1.9L47,61.468a1.793,1.793,0,0,1-1.714,1.292ZM31.152,59.2H43.917L53.6,24.756,47.24,29a1.793,1.793,0,0,1-2.084,0L37.64,22.989l-7.517,5.8a1.82,1.82,0,0,1-2.11,0l-6.382-4.035Z" transform="translate(27.635 30.629)"/><path class="a" d="M37.086,22.165a1.793,1.793,0,0,1-1.741-1.424,24.027,24.027,0,0,0-2.321-6.514,1.769,1.769,0,1,1,3.138-1.635A27.719,27.719,0,0,1,38.8,20.055a1.741,1.741,0,0,1-1.371,2.084Z" transform="translate(53.745 19.057)"/><path class="a" d="M53.924,16.959a1.767,1.767,0,0,1-1.213-.475,24.369,24.369,0,0,0-31.991-.923,1.767,1.767,0,0,1-2.506-.237,1.82,1.82,0,0,1,.237-2.637A27.93,27.93,0,0,1,36.2,6.33a27.613,27.613,0,0,1,18.91,7.411,1.767,1.767,0,0,1,0,2.637A1.793,1.793,0,0,1,53.924,16.959Z" transform="translate(29.074 10.365)"/><path class="c" d="M12.2,60.966H8.538a1.978,1.978,0,1,1,0-3.956H12.2a1.978,1.978,0,0,1,0,3.956Z" transform="translate(10.741 93.347)"/><path class="c" d="M11.18,58.988a1.952,1.952,0,0,1,1.978-1.978H16.8a1.978,1.978,0,0,1,0,3.956h-3.64a1.978,1.978,0,0,1-1.978-1.978" transform="translate(18.306 93.347)"/><path class="c" d="M11.538,66.242A2,2,0,0,1,9.56,64.264V60.6a1.978,1.978,0,0,1,3.956,0v3.666a2,2,0,0,1-1.978,1.978Z" transform="translate(15.653 95.983)"/><path class="c" d="M11.538,61.606A2,2,0,0,1,9.56,59.628v-3.64a1.978,1.978,0,0,1,3.956,0v3.64a2,2,0,0,1-1.978,1.978Z" transform="translate(15.653 88.435)"/><path class="c" d="M56.2,42.956H52.538a1.978,1.978,0,0,1,0-3.956H56.2a1.978,1.978,0,0,1,0,3.956Z" transform="translate(82.786 63.858)"/><path class="c" d="M60.8,42.956h-3.64a1.978,1.978,0,0,1,0-3.956H60.8a1.978,1.978,0,1,1,0,3.956Z" transform="translate(90.351 63.858)"/><path class="c" d="M55.538,48.216a1.978,1.978,0,0,1-1.978-1.978V42.6a1.978,1.978,0,0,1,3.956,0v3.64a1.952,1.952,0,0,1-1.978,1.978Z" transform="translate(87.698 66.511)"/><path class="c" d="M55.538,43.622a2,2,0,0,1-1.978-1.978V37.978a1.978,1.978,0,0,1,3.956,0v3.666a1.978,1.978,0,0,1-1.978,1.978Z" transform="translate(87.698 58.946)"/><path class="c" d="M47.2,6.956H43.538a1.978,1.978,0,0,1,0-3.956H47.2a1.978,1.978,0,0,1,0,3.956Z" transform="translate(68.05 4.912)"/><path class="c" d="M51.8,6.956h-3.64a1.978,1.978,0,0,1,0-3.956H51.8a1.978,1.978,0,1,1,0,3.956Z" transform="translate(75.614 4.912)"/><path class="c" d="M46.538,12.216a2,2,0,0,1-1.978-1.978V6.6a1.978,1.978,0,0,1,3.956,0v3.64a1.978,1.978,0,0,1-1.978,1.978Z" transform="translate(72.962 7.565)"/><path class="c" d="M46.538,7.6A1.978,1.978,0,0,1,44.56,5.618V1.978a1.978,1.978,0,0,1,3.956,0v3.64A1.952,1.952,0,0,1,46.538,7.6Z" transform="translate(72.962)"/><path class="c" d="M63.188,13.956h-3.64a1.978,1.978,0,1,1,0-3.956h3.64a1.978,1.978,0,0,1,0,3.956Z" transform="translate(94.264 16.374)"/><path class="c" d="M67.824,13.956H64.158a1.978,1.978,0,0,1,0-3.956h3.666a1.978,1.978,0,1,1,0,3.956Z" transform="translate(101.812 16.374)"/><path class="c" d="M62.548,19.216a1.978,1.978,0,0,1-1.978-1.978V13.6a1.978,1.978,0,0,1,3.956,0v3.64a2,2,0,0,1-1.978,1.978Z" transform="translate(99.176 19.026)"/><path class="c" d="M62.548,14.622a1.978,1.978,0,0,1-1.978-1.978V8.978a1.978,1.978,0,0,1,3.956,0v3.666A2,2,0,0,1,62.548,14.622Z" transform="translate(99.176 11.462)"/><path class="c" d="M15.528,39.9H4.978a1.978,1.978,0,1,1,0-3.956h10.55a1.978,1.978,0,1,1,0,3.956Z" transform="translate(4.912 58.848)"/><path class="c" d="M6.978,48.446A2,2,0,0,1,5,46.468V35.918a1.978,1.978,0,0,1,3.956,0v10.55a2,2,0,0,1-1.978,1.978Z" transform="translate(8.187 55.573)"/><ellipse class="c" cx="1.978" cy="1.978" rx="1.978" ry="1.978" transform="translate(13.187 78.963)"/><ellipse class="c" cx="1.978" cy="1.978" rx="1.978" ry="1.978" transform="translate(13.187 71.051)"/><ellipse class="c" cx="1.978" cy="1.978" rx="1.978" ry="1.978" transform="translate(13.187 60.502)"/><ellipse class="c" cx="1.978" cy="1.978" rx="1.978" ry="1.978" transform="translate(13.187 44.677)"/></g></svg>