<svg xmlns="http://www.w3.org/2000/svg" width="543.857" height="349.841" viewBox="0 0 543.857 349.841"><defs><style>.a{fill:#273d83;}.b{fill:#fff;}.c{fill:#00ebc7;}.d{fill:#002daa;}.e,.m{fill:#b3cdfa;}.f{fill:#111159;}.g{fill:#1067db;}.h{fill:#829dff;}.i,.k{fill:none;stroke-miterlimit:10;}.i{stroke:#002daa;stroke-linecap:round;}.j{fill:#2b2b7f;}.k{stroke:#2b2b7f;}.l,.o{fill:#001755;}.l{opacity:0.5;}.m{opacity:0.3;}.n{fill:#002280;opacity:0.7;}.o{opacity:0.2;}</style></defs><g transform="translate(0 0.001)"><g transform="translate(0 -0.001)"><path class="a" d="M374.343,197.2H217.51a3.136,3.136,0,0,1-3.169-3.7l11.117-78.682a4.43,4.43,0,0,1,4.231-3.7H386.522a3.136,3.136,0,0,1,3.169,3.7L378.558,193.5A4.4,4.4,0,0,1,374.343,197.2Z" transform="translate(141.273 73.259)"/><path class="b" d="M234.831,120.135H225.29l.68-4.845h9.557Z" transform="translate(148.526 76.008)"/><path class="b" d="M341.573,124.815H268.2l.7-4.845h73.356Z" transform="translate(176.815 79.094)"/><path class="b" d="M340.4,133.045H267.04l.68-4.845h73.373Z" transform="translate(176.05 84.519)"/><path class="b" d="M339.236,141.285H265.88l.68-4.845h73.356Z" transform="translate(175.285 89.952)"/><path class="b" d="M306.739,149.508H264.71l.68-4.828h42.046Z" transform="translate(174.514 95.384)"/><path class="b" d="M233.691,128.2H224.15l.68-4.845h9.541Z" transform="translate(147.774 81.322)"/><path class="b" d="M232.551,136.265H223.01l.68-4.845h9.541Z" transform="translate(147.022 86.642)"/><path class="b" d="M231.411,144.325H221.87l.68-4.845h9.541Z" transform="translate(146.271 91.956)"/><path class="b" d="M230.271,152.385H220.73l.68-4.845h9.541Z" transform="translate(145.519 97.27)"/><path class="b" d="M229.131,160.455H219.59l.68-4.845h9.541Z" transform="translate(144.768 102.59)"/><path class="b" d="M251.406,120.6l-3.186,22.483h0L261.826,159a26.365,26.365,0,0,0,8.844-15.846h0C272.445,130.672,263.817,120.6,251.406,120.6Z" transform="translate(163.642 79.509)"/><path class="c" d="M242.88,127.19a26.25,26.25,0,0,0-8.86,15.863h22.466l3.186-22.483a25.7,25.7,0,0,0-16.792,6.62Z" transform="translate(154.281 79.489)"/><path class="d" d="M256.5,134.81H234.03c-1.759,12.411,6.869,22.483,19.281,22.483a25.752,25.752,0,0,0,16.808-6.637Z" transform="translate(154.138 88.877)"/><path class="b" d="M341.755,136.482h-115a4.48,4.48,0,0,1-4.563-5.276l9.01-62.538a6.338,6.338,0,0,1,6.089-5.276h115a4.48,4.48,0,0,1,4.563,5.26l-9.01,62.554a6.338,6.338,0,0,1-6.09,5.276Z" transform="translate(146.433 41.792)"/><path class="e" d="M284.878,72.773H234.37L235,68.31l50.525.017Z" transform="translate(154.512 45.036)"/><path class="e" d="M258.8,78.543H233.53l.647-4.463,25.271.017Z" transform="translate(153.958 48.84)"/><path class="f" d="M226.65,113.845c4.812-5.409,10.138-12.345,15.464-17.273a13.009,13.009,0,0,1,6.388-3.866c3.4-.5,5.99,2.024,8.13,4.3,2.555,2.738,5.376,5.492,9.242,6.222,4.762.913,9.956-1.46,14.635-3.816a40.487,40.487,0,0,0,11.432-7.616c3.053-3.319,5.127-7.45,8.827-9.956a4.978,4.978,0,0,1,2.107-.9,3.651,3.651,0,0,1,3.153,1.51c1.974,2.356,2.323,5.724,3.086,8.811s2.323,6.255,5.476,6.986c4.082.946,8.446-2.738,11.134-6.455s4.978-8.1,9.06-10.238a4.015,4.015,0,0,1,3.849-.365c1.161.763,1.178,2.439,1.112,3.883q-.481,9.093-.929,18.136c-.133,2.505-.83,8.529-2.588,10.586Z" transform="translate(149.422 53.311)"/><path class="d" d="M127.3,8.72a2.29,2.29,0,0,0-2.124,1.659,1.294,1.294,0,0,0,1.311,1.659,2.29,2.29,0,0,0,2.124-1.659A1.311,1.311,0,0,0,127.3,8.72Z" transform="translate(82.492 5.75)"/><path class="d" d="M269.006,56.791a1.659,1.659,0,0,0-1.527,1.228.946.946,0,0,0,.929,1.244,1.659,1.659,0,0,0,1.543-1.244.929.929,0,0,0-.946-1.228Z" transform="translate(176.307 37.44)"/><path class="d" d="M249.337,18.78a2.356,2.356,0,0,0-2.14,1.659,1.327,1.327,0,0,0,1.311,1.659,2.34,2.34,0,0,0,2.14-1.659,1.327,1.327,0,0,0-1.311-1.659Z" transform="translate(162.94 12.383)"/><path class="d" d="M39.109,43.28a2.306,2.306,0,0,0-2.14,1.659A1.311,1.311,0,0,0,38.28,46.6a2.34,2.34,0,0,0,2.14-1.659,1.327,1.327,0,0,0-1.311-1.659Z" transform="translate(24.341 28.535)"/><path class="d" d="M276.082,172.23a2.306,2.306,0,0,0-2.14,1.659,1.294,1.294,0,0,0,1.311,1.659,2.339,2.339,0,0,0,2.14-1.659,1.327,1.327,0,0,0-1.311-1.659Z" transform="translate(180.564 113.547)"/><path class="d" d="M174.626,18.77a2.356,2.356,0,0,0-2.157,1.742,1.311,1.311,0,0,0,1.327,1.659,2.323,2.323,0,0,0,2.14-1.659,1.327,1.327,0,0,0-1.311-1.742Z" transform="translate(113.671 12.376)"/><path class="g" d="M160.805,0a2.671,2.671,0,0,0-2.456,1.975,1.51,1.51,0,0,0,1.51,1.975,2.671,2.671,0,0,0,2.456-1.975A1.51,1.51,0,0,0,160.805,0Z" transform="translate(104.345 0.001)"/><path class="g" d="M258.345,187a2.671,2.671,0,0,0-2.456,1.975,1.51,1.51,0,0,0,1.51,1.975,2.671,2.671,0,0,0,2.439-1.975A1.51,1.51,0,0,0,258.345,187Z" transform="translate(168.65 123.284)"/><path class="g" d="M320.081,65.121a2.655,2.655,0,0,0-2.439,1.975,1.493,1.493,0,0,0,1.493,1.975,2.671,2.671,0,0,0,2.472-1.975,1.51,1.51,0,0,0-1.527-1.975Z" transform="translate(209.357 42.932)"/><path class="g" d="M75.477,6.7a3.783,3.783,0,0,0-3.435,2.8,2.14,2.14,0,0,0,2.124,2.8,3.783,3.783,0,0,0,3.468-2.8,2.14,2.14,0,0,0-2.157-2.8Z" transform="translate(47.425 4.417)"/><path class="g" d="M21.477,91.122a3.8,3.8,0,0,0-3.435,2.8,2.14,2.14,0,0,0,2.14,2.8,3.8,3.8,0,0,0,3.468-2.8,2.14,2.14,0,0,0-2.174-2.8Z" transform="translate(11.824 60.072)"/><path class="h" d="M61.769,20.132,97.758,19.8a4.58,4.58,0,0,1,4.5,5.127L95.933,62.211a3.484,3.484,0,0,1-3.484,2.92l-36.039.382h0a4.58,4.58,0,0,1-4.4-5.111l6.322-37.317A3.5,3.5,0,0,1,61.769,20.132Z" transform="translate(34.269 13.055)"/><path class="b" d="M63.581,36.063h-2.92A1.327,1.327,0,0,0,59.4,37.125l-.68,3.733A.863.863,0,0,0,59.6,41.92h2.29a.747.747,0,0,1,.73.6,1.089,1.089,0,0,0,.133.631A1,1,0,0,1,62.4,44.16l-1.908,1.659a1.1,1.1,0,0,0-.265,1.51l2.14,2.622a1.062,1.062,0,0,0,1.527,0l1.925-1.659a.946.946,0,0,1,1-.183l.647.282a.73.73,0,0,1,.415.83L67.5,51.527a.863.863,0,0,0,.879,1.062h3.717a1.327,1.327,0,0,0,1.261-1.062l.415-2.29a1.145,1.145,0,0,1,.747-.83l.713-.282a.83.83,0,0,1,1,.166l1.327,1.659a1.062,1.062,0,0,0,1.51,0l3.1-2.638a1.112,1.112,0,0,0,.265-1.527L81.1,44.127a.846.846,0,0,1,0-.979c.149-.232.282-.481.415-.7a1.078,1.078,0,0,1,.913-.564h2.323a1.377,1.377,0,0,0,1.261-1.079l.664-3.717a.879.879,0,0,0-.929-1.079h-2.29a.73.73,0,0,1-.73-.6,3.882,3.882,0,0,0-.149-.631,1.062,1.062,0,0,1,.348-1.029L84.836,32.1a1.1,1.1,0,0,0,.282-1.51l-2.157-2.539a1.1,1.1,0,0,0-1.527,0l-1.908,1.659a.979.979,0,0,1-1.012.183l-.647-.282a.713.713,0,0,1-.415-.813l.415-2.323a.863.863,0,0,0-.879-1.062H73.271a1.327,1.327,0,0,0-1.261,1.079l-.415,2.29a1.145,1.145,0,0,1-.747.83l-.68.265a.83.83,0,0,1-1.012-.166l-1.327-1.659a1.062,1.062,0,0,0-1.51,0l-3.1,2.638a1.112,1.112,0,0,0-.282,1.51l1.344,1.659a.846.846,0,0,1,0,.979C63.963,35.349,63.6,36.013,63.581,36.063Zm14.1,3.866a6.289,6.289,0,0,1-7.815,3.966A4.463,4.463,0,0,1,67.663,38a6.289,6.289,0,0,1,7.815-3.966A4.463,4.463,0,0,1,77.685,39.929Z" transform="translate(38.696 16.753)"/><path class="f" d="M193.194,65.091h54.938a6.222,6.222,0,0,0,6.289-5.193l7.317-42.461a8.164,8.164,0,0,0-7.981-9.176H198.819a6.206,6.206,0,0,0-6.289,5.177l-7.317,42.51a8.18,8.18,0,0,0,7.981,9.143Z" transform="translate(122.066 5.446)"/><path class="b" d="M227.326,32.254l-8.3-2.987.315-1.991-3.119,1.809H214.1L211.6,27.26l-.315,2.008-9.209,2.987a1.941,1.941,0,0,0-1.311,1.493l-1.112,7.135h27.411l1.112-7.135a1.311,1.311,0,0,0-.846-1.493Z" transform="translate(131.622 17.973)"/><path class="b" d="M214.359,15.291a8.047,8.047,0,0,0-7.666,6.637l-.6,7.964a2.605,2.605,0,0,0,1.278,2.522l.365.282,2.505,1.825h2.124l3.119-1.809.531-.3a3.849,3.849,0,0,0,2.058-2.522l1.875-7.964a5.542,5.542,0,0,0-5.592-6.637Z" transform="translate(135.862 10.081)"/><path class="b" d="M360.441,91.966h0L353.8,85.03l-1.394,3.65H109.345A12.013,12.013,0,0,0,97.5,98.636L66.9,229.486c-.962,13.274,7.185,18.833,14.635,18.833H329.065a12.013,12.013,0,0,0,11.847-9.956l23.213-135.645a12,12,0,0,0-3.684-10.752Z" transform="translate(44.054 56.059)"/><path class="i" d="M360.441,91.966h0L353.8,85.03l-1.394,3.65H109.345A12.013,12.013,0,0,0,97.5,98.636L66.9,229.486c-.962,13.274,7.185,18.833,14.635,18.833H329.065a12.013,12.013,0,0,0,11.847-9.956l23.213-135.645a12,12,0,0,0-3.684-10.752Z" transform="translate(44.054 56.059)"/><path class="j" d="M321.7,242.258H78.849a12.013,12.013,0,0,1-11.781-14.037l23.064-135.6a12.013,12.013,0,0,1,11.847-9.956H344.812a12.03,12.03,0,0,1,11.864,14.037l-23.13,135.545A12.013,12.013,0,0,1,321.7,242.258Z" transform="translate(44.102 54.503)"/><path class="f" d="M236.448,96.129a5.393,5.393,0,1,1-4.231-6.836A5.691,5.691,0,0,1,236.448,96.129Z" transform="translate(148.916 58.815)"/><line class="k" x2="543.857" transform="translate(0 349.094)"/><path class="l" d="M94.566,82.66a12.013,12.013,0,0,0-11.847,9.956L78.04,119.977h70.436a2.953,2.953,0,0,0,2.771-2.356l6.139-35.01Z" transform="translate(51.449 54.464)"/><path class="b" d="M171.548,130.491H30.228a2.074,2.074,0,0,1-2.107-2.539L40.7,56.306a3.169,3.169,0,0,1,2.987-2.555H185.021a2.091,2.091,0,0,1,2.107,2.555l-12.577,71.647a3.169,3.169,0,0,1-3,2.539Z" transform="translate(18.504 35.437)"/><path class="e" d="M47.762,61.861H39.25l.763-4.331h8.512Z" transform="translate(25.876 37.929)"/><path class="e" d="M46.5,69.051H37.99l.763-4.331h8.512Z" transform="translate(25.045 42.669)"/><path class="e" d="M45.242,76.241H36.73l.747-4.331h8.512Z" transform="translate(24.215 47.409)"/><path class="e" d="M43.982,83.431H35.47l.747-4.331h8.512Z" transform="translate(23.384 52.15)"/><path class="e" d="M42.729,90.621H34.2l.763-4.331h8.512Z" transform="translate(22.547 56.89)"/><path class="e" d="M41.452,97.794H32.94L33.7,93.48h8.512Z" transform="translate(21.716 61.63)"/><path class="e" d="M131.885,72.6H87.4l.747-4.331h44.5Z" transform="translate(57.62 45.01)"/><path class="e" d="M130.595,79.941H86.11l.763-4.331h44.485Z" transform="translate(56.769 49.849)"/><path class="e" d="M110.306,87.274H84.82l.763-4.314H111.07Z" transform="translate(55.919 54.694)"/><path class="m" d="M81.755,61.53h0A32.621,32.621,0,0,0,60.9,69.577a33.517,33.517,0,0,0-11.449,19.43C46.778,104.19,56.933,116.5,72.115,116.5a32.638,32.638,0,0,0,20.84-8.047,33.434,33.434,0,0,0,11.466-19.447h0C107.059,73.825,96.938,61.53,81.755,61.53Zm6.637,41.382a23.23,23.23,0,0,1-14.933,5.758c-10.852,0-18.1-8.794-16.211-19.662a24.059,24.059,0,0,1,8.2-13.9,23.362,23.362,0,0,1,14.933-5.758h0c10.868,0,18.119,8.811,16.211,19.662h0A23.926,23.926,0,0,1,88.392,102.912Z" transform="translate(32.319 40.566)"/><path class="g" d="M72.563,68.182h0L73.94,60.35h0A32.638,32.638,0,0,0,53.1,68.4l4.546,5.542a23.23,23.23,0,0,1,14.917-5.758Z" transform="translate(35.007 39.788)"/><path class="d" d="M66.207,60.35,64.83,68.182c10.868,0,18.119,8.794,16.211,19.662h0a23.976,23.976,0,0,1-8.2,13.9l4.563,5.525a33.451,33.451,0,0,0,11.466-19.43h0C91.528,72.662,81.389,60.35,66.207,60.35Z" transform="translate(42.74 39.788)"/><path class="e" d="M54.005,84.647a23.96,23.96,0,0,1,8.2-13.9L57.656,65.2A33.434,33.434,0,0,0,46.19,84.647Z" transform="translate(30.451 42.986)"/><path class="c" d="M85.3,90.825a23.329,23.329,0,0,1-14.933,5.758c-10.852,0-18.1-8.811-16.211-19.662h-7.8C43.688,92.1,53.843,104.4,69.025,104.4a32.555,32.555,0,0,0,20.84-8.047Z" transform="translate(30.282 50.712)"/><path class="n" d="M78.138,218.078l13.54-94.81a2.605,2.605,0,0,0,2.29-2.157,1.875,1.875,0,0,0-1.908-2.19,2.638,2.638,0,0,0-2.522,2.19,1.842,1.842,0,0,0,1.659,2.157L77.64,218.078Z" transform="translate(51.185 78.401)"/><path class="f" d="M105.4,214.089l12.129-84.755a2.622,2.622,0,0,0,2.273-2.157,1.875,1.875,0,0,0-1.908-2.207,2.655,2.655,0,0,0-2.522,2.207,1.858,1.858,0,0,0,1.659,2.157L105,214.089Z" transform="translate(69.223 82.39)"/><path class="f" d="M232.438,102.35a2.622,2.622,0,0,0-2.522,2.207,1.842,1.842,0,0,0,1.659,2.157L214.12,229h.481l17.455-122.255a2.605,2.605,0,0,0,2.273-2.157,1.875,1.875,0,0,0-1.891-2.24Z" transform="translate(141.162 67.477)"/><path class="f" d="M187.275,224.815l15.979-111.751a2.638,2.638,0,0,0,2.273-2.157,1.875,1.875,0,0,0-1.842-2.207,2.638,2.638,0,0,0-2.522,2.207,1.875,1.875,0,0,0,1.659,2.157L186.86,224.815Z" transform="translate(123.19 71.664)"/><path class="f" d="M159.985,237.282,180.41,94.154A2.605,2.605,0,0,0,182.683,92a1.858,1.858,0,0,0-1.892-2.207A2.6,2.6,0,0,0,178.27,92a1.842,1.842,0,0,0,1.659,2.157L159.52,237.282Z" transform="translate(105.166 59.197)"/><path class="f" d="M132.7,231.019l18.252-127.365a2.572,2.572,0,0,0,2.273-2.157,1.875,1.875,0,0,0-1.892-2.207,2.622,2.622,0,0,0-2.522,2.207,1.825,1.825,0,0,0,1.659,2.157L132.22,231.019Z" transform="translate(87.168 65.46)"/><path class="o" d="M346.225,117.644l.4-2.821a113.974,113.974,0,0,0-18.6,10.9c-5.824,4.215-10.984,9.275-16.759,13.523-11.482,8.446-23.064,9.076-33.733,2.671-21.57-12.992-30.978-46.576-64.711-34.247-33.185,12.146-46.692,52.217-80.01,63.616-19.015,6.5-28.838-3.617-41.482-12.909a27.693,27.693,0,0,0-17.638-6.106l-.431,2.489c12.063,0,19.48,9.508,29.867,16.194,9.557,6.09,21.006,6.239,32.721,1.543,32.522-13.075,46.211-53.478,80.176-63.55,37.317-11.051,42,37.317,73.738,39.922,12.03,1,21.57-6.786,30.846-14.6a124.561,124.561,0,0,1,25.619-16.626Z" transform="translate(48.298 69.224)"/><path class="c" d="M359.947,106.043A114.672,114.672,0,0,0,334.279,120c-5.824,4.215-10.984,9.275-16.775,13.523-11.466,8.446-23.047,9.076-33.716,2.655-21.57-12.975-31-46.576-64.711-34.231-33.185,12.146-46.692,52.217-80.01,63.6-19.015,6.521-28.838-3.6-41.482-12.892-9.375-6.936-18.849-8.2-31.028-2.8a1.128,1.128,0,1,0,.913,2.057c20.226-8.86,28.523,4.679,42.129,13.291,9.557,6.106,21.006,6.255,32.721,1.56,32.522-13.075,46.211-53.495,80.159-63.55,37.333-11.051,42.013,37.317,73.754,39.922,12.03,1,21.57-6.786,30.846-14.6A121.208,121.208,0,0,1,359.4,108.78C364.792,106.574,365.091,104.052,359.947,106.043Z" transform="translate(43.386 65.444)"/><path class="b" d="M77.266,118.64h2.306a9.574,9.574,0,0,1,9.574,9.574v20.674l15.215,31.393,12.511,25.652a9.856,9.856,0,0,1,.448,7.55l-5.442,15.68c0,2.854-1.56,38.711-3.086,41.133h-1.444l-52.748.315,21.388-52.765a23.711,23.711,0,0,0,0-13.556l-9.956-33.849a13.722,13.722,0,0,1,1.161-10.47L73.333,149.1l-.514-8.3Z" transform="translate(35.996 78.217)"/><path class="e" d="M65.883,137.173v-1.991a2.417,2.417,0,0,0-.133-.962Z" transform="translate(43.347 88.488)"/><path class="e" d="M65.242,158.14,75.2,191.989a22.962,22.962,0,0,1,.73,3.319c0,.581.133,1.161.166,1.759a23.446,23.446,0,0,1-.962,8.429L56,258.294H67.1a47.654,47.654,0,0,1,3.468-12.544c4.447-10.138,12.892-18.8,14.1-29.867a47.438,47.438,0,0,0-.813-12.61c-1.792-11.714-3.634-23.545-8.047-34.529-2.389-5.924-5.559-11.781-5.608-18.169,0-4.463,1.46-8.827,1.975-13.274l-.863,1.56-4.878,8.777a13.739,13.739,0,0,0-1.659,8.479,14.17,14.17,0,0,0,.465,2.024Z" transform="translate(36.919 90.519)"/><path class="j" d="M115.213,194.733c0,2.871-4.895,30.829-6.421,33.185h-1.444l-52.748.315L68.538,182.82Z" transform="translate(35.996 120.528)"/><path class="i" d="M65.89,137.03l4.38,19.679V166.98" transform="translate(43.439 90.341)"/><path class="b" d="M201.049,164.035v30.5l-6.421-12.378-2.174-11.366a10.686,10.686,0,0,0-10.918-8.661H179.96V186.2l14.253,26.548,18.567,20.658,5.559,4.895a12.71,12.71,0,0,1,3.982,6.637l6.753,33.617,54.673-.365-18.866-49.264a10.37,10.37,0,0,1-.664-3.551l-.3-41.747a14.253,14.253,0,0,0-6.04-11.615l-2.887-2.041a7.832,7.832,0,0,0-2.655-1.195l-17.124-4.015-6.488-12.793a8.728,8.728,0,0,0-7.915-4.762l-7.151.133L202.41,110.69a5.26,5.26,0,0,0-4.978-3.7h0a5.227,5.227,0,0,0-5.144,6.139Z" transform="translate(118.641 70.536)"/><path class="e" d="M216.585,145.034a76.465,76.465,0,0,0,6.836,6.023,25.868,25.868,0,0,1,7.915,14.154c1.759,9.308-1.659,19.082.581,28.207,1.178,4.828,3.85,9.159,5.194,13.954,3.319,11.615-1.56,24.408,2.273,35.824a69.494,69.494,0,0,0,6.139,11.88l15.282-.1-18.866-49.264c-.1-.282-.2-.564-.282-.863a9.84,9.84,0,0,1-.382-2.688l-.3-41.747v-.846a13.872,13.872,0,0,0-.216-1.659,14.944,14.944,0,0,0-.415-1.659,14.253,14.253,0,0,0-5.376-7.35l-1.659-1.195-1.195-.846-.614-.4a9,9,0,0,0-2.041-.8l-14.7-3.435A16.791,16.791,0,0,0,216.585,145.034Z" transform="translate(141.584 93.769)"/><path class="j" d="M255.517,187.92l13.191,38.03-56.465-.647-6.753-25.719Z" transform="translate(135.472 123.891)"/><line class="i" x2="3.667" y2="14.22" transform="translate(332.301 218.062)"/><path class="a" d="M232.443,27.731H96.284a3.567,3.567,0,0,0-3.65,3.053L88.817,55.673a4.978,4.978,0,0,0,4.8,5.393H229.771a3.551,3.551,0,0,0,3.717-3.02L237.3,33.157a4.978,4.978,0,0,0-4.862-5.426Z" transform="translate(58.542 18.282)"/><path class="e" d="M117.04,41.622a11.615,11.615,0,0,1-11.1,9.624,8.047,8.047,0,0,1-8.147-9.624,11.615,11.615,0,0,1,11.117-9.64,8.047,8.047,0,0,1,8.13,9.64Z" transform="translate(64.368 21.084)"/><path class="c" d="M194.466,37.473H119.65l.548-3.883H195.18Z" transform="translate(78.881 22.146)"/><path class="e" d="M173.894,43.173H118.84l.548-3.883h55.22Z" transform="translate(78.347 25.904)"/><path class="h" d="M276.25,54.75H140.091a3.567,3.567,0,0,0-3.567,3.053l-3.816,24.889a4.978,4.978,0,0,0,4.8,5.409H273.662a3.567,3.567,0,0,0,3.567-3.07l3.816-24.889a4.978,4.978,0,0,0-4.8-5.393Z" transform="translate(87.477 36.096)"/><path class="e" d="M160.895,68.642a11.615,11.615,0,0,1-11.117,9.624,8.064,8.064,0,0,1-8.147-9.624A11.615,11.615,0,0,1,152.748,59a8.047,8.047,0,0,1,8.147,9.64Z" transform="translate(93.271 38.897)"/><path class="b" d="M199.971,64.493H163.5l.548-3.883h36.637Z" transform="translate(107.79 39.96)"/><path class="e" d="M217.744,70.193H162.69l.548-3.883h55.22Z" transform="translate(107.256 43.718)"/><path class="c" d="M273.407,69.77l-34.43.315a4.364,4.364,0,0,1-4.314-4.895l6.04-35.641a3.318,3.318,0,0,1,3.319-2.8l34.48-.365h0a4.364,4.364,0,0,1,4.264,4.895l-6.04,35.691A3.319,3.319,0,0,1,273.407,69.77Z" transform="translate(154.683 17.393)"/><path class="b" d="M262.93,43.2a12.942,12.942,0,0,0-12.411-10.852A9.192,9.192,0,0,0,241.21,43.2a12.975,12.975,0,0,0,12.411,10.868A9.192,9.192,0,0,0,262.93,43.2Zm-9.856,7.035a8.4,8.4,0,0,1-8.031-7.035,5.957,5.957,0,0,1,6.023-7.019A8.379,8.379,0,0,1,259.1,43.2a5.957,5.957,0,0,1-6.023,7.035Z" transform="translate(158.921 21.327)"/><rect class="b" width="4.978" height="8.778" transform="matrix(0.651, -0.759, 0.759, 0.651, 419.807, 75.838)"/></g></g></svg>