<svg xmlns="http://www.w3.org/2000/svg" xmlns:xlink="http://www.w3.org/1999/xlink" width="600.529" height="328.261" viewBox="0 0 600.529 328.261"><defs><style>.a{fill:none;}.b,.f{fill:#2b2b7f;}.b,.e,.g,.h,.i,.j,.k,.l,.m,.n,.o,.p,.q,.r,.s,.t,.u,.v,.w,.x{fill-rule:evenodd;}.c{clip-path:url(#a);}.d,.s{fill:#829dff;}.e{fill:#e4f5fb;}.g{fill:#a5dbfd;}.h{fill:#fdfdfd;}.i{fill:#b2defc;}.j{fill:#003398;}.k{fill:#fff;}.l{fill:#f8babc;}.m{fill:#ea8287;}.n{fill:#0c1630;}.o{fill:#ee4354;}.p{fill:#00ebc7;}.q{fill:#76c5fb;}.r{fill:#1a47b6;}.t{fill:#f7aaac;}.u{fill:#e88e92;}.v{fill:#8ccdfb;}.w{fill:#ec1c24;}.x{fill:#3dabf9;}</style><clipPath id="a"><path class="a" d="M61.288,24.33h336.33a.328.328,0,0,1,.328.328v213.7a.328.328,0,0,1-.328.328H61.288a.328.328,0,0,1-.328-.328V24.658a.328.328,0,0,1,.328-.328" transform="translate(-60.96 -24.33)"/></clipPath></defs><g transform="translate(-0.128 0.009)"><g transform="translate(0.128 -0.009)"><path class="b" d="M73.4,15.3H398.157a21.213,21.213,0,0,1,21.161,21.161V239.676a21.23,21.23,0,0,1-21.161,21.178H73.4A21.23,21.23,0,0,1,52.24,239.676V36.461A21.213,21.213,0,0,1,73.4,15.3" transform="translate(37.779 11.145)"/><g class="c" transform="translate(105.083 42.043)"><rect class="d" width="337.004" height="214.357" transform="translate(0 0)"/></g><path class="b" d="M155.671,156.557c-1.486,29.055-5.424,36.4-32.821,52.946H244.029c-27.328-16.549-31.284-23.89-32.821-52.946l-27.639-2.367Z" transform="translate(89.143 112.177)"/><path class="e" d="M419.338,137.14v13.906a21.23,21.23,0,0,1-21.161,21.178H73.421A21.23,21.23,0,0,1,52.26,151.046V137.14Z" transform="translate(37.794 99.775)"/><rect class="f" width="367.113" height="22.232" transform="translate(90.019 223.199)"/><path class="e" d="M169.855,15.55H306.719a4.4,4.4,0,1,0,0-8.81H169.855a4.4,4.4,0,1,0,0,8.81" transform="translate(120.132 4.918)"/><path class="g" d="M161.2,200.821H289.686L305.095,17.23H176.4Z" transform="translate(117.04 12.549)"/><path class="h" d="M182.919,11.84c-7.376,67.18-21.956,124.478-34.549,192.3,45.224.6,90.69.6,135.689.6,9.846-49.905,21.766-140.112,31.249-192.9Z" transform="translate(107.707 8.628)"/><path class="i" d="M166.26,99.12h88.617a2.28,2.28,0,0,1,2.28,2.28h0a2.28,2.28,0,0,1-2.28,2.28H166.26a2.28,2.28,0,0,1-2.28-2.28h0a2.28,2.28,0,0,1,2.28-2.28" transform="translate(119.062 72.118)"/><path class="i" d="M164.4,107.56h88.617a2.3,2.3,0,0,1,2.28,2.28h0a2.3,2.3,0,0,1-2.28,2.28H164.4a2.28,2.28,0,0,1-2.28-2.28h0a2.3,2.3,0,0,1,2.28-2.28" transform="translate(117.709 78.257)"/><path class="j" d="M116.212,85.766c8.343,18.328,18.708,39.334,42.6,42.892,19.382,2.885,47.746-33.6,50.545-39.558s-7.808-21.489-11.228-19.693S166.618,92.9,164.044,92.727c-2.988-.19-13.232-32.717-31.785-43.428-2.9-1.727-19.641,28.589-16.048,36.466" transform="translate(83.948 35.826)"/><path class="j" d="M102.77,44.478c-11.8,0-21.9,3.628-29.038,11.021C63.8,65.863,81.056,135.271,82.369,191.62H182.836c.6-25.013.1-83.97-5.545-126.344-3.3-5.182-10.986-11.885-18.622-16.238-13.388-7.635-39.541-4.56-55.9-4.56" transform="translate(51.182 31.924)"/><path class="k" d="M125.423,44.372c14.649,7.912,26.05,62.187,25.739,147.039H110.809C109.272,102.6,95.262,59.746,89.7,44.579a206.4,206.4,0,0,1,35.723-.242" transform="translate(65.029 31.788)"/><path class="e" d="M92.871,44.249a187.473,187.473,0,0,1,29.781,0c3.558,4.837,4.889,20.055-7.359,26.343C105.1,68.658,88.6,54.959,92.836,44.249" transform="translate(66.816 31.773)"/><path class="k" d="M111.582,46.038A12.645,12.645,0,0,0,108.87,44l1.624.121a9.673,9.673,0,0,1,1.088,1.987" transform="translate(78.974 32.022)"/><path class="l" d="M139.256,43.843c1.727,10.555-11,18.587-19.606,17.879v4.837l.864,1.157c5.044,9.95-.38,17.637-5.6,20.315C106.745,85.111,95.448,77.666,95.275,67.2l.518-.639V48.127a7.98,7.98,0,0,1-1.831-.864c-1.9-1.106-2.643-3.8-2.125-6.581s4.543-.9,4.543-.9h0c-3.455-8.24-8-15.357,1.036-19.952S124.693,15.6,124.693,15.6l12.213-1.019c-2.954,4.491,1.313,22.267,2.4,29.263" transform="translate(66.467 10.621)"/><path class="m" d="M116.653,44.338a19.3,19.3,0,0,1-2.021-.1h0c-5.424,0-11.107-3.766-16.151-5.614,0,0,2.557,9.034,9,11.885a24.737,24.737,0,0,0,7.152,1.987V44.234h1.952Z" transform="translate(71.416 28.108)"/><path class="n" d="M108.872,34.883c-4.439,3.455-1.347,12.593-.1,15.219s2.8,6.564,1.727,6.91c-3.852,1.727-7.048-5.372-8.879-6.236a2.747,2.747,0,0,0-2.3,0c-1.727,1.3-.76,5.338,1.175,6.7.57.4,1.468,1.175,1.468,1.175-7.843-.207-26.4-18.881-17.274-30.316C86.882,5.707,99.907-.356,114.935.006c5.873.155,11.384,3.455,17.274,5.942A24.633,24.633,0,0,0,138.2,8.177c4.319.432,5.182-3.628,7.843-1.261,10.589,9.639,2.488,37.019-21.973,29.176-8-2.574-12.092-3.679-15.219-1.226" transform="translate(59.59 0.009)"/><path class="j" d="M111.893,71.811c4.3-8.862-.535-18.138-9.656-22.025h0c-9.121-3.9-19,1.607-23.268,10.468-8.447,17.4-33.115,57.005-21.006,76.473,9.829,15.858,36.5,8.223,42.65,6.564s9.9-20.971,9.9-20.971-18.293.449-20.349-4.319c-3.455-7.894,18.708-39.973,21.731-46.191" transform="translate(39.554 35.304)"/><path class="k" d="M89.524,92.816c-5.182,3.092-9.121,11.988-8.775,17.862,1.4-.276,13.422-4.267,13.422-4.267,4.2-4.768,5.6-10.9,4.509-14.821Z" transform="translate(58.502 66.64)"/><path class="o" d="M114.6,85.822l1.313,1.036a1,1,0,0,1,.173,1.416L93.633,116.691c-.345.432-2.988,1.727-3.455,1.347s.19-3.248.535-3.7L113.17,85.995a1.019,1.019,0,0,1,1.434-.173" transform="translate(65.259 62.285)"/><path class="l" d="M92.707,94.672l6.34-1.036,7.255-4.8a1.935,1.935,0,0,1,2.418.242c10.537,8.119,1.209,11.09-5.735,18.311-3.213,0-2.868,0-5.044-2.85-.432-.57-9.691,2.678-9.691,2.678a19.641,19.641,0,0,1,4.457-12.541" transform="translate(63.974 64.405)"/><path class="k" d="M164.043,64.6c-.9,5.614,4.353,14.7,8.343,16.307.432-.795,3.109-4.232,4.871-6.91,3.783-5.666-5.182-17.516-7.791-14.89Z" transform="translate(119.034 42.739)"/><path class="p" d="M187.64,76.59c4.111,7.152,7.963,16.687,8.793,23.7h21.783c1.727-3.455,6.754-10.365,11.4-16.2s8.9-10.952,8.81-10.952a31.2,31.2,0,0,0,6.91-15.27c1.244-6.91-.57-15.858-5.182-21.316A25.428,25.428,0,0,0,220.2,27.7a36.4,36.4,0,0,0-23.13,8.844,40.024,40.024,0,0,0-12.731,21.316,23.959,23.959,0,0,0,1.572,15.27c.674,1.209,1.071,2.367,1.831,3.559" transform="translate(133.44 20.161)"/><path class="k" d="M210.7,52.761a4.457,4.457,0,0,1,2.937-1.952,3.455,3.455,0,0,1,2.246.328,3.817,3.817,0,0,1,1.607,1.572,4.7,4.7,0,0,1,.518,2.643,8.05,8.05,0,0,1-.9,3.23c-.76,1.572-3.248,2.66-6.305,3.282-.795,4.457-1.607,8.914-2.384,13.37h-1.952c.777-4.353,1.555-8.637,2.332-13.059a34.687,34.687,0,0,1-8.637,0l-2.332,13.042h-2.073c.795-4.457,1.606-8.914,2.384-13.37-2.85-.622-4.906-1.727-5.182-3.282a7.635,7.635,0,0,1,.242-3.23,7.186,7.186,0,0,1,1.486-2.643,6.219,6.219,0,0,1,2.159-1.572,4.146,4.146,0,0,1,2.384-.328,2.816,2.816,0,0,1,2.246,1.952,7.117,7.117,0,0,1,0,3.8,2.2,2.2,0,0,1-.121.484l-1.969-.173a3.451,3.451,0,0,1,.1-.449,4.905,4.905,0,0,0,0-2.539,1.175,1.175,0,0,0-1-.846,2.09,2.09,0,0,0-1.244.173,3.455,3.455,0,0,0-1.244.9,4.25,4.25,0,0,0-.881,1.555,5.425,5.425,0,0,0-.156,2.159c.415,2.954,18.881,2.954,20.332,0a5.857,5.857,0,0,0,.639-2.159,3.144,3.144,0,0,0-.311-1.555,2.09,2.09,0,0,0-.916-.9,1.848,1.848,0,0,0-1.192-.173,1.9,1.9,0,0,0-1.313.846,6.012,6.012,0,0,0-.812,2.539v.449l-2.038.173v-.484a8.136,8.136,0,0,1,1.3-3.8" transform="translate(140.09 36.925)"/><path class="q" d="M194.729,70.621h14.32a2.626,2.626,0,0,1,2.643,3.213h0a4.042,4.042,0,0,1-3.8,3.213h-14.32a2.626,2.626,0,0,1-2.643-3.213h0a4.059,4.059,0,0,1,3.8-3.213" transform="translate(138.616 51.386)"/><path class="q" d="M194.027,74.8h12.092a1.727,1.727,0,0,1,1.727,2.177h0a2.678,2.678,0,0,1-2.539,2.159H193.371a1.727,1.727,0,0,1-1.727-2.159h0a2.729,2.729,0,0,1,2.384-2.177" transform="translate(139.145 54.426)"/><path class="q" d="M194.68,77.77H202.7a1.727,1.727,0,0,1,1.727,2.073h0a2.591,2.591,0,0,1-2.436,2.073h-8.015a1.727,1.727,0,0,1-1.727-2.073h0A2.608,2.608,0,0,1,194.7,77.77" transform="translate(139.597 56.587)"/><path class="p" d="M255.629,25.072h0a1.555,1.555,0,0,1,.207,2.3l-4.871,6.409a1.831,1.831,0,0,1-2.4.622h0a1.555,1.555,0,0,1-.225-2.3c1.624-2.142,3.23-4.284,4.854-6.409a1.883,1.883,0,0,1,2.436-.622m-50.441,0h0a1.52,1.52,0,0,1,2.211.622c.829,2.125,1.727,4.267,2.557,6.409a1.935,1.935,0,0,1-1.054,2.3h0a1.5,1.5,0,0,1-2.194-.622c-.846-2.125-1.727-4.267-2.557-6.409a1.935,1.935,0,0,1,1.036-2.3ZM183.422,43.521h0a1.9,1.9,0,0,1,2.418-.622l5.752,3.714a1.589,1.589,0,0,1,.225,2.315h0a1.9,1.9,0,0,1-2.453.6c-1.917-1.226-3.835-2.453-5.735-3.7a1.572,1.572,0,0,1-.207-2.315Zm87.356,0h0a1.952,1.952,0,0,1-1.054,2.315l-7.048,3.7a1.5,1.5,0,0,1-2.211-.6h0a1.935,1.935,0,0,1,1.036-2.315l7.1-3.714a1.537,1.537,0,0,1,2.177.622Zm2.246,25.22h0a2.125,2.125,0,0,1-2,1.727h-7.411a1.4,1.4,0,0,1-1.4-1.727h0a2.125,2.125,0,0,1,2-1.727h7.393a1.4,1.4,0,0,1,1.416,1.727Zm-90.085,0h0a2.125,2.125,0,0,1-2,1.727h-7.342a1.382,1.382,0,0,1-1.365-1.727h0a2.107,2.107,0,0,1,1.987-1.727h7.411a1.365,1.365,0,0,1,1.313,1.727ZM231.617,18.3h0A1.382,1.382,0,0,1,233,20.028c-.449,2.47-.881,4.94-1.313,7.411a2.125,2.125,0,0,1-2,1.727h0a1.365,1.365,0,0,1-1.382-1.727c.432-2.47.881-4.94,1.313-7.411A2.159,2.159,0,0,1,231.617,18.3Z" transform="translate(125.03 13.327)"/><path class="l" d="M171.917,66.818c.553-2.591,2.9-12.8,4.8-14.51.985-.881,1.209-.484,1.641,0a4.664,4.664,0,0,1,.587,2.712,37.624,37.624,0,0,1-.656,4.647c5.77-3.023,11.28-10.088,15.547-14.925,1.727-1.969,4.44-1.727,2.8,1.727-1.347,2.868-9.052,12.247-9.052,12.247l11.47-6.2c2.021-1.088,2.021,1.382,1.054,2.436-1.589,1.727-11.436,7.86-11.436,7.86l10.676-1.52a1.192,1.192,0,0,1-.242,1.952c-1.347.812-11.695,4.146-11.695,4.146l7,.121s.656,1.417-1.106,1.969c-.95.294-3.455.587-5.718,1.347a25.066,25.066,0,0,0-4.75,2.28c-4.146,2.47-6.1,6.581-9.034,10.019a18.829,18.829,0,0,1-6.15-11.574Z" transform="translate(121.732 31.661)"/><path class="r" d="M3.189,186.21H597.6a3.3,3.3,0,0,1,0,6.582H3.189a3.3,3.3,0,0,1,0-6.582" transform="translate(-0.128 135.469)"/><path class="s" d="M295.884,114.25c-21.679,20.729-35.81,85.2-63.362,93.868a23.822,23.822,0,0,0-1.244,12.247c1.33,5.787,3.887,7.963,3.887,7.963s23.2,2.107,42.667-1.969c10.969-2.3,12.576-16.721,16.739-18.4,11.539-4.647,17.654-51.322,17.654-51.322Z" transform="translate(167.795 83.124)"/><path class="n" d="M279.434,68.9c5.6,40.8-21.817,53.395,5.027,91.139,0,0,16.445-18.1,23.493-19.382s7.963-23.424,7.963-24.564S309.664,70.8,309.664,70.8Z" transform="translate(197.978 50.135)"/><path class="b" d="M299.35,106.41h41.821c21.023,0,40.2,14.545,43.669,34.756,6.91,38.694-6.737,99.534-7.082,103.093H268.274l-.484-61.894,1.313-62.412c6.5-7.255,19.831-13.543,30.247-13.543" transform="translate(194.576 77.421)"/><path class="p" d="M321.733,106.446c-6.806,19-15.737,6.253-24.409,0-1.727,0-4.422-.121-7.186,0-24.391,81.5-6.409,81.5-3.8,123.287l23.873,11.988c5.32-3.23,12.628-6.15,17.948-9.4.812-42.512-16.359-42.84,5.942-125.964Z" transform="translate(201.646 77.384)"/><path class="k" d="M281.186,82.956a31.4,31.4,0,0,1-1.555,11.608c-3.351,9.587,3.973,26.084,16.791,25V128.3h.207c-3.178,10.658,3.075,20.729,7.963,20.988,4.336.173,15.633-6.72,16.238-20.988l-1.278-14.269c.639-.19,1.935-2.919,3.213-3.714s2.712-4.077,2.177-7.065a62.357,62.357,0,0,0-3.161-9.207c3.61-8.862,6.7-8.257-2.574-13.18s-27.984-4.543-27.984-4.543l-9.725,2.9Z" transform="translate(202.601 55.53)"/><path class="t" d="M264.968,158.24s-13.249-.121-17.533,1.5a12.68,12.68,0,0,0-5.821,3.852l-4.388,1.106s-.829,3.282,0,3.282,24.063,2.246,24.063,2.246l4.94-.639s-1.624-7.411-1.088-8.862,3.006-3.058,3.006-3.058Z" transform="translate(172.075 114.709)"/><path class="s" d="M346.033,126.187c4.56-10.123,18.121-15.547,25.911-7.773h0c5.873,5.873,7.1,6.685,7.238,14.476.432,24.184-9.414,92.037-36.4,96.1-14.787,2.228-38.919,4.595-54.811,4.042-6.426-.207-11.591,0-14.113-1.848-8.758-6.564,3.749-16.549,3.749-16.549s47.832-17.171,53.429-18.881c9.259-2.816,11.729-62.481,14.925-69.564" transform="translate(196.728 83.469)"/><path class="u" d="M282.453,168.66a21.04,21.04,0,0,1,3.317,8.775,15.721,15.721,0,0,1-.536,7.652c-13.249,1.071-39.886,0-39.834,0,.9-.138-1.244-2.038,1.607-3.455,2.056-1.054,8.81-1.4,11.194-2.971,10.555-7.013,17.637-5.649,24.184-10" transform="translate(178.289 122.703)"/><path class="v" d="M306.7,142.07H211.514c-3.662,0-7.48,3.109-6.668,6.685l14.165,62.9c.812,3.593,3.006,6.685,6.685,6.685H320.93c3.679,0,7.5-3.092,6.685-6.685l-14.234-62.9c-.795-3.576-2.988-6.685-6.668-6.685" transform="translate(148.709 103.361)"/><path class="k" d="M304.226,142.07H209.044c-3.662,0-7.48,3.109-6.668,6.685l14.217,62.9c.812,3.593,3.006,6.685,6.685,6.685h95.164c3.679,0,7.5-3.092,6.685-6.685l-14.234-62.9c-.795-3.576-2.988-6.685-6.668-6.685" transform="translate(146.913 103.361)"/><path class="q" d="M238.21,160.624c-2.885.916-4.319,4.474-3.213,7.929s4.353,5.493,7.221,4.56,4.319-4.474,3.2-7.912-4.336-5.51-7.2-4.578" transform="translate(170.451 116.695)"/><path class="v" d="M322.368,182.61H274v6.236h51.477v-3.127a3.127,3.127,0,0,0-3.109-3.109" transform="translate(199.094 132.851)"/><path class="w" d="M151.016,145.42a3.766,3.766,0,1,1-3.766,3.766,3.766,3.766,0,0,1,3.766-3.766" transform="translate(106.892 105.798)"/><path class="x" d="M159.1,145.42a3.766,3.766,0,1,1-3.766,3.766,3.766,3.766,0,0,1,3.766-3.766" transform="translate(112.77 105.798)"/><path class="x" d="M167.176,145.42a3.766,3.766,0,1,1-3.766,3.766,3.766,3.766,0,0,1,3.766-3.766" transform="translate(118.648 105.798)"/><path class="p" d="M281.187,15.7h39.506a.57.57,0,0,1,.57.57V18a.57.57,0,0,1-.57.57H281.187A.587.587,0,0,1,280.6,18V16.24a.587.587,0,0,1,.587-.57" transform="translate(203.895 11.414)"/><path class="s" d="M281.187,23.35h89.636a.587.587,0,0,1,.57.587v1.727a.587.587,0,0,1-.57.587H281.187a.587.587,0,0,1-.587-.587V23.937a.587.587,0,0,1,.587-.587" transform="translate(203.895 17.001)"/><path class="s" d="M281.187,31h89.636a.57.57,0,0,1,.57.57V33.3a.57.57,0,0,1-.57.57H281.187a.587.587,0,0,1-.587-.57V31.57a.587.587,0,0,1,.587-.57" transform="translate(203.895 22.565)"/><path class="s" d="M281.187,38.695h89.636a.587.587,0,0,1,.57.587v1.727a.587.587,0,0,1-.57.587H281.187a.587.587,0,0,1-.587-.587V39.247a.587.587,0,0,1,.587-.587" transform="translate(203.895 28.137)"/><path class="s" d="M281.187,46.35h89.636a.57.57,0,0,1,.57.57v1.727a.57.57,0,0,1-.57.57H281.187a.587.587,0,0,1-.587-.57V46.92a.587.587,0,0,1,.587-.57" transform="translate(203.895 33.731)"/><path class="i" d="M168.11,90h88.634a2.3,2.3,0,0,1,2.28,2.28h0a2.3,2.3,0,0,1-2.28,2.28H168.11a2.3,2.3,0,0,1-2.28-2.28h0A2.3,2.3,0,0,1,168.11,90" transform="translate(120.408 65.484)"/><path class="n" d="M312.134,92.193s-22.267,5.821-34.825-1.727c-8.223-5.7-9.155-17.274,2.9-25.79,15.547-10.969,45.345-7.739,56.781,9.76,3.99,6.1,7.981,16.722,12.714,27.535,11.021,25.151,40.508,9.449,48.921,51.65.38,1.952-6.633-2.453-12.835-4.042a25.151,25.151,0,0,1-3.455,26.067c-6.685-30.558-34.549-31.75-55.934-34.2-3.178-2.937-3.628-11.211-3.645-15.34,0,0,6.443-4.526,6.132-9.777s-1.814-5.182-2.418-5.01a45.232,45.232,0,0,0-4.042,2.142c-1.209-6.91-.933-20.453-10.261-21.213" transform="translate(197.011 42.441)"/><path class="k" d="M302.583,94.22a2.436,2.436,0,1,1-1.733.707,2.453,2.453,0,0,1,1.733-.707" transform="translate(218.101 68.553)"/></g></g></svg>