<svg xmlns="http://www.w3.org/2000/svg" xmlns:xlink="http://www.w3.org/1999/xlink" width="545.68" height="372.844" viewBox="0 0 545.68 372.844"><defs><style>.a{fill:none;}.b{fill:#64a4ff;}.c{fill:#fff;}.d{fill:#111159;}.e{fill:#eea987;}.f{fill:#e8734d;}.g{fill:#d1e1fc;}.h{fill:#efaa88;}.i{fill:#eea886;}.j{fill:#16202e;}.k{fill:#a77860;}.l{fill:#4da8f2;}.m{fill:#00ebc7;}.n{clip-path:url(#a);}.o{fill:#96cbff;}.p{fill:#95caff;}.q{fill:#94c9ff;}.r{fill:#93c9ff;}.s{fill:#92c8ff;}.t{fill:#91c7ff;}.u{fill:#90c6ff;}.v{fill:#8fc6ff;}.w{fill:#8ec5ff;}.x{fill:#8dc4ff;}.y{fill:#8cc3ff;}.z{fill:#8bc2ff;}.aa{fill:#8ac2ff;}.ab{fill:#89c1ff;}.ac{fill:#88c0ff;}.ad{fill:#87bfff;}.ae{fill:#86bfff;}.af{fill:#85beff;}.ag{fill:#84bdff;}.ah{fill:#83bcff;}.ai{fill:#82bbff;}.aj{fill:#81bbff;}.ak{fill:#80baff;}.al{fill:#7fb9ff;}.am{fill:#7eb8ff;}.an{fill:#7db7ff;}.ao{fill:#7cb7ff;}.ap{fill:#7bb6ff;}.aq{fill:#7ab5ff;}.ar{fill:#79b4ff;}.as{fill:#78b4ff;}.at{fill:#77b3ff;}.au{fill:#76b2ff;}.av{fill:#74b1ff;}.aw{fill:#73b0ff;}.ax{fill:#72b0ff;}.ay{fill:#71afff;}.az{fill:#70aeff;}.ba{fill:#6fadff;}.bb{fill:#6eadff;}.bc{fill:#6dacff;}.bd{fill:#6cabff;}.be{fill:#6baaff;}.bf{fill:#6aa9ff;}.bg{fill:#69a9ff;}.bh{fill:#68a8ff;}.bi{fill:#67a7ff;}.bj{fill:#66a6ff;}.bk{fill:#65a6ff;}.bl{fill:#64a5ff;}.bm{fill:#63a4ff;}.bn{fill:#62a3ff;}.bo{fill:#61a2ff;}.bp{fill:#60a2ff;}.bq{fill:#5fa1ff;}.br{fill:#5ea0ff;}.bs{fill:#5d9fff;}.bt{fill:#5c9eff;}.bu{fill:#5b9eff;}.bv{fill:#5a9dff;}.bw{fill:#599cff;}.bx{fill:#589bff;}.by{fill:#579bff;}.bz{fill:#569aff;}.ca{fill:#59f;}.cb{fill:#ffc955;}.cc{fill:#bbd070;}.cd{fill:#e3f2ff;}.ce{fill:#ebebeb;}.cf{fill:#252e3b;}.cg{fill:#0c1630;}.ch{fill:#5189db;}.ci{fill:#c2bebc;}.cj{fill:#d6d6d6;}.ck{fill:#e8e8e8;}.cl{fill:#c2c2c2;}</style><clipPath id="a"><rect class="a" width="318.953" height="5.048"/></clipPath></defs><g transform="translate(0 0)"><path class="b" d="M465.877,344.622h-.919V279.569A26.28,26.28,0,0,0,438.7,253.316H371.747a27.2,27.2,0,0,1-27.172-27.172V104.509a26.306,26.306,0,0,0-26.266-26.28H147.59V77.31H318.308A27.212,27.212,0,0,1,345.48,104.5V226.131a26.293,26.293,0,0,0,26.266,26.253H438.7a27.212,27.212,0,0,1,27.172,27.172Z" transform="translate(48.995 25.664)"/><path class="c" d="M225.253,134q1.2-16.223,1.678-30.369c-2.664-1.332-5.754-3-8.258-4.182-7.765-3.7-18.648-8.684-25.547-11.868-4.062-1.878-7.992-3.237-7.992-3.237s-27.771-2.664-30.023-2.517a69.849,69.849,0,0,0-8.778,2.89c-9.857,3.73-28.837,11.335-31.861,13.506-4.422,3.183-20.286,80.917-20.712,86.192s21.631,12.187,41.93,17.515c0,7.885-.173,18.914-.36,29,0,1.718,0,3.41-.08,5.048h89.055c-.107-1.732-.213-3.436-.306-5.048v-.639c-.346-6.82-1.665-19.047-1.332-30.955,0,0-.213-12.56,1.026-17.955C223.815,157.567,225.253,134,225.253,134ZM112.316,179.7c.147-10.11,13.626-28.944,13.626-28.944a5.063,5.063,0,0,1,.626-.24s.693-.093.693-.08l2.1-1.985c.506,1.8,4.968,27.225,6.06,42.024-12.654-2.557-23.19-6.007-23.11-10.842Z" transform="translate(31.124 27.163)"/><path class="d" d="M203.018,229.925c-.586-4.222-1.146-8.431-1.638-12.56h0q-.24-2.051-.48-4.076v-.226c-.653-5.674-1.185-11.122-1.572-16.117a50.618,50.618,0,0,1,.493-11.215c1.545-25.52,2.318-52.426,2.318-52.426q1.219-16.523,1.6-30.9S168.867,85.926,165.71,84.98c0,0,6.66,15.531,11.575,50.242,1.9,13.32,5.434,35.763,7.992,58.607h0c1.332,12.361,4,24.948,5.967,36.083.306,1.718.6,3.41.866,5.048h11.668C203.485,233.294,203.245,231.616,203.018,229.925Z" transform="translate(55.01 28.211)"/><path class="d" d="M170.245,189.61c1.332-12.893,2.664-25.774,2.011-32.833-4.808-56.728-18.408-71.74-20.379-73.937-1.532.573-7.339,2.757-9.031,3.436-9.324,3.663-28.278,10.389-30.835,12.227-4.422,3.2-21.871,84.686-22.43,89.961-.346,3.57,22.457,11.015,45.726,17.649-.226,6.38.386,15.384-1.732,24.775a21.231,21.231,0,0,0-1.012,4.928L165,235.683c.2-1.678.4-3.357.613-5.048.613-5.061,1.332-10.256,1.9-15.784,9.723,2.517,16.33,4.142,16.33,4.142s9.137-15.437,11.788-21.7C196.085,196.27,184.337,193.407,170.245,189.61ZM128.3,170.084c-.306-11.615-.253-19.713-.253-19.713,1.159,4,2.744,15.344,4.142,26.639-4.755-2.331-3.823-4.555-3.889-6.9Z" transform="translate(29.737 27.5)"/><path class="e" d="M138.69,89.066s3.53-6.66,2.557-25.614c-.28-5.248,27.558,12.454,27.558,12.454s-.093,1.8-.147,4.249v5.767a17.956,17.956,0,0,0,.067,1.851c.067.6.08,1.332.133,1.918a17.782,17.782,0,0,0,1.039,3.716C171.15,96.352,149.106,96.472,138.69,89.066Z" transform="translate(46.04 20.741)"/><path class="f" d="M157.01,91.49l5.128,6.9s-3,4-8.338,1.052Z" transform="translate(51.056 30.372)"/><path class="f" d="M160.049,96.926s18.794,45.9,14.785,104.213L168.907,211.9l-6.66-9.164s-1.079-77.441-6.407-106Z" transform="translate(51.734 32.114)"/><path class="e" d="M164.6,87.161l-5.488,6.42s-8.818-1.7-11.4-6.314S164.6,87.161,164.6,87.161Z" transform="translate(48.956 28.281)"/><path class="g" d="M162.963,82.44s-.639,4.9-6.753,11.988l6.66,8.964,3.61-18.648Z" transform="translate(51.856 27.367)"/><path class="g" d="M140.724,78s12.747,14.412,21.658,17.942L158.239,106.2,137.82,83.781Z" transform="translate(45.752 25.893)"/><path class="d" d="M257.87,202.432s-16.916-16.41-27.971-19.14c-5.128-1.252-11.894-8.338-18.315-16.663-2.118-2.744-4.2-5.621-6.167-8.471h0c-7.925-11.455-14.092-22.324-14.092-22.324s-23.283-27.292-4.6-39.453c0,0,7.992-.173,12.4,2.211s14.145,22.564,15.784,26.12,19.327,36.629,20.512,37.375a49.361,49.361,0,0,0,10.229,7.273c8.671,4.662,22.3,18.328,22.3,18.328Z" transform="translate(59.577 31.994)"/><path class="h" d="M182.993,197.317a10.656,10.656,0,0,1-3.37-.639s-1.772-1.132-3.077-1.865a9.322,9.322,0,0,0-1.026-.519,19.673,19.673,0,0,1-5.687-2.664c-2.224-1.7-9.484-8.485-9.484-8.485l4.689-7.206,2.171-7.139s16.916,1.6,19.167,2.93c.213.133.426.266.626.413,1.8,1.332,2.584,3.064,3.45,3.863.306.293,3.263,3.45,3.09,4.728a4.222,4.222,0,0,1-2.2,3.45s-.6,3.463-2.384,5.008a6.274,6.274,0,0,1-3.223,4.489S184.925,196.931,182.993,197.317Z" transform="translate(53.231 56.036)"/><path class="i" d="M163.8,26.659s30.569-7.352,24.122,31.275-13.759,41.837-32.38,34.125-17.316-32.473-18.434-44.581S154.028,27.219,163.8,26.659Z" transform="translate(45.5 8.664)"/><path class="i" d="M147,47.367c-.453-3.4-7.193-4.555-7.672.559s3.277,14.026,5.807,13.107S147.629,52.055,147,47.367Z" transform="translate(46.239 14.756)"/><path class="j" d="M139.515,69.51s.613-12.174,5.048-12.614,5.181,4.449,5.181,4.449l4.5.773s-1.572-10.656,2.837-12.56,28.824,5.448,32.327,2.264,1.532-24.775-4.955-27.638-24.362-9.231-37.3-.226c0,0-10.176-1.012-11.561,7.206S136.665,63.516,139.515,69.51Z" transform="translate(44.882 6.412)"/><path class="d" d="M183.251,171.349l-12.627,21.7s-33.432-8.618-41.224-10.816L147.235,161S173.515,167.02,183.251,171.349Z" transform="translate(42.956 53.447)"/><path class="k" d="M166.89,85.032h0A29.3,29.3,0,0,1,144.14,70.74a33.9,33.9,0,0,0,22.643,9.95v2.491C166.783,83.7,166.85,84.406,166.89,85.032Z" transform="translate(47.85 23.483)"/><path class="l" d="M333.432,226.369a4.995,4.995,0,0,0-8.711,1.332h0a4.871,4.871,0,0,0,1.638,5.541,4.875,4.875,0,0,0,2.584,1.026h.733a5.112,5.112,0,0,0,1.439-.293,4.995,4.995,0,0,0,2.278-7.685Zm-2.664,6.513h0a4.21,4.21,0,0,1-1.079.226h-.253a3.823,3.823,0,0,1-2.238-.786,2.906,2.906,0,0,1-.373-.333,3.69,3.69,0,0,1-1.079-2.664,3.863,3.863,0,0,1,.093-.8,3.676,3.676,0,0,1,.107-.36,3.743,3.743,0,1,1,4.822,4.715Z" transform="translate(107.701 74.482)"/><path class="i" d="M187.64,159.882c19.007,19.567,44.115,44.195,44.115,44.195l9.8-18.648s-22.3-26.067-37.455-43.569C199.508,144.138,191.01,149.559,187.64,159.882Z" transform="translate(62.29 47.093)"/><path class="i" d="M179.413,175.14a54.613,54.613,0,0,1,6.447,3.57c1.332,1.106,6.753,5.155,8.058,6.1s-1.971,3.663-11.655-.519S179.413,175.14,179.413,175.14Z" transform="translate(58.782 58.141)"/><path class="m" d="M181.394,133.1,172.47,216H289.83l8.911-82.9Z" transform="translate(57.254 44.185)"/><path class="m" d="M295.089,213.361H176.81l9.017-83.821H304.106Zm-117.213-.919h116.4l8.818-81.983H186.653Z" transform="translate(58.695 43.003)"/><rect class="m" width="19.607" height="7.459" transform="translate(239.994 260.186) rotate(180)"/><g class="n" transform="translate(31.821 260.013)"><path class="o" d="M23.89,195.21Z" transform="translate(-23.89 -195.21)"/><rect class="o" width="4.902" height="5.048"/><rect class="p" width="4.902" height="5.048" transform="translate(4.902)"/><rect class="q" width="4.902" height="5.048" transform="translate(9.817)"/><rect class="r" width="4.902" height="5.048" transform="translate(14.718)"/><rect class="s" width="4.902" height="5.048" transform="translate(19.62)"/><rect class="t" width="4.902" height="5.048" transform="translate(24.535)"/><rect class="u" width="4.902" height="5.048" transform="translate(29.436)"/><rect class="v" width="4.902" height="5.048" transform="translate(34.351)"/><rect class="w" width="4.902" height="5.048" transform="translate(39.253)"/><rect class="x" width="4.902" height="5.048" transform="translate(44.155)"/><rect class="y" width="4.902" height="5.048" transform="translate(49.07)"/><rect class="z" width="4.902" height="5.048" transform="translate(53.971)"/><rect class="aa" width="4.902" height="5.048" transform="translate(58.886)"/><rect class="ab" width="4.902" height="5.048" transform="translate(63.788)"/><rect class="ac" width="4.902" height="5.048" transform="translate(68.69)"/><rect class="ad" width="4.902" height="5.048" transform="translate(73.604)"/><rect class="ae" width="4.902" height="5.048" transform="translate(78.506)"/><rect class="af" width="4.902" height="5.048" transform="translate(83.421)"/><rect class="ag" width="4.902" height="5.048" transform="translate(88.323)"/><rect class="ah" width="4.902" height="5.048" transform="translate(93.224)"/><rect class="ai" width="4.902" height="5.048" transform="translate(98.139)"/><rect class="aj" width="4.902" height="5.048" transform="translate(103.041)"/><rect class="ak" width="4.902" height="5.048" transform="translate(107.956)"/><rect class="al" width="4.902" height="5.048" transform="translate(112.858)"/><rect class="am" width="4.902" height="5.048" transform="translate(117.759)"/><rect class="an" width="4.902" height="5.048" transform="translate(122.674)"/><rect class="ao" width="4.902" height="5.048" transform="translate(127.576)"/><rect class="ap" width="4.902" height="5.048" transform="translate(132.491)"/><rect class="aq" width="4.902" height="5.048" transform="translate(137.392)"/><rect class="ar" width="4.902" height="5.048" transform="translate(142.294)"/><rect class="as" width="4.902" height="5.048" transform="translate(147.209)"/><rect class="at" width="4.902" height="5.048" transform="translate(152.111)"/><rect class="au" width="4.902" height="5.048" transform="translate(157.026)"/><rect class="av" width="4.902" height="5.048" transform="translate(161.927)"/><rect class="aw" width="4.902" height="5.048" transform="translate(166.829)"/><rect class="ax" width="4.902" height="5.048" transform="translate(171.744)"/><rect class="ay" width="4.902" height="5.048" transform="translate(176.645)"/><rect class="az" width="4.902" height="5.048" transform="translate(181.547)"/><rect class="ba" width="4.902" height="5.048" transform="translate(186.462)"/><rect class="bb" width="4.902" height="5.048" transform="translate(191.364)"/><rect class="bc" width="4.902" height="5.048" transform="translate(196.279)"/><rect class="bd" width="4.902" height="5.048" transform="translate(201.18)"/><rect class="be" width="4.902" height="5.048" transform="translate(206.082)"/><rect class="bf" width="4.902" height="5.048" transform="translate(210.997)"/><rect class="bg" width="4.902" height="5.048" transform="translate(215.898)"/><rect class="bh" width="4.902" height="5.048" transform="translate(220.813)"/><rect class="bi" width="4.902" height="5.048" transform="translate(225.715)"/><rect class="bj" width="4.902" height="5.048" transform="translate(230.617)"/><rect class="bk" width="4.902" height="5.048" transform="translate(235.532)"/><rect class="bl" width="4.902" height="5.048" transform="translate(240.433)"/><rect class="bm" width="4.902" height="5.048" transform="translate(245.348)"/><rect class="bn" width="4.902" height="5.048" transform="translate(250.25)"/><rect class="bo" width="4.902" height="5.048" transform="translate(255.151)"/><rect class="bp" width="4.902" height="5.048" transform="translate(260.066)"/><rect class="bq" width="4.902" height="5.048" transform="translate(264.968)"/><rect class="br" width="4.902" height="5.048" transform="translate(269.883)"/><rect class="bs" width="4.902" height="5.048" transform="translate(274.785)"/><rect class="bt" width="4.902" height="5.048" transform="translate(279.686)"/><rect class="bu" width="4.902" height="5.048" transform="translate(284.601)"/><rect class="bv" width="4.902" height="5.048" transform="translate(289.503)"/><rect class="bw" width="4.902" height="5.048" transform="translate(294.418)"/><rect class="bx" width="4.902" height="5.048" transform="translate(299.319)"/><rect class="by" width="4.902" height="5.048" transform="translate(304.221)"/><rect class="bz" width="4.902" height="5.048" transform="translate(309.136)"/><rect class="ca" width="4.902" height="5.048" transform="translate(314.038)"/><path class="ca" d="M263.35,199Z" transform="translate(55.603 -193.952)"/></g><rect class="cb" width="276.343" height="5.048" transform="translate(269.337 367.796)"/><path class="c" d="M215.055,165c-.946,4.622,1.212,8.964,4.808,9.7s7.286-2.411,8.232-7.033-1.212-8.951-4.808-9.683S215.974,160.387,215.055,165Z" transform="translate(71.317 52.408)"/><path class="cc" d="M298.447,159.54S273.833,183,285.82,201.271s17.6,2.264,17.6,2.264,8.112,2.451-3.929-20.073C293.812,172.846,298.447,159.54,298.447,159.54Z" transform="translate(93.79 52.962)"/><rect class="cd" width="3.25" height="24.748" transform="translate(90.707 222.438)"/><rect class="cd" width="3.25" height="21.964" transform="translate(84.287 225.209)"/><rect class="cd" width="3.25" height="18.368" transform="translate(77.307 228.818)"/><rect class="cd" width="3.25" height="13.812" transform="translate(70.141 233.374)"/><path class="cd" d="M38.266,187.716l-.706-.24,6.14-17.209,13.293-3.516,4.782-18.874,10.256-4.529,2.3-14.678.733.12-2.358,15.078-10.3,4.542-4.808,18.954-13.333,3.53Z" transform="translate(12.469 42.714)"/><path class="cb" d="M54.423,156.724A1.985,1.985,0,1,1,53.076,156,2,2,0,0,1,54.423,156.724Z" transform="translate(16.89 51.782)"/><path class="cd" d="M54.476,159.918a2.371,2.371,0,1,1,.333-3.33A2.371,2.371,0,0,1,54.476,159.918Zm-2.531-3.09a1.612,1.612,0,1,0,1.186-.361,1.625,1.625,0,0,0-1.186.361Z" transform="translate(16.798 51.692)"/><path class="cb" d="M58.063,142.612a2,2,0,1,1-2.81-.28A2,2,0,0,1,58.063,142.612Z" transform="translate(18.099 47.1)"/><path class="cd" d="M58.1,145.809a2.371,2.371,0,1,1,.861-1.6,2.371,2.371,0,0,1-.861,1.6Zm-2.517-3.09a1.625,1.625,0,1,0,2.278.226,1.625,1.625,0,0,0-2.278-.226Z" transform="translate(18.004 47.007)"/><path class="cb" d="M65.643,139.112a2,2,0,1,1-2.81-.28,2,2,0,0,1,2.81.28Z" transform="translate(20.615 45.938)"/><path class="cd" d="M65.7,142.308a2.371,2.371,0,1,1,.333-3.33,2.371,2.371,0,0,1-.333,3.33Zm-2.531-3.09a1.612,1.612,0,1,0,1.186-.361,1.625,1.625,0,0,0-1.186.361Z" transform="translate(20.522 45.846)"/><path class="cb" d="M44.483,159.5a1.985,1.985,0,1,1-1.347-.727A2,2,0,0,1,44.483,159.5Z" transform="translate(13.591 52.705)"/><path class="cd" d="M44.524,162.689a2.371,2.371,0,1,1,.346-3.33,2.371,2.371,0,0,1-.346,3.33Zm-2.517-3.09a1.625,1.625,0,1,0,2.278.226,1.625,1.625,0,0,0-2.278-.226Z" transform="translate(13.496 52.61)"/><rect class="ce" width="19.979" height="4.142" rx="1.38" transform="translate(44.541 189.339)"/><rect class="ce" width="19.979" height="4.142" rx="1.38" transform="translate(44.541 182.106)"/><path class="cf" d="M342,176.827s11.854-34.764-10.776-45.553-41.837,4.848-45.46,13.24-2.664,23.762.426,34.458,2.664,26.959-4.089,32.407-15.051,14.492-14.652,32.886c.253,11.415,44.927-29.2,44.927-29.2Z" transform="translate(88.781 42.361)"/><path class="cg" d="M311.952,195.861s-18.648,4.116-25.987,8.431-23.776,24.162-23.776,32.686S333.863,253.5,333.863,253.5l13.586,49.6s36.229-8.844,40.545-16.17S374.262,227,371.158,216.347C368,205.5,355.015,197.939,339.91,195.821A103.535,103.535,0,0,0,311.952,195.861Z" transform="translate(87.038 64.698)"/><path class="i" d="M327.77,195.819s-.413,22.643-18.341,23.269-14.2-21.671-14.2-21.671S308.35,192.1,327.77,195.819Z" transform="translate(97.9 64.567)"/><path class="cf" d="M329.716,144.28s6.34,36.349-11.721,62.6C299.294,234.094,329.716,144.28,329.716,144.28Z" transform="translate(103.546 47.896)"/><path class="i" d="M323.309,185.346s-1.239,10.816.839,17.542-27.412,6.9-27.4,1.332c0-6.274,3.024-11.521.2-22.284S323.309,185.346,323.309,185.346Z" transform="translate(98.511 59.057)"/><path class="k" d="M299.52,184.53a15.984,15.984,0,0,0,21.218,1.012s-.986,6.194-9.55,6.993S299.52,184.53,299.52,184.53Z" transform="translate(99.431 61.258)"/><path class="i" d="M314.791,134.927s23.536,6.966,20.179,39.626-18.727,30.982-20.179,31.221-19.686,1.439-25.454-38.187S314.791,134.927,314.791,134.927Z" transform="translate(95.814 44.635)"/><path class="cf" d="M309.141,150s12.787,20.339,26.253,25.054c0,0,7.352-34.125-23-41.291s-25.6,34.471-23.336,45.567A90.254,90.254,0,0,1,309.141,150Z" transform="translate(95.39 44.132)"/><path class="ac" d="M290.84,147.293s6.726-13.04,18.088-13.626,18.128,9.324,18.128,9.324a19.327,19.327,0,0,0-18.115-11.109C295.275,131.843,290.84,147.293,290.84,147.293Z" transform="translate(96.549 43.777)"/><path class="m" d="M351.759,220.42l7.979,74.2H254.7l-7.978-74.2Z" transform="translate(81.903 73.172)"/><path class="m" d="M358.093,292.93H252.135l-8.085-75.11H350.021Zm-105.132-.906h104.12L349.2,218.766H245.076Z" transform="translate(81.016 72.309)"/><path class="ch" d="M297.305,249.146c.932,4.622-1.212,8.964-4.822,9.7s-7.273-2.411-8.218-7.033,1.212-8.951,4.808-9.683S296.413,244.537,297.305,249.146Z" transform="translate(94.293 80.343)"/><rect class="m" width="19.607" height="7.459" transform="translate(451.31 367.783) rotate(180)"/><path class="b" d="M282.387,116.924a16.157,16.157,0,1,1,16.157-16.157,16.157,16.157,0,0,1-16.157,16.157Zm0-31.408a15.251,15.251,0,1,0,15.238,15.251,15.251,15.251,0,0,0-15.238-15.251Z" transform="translate(88.379 28.088)"/><path class="ci" d="M85.779,254.269v-1.332c2.744,0,5.5-.107,8.2-.226v1.332C91.32,254.163,88.536,254.243,85.779,254.269Zm-8.272-.093c-2.664-.067-5.488-.2-8.258-.373l.093-1.332c2.744.173,5.514.306,8.2.373Zm24.775-.693-.12-1.332c2.664-.226,5.461-.519,8.165-.866l.173,1.332C107.783,252.951,105.012,253.244,102.282,253.483Zm-41.291-.346c-2.824-.266-5.581-.626-8.218-1.066L53,250.739c2.6.413,5.328.773,8.125,1.052Zm57.661-1.745-.226-1.332c2.664-.453,5.328-.959,8.072-1.518l.28,1.332c-2.7.559-5.434,1.079-8.1,1.518Zm-74-.946c-2.77-.679-5.448-1.452-7.992-2.318l.453-1.332c2.477.839,5.115,1.612,7.845,2.278Zm90.187-2.371-.32-1.332c2.531-.613,5.128-1.265,7.992-2.025l.346,1.332c-2.837.759-5.461,1.412-7.992,2.025ZM28.984,245a58.38,58.38,0,0,1-7.246-4.089l.759-1.145a57.5,57.5,0,0,0,7.086,4Zm121.808-1.146-.373-1.332,3.423-.959,4.515-1.332.373,1.332-4.515,1.332Zm71.62-1.145c-2.531-1.2-5.075-2.251-7.539-3.13l.466-1.332c2.5.906,5.088,1.985,7.659,3.2Zm-55.743-3.223-.346-1.332c2.957-.759,5.594-1.332,7.992-1.878l.28,1.332c-2.344.519-4.968,1.119-7.9,1.878Zm40.372-2.211a61.592,61.592,0,0,0-7.992-1.332l.133-1.332a66.893,66.893,0,0,1,8.218,1.332Zm-24.308-1.026-.173-1.332a78.837,78.837,0,0,1,8.272-.639v1.332a79.706,79.706,0,0,0-8.072.639Zm-167.561-.48a46.362,46.362,0,0,1-5.581-6.207l1.106-.813a46.99,46.99,0,0,0,5.408,6.021ZM5.328,222.435a49.71,49.71,0,0,1-3.01-7.792l1.332-.373a48.631,48.631,0,0,0,2.917,7.566ZM.613,206.452A64.655,64.655,0,0,1,0,198.18H1.332a64.385,64.385,0,0,0,.546,8.138Zm1.172-16.41L.453,189.9c.28-2.664.693-5.448,1.239-8.2l1.332.266A80.977,80.977,0,0,0,1.785,190.042Zm3.143-15.984L3.6,173.685A69.37,69.37,0,0,1,6.26,165.8l1.252.533a76.066,76.066,0,0,0-2.584,7.632Z" transform="translate(0 55.04)"/><path class="ci" d="M410.076,62.283s-2.318-2.051-6.42-5.1l.813-1.106c4.169,3.09,6.5,5.168,6.527,5.181ZM396.93,52.44c-2.264-1.505-4.6-2.984-6.94-4.4l.706-1.172c2.358,1.412,4.715,2.9,6.993,4.435Zm-14.039-8.485c-2.411-1.332-4.875-2.557-7.326-3.716l.6-1.239c2.464,1.172,4.942,2.438,7.379,3.756Zm-14.811-7.086c-2.544-1.052-5.115-2.051-7.659-2.97l.466-1.332c2.557.919,5.155,1.931,7.712,3Zm-104.4-1.678V33.859a60.06,60.06,0,0,0,8.1-.759L272,34.431a60.845,60.845,0,0,1-8.365.773Zm-8.311-.426a60.55,60.55,0,0,1-8.165-1.612l.346-1.332a62.229,62.229,0,0,0,7.992,1.572Zm24.721-2.224-.386-1.332c.879-.253,1.785-.533,2.664-.839,1.7-.573,3.463-1.119,5.195-1.6l.373,1.332c-1.7.48-3.436,1.012-5.141,1.585-.932.28-1.851.6-2.744.866Zm72.526-1.185c-2.664-.773-5.328-1.478-7.925-2.078L345,27.945c2.664.613,5.328,1.332,7.992,2.1Zm-113.337-.719c-2.424-.946-4.9-2.038-7.592-3.343l.6-1.225c2.664,1.332,5.1,2.358,7.486,3.29Zm56.6-2.371-.28-1.332c2.664-.546,5.461-.986,8.192-1.332l.173,1.332c-2.7.293-5.421.733-8.085,1.265Zm40.732-.506c-2.664-.44-5.448-.8-8.125-1.066l.133-1.332c2.664.266,5.474.626,8.218,1.079ZM95.186,26.386l-.746-1.159c2.344-1.518,4.7-3,6.993-4.382l.719,1.172C99.848,23.4,97.5,24.868,95.186,26.386ZM312.123,26.2l-.067-1.332c2.73-.12,5.514-.16,8.3-.08V26.12c-2.731-.067-5.541-.04-8.245.08Zm-87.737-2.77c-2.331-1.265-4.649-2.571-7.206-4l.666-1.2c2.557,1.439,4.875,2.744,7.193,4Zm-115.1-5.514-.666-1.2c2.464-1.332,4.928-2.664,7.312-3.849l.613,1.225c-2.411,1.185-4.862,2.464-7.3,3.823Zm100.7-2.517c-2.664-1.478-5.061-2.731-7.259-3.823l.613-1.225c2.211,1.106,4.609,2.358,7.313,3.849Zm-86.032-4.742-.546-1.332c2.584-1.119,5.168-2.158,7.685-3.077l.466,1.332C129.071,8.485,126.514,9.51,123.956,10.656Zm71.287-2.531c-2.664-1.106-5.128-2.051-7.659-2.877l.44-1.332c2.544.839,5.088,1.8,7.752,2.917ZM139.3,5.035,138.914,3.7c2.664-.786,5.421-1.452,7.992-1.985l.266,1.332c-2.477.559-5.155,1.212-7.819,1.985ZM179.659,3.1a72.765,72.765,0,0,0-7.992-1.332L171.814.44a78.855,78.855,0,0,1,8.192,1.332ZM155.324,1.772,155.178.44A79.3,79.3,0,0,1,163.516,0V1.332a80.45,80.45,0,0,0-8.138.493Z" transform="translate(31.351 0)"/><path class="cj" d="M211.495,238.14,176.97,228.1l10.349-3.117Z" transform="translate(58.748 74.686)"/><path class="ck" d="M208.085,238.09l-12.907-12.96-7.939,1.612Z" transform="translate(62.157 74.736)"/><path class="cl" d="M182.93,229.06l.28,4,26.306,3.729Z" transform="translate(60.727 76.04)"/><path class="cj" d="M72.41,41.375l30.435-17.023L92.389,23.66Z" transform="translate(24.038 7.854)"/><path class="ck" d="M72.41,40.768,81.774,25.7l7.859-.213Z" transform="translate(24.038 8.462)"/><path class="cl" d="M95.853,27.11l.6,3.849L72.41,40.23Z" transform="translate(24.038 9)"/></g></svg>