<svg xmlns="http://www.w3.org/2000/svg" width="562.751" height="398.26" viewBox="0 0 562.751 398.26"><defs><style>.a{fill:#e2f2f7;}.b{fill:#ccdcf5;}.c{fill:#fff;}.d{fill:#bfd2f0;}.e{fill:#156dd1;}.f{fill:#abc9ed;}.g{fill:#9ab5ec;}.h{fill:#2e3387;}.i{fill:#ccddef;}.j{fill:#ffcb61;}.k{fill:#dcf5ff;}.l{fill:#ffba2e;}.m{fill:#a9c5ec;}.n{fill:#136bcd;}.o{fill:#232474;}.p{fill:#c6dcee;}.q{fill:#ffde80;}.r{fill:#3a3f8e;}.s{fill:#7fa1db;}.t{fill:#c3d6ed;}.u{fill:#4477b6;}.v{fill:#242d7c;}.w{fill:#045eaf;}.x{fill:#eda82e;}.y{fill:#222970;}.z{fill:#005ca0;}.aa{fill:#cfe1f9;}.ab{fill:#a9c5ed;}.ac{fill:#ffcb5b;}.ad{fill:#e8b246;}.ae{fill:#bcd0ed;}</style></defs><g transform="translate(0 83.992)"><g transform="translate(0 -83.992)"><path class="a" d="M464.442,983.793S560.9,992.3,592.6,1013.54c47.1,21.359,41.409,48.422-34.674,63.4-63.583,11.68-346.422,8.76-386.671-11.813s-23.773-56.264,27.355-61.075,59.038-11.813,51.41-35.168Z" transform="translate(-112.545 -737.38)"/><path class="b" d="M345.2,623.344s12.84-22.065,5.91-35.375-22.2-9.563-26.659-20.069,2.842-13.264-1.129-23.544-15.5-2.677-18.286-11.585-2.73-18.286-9.317-20.926-21.683-1.791-15.05,11.923,11.193,14.444,6.83,21.118-5.448,17.31,4.037,20.439,13.87,7.283,10.826,13.626-23.481,40.368,21.354,52.476Z" transform="translate(-211.132 -390.651)"/><path class="c" d="M347.748,613.262c-1.574-21.717-13.607-49.811-20.641-64.625-4.514-9.509-9.478-18.872-13.977-26.367-4.725-7.867-7.468-11.212-8.38-11.68l.65-1.251c2.029,1.054,6.47,8.105,8.937,12.212,4.523,7.543,9.509,16.94,14.042,26.486,7.076,14.9,19.184,43.176,20.773,65.119Z" transform="translate(-230.597 -389.658)"/><path class="d" d="M1675.805,496.066l-.355-1.365a105.015,105.015,0,0,0,28.321-13.383c13.307-8.9,29.99-24.87,33.91-50.4a149.936,149.936,0,0,1,7.631-30.338,78.575,78.575,0,0,1,9.314-17.894c6.061-8.422,11.156-10.619,11.371-10.706l.542,1.3c-.046.02-5.022,2.19-10.862,10.363-5.409,7.56-12.68,21.938-16.6,47.49a69.783,69.783,0,0,1-13.171,31.44,86.078,86.078,0,0,1-21.383,19.94A106.751,106.751,0,0,1,1675.805,496.066Z" transform="translate(-1267.771 -285.721)"/><path class="d" d="M1848,647.808l.365-.922a14.412,14.412,0,0,0-1.947-1.827,10.816,10.816,0,0,0-4.813-2.372c-1.947-.513-3.793-1-6.149-4.477l-.041-.071c-1.421-2.733-1.051-6.056,1.075-9.611a22.33,22.33,0,0,1,3.572-4.487l1.983-1.84-.834,2.574c-1.535,4.738-.1,5.852,3.355,8.546.56.433,1.136.883,1.759,1.394,4.762,3.893,4.02,10.755,3.986,11.044v.093l-.436,1.1a1.1,1.1,0,0,1-.034.156.771.771,0,0,1-.637.552Zm-11.363-10.356c2.046,3.012,3.489,3.392,5.317,3.871a12.158,12.158,0,0,1,5.353,2.652c.711.591,1.231,1.056,1.611,1.433.075-1.083.243-6.528-3.5-9.6-.611-.5-1.18-.944-1.73-1.372-1.771-1.377-3.163-2.465-3.917-3.949a5.967,5.967,0,0,1-.533-3.448C1837.309,629.451,1834.723,633.721,1836.635,637.452Z" transform="translate(-1388.17 -475.056)"/><path class="d" d="M1790.5,718.534h-.063l-1.19-.1.552-.822a14.5,14.5,0,0,0-1.528-2.19,10.9,10.9,0,0,0-4.207-3.336c-1.8-.912-3.5-1.774-5.066-5.672l-.027-.076c-.815-2.971.243-6.141,3.076-9.171a22.359,22.359,0,0,1,4.436-3.633l2.326-1.382-1.358,2.341c-2.5,4.309-1.333,5.7,1.482,9.061.455.543.925,1.1,1.426,1.732,3.832,4.82,1.664,11.363,1.569,11.638l-.029.088-.657.973a.994.994,0,0,1-.066.146A.769.769,0,0,1,1790.5,718.534Zm-10.178-12.619c1.365,3.372,2.7,4.049,4.38,4.9a12.172,12.172,0,0,1,4.679,3.72c.569.73.973,1.292,1.27,1.74.3-1.042,1.625-6.327-1.394-10.125-.487-.618-.956-1.17-1.4-1.7-1.441-1.718-2.577-3.076-3-4.686a5.954,5.954,0,0,1,.207-3.482C1782.668,698.24,1779.235,701.864,1780.32,705.915Z" transform="translate(-1345.9 -527.985)"/><path class="d" d="M1721.941,783.016a.749.749,0,0,1-.4-.117l-1.012-.638.869-.487a15.022,15.022,0,0,0-.348-2.655,10.952,10.952,0,0,0-2.2-4.893c-1.178-1.638-2.292-3.183-1.9-7.365v-.08c.64-3.012,3.039-5.353,6.942-6.733a22.326,22.326,0,0,1,5.611-1.19l2.7-.158-2.28,1.46c-4.2,2.677-3.8,4.45-2.844,8.728.153.691.314,1.4.47,2.19,1.19,6.042-3.74,10.857-3.949,11.059l-.068.063-1.034.569a.885.885,0,0,1-.55.246Zm-3.584-15.969c-.338,3.623.535,4.835,1.64,6.365a12.064,12.064,0,0,1,2.433,5.455c.173.908.277,1.6.331,2.129.747-.788,4.351-4.867,3.406-9.636-.153-.774-.312-1.477-.462-2.158-.487-2.19-.878-3.918-.513-5.541a5.954,5.954,0,0,1,1.783-3C1723.954,761.3,1719.243,762.948,1718.357,767.046Z" transform="translate(-1299.108 -578.342)"/><path class="d" d="M1748.951,857.075a7.543,7.543,0,0,1-1.134-.085l-.078-.017c-3.83-1.046-4.689-2.536-5.6-4.115a8.541,8.541,0,0,0-3.214-3.46c-2.085-1.319-3.017-1.178-3.178-1.136l-.07.027-.621-1.26a1.24,1.24,0,0,1,.222-.1l2.08-.837c.367-.156,6.621-2.745,11.3.258.616.394,1.163.766,1.7,1.127,3.261,2.222,4.609,3.141,8.791.394l2.5-1.647-1.509,2.589C1759.928,849.169,1755.241,857.075,1748.951,857.075Zm-.881-1.46c3.825.56,7.227-2.718,9.161-5.11a6.083,6.083,0,0,1-3.083.433c-1.579-.221-2.92-1.127-4.594-2.275-.521-.355-1.059-.73-1.659-1.107-3.716-2.385-8.894-.567-9.838-.2a11.983,11.983,0,0,1,1.625.874,9.865,9.865,0,0,1,3.679,3.949c.823,1.409,1.475,2.538,4.708,3.428Z" transform="translate(-1312.876 -643.574)"/><path class="d" d="M1939.7,581.225a7.82,7.82,0,0,1-3.051-.73,8.547,8.547,0,0,0-4.662-.754c-2.458.243-3.1.927-3.2,1.058l-.039.066-1.265-.613a1.138,1.138,0,0,1,.114-.212l1.127-1.947c.195-.35,3.535-6.237,9.069-6.743.73-.066,1.389-.107,2.027-.148,3.937-.243,5.567-.355,7.176-5.1l.973-2.837.4,2.971c.058.431,1.365,10.626-4.691,14.018l-.073.036A10.309,10.309,0,0,1,1939.7,581.225Zm-6.64-2.961a9.986,9.986,0,0,1,4.119.915c1.526.62,2.733,1.112,5.84-.173,3.353-1.908,4.025-6.582,4.078-9.665a6.084,6.084,0,0,1-2.163,2.234c-1.382.8-2.988.9-5.022,1.029-.63.039-1.28.08-1.988.146-4.411.4-7.37,5.022-7.886,5.886a11.81,11.81,0,0,1,1.818-.309Q1932.458,578.265,1933.062,578.264Z" transform="translate(-1458.476 -430.465)"/><path class="d" d="M1889.337,554.294l-1.4-.134v-.078c-.017-.165-.207-1.083-2.127-2.545a8.114,8.114,0,0,0-4.251-1.735c-1.759-.275-3.424-.538-5.7-3.733l-.041-.068c-3.314-6.005,2.952-14.074,3.219-14.415l1.9-2.406-.657,2.993c-1.071,4.893.231,5.818,3.38,8.047.511.362,1.039.73,1.613,1.168,4.353,3.27,4.136,10.03,4.124,10.426l-.046,2.236A1.177,1.177,0,0,1,1889.337,554.294Zm-12.3-9c1.92,2.677,3.163,2.876,4.747,3.124a9.436,9.436,0,0,1,4.886,2.005,12.224,12.224,0,0,1,1.326,1.163c0-1.058-.139-6.487-3.567-9.064-.557-.421-1.078-.788-1.582-1.144-1.63-1.156-2.92-2.068-3.664-3.46a6.082,6.082,0,0,1-.664-2.949c-1.516,2.686-3.292,6.988-1.482,10.319Z" transform="translate(-1418.656 -404.67)"/><path class="d" d="M1908.515,457.123l-1.4-.134v-.078c-.019-.163-.207-1.08-2.127-2.545a8.105,8.105,0,0,0-4.251-1.732c-1.759-.277-3.424-.538-5.7-3.735l-.044-.068c-3.312-6.005,2.954-14.072,3.222-14.412l1.89-2.419-.655,3c-1.071,4.893.243,5.815,3.38,8.044.511.363,1.039.73,1.611,1.168,4.355,3.27,4.136,10.032,4.136,10.427l-.049,2.239A1.213,1.213,0,0,1,1908.515,457.123Zm-12.3-9c1.92,2.677,3.163,2.879,4.747,3.127a9.416,9.416,0,0,1,4.886,2.005,11.734,11.734,0,0,1,1.326,1.163c0-1.061-.139-6.489-3.567-9.066-.557-.419-1.078-.788-1.582-1.144-1.63-1.156-2.92-2.068-3.664-3.458a6.1,6.1,0,0,1-.664-2.952c-1.516,2.674-3.292,6.988-1.482,10.319Z" transform="translate(-1433.165 -331.136)"/><path class="d" d="M1943.807,372.837l-1.375-.285v-.078c0-.166-.087-1.1-1.835-2.764a8.16,8.16,0,0,0-4.037-2.19c-1.718-.467-3.343-.908-5.258-4.334l-.034-.073c-2.637-6.326,4.472-13.665,4.777-13.974l2.151-2.19-.973,2.9c-1.6,4.747-.406,5.806,2.479,8.368.467.416.951.844,1.474,1.336,3.969,3.728,3.02,10.424,2.959,10.816l-.292,2.219A1,1,0,0,1,1943.807,372.837Zm-11.244-10.3c1.616,2.876,2.835,3.207,4.38,3.626a9.454,9.454,0,0,1,4.638,2.528,11.805,11.805,0,0,1,1.19,1.3c.122-1.054.574-6.465-2.552-9.4-.509-.487-.973-.9-1.448-1.309-1.494-1.326-2.676-2.375-3.263-3.84a6.1,6.1,0,0,1-.338-3.005C1933.366,354.934,1931.13,359.029,1932.563,362.535Z" transform="translate(-1460.899 -266.781)"/><path class="d" d="M2015.128,296.4l-1.273-.6.029-.073c.039-.161.17-1.088-1.141-3.115a8.17,8.17,0,0,0-3.406-3.068c-1.565-.854-3.042-1.662-4.1-5.441l-.017-.078c-1.09-6.772,7.543-12.247,7.9-12.478l2.6-1.625-1.628,2.6c-2.662,4.244-1.747,5.553.46,8.716.36.513.73,1.044,1.124,1.642,2.99,4.55.509,10.84.36,11.208l-.8,2.09A1.272,1.272,0,0,1,2015.128,296.4Zm-8.536-12.636c.9,3.163,2.01,3.779,3.406,4.545a9.425,9.425,0,0,1,3.922,3.538,11.876,11.876,0,0,1,.854,1.543c.362-1,2.063-6.151-.295-9.733-.382-.582-.747-1.1-1.1-1.611-1.146-1.638-2.049-2.92-2.28-4.492a6.082,6.082,0,0,1,.372-3c-2.329,2.005-5.458,5.465-4.881,9.212Z" transform="translate(-1517.223 -208.495)"/><path class="d" d="M2052.36,340.582a6.618,6.618,0,0,1-4.151-1.428,8.182,8.182,0,0,0-4.319-1.611c-2.411-.226-3.163.319-3.3.428l-.051.058-1.119-.849a1.162,1.162,0,0,1,.156-.187l1.482-1.679c.243-.3,4.682-5.416,10.115-4.867.715.073,1.36.158,1.983.243,3.837.487,5.426.7,7.949-3.623l1.54-2.638-.229,3.044c-.031.433-.869,10.624-7.39,12.792l-.078.019A12.651,12.651,0,0,1,2052.36,340.582Zm-9.541-4.5c.363,0,.762.017,1.2.058a9.533,9.533,0,0,1,4.969,1.842c1.336.891,2.392,1.6,5.63.927,3.606-1.217,5.214-5.614,5.906-8.614a6.085,6.085,0,0,1-2.5,1.73c-1.494.516-3.063.314-5.052.056-.613-.08-1.246-.163-1.947-.231-4.3-.436-8.081,3.47-8.787,4.246C2042.425,336.085,2042.617,336.08,2042.819,336.08Z" transform="translate(-1543.178 -249.741)"/><path class="d" d="M1994.717,426.069c-3.516,0-4.682-1.119-5.913-2.3a8.211,8.211,0,0,0-3.969-2.346c-2.333-.645-3.18-.243-3.324-.156l-.061.049-.951-1.034a1.133,1.133,0,0,1,.185-.156l1.752-1.392c.306-.243,5.56-4.514,10.813-3.017.691.2,1.312.392,1.91.579,3.691,1.166,5.219,1.645,8.463-2.17l1.98-2.326-.761,2.969c-.107.419-2.72,10.3-9.519,11.293h-.08Q1994.973,426.069,1994.717,426.069Zm-11.246-6.356a11.66,11.66,0,0,1,1.74.353,9.6,9.6,0,0,1,4.57,2.677c1.158,1.112,2.073,1.99,5.38,1.9,3.757-.572,6.112-4.609,7.322-7.441a6.083,6.083,0,0,1-2.762,1.26c-1.562.243-3.071-.229-4.983-.83-.589-.187-1.2-.38-1.871-.569-4.146-1.17-8.56,2.007-9.4,2.65Z" transform="translate(-1498.594 -315.852)"/><path class="d" d="M1960.652,489.866a6.78,6.78,0,0,1-3.574-1.088,8.093,8.093,0,0,0-4.443-1.217c-2.419,0-3.134.6-3.248.73l-.046.061-1.19-.747a1.157,1.157,0,0,1,.136-.2l1.329-1.8c.229-.324,4.19-5.806,9.648-5.74.73,0,1.367.034,2,.061,3.866.156,5.468.221,7.6-4.312l1.3-2.762.041,3.054c0,.433.071,10.658-6.232,13.383l-.078.027A11.194,11.194,0,0,1,1960.652,489.866Zm-8.088-3.723h.078a9.364,9.364,0,0,1,5.11,1.4c1.411.769,2.526,1.377,5.692.426,3.484-1.54,4.7-6.054,5.11-9.1a6.057,6.057,0,0,1-2.338,1.947c-1.443.647-3.025.584-5.027.5-.618-.024-1.256-.051-1.947-.058-4.3-.054-7.738,4.168-8.373,5.005a11.61,11.61,0,0,1,1.7-.114Z" transform="translate(-1474.116 -362.047)"/><path class="d" d="M1899.571,689.131a7.026,7.026,0,0,1-3.677-1.107,8.557,8.557,0,0,0-4.553-1.256,12.493,12.493,0,0,0-2.416.124l-.4,1-.754-.99a.766.766,0,0,1-.068-.81,1.012,1.012,0,0,1,.075-.134l.438-1.1.046-.068c.166-.243,4.081-5.728,9.606-5.728h.144c.73,0,1.392.041,2.032.071,3.942.178,5.572.243,7.684-4.287L1909,672.13l.078,3c0,.436.207,10.706-6.18,13.427l-.078.029a11.528,11.528,0,0,1-3.246.55Zm-8.589-3.774h.382a9.9,9.9,0,0,1,5.207,1.423c1.46.784,2.6,1.4,5.815.46,3.548-1.535,4.72-6.11,5.11-9.169a6.084,6.084,0,0,1-2.4,1.99c-1.46.64-3.066.569-5.11.487-.63-.027-1.28-.056-1.993-.068-4.292-.075-7.679,3.964-8.419,4.925a12.634,12.634,0,0,1,1.4-.058Z" transform="translate(-1428.315 -512.837)"/><ellipse class="e" cx="6.391" cy="6.689" rx="6.391" ry="6.689" transform="translate(509.9 123.174) rotate(-5.143)"/><path class="e" d="M1684.28,647.554l-.1-1.4c40.635-2.9,70.126-15.8,87.658-38.348,12.076-15.529,16-32.812,17.174-44.58a88.833,88.833,0,0,0-.358-22.009l1.387-.243a90.368,90.368,0,0,1,.372,22.386,94.756,94.756,0,0,1-4.759,21.824,82.38,82.38,0,0,1-12.7,23.483c-8.139,10.463-18.979,18.979-32.2,25.34C1725.287,641.432,1706.279,645.992,1684.28,647.554Z" transform="translate(-1274.377 -413.591)"/><ellipse class="e" cx="7.083" cy="6.913" rx="7.083" ry="6.913" transform="translate(48.407 121.875)"/><ellipse class="e" cx="7.083" cy="6.913" rx="7.083" ry="6.913" transform="translate(15.291 67.801)"/><path class="e" d="M285.057,645.842a77.106,77.106,0,0,1-35.574-23.86,97.516,97.516,0,0,1-17.665-32.606,137.9,137.9,0,0,1-6.025-28.746,107.6,107.6,0,0,1-.63-12.41l1.409.039a134.213,134.213,0,0,0,6.6,40.706c6.482,19.641,20.824,45.22,52.327,55.532Z" transform="translate(-170.368 -419.077)"/><path class="e" d="M168.551,482.681a111.567,111.567,0,0,1-34.168-14.067,97.865,97.865,0,0,1-23.948-21.452C99,432.914,90.862,414.906,86.27,393.632a209.339,209.339,0,0,1-4.234-48.714,177.393,177.393,0,0,1,1.7-21.308l1.392.224A180.056,180.056,0,0,0,83.455,345a207.789,207.789,0,0,0,4.21,48.375c7.122,33.036,27.012,75.1,81.21,87.933Z" transform="translate(-62.013 -249.12)"/><path class="f" d="M753.96,456.935H442.81V294.559a13.969,13.969,0,0,1,13.969-13.969H735.435a18.526,18.526,0,0,1,18.524,18.522Z" transform="translate(-335.063 -216.568)"/><rect class="c" width="287.669" height="148.168" transform="translate(119.487 78.11)"/><path class="b" d="M590.274,954.162l-469.384.277,78.331-50.59h311.15Z" transform="translate(-91.474 -663.483)"/><rect class="f" width="455.867" height="10.782" transform="translate(42.932 290.679)"/><path class="g" d="M888.484,1053.809H698.87l13.872-10.979H874.955Z" transform="translate(-528.817 -768.646)"/><path class="g" d="M701.865,1043.983H340.176a.645.645,0,0,1-.38-1.168l33.267-24.2a.644.644,0,0,1,.38-.124H666.536a.659.659,0,0,1,.365.114L702.23,1042.8a.645.645,0,0,1-.365,1.178Zm-359.7-1.28H699.779l-33.443-22.9H373.653Z" transform="translate(-256.913 -774.918)"/><rect class="g" width="39.319" height="1.292" transform="matrix(0.788, -0.615, 0.615, 0.788, 109.693, 267.908)"/><rect class="g" width="35.973" height="1.29" transform="translate(132.633 267.818) rotate(-42.158)"/><rect class="g" width="32.277" height="1.292" transform="matrix(0.66, -0.75, 0.75, 0.66, 156.385, 267.419)"/><rect class="g" width="29.243" height="1.294" transform="translate(180.386 267.727) rotate(-55.993)"/><rect class="g" width="16.142" height="1.292" transform="translate(207.96 258.543) rotate(-64.72)"/><rect class="g" width="15.125" height="1.292" transform="translate(229.472 258.64) rotate(-74.82)"/><rect class="g" width="14.733" height="1.292" transform="matrix(0.137, -0.991, 0.991, 0.137, 251.667, 258.742)"/><rect class="g" width="1.292" height="39.319" transform="matrix(0.615, -0.788, 0.788, 0.615, 384.317, 244.76)"/><rect class="g" width="1.292" height="36.036" transform="translate(365.065 244.671) rotate(-47.83)"/><rect class="g" width="1.292" height="32.277" transform="translate(348.55 244.614) rotate(-41.45)"/><rect class="g" width="1.292" height="29.206" transform="translate(328.36 244.548) rotate(-34.07)"/><rect class="g" width="1.292" height="16.142" transform="translate(309.752 244.522) rotate(-25.28)"/><rect class="g" width="1.292" height="14.996" transform="translate(291.951 244.362) rotate(-13.29)"/><rect class="g" width="1.292" height="14.663" transform="translate(271.825 244.286) rotate(-5.52)"/><rect class="g" width="333.713" height="1.292" transform="translate(96.831 257.906)"/><rect class="g" width="311.113" height="1.292" transform="translate(107.37 249.647)"/><path class="h" d="M440.442,378.238a.762.762,0,0,1-.762-.764V290.982a16.624,16.624,0,0,1,1.621-6.234,12.691,12.691,0,0,1,10.555-7.278h21.967a.764.764,0,1,1,0,1.528H451.983a11.086,11.086,0,0,0-9.307,6.419,15.3,15.3,0,0,0-1.46,5.6v86.461a.764.764,0,0,1-.774.764Z" transform="translate(-332.695 -214.207)"/><path class="h" d="M440.438,731.229a.764.764,0,0,1-.762-.764V717.91a.764.764,0,1,1,1.526,0v12.551a.766.766,0,0,1-.764.769Z" transform="translate(-332.691 -546.866)"/><path class="h" d="M595.783,278.978h-6.059a.764.764,0,1,1,0-1.528h6.059a.764.764,0,0,1,0,1.528Z" transform="translate(-445.651 -214.192)"/><path class="h" d="M1444.355,1003.7H1393.7a.764.764,0,1,1,0-1.526h50.655a.764.764,0,1,1,0,1.526Z" transform="translate(-1053.967 -762.573)"/><path class="h" d="M1666.314,913.336h-17.965a.764.764,0,1,1,0-1.526h16.437v-28.3a.764.764,0,1,1,1.528,0Z" transform="translate(-1246.654 -672.208)"/><path class="h" d="M1316.452,1003.7H1301.24a.764.764,0,1,1,0-1.526h15.213a.764.764,0,0,1,0,1.526Z" transform="translate(-984.004 -762.573)"/><path class="h" d="M1209.378,278.978H1190a.764.764,0,1,1,0-1.528h19.374a.764.764,0,0,1,0,1.528Z" transform="translate(-899.868 -214.192)"/><path class="h" d="M1336.96,278.978h-49.546a.764.764,0,0,1,0-1.528h49.546a.764.764,0,1,1,0,1.528Z" transform="translate(-973.576 -214.192)"/><path class="h" d="M561.138,1211.612H476.67a.764.764,0,1,1,0-1.526h84.468a.764.764,0,1,1,0,1.526Z" transform="translate(-360.074 -919.894)"/><path class="h" d="M861.368,1210.482H845.62a.764.764,0,1,1,0-1.526h15.748a.764.764,0,0,1,0,1.526Z" transform="translate(-639.249 -919.039)"/><path class="h" d="M963.775,1210.482H934.95a.764.764,0,1,1,0-1.526h28.824a.764.764,0,1,1,0,1.526Z" transform="translate(-706.843 -919.039)"/><ellipse class="i" cx="56.916" cy="4.46" rx="56.916" ry="4.46" transform="translate(0 345.595)"/><ellipse class="i" cx="20.815" cy="83.292" rx="20.815" ry="83.292" transform="translate(208.642 383.328) rotate(-84.857)"/><ellipse class="i" cx="73.253" cy="6.538" rx="73.253" ry="6.538" transform="matrix(0.99, -0.143, 0.143, 0.99, 48.113, 383.93)"/><ellipse class="i" cx="80.918" cy="2.633" rx="80.918" ry="2.633" transform="translate(387.778 356.136)"/><rect class="j" width="18.318" height="36.457" transform="translate(187.577 163.267)"/><rect class="j" width="18.318" height="59.396" transform="translate(215.756 140.329)"/><rect class="j" width="18.318" height="78.037" transform="translate(245.802 121.687)"/><rect class="j" width="18.318" height="92.717" transform="translate(277.276 107.008)"/><path class="h" d="M867.327,837.673H747.611a.294.294,0,1,1,0-.586H867.327a.294.294,0,1,1,0,.586Z" transform="translate(-565.456 -637.654)"/><path class="h" d="M807.614,845.553a.294.294,0,0,1-.294-.294v-7.8a.294.294,0,0,1,.586,0v7.8A.294.294,0,0,1,807.614,845.553Z" transform="translate(-610.879 -637.734)"/><path class="h" d="M923.424,845.47a.294.294,0,0,1-.294-.294v-7.8a.294.294,0,1,1,.589,0v7.8A.294.294,0,0,1,923.424,845.47Z" transform="translate(-698.509 -637.65)"/><path class="h" d="M1046.9,845.553a.294.294,0,0,1-.292-.294v-7.8a.294.294,0,0,1,.586,0v7.8A.3.3,0,0,1,1046.9,845.553Z" transform="translate(-791.943 -637.733)"/><path class="h" d="M1176.255,845.47a.294.294,0,0,1-.294-.294v-7.8a.294.294,0,1,1,.589,0v7.8a.294.294,0,0,1-.294.294Z" transform="translate(-889.819 -637.65)"/><path class="j" d="M1312.386,592.9l-1.246-1.243,13.969-13.969a4.207,4.207,0,0,1,5.947,0l11.495,11.507a2.433,2.433,0,0,0,3.455,0l16.2-16.208a4.2,4.2,0,0,1,5.949,0l6.326,6.326a2.433,2.433,0,0,0,3.455,0l13.21-13.208,1.246,1.246-13.21,13.208a4.2,4.2,0,0,1-5.947,0l-6.326-6.326a2.448,2.448,0,0,0-3.458,0l-16.2,16.2a4.2,4.2,0,0,1-5.947,0l-11.495-11.492a2.448,2.448,0,0,0-3.458,0Z" transform="translate(-992.107 -432.614)"/><path class="j" d="M1638.1,459.637l-3.2-3.127,4.73-1.64.085.085Z" transform="translate(-1237.088 -323.751)"/><rect class="i" width="112.015" height="42.903" transform="translate(309.497 170.243)"/><rect class="k" width="112.015" height="42.903" transform="translate(305.935 165.999)"/><path class="g" d="M1324.032,728.171c0,3.75-3.042,8.159-6.791,8.159s-6.791-4.409-6.791-8.159a6.791,6.791,0,0,1,13.582,0Z" transform="translate(-991.584 -550.103)"/><path class="g" d="M1284.72,800.223c0-9.2.954-17.4,13.052-17.4s13.052,8.2,13.052,17.4Z" transform="translate(-972.115 -596.593)"/><rect class="g" width="7.11" height="6.58" transform="translate(322.102 183.572)"/><rect class="i" width="19.125" height="7.655" transform="translate(342.816 174.148)"/><rect class="j" width="19.125" height="7.655" transform="translate(342.816 188.242)"/><rect class="c" width="38.628" height="1.995" transform="translate(365.007 174.148)"/><rect class="c" width="38.628" height="1.995" transform="translate(365.007 179.806)"/><rect class="c" width="38.628" height="1.995" transform="translate(365.007 188.12)"/><rect class="c" width="38.628" height="1.995" transform="translate(365.007 193.901)"/><circle class="i" cx="26.778" cy="26.778" r="26.778" transform="translate(307.738 85.61)"/><circle class="k" cx="26.778" cy="26.778" r="26.778" transform="translate(302.969 82.889)"/><path class="j" d="M1325.508,401.014V390.24c3.319.487,5.84,2.677,5.84,5.3a1.387,1.387,0,0,0,2.771,0c0-4.119-3.75-7.543-8.6-8.086V383.6a1.385,1.385,0,0,0-2.769,0v3.847c-4.852.552-8.6,3.966-8.6,8.086s3.747,7.543,8.6,8.088V414.4c-3.317-.487-5.84-2.677-5.84-5.3a1.385,1.385,0,0,0-2.769,0c0,4.12,3.747,7.543,8.6,8.088v5.477a1.384,1.384,0,1,0,2.769,0v-5.477c4.852-.555,8.6-3.969,8.6-8.088S1330.36,401.569,1325.508,401.014Zm-8.6-5.465c0-2.623,2.513-4.813,5.84-5.3v10.594C1319.423,400.35,1316.909,398.16,1316.909,395.549Zm8.6,18.863V403.805c3.319.487,5.84,2.677,5.84,5.3s-2.521,4.813-5.84,5.3Z" transform="translate(-994.377 -293.469)"/><circle class="i" cx="49.337" cy="49.337" r="49.337" transform="translate(174.291 23.949)"/><circle class="k" cx="49.337" cy="49.337" r="49.337" transform="translate(151.887 69.773) rotate(-45)"/><path class="h" d="M763.188,247.8a.292.292,0,0,1-.292-.292V194.671a.294.294,0,1,1,.586,0V247.5a.294.294,0,0,1-.294.292Z" transform="translate(-577.263 -151.312)"/><rect class="e" width="71.467" height="0.236" transform="translate(185.925 79.166)"/><rect class="e" width="71.467" height="0.236" transform="translate(185.925 73.424)"/><rect class="e" width="71.467" height="0.236" transform="translate(185.925 67.681)"/><rect class="e" width="71.467" height="0.236" transform="translate(185.925 61.939)"/><rect class="e" width="71.467" height="0.236" transform="translate(185.925 56.196)"/><rect class="e" width="71.467" height="0.236" transform="translate(185.925 50.452)"/><path class="h" d="M834.654,365.919H763.184a.294.294,0,0,1,0-.589h71.469a.294.294,0,0,1,0,.589Z" transform="translate(-577.26 -280.689)"/><path class="l" d="M833.389,282.8a16.778,16.778,0,0,1-9.56-2.655c-2.148-1.513-4.273-6.923-6.73-13.186a108.914,108.914,0,0,0-5.84-13.227c-2.324-4.088-4.46-5.974-6.523-5.76-4.38.453-6.857,5.059-9.246,9.514-2.005,3.672-3.866,7.132-6.691,7.709a6.909,6.909,0,0,1-1.353.144c-3.278,0-4.509-2.83-5.519-5.156a9.09,9.09,0,0,0-1.7-2.964A3.942,3.942,0,0,0,777.339,256c-1.46.083-3.1,1.168-4.983,3.317-3.441,3.918-9.069,16.9-9.127,17.033a.411.411,0,0,1-.754-.326c.243-.538,5.738-13.23,9.263-17.244,2.039-2.321,3.854-3.5,5.553-3.594a4.7,4.7,0,0,1,3.484,1.426,9.511,9.511,0,0,1,1.905,3.246c1.129,2.591,2.295,5.273,5.957,4.533,2.448-.487,4.227-3.8,6.11-7.3,2.385-4.426,5.088-9.443,9.9-9.942,2.433-.243,4.82,1.769,7.324,6.171a109.693,109.693,0,0,1,5.891,13.334c2.309,5.884,4.489,11.436,6.436,12.813,4.961,3.5,12.067,2.292,12.137,2.28a.411.411,0,1,1,.144.81A19.858,19.858,0,0,1,833.389,282.8Z" transform="translate(-576.924 -191.249)"/><path class="e" d="M796.787,274.358c-.55,0-1.083-.032-1.591-.073-2.589-.217-4.416-2.37-6.533-4.867-2.489-2.92-5.309-6.249-10.22-7.743a10.177,10.177,0,0,0-10.091,2.156,15.445,15.445,0,0,0-3.424,4.219.411.411,0,1,1-.73-.37,15.939,15.939,0,0,1,3.623-4.475,11.114,11.114,0,0,1,10.862-2.316c5.141,1.562,8.171,5.132,10.607,8,2,2.353,3.725,4.38,5.976,4.574,5.222.438,8.937-1.061,14.76-10.463,5.9-9.543,12.76-25.135,12.828-25.306a.412.412,0,0,1,.754.331c-.068.158-6.949,15.8-12.882,25.393-2.92,4.718-5.45,7.66-7.966,9.261A10.706,10.706,0,0,1,796.787,274.358Z" transform="translate(-578.201 -183.923)"/><circle class="i" cx="43.869" cy="43.869" r="43.869" transform="translate(354.555 75.916) rotate(-45)"/><circle class="k" cx="43.869" cy="43.869" r="43.869" transform="translate(367.521 28.445)"/><path class="m" d="M1559.528,302.523a22.206,22.206,0,0,1-19.561-32.7l8.273,4.45a12.635,12.635,0,0,0-1.518,6.054,12.821,12.821,0,0,0,12.806,12.806c.19,0,.382,0,.572-.015l.411,9.385C1560.185,302.516,1559.854,302.523,1559.528,302.523Z" transform="translate(-1163.259 -208.419)"/><path class="h" d="M1631.321,339.714l-.411-9.385A12.9,12.9,0,0,0,1643.062,319l9.332,1.063a22.206,22.206,0,0,1-21.072,19.644Z" transform="translate(-1234.069 -245.632)"/><path class="j" d="M1668.548,253.9l-9.332-1.071a13.442,13.442,0,0,0,.083-1.46,12.757,12.757,0,0,0-7.039-11.436l4.236-8.383a22.2,22.2,0,0,1,12.2,19.819A22.589,22.589,0,0,1,1668.548,253.9Z" transform="translate(-1250.224 -179.461)"/><path class="n" d="M1556.443,237.893l-8.273-4.45a22.216,22.216,0,0,1,29.564-9.317l-4.236,8.387a12.652,12.652,0,0,0-5.767-1.367A12.8,12.8,0,0,0,1556.443,237.893Z" transform="translate(-1171.461 -172.041)"/><path class="h" d="M1699.37,409.476h-21.588l-6.6-6.6a.175.175,0,0,1,.243-.243l6.5,6.489h21.442a.175.175,0,0,1,0,.35Z" transform="translate(-1264.522 -308.895)"/><path class="h" d="M1652.619,207.11a.176.176,0,0,1-.139-.068.178.178,0,0,1,.029-.243l5.18-4.068h25.773a.178.178,0,0,1,.175.178.175.175,0,0,1-.175.175H1657.8l-5.071,3.991A.179.179,0,0,1,1652.619,207.11Z" transform="translate(-1250.363 -157.654)"/><path class="h" d="M1744.1,310.333h-15.2a.176.176,0,1,1,0-.353h15.2a.176.176,0,1,1,0,.353Z" transform="translate(-1308.079 -238.807)"/><path class="h" d="M1787.178,427.462a.764.764,0,1,1-.761-.762A.764.764,0,0,1,1787.178,427.462Z" transform="translate(-1351.156 -327.126)"/><path class="h" d="M1790.318,308.332a.764.764,0,1,1-.764-.762A.764.764,0,0,1,1790.318,308.332Z" transform="translate(-1353.532 -236.983)"/><circle class="h" cx="0.764" cy="0.764" r="0.764" transform="translate(432.323 44.488)"/><path class="o" d="M595.67,1021.785v4.336h11.563s.628-1.287-1.883-2.171-4.623-.411-6.017-1.878S595.67,1021.785,595.67,1021.785Z" transform="translate(-450.728 -777.072)"/><path class="o" d="M660.12,1021.785v4.336h11.56s.628-1.287-1.883-2.171-4.623-.411-6.017-1.878S660.12,1021.785,660.12,1021.785Z" transform="translate(-499.496 -777.072)"/><path class="o" d="M581.73,755.524h4.117s8.453-70.35,7.056-77.2-4.227-9.183-7.633-9.441c-4.331-1.584-7.726,6.723-8.03,13.383C576.885,687.035,581.608,749.706,581.73,755.524Z" transform="translate(-436.769 -510.228)"/><path class="o" d="M620.081,687.923l18.493,36.229a10.352,10.352,0,0,1,0,7.312c-1.492,3.974-14.656,36.766-14.656,36.766h-4.227l7.543-37.771-19.344-31.2S601.041,678.511,620.081,687.923Z" transform="translate(-459.068 -522.933)"/><path class="e" d="M612.121,821.128H612.1a.175.175,0,0,1-.156-.195c.066-.6,6.672-60.362,6.672-62.5a14.436,14.436,0,0,0-.229-3.068.175.175,0,0,1,.129-.214.173.173,0,0,1,.212.129,15.174,15.174,0,0,1,.243,3.163c0,2.19-6.4,60.072-6.677,62.535A.175.175,0,0,1,612.121,821.128Z" transform="translate(-463.043 -575.654)"/><path class="e" d="M659.573,907.769h-.034a.178.178,0,0,1-.139-.207l7.543-37.771a.178.178,0,0,1,.173-.141h3.377a.176.176,0,1,1,0,.353H667.27l-7.524,37.63A.178.178,0,0,1,659.573,907.769Z" transform="translate(-498.949 -662.295)"/><path class="e" d="M692.692,873.659h-.019l-2.45-.273a.176.176,0,1,1,.039-.35l2.45.273a.175.175,0,1,1-.019.35Z" transform="translate(-522.155 -664.857)"/><path class="e" d="M679.66,731.364a.173.173,0,0,1-.156-.095L661.011,695.04a.175.175,0,0,1,.078-.243.173.173,0,0,1,.243.076L679.825,731.1a.175.175,0,0,1-.078.243A.162.162,0,0,1,679.66,731.364Z" transform="translate(-500.154 -529.97)"/><path class="p" d="M615.046,467.817s1.034,6.309,4.867,5.869c3.192.022,4.9-2.287,5.056-6.723.153-4.27-1.91-7.363-4.38-7.363S614.38,460.24,615.046,467.817Z" transform="translate(-465.331 -352.021)"/><path class="c" d="M590.688,569.245s8.339,2.83,15.692.691c0,0,3.049-39.489,1.117-40.137s-9.463-.905-13.753.09S590.055,567.374,590.688,569.245Z" transform="translate(-446.622 -404.706)"/><path class="p" d="M623.93,508.82v5.48a3.207,3.207,0,0,0,2.273.633c1.46-.158,1.72-.73,1.72-.73v-5.377Z" transform="translate(-472.112 -389.264)"/><path class="o" d="M575.009,530.21s-.022,33.822,1.757,41.268a37.73,37.73,0,0,1-8.516-2s-6.044-22.517-6.03-29.751c.338-3.759,2.19-6.638,4.82-7.677A49.6,49.6,0,0,1,575.009,530.21Z" transform="translate(-425.418 -405.449)"/><path class="o" d="M644.179,530.21s-.638,32.871-2.029,41.268a19.807,19.807,0,0,0,4.762-1.039s5.463-15.2,5.638-24.878S652.705,531.526,644.179,530.21Z" transform="translate(-485.899 -405.449)"/><rect class="l" width="21.8" height="15.02" transform="matrix(0.824, -0.566, 0.566, 0.824, 127.887, 168.527)"/><rect class="j" width="21.133" height="14.48" transform="matrix(0.824, -0.566, 0.566, 0.824, 127.887, 168.527)"/><rect class="l" width="3.171" height="8.748" transform="matrix(0.824, -0.566, 0.566, 0.824, 143.112, 161.46)"/><rect class="q" width="0.511" height="11.935" transform="matrix(0.824, -0.566, 0.566, 0.824, 141.116, 160.906)"/><rect class="q" width="0.511" height="11.935" transform="matrix(0.824, -0.566, 0.566, 0.824, 140.016, 161.661)"/><path class="p" d="M574.57,721.643a7.936,7.936,0,0,1,.377,1.966,6.076,6.076,0,0,0,1.192,2.8c.324.443.942,0,1.117-.319s.348,0,.73-.243.3-.487.557-.669.64,0,.84-.292.029-.243.73-.6-1.852-2.433-2.348-2.7-1.268-.309-1.647-.951S573.759,720.2,574.57,721.643Z" transform="translate(-434.616 -549.276)"/><path class="o" d="M538.819,543.712c-1.28,1.46-12,20.405-9.869,24.547,1.066,2.19,8.3,18.349,11.122,20.332l2.677-1.5s-6.864-19.284-6.621-21.293c.791-2.124,12.7-17.276,11.721-18.955C545.946,543.547,543.147,541.386,538.819,543.712Z" transform="translate(-400.031 -414.93)"/><path class="p" d="M804.816,585.4a7.443,7.443,0,0,0,2.168-1.063c.5-.526.428-1,1.046-1.538s1.367-.808,1.874-1.28.788-.307.633.139-1.165.973-1.2,1.241,2.149-.645,3.1-.959,1.577-.275,1.158.063a24.123,24.123,0,0,1-2.433,1.236c-.4.214-.445.56-.214.443s1.406-.487,2.45-.788,1.7-.526,1.74-.319-.165.533-1.049.822a22.955,22.955,0,0,0-2.752,1.078c-.168.141-.015.243.243.143s2.847-1.19,3.115-1.217.567.109.085.436-3.071,1.251-3.241,1.46.65.107,1.268-.078,1.241-.163,1.268-.024-.1.328-1.1.535c-1.431.3-2.82,1.114-3.847,1.029a4.084,4.084,0,0,0-2.227.093c-.849.3-1.144,1.024-1.674.513S804.178,586.255,804.816,585.4Z" transform="translate(-608.761 -444.057)"/><path class="o" d="M655.215,542.975s4.227,10.682,14.792,13.383,19.49-.207,23.951-4.212l-1.409-2.832s-11.974,5.394-19.138.878-10.448-13.254-14.792-15.006S652.548,538.318,655.215,542.975Z" transform="translate(-494.824 -408.939)"/><path class="l" d="M630.423,573.675H630.3a.9.9,0,0,1-.7-1.027c1.531-11.616-.869-25.177-.893-25.306a.905.905,0,0,1,.645-1.066.827.827,0,0,1,.973.713c.1.567,2.479,14,.91,25.924A.852.852,0,0,1,630.423,573.675Z" transform="translate(-475.717 -417.596)"/><path class="l" d="M629.133,542.552a1.4,1.4,0,1,1-.41-.992A1.4,1.4,0,0,1,629.133,542.552Z" transform="translate(-473.928 -413.727)"/><path class="r" d="M598.7,530.21s-3.879,4.246-5.171,7.417c0,0,3.465.645.411,3.051l5.278,16.977C599.36,558.032,598.637,533.378,598.7,530.21Z" transform="translate(-449.109 -405.449)"/><path class="r" d="M647.751,530.21s3.864,4.246,5.129,7.417c0,0-3.407.645-.4,3.051l-5.6,16.836C646.748,557.9,647.76,533.429,647.751,530.21Z" transform="translate(-489.47 -405.449)"/><path class="o" d="M614.285,454.691a1.889,1.889,0,0,0-.377-.569,1.947,1.947,0,0,1-.565-1.472c.085-1.017.711-1.136,1.217-.822s1.107.83,1.217-.153-.521-2.117-.165-2.587.433-1.947,3.682-1.723,4.815-.243,5.674-1.681-.781-6.222-3.835-4.7-3.326,3.521-5.088,3.835a4.678,4.678,0,0,0-3.874,4.343,19.754,19.754,0,0,0,1.107,5.777c.265.781.805,3.163,2.677,4.085a6.278,6.278,0,0,0,5.263-.273c.859-.547,1.372-1.511.745-1.742-.5-.185-2.073,1.538-3.56,1.234S615.642,458.074,614.285,454.691Z" transform="translate(-463.214 -337.712)"/><path class="p" d="M2145.288,998.02s-1.085.353-1.409.175-.409-.82-.864-1.085-.574-.382-.73-.146-1.185,7.015-1.185,7.015.158.487,1.905-.647a22.829,22.829,0,0,0,3.494-2.582c.715-.7,1.185-1.528.628-2.19A2.464,2.464,0,0,0,2145.288,998.02Z" transform="translate(-1620.116 -758.534)"/><path class="e" d="M661.125,617.509a.246.246,0,0,1-.058,0,.175.175,0,0,1-.117-.243c.053-.156,5.57-15.853,5.628-24.5a.175.175,0,0,1,.175-.175h0a.178.178,0,0,1,.175.178c-.056,8.706-5.6,24.459-5.648,24.617A.175.175,0,0,1,661.125,617.509Z" transform="translate(-500.112 -452.651)"/><path class="e" d="M565.3,628.875a.173.173,0,0,1-.165-.114c-.73-2.039-7.178-19.953-6.618-21.413s6.207-9.212,6.448-9.543a.176.176,0,0,1,.285.207c-.058.08-5.867,8.054-6.4,9.463-.387,1.017,3.747,13.217,6.621,21.169a.178.178,0,0,1-.107.226.163.163,0,0,1-.058,0Z" transform="translate(-422.587 -456.542)"/><path class="s" d="M879.75,1324.9,925.1,1307.87l111.981,17.753-38.932,24.863Z" transform="translate(-665.685 -969.195)"/><path class="m" d="M1370,1503.632l38.034-21.342.47,11.772c.389,1.594-2.657,3.163-4,3.988l-32.095,18.3Z" transform="translate(-1036.644 -1125.864)"/><path class="t" d="M903.17,1293.01l3.528,14.466,67.778,10.792-2.467-15.7Z" transform="translate(-683.406 -957.951)"/><path class="g" d="M867.235,1342.874a39.574,39.574,0,0,0-.18,9.976,5.669,5.669,0,0,0,4.7,4.964c11.792,1.664,49.651,7.027,51.475,7.441,1.973.445,5.908,5.292,8.407,9.913a5.567,5.567,0,0,0,2.837,2.557c9.246,3.635,44.443,9.916,54.5,11.68a5.261,5.261,0,0,0,4.837-1.732c2.871-3.222,7.436-9.4,5.7-14.544-2.467-7.319-11.259-24.522-25.895-25.9s-56.009-9.125-69.121-9.855c-9.621-.523-24.736.095-32.1.46A5.636,5.636,0,0,0,867.235,1342.874Z" transform="translate(-655.895 -1016.056)"/><path class="m" d="M885.37,1293.686,920,1278.6s98.06,8.572,107.328,13.086,15.889,15.587,14.9,25.508c-.73,5.7-1.608,7.365-1.608,7.365l-35.039,20.325s8.609-19.142-2.708-28.547S885.37,1293.686,885.37,1293.686Z" transform="translate(-669.937 -971.737)"/><path class="g" d="M1000.127,1500.043s-120.607-21.7-121.208-20.807,0,13.12,0,13.12,117.606,21.079,121.709,21.259C1001.112,1514.209,1000.127,1500.043,1000.127,1500.043Z" transform="translate(-664.854 -1123.533)"/><path class="h" d="M866.541,1344.774H866.5a.647.647,0,0,1-.6-.686c0-.056.44-5.553,6.55-5.246,5.519.277,30.975,4.241,32.056,4.409a.645.645,0,0,1-.2,1.275c-.265-.042-26.471-4.12-31.922-4.395-4.825-.243-5.185,3.869-5.2,4.044A.65.65,0,0,1,866.541,1344.774Z" transform="translate(-655.201 -1017.311)"/><path class="h" d="M864.89,1369.525h-.044a.645.645,0,0,1-.6-.686l.2-3.056a.647.647,0,0,1,1.29.085l-.2,3.056A.647.647,0,0,1,864.89,1369.525Z" transform="translate(-653.952 -1037.276)"/><path class="h" d="M1057.581,1363.608h-.1l-13.9-2.144a.647.647,0,1,1,.2-1.277l13.9,2.146a.645.645,0,0,1-.1,1.282Z" transform="translate(-789.213 -1033.461)"/><path class="h" d="M1112.418,1372.132a.5.5,0,0,1-.1,0l-3.72-.6a.646.646,0,1,1,.207-1.275l3.72.6a.647.647,0,0,1-.1,1.285Z" transform="translate(-838.434 -1041.083)"/><path class="h" d="M1360.439,1440.836h-.044a.645.645,0,0,1-.6-.689,16.129,16.129,0,0,0-4.273-12.485,17.358,17.358,0,0,0-4.93-3.767.645.645,0,1,1,.533-1.175,18.292,18.292,0,0,1,5.309,4.027,17.567,17.567,0,0,1,4.65,13.487A.647.647,0,0,1,1360.439,1440.836Z" transform="translate(-1021.672 -1080.746)"/><path class="h" d="M1385.885,1507a.608.608,0,0,1-.163-.022.65.65,0,0,1-.465-.788c.324-1.241.91-5.292.917-5.334a.645.645,0,1,1,1.277.185c-.024.17-.6,4.163-.944,5.475A.648.648,0,0,1,1385.885,1507Z" transform="translate(-1048.174 -1139.498)"/><path class="h" d="M1308.078,1545.764l-22.089-3.954a.647.647,0,0,1,.229-1.273l21.641,3.876,10.315-5.6a.645.645,0,1,1,.616,1.134Z" transform="translate(-972.696 -1168.578)"/><path class="h" d="M1429.2,1527.142a.647.647,0,0,1-.316-1.217l4.136-2.316a.647.647,0,0,1,.633,1.126l-4.136,2.316A.647.647,0,0,1,1429.2,1527.142Z" transform="translate(-1080.943 -1157.08)"/><path class="h" d="M1267.479,1544.105a.617.617,0,0,1-.114,0l-2.9-.516a.647.647,0,1,1,.226-1.273l2.9.518a.645.645,0,0,1-.112,1.28Z" transform="translate(-956.355 -1171.272)"/><path class="h" d="M1063.369,1453.373a.652.652,0,0,1-.56-.319,58.694,58.694,0,0,0-5.244-6.733c-.126-.129-1.09-.832-7.772-2.02-3.56-.635-6.993-1.095-7.027-1.1a.646.646,0,0,1,.17-1.28c.036,0,3.492.467,7.081,1.107,7.434,1.321,8.188,2.1,8.473,2.394a60.214,60.214,0,0,1,5.436,6.979.644.644,0,0,1-.243.883A.63.63,0,0,1,1063.369,1453.373Z" transform="translate(-788.612 -1095.315)"/><path class="h" d="M1144.065,1502.648a.625.625,0,0,1-.219-.039l-3.589-1.292a.647.647,0,0,1,.438-1.217l3.589,1.294a.645.645,0,0,1-.219,1.253Z" transform="translate(-862.501 -1139.319)"/><path class="h" d="M1003.5,1437.516h-.095l-8.327-1.195a.647.647,0,0,1,.182-1.28l8.329,1.195a.647.647,0,0,1-.09,1.287Z" transform="translate(-752.556 -1090.11)"/><path class="h" d="M899.313,1481.247h-.1l-21.478-3.258a.647.647,0,0,1,.195-1.278l21.478,3.258a.647.647,0,0,1-.1,1.285Z" transform="translate(-663.775 -1121.641)"/><path class="h" d="M978.2,1493.44a.91.91,0,0,1-.109,0l-4.032-.686a.645.645,0,0,1,.217-1.272l4.032.686a.645.645,0,0,1-.107,1.282Z" transform="translate(-736.64 -1132.812)"/><path class="h" d="M889.9,1469.414a.647.647,0,0,1-.229-1.251l3.407-1.28a.649.649,0,0,1,.453,1.217l-3.406,1.28A.623.623,0,0,1,889.9,1469.414Z" transform="translate(-672.882 -1114.175)"/><path class="h" d="M1494.9,1437.663a.645.645,0,0,1-.243-1.241c1.523-.628,5.66-2.655,6.507-4.48.628-1.348,1.1-7.032,1.231-9.11a.647.647,0,0,1,1.29.08c-.049.791-.506,7.762-1.348,9.575-1.217,2.608-6.57,4.867-7.188,5.127a.622.622,0,0,1-.248.049Z" transform="translate(-1130.668 -1080.444)"/><path class="u" d="M1469.065,1342.225a.414.414,0,0,1-.387-.27,23.9,23.9,0,0,0-10.086-12.558,18.87,18.87,0,0,0-6.3-2.475.412.412,0,1,1,.114-.815,19.462,19.462,0,0,1,6.611,2.584,24.674,24.674,0,0,1,10.436,12.979.409.409,0,0,1-.243.528A.435.435,0,0,1,1469.065,1342.225Z" transform="translate(-1098.642 -1007.682)"/><path class="o" d="M201.921,1435.805l.056.049a9.742,9.742,0,0,0,4,2.136,8.275,8.275,0,0,1,3.29,1.786.436.436,0,0,1-.294.757h-9.86a.436.436,0,0,1-.436-.436v-3.241a.436.436,0,0,1,.153-.331C199.308,1436.126,200.8,1435,201.921,1435.805Z" transform="translate(-150.336 -1090.478)"/><path class="o" d="M331.747,1380.17h.073a9.724,9.724,0,0,0,4.506-.528,8.273,8.273,0,0,1,3.72-.411.436.436,0,0,1,.19.791l-8.108,5.638a.438.438,0,0,1-.608-.109l-1.844-2.655a.431.431,0,0,1-.063-.36C329.776,1381.932,330.365,1380.155,331.747,1380.17Z" transform="translate(-249.399 -1047.839)"/><path class="v" d="M210.759,1223.079l-8.293,50.594H198.68l.36-50.594S204.262,1216.407,210.759,1223.079Z" transform="translate(-150.336 -927.482)"/><path class="h" d="M52.533,1180.512s-3.063,14.084,1.5,17.887,13.823,4.047,25.882,1.6c11.68-2.557,15.259-4.587,15.222-4.811l24.425,36.883,3.268-2.562s-14.9-36.012-15.137-39.02c-3.387-5.385,2.307-9.309-32.849-9.9C74.856,1180.594,65.653,1177.73,52.533,1180.512Z" transform="translate(-38.99 -896.597)"/><path class="p" d="M78.615,958.261s.932,6.935,4.978,7.163,6.477-.805,7.056-4.309-.557-8.475-2.36-10.271S76.646,945.766,78.615,958.261Z" transform="translate(-59.29 -722.393)"/><path class="p" d="M80.8,997.382l-1.056,7.847s2.771,1.657,4.509,1.217l1.74-.443v-8.621S82.3,997.29,80.8,997.382Z" transform="translate(-60.337 -758.916)"/><path class="e" d="M44.333,1060.739s-5.129-27.895-3.214-32.119a8.972,8.972,0,0,1,8.042-7.144c3.8-.64,8.392-.973,13.054,1.4,4.219,2.144,7.134,15.855,6.222,23.1s-1.781,14.843-1.781,14.843C66.651,1060.182,59.383,1063.905,44.333,1060.739Z" transform="translate(-30.789 -776.825)"/><path class="e" d="M110.813,1022.638s6.657,1.141,9.458,5.6,3.453,8.735,3.913,16.476a100.011,100.011,0,0,0,1.659,11.071c.1,1.175,1.037,1.4,3.618,2.015s13.288,3.552,13.259,3.309l.387,2.295s-11.733-1.09-15.264-1.217-6.628-.046-7.451-1.161a33.138,33.138,0,0,1-3.049-6.923c-2.3-6.682-7.923-18.561-7.005-24.393s-.1-7.156-.1-7.156Z" transform="translate(-83.415 -777.991)"/><path class="j" d="M59.579,956.688c.832,4.867-1.46,6.365-3.124,9.516-2.051,3.893-2.321,8.081,1.382,10.436,4.1,2.606,11.624,1.866,14.6-1.292,1.312-1.389,1.38-3.73,1.3-4.908a17.064,17.064,0,0,0-.625-2.368c-1.611-4.8-7.217-9.217-7.662-11.865s2.061-4.728,4.38-6.971,4.088-6.251-2-8.495c-3.718-1.37-6.064,1.562-7.324,4.054C59.9,947.868,59,953.318,59.579,956.688Z" transform="translate(-41.592 -715.825)"/><path class="l" d="M41.07,973.078c-3.285,2.492-5.689,8.964-5.21,12.49s5.249,11.227,15.344,9c7.4-1.282,8.774-6.378,8.03-10.487a8.847,8.847,0,0,1-1.3,4.29c-3.445,4.411-9.614,3.472-13.714,1.91s-4.321-6.555-2.27-10.436c1.667-3.163,3.956-4.652,3.124-9.516-.577-3.37.321-8.821.93-11.891a16.648,16.648,0,0,0-1.17,3C42.79,965.934,44.365,970.584,41.07,973.078Z" transform="translate(-27.089 -729.48)"/><path class="e" d="M254.652,1281.117a.175.175,0,0,1-.148-.078l-24.423-36.886a.178.178,0,0,1,.049-.243.175.175,0,0,1,.243.051l24.425,36.883a.175.175,0,0,1-.049.243A.188.188,0,0,1,254.652,1281.117Z" transform="translate(-174.075 -945.467)"/><path class="h" d="M140.632,1059.908l-.185.027-.124-.107a.141.141,0,0,1,.095-.054c-.375.017-4.993-1.192-8.363-2.078-2.017-.53-3.92-1.032-4.815-1.243-2.677-.64-3.392-.849-3.482-1.859v-.015l-.073-.372a96.951,96.951,0,0,1-1.584-10.677c-.467-7.864-1.146-12.12-3.937-16.561S107.318,1021,107.25,1021l.192.375c.066.012,7.692,1.46,10.419,5.784,2.752,4.38,3.421,8.592,3.893,16.4a97.812,97.812,0,0,0,1.589,10.723c.032.166.056.285.071.358.119,1.3,1.185,1.553,3.752,2.163.891.212,2.791.71,4.806,1.241,6.083,1.6,7.8,2.02,8.346,2.073l.324,1.927c-1.655-.153-11.823-1.085-15.045-1.217-.5-.019-.993-.034-1.472-.049-2.784-.083-5.19-.153-5.84-1.041a31.776,31.776,0,0,1-3.022-6.876c-.547-1.589-1.287-3.484-2.068-5.492-.153-.389-.307-.786-.465-1.187h0a.175.175,0,0,0-.163-.112.178.178,0,0,0-.175.182.187.187,0,0,0,.029.1l.445,1.141c.781,2,1.518,3.893,2.063,5.477a32.811,32.811,0,0,0,3.071,6.971c.766,1.039,3.124,1.1,6.12,1.185.487.015.973.029,1.46.049,3.484.131,15.137,1.217,15.256,1.217l.226.022Z" transform="translate(-81.153 -776.818)"/><path class="o" d="M368.371,1435.805l.056.049a9.742,9.742,0,0,0,4,2.136,8.274,8.274,0,0,1,3.29,1.786.436.436,0,0,1-.294.757h-9.869a.436.436,0,0,1-.436-.436v-3.241a.436.436,0,0,1,.153-.331C365.748,1436.126,367.244,1435,368.371,1435.805Z" transform="translate(-276.277 -1090.478)"/><path class="o" d="M405.906,1435.805l.056.049a9.742,9.742,0,0,0,4,2.136,8.274,8.274,0,0,1,3.29,1.786.436.436,0,0,1-.294.757H403.1a.436.436,0,0,1-.438-.436v-3.241a.436.436,0,0,1,.153-.331C403.288,1436.126,404.784,1435,405.906,1435.805Z" transform="translate(-304.683 -1090.478)"/><path class="w" d="M365.291,1247.307l-.161,43.628h4.307l6.431-43.628S370.452,1237.449,365.291,1247.307Z" transform="translate(-276.285 -944.743)"/><path class="e" d="M258.481,1189.866s27.659,3.5,30.416,5.555,4.567,5.918,3.005,12.079-10.967,40.592-10.967,40.592h-4.307l2.66-41.217H242.03s-7.258-4.042-5.762-15.252C237.738,1180.607,258.111,1190.17,258.481,1189.866Z" transform="translate(-178.624 -901.9)"/><path class="p" d="M268.859,942.363s5.84-1.7,7.971,1.645a10.863,10.863,0,0,1,1.947,8.332c-.574,3.643-1.217,5.207-2.864,6.239a5.485,5.485,0,0,1-6.813-1.569,13.094,13.094,0,0,1-2.742-9.874C267.1,944.57,266.941,943.979,268.859,942.363Z" transform="translate(-201.441 -716.987)"/><path class="p" d="M271.851,995l-.411,6.312s1.808,1.993,3.7,1.494l1.891-.487V996Z" transform="translate(-205.392 -757.144)"/><path class="p" d="M384.245,1001.969s-1.046-.221-1.662,1.433-.791,2.372-.506,2.92a2.071,2.071,0,0,0,1.917.813,2.471,2.471,0,0,0,1.552-1.256c.448-.959,1.158-1.625.849-2.4A3.512,3.512,0,0,0,384.245,1001.969Z" transform="translate(-289.008 -762.41)"/><path class="l" d="M315.851,1022.369s11.845-4.4,14.225-6.889l1.961,2.156s-5.1,7.39-10.765,10.13S310.018,1026.106,315.851,1022.369Z" transform="translate(-237.125 -772.641)"/><path class="h" d="M398.931,874.19l-13.361-1,5.4-19.24,13.361,1Z" transform="translate(-291.751 -625.725)"/><path class="c" d="M404.134,874.424l-11.694-.876,4.244-15.118,11.694.876Z" transform="translate(-296.949 -629.115)"/><path class="c" d="M411.892,1028.085a.849.849,0,0,1,.832-.616.528.528,0,0,1,.462.713.854.854,0,0,1-.835.616.526.526,0,0,1-.46-.713Z" transform="translate(-311.642 -781.713)"/><path class="p" d="M428.48,1001.2a4.136,4.136,0,0,0,.715-1.686c.165-.985-.462-1.866,0-2.983s.693-2.171,1.217-2.406.878.178.586.764a1.854,1.854,0,0,0,.107,2c.482.47,1.771-.175,2.19-1.056s1.29-3.054,1.29-3.054a7.06,7.06,0,0,1,.294,3.054c-.294,1.234-.864,3.7-1.988,4.582s-1.416.467-2.122,1.287S428.48,1002.048,428.48,1001.2Z" transform="translate(-324.22 -755.457)"/><path class="j" d="M238.331,1031.542c-3.628-1.62-11.29-8.059-1.431-12.9a5.634,5.634,0,0,1,1.056.185l-.129-.061s-11.31-2.433-15.111,1.767-5.171,14.843-3.674,27.143,2.292,16.656,2.292,16.656,10.392-2.9,19.524-2.365c.214-5.085,1.307-22.291,2.72-27.323A56.411,56.411,0,0,0,238.331,1031.542Z" transform="translate(-165.295 -774.6)"/><path class="j" d="M330.934,1017.53a80.664,80.664,0,0,1-9.188,11.395,17.208,17.208,0,0,1-4.353,3.715c-.582.151-3.913-3.256-8.217-7.431-5.034-4.884-8.816-6.344-10.555-6.779,4.713,2.149,8.516,5.813,8.76,13.288.024.73.015,1.616-.019,2.6,3.453,2.433,9.105,6.969,9.164,7.015a4.784,4.784,0,0,0,1.523.35c3.326,0,16.58-22.544,16.58-22.544Z" transform="translate(-225.958 -774.192)"/><path class="j" d="M280.657,1033.359a57.466,57.466,0,0,1,5.249,3.112c.277-.988.569-1.506.866-1.37a18.3,18.3,0,0,1,2.253,1.443c.034-.973.044-1.866.019-2.6-.243-7.475-4.049-11.139-8.76-13.288a5.634,5.634,0,0,0-1.056-.185C269.366,1025.3,277.029,1031.739,280.657,1033.359Z" transform="translate(-207.62 -776.417)"/><path class="l" d="M316.3,1088.157c-1.039-.657-2.063-1.312-3.029-1.927-1.414,5.032-2.506,22.238-2.72,27.323.988.058,1.961.156,2.9.3C313.453,1113.855,315.74,1097.715,316.3,1088.157Z" transform="translate(-234.985 -826.176)"/><path class="l" d="M334.18,1088.384a61.74,61.74,0,0,0,9.246,5.161c-.058-.046-5.711-4.57-9.164-7.015C334.248,1087.114,334.219,1087.735,334.18,1088.384Z" transform="translate(-252.866 -826.403)"/><path class="l" d="M321.73,1081.9c.973.615,1.99,1.27,3.029,1.927.039-.65.068-1.27.09-1.854a18.281,18.281,0,0,0-2.253-1.443C322.3,1080.379,322.007,1080.907,321.73,1081.9Z" transform="translate(-243.445 -821.841)"/><path class="x" d="M221.411,1063.552a.177.177,0,0,1-.173-.144c-.041-.212-4.229-21.4-2.806-32.915.73-5.813,2.051-9.28,4.319-11.244,2.032-1.759,4.847-2.411,9.718-2.248,7.365.243,9.862,2.433,13.641,5.75.647.572,1.319,1.161,2.066,1.781,1.416,1.311,2.56,2.46,3.572,3.472,2.02,2.022,3.358,3.363,4.781,3.922h.02c1.613,0,8.847-8.969,13.349-15.042a.178.178,0,0,1,.243-.036.175.175,0,0,1,.036.243c-.029.039-2.874,3.871-5.949,7.631-6.278,7.674-7.385,7.582-7.747,7.543h-.049c-1.5-.579-2.866-1.947-4.932-4.012-1.007-1.01-2.151-2.153-3.555-3.455-.742-.618-1.414-1.217-2.066-1.781-3.723-3.266-6.183-5.426-13.419-5.67-4.774-.158-7.521.467-9.478,2.161-2.19,1.9-3.492,5.3-4.2,11.023-1.409,11.465,2.759,32.6,2.8,32.805a.178.178,0,0,1-.139.207Z" transform="translate(-165.059 -773.652)"/><path class="h" d="M278.851,1219.864H241.445l-.044-.027a13.517,13.517,0,0,1-5.94-10.346,20.359,20.359,0,0,1,.348-6.251l.343.085a19.973,19.973,0,0,0-.341,6.142,13.181,13.181,0,0,0,5.738,10.047h37.112l1.411-2.149.294.195Z" transform="translate(-178.093 -914.714)"/><path class="h" d="M402.4,1208.485l-.353-.022,2.669-41.353,2.818-.531.066.348-2.55.477Z" transform="translate(-304.221 -862.284)"/><path class="e" d="M66.044,1203.47q-1.117,0-2.168-.058c-4.54-.243-8.03-1.331-10.39-3.2-2.012-1.6-2.837-5.217-2.448-10.755a53.633,53.633,0,0,1,1.178-7.808.175.175,0,0,1,.212-.131.18.18,0,0,1,.131.214c-.036.144-3.45,14.553,1.146,18.205,2.3,1.823,5.723,2.876,10.19,3.124a59.916,59.916,0,0,0,15.546-1.555c11.1-2.382,14.8-4.56,15.135-4.772l1.268-1.791a.178.178,0,0,1,.29.2l-1.309,1.849-.027.017c-.141.095-3.574,2.326-15.283,4.837A65.177,65.177,0,0,1,66.044,1203.47Z" transform="translate(-38.549 -898.272)"/><path class="h" d="M271.722,940.308a3.371,3.371,0,0,0-2.959-2.518c-6.813-.832-9.387,1.825-11.071,4.866a7.843,7.843,0,0,0-.852,3.015c.786,1.825,2.292,4.623,4.263,4.991a5.222,5.222,0,0,0,4.183-1.088,5.149,5.149,0,0,1,.041-2.015c.528-2.3,1.5-3.163,4.526-4.684C271.386,942.1,271.987,941.515,271.722,940.308Z" transform="translate(-194.344 -713.737)"/><path class="y" d="M260.957,975.641c-1.971-.365-3.477-3.163-4.263-4.991-.3,3.117.7,6.657,1.823,7.73,1.516,1.46,6.215,1.083,6.871-.487.445-1.063-.044-2.08-.243-3.336A5.222,5.222,0,0,1,260.957,975.641Z" transform="translate(-194.193 -738.719)"/><path class="p" d="M391.678,1001.11c.012.333-.65.406-1.389.655-.866.292-1.54.146-1.433-.55.049-.328.608-.623,1.389-.652S391.666,1000.779,391.678,1001.11Z" transform="translate(-294.228 -761.352)"/><path class="p" d="M1802.22,1027.649l.618,6.57s2.983.7,4.236,0l1.251-.706-1.173-8.453S1803.159,1025.379,1802.22,1027.649Z" transform="translate(-1363.694 -779.89)"/><path class="o" d="M1705.671,1471.336a.347.347,0,0,0-.056.046,9.624,9.624,0,0,1-3.956,2.088,8.24,8.24,0,0,0-3.256,1.745.426.426,0,0,0,.294.73h9.758a.429.429,0,0,0,.431-.426v-3.163a.419.419,0,0,0-.151-.324C1708.265,1471.65,1706.785,1470.562,1705.671,1471.336Z" transform="translate(-1285.042 -1117.37)"/><path class="o" d="M1615.241,1471.2a.341.341,0,0,0-.056.046,9.624,9.624,0,0,1-3.947,2.107,8.211,8.211,0,0,0-3.246,1.757.426.426,0,0,0,.295.73l9.757-.044a.428.428,0,0,0,.431-.428l-.015-3.163a.421.421,0,0,0-.151-.321C1617.837,1471.506,1616.353,1470.413,1615.241,1471.2Z" transform="translate(-1216.631 -1117.263)"/><path class="w" d="M1691.049,1299.938c-2.47-10.655-11.118-41.329-10.663-45.487.55-4.988-.509-10.911,7.957-11.108s27.895.973,31.464,2.944-.91,12.553-3.214,13.205c-.124.781-25.374-3.993-25.374-3.993s3.847,43.039,4.117,44.546Z" transform="translate(-1271.493 -945.043)"/><path class="n" d="M1634.32,1275.772s-1.913-49.58,1.46-52.558c2.331-3.124,8.682-4.38,15.22-4.974s34.134-4.708,34.667-6.19a106.285,106.285,0,0,1,2.433,11.726c.4,4,2.027,9.587-4.219,11.48s-21.77.545-26.792.18c-2.01-.144-11.6-1.022-11.6-1.022s-4.772,23.444-5.57,28.416c-.55,4.353-1.479,10.706-1.864,13.517Z" transform="translate(-1236.24 -921.381)"/><path class="h" d="M1680.341,1213.919c1.017-.2,2.861-.285,3.876-.487,10.765-2.19,13.247-2.859,13.444-3.3l.192-.533.144.55a109.158,109.158,0,0,1,2.448,11.75c.049.472.114.961.183,1.479.487,3.776,1.122,8.477-4.526,10.188-.3.092-.63.177-.973.255-6.275,1.406-19.018.448-24.629.027-.467-.036-.888-.068-1.253-.092-1.847-.134-10.19-.9-11.436-1.01-.416,2.044-4.781,23.554-5.538,28.252-.321,2.55-.71,4.828-1.054,6.837-.243,1.392-.825,5.492-.973,6.653h-.4c.158-1.166.8-5.319,1.041-6.713.341-2.005.73-4.278,1.051-6.825.791-4.925,5.526-28.194,5.572-28.43l.032-.153.158.015c.095,0,9.611.878,11.6,1.022l1.253.092c5.9.445,19.709,1.482,25.476-.265,5.353-1.625,4.786-5.971,4.278-9.806-.068-.521-.134-1.012-.182-1.489a103.554,103.554,0,0,0-2.36-11.4,18.664,18.664,0,0,1-4.587,1.523c-2.6.674-5.1,1.046-9.283,1.9-1.044.214-2.484.158-3.533.363Z" transform="translate(-1248.392 -919.527)"/><path class="h" d="M1628.172,925.98l6.046-1-2.124-9.765-6.044,1Z" transform="translate(-1230.391 -672.086)"/><path class="c" d="M1629.787,926.163l5.292-.871-1.669-7.672-5.29.871Z" transform="translate(-1231.958 -673.903)"/><path class="c" d="M1645.9,1054.557a.346.346,0,0,0-.367-.29.307.307,0,0,0-.219.387.343.343,0,0,0,.365.287.3.3,0,0,0,.221-.384Z" transform="translate(-1244.954 -801.989)"/><path class="c" d="M1749.723,1064.407a8.412,8.412,0,0,1,6.774-6.6c5.144-.907,14.977-2.19,17.712.625,3.757,3.874,7.4,4.579,5.049,21.369s-2.231,19.018-2.231,19.018-19.758-.511-21.286-.511c0,0-7.008-26.491-6.3-32.119C1749.518,1065.526,1749.616,1064.938,1749.723,1064.407Z" transform="translate(-1323.716 -803.842)"/><path class="p" d="M1787.7,984.338c-.545,4.652-4.324,8.03-7.886,7.614s-5.409-4.494-5.465-9.178c-.058-4.832,3.492-7.991,7.438-7.665S1788.765,979.43,1787.7,984.338Z" transform="translate(-1342.604 -742.075)"/><path class="p" d="M1634.529,1046.4a4.468,4.468,0,0,1-.686-1.747c-.161-1.022.443-1.934,0-3.09s-.669-2.248-1.175-2.492-.847.182-.565.791a2.041,2.041,0,0,1-.1,2.066c-.462.487-1.7-.182-2.1-1.093s-1.243-3.163-1.243-3.163a7.913,7.913,0,0,0-.282,3.163c.28,1.277.832,3.835,1.913,4.745s1.36.487,2.039,1.336S1634.529,1047.281,1634.529,1046.4Z" transform="translate(-1232.093 -789.432)"/><path class="c" d="M1670.655,1062.157s-17.843,13.964-18.867,13.787-9.062-13.315-9.062-13.315l-3.6,2.044s7.645,19.15,9.358,20.391,22.992-8.2,23.717-8.49,6.735-2.5,6.358-8.409S1674.682,1060.279,1670.655,1062.157Z" transform="translate(-1240.288 -807.442)"/><path class="h" d="M1781.987,1002c5.84-.35,6.779-3.986,7.249-7.042s-3.874-8.258-3.874-13.113,1.1-7.5.706-11.662a20.8,20.8,0,0,0-.937-4.9,7.731,7.731,0,0,0-.73-.766,10.5,10.5,0,0,0-9.976-2.475,7.385,7.385,0,0,0-2.146.912c-1.46.9-3.786,2.706-3.7,4.969.131,3.27,2.883,2.849,5.871,3.667,4.767,4.227,2.677,11.062,1.156,13.87-1.241,2.29-5.034,7.11-4.927,11.84C1772.439,998.749,1777.318,1002.285,1781.987,1002Z" transform="translate(-1338.24 -731.938)"/><path class="y" d="M1793.663,1020.709c5.84-2.044,8.185-6.21,8.185-11.388s-7.083-12.935-7.6-18.522c-.487-5.193.311-10.8-2.609-14.32a20.931,20.931,0,0,1,.937,4.9c.394,4.158-.706,6.813-.706,11.663s4.343,10.059,3.874,13.113-1.409,6.691-7.249,7.042c-4.67.282-9.548-3.265-11.315-4.7a7.631,7.631,0,0,0,.759,3.19C1780.669,1017.276,1787.816,1022.753,1793.663,1020.709Z" transform="translate(-1344.747 -743.131)"/><path class="h" d="M1673.984,1295.831l-2.806-1.509a.176.176,0,0,1,.165-.311l2.129,1.146-.487-2.158a.18.18,0,0,1,.134-.212.175.175,0,0,1,.209.134Z" transform="translate(-1264.468 -982.469)"/><path class="h" d="M1648.5,1094.733a1.057,1.057,0,0,1-.652-.156c-.265-.1-1.022-.686-5.239-10.463-2.154-4.986-4.176-9.976-4.2-10.03a.183.183,0,0,1,.341-.131c.019.049,2.039,5.039,4.19,10.02,3.893,9.035,4.842,10.19,5.063,10.271h.032l.024.022c.287.243,1.652.17,6.521-1.611,3.526-1.29,7.865-3.088,12.064-4.828l3.039-1.258a.179.179,0,1,1,.148.326c-.973.4-2,.827-3.042,1.258-4.2,1.74-8.546,3.538-12.076,4.833C1650.994,1094.358,1649.311,1094.733,1648.5,1094.733Z" transform="translate(-1239.734 -816.799)"/><rect class="h" width="18.062" height="8.429" rx="4.214" transform="translate(470.404 203.163) rotate(-89.72)"/><path class="h" d="M1958.585,907.2h0a2.117,2.117,0,0,1-2.1-2.124l.243-51.419c-.324-3.326-1.46-4.253-1.825-4.47l-8.351-.039a2.114,2.114,0,0,1,0-4.227h0l8.876.044.168.027c.472.078,4.652.973,5.326,8.378v.2l-.243,51.527A2.112,2.112,0,0,1,1958.585,907.2Z" transform="translate(-1471.358 -643.583)"/><path class="h" d="M1937.084,1445.085l-2.394-3.818,3.029-9.748,3.214,9.777-2.433,3.8a.84.84,0,0,1-1.416-.007Z" transform="translate(-1463.931 -1087.448)"/><path class="n" d="M1929.638,953.756l-13.237-.063a1.414,1.414,0,0,1-1.4-1.416l.642-131.685a4.711,4.711,0,0,1,4.72-4.672l6.662.032a4.711,4.711,0,0,1,4.674,4.721l-.64,131.683a1.409,1.409,0,0,1-1.421,1.4Z" transform="translate(-1449.032 -621.639)"/><path class="m" d="M1926.03,1298.346l-6.246-.029-4.793-23.087,16.057.078Z" transform="translate(-1449.025 -944.497)"/><path class="z" d="M1913.729,1252.938h0a.414.414,0,0,1-.409-.414l.178-36.345a.411.411,0,0,1,.411-.409h0a.411.411,0,0,1,.409.414l-.178,36.345A.411.411,0,0,1,1913.729,1252.938Z" transform="translate(-1447.761 -924.195)"/><path class="z" d="M1914.859,1116.772h0a.411.411,0,0,1-.409-.414l.044-8.76a.409.409,0,0,1,.409-.409h0a.406.406,0,0,1,.409.411l-.041,8.76A.411.411,0,0,1,1914.859,1116.772Z" transform="translate(-1448.616 -842.035)"/><path class="u" d="M1959.076,1399.183a.349.349,0,0,1-.087,0,.411.411,0,0,1-.316-.487l5.02-23.038a.411.411,0,1,1,.8.175l-5.02,23.026A.409.409,0,0,1,1959.076,1399.183Z" transform="translate(-1482.071 -1044.923)"/><path class="z" d="M1973.308,954.585h0a.411.411,0,0,1-.409-.414l.633-130.546a5.612,5.612,0,0,0-2.523-4.662.411.411,0,1,1,.423-.706,6.448,6.448,0,0,1,2.92,5.37l-.633,130.542a.411.411,0,0,1-.411.416Z" transform="translate(-1491.261 -623.363)"/><path class="o" d="M2112.026,1467.922a.369.369,0,0,0-.058.051,9.486,9.486,0,0,1-3.956,2.222,8.077,8.077,0,0,0-3.253,1.857.457.457,0,0,0,.292.788h9.758a.446.446,0,0,0,.433-.455v-3.36a.47.47,0,0,0-.151-.345C2114.62,1468.258,2113.14,1467.09,2112.026,1467.922Z" transform="translate(-1592.51 -1114.771)"/><path class="o" d="M2178.366,1467.922a.349.349,0,0,0-.056.051,9.5,9.5,0,0,1-3.956,2.222,8.069,8.069,0,0,0-3.256,1.857.457.457,0,0,0,.294.788h9.757a.443.443,0,0,0,.431-.455v-3.36a.46.46,0,0,0-.151-.345C2180.96,1468.258,2179.483,1467.09,2178.366,1467.922Z" transform="translate(-1642.708 -1114.771)"/><path class="h" d="M2169.34,1083.3s3.219,3.163,3.925,10.271-1.562,79.546-1.562,79.546h-4.519s-9.392-76.241-9.392-82.346-.345-12.512,4.229-13.626S2167.763,1077.925,2169.34,1083.3Z" transform="translate(-1632.742 -819.07)"/><path class="h" d="M2092.437,1082.1s1.542,5.458-2.65,13.351-19.206,35.421-19.206,35.421l9.334,41.044h-4.363l-17.052-40.762a12.551,12.551,0,0,1,.367-8.73c1.925-4.939,15.955-39.287,15.955-39.287S2082.227,1066.113,2092.437,1082.1Z" transform="translate(-1557.165 -817.872)"/><path class="e" d="M2118.8,1245.5a.18.18,0,0,1-.173-.136l-9.346-41.107.032-.058c.134-.243,13.429-24.727,15-27.527a37.849,37.849,0,0,0,1.99-4.285.178.178,0,0,1,.224-.112.18.18,0,0,1,.112.224,39.154,39.154,0,0,1-2.015,4.338c-1.538,2.737-14.242,26.126-14.972,27.471l9.319,40.978a.178.178,0,0,1-.134.209A.11.11,0,0,1,2118.8,1245.5Z" transform="translate(-1596.039 -891.275)"/><path class="e" d="M2101.215,1303.473h-2.65a.178.178,0,0,1-.175-.177.175.175,0,0,1,.175-.175h2.65a.176.176,0,1,1,0,.353Z" transform="translate(-1587.799 -990.291)"/><path class="e" d="M2098.607,1307.331a.176.176,0,0,1-.173-.148.18.18,0,0,1,.146-.2l2.65-.416a.18.18,0,0,1,.2.146.178.178,0,0,1-.148.2l-2.648.416Z" transform="translate(-1587.831 -992.896)"/><path class="e" d="M2060,1146.845a.193.193,0,0,1-.066,0,.178.178,0,0,1-.1-.229l16.276-40.419a.176.176,0,1,1,.326.131l-16.273,40.419A.18.18,0,0,1,2060,1146.845Z" transform="translate(-1558.615 -841.201)"/><path class="e" d="M2207.358,1192.739h-.012a.175.175,0,0,1-.163-.187c.436-6.139,1.793-75.256,1.562-79.524.022-4.29-3.11-9.606-3.65-10.105a.165.165,0,0,1-.083-.015.175.175,0,0,1-.093-.243.2.2,0,0,1,.243-.119c.37.078,1.46,1.964,2.19,3.609a17.732,17.732,0,0,1,1.754,6.852c.243,4.565-1.095,72.978-1.562,79.567a.173.173,0,0,1-.187.165Z" transform="translate(-1668.393 -838.515)"/><path class="p" d="M2144.824,815.818c-.73,5.11-2.9,8.533-6.256,9.368-3.65.905-6.516-3.01-6.259-9.368.212-5.171,2.811-9.11,6.259-9.368C2142.6,806.146,2145.632,810.222,2144.824,815.818Z" transform="translate(-1613.453 -614.461)"/><path class="p" d="M2155.24,859.1l.572,9.28s2.034,1.217,3.548.467l1.516-.749V857.6Z" transform="translate(-1630.816 -653.177)"/><path class="h" d="M2139.277,811.5s1.557-.591,1.638-1.771-.041-2.409-1.119-2.545-1.039,1.314-1.638.93.08-1.019-.959-2.791-1.438-1.363-3.475-2.589a4.956,4.956,0,0,1-2.516-4.725c.122-1.589,1.166-3.589,4.867-3.27s8.682,3.589,9.361,7.451.4,10.446-1.8,12.166-3.874,1.217-4.514,0S2138.6,811.863,2139.277,811.5Z" transform="translate(-1612.62 -605.583)"/><path class="h" d="M2139.386,844.5a9.806,9.806,0,0,1-.635,4.107c-.813,1.842-4.541,1.913-5.057,1.253s-.671.5.45,2.044,2.633,3.163,3.947,2.832,1.742-4.455,1.589-5.954a4.325,4.325,0,0,1,.618-3.219C2140.822,844.97,2139.386,844.5,2139.386,844.5Z" transform="translate(-1614.214 -643.265)"/><path class="p" d="M2219.025,1061.465a8.468,8.468,0,0,1-2.243,1.947c-1.409.837-2.19.837-2.076-.2s1.176-7.215,1.176-7.215.664,2.83,1.72,2.791,1.292-1,2.075-.8S2221.7,1059.99,2219.025,1061.465Z" transform="translate(-1675.804 -803.301)"/><path class="p" d="M1948.063,950.789a6.681,6.681,0,0,1-2.19-1.107c-.511-.581-.418-1.134-1.037-1.73s-1.372-.859-1.878-1.377-.8-.312-.645.2,1.166,1.068,1.2,1.372-2.168-.62-3.127-.929-1.594-.226-1.173.143a20.769,20.769,0,0,0,2.455,1.292c.414.226.443.625.212.5a22.634,22.634,0,0,0-2.472-.771c-1.054-.282-1.72-.509-1.76-.265s.161.611,1.049.893a20.35,20.35,0,0,1,2.774,1.09c.168.151,0,.287-.255.182s-2.866-1.217-3.136-1.217-.577.163-.095.513,3.1,1.27,3.263,1.5-.659.163-1.282-.017-1.256-.112-1.285.049.1.377,1.1.56c1.46.26,2.842,1.127,3.893.973,1.175-.182,1.4-.326,2.253-.027s1.146,1.127,1.7.5S1948.7,951.748,1948.063,950.789Z" transform="translate(-1466.164 -720.274)"/><path class="aa" d="M2193.855,904.909c1.448-1.246,23.751,21.072,23.474,25.858-.26,4.443-18.276,16.332-18.87,16.407l-1.643-3.365s11.291-12.692,11.437-13.87-10.568-7.115-14.4-9.468-9.874-11.4-5.915-13.826S2193.855,904.909,2193.855,904.909Z" transform="translate(-1654.581 -688.906)"/><path class="aa" d="M2139.579,896.525c-4.745-1.141-12.3-.243-16.176.873a7.641,7.641,0,0,0-.844.3c3.316-1.175,7.845,1.852,8.933,3.321s-1.438,7.207-3.456,8.76a52.638,52.638,0,0,1-5.715,4c.751,7.317,4.53,33.73,4.53,33.73H2143.6c.243-1.623,7.159-32.486,7.159-40.358S2145.358,897.525,2139.579,896.525Z" transform="translate(-1605.906 -682.23)"/><path class="aa" d="M2002.229,920.21a16.284,16.284,0,0,1-.012-3.163c.4-3.2.117-5.353.589-7.122a11.153,11.153,0,0,1,5.964-6.945l-.2.073c-3.331,1.375-4.319,2.625-7.232,6.373s-8.314,7.246-14.843,8.5-14.558-1.375-14.558-1.375v3.511s5.229,3.7,15.206,4.769c.024,0,10.022-.674,14.273-4.025C2001.689,920.6,2001.961,920.4,2002.229,920.21Z" transform="translate(-1492.117 -687.515)"/><path class="aa" d="M2096.738,909.089c-.472,1.771-.187,3.922-.589,7.122a16.3,16.3,0,0,0,.012,3.163c3.707-2.677,5.947-4.054,6.105-2.981.022.144.093.8.2,1.827a52.691,52.691,0,0,0,5.716-4c2.017-1.54,4.567-7.246,3.455-8.76s-5.616-4.5-8.933-3.321A11.167,11.167,0,0,0,2096.738,909.089Z" transform="translate(-1586.049 -686.675)"/><path class="ab" d="M2097.34,972.262c1.433,10.869,7.322,30.518,7.322,30.518h3.287s-3.779-26.413-4.531-33.73A51.6,51.6,0,0,1,2097.34,972.262Z" transform="translate(-1587.004 -737.509)"/><path class="ab" d="M2049.7,975.849q-.146-1.095-.224-2.058c-.268.192-.54.392-.822.6-4.251,3.351-14.249,4.025-14.273,4.025q1.289.139,2.677.217A28.363,28.363,0,0,0,2049.7,975.849Z" transform="translate(-1539.364 -741.095)"/><path class="ab" d="M2096.42,963.381c.051.642.126,1.331.224,2.059a51.565,51.565,0,0,0,6.083-3.212c-.1-1.032-.175-1.684-.2-1.827C2102.367,959.327,2100.126,960.7,2096.42,963.381Z" transform="translate(-1586.308 -730.686)"/><path class="m" d="M741.961,1484.3l.562,4.808a1.59,1.59,0,0,0,1.73,1.487l12.709-1.862a1.7,1.7,0,0,0,1.329-1.934l-.562-4.808A1.588,1.588,0,0,0,756,1480.5l-12.709,1.859A1.707,1.707,0,0,0,741.961,1484.3Z" transform="translate(-561.414 -1124.502)"/><path class="m" d="M573.419,1464.536a2.112,2.112,0,0,1-2.095-1.866l-.959-8.19c-.2-.312-1.041-1.217-3.808-1.136l-44.867,6.57a2.114,2.114,0,1,1-.611-4.183l44.984-6.584a1.7,1.7,0,0,1,.224-.022c5.509-.214,7.735,2.577,8.183,4.256a2.461,2.461,0,0,1,.056.3l1,8.516a2.117,2.117,0,0,1-2.1,2.358ZM570.421,1454.582Z" transform="translate(-392.872 -1100.759)"/><path class="e" d="M187.976,1576.826l3.6,1.869,8.183-4.158-8.9-1.947-3.046,2.842a.876.876,0,0,0,.161,1.394Z" transform="translate(-141.907 -1194.192)"/><path class="ac" d="M277.7,1490.641l1.436,12.254a1.591,1.591,0,0,0,1.73,1.487l113.667-16.643c2.8-.409,4.8-3.309,4.431-6.443l-.511-4.275a5.307,5.307,0,0,0-5.764-4.954l-113.66,16.641A1.707,1.707,0,0,0,277.7,1490.641Z" transform="translate(-210.119 -1118.093)"/><path class="m" d="M201.19,1447.1l.713,6.1,20.695,1.84-1.835-15.673Z" transform="translate(-152.235 -1068.69)"/><path class="ad" d="M296.514,1588.658a.411.411,0,0,1-.406-.35.416.416,0,0,1,.348-.467L328.2,1583.2a.411.411,0,1,1,.119.813l-31.751,4.645A.276.276,0,0,1,296.514,1588.658Z" transform="translate(-224.055 -1202.211)"/><path class="ad" d="M490.3,1571.263a.411.411,0,0,1-.058-.818l7.645-1.119a.412.412,0,0,1,.119.815l-7.645,1.119Z" transform="translate(-370.686 -1191.719)"/><path class="u" d="M199.915,1547.7a.411.411,0,0,1-.151-.793l19.573-7.738a.412.412,0,1,1,.3.766l-19.573,7.735A.409.409,0,0,1,199.915,1547.7Z" transform="translate(-150.961 -1168.883)"/><path class="ad" d="M280.355,1487.822a.411.411,0,0,1-.058-.817l113.971-16.687a5.517,5.517,0,0,1,5.078,2.212.415.415,0,1,1-.672.487,4.7,4.7,0,0,0-4.287-1.874l-113.974,16.687Z" transform="translate(-211.83 -1116.762)"/><rect class="b" width="27.885" height="18.821" rx="9.411" transform="translate(3.791 269.198)"/><path class="ae" d="M44.39,1274.35l6.57-3.63,24.14,43.743a.907.907,0,0,1-.294,1.26h0a1.027,1.027,0,0,1-1.307-.367Z" transform="translate(-33.589 -965.775)"/><path class="b" d="M75.217,1274.35l-6.57-3.63L44.5,1314.463a.907.907,0,0,0,.294,1.26h0a1.032,1.032,0,0,0,1.309-.367Z" transform="translate(-33.567 -965.775)"/><path class="b" d="M34.43,1110.83H32.267l-3.847-19.05H30.7Z" transform="translate(-21.505 -805.685)"/><path class="b" d="M107.78,1110.83h-2.163l-3.847-19.05h2.285Z" transform="translate(-77.007 -805.685)"/><path class="b" d="M69.184,1274.406H37.642a1.849,1.849,0,0,1-1.842-1.842h0a1.849,1.849,0,0,1,1.842-1.844H69.184a1.849,1.849,0,0,1,1.844,1.844h0A1.849,1.849,0,0,1,69.184,1274.406Z" transform="translate(-27.089 -965.775)"/><path class="h" d="M58.216,1285.249H49.084a.294.294,0,1,1,0-.589h9.132a.294.294,0,1,1,0,.589Z" transform="translate(-36.918 -976.323)"/><path class="h" d="M96.258,1285.249h-2.4a.294.294,0,1,1,0-.589h2.4a.294.294,0,1,1,0,.589Z" transform="translate(-70.794 -976.323)"/><path class="h" d="M134.507,1279.5H121.854a.294.294,0,1,1,0-.589h12.582a2.052,2.052,0,0,0,1.134-.745.9.9,0,0,0,.066-.73.29.29,0,0,1,.2-.362.294.294,0,0,1,.365.2,1.46,1.46,0,0,1-.124,1.182,2.667,2.667,0,0,1-1.533,1.027Z" transform="translate(-91.981 -970.573)"/><path class="h" d="M106.663,1306.8a.292.292,0,0,1-.243-.462l15.471-21.792a.3.3,0,1,1,.487.338L106.9,1306.675A.289.289,0,0,1,106.663,1306.8Z" transform="translate(-80.483 -976.139)"/><path class="h" d="M96.073,1381.332a.292.292,0,0,1-.243-.462l1.857-2.613a.3.3,0,0,1,.487.341l-1.857,2.611a.287.287,0,0,1-.243.124Z" transform="translate(-72.47 -1047.049)"/><path class="h" d="M46.612,1359.176a.283.283,0,0,1-.141-.039.292.292,0,0,1-.114-.4l15.259-27.654a.295.295,0,1,1,.516.285L46.87,1359.03a.3.3,0,0,1-.258.146Z" transform="translate(-35.049 -1011.337)"/><path class="h" d="M112.645,1318.688a.28.28,0,0,1-.144-.036.292.292,0,0,1-.114-.4l1.217-2.207a.293.293,0,0,1,.513.282l-1.217,2.207A.29.29,0,0,1,112.645,1318.688Z" transform="translate(-85.013 -999.958)"/><path class="h" d="M29.765,1196.892H22.222a3.978,3.978,0,0,1-3.012-1.265.294.294,0,1,1,.455-.372,3.39,3.39,0,0,0,2.545,1.063h7.555a.294.294,0,1,1,0,.586Z" transform="translate(-14.477 -908.58)"/><path class="h" d="M14.661,1175.453a.294.294,0,0,1-.294-.292v-2.83a.294.294,0,1,1,.586,0v2.84A.292.292,0,0,1,14.661,1175.453Z" transform="translate(-10.87 -891.083)"/><rect class="b" width="26.834" height="18.386" rx="9.193" transform="translate(460.026 297.981) rotate(180)"/><path class="ae" d="M1770.512,1313.605l-6.326-3.545-23.23,42.73a.893.893,0,0,0,.282,1.231h0a.973.973,0,0,0,1.258-.36Z" transform="translate(-1317.234 -995.542)"/><path class="b" d="M1740.85,1313.605l6.326-3.545,23.233,42.73a.9.9,0,0,1-.282,1.231h0a.985.985,0,0,1-1.26-.36Z" transform="translate(-1317.257 -995.542)"/><path class="b" d="M1854.45,1151.53h2.083l3.7-18.609h-2.2Z" transform="translate(-1403.216 -836.815)"/><path class="b" d="M1783.86,1151.53h2.083l3.7-18.609h-2.2Z" transform="translate(-1349.802 -836.815)"/><rect class="b" width="33.895" height="3.601" rx="1.801" transform="translate(455.291 318.119) rotate(180)"/><path class="h" d="M1829.13,1324.243h-8.789a.294.294,0,1,1,0-.587h8.789a.294.294,0,1,1,0,.587Z" transform="translate(-1377.164 -1005.829)"/><path class="h" d="M1806.173,1324.243h-2.311a.294.294,0,1,1,0-.587h2.311a.294.294,0,1,1,0,.587Z" transform="translate(-1364.694 -1005.829)"/><path class="h" d="M1744.254,1318.6h-12.215a2.527,2.527,0,0,1-1.477-1,1.461,1.461,0,0,1-.124-1.166.294.294,0,1,1,.564.161.871.871,0,0,0,.068.708,2.042,2.042,0,0,0,1.078.73h12.105a.294.294,0,0,1,0,.587Z" transform="translate(-1309.327 -1000.184)"/><path class="h" d="M1754.787,1345.291a.3.3,0,0,1-.243-.124l-14.887-21.289a.3.3,0,0,1,.487-.336l14.889,21.286a.292.292,0,0,1-.073.409A.288.288,0,0,1,1754.787,1345.291Z" transform="translate(-1316.315 -1005.648)"/><path class="h" d="M1805.734,1418.1a.289.289,0,0,1-.243-.126l-1.786-2.55a.3.3,0,1,1,.487-.338l1.784,2.552a.292.292,0,0,1-.243.462Z" transform="translate(-1364.778 -1074.915)"/><path class="h" d="M1813.285,1396.558a.3.3,0,0,1-.258-.153l-14.685-27.009a.294.294,0,0,1,.516-.28l14.685,27.009a.294.294,0,0,1-.258.433Z" transform="translate(-1360.741 -1040.127)"/><path class="h" d="M1791.763,1356.964a.29.29,0,0,1-.258-.153l-1.173-2.156a.294.294,0,0,1,.516-.28l1.173,2.156a.294.294,0,0,1-.117.4A.3.3,0,0,1,1791.763,1356.964Z" transform="translate(-1354.68 -1028.974)"/><path class="h" d="M1851.46,1237.975h-7.275a.294.294,0,1,1,0-.589h7.275a3.267,3.267,0,0,0,2.45-1.02.293.293,0,1,1,.457.368A3.818,3.818,0,0,1,1851.46,1237.975Z" transform="translate(-1395.225 -939.697)"/><path class="h" d="M1889.661,1216.987a.3.3,0,0,1-.294-.292v-2.764a.294.294,0,1,1,.586,0v2.764A.292.292,0,0,1,1889.661,1216.987Z" transform="translate(-1429.635 -922.561)"/><rect class="b" width="27.885" height="18.821" rx="9.411" transform="translate(50.836 269.198)"/><path class="ae" d="M237.73,1274.35l6.57-3.63,24.155,43.743a.905.905,0,0,1-.292,1.26h0a1.032,1.032,0,0,1-1.309-.367Z" transform="translate(-179.884 -965.775)"/><path class="b" d="M227.77,1110.83h-2.163l-3.847-19.05h2.285Z" transform="translate(-167.8 -805.685)"/><path class="b" d="M301.128,1110.83h-2.163l-3.845-19.05H297.4Z" transform="translate(-223.31 -805.685)"/><path class="b" d="M262.522,1274.406H230.984a1.849,1.849,0,0,1-1.844-1.842h0a1.849,1.849,0,0,1,1.844-1.844h31.537a1.849,1.849,0,0,1,1.842,1.844h0a1.849,1.849,0,0,1-1.842,1.842Z" transform="translate(-173.384 -965.775)"/><path class="h" d="M251.549,1285.249h-9.134a.294.294,0,1,1,0-.589h9.134a.294.294,0,1,1,0,.589Z" transform="translate(-183.206 -976.323)"/><path class="h" d="M289.608,1285.249h-2.4a.294.294,0,1,1,0-.589h2.4a.294.294,0,1,1,0,.589Z" transform="translate(-217.098 -976.323)"/><path class="h" d="M327.857,1279.5H315.2a.294.294,0,1,1,0-.589h12.58a2.036,2.036,0,0,0,1.134-.745.879.879,0,0,0,.066-.73.294.294,0,0,1,.2-.363.29.29,0,0,1,.363.2,1.46,1.46,0,0,1-.124,1.183,2.656,2.656,0,0,1-1.531,1.027Z" transform="translate(-238.285 -970.571)"/><path class="h" d="M300.023,1306.8a.287.287,0,0,1-.168-.053.3.3,0,0,1-.071-.409l15.471-21.792a.3.3,0,0,1,.487.338l-15.471,21.792A.3.3,0,0,1,300.023,1306.8Z" transform="translate(-226.799 -976.139)"/><path class="h" d="M289.447,1381.332a.3.3,0,0,1-.17-.054.292.292,0,0,1-.068-.409l1.854-2.613a.3.3,0,0,1,.487.341l-1.854,2.611A.292.292,0,0,1,289.447,1381.332Z" transform="translate(-218.795 -1047.049)"/><path class="h" d="M239.954,1359.239a.268.268,0,0,1-.141-.039.29.29,0,0,1-.117-.4l15.261-27.654a.294.294,0,0,1,.513.285l-15.261,27.659A.292.292,0,0,1,239.954,1359.239Z" transform="translate(-181.344 -1011.4)"/><path class="h" d="M305.984,1318.688a.265.265,0,0,1-.141-.036.289.289,0,0,1-.117-.4l1.217-2.207a.293.293,0,1,1,.513.282l-1.217,2.207a.294.294,0,0,1-.255.151Z" transform="translate(-231.307 -999.958)"/><path class="h" d="M223.135,1196.971h-7.558a3.983,3.983,0,0,1-3.012-1.265.294.294,0,0,1,.455-.372,3.407,3.407,0,0,0,2.557,1.051h7.558a.294.294,0,0,1,0,.586Z" transform="translate(-160.8 -908.659)"/><path class="h" d="M208,1175.536a.294.294,0,0,1-.294-.292v-2.83a.294.294,0,1,1,.589,0v2.84A.294.294,0,0,1,208,1175.536Z" transform="translate(-157.169 -891.167)"/></g></g></svg>