<svg xmlns="http://www.w3.org/2000/svg" width="67.734" height="66.11" viewBox="0 0 67.734 66.11"><defs><style>.a{fill:#e8ebec;}.b{fill:#00ebc7;}.c{fill:#273d83;}</style></defs><g transform="translate(0)"><path class="a" d="M63.746,65.209a.781.781,0,0,1-.489-.177L53.066,56.871h-37.2A2.863,2.863,0,0,1,13,54.009V24.863A2.863,2.863,0,0,1,15.863,22h45.8a2.863,2.863,0,0,1,2.863,2.863V64.418a.77.77,0,0,1-.437.7.833.833,0,0,1-.344.094ZM15.863,23.572a1.3,1.3,0,0,0-1.3,1.3V54.019a1.3,1.3,0,0,0,1.3,1.291H53.336a.76.76,0,0,1,.489.177l9.139,7.287v-37.9a1.3,1.3,0,0,0-1.3-1.3Z" transform="translate(0.532 0.901)"/><path class="a" d="M.781,57.281a.812.812,0,0,1-.344-.073A.791.791,0,0,1,0,56.5V14.863A2.863,2.863,0,0,1,2.863,12h45.8a2.863,2.863,0,0,1,2.863,2.863V46.091a2.863,2.863,0,0,1-2.863,2.863H11.45L1.27,57.114a.77.77,0,0,1-.489.167ZM2.863,13.561a1.3,1.3,0,0,0-1.3,1.312v40L10.7,47.59a.76.76,0,0,1,.489-.177H48.664a1.3,1.3,0,0,0,1.3-1.322V14.863a1.3,1.3,0,0,0-1.3-1.3Z" transform="translate(0 0.491)"/><path class="b" d="M32.71,36.7H17.95a.656.656,0,0,1-.656-.656V34.473a7.287,7.287,0,0,0-2.176-5.2,14.75,14.75,0,1,1,20.517-.094,7.224,7.224,0,0,0-2.269,5.2v1.728A.656.656,0,0,1,32.71,36.7Z" transform="translate(0.433 0.159)"/><path class="a" d="M30.272,39.515H19.863A2.863,2.863,0,0,1,17,36.653V34.571a.791.791,0,0,1,.781-.781H32.354a.791.791,0,0,1,.781.781v2.082A2.863,2.863,0,0,1,30.272,39.515ZM18.561,35.351v1.3a1.3,1.3,0,0,0,1.3,1.3H30.272a1.3,1.3,0,0,0,1.3-1.3v-1.3Z" transform="translate(0.696 1.383)"/><path class="a" d="M30.272,43.515H19.863a2.863,2.863,0,1,1,0-5.725H30.272a2.863,2.863,0,1,1,0,5.725ZM19.863,39.351a1.3,1.3,0,1,0,0,2.6H30.272a1.3,1.3,0,1,0,0-2.6Z" transform="translate(0.696 1.547)"/><path class="a" d="M28.091,36.094h-6.11a.7.7,0,0,1-.677-.51L16.9,19.595a.718.718,0,0,1,.271-.76.708.708,0,0,1,.8,0l3.654,2.436,3.008-2.4a.718.718,0,0,1,.874,0l3.008,2.4,3.654-2.436a.687.687,0,0,1,.8,0,.677.677,0,0,1,.26.749l-4.466,16a.708.708,0,0,1-.677.51Zm-5.579-1.405H27.55l3.82-13.595L28.861,22.77a.708.708,0,0,1-.822,0L25.072,20.4l-2.967,2.29a.718.718,0,0,1-.833,0l-2.519-1.593Z" transform="translate(0.691 0.766)"/><path class="a" d="M34.506,15.793a.708.708,0,0,1-.687-.562A9.483,9.483,0,0,0,32.9,12.66a.7.7,0,1,1,1.239-.645,10.941,10.941,0,0,1,1.041,2.946.687.687,0,0,1-.541.822Z" transform="translate(1.344 0.476)"/><path class="a" d="M32.031,10.525a.7.7,0,0,1-.479-.187,9.618,9.618,0,0,0-12.627-.364.7.7,0,0,1-.989-.094.718.718,0,0,1,.094-1.041A11.024,11.024,0,0,1,25.036,6.33,10.9,10.9,0,0,1,32.5,9.255a.7.7,0,0,1,0,1.041A.708.708,0,0,1,32.031,10.525Z" transform="translate(0.727 0.259)"/><path class="c" d="M8.788,58.571H7.341a.781.781,0,1,1,0-1.561H8.788a.781.781,0,1,1,0,1.561Z" transform="translate(0.269 2.334)"/><path class="c" d="M11.18,57.791a.77.77,0,0,1,.781-.781H13.4a.781.781,0,1,1,0,1.561H11.961a.781.781,0,0,1-.781-.781" transform="translate(0.458 2.334)"/><path class="c" d="M10.341,61.628a.791.791,0,0,1-.781-.781V59.4a.781.781,0,0,1,1.561,0v1.447a.791.791,0,0,1-.781.781Z" transform="translate(0.391 2.4)"/><path class="c" d="M10.341,57.008a.791.791,0,0,1-.781-.781V54.791a.781.781,0,0,1,1.561,0v1.437A.791.791,0,0,1,10.341,57.008Z" transform="translate(0.391 2.211)"/><path class="c" d="M52.788,40.561H51.341a.781.781,0,0,1,0-1.561h1.447a.781.781,0,0,1,0,1.561Z" transform="translate(2.07 1.597)"/><path class="c" d="M57.4,40.561H55.961a.781.781,0,0,1,0-1.561H57.4a.781.781,0,1,1,0,1.561Z" transform="translate(2.259 1.597)"/><path class="c" d="M54.341,43.618a.781.781,0,0,1-.781-.781V41.4a.781.781,0,0,1,1.561,0v1.436a.77.77,0,0,1-.781.781Z" transform="translate(2.193 1.663)"/><path class="c" d="M54.341,39.008a.791.791,0,0,1-.781-.781V36.781a.781.781,0,0,1,1.561,0v1.447A.781.781,0,0,1,54.341,39.008Z" transform="translate(2.193 1.474)"/><path class="c" d="M43.788,4.561H42.341a.781.781,0,1,1,0-1.561h1.447a.781.781,0,0,1,0,1.561Z" transform="translate(1.701 0.123)"/><path class="c" d="M48.4,4.561H46.961a.781.781,0,0,1,0-1.561H48.4a.781.781,0,0,1,0,1.561Z" transform="translate(1.89 0.123)"/><path class="c" d="M45.341,7.618a.791.791,0,0,1-.781-.781V5.4a.781.781,0,0,1,1.561,0V6.837A.781.781,0,0,1,45.341,7.618Z" transform="translate(1.824 0.189)"/><path class="c" d="M45.341,3a.781.781,0,0,1-.781-.781V.781a.781.781,0,0,1,1.561,0V2.217A.77.77,0,0,1,45.341,3Z" transform="translate(1.824)"/><path class="c" d="M59.787,11.561H58.351a.781.781,0,1,1,0-1.561h1.436a.781.781,0,1,1,0,1.561Z" transform="translate(2.357 0.409)"/><path class="c" d="M64.408,11.561H62.961a.781.781,0,0,1,0-1.561h1.447a.781.781,0,0,1,0,1.561Z" transform="translate(2.546 0.409)"/><path class="c" d="M61.351,14.618a.781.781,0,0,1-.781-.781V12.4a.781.781,0,1,1,1.561,0v1.436A.791.791,0,0,1,61.351,14.618Z" transform="translate(2.48 0.476)"/><path class="c" d="M61.351,10.008a.781.781,0,0,1-.781-.781V7.781a.781.781,0,1,1,1.561,0V9.228A.791.791,0,0,1,61.351,10.008Z" transform="translate(2.48 0.287)"/><path class="c" d="M7.944,37.5H3.781a.781.781,0,1,1,0-1.561H7.944a.781.781,0,1,1,0,1.561Z" transform="translate(0.123 1.471)"/><path class="c" d="M5.781,39.665A.791.791,0,0,1,5,38.884V34.721a.781.781,0,0,1,1.561,0v4.164a.791.791,0,0,1-.781.781Z" transform="translate(0.205 1.389)"/><ellipse class="c" cx="0.781" cy="0.781" rx="0.781" ry="0.781" transform="translate(5.205 31.166)"/><ellipse class="c" cx="0.781" cy="0.781" rx="0.781" ry="0.781" transform="translate(5.205 28.043)"/><ellipse class="c" cx="0.781" cy="0.781" rx="0.781" ry="0.781" transform="translate(5.205 23.879)"/><ellipse class="c" cx="0.781" cy="0.781" rx="0.781" ry="0.781" transform="translate(5.205 17.633)"/></g></svg>