<svg xmlns="http://www.w3.org/2000/svg" width="59.65" height="60.206" viewBox="0 0 59.65 60.206"><defs><style>.a{fill:#00ebc7;}</style></defs><g transform="translate(-266.536)"><g transform="translate(266.536)"><path class="a" d="M58.737,38H54.329a.913.913,0,1,1,0-1.826h3.495V1.826h-56V36.172H21.466a.913.913,0,1,1,0,1.826H.913A.913.913,0,0,1,0,37.085V.913A.913.913,0,0,1,.913,0H58.737a.913.913,0,0,1,.913.913V37.085A.913.913,0,0,1,58.737,38Z"/><path class="a" d="M37.941,50.671H22.508a.927.927,0,0,1-.913-.8L18.072,23.4a.956.956,0,0,1,.214-.727.984.984,0,0,1,.7-.3H24.02a.913.913,0,1,1,0,1.811H20.026l3.281,24.661H37.071l3.295-24.661H36.386a.913.913,0,1,1,0-1.811h5.021a.891.891,0,0,1,.9,1.027L38.783,49.872a.927.927,0,0,1-.842.8Z" transform="translate(7.702 9.535)"/><path class="a" d="M32.707,42.417h-.114a.913.913,0,0,1-.8-1.013l2.268-19.256H23.408L25.676,41.4a.913.913,0,1,1-1.811.214L21.482,21.307a.913.913,0,0,1,.9-1.027h12.68a.913.913,0,0,1,.685.314.927.927,0,0,1,.214.713L33.635,41.618A.9.9,0,0,1,32.707,42.417Z" transform="translate(9.156 8.646)"/><path class="a" d="M27.849,16.558a4.279,4.279,0,1,1,4.279-4.279A4.279,4.279,0,0,1,27.849,16.558Zm0-6.832a1.04,1.04,0,1,0,0-.043Z" transform="translate(10.049 3.411)"/><path class="a" d="M41.471,24.594a.913.913,0,0,1-.314-1.769l5.349-1.954a.8.8,0,0,0,.485-1.013.813.813,0,0,0-.485-.414.8.8,0,0,0-.628,0l-5.192,1.868a.9.9,0,0,1-.984-.242l-2.853-3.1A4.422,4.422,0,0,0,33.64,16.55H29.832a4.365,4.365,0,0,0-3.195,1.426l-2.853,3.1a.884.884,0,0,1-.97.242l-5.206-1.868a.8.8,0,0,0-.628,0,.813.813,0,0,0-.414.456.8.8,0,0,0,.485,1.013L22.343,22.9a.913.913,0,0,1,.542,1.17.941.941,0,0,1-1.184.542L16.41,22.626a2.6,2.6,0,0,1-1.555-3.309,2.639,2.639,0,0,1,3.366-1.626l4.636,1.669L25.3,16.593a6.2,6.2,0,0,1,4.536-1.983h3.837A6.233,6.233,0,0,1,38.2,16.593l2.439,2.653,4.636-1.669a2.567,2.567,0,0,1,2.025.114,2.61,2.61,0,0,1-.214,4.821L41.8,24.537a.884.884,0,0,1-.328.057Z" transform="translate(6.269 6.229)"/><path class="a" d="M24.183,23.036a.913.913,0,0,1-.913-.913v-3.58a.913.913,0,0,1,1.826,0v3.58a.913.913,0,0,1-.913.913Z" transform="translate(9.921 7.516)"/><path class="a" d="M29.493,23.036a.913.913,0,0,1-.913-.913v-3.58a.913.913,0,0,1,1.826,0v3.58a.9.9,0,0,1-.913.913Z" transform="translate(12.185 7.516)"/><path class="a" d="M22.948,6.706H12.593a.913.913,0,1,1,0-1.826H22.948a.913.913,0,1,1,0,1.826Z" transform="translate(4.98 2.081)"/><path class="a" d="M12.353,6.706H5.393a.913.913,0,1,1,0-1.826h6.961a.913.913,0,1,1,0,1.826Z" transform="translate(1.91 2.081)"/><path class="a" d="M16.036,10.446H15.023a.913.913,0,1,1,0-1.826h1.013a.913.913,0,1,1,0,1.826Z" transform="translate(6.016 3.675)"/><path class="a" d="M16.019,10.446H5.393a.913.913,0,1,1,0-1.826H16.019a.913.913,0,1,1,0,1.826Z" transform="translate(1.91 3.675)"/><path class="a" d="M22.11,14.176H9.273a.913.913,0,1,1,0-1.826H22.11a.913.913,0,1,1,0,1.826Z" transform="translate(3.564 5.265)"/><path class="a" d="M7.989,14.176h-2.6a.913.913,0,1,1,0-1.826h2.6a.913.913,0,1,1,0,1.826Z" transform="translate(1.91 5.265)"/><path class="a" d="M15.734,17.906H5.393a.913.913,0,1,1,0-1.826H15.734a.913.913,0,1,1,0,1.826Z" transform="translate(1.91 6.855)"/><path class="a" d="M10.043,21.646H5.393a.913.913,0,1,1,0-1.826h4.65a.913.913,0,1,1,0,1.826Z" transform="translate(1.91 8.45)"/></g></g></svg>