<svg xmlns="http://www.w3.org/2000/svg" width="55.187" height="60.22" viewBox="0 0 55.187 60.22"><defs><style>.a{fill:#00ebc7;}</style></defs><g transform="translate(0 0)"><path class="a" d="M9,12.6a6.3,6.3,0,1,1,6.29-6.29A6.3,6.3,0,0,1,9,12.6ZM9,1.987a4.279,4.279,0,1,0,4.279,4.279A4.279,4.279,0,0,0,9,1.987Z" transform="translate(1.144 0.01)"/><path class="a" d="M22.641,55.77a4.079,4.079,0,0,1-4.079-4.079V41.564a1.141,1.141,0,0,0-1.141-1.141H7.907A4.935,4.935,0,0,1,3,35.5V16.96a6.561,6.561,0,0,1,7.388-6.5A6.718,6.718,0,0,1,14.5,12.681l4.279,4.607h7.132a3.1,3.1,0,0,1,3.1,2.7,3.052,3.052,0,0,1-.77,2.311,2.967,2.967,0,0,1-2.211.984H17.049a1,1,0,0,1-.5-.128L14.9,22.18v9.984h7.93a3.894,3.894,0,0,1,3.88,3.894V51.691a4.079,4.079,0,0,1-4.065,4.079ZM9.547,12.453a4.536,4.536,0,0,0-3.024,1.141A4.593,4.593,0,0,0,4.968,16.96V35.5A2.938,2.938,0,0,0,7.907,38.44H17.42a3.138,3.138,0,0,1,3.138,3.124V51.691a2.082,2.082,0,0,0,4.165,0V36.1a1.911,1.911,0,0,0-1.9-1.911H13.9a.984.984,0,0,1-.984-.984V21.239l-2.781-1.811a1,1,0,0,1,1.027-1.7l6.1,3.609h8.7a.97.97,0,0,0,.742-.328,1,1,0,0,0,.257-.784,1.1,1.1,0,0,0-1.113-.913H18.29A.984.984,0,0,1,17.563,19l-4.579-4.892a4.835,4.835,0,0,0-2.853-1.583Z" transform="translate(1.281 4.45)"/><path class="a" d="M9.243,36.464H1.84a.984.984,0,0,1-.984-.941L0,20.746a1,1,0,0,1,.941-1.055.984.984,0,0,1,1.041.941l.87,13.85h6.39a1,1,0,1,1,0,1.983Z" transform="translate(0.001 8.408)"/><path class="a" d="M47.5,25.32H10.9a1,1,0,0,1,0-1.983H47.5a1.655,1.655,0,0,0,0-3.295H10.9a1,1,0,0,1,0-1.983H47.5a3.637,3.637,0,0,1,0,7.26Z" transform="translate(4.275 7.714)"/><path class="a" d="M24.684,50.9a.984.984,0,0,1-.984-1V22.713a1,1,0,0,1,1.983,0V49.9A1,1,0,0,1,24.684,50.9Z" transform="translate(10.106 9.323)"/><path class="a" d="M28.414,50.9a.984.984,0,0,1-.984-1V22.713a1,1,0,0,1,1.983,0V49.9a1,1,0,0,1-1,1Z" transform="translate(11.696 9.323)"/><path class="a" d="M51.552,42.8H4.683a1,1,0,0,1,0-1.983H51.552a1,1,0,0,1,0,1.983Z" transform="translate(1.623 17.417)"/><path class="a" d="M6.776,47.285a.984.984,0,0,1-.984-1V31.424a1,1,0,1,1,1.983,0V46.286A1,1,0,0,1,6.776,47.285Z" transform="translate(2.468 12.935)"/><path class="a" d="M29,21.63H26.878a.984.984,0,0,1-1-.984V5.2a1,1,0,0,1,1-1H29a4.707,4.707,0,0,1,4.707,4.707v8.03A4.707,4.707,0,0,1,29,21.63ZM27.863,19.6H29a2.71,2.71,0,0,0,2.71-2.71V8.907A2.724,2.724,0,0,0,29,6.183H27.863Z" transform="translate(11.035 1.805)"/><path class="a" d="M31.458,21.646h-3.88a.984.984,0,0,1-1-.984V16.383a1,1,0,0,1,1-1h1.284A2.5,2.5,0,0,0,30.7,14.6a1,1,0,0,1,1.712.685V20.7A1,1,0,0,1,31.458,21.646Zm-2.853-1.983H30.46v-2.61a4.279,4.279,0,0,1-1.555.271h-.3Z" transform="translate(11.334 6.111)"/><path class="a" d="M24.861,21.151a.984.984,0,0,1-1-.984V18.883a1.426,1.426,0,0,0-1.426-1.426H20.168a1,1,0,1,1,0-2h2.311a3.38,3.38,0,0,1,3.366,3.38v1.284a.984.984,0,0,1-.984,1.027Z" transform="translate(8.175 6.606)"/></g></svg>