<svg xmlns="http://www.w3.org/2000/svg" xmlns:xlink="http://www.w3.org/1999/xlink" width="168.934" height="83.603" viewBox="0 0 168.934 83.603"><defs><style>.a{fill:#fff;}.b{fill:#ff9100;}.c{fill:url(#a);}.d{fill:url(#b);}.e{fill:none;}</style><linearGradient id="a" y1="0.5" x2="1" y2="0.5" gradientUnits="objectBoundingBox"><stop offset="0" stop-color="#ff9100"/><stop offset="0.08" stop-color="#ff9100" stop-opacity="0.961"/><stop offset="0.22" stop-color="#ff9100" stop-opacity="0.871"/><stop offset="0.4" stop-color="#ff9100" stop-opacity="0.71"/><stop offset="0.6" stop-color="#ff9100" stop-opacity="0.502"/><stop offset="0.83" stop-color="#ff9100" stop-opacity="0.22"/><stop offset="1" stop-color="#ff9100" stop-opacity="0"/></linearGradient><linearGradient id="b" y1="0.5" x2="1" y2="0.5" gradientUnits="objectBoundingBox"><stop offset="0" stop-color="#ff9100" stop-opacity="0"/><stop offset="0.17" stop-color="#ff9100" stop-opacity="0.22"/><stop offset="0.4" stop-color="#ff9100" stop-opacity="0.502"/><stop offset="0.6" stop-color="#ff9100" stop-opacity="0.71"/><stop offset="0.78" stop-color="#ff9100" stop-opacity="0.871"/><stop offset="0.92" stop-color="#ff9100" stop-opacity="0.961"/><stop offset="1" stop-color="#ff9100"/></linearGradient></defs><g transform="translate(0 0.014)"><path class="a" d="M11.59,38.64a5.5,5.5,0,0,0-4-1.46c-1.93,0-3,.6-3,1.63s1,1.66,3.05,1.79c3.09.2,7,.9,7,5.25,0,2.88-2.36,5.37-7,5.37A9.58,9.58,0,0,1,0,48.3l2-2.89A8.94,8.94,0,0,0,7.64,47.7c1.52,0,3-.76,3-2s-.98-1.55-3.3-1.7C4.25,43.79.56,42.66.56,38.94s3.92-5.11,6.91-5.11A8.76,8.76,0,0,1,13.84,36Z"/><path class="a" d="M39.78,50.66V41.89c0-2.15-1.13-4.11-3.36-4.11s-3.48,2-3.48,4.11v8.77h-4V34.26h3.75l.3,2A4.73,4.73,0,0,1,37.25,34a4.91,4.91,0,0,1,4.85,3.06,5.91,5.91,0,0,1,5.48-3c4.65,0,6.94,2.85,6.94,7.77v8.83H50.47V41.83c0-2.16-.9-4-3.09-4a3.713,3.713,0,0,0-3.55,4V50.6Z"/><path class="a" d="M65.64,29.68v4.64h4.52v3.49H65.61v7.07a2,2,0,0,0,2.12,2.33,4.63,4.63,0,0,0,2-.5l1.13,3.45a8.9,8.9,0,0,1-3.35.7c-3.56.13-5.88-1.89-5.88-6V37.81H58.54V34.32h3.05V30.11Z"/><path class="a" d="M79.32,34.29v8.57c0,2.49,1.36,4.38,4,4.38a4.3,4.3,0,0,0,4.18-4.58V34.29h4v16.4H87.85l-.26-2.22A7.31,7.31,0,0,1,82,50.92c-3.92,0-6.77-3-6.77-8v-8.6Z"/><path class="a" d="M112.45,29.68v4.64H117v3.49h-4.55v7.07a2,2,0,0,0,2.13,2.33,4.63,4.63,0,0,0,2-.5l1.12,3.45a8.86,8.86,0,0,1-3.35.7c-3.55.13-5.88-1.89-5.88-6V37.81h-3.05V34.32h3.05V30.11Z"/><path class="a" d="M126.4,29.68a2.39,2.39,0,1,1-2.39-2.39,2.39,2.39,0,0,1,2.39,2.39ZM122,34.22V50.66h4V34.22Z"/><path class="a" d="M148.64,34.26l-7,16.47h-4.38l-7-16.47h4.42L137,39.67l2.52,6.91L142,39.74l2.26-5.48Z"/><path class="a" d="M156.05,43.92c.26,2,2,3.49,4.88,3.49a6.77,6.77,0,0,0,4.38-1.53l2.59,2.55a10,10,0,0,1-7,2.66c-5.64,0-9-3.49-9-8.73,0-5,3.38-8.57,8.69-8.57,5.48,0,8.9,3.39,8.27,10.13Zm8.9-3.35c-.27-2.13-1.93-3.19-4.25-3.19a4.4,4.4,0,0,0-4.58,3.19Z"/><circle class="b" cx="1.82" cy="1.82" r="1.82" transform="translate(19.82 27.62)"/><circle class="b" cx="1.82" cy="1.82" r="1.82" transform="translate(95.19 53.36)"/><path class="b" d="M20.18,51.15a1.8,1.8,0,0,1-1.79-1.64c-.23-2.62-.36-5.28-.38-7.92a2.45,2.45,0,0,1,0-.27,2.279,2.279,0,0,1,0-.27v-.11c0-1.72,0-3.46.14-5.17a1.8,1.8,0,1,1,3.59.19c-.09,1.65-.13,3.32-.13,5v.11a2.28,2.28,0,0,1,0,.26,2.11,2.11,0,0,1,0,.25c0,2.55.14,5.11.36,7.63a1.79,1.79,0,0,1-1.63,2Z"/><path class="b" d="M98.81,51.15a1.8,1.8,0,0,0,1.79-1.64c.23-2.62.36-5.28.38-7.92a2.452,2.452,0,0,0,0-.27,2.28,2.28,0,0,0,0-.27v-.11c0-1.72,0-3.46-.14-5.17a1.8,1.8,0,1,0-3.59.19c.09,1.65.13,3.32.13,5v.11a2.281,2.281,0,0,0,0,.26,2.11,2.11,0,0,0,0,.25c0,2.55-.14,5.11-.36,7.63a1.79,1.79,0,0,0,1.63,2Z"/><path class="c" d="M59.49,3.88A37.93,37.93,0,0,1,94.8,28a1.93,1.93,0,0,0,2.64,1h0a1.94,1.94,0,0,0,1-2.43A41.79,41.79,0,0,0,22.18,23a1.93,1.93,0,0,0,.88,2.59h0a1.93,1.93,0,0,0,2.57-.85A37.91,37.91,0,0,1,59.49,3.88Z"/><path class="d" d="M59.49,79.71a37.921,37.921,0,0,1-35.3-24.063,1.94,1.94,0,0,0-2.649-1h0a1.92,1.92,0,0,0-.95,2.43A41.79,41.79,0,0,0,96.34,61.5a2,2,0,0,0-.84-2.67h0a1.94,1.94,0,0,0-2.55.81A37.91,37.91,0,0,1,59.49,79.71Z"/><circle class="e" cx="41.76" cy="41.76" r="41.76" transform="translate(17.73 0.03)"/><circle class="e" cx="37.89" cy="37.89" r="37.89" transform="translate(21.6 3.9)"/></g></svg>