<svg xmlns="http://www.w3.org/2000/svg" xmlns:xlink="http://www.w3.org/1999/xlink" width="550" height="386.271" viewBox="0 0 550 386.271"><defs><style>.a,.b{fill:#d566c9;}.b,.d{opacity:0.5;}.c{fill:#829dff;}.d{fill:#9366c9;}.e{fill:#00ebc7;}.f{opacity:0.1;}.g{fill:url(#a);}.h{fill:#fff;}.i{fill:#111159;}.j{opacity:0.06;}.k{fill:#f3ae98;}.l{fill:#232b59;}.m{fill:#22134d;}.n{fill:#41298b;}.o{opacity:0.2;}.p{fill:#ffc43a;}.q{opacity:0.3;}</style><linearGradient id="a" x1="-5.417" y1="1" x2="-5.417" gradientUnits="objectBoundingBox"><stop offset="0" stop-color="#005aa1"/><stop offset="1" stop-color="#00cfa1"/></linearGradient></defs><g transform="translate(0 19.111)"><g transform="translate(0 -19.111)"><ellipse class="a" cx="42.367" cy="134.88" rx="42.367" ry="134.88" transform="translate(42.019 191.946) rotate(-54.395)"/><path class="b" d="M79.436,121.384a1.427,1.427,0,0,0,.317,1.995q18.852,13.793,38.062,27.281a1.81,1.81,0,0,0,.383.264q15.048,10.569,30.267,20.874l-38.313,2.92a1.431,1.431,0,0,0,.211,2.854l41.946-3.184q9.486,6.421,19.051,12.749a1.48,1.48,0,0,0,1.255.819q15.761,10.41,31.707,20.57L155,211.352a1.429,1.429,0,0,0,.172,2.854l53.241-3.052q16.554,10.569,33.2,20.715a1.44,1.44,0,0,0,1.968-.476,1.48,1.48,0,0,0,.185-1.017,1.427,1.427,0,0,0-.661-.951q-34.917-21.389-69.333-44.152L158.215,136.6a1.44,1.44,0,0,0-2.735.872l14.532,45.275q-25.26-16.765-49.978-34.045a84.155,84.155,0,0,1-3.963-22.882V125.6a1.44,1.44,0,0,0-2.84.33,87.194,87.194,0,0,0,3.052,20.121Q98.764,133.71,81.444,121.067a1.44,1.44,0,0,0-2.008.317Z" transform="translate(25.421 64.037)"/><ellipse class="c" cx="51.999" cy="165.55" rx="51.999" ry="165.55" transform="translate(81.136 50.515) rotate(-29.06)"/><path class="d" d="M116.223,38.495a1.744,1.744,0,0,0-.7,2.378q13.608,25.1,27.836,50.044a1.691,1.691,0,0,0,.277.5q11.124,19.513,22.552,38.894l-43.848-16.8a1.77,1.77,0,0,0-2.272,1,1.744,1.744,0,0,0,1.017,2.259l47.983,18.39q7.147,12.075,14.413,24.058a1.731,1.731,0,0,0,.951,1.559q11.969,19.817,24.256,39.29l-55.95-22.644a1.757,1.757,0,1,0-1.321,3.25l60.494,24.467q12.8,20.253,25.854,40.189a1.77,1.77,0,0,0,2.431.5,1.731,1.731,0,0,0,.5-2.418q-27.427-41.893-53.572-85.041l8.191-61.961a1.757,1.757,0,1,0-3.475-.462l-7.623,57.641q-19.077-31.707-37.361-63.718a103.046,103.046,0,0,1,7.583-27.36,2.1,2.1,0,0,0,.092-.264,1.757,1.757,0,0,0-3.3-1.136,107.209,107.209,0,0,0-7.16,23.859q-12.921-22.789-25.418-45.737a1.757,1.757,0,0,0-2.431-.74Z" transform="translate(37.027 37.537)"/><path class="e" d="M300.794,199.457a34.93,34.93,0,0,0-41.483-34.349,54.43,54.43,0,0,0-97.182,9.248,37.612,37.612,0,0,0-43.386,18.562,18.839,18.839,0,0,0-10.939-3.5,19.31,19.31,0,0,0-3.514.33,29.395,29.395,0,0,0-52.5,4.981A20.332,20.332,0,0,0,26,214.214a20.874,20.874,0,0,0,.476,4.4h146.7v68.7h86.785v-68.7h35.115a34.865,34.865,0,0,0,5.72-19.156Z" transform="translate(8.349 69.974)"/><path class="a" d="M424.293,92.76c-23.04,0-61.1,25.194-77.841,70.8-17.175,45.407-4.967,89.387,12.432,104.474,12.907-19.949,22.657-52.264,35.763-86.494C407.158,147.085,420.964,116.276,424.293,92.76Z" transform="translate(108.595 55.035)"/><path class="b" d="M398.908,111.361a.925.925,0,0,0-1.321.277A188.09,188.09,0,0,0,379.2,139.87a1.322,1.322,0,0,0-.159.3,186.726,186.726,0,0,0-10.569,24.071,197.586,197.586,0,0,1-4.782-26,.74.74,0,0,0-1.017-.674,1.321,1.321,0,0,0-.806,1.321,197.527,197.527,0,0,0,5.509,28.431q-2.642,7.755-4.584,15.708a1.136,1.136,0,0,0-.251,1.03,186.274,186.274,0,0,0-4.373,26.541A200.584,200.584,0,0,1,345.588,178.9a.74.74,0,0,0-1.123-.489,1.321,1.321,0,0,0-.542,1.48,200.626,200.626,0,0,0,13.951,34.23,185.571,185.571,0,0,0,.079,27.9.912.912,0,0,0,.938.925.819.819,0,0,0,.555-.317,1.136,1.136,0,0,0,.225-.78,184.654,184.654,0,0,1,4.637-57.72,180.157,180.157,0,0,1,26.568-19.962.978.978,0,0,0,.357-1.255.832.832,0,0,0-1.189-.317,180.6,180.6,0,0,0-24.969,18.364A185.845,185.845,0,0,1,380.518,141.1a43.359,43.359,0,0,1,14.268-5.047h.145a1.07,1.07,0,0,0,.713-1.044.806.806,0,0,0-.938-.793,43.993,43.993,0,0,0-12.63,4.043,187.449,187.449,0,0,1,16.871-25.524.951.951,0,0,0-.04-1.374Z" transform="translate(110.424 60.954)"/><path class="f" d="M412.113,124.91h-.846c-8.059.806-12.128,9.829-14.955,17.412-2.021,5.417-4.28,10.9-8.2,15.166s-9.829,7.108-15.5,5.905c-7.57-1.6-13.211-9.908-20.966-9.1a11.19,11.19,0,0,0-6.87,3.62c-14.678,43.716-2.642,85.2,14.11,99.758,12.907-19.949,22.657-52.264,35.763-86.494C400.606,154.82,406.842,139.257,412.113,124.91Z" transform="translate(108.594 65.359)"/><path class="c" d="M308.665,220.775c1.321-10.054,8.2-20.134,18.205-21.785,3.62-.608,7.372-.092,10.926-1,6.46-1.651,10.9-7.676,13.409-13.859s3.62-12.894,6.434-18.945c2.378-5.126,6.751-10.093,12.392-10.173,7.742-.092,12.643,8.693,20.055,10.992,5.522,1.7,11.679-.594,15.972-4.479s7.042-9.155,9.539-14.361c3.514-7.293,8.389-15.853,16.474-15.972,4.492,0,8.6,2.867,11.19,6.606s3.963,8.046,5.284,12.353c2.5,8.27,4.545,18.5-1.665,24.533-3.963,3.871-10.239,4.545-14.44,8.191-6.289,5.456-5.826,15.114-5.654,23.45a128.925,128.925,0,0,1-3.4,32.13c-.661,2.84-1.625,5.932-4.135,7.425-3.342,2.008-7.544.185-11.4-.423-8.957-1.453-17.729,4.135-23.424,11.2s-9.248,15.616-14.057,23.265-11.811,14.81-20.742,16.382c-11.309,2.008-22.525-5.826-28.14-15.853-5.364-9.565-5.681-20.068-8.31-30.386C310.647,240.288,307.318,231.014,308.665,220.775Z" transform="translate(99.02 67.376)"/><path class="g" d="M222.756,231.341a34.939,34.939,0,0,1,6.485.607,54.43,54.43,0,0,1,97.184,9.248,37.546,37.546,0,0,1,43.386,18.562,18.747,18.747,0,0,1,10.939-3.5,18.11,18.11,0,0,1,3.514.33,29.395,29.395,0,0,1,52.5,4.981,20.292,20.292,0,0,1,25.815,19.553,20.978,20.978,0,0,1-.476,4.4H193.48a35,35,0,0,1,29.276-54.166Z" transform="translate(60.295 91.437)"/><path class="h" d="M227.456,234.61H39.09a107.341,107.341,0,0,1,1.321,16.778,107.406,107.406,0,0,1-1.318,16.757l188.362.021a16.778,16.778,0,0,0,0-33.557Z" transform="translate(12.553 100.586)"/><path class="a" d="M230.1,278.352H30.86v-8.2H230.1a16.778,16.778,0,1,0,0-33.557H30.86V228.4H230.1a24.969,24.969,0,1,1,0,49.938Z" transform="translate(9.91 98.592)"/><path class="f" d="M227.456,234.61H39.09a102.335,102.335,0,0,1,1.149,11.732H227.456a16.791,16.791,0,0,1,15.708,10.912,16.725,16.725,0,0,0-15.708-22.644Z" transform="translate(12.553 100.586)"/><path class="a" d="M74.1,259.124l-5.919-2.933-5.932,2.933V247.26H74.1Z" transform="translate(19.99 104.649)"/><path class="f" d="M30.86,236.607H41.733c.185,1.123.33,2.3.476,3.488a10.588,10.588,0,0,0,.132,1.11c.092.885.172,1.77.251,2.642A4.825,4.825,0,0,0,42.684,245c.2,2.708.317,5.5.317,8.363a107.4,107.4,0,0,1-1.318,16.757l-10.823.021v8.191H164.373l49.938-49.938H30.86Z" transform="translate(9.91 98.589)"/><path class="h" d="M22.978,196.81H211.344a112.77,112.77,0,0,0,0,33.556H22.978a16.778,16.778,0,0,1,0-33.557Z" transform="translate(1.991 88.448)"/><path class="c" d="M24.969,240.548H224.221v-8.191H24.969a16.778,16.778,0,1,1,0-33.557H224.221V190.61H24.969a24.969,24.969,0,1,0,0,49.938Z" transform="translate(0 86.457)"/><path class="f" d="M22.981,196.81H211.347a105.383,105.383,0,0,0-1.149,11.732H22.981A16.8,16.8,0,0,0,7.26,219.52a16.62,16.62,0,0,1-1.07-5.866A16.791,16.791,0,0,1,22.981,196.81Z" transform="translate(1.988 88.448)"/><path class="c" d="M144.774,221.374l-5.932-2.946-5.932,2.946V209.51h11.864Z" transform="translate(42.68 92.526)"/><rect class="i" width="243.258" height="334.138" rx="16.98" transform="translate(235.398 42.792)"/><circle class="h" cx="2.616" cy="2.616" r="2.616" transform="translate(354.708 51.049)"/><path class="h" d="M397.041,19.44h-16.5A2.444,2.444,0,0,0,378.1,21.9h0A10.107,10.107,0,0,1,367.989,32.07h-140.3a10.107,10.107,0,0,1-10.107-10.107h0a2.457,2.457,0,0,0-2.457-2.457H198.635A14.3,14.3,0,0,0,184.34,33.8V323.127a14.3,14.3,0,0,0,14.295,14.295H397.041a14.308,14.308,0,0,0,14.295-14.295V33.8A14.308,14.308,0,0,0,397.041,19.44Z" transform="translate(59.196 31.49)"/><path class="j" d="M369.382,13.28H270.47V347.432h98.912a22.459,22.459,0,0,0,22.459-22.459V35.647A22.459,22.459,0,0,0,369.382,13.28Z" transform="translate(86.854 29.512)"/><path class="j" d="M312.632,256.364h-66.36a3.752,3.752,0,0,1-3.752-3.752h0a3.752,3.752,0,0,1,3.752-3.752h66.36a3.752,3.752,0,0,1,3.752,3.752h0A3.752,3.752,0,0,1,312.632,256.364Z" transform="translate(77.879 105.162)"/><rect class="j" width="190.704" height="116.576" transform="translate(262.111 78.634)"/><rect class="j" width="65.699" height="34.864" transform="translate(262.111 209.875)"/><rect class="j" width="65.699" height="34.864" transform="translate(262.111 258.598)"/><rect class="j" width="65.699" height="34.864" transform="translate(262.111 307.334)"/><path class="j" d="M365.3,148.086H263.715a4.162,4.162,0,0,1-4.175-4.175h0a4.161,4.161,0,0,1,4.175-4.162H365.3a4.175,4.175,0,0,1,4.175,4.162h0a4.175,4.175,0,0,1-4.175,4.175Z" transform="translate(83.344 70.125)"/><path class="j" d="M365.3,161.289H263.715a4.175,4.175,0,0,1-4.175-4.175h0a4.175,4.175,0,0,1,4.175-4.175H365.3a4.188,4.188,0,0,1,4.175,4.175h0A4.188,4.188,0,0,1,365.3,161.289Z" transform="translate(83.344 74.36)"/><path class="j" d="M365.3,174.476H263.715a4.161,4.161,0,0,1-4.175-4.162h0a4.161,4.161,0,0,1,4.175-4.175H365.3a4.175,4.175,0,0,1,4.175,4.175h0a4.175,4.175,0,0,1-4.175,4.162Z" transform="translate(83.344 78.599)"/><rect class="j" width="109.931" height="8.336" rx="3.16" transform="translate(342.884 262.165)"/><path class="j" d="M365.3,200.866H263.715a4.162,4.162,0,0,1-4.175-4.162h0a4.161,4.161,0,0,1,4.175-4.175H365.3a4.175,4.175,0,0,1,4.175,4.175h0A4.175,4.175,0,0,1,365.3,200.866Z" transform="translate(83.344 87.074)"/><path class="j" d="M365.3,214.026H263.715a4.161,4.161,0,0,1-4.175-4.175h0a4.161,4.161,0,0,1,4.175-4.162H365.3a4.175,4.175,0,0,1,4.175,4.162h0a4.175,4.175,0,0,1-4.175,4.175Z" transform="translate(83.344 91.3)"/><path class="j" d="M365.3,227.27H263.715a4.175,4.175,0,0,1-4.175-4.175h0a4.175,4.175,0,0,1,4.175-4.175H365.3a4.188,4.188,0,0,1,4.175,4.175h0A4.188,4.188,0,0,1,365.3,227.27Z" transform="translate(83.344 95.548)"/><path class="j" d="M365.3,240.456H263.715a4.162,4.162,0,0,1-4.175-4.162h0a4.161,4.161,0,0,1,4.175-4.175H365.3a4.175,4.175,0,0,1,4.175,4.175h0a4.175,4.175,0,0,1-4.175,4.162Z" transform="translate(83.344 99.787)"/><circle class="j" cx="35.221" cy="35.221" r="35.221" transform="translate(316.85 165.793) rotate(-80.42)"/><path class="j" d="M294.64,84.88,265.985,68.34a5.892,5.892,0,0,0-8.825,5.086v33.028a5.892,5.892,0,0,0,8.825,5.1l28.655-16.54a5.905,5.905,0,0,0,0-10.133Z" transform="translate(82.58 46.942)"/><path class="k" d="M317.408,56.79a9.446,9.446,0,0,0,1.8-3.726,3.25,3.25,0,0,0-1.665-3.5,7.927,7.927,0,0,0,.727-6.355,4.294,4.294,0,0,0-4.967-2.642c-1.784.555-2.8,2.431-3.329,4.214a16.884,16.884,0,0,0,2.418,14.387C314.581,58.706,316.153,58.64,317.408,56.79Z" transform="translate(99.327 38.239)"/><path class="l" d="M371.3,66a15.721,15.721,0,0,1-7.174-2.642,8.719,8.719,0,0,1-3.752-6.434,6.1,6.1,0,0,1,3.858-6.051c2.391-.779,4.994.264,7.187,1.506s4.413,2.708,6.962,2.893c1.968.119,3.963-.608,5.879-.436a6.764,6.764,0,0,1,5.76,7.834,8.68,8.68,0,0,1,2.035,7.491,13.872,13.872,0,0,1-4.254,6.751,35.432,35.432,0,0,1-6.606,4.571,34.5,34.5,0,0,0,.119-7.834,10.569,10.569,0,0,0-2.933-6.672A6.421,6.421,0,0,0,371.3,66Z" transform="translate(115.72 41.499)"/><path class="m" d="M343.721,262.3c.344,2.827-2.061,5.284-4.664,6.447s-5.535,1.321-8.2,2.365-5.284,3.144-5.364,6h31.522a48.5,48.5,0,0,0,0-14.823C352.943,260.685,348.028,261.359,343.721,262.3Z" transform="translate(104.522 109.164)"/><path class="m" d="M384.185,262.3c.33,2.827-2.061,5.284-4.677,6.447s-5.522,1.321-8.191,2.365-5.285,3.144-5.377,6h31.535a48.5,48.5,0,0,0,0-14.823C393.406,260.685,388.478,261.359,384.185,262.3Z" transform="translate(117.512 109.164)"/><path class="n" d="M355.745,305.764a371.975,371.975,0,0,0,15.061-75.3c2.642-29.065,16.435-57.575,18.76-86.639a20.57,20.57,0,0,0-9.116-8.138,62.594,62.594,0,0,0-12.128-3.2c-5.007-.978-8.27-.251-13.277-1.215L338.2,305.764Z" transform="translate(108.604 67.402)"/><path class="n" d="M365,131.584l17.6,174.547h16.818a372.165,372.165,0,0,0,.423-80.351c-3.1-28.985,4.875-59.675,1.466-88.634a20.53,20.53,0,0,0-10.569-6.2,63.1,63.1,0,0,0-12.537-.779C373.178,130.21,370.126,131.558,365,131.584Z" transform="translate(117.21 67.034)"/><path class="o" d="M406.074,137.146a20.53,20.53,0,0,0-10.569-6.2,63.1,63.1,0,0,0-12.537-.779c-5.1,0-8.151,1.387-13.211,1.414l.238,2.365c-1.836-.436-3.7-.793-5.549-1.149-4.505-.872-7.6-.4-11.811-.978l-1.559.74c-.291,2.893-.568,5.8-.846,8.693a70.02,70.02,0,0,0,56.623,16.62A146.172,146.172,0,0,0,406.074,137.146Z" transform="translate(112.467 67.034)"/><path class="p" d="M382.432,74.142C371.8,76.3,362.615,83.574,356.736,92.7s-8.693,19.949-9.644,30.756-.106,21.693.806,32.513c18.773,10.2,42.923,12.392,63.414,6.156,1.321-12.088,3.131-24.6,2.642-36.754s-2.906-24.414-8.719-35.115a35.38,35.38,0,0,0-8.64-10.965C392.921,76.282,387.056,73.2,382.432,74.142Z" transform="translate(111.325 49.001)"/><path class="o" d="M392.943,135.6h20.213c.079-.793.145-1.572.211-2.365H392.308l-6.9-25.788a6.606,6.606,0,0,0-5.958-4.69H348.87a86.014,86.014,0,0,0-1.784,11.454,144.47,144.47,0,0,0,0,21.389Z" transform="translate(111.33 58.246)"/><rect class="h" width="46.57" height="2.365" transform="translate(474.442 192.66)"/><rect class="q" width="46.57" height="2.365" transform="translate(474.442 192.66)"/><path class="h" d="M389.959,136.5H343.376l-7.544-28.153a3.488,3.488,0,0,1,3.435-4.69h37.2a6.606,6.606,0,0,1,5.945,4.69Z" transform="translate(107.774 58.534)"/><path class="o" d="M383.183,106.871a11.52,11.52,0,0,1,8.257-3.316,10.12,10.12,0,0,1,2.1.225,13.6,13.6,0,0,1,6.989,1.691,67.46,67.46,0,0,0-6.143-16.184,35.38,35.38,0,0,0-8.64-10.965c-.555-.449-1.149-.885-1.784-1.321-3.369,8.838-5.4,21.442-.938,29.659Z" transform="translate(122.173 49.974)"/><path class="o" d="M406.959,117.771a4.536,4.536,0,0,1,0,.594c.41,7.094-5.668,13.211-12.458,15.391s-14.4.727-21.455-.251c-.172.291-.33.594-.489.9a6.117,6.117,0,0,0-2.127-1.163c-.964-.238-2.206.264-2.312,1.255-.991.41-1.995-.555-2.748-1.321s-1.638-1.625-2.708-1.533a2.087,2.087,0,0,0-1.678,1.321,3.5,3.5,0,0,0-.079,2.206,6.923,6.923,0,0,0,4.8,4.571,15.483,15.483,0,0,0,5.4.5,8.667,8.667,0,0,0,.066,1.176,74.458,74.458,0,0,0,22.287,2.722,41.681,41.681,0,0,0,14.162-3.184,215.352,215.352,0,0,0,1.836-24.837,14.531,14.531,0,0,1-2.5,1.651Z" transform="translate(115.849 62.537)"/><path class="p" d="M390.874,81.913a47.97,47.97,0,0,1-72.305-30.386,8.706,8.706,0,0,0-8.019,2.391c1.044,15.272,8.838,30.729,19.632,41.589a64.973,64.973,0,0,0,40.875,18.8c7.425.555,14.929-6.156,18.786-12.524S393.49,88.889,390.874,81.913Z" transform="translate(99.725 41.732)"/><path class="k" d="M375.79,129.85a3.118,3.118,0,0,1-2.854-.3,8.3,8.3,0,0,0-2.735-1.163c-.991-.106-2.153.542-2.14,1.533-.938.528-2.048-.317-2.893-.978s-1.81-1.414-2.867-1.189a2.074,2.074,0,0,0-1.506,1.506,3.4,3.4,0,0,0,.185,2.193,6.883,6.883,0,0,0,5.285,3.963,17.61,17.61,0,0,0,6.791-.41A4.188,4.188,0,0,0,375.79,129.85Z" transform="translate(115.827 66.258)"/><path class="p" d="M379.04,74.34a63.044,63.044,0,0,1,27.6,14.083,44.456,44.456,0,0,1,14.532,26.924c1.321,10.358-2.035,21.376-9.512,28.642a38.18,38.18,0,0,1-20.015,9.618,74.418,74.418,0,0,1-22.459,0,12.749,12.749,0,0,1,.964-8.046c7.121.132,14.836.608,21.323-2.325s11.784-9.776,10.569-16.778c-.9-5.033-4.849-8.944-8.918-12.035s-8.587-5.826-11.547-9.988C376.067,96.588,376.675,83.548,379.04,74.34Z" transform="translate(118.469 49.12)"/><path class="k" d="M371.068,69.791q-.3,5.469-.608,10.926a11.639,11.639,0,0,0,10.49.753c-.145-3.752-.33-7.478-.476-11.216a12,12,0,0,0-9.406-.462Z" transform="translate(118.963 47.42)"/><path class="o" d="M380.685,75.379c-.066-1.7-.145-3.422-.211-5.126a12,12,0,0,0-9.406-.462q-.3,5.469-.608,10.926A32.736,32.736,0,0,0,380.685,75.379Z" transform="translate(118.963 47.42)"/><path class="k" d="M368.493,60.011a41.073,41.073,0,0,0,.41,18.628,14.717,14.717,0,0,0,11.56-1.255,12,12,0,0,0,5.43-9.631,10.727,10.727,0,0,0-5.443-9.539C377.067,56.457,371.373,57.474,368.493,60.011Z" transform="translate(118.05 43.659)"/><path class="l" d="M366.5,63.42a15.3,15.3,0,0,0,12.326.7,11.071,11.071,0,0,0,1.2,3.739c0,.766-.132,1.77-.172,2.55h1.017a4.545,4.545,0,0,1,.37-3.012,1.9,1.9,0,0,1,2.352-.832,1.863,1.863,0,0,1,.925,1.506,3.594,3.594,0,0,1-.37,1.77,7.173,7.173,0,0,1-2.457,3.012,9.023,9.023,0,0,0,.2,5.417,23.041,23.041,0,0,0,5.218-7.293,13.489,13.489,0,0,0,.542-8.614,9.816,9.816,0,0,0-5.615-6.381,12.762,12.762,0,0,0-6.606-.41,13.621,13.621,0,0,0-5.971,2.233A7.478,7.478,0,0,0,366.5,63.42Z" transform="translate(117.692 43.011)"/><path class="o" d="M361.032,117.032a2.867,2.867,0,0,1-2.8,3.844,5.417,5.417,0,0,1-4.888-3.858,2.867,2.867,0,0,1,2.827-3.858A5.4,5.4,0,0,1,361.032,117.032Z" transform="translate(113.41 61.585)"/></g></g></svg>