<svg xmlns="http://www.w3.org/2000/svg" width="842.412" height="311.441" viewBox="0 0 842.412 311.441"><defs><style>.a{fill:#20364c;}.b{fill:#fccb9f;}.c{fill:#fabb86;}.d{fill:#304c69;}.e{fill:#607fd8;}.f{fill:#829dff;}.g{fill:#415a99;}.h{fill:#0c1630;}.i{fill:#212168;}.j{fill:#0bd1aa;}.k{fill:#2b2b7f;}.l{fill:#00ebc7;}.m{fill:#4f5157;}.n{fill:#172b40;}.o{fill:#111159;}.p{fill:#61646b;}.q{fill:#273d83;}.r{fill:#122a59;}.s{fill:#51568a;}.t{fill:#292d5c;}</style></defs><g transform="translate(0 0.017)"><g transform="translate(0 -0.017)"><path class="a" d="M37.267,96.819c29.925-8.66,89.064-13.9,104.214-12.643s22.743,13.279,20.218,30.318-22.107,103.6-28.429,107.393-18.31-3.741-18.31-10.118,2.525-74.532,2.525-74.532L33.47,118.926Z" transform="translate(29.129 73.13)"/><path class="b" d="M84.746,28.781c-.935,9.726-3.142,22.107-10.118,22.107S52.689,41.069,53.063,31.4c.636-16.421,11.97-20.2,18.946-20.2S85.906,15.52,84.746,28.781Z" transform="translate(46.176 9.779)"/><path class="c" d="M102.11,71c11.222-1.683,19.938,0,24.707,2.525a52.5,52.5,0,0,1,8.435,5.611l-2.805,6.191-24.931-2.805Z" transform="translate(88.868 61.229)"/><path class="b" d="M88.583,13.85C59.519,45.421,46.894,43.532,33,64.348S15.94,154.067,23.515,158.5s27.793,4.414,36,4.414,31.2-46.085,34.75-61.271c6.939-29.682-10.754-43.578-8.211-54.95a48.928,48.928,0,0,1,8.828-18.946Z" transform="translate(16.977 12.085)"/><path class="d" d="M28.1,85.616c-19.077,22.893-17.057,48.628-2.525,53.042s49.264,5.611,61.271,5.611,41.689-2.525,46.758-.617-1.739,28.186,37.406,49.021,64.432,37.911,72.007,30.318-85.436-102.082-95.536-107.767S31.263,81.819,28.1,85.616Z" transform="translate(12.39 74.234)"/><path class="a" d="M83.3,152.41c-6.733,4.638-14.645,15.991-8.847,16.833,8.416,1.272,14.738,7.163,26.184,7.575,17.693.655,27.363-1.253,21.9-5.05s-20.218-9.352-26.184-12.213S83.3,152.41,83.3,152.41Z" transform="translate(63.049 132.675)"/><path class="a" d="M131.168,160.8c-7.575,5.91-2.525,12.643,2.095,13.092s12.7-1.478,19.376.43c11.8,3.367,21.49.411,26.951-3.741s-10.941-3.367-20.573-8.416a67.612,67.612,0,0,0-16.01-6.322C140.014,157.86,131.168,160.8,131.168,160.8Z" transform="translate(110.776 135.661)"/><path class="e" d="M61.538,41c11.222,33.123,36.49,42.232,56.109,46.889a326.363,326.363,0,0,0,33.666,6.453c3.741,3.928,2.805,14.046,2.805,14.046H102.255S52.28,84.728,52.28,83.325,61.538,41,61.538,41Z" transform="translate(45.5 35.714)"/><path class="f" d="M23.978,96.363c-4.283,21.883-11.8,56.858-7.8,58.747s29.065-3.367,36.639-6.939S68.193,146.3,76.2,146.3s-1.683.43,7.369-17.9,15.785-32.843,17.057-48.628S90.73,42.086,90.73,42.086s-14.046-.468-19.376-6.565-4.208-9.352-4.208-9.352-25.9,12.288-32,27.026S25.867,86.675,23.978,96.363Z" transform="translate(13.091 22.807)"/><path class="b" d="M90.593,72.181c13.747-2.805,19.358-5.891,23-4.489S126.8,82,125.4,83.7s-9.539-2.824-9.539-2.824-1.141,4.227-8.716,4.227S88.91,78.634,88.91,78.634Z" transform="translate(77.38 58.641)"/><path class="f" d="M43.885,36.641c-18.2-1.87-25.268,36.284,1.683,57.624s33.666,24.314,40.979,23.51,65.143-5.33,65.461-7.593.561-12.344-1.87-13.466S91.465,92.507,86.677,86.9,68.872,39.241,43.885,36.641Z" transform="translate(24.139 31.862)"/><path class="g" d="M41.224,34.66h-.8l-.58.094a14.14,14.14,0,0,0-1.608.43,11.933,11.933,0,0,0-2.039.935,14.607,14.607,0,0,0-4.339,4.133,24.314,24.314,0,0,0-3.367,7.014,35.536,35.536,0,0,0-1.5,9.127A46.758,46.758,0,0,0,27.8,66.7a47.9,47.9,0,0,0,3.367,10.492A46.758,46.758,0,0,0,37.109,86.9,48.216,48.216,0,0,0,45.17,94.94c2.974,2.394,5.929,4.694,8.809,6.9a180.759,180.759,0,0,0,16.2,11.465c1.234.748,2.431,1.44,3.572,2.076s2.282,1.216,3.348,1.7a28.919,28.919,0,0,0,5.723,2,18.479,18.479,0,0,0,3.89.43l1.047-.056H86.71a17.844,17.844,0,0,1-3.928-.262,29.739,29.739,0,0,1-5.854-1.87,60.8,60.8,0,0,1-7.107-3.479c-2.506-1.459-5.162-3.18-7.93-5.05s-5.611-3.909-8.547-6.079-5.91-4.451-8.9-6.808a49.245,49.245,0,0,1-8.323-8.248,47.169,47.169,0,0,1-9.445-20.779,43.335,43.335,0,0,1-.636-10.474,36.452,36.452,0,0,1,1.739-9.352A28.224,28.224,0,0,1,29.4,43.17a21.3,21.3,0,0,1,2.039-3.2,14.963,14.963,0,0,1,4.638-4.059,11.558,11.558,0,0,1,2.095-.86,10.718,10.718,0,0,1,1.646-.337h1.4Z" transform="translate(22.591 30.196)"/><path class="g" d="M45.67,46.51l1.122,1.87,1.365,2.17,1.665,2.768,2.02,3.236c.711,1.16,1.515,2.338,2.319,3.572s1.7,2.469,2.618,3.741,1.87,2.506,2.88,3.741a54.987,54.987,0,0,0,6.359,6.621,40.024,40.024,0,0,0,3.329,2.581,28.807,28.807,0,0,0,3.236,1.87c.524.281,1.029.5,1.515.711a13.935,13.935,0,0,0,1.421.561c.43.187.879.281,1.272.411s.767.206,1.1.3c.655.168,1.2.243,1.571.318h-.019a12.85,12.85,0,0,1-1.608-.131,2.6,2.6,0,0,1-1.141-.187l-.636-.131-.692-.168a19.825,19.825,0,0,1-3.086-1.085,25.585,25.585,0,0,1-3.46-1.87,34.281,34.281,0,0,1-3.516-2.525,37.986,37.986,0,0,1-3.423-3.123c-1.1-1.122-2.188-2.3-3.2-3.535s-1.983-2.506-2.88-3.741-1.758-2.581-2.562-3.741A39.261,39.261,0,0,1,51.038,57c-.673-1.253-1.291-2.319-1.87-3.367s-1.029-2.039-1.459-2.9-.786-1.627-1.066-2.263-.5-1.141-.655-1.478Z" transform="translate(39.747 40.509)"/><path class="h" d="M46.912,42.5A35.536,35.536,0,0,0,61.5,39.415a80.422,80.422,0,0,1,.561,10.941C61.781,54,81.083,63,82.841,63S87.61,52.04,87.61,52.04s-5.891,5.33-11.222,3.647-9.838-2.244-9-11.222S70.759,30.419,73.583,29.5s7.014,6.546,15.991,6.92S94.9,25.743,100.8,23.5,99.412,3.468,92.66,7.4,81.719,2.065,73.3,1.223,59.537,5.432,59.537,8.8s-6.172,3.946-9.258,6.752S51.962,29.3,50,32.944,45.547,42.5,46.912,42.5Z" transform="translate(40.487 1.015)"/><path class="b" d="M62.5,20.538c.991,2.675.337,5.405-1.478,6.079s-4.115-.954-5.106-3.647-.337-5.405,1.478-6.079S61.489,17.845,62.5,20.538Z" transform="translate(48.261 14.599)"/><path class="h" d="M386.12,11.921C365.715,5.768,359.337,29.989,359.131,52.1c-.15,16.253,7.65,29.345,30.393,36.116s42.494,4.264,52.705-11.689,20.405-36.34,51-29.925,23.379,28.878,32.3,19.881S531.48,8.312,498.338,7.451,453.283,28.717,434.149,30.83,409.386,18.954,386.12,11.921Z" transform="translate(312.555 6.495)"/><path class="i" d="M436.966,90.85c-25.642,4.115-79.47,3.4-88.41,14.458s-51.415,107.786-45.9,110.068c10.193,4.264,41.689-32.356,53.547-51,8.94-14.027,12.325-37.818,12.325-37.818l88.84-17.431Z" transform="translate(262.98 79.099)"/><path class="c" d="M333.49,73.122c-14.027-2.562-24.314.43-29.757,3.4S292.268,81.2,300.759,81.2s30.187.411,30.187.411Z" transform="translate(258.072 62.825)"/><path class="j" d="M424.2,48.12C400.394,69.8,361.286,82.983,346.847,87.172s-30.187,3.741-32.3,6.808,1.7,9.352,1.7,9.352,7.65,1.272,28.9-4.264,35.274,0,56.109-13.6S424.2,48.12,424.2,48.12Z" transform="translate(273.199 41.91)"/><path class="j" d="M394.169,25.4c3.741,14.027,6.789,18.273,16.141,38.248s6.378,26.783,3.834,56.951-1.272,36.995-20.405,36.565-17.843-10.212-27.194-41.652,17-43.017,17-58.242a167.483,167.483,0,0,1,1.272-23.379Z" transform="translate(317.261 22.137)"/><path class="k" d="M434.584,90.17c19.115,16.141,24.127,46.1,2.712,46.421s-53.061,1.627-67.088-1.347,2.319-2.151,13.784,11.446c18.61,22.07,41.54,64.582,37.2,67.8-6.583,4.882-83.94-56.745-86.914-83.94S434.584,90.17,434.584,90.17Z" transform="translate(290.873 78.507)"/><path class="b" d="M339.58,70.025c-11.465-4.676-16.141-4.264-21.247,2.544s-11.484,13.6-8.51,13.6,5.611-6.789,8.94-7.65,1.272,5.106,8.921,4.246a110.573,110.573,0,0,0,15.3-2.974Z" transform="translate(268.983 58.272)"/><path class="j" d="M367.88,94.546c5.106,14.027,1.7,19.563,1.7,19.563s-1.7,3.4,8.08,4.676,34.414,0,34.414,0a270.194,270.194,0,0,1-.411-36.135C412.936,67.688,409.1,66.08,409.1,66.08Z" transform="translate(320.171 57.541)"/><path class="c" d="M390.371,25.4l-9.352,8.491a167.483,167.483,0,0,0-1.272,23.379c0,5.835-5.948,14.458-10.848,21.471,10.062.43,9.782-14.233,28.26-21.041,2.394-.879,5.611-1.7,5.611-1.7v-.393C396.263,42.177,393.626,37.314,390.371,25.4Z" transform="translate(321.059 22.137)"/><path class="l" d="M431.7,45.21c16.2,3.741,14.027,29.327,4.676,37.836s-44.626,25.436-63.329,24.221-48.441-3.4-48.441-3.4-2.562-16.571,1.683-16.571,42.512,2.544,51.434-.86S422.368,43.022,431.7,45.21Z" transform="translate(281.843 39.303)"/><path class="b" d="M395.358,38.849c-2.693,9.894-16.272,16.459-23.9,15.206s-9.352-10.511-7.631-20.573,9.183-17.319,16.833-16.066S399.716,22.783,395.358,38.849Z" transform="translate(316.109 15.065)"/><path class="a" d="M377.31,162.568c6.228,5.387,8.51,12.194,5.387,13.6s-3.965,3.741,1.983,3.4,7.65-.842,7.65-4.246-1.59-14.7.842-21.527c2.843-7.949-13.878-5.106-13.878-5.106s1.7,6.789,0,9.632a15.392,15.392,0,0,0-1.983,4.246Z" transform="translate(328.378 129.008)"/><path class="a" d="M312.507,154.4a36.079,36.079,0,0,1-16.833,11.633c-6.1,1.87-6.022,5.181-.655,5.424s13.878.748,18.03-.243c2.525-.58,6.827-3.4,13.092-4.377,2.375-.374-2.431-10.436-2.188-10.436,1.552,0-4.377,1.421-6.078,1.178C313.274,156.925,312.507,154.4,312.507,154.4Z" transform="translate(253.3 134.407)"/><path class="h" d="M366.306,14.72c-.86,13.616,14.42,21.677,14.42,21.677s6.4,34.432,31.047,33.086,23.379-20.76,23.379-20.76-42.063-30.187-43.765-30.6S366.306,14.72,366.306,14.72Z" transform="translate(318.771 12.842)"/><path class="m" d="M280.584,190.737a1.141,1.141,0,0,1-1.122-.86l-23.211-87.755H204.593l-23.211,87.793a1.161,1.161,0,1,1-2.244-.6L202.573,100.7a1.16,1.16,0,0,1,1.122-.86h53.454a1.16,1.16,0,0,1,1.122.86l23.51,88.578a1.16,1.16,0,0,1-.823,1.421Z" transform="translate(155.872 86.923)"/><path class="m" d="M252.815,112.088H190.309a1.178,1.178,0,0,1,0-2.338h62.506a1.178,1.178,0,0,1,0,2.338Z" transform="translate(164.732 95.548)"/><path class="n" d="M174.52,93.791c3.554-8.173,16.833-18.011,22.855-18.7s77.15.673,81.415,1.739S292.331,86.01,294.463,97.4s-28.429,37.537-28.429,37.537-22.444-12.082-35.891-8.173-34.47-1.87-34.47-1.87Z" transform="translate(151.887 65.217)"/><path class="a" d="M182.006,83.386c-29.719,10.6,19.713,107.132,39.969,116.708s11.222-19.713,5.854-53.828S211.838,72.725,182.006,83.386Z" transform="translate(150.33 71.058)"/><path class="a" d="M258.89,83.386c29.719,10.6-19.713,107.132-39.969,116.708s-11.222-19.713-5.873-53.828S229.039,72.725,258.89,83.386Z" transform="translate(179.587 71.058)"/><path class="a" d="M208.517,143.174c-8.884,7.481-17.768,15.636-16.347,20.966s2.132,20.573,9.95,12.082,16.347-25.231,16.347-25.231,14.663,30.991,17.413,25.586,6.041-10.661,5.611-17.413-17.057-18.123-17.057-18.123a15.355,15.355,0,0,0-9.595-1.87,10.381,10.381,0,0,0-6.322,4Z" transform="translate(167.117 121.039)"/><path class="k" d="M232.161,25.37c-29.775,10.53-59.532,51.677-65.947,66.209s-7.051,31.459,5.274,35.05c8.753,2.544,30.879,1.4,30.879,1.4l78.778-.281s39.277,1.347,45.636-.842c8.211-2.824,9.557-23.79-6.078-45.86s-47.749-55.417-67.5-55.174S232.161,25.37,232.161,25.37Z" transform="translate(140.742 22.111)"/><ellipse class="b" cx="5.199" cy="3.329" rx="5.199" ry="3.329" transform="translate(396.526 39.213) rotate(-60)"/><path class="b" d="M200.719,20.266c1.2,2.6.823,5.33-.842,6.116s-4-.711-5.218-3.31-.823-5.349.842-6.135S199.5,17.648,200.719,20.266Z" transform="translate(168.798 14.59)"/><path class="h" d="M221.753,4.092c14.663,8.1,15.524,20.779,14.364,28.485s-2.3,14.495-2.057,17.45-4.994,7.837-10.9,10.137-8.847.636-11.222-.767-12.007-5.143-11.11-8.884-1.141-9.744-1.01-17.824-11.035-10.006-4.246-14.757a17.431,17.431,0,0,1,5.143-2.824s-10.81-2.17-8.6-6.022C195.194,3.68,206.6,7.664,206.6,7.664S198.28,4.859,203.91.987C208.025-1.856,218.031,2.034,221.753,4.092Z" transform="translate(166.936 0.017)"/><path class="b" d="M225.246,13.761c-2.824-4.377-6.022,4.994-17.955,8.454s-.655-5.517-.655-5.517a44.886,44.886,0,0,1-7.481,4.115c-1.87.374-1.01,11.222-.9,12.7s3.348,8.08,6.939,9.875,4.751-2.039,4.994-4.62,5.779-2.693,5.779-.767.636,6.808,3.853,5.387,7.818-11.222,7.481-13.466S225.246,13.761,225.246,13.761Z" transform="translate(172.289 11.014)"/><path class="o" d="M167,64.69a24.593,24.593,0,0,1,5.33-1.4,26.312,26.312,0,0,1,2.749-.281,26.977,26.977,0,0,1,2.749,0,42.042,42.042,0,0,1,5.517.524,48.631,48.631,0,0,1,5.387,1.178,73.074,73.074,0,0,1,10.38,3.741c1.683.729,3.348,1.534,4.956,2.394.823.43,1.627.879,2.431,1.328s1.571.935,2.357,1.44H208.6c2.581,0,5.162.15,7.724.224l3.872.131,3.853.112h46.047c1.87-.9,3.741-1.721,5.611-2.525s3.741-1.608,5.611-2.338,3.741-1.478,5.742-2.132,3.872-1.272,5.854-1.87c.991-.262,1.982-.524,2.974-.748s2.02-.411,3.03-.561a21.492,21.492,0,0,1,3.1-.243h3.067l1.534.187,1.515.262c1.01.206,2,.449,2.974.748a26.8,26.8,0,0,1,2.9,1.047,21.883,21.883,0,0,1,2.731,1.365h0a22.75,22.75,0,0,0-2.768-1.234,27.38,27.38,0,0,0-2.9-.916,25.938,25.938,0,0,0-2.974-.636l-1.5-.206-1.5-.131h-3.03a20.142,20.142,0,0,0-2.974.355c-.991.168-1.964.393-2.955.655s-1.87.524-2.918.823c-1.87.58-3.853,1.253-5.742,1.87s-3.741,1.44-5.611,2.207-3.741,1.534-5.611,2.338-3.741,1.627-5.611,2.469h-.262c-5.143,0-10.305-.168-15.449-.318l-7.724-.206-7.706-.224H208.353c-.767-.468-1.552-.935-2.338-1.365l-2.394-1.309c-1.608-.842-3.254-1.646-4.9-2.394a71.968,71.968,0,0,0-10.193-3.741c-1.758-.486-3.516-.935-5.293-1.272a40.642,40.642,0,0,0-5.405-.673,33.066,33.066,0,0,0-5.443.112A26.185,26.185,0,0,0,167,64.9Z" transform="translate(145.342 54.836)"/><path class="m" d="M267.939,108.946l-84.95-.823L179.435,55.23a5.966,5.966,0,0,1,5.948-6.34h80.049a5.966,5.966,0,0,1,5.948,6.34Z" transform="translate(156.155 42.581)"/><path class="p" d="M209.234,71.167h-4.62a4.246,4.246,0,0,1,0-8.473h4.62a4.246,4.246,0,1,1,0,8.473Z" transform="translate(174.629 54.587)"/><path class="m" d="M456.543,206.737a1.141,1.141,0,0,1-1.122-.86l-23.267-87.9H380.365l-23.267,87.9a1.178,1.178,0,0,1-2.263-.6L378.327,116.4a1.178,1.178,0,0,1,1.141-.86h53.584a1.16,1.16,0,0,1,1.122.86l23.491,88.84a1.159,1.159,0,0,1-.823,1.421Z" transform="translate(308.808 100.587)"/><path class="m" d="M428.7,127.812H366.049a1.178,1.178,0,0,1,0-2.338H428.7a1.178,1.178,0,1,1,0,2.338Z" transform="translate(317.681 109.225)"/><path class="q" d="M404.054,171.324A31.122,31.122,0,0,0,435.232,140.2V80.838A31.328,31.328,0,0,1,466.56,49.51v84.912a43.017,43.017,0,0,1-43.017,43.017H358.306a3.086,3.086,0,0,1,0-6.172Z" transform="translate(309.153 43.12)"/><path class="r" d="M358.254,170.3H404a31.122,31.122,0,0,0,31.178-31.122V79.81a31.326,31.326,0,0,1,19.784-29.119l0,81a43.017,43.017,0,0,1-43.017,43.017h-56.3a2.9,2.9,0,0,1-.374-1.44,3.086,3.086,0,0,1,2.974-2.974Z" transform="translate(309.205 44.148)"/><path class="m" d="M83.768,240.321A2.637,2.637,0,0,1,81,237.834V81.1a2.637,2.637,0,0,1,2.768-2.488H547.606a2.637,2.637,0,0,1,2.843,2.488V237.011a2.805,2.805,0,1,1-5.611,0V83.645H86.611V237.89a2.656,2.656,0,0,1-2.843,2.431Z" transform="translate(70.495 68.442)"/><path class="m" d="M361.464,110.021H292.935a2.974,2.974,0,0,1-2.749-1.87l-25.53-61.234a2.977,2.977,0,1,1,5.5-2.282l24.763,59.495h66.546a2.974,2.974,0,0,1,0,5.948Z" transform="translate(230.135 37.279)"/><path class="m" d="M105.651,207.206a1.2,1.2,0,0,1-1.122-.86L81.486,119.189H30.165L7.123,206.346a1.178,1.178,0,0,1-1.421.823,1.16,1.16,0,0,1-.823-1.421L28.164,117.73a1.16,1.16,0,0,1,1.122-.86H82.366a1.16,1.16,0,0,1,1.122.86l23.285,88.017a1.16,1.16,0,0,1-.823,1.421Z" transform="translate(4.211 101.745)"/><path class="m" d="M78.066,129H15.971a1.16,1.16,0,0,1,0-2.3H78.066a1.16,1.16,0,0,1,0,2.3Z" transform="translate(13.019 110.3)"/><path class="s" d="M61.87,172.187a30.823,30.823,0,0,1-30.823-30.916V82.412A31.047,31.047,0,0,0,0,51.44V135.6a42.681,42.681,0,0,0,42.681,42.681h64.526a3.067,3.067,0,1,0,0-6.135Z" transform="translate(0 44.8)"/><path class="t" d="M101.889,171.178H56.552A30.823,30.823,0,0,1,25.73,140.262V81.4A31.085,31.085,0,0,0,6.11,52.6v80.311a42.681,42.681,0,0,0,42.681,42.681h55.791a3.03,3.03,0,0,0,.374-1.421,3.067,3.067,0,0,0-3.067-2.992Z" transform="translate(5.318 45.809)"/><path class="m" d="M152.1,108.683H84.186a2.955,2.955,0,0,1,0-5.891h66.246l32.525-53.528a2.955,2.955,0,0,1,5.05,3.067l-33.4,54.931A2.918,2.918,0,0,1,152.1,108.683Z" transform="translate(70.901 41.722)"/></g></g></svg>