<svg xmlns="http://www.w3.org/2000/svg" width="75.517" height="72.585" viewBox="0 0 75.517 72.585"><defs><style>.a{fill:#70b9d6;}.b{fill:#1d84b5;}</style></defs><g transform="translate(0 -0.03)"><g transform="translate(0 0.03)"><path class="a" d="M76.743,63.29h0a13.66,13.66,0,0,0-1.453.051,20.411,20.411,0,0,1,19,20.341v7.254a3.267,3.267,0,0,1-3.26,3.267h2.875a3.267,3.267,0,0,0,3.26-3.267V83.682A20.418,20.418,0,0,0,76.743,63.29Z" transform="translate(-26.872 -22.609)"/><path class="a" d="M76.836,30.3a11.157,11.157,0,0,0-1.286.09,10.6,10.6,0,0,1,0,21.029,11.158,11.158,0,0,0,1.286.09,10.611,10.611,0,1,0,0-21.222Z" transform="translate(-26.965 -10.831)"/><path class="b" d="M71.126,51.941A11.576,11.576,0,1,1,82.7,40.366,11.576,11.576,0,0,1,71.126,51.941Zm0-21.222a9.646,9.646,0,1,1,0,.013Z" transform="translate(-21.254 -10.295)"/><path class="b" d="M91.634,94.658H71.788V92.729H91.634a2.3,2.3,0,0,0,2.3-2.3v-7.28A19.473,19.473,0,0,0,69.422,64.382l-.5-1.865a21.408,21.408,0,0,1,26.939,20.63V90.4a4.231,4.231,0,0,1-4.225,4.257Z" transform="translate(-24.599 -22.073)"/><path class="a" d="M51.775,9.61v7.357a.881.881,0,0,1-.585.836,15.556,15.556,0,0,1-4.109.81,15.113,15.113,0,0,0,5.788-.81.881.881,0,0,0,.585-.836V9.61Z" transform="translate(-16.804 -3.45)"/><path class="b" d="M44.966,19.449a14.791,14.791,0,0,1-5.016-.881,1.685,1.685,0,0,1-1.1-1.582V9.61h1.608v7.376a.071.071,0,0,0,.039.064,13.588,13.588,0,0,0,9.151,0,.071.071,0,0,0,.039-.071V9.61h1.608v7.357a1.666,1.666,0,0,1-1.132,1.595,16.161,16.161,0,0,1-5.2.887Z" transform="translate(-13.866 -3.45)"/><path class="b" d="M42.716,9.213a.926.926,0,0,1-.3-.051L32.729,5.348a.8.8,0,0,1,0-1.479L42.375.088a.772.772,0,0,1,.585,0l9.7,3.781a.8.8,0,0,1,0,1.479L43.018,9.162A.952.952,0,0,1,42.716,9.213ZM35.243,4.6l7.473,2.945L50.182,4.6,42.716,1.676Z" transform="translate(-11.507 -0.03)"/><rect class="b" width="1.608" height="6.109" transform="translate(40.071 4.566)"/><path class="b" d="M59.267,90.8H22.155a.965.965,0,0,1-.965-.965V64a.965.965,0,0,1,.965-.965H59.267a.965.965,0,0,1,.965.965V89.837A.965.965,0,0,1,59.267,90.8ZM23.119,88.873H58.3V64.944H23.119Z" transform="translate(-7.563 -22.52)"/><path class="b" d="M57.28,109.441H24.142a2.958,2.958,0,0,1-2.952-2.952v-2.315a.965.965,0,0,1,.965-.965H59.267a.965.965,0,0,1,.965.965v2.315a2.958,2.958,0,0,1-2.952,2.952Zm-34.161-4.3v1.35a1.022,1.022,0,0,0,1.023,1.022H57.28A1.029,1.029,0,0,0,58.3,106.49v-1.35Z" transform="translate(-7.563 -36.857)"/><path class="b" d="M89.146,98.61H80.4V96.681h7.807V92.34h1.929v5.305a.965.965,0,0,1-.99.965Z" transform="translate(-28.696 -32.977)"/><path class="b" d="M32.932,30.405H.965A.965.965,0,0,1,0,29.44V6.785A.965.965,0,0,1,.965,5.82H22.186V7.749H1.929V28.476H31.968v-11.3H33.9V29.44A.965.965,0,0,1,32.932,30.405Z" transform="translate(0 -2.097)"/><path class="b" d="M54.334,86.453H41.8V78.26H54.334Zm-10.8-1.736H52.6V80.022H43.536Z" transform="translate(-14.919 -27.952)"/><rect class="b" width="17.132" height="1.929" transform="translate(5.788 9.511)"/><rect class="b" width="9.717" height="1.929" transform="translate(13.209 15.048)"/><rect class="b" width="4.18" height="1.929" transform="translate(5.788 15.048)"/><rect class="b" width="3.743" height="1.929" transform="translate(24.366 20.713)"/><rect class="b" width="15.62" height="1.929" transform="translate(5.788 20.713)"/><rect class="b" width="66.353" height="1.929" transform="translate(9.164 70.655)"/><path class="b" d="M12.2,72.479H6.964a.8.8,0,0,1-.8-.823V66.434a.8.8,0,0,1,.8-.8H12.2a.8.8,0,0,1,.8.8v5.222a.8.8,0,0,1-.8.823ZM7.768,70.871h3.627V67.238H7.768Z" transform="translate(-2.198 -23.444)"/><path class="b" d="M7.661,55.608h-6.1a.8.8,0,0,1-.785-.8V48.734a.8.8,0,0,1,.785-.8H7.642a.8.8,0,0,1,.8.8V54.8a.8.8,0,0,1-.785.8ZM2.388,54h4.5V49.538h-4.5Z" transform="translate(-0.278 -17.127)"/></g></g></svg>