<svg xmlns="http://www.w3.org/2000/svg" width="72.649" height="72.585" viewBox="0 0 72.649 72.585"><defs><style>.a{fill:#70b9d6;}.b{fill:#1d84b5;}</style></defs><g transform="translate(0)"><g transform="translate(0 0)"><rect class="a" width="21.986" height="2.991" transform="translate(25.328 59.278)"/><rect class="a" width="2.582" height="27.15" transform="translate(31.511 10.666)"/><path class="b" d="M68.259,65.443H4.419A4.4,4.4,0,0,1,0,61.039V22.4A4.4,4.4,0,0,1,4.39,18H5.452v2.152H4.39A2.238,2.238,0,0,0,2.152,22.4V61.039A2.238,2.238,0,0,0,4.39,63.277H68.23A2.238,2.238,0,0,0,70.5,61.039V22.4a2.238,2.238,0,0,0-2.238-2.252H38.993V18H68.259a4.4,4.4,0,0,1,4.39,4.39V61.039A4.4,4.4,0,0,1,68.259,65.443Z" transform="translate(0 -5.088)"/><path class="b" d="M35.811,38.893H18.416V36.741h16.3V11.154l-10.387-9H8.252V36.741h3.142v2.152H7.176A1.076,1.076,0,0,1,6.1,37.817V1.076A1.076,1.076,0,0,1,7.176,0H24.729a1.09,1.09,0,0,1,.717.265L36.521,9.849a1.1,1.1,0,0,1,.351.818v27.15a1.076,1.076,0,0,1-1.062,1.076Z" transform="translate(-1.724 0)"/><path class="b" d="M42.678,12.166H31.466A1.076,1.076,0,0,1,30.39,11.09V1.5h2.152v8.514H42.678Z" transform="translate(-8.591 -0.424)"/><rect class="b" width="70.497" height="2.152" transform="translate(1.076 51.582)"/><path class="b" d="M49.193,79.955a3.673,3.673,0,1,1,3.673-3.673A3.673,3.673,0,0,1,49.193,79.955Zm0-5.552a1.879,1.879,0,1,0,1.879,1.879A1.879,1.879,0,0,0,49.193,74.4Z" transform="translate(-12.868 -20.526)"/><path class="b" d="M56.9,89.913H34.886a1.076,1.076,0,0,1-1.076-1.076V82.216a1.076,1.076,0,0,1,1.076-1.076H56.9a1.076,1.076,0,0,1,1.076,1.076v6.621A1.076,1.076,0,0,1,56.9,89.913ZM35.983,87.761H55.8V83.292H35.962Z" transform="translate(-9.558 -22.938)"/><path class="b" d="M61.542,98.131H24.156a1.076,1.076,0,0,1-1.076-1.076v-.23a6.456,6.456,0,0,1,6.456-6.456H56.162a6.456,6.456,0,0,1,6.456,6.456v.23a1.076,1.076,0,0,1-1.076,1.076ZM25.318,95.979H60.387a4.3,4.3,0,0,0-4.225-3.457H29.536a4.3,4.3,0,0,0-4.218,3.457Z" transform="translate(-6.524 -25.547)"/><rect class="b" width="27.373" height="2.152" transform="translate(8.952 70.433)"/><rect class="b" width="27.373" height="2.152" transform="translate(36.325 70.433)"/><path class="b" d="M60.046,39.165H54.157a.9.9,0,0,1-.9-.9V32.387a.9.9,0,0,1,.9-.9h5.889a.9.9,0,0,1,.918.9v5.882a.9.9,0,0,1-.918.9Zm-5.021-1.793h4.1V33.29H55.053Z" transform="translate(-15.056 -8.902)"/><path class="b" d="M60.046,57.742H54.157a.9.9,0,0,1-.9-.9V50.957a.9.9,0,0,1,.9-.9h5.889a.9.9,0,0,1,.918.9v5.889a.9.9,0,0,1-.918.9Zm-5.021-1.793h4.1v-4.1H55.053Z" transform="translate(-15.056 -14.151)"/><rect class="b" width="18.65" height="1.793" transform="translate(48.928 22.94)"/><rect class="b" width="18.65" height="1.793" transform="translate(48.928 28.47)"/><rect class="b" width="12.912" height="1.793" transform="translate(54.666 36.045)"/><rect class="b" width="3.127" height="1.793" transform="translate(48.928 36.045)"/><rect class="b" width="18.65" height="1.793" transform="translate(48.928 41.582)"/><path class="b" d="M17.8,62.667H16.01V48.514H14.023V62.667H12.23V47.646a.9.9,0,0,1,.9-.9h3.744a.9.9,0,0,1,.933.9Z" transform="translate(-3.457 -13.216)"/><path class="b" d="M23.009,62.667H21.216V48.515H19.293V62.667H17.5V47.647a.9.9,0,0,1,.9-.9h3.752a.9.9,0,0,1,.861.9Z" transform="translate(-4.947 -13.216)"/><path class="b" d="M19.926,45.823l-3-4.627-2.991,4.627-1.506-.976,3.744-5.789a.932.932,0,0,1,1.506,0l3.766,5.789Z" transform="translate(-3.514 -10.933)"/><rect class="b" width="9.182" height="2.152" transform="translate(9.669 7.955)"/><rect class="b" width="18.98" height="2.152" transform="translate(10.552 14.827)"/><rect class="b" width="3.687" height="2.152" transform="translate(25.845 21.691)"/><rect class="b" width="12.316" height="2.152" transform="translate(10.552 21.691)"/><rect class="b" width="11.348" height="2.152" transform="translate(18.184 28.556)"/></g></g></svg>