<svg xmlns="http://www.w3.org/2000/svg" width="390.425" height="345" viewBox="0 0 390.425 345"><defs><style>.a{fill:#829dff;}.b{fill:#6783e6;}.c{fill:#7c95ef;}.d{fill:#7790eb;}.e{fill:#0d1e51;}.f{fill:#00ebc7;}.g,.k{fill:#fff;}.h{fill:#0c1014;}.i{fill:#0c1630;}.j{fill:#1e252a;}.k{opacity:0.41;}.l{fill:#d0d7f3;}.m{fill:#273d83;}.n{fill:#e5e8f5;}.o{fill:#28323c;}</style></defs><g transform="translate(-18.278 -162.243)"><g transform="translate(18.278 162.243)"><path class="a" d="M83.562,109.274c-5.249,5.04-7.236,12.882-2.238,18.947a14.639,14.639,0,0,0,19.721,2.363c14.221-10.979-.586-31.223-15.936-27.02a2.551,2.551,0,0,0,.669,4.977c4.5.251,9.285.418,12.882,3.576a9.327,9.327,0,0,1,.774,12.966c-8.365,10.268-22.879-4.852-14.1-14.054a1.255,1.255,0,0,0-1.778-1.757Z" transform="translate(69.625 -8.917)"/><path class="b" d="M150.89,116.188c1.924,7.152,4.057,14.221,6.274,21.289a2.217,2.217,0,0,0,3.6,1.234c5.751-3.89,11.5-7.738,16.94-12.046a2.091,2.091,0,0,0-.23-3.221c-6.274-4.371-14.974-10.833-23-10.875-2.091,0-3.492,2.886-1.422,4.183,3.262,1.882,7.173,2.551,10.666,3.994a58.283,58.283,0,0,1,11.544,6.169l.251-3.513c-6.086,3.743-11.816,7.947-17.588,12.13l3.409.69c-2.468-6.985-5-13.907-7.738-20.788a1.4,1.4,0,0,0-2.635.857Z" transform="translate(148.689 1.527)"/><path class="c" d="M171.348,142.37a165.817,165.817,0,0,0,24.97-14.3,2.656,2.656,0,0,0-2.949-4.413A164.439,164.439,0,0,0,169.8,139.191C168.316,140.32,169.4,143.373,171.348,142.37Z" transform="translate(168.571 13.198)"/><path class="d" d="M26.348,160.251a165.777,165.777,0,0,0-7.487-27.793,2.656,2.656,0,0,0-5.019,1.715,163.856,163.856,0,0,0,9.034,26.769c.732,1.715,3.89,1.422,3.472-.69Z" transform="translate(-0.981 21.416)"/><path class="e" d="M37.687,106.57l-.481-.418a5.412,5.412,0,0,0-7.633,7.675l.418.481a5.442,5.442,0,1,0,7.7-7.7Z" transform="translate(14.554 -7.196)"/><path class="f" d="M207.092,327.3S117.354,348.212,81.3,312.116l12.9-86.1c3.911-24.761,1.568-72.38,20.537-89.278a32.73,32.73,0,0,1,7.194-4.894c13.3-6.42,36.953-9.892,59.665-9.975,27.584-.1,55.984,20.767,63.22,47.389l-29.843,69.849Z" transform="translate(72.745 11.676)"/><path class="g" d="M182.554,155.258s40.195,77.378,20.244,81.561C137.11,250.371,99.006,261.5,99.006,261.5L95.66,287.01c.983,3.848,132.86.523,148.482-17.211,11.021-12.548,25.681-41.408-5.5-103.979l-9.494-21.289Z" transform="translate(88.416 36.405)"/><path class="g" d="M172.329,142.126,72.2,180.9l-3.137-52.533L47.625,120s-31.1,84.3,7.78,100.006,82.69-13.3,82.69-13.3Z" transform="translate(23.145 9.635)"/><path class="f" d="M161.761,124.43c-34.883,11.126-55.733,24.2-104.941,44.691l25.263,56.34,43.562-13.97Z" transform="translate(46.03 14.47)"/><path class="f" d="M135.17,153.882l25.388,59,57.281-10.456L179.255,135.96,133.56,153.882" transform="translate(129.776 27.052)"/><path class="h" d="M120.364,165.04c12.192-.669,24.238-.146,36.43,0,1.067,0,1-1.485,0-1.61a179.852,179.852,0,0,0-36.43.167c-.92,0-.941,1.485,0,1.422Z" transform="translate(114.614 56.11)"/><path class="h" d="M157.464,131c-41.22,3.723-13.029,64.475-2.468,82.878a.92.92,0,0,0,1.589-.92c-10.457-18.592-38.605-75.14,1-80.954.565,0,.439-1.067-.125-1Z" transform="translate(132.16 21.638)"/><path class="h" d="M97.655,147.853C92.594,168.1,87.2,188.947,85.86,209.8c0,.857,1.4,1.067,1.527.188,2.949-20.7,7.968-41.178,11.293-61.861.1-.648-.857-.962-1.025-.272Z" transform="translate(77.721 39.607)"/><path class="i" d="M182.726,133.274q.941-13.05,1.9-26.1c6.839-1.924,10.456-10.687,7.654-17.253a16.73,16.73,0,0,0-17.5-9.223c4.434-3.032,4.183-10.247.439-14.2s-9.348-5.228-14.639-5.437-10.791.46-16.082-.523c-4.664-.878-9.243-3.011-13.97-2.426s-9.244,5.918-6.692,9.934c-6.818-1-14.179-1.9-20.223,1.38s-9.1,12.548-3.89,17.128A7.424,7.424,0,0,0,97.36,96.613,12.088,12.088,0,0,0,107,101.9a36.012,36.012,0,0,0,11.4-1.673" transform="translate(89.122 -58.012)"/><path class="g" d="M173.924,102.612l-1.38,18.09s15.392,2.091,11,16.1-14.89,7.884-14.89,7.884-2.635,35.949-39.463,24.552c-29.278-9.076-27.521-47.012-23.8-79.469A21.666,21.666,0,0,1,131.073,70.95l22.147,4.329a25.681,25.681,0,0,1,20.7,27.333Z" transform="translate(96.816 -44.332)"/><path class="g" d="M163.579,101.71,153.666,154.6a21.227,21.227,0,0,1-25.786,16.73h0A21.227,21.227,0,0,1,111.9,146.966l5.4-30.324Z" transform="translate(105.781 -10.325)"/><path class="e" d="M119.522,118.806s.167.753-.92,1.276-2.928-.586-3.409-2.384a16.73,16.73,0,0,1-.4-5.96l.356-7.069c.627-10.017,1.527-18.111,2.091-18.069s.356,8.156-.272,18.173c-.167,2.489-.335,4.852-.5,7.048a17.922,17.922,0,0,0,0,5.521,2.289,2.289,0,0,0,2.091,2.091C119.313,119.434,119.334,118.806,119.522,118.806Z" transform="translate(109.183 -26.814)"/><path class="e" d="M111.254,116a42.223,42.223,0,0,1,4.935,2.342,32.854,32.854,0,0,0,12.548,2.844,32.394,32.394,0,0,0,12.548-2.321,42.307,42.307,0,0,1,5.019-2.091c.125.167-1.422,1.673-4.517,3.242a28.191,28.191,0,0,1-26.162-.544C112.613,117.673,111.128,116.1,111.254,116Z" transform="translate(105.426 5.27)"/><path class="e" d="M114.706,108.05c.209-.167,1.025.606,2.572,1.3a8.365,8.365,0,0,0,11.084-3.555c.857-1.464,1.067-2.572,1.338-2.551s.46,1.234-.23,3.074a8.574,8.574,0,0,1-12.8,4.183C115.061,109.326,114.538,108.176,114.706,108.05Z" transform="translate(109.168 -8.655)"/><path class="e" d="M137,107.877c0-.272.9-.4,1.9-1.025a2.342,2.342,0,0,0,1.108-1.443c.167-.648,0-1.255-.523-1.422a.857.857,0,0,0-.92.125l-1.485-.774c1.4-2.865,2.635-4.831,2.991-4.664s-.272,2.4-1.464,5.354l-1.464-.774a2.4,2.4,0,0,1,2.949-.9,2.509,2.509,0,0,1,1.527,1.652,2.928,2.928,0,0,1,0,1.9A3.388,3.388,0,0,1,139.531,108C137.9,108.442,137,108.065,137,107.877Z" transform="translate(133.531 -13.647)"/><path class="e" d="M123.447,86.525c-.188-.439,1.736-1.443,4.183-.795s3.6,2.489,3.262,2.886-1.778-.586-3.681-1.067S123.593,87.048,123.447,86.525Z" transform="translate(118.726 -27.994)"/><path class="e" d="M108.218,84.378c-.209-.418,1.694-1.673,4.371-1.443s4.35,1.8,4.057,2.091-2.091-.272-4.183-.439S108.427,84.817,108.218,84.378Z" transform="translate(102.104 -30.845)"/><path class="i" d="M172.8,125.644c-10.268-10.017-13.3-26.727-16.082-40.8a36.012,36.012,0,0,1-33.586,4.371A53.83,53.83,0,0,1,111.165,99.67a5.333,5.333,0,0,1-4.183,1.171c-1.736-.523-2.51-2.489-2.907-4.183a30.365,30.365,0,0,1,.586-17.065,20.5,20.5,0,0,1,11.46-12.255c5.73-2.238,12.213-1.276,18.173.272a101.385,101.385,0,0,1,25.681,10.624c7.863,4.6,15.413,10.687,18.822,19.177s3.3,24.97-4.726,29.278" transform="translate(96.564 -49.274)"/><path class="e" d="M125.134,95.952c-.481,0-.795-1.3-.669-2.844s.586-2.74,1.067-2.7.774,1.3.669,2.823S125.615,95.994,125.134,95.952Z" transform="translate(119.82 -22.657)"/><path class="e" d="M110.99,94.163c-.481,0-.774-1.318-.669-2.844s.586-2.74,1.067-2.719.774,1.317.669,2.844S111.471,94.184,110.99,94.163Z" transform="translate(104.393 -24.632)"/><path class="g" d="M41,146.585s4.434-27.312,9.766-27,15.936,0,15.936,0,.878-25.974,3.827-21.833,3.89,39.086-7.508,55.859Z" transform="translate(28.766 -15.13)"/><path class="g" d="M121.647,200.46s-47.661,8.365-46.72,14.535a44.963,44.963,0,0,0,4.183,12.4l42.432-.983Z" transform="translate(65.776 97.441)"/><path class="j" d="M246.78,266.573l-.376-6.588-98.124-6L115.363,165.94,7.64,171.858l36.765,95.2Z" transform="translate(-7.64 59.77)"/><path class="k" d="M36,193.191a7.989,7.989,0,1,0,7.55-8.365A7.989,7.989,0,0,0,36,193.191Z" transform="translate(23.305 80.367)"/><path class="k" d="M34.53,195.055a11.168,11.168,0,1,0,10.457-11.774A11.167,11.167,0,0,0,34.53,195.055Z" transform="translate(21.684 78.671)"/><path class="l" d="M157.668,67.168c-1.171,2.447,3.012,66.4,3.012,66.4l31.369-2.614-3.681,16.9,15.392-17.358,30.8-3.555L232.7,64.93Z" transform="translate(155.86 -50.463)"/><path class="m" d="M48.419,156.879c.439-2.865.356-5.6,1.966-8.114,3.2-5.04,7.738-3.764,12.13-1.568s8.679,3.618,13.552,1.506c7.591-3.283,11.168-14.639,3.911-20.139-2.342-1.757-4.664,1.129-4.35,3.346.439,3.074,1.966,6.462-.669,9.118-3.534,3.555-7.675.565-11.188-1.025a14.639,14.639,0,0,0-11.795-.5c-6.755,2.74-11.669,11.9-6.274,18.09a1.652,1.652,0,0,0,2.74-.711Z" transform="translate(31.385 18.388)"/><path class="c" d="M94.527,152.1a165.4,165.4,0,0,0,27.187-9.6,2.656,2.656,0,0,0-2.091-4.873A163.414,163.414,0,0,0,93.628,148.7c-1.652.857-1.108,3.973.941,3.409Z" transform="translate(85.137 28.705)"/><path class="n" d="M71.89,150.888c1.924,7.152,4.036,14.221,6.274,21.289a2.217,2.217,0,0,0,3.6,1.234c5.73-3.89,11.481-7.738,16.919-12.046a2.091,2.091,0,0,0-.209-3.221c-6.274-4.371-14.974-10.833-23-10.875-2.091,0-3.492,2.886-1.4,4.078,3.262,1.882,7.173,2.551,10.645,4.015a57.384,57.384,0,0,1,11.565,6.169c0-1.192.167-2.363.23-3.534-6.065,3.743-11.795,7.947-17.588,12.13l3.43.69c-2.468-6.985-5-13.907-7.738-20.788-.586-1.464-3.053-.669-2.635.857Z" transform="translate(62.476 39.395)"/><path class="m" d="M78.605,185.954a169.522,169.522,0,0,0,28.776,0,2.6,2.6,0,1,0-.314-5.186,167.318,167.318,0,0,0-28.191,1.673c-1.84.251-2.405,3.3-.272,3.472Z" transform="translate(68.309 75.893)"/><path class="l" d="M10.59,59.07l5.333,63.743H133.349l6.483,22.44,6.859-24.594,22.377-1.3-10.31-57.113Z" transform="translate(-4.421 -56.858)"/><path class="g" d="M18.5,72.049A876.724,876.724,0,0,1,139.6,74.141c1.422.146,1.443-2.091,0-2.238A873.489,873.489,0,0,0,18.5,70.083C17.24,70.083,17.219,72.175,18.5,72.049Z" transform="translate(3.171 -46.247)"/><path class="g" d="M19.585,78.046a880,880,0,0,1,121.107,2.091c1.422.146,1.422-2.091,0-2.238A873.54,873.54,0,0,0,19.585,76.122c-1.255,0-1.276,2.091,0,1.945Z" transform="translate(4.36 -39.675)"/><path class="g" d="M19.7,82.433c27.187,1.025,54.018-1.15,81.163,1.359,1.422.125,1.443-2.091,0-2.238-27.187-1.861-54.018-.711-81.163-1.087a.983.983,0,1,0,0,1.966Z" transform="translate(4.452 -33.522)"/><path class="g" d="M166.45,91.017s11.1,24.949,14.221,23.653S212.48,95.534,212.48,95.534,200.706,73.2,198.259,71.882,166.45,91.017,166.45,91.017Z" transform="translate(165.669 -42.943)"/><path class="o" d="M198.227,71.841c.46.167-2.97,10.456-7.633,22.753l-.167.439-.251.669h-.69c-12.861-2.091-23.151-4.183-23-4.643s10.457.837,23.339,2.928l-.962.544.167-.439C193.626,81.587,197.788,71.674,198.227,71.841Z" transform="translate(165.701 -42.923)"/><path class="o" d="M171.573,100.31c-.46-.1.251-4.183,1.61-9.244s2.844-8.951,3.3-8.783-.272,4.183-1.61,9.223S172.033,100.393,171.573,100.31Z" transform="translate(171.107 -31.531)"/><path class="o" d="M196.794,82.365c0,.481-4.183.23-8.993-.544s-8.8-1.8-8.721-2.259,4.183-.23,8.993.544S196.878,81.884,196.794,82.365Z" transform="translate(179.452 -34.751)"/></g></g></svg>