<svg xmlns="http://www.w3.org/2000/svg" width="461.883" height="411.267" viewBox="0 0 461.883 411.267"><defs><style>.a{fill:#fff;}.b{fill:#e4ebf2;}.c{fill:#0c1630;}.d{fill:#0b0b3f;}.e{fill:#111159;}.f{fill:#2982d3;}.g{fill:#2b2b7f;}.h{fill:#0f0e31;}.i{fill:#00ebc7;}</style></defs><g transform="translate(0 0.001)"><g transform="translate(0 -0.001)"><path class="a" d="M120.54,163.845c13.482-8.792,34.013-5.862,34.013-5.862v19.312Z" transform="translate(70.423 92.025)"/><path class="b" d="M159.83,153.37c-13.482,4.1-32.255,18.187-32.255,18.187s-.586,37.515,5.862,36.928,14.084-18.171,18.773-21.1,17-15.842,17-15.842Z" transform="translate(74.525 89.604)"/><path class="a" d="M119.06,160.921c18.757-1.758,35.819,2.3,43.978,9.394,13.482,11.723,15.842,17.585,3.517,19.93a35.6,35.6,0,0,1-29.1-8.365C132.7,177.128,121.4,177.4,121.4,177.4Z" transform="translate(69.559 93.777)"/><path class="b" d="M143.623,158.92c-8.808,8.808-14.67,22.29-6.464,18.187s17.015-7.034,17.015-9.379S143.623,158.92,143.623,158.92Z" transform="translate(77.837 92.847)"/><path class="a" d="M29.023,51,20.31,96.309s39.02,22,39.02,20.342-.412-22-.412-22Z" transform="translate(11.866 29.797)"/><path class="a" d="M76.28,71.048c4.5,16.825,7.921,41.507-4.974,41.507S24,90.059,24,72.632,34.408,41.09,47.241,41.09,69.626,46.049,76.28,71.048Z" transform="translate(14.022 24.007)"/><path class="c" d="M67.613,47.225C49.347,54.7,51.676,65.7,58.33,78.577S83.963,89.968,83.963,89.968l.507,3.961S70.782,91.853,67.043,93.1,74.5,104.3,77.42,103.481a13.228,13.228,0,0,1,6.638.412s7.921,17.015,2.487,18.678-30.766-9.125-36.992-14.939,2.915-23.668,2.915-23.668-3.327-2.9-7.066-6.226c-1.584,5.4-7.462,11.216-12.452,14.527a20.6,20.6,0,0,1-10.377,3.327S13.86,66.093,18.5,53.245,44.991,37.466,52.88,39.161,67.613,47.225,67.613,47.225Z" transform="translate(10.014 22.625)"/><path class="a" d="M45.243,73.073C41.5,61.033,40.285,60.3,38.906,59.053c-4.578-4.151-13.7-1.584-6.654,10.377C37.766,78.808,45.243,73.073,45.243,73.073Z" transform="translate(17.334 33.42)"/><path class="d" d="M33.819,203.28,30.92,292.5H87.271c1.378-40.62,2.6-73.033,2.6-73.033Z" transform="translate(18.064 118.763)"/><path class="e" d="M45.418,198.56,6.81,223.48S8.7,259.331,9.266,295.261h79.7c5.973-33.031,11.09-64.589,13.735-89.224Z" transform="translate(3.979 116.006)"/><path class="f" d="M14.28,98.959l7.161-20.864s26.029-1.584,55.733,31.13c12.452,13.7,14.258,55.733,14.258,55.733Z" transform="translate(8.343 45.619)"/><path class="e" d="M8.78,107.2s4.974-23.668,20.595-21.8c10.2,1.236,48.272,9.315,66.839,52.28,15.842,36.532,9.125,114.572,9.125,114.572Z" transform="translate(5.13 49.832)"/><path class="g" d="M12.452,103.851c16.223-28.389,67.219-.1,81.16,28.643,26.568,54.8,23.874,98.872,23.035,141.979s-2.9,50.236-2.9,50.236S42.346,323.869,0,295.653c4.151-16.619,17.427-30.275,11.628-68.914C1.663,159.489-.824,127.107,12.452,103.851Z" transform="translate(0 53.797)"/><path class="e" d="M35.84,96.051C12.171,90.966,1.795,122.619,9.272,143.372s59.773,70.562,71.4,76.376,106.587,6.147,112.4,6.147,1.141-30.988-3.834-32.651-72.875-13.339-86.15-19.993S70.709,103.513,35.84,96.051Z" transform="translate(4.019 55.799)"/><path class="h" d="M190.49,137.83l13.482,72.114,11.137,1.172V141.347Z" transform="translate(111.29 80.526)"/><path class="d" d="M200.349,156.27l-1.109,29.72c3.992,45.626,6.337,91.537,7.525,133.978h69.326c-2.06-47.891-18.5-126.279-18.5-126.279Z" transform="translate(116.402 91.299)"/><path class="e" d="M310.21,162.947l-103.545-3.9s-1.03,14.892,5.038,40.651c7.066,29.91,16.9,72.875,25.094,118.643h77.627C320.872,217.476,324.04,189.451,310.21,162.947Z" transform="translate(120.701 92.923)"/><path class="i" d="M257.142,48.68c-22.385,2.361-49.7,15.256-60.6,34.14-7.573,13.1-4.182,58.617.808,108.837,1.473,14.622-.285,37.166,8.6,43.408,26.663,18.694,73.873-2.345,73.873-2.345Z" transform="translate(112.237 28.441)"/><path class="d" d="M218.007,80.58c-5.83,47.923-20.595,79.576-27.106,88.717s-45.721,26.314-45.721,26.314,8.064,4.246,8.27,18.741c0,2.566.412,12.389.412,12.389s45.5-11.882,55.939-22.274a56.161,56.161,0,0,0,13.656-20.722Z" transform="translate(84.819 47.078)"/><path class="g" d="M231.448,50.206c20.912-4.626,35.075-5.719,42.663,3.168s24.365,39.986,31.051,106.65,31.605,125.883,31.605,125.883-73.588,7.668-96.876-18.171-28.675-108.963-24.4-141.345S231.448,50.206,231.448,50.206Z" transform="translate(125.115 27.28)"/><path class="g" d="M213.422,57c-19.011,18.456-21.783,21.149-23.969,62.625s1.584,132.537,7.192,143.769,14.084,15.937,10.931-6.955-6.59-120.718-4.325-150.708S213.422,57,213.422,57Z" transform="translate(110.316 33.302)"/><path class="e" d="M210.719,55.9l-7.747,9s-4.388,25.918-4.388,34.013v8.1l-4.658,3.77a383.878,383.878,0,0,0,.9,40.525c1.663,24.856,6.59,67.52,6.59,67.52s.681-96.559,4.5-125.154S210.719,55.9,210.719,55.9Z" transform="translate(113.193 32.659)"/><path class="e" d="M226.432,48.365l13.64-.285-11.3,47.4,4.975,1.743s-11.723,67.726-10.646,94.23,2.519,45.388,2.519,45.388a270.553,270.553,0,0,1-12.88-76.677C212.253,119.244,226.432,48.365,226.432,48.365Z" transform="translate(124.285 28.091)"/><path class="b" d="M239.738,146.34c-8.792,2.931-20.595,17.585-21.1,21.688s1.758,15.842,4.753,22.876,4.753,8.206,6.448,0,7.62-11.09,12.911-18.171a85,85,0,0,0,8.793-15.256Z" transform="translate(127.692 85.497)"/><path class="g" d="M241.452,50.883c10.377-9.41,21.72-4.119,30.354,6.986a268.831,268.831,0,0,1,33.76,60.2c10.472,26.2,15.953,34.663,18.631,50.046,3.992,22.971-80.637,63.116-82.38,63.369s-11.771-25.918-12.056-27.217,44.073-35.011,44.6-40.065-24.049-34.853-32.6-62.973S233.468,58.139,241.452,50.883Z" transform="translate(134.232 26.888)"/><path class="b" d="M218.21,20.87l13.561,44.564s-9.331,31.685-19.138,30.1-7.763-14-7.763-14L203.73,35.017Z" transform="translate(119.025 12.194)"/><path class="b" d="M234.767,42.666c-.887,2.931-2.012,4.642-6.1,8.254-4.594,12.484-15.24,17.712-24.207,19.644-11.09,2.376-14.084-7.493-17.537-23.494s5.687-31.78,16.714-34.156S241.009,22.023,234.767,42.666Z" transform="translate(108.774 7.365)"/><path class="c" d="M218.384,22.275c1.584,21.641,6.765,26.694,9.806,26.789s.634,19.74,3.565,16.112,1.854-15.668,1.854-15.668,2.661-11.09,5.719-7.588,1.283,9.363-.855,11.961,4.753,12.674,4.753,12.674-1.426-19.835.665-30.338,3.77-16.7-4.753-20.944-12.674-1.758-12.674-1.758S215.469-5.339,198.581,1.49,173.234,21.8,179.127,33.729s6.068,22.433,2.012,22.67-5.529-.76-5.529-.76A12.214,12.214,0,0,0,191.2,61.421c6.337-2.265,20.6-9.505,19.248-23.668C208.451,17.554,218.384,22.275,218.384,22.275Z" transform="translate(102.597 0.001)"/></g></g></svg>