<svg xmlns="http://www.w3.org/2000/svg" width="75.411" height="61.349" viewBox="0 0 75.411 61.349"><defs><style>.a{fill:#70b9d6;}.b{fill:#1d84b5;}</style></defs><rect class="a" width="3.052" height="10.464" transform="translate(71.281 1.077)"/><path class="b" d="M74.334,61.349H1.077A1.077,1.077,0,0,1,0,60.271V1.077A1.077,1.077,0,0,1,1.077,0H74.334a1.077,1.077,0,0,1,1.077,1.077V60.271A1.077,1.077,0,0,1,74.334,61.349ZM2.155,59.194h71.1V2.155H2.155Z"/><rect class="b" width="73.256" height="2.155" transform="translate(1.077 10.464)"/><rect class="b" width="6.363" height="2.155" transform="translate(7.031 5.171)"/><rect class="b" width="4" height="2.155" transform="translate(16.468 5.171)"/><path class="b" d="M20.423,75.125H6.877A1.077,1.077,0,0,1,5.8,74.048V65.207a9.114,9.114,0,0,1,9.107-9.1h.783a4.79,4.79,0,0,0,2.693-1.092,1.056,1.056,0,0,1,.287-.172l10.852-4.4a3.549,3.549,0,0,1,2.751,6.543L21.5,61.7V74.048A1.077,1.077,0,0,1,20.423,75.125ZM7.955,72.971H19.345V60.962a1.077,1.077,0,0,1,.646-.984l11.419-4.992a1.393,1.393,0,0,0,.718-1.817h0a1.436,1.436,0,0,0-1.8-.718l-10.7,4.309A6.83,6.83,0,0,1,15.977,58.2a.847.847,0,0,1-.259.043h-.812a6.959,6.959,0,0,0-6.952,6.967Z" transform="translate(-1.634 -14.136)"/><path class="b" d="M16.317,55.979a6.959,6.959,0,1,1,6.952-6.959,6.959,6.959,0,0,1-6.952,6.959Zm0-11.764a4.8,4.8,0,1,0,4.8,4.8,4.8,4.8,0,0,0-4.8-4.8Z" transform="translate(-2.635 -11.852)"/><rect class="b" width="2.155" height="5.767" transform="translate(8.69 54.145)"/><path class="b" d="M77.731,57.592H35.106a1.077,1.077,0,0,1-1.077-1.077V50.489h2.155v4.948H76.654V25.575h-40.5V45.009H34V24.5a1.077,1.077,0,0,1,1.077-1.077H77.731A1.077,1.077,0,0,1,78.809,24.5v32.01a1.077,1.077,0,0,1-1.077,1.084Z" transform="translate(-9.581 -6.6)"/><rect class="b" width="11.85" height="2.155" transform="translate(33.296 23.234)"/><rect class="b" width="22.164" height="2.155" transform="translate(41.376 29.159)"/><rect class="b" width="4.41" height="2.155" transform="translate(33.296 29.159)"/><rect class="b" width="4.309" height="2.155" transform="translate(59.223 35.084)"/><rect class="b" width="4.697" height="2.155" transform="translate(51.531 35.084)"/><rect class="b" width="15.118" height="2.155" transform="translate(33.296 35.084)"/><rect class="b" width="25.826" height="2.155" transform="translate(37.706 41.009)"/><rect class="b" width="9.236" height="3.016" rx="0.99" transform="translate(59.223 4.74)"/><path class="b" d="M95.973,81.82H77.867a1.077,1.077,0,0,1-1.077-1.077V75a1.077,1.077,0,0,1,1.077-1.077H95.973A1.077,1.077,0,0,1,97.05,75v5.746A1.077,1.077,0,0,1,95.973,81.82ZM78.945,79.666H94.9V76.075H78.945Z" transform="translate(-21.639 -20.831)"/></svg>