<svg xmlns="http://www.w3.org/2000/svg" xmlns:xlink="http://www.w3.org/1999/xlink" width="570.146" height="343.514" viewBox="0 0 570.146 343.514"><defs><style>.a{fill:#1067db;}.b{fill:#b3cdfa;}.c,.d,.l,.m,.n{fill:none;stroke-linecap:round;stroke-miterlimit:10;}.c,.d,.m{stroke:#002daa;}.d{stroke-width:2px;}.e{fill:#002daa;}.f{fill:#ff5722;}.g{fill:#fff;}.h{fill:url(#a);}.i{fill:#cfe1f8;}.j{fill:#eef4fc;}.k{fill:#d1e1fc;}.l,.n{stroke:#ff5722;}.l{stroke-width:4px;}.m,.n{stroke-width:10px;}.o{fill:#002280;opacity:0.3;}.p{fill:#e3edfe;}.q{fill:#9fc2f1;}.r{fill:#ffbca7;}.s{fill:#4085e2;}</style><linearGradient id="a" x1="-29.218" y1="0.5" x2="-28.218" y2="0.5" gradientUnits="objectBoundingBox"><stop offset="0" stop-color="#e3edfe"/><stop offset="0.27" stop-color="#f1f6ff"/><stop offset="0.6" stop-color="#fcfdff"/><stop offset="1" stop-color="#fff"/></linearGradient></defs><g transform="translate(0.006)"><g transform="translate(-0.006)"><path class="a" d="M63.527,235.712c-2.233-4.436-2.912-9.476-4.195-14.274-.317-1.177,1.856-2.052,1.509-3.214-.3-.875-3.154-2.052-3.486-2.912a55.617,55.617,0,0,0-5.779-10.819c-2.339-3.395-5.13-6.715-6.73-10.426-.3-.679,2.837-.513,2.625-1.207s-3.742-2.294-3.848-3.018a23.84,23.84,0,0,1,1.69-10.849,66.874,66.874,0,0,1,17.322-26.24c1.75-1.645,2.022,1.946,2.61,3.018a12.388,12.388,0,0,0,5.492,4.874c1.267.588,2.641.966,3.923,1.509,7.107,3.2,12.871,14.334,13.1,21.864,0,.694-3.591,2.822-3.636,3.5s3.425.3,3.289,1.147c-.936,5.689-3.425,11.211-3.8,17.005a38.7,38.7,0,0,0,.815,9.581c.136.694-1.509,2.46-1.373,3.154s2.082.5,2.233,1.283a50.455,50.455,0,0,1,1.011,7.786c.181,7.348-3.893,16.024-11.226,16.4C70.09,244.026,65.76,240.163,63.527,235.712Z" transform="translate(22.172 77.518)"/><path class="b" d="M6.949,183.287c7.786,3.908,19.616-.151,27.9-2.927,1.283-.422,1.207,3.244,2.565,2.9s1.509-4.014,2.927-4.24c6.156-1.026,12.388-.573,16.734,3.591,5.281,5.025,5.417,13.369,9.053,19.721.453.815-.724,2.625-.181,3.38s2.837.422,3.44,1.132c2.716,3.018,5.915,5.824,8.4,9.053,3.621,4.768,5.447,12.071,1.373,16.477l-4.723,4.195c-5.9,2.294-11.965,4.617-18.3,4.6s-13.067-2.9-15.8-8.6a24.989,24.989,0,0,1-1.509-4.346c-.121-.438,2.761-2.9,2.641-3.335-.287-1.041-3.621,0-4.074-1.011-3.018-6.564-10.306-9.34-16.6-13.082-.754-.453,1.509-2.761.77-3.229s-4.255.966-4.859.5a26.6,26.6,0,0,1-9.763-24.776Z" transform="translate(3.395 90.863)"/><path class="c" d="M57.434,169.15a234.149,234.149,0,0,0,13.188,79.745" transform="translate(29.231 86.078)"/><path class="c" d="M81.181,240.419a79.534,79.534,0,0,0-6.9-9.551,83.108,83.108,0,0,0-10.713-9.883A279.231,279.231,0,0,0,27.6,196.42" transform="translate(14.054 99.956)"/><path class="d" d="M258.81,125.309a23.606,23.606,0,0,0,2.278-.739" transform="translate(131.714 63.392)"/><path class="e" d="M263.42,149.3a.573.573,0,0,1-.5-.272.588.588,0,0,1,.2-.83,29.452,29.452,0,0,0,3.863-2.837.594.594,0,0,1,.77.905,30.828,30.828,0,0,1-4.014,3.018A.573.573,0,0,1,263.42,149.3Zm7.394-6.352a.664.664,0,0,1-.392-.151.619.619,0,0,1,0-.845,37.189,37.189,0,0,0,2.927-3.833.588.588,0,0,1,.815-.166.573.573,0,0,1,.166.83,37.3,37.3,0,0,1-3.018,3.953.619.619,0,0,1-.5.211Zm5.432-8.133a.589.589,0,0,1-.272,0,.6.6,0,0,1-.257-.8c.709-1.388,1.373-2.882,1.992-4.421a.588.588,0,0,1,.77-.332.6.6,0,0,1,.332.785c-.619,1.509-1.313,3.018-2.037,4.527A.588.588,0,0,1,276.246,134.813Zm3.651-9.053h-.181a.6.6,0,0,1-.377-.754c.468-1.509.905-3.018,1.328-4.678a.6.6,0,0,1,1.162.3c-.438,1.69-.89,3.244-1.358,4.738a.6.6,0,0,1-.573.377Zm2.49-9.476h-.121a.573.573,0,0,1-.453-.709c.3-1.373.619-2.852,1.011-4.783a.593.593,0,0,1,1.162.241c-.392,1.946-.709,3.425-1.011,4.8a.589.589,0,0,1-.589.438Zm1.977-9.6h-.151a.6.6,0,0,1-.483-.709c.347-1.78.634-3.35.875-4.8a.589.589,0,0,1,.679-.483.573.573,0,0,1,.5.679c-.241,1.509-.528,3.018-.875,4.828a.6.6,0,0,1-.543.468Zm1.509-9.657h0a.588.588,0,0,1-.513-.664c.2-1.705.347-3.289.453-4.844a.6.6,0,1,1,1.192,0c-.106,1.509-.257,3.184-.468,4.9a.588.588,0,0,1-.588.588Zm-5.145-6.956a.483.483,0,0,1-.241,0A6.835,6.835,0,0,1,277,86.167a.6.6,0,0,1,1.132-.407,5.689,5.689,0,0,0,2.837,3.229.6.6,0,0,1-.241,1.147Zm4.527-.77a.618.618,0,0,1-.453-.211.6.6,0,0,1,0-.845,8.664,8.664,0,0,0,1.1-1.222.618.618,0,0,1-.121-.362,45.623,45.623,0,0,0-.287-4.828.589.589,0,0,1,.528-.649.573.573,0,0,1,.649.528c.136,1.192.226,2.429.272,3.682l.422-.754.121-.211a.6.6,0,0,1,1.041.588l-.121.211a14.877,14.877,0,0,1-2.822,3.923.664.664,0,0,1-.226.136Zm-7.891-7.65h-.106a.619.619,0,0,1-.483-.694,32.1,32.1,0,0,1,1.147-4.1c.075-.241.151-.468.241-.709a.6.6,0,0,1,1.117.422l-.226.649a31.79,31.79,0,0,0-1.1,3.953.588.588,0,0,1-.483.468Zm13.58-.332a.558.558,0,0,1-.392-.151.6.6,0,0,1,0-.845,23.331,23.331,0,0,1,3.727-3.365.595.595,0,1,1,.694.966,22.215,22.215,0,0,0-3.516,3.2.588.588,0,0,1-.468.181Zm-5.568-3.742a.6.6,0,0,1-.558-.392c-.483-1.373-1.509-2.912-2.656-3.108a.619.619,0,0,1-.5-.694.588.588,0,0,1,.694-.483,5.326,5.326,0,0,1,3.576,3.878.588.588,0,0,1-.362.77ZM298.834,75.6a.619.619,0,0,1-.543-.347.6.6,0,0,1,.3-.8,25.425,25.425,0,0,1,4.753-1.509.595.595,0,1,1,.257,1.162,23.446,23.446,0,0,0-4.527,1.509.619.619,0,0,1-.241-.045Z" transform="translate(133.758 37.094)"/><path class="d" d="M293,72.91a12.58,12.58,0,0,1,2.384.151" transform="translate(149.113 37.103)"/><path class="e" d="M122.711,81.557a.619.619,0,0,1-.453-.211,33.726,33.726,0,0,1-2.882-3.893.6.6,0,1,1,1.011-.649,34.7,34.7,0,0,0,2.776,3.772.6.6,0,0,1,0,.845.573.573,0,0,1-.453.136Zm-5.145-8a.573.573,0,0,1-.528-.347,43.892,43.892,0,0,1-1.841-4.527.6.6,0,1,1,1.132-.392,41.528,41.528,0,0,0,1.78,4.346.6.6,0,0,1-.287.8.709.709,0,0,1-.3.121ZM114.4,64.506a.588.588,0,0,1-.573-.453c-.377-1.509-.709-3.093-.981-4.708a.6.6,0,0,1,.5-.694.588.588,0,0,1,.679.5c.272,1.509.588,3.154.966,4.617a.6.6,0,0,1-.438.724Zm-1.509-9.4a.619.619,0,0,1-.6-.528c-.151-1.509-.257-3.154-.332-4.8a.573.573,0,0,1,.558-.619.6.6,0,0,1,.634.573,47.33,47.33,0,0,0,.332,4.723.588.588,0,0,1-.528.649Zm-.573-9.415a.6.6,0,0,1-.6-.6V40.259a.6.6,0,0,1,.6-.573h0a.588.588,0,0,1,.588.6v4.753a.588.588,0,0,1-.588.649Zm.106-9.551a.573.573,0,0,1-.588-.588c0-1.765,0-3.32-.136-4.738a.6.6,0,0,1,.558-.634.634.634,0,0,1,.634.573c.091,1.433.121,3.018.136,4.8a.588.588,0,0,1-.6.588Zm-.619-9.506a.588.588,0,0,1-.588-.5,7.4,7.4,0,0,0-.2-1.132c-.226-1.177-.513-2.324-.845-3.44a.588.588,0,0,1,.392-.739.6.6,0,0,1,.754.392,33.424,33.424,0,0,1,.83,3.531,7.647,7.647,0,0,0,.211,1.147.619.619,0,0,1-.5.694Zm-2.807-9.053a.6.6,0,0,1-.543-.332,22.165,22.165,0,0,0-2.459-3.923.619.619,0,0,1,.121-.92.6.6,0,0,1,.83.106,23.689,23.689,0,0,1,2.6,4.134.588.588,0,0,1-.272.8.5.5,0,0,1-.272.06ZM61.887,13.189a.594.594,0,0,1-.106-1.177c1.509-.272,2.927-.619,4.6-1.086a.595.595,0,1,1,.317,1.147,46.775,46.775,0,0,1-4.693,1.1Zm9.2-2.49a.6.6,0,0,1-.558-.407.588.588,0,0,1,.377-.754l2.007-.679,2.49-.815a.594.594,0,0,1,.362,1.132l-2.49.815-2.037.679Zm32-.588a.528.528,0,0,1-.362-.121,15.456,15.456,0,0,0-1.509-1.011A16.326,16.326,0,0,0,98.7,7.727a.593.593,0,1,1,.438-1.1,16.688,16.688,0,0,1,2.731,1.343,11.652,11.652,0,0,1,1.509,1.071.619.619,0,0,1,.106.845A.588.588,0,0,1,103.1,10.111ZM80.19,7.833a.6.6,0,0,1-.151-1.177c1.615-.438,3.2-.785,4.723-1.041a.588.588,0,0,1,.679.483.6.6,0,0,1-.483.694q-2.287.393-4.527,1.011ZM94.359,6.55h-.091a27.461,27.461,0,0,0-4.647-.241.6.6,0,0,1,0-1.192,26.783,26.783,0,0,1,4.859.257A.59.59,0,1,1,94.4,6.55Z" transform="translate(31.205 2.594)"/><line class="d" x2="553.973" transform="translate(15.173 342.412)"/><path class="f" d="M244.023,101.3l34.116.317a7.907,7.907,0,0,0,7.876-9.2l-5.915-35.4a9.053,9.053,0,0,0-8.917-7.635L237.113,49a7.907,7.907,0,0,0-7.876,9.2l5.915,35.414a9.053,9.053,0,0,0,8.872,7.68Z" transform="translate(116.61 24.935)"/><path class="g" d="M256.649,76.817h-5.885L250.07,73.9a5.16,5.16,0,0,1-.151-2.369,7.182,7.182,0,0,1,1.207-2.158l1.977-2.7a2.324,2.324,0,0,0,.151-1.811A3.591,3.591,0,0,0,252.2,63.04a2.55,2.55,0,0,0-1.8-.739,1.509,1.509,0,0,0-1.509.875,3.757,3.757,0,0,0-.287,2.294H242.45a7.544,7.544,0,0,1,1.373-6.036,6.82,6.82,0,0,1,5.568-2.248,10.668,10.668,0,0,1,6.367,1.977,9.144,9.144,0,0,1,3.561,5.462,5.115,5.115,0,0,1,.166,2.294c-.136.513-.241.875-.287,1.086a3.545,3.545,0,0,1-.483,1c-.272.438-.453.709-.543.845-.483.619-.92,1.207-1.343,1.735a3.953,3.953,0,0,0-.785,1.343,3.229,3.229,0,0,0,.091,1.509ZM253.133,84.2a4.361,4.361,0,0,1-1.509-2.429,2.761,2.761,0,0,1,.407-2.414,2.565,2.565,0,0,1,2.188-.981,4.1,4.1,0,0,1,2.656.981,4.527,4.527,0,0,1,1.509,2.414,2.776,2.776,0,0,1-.407,2.429,2.625,2.625,0,0,1-2.188.981,4.2,4.2,0,0,1-2.656-.981Z" transform="translate(123.313 29.092)"/><path class="a" d="M62.956,3.54,18.7,42.137l65.486-14.3L75.223,16.305,71.36,17.8l-.181-5.885Z" transform="translate(9.525 1.801)"/><path class="e" d="M58.711,9.09,43.2,21.282l15.692-6.307Z" transform="translate(21.993 4.626)"/><path class="f" d="M293.72,87.031l56.1.423L311.993,65.71l-6.956,9.084.951,3.727-3.561-.287Z" transform="translate(149.479 33.439)"/><path class="e" d="M302.171,75.457l15.21,1.252L301.22,71.73Z" transform="translate(153.296 36.503)"/><path class="h" d="M47.144,82.92,309.69,84.429a8.54,8.54,0,0,1,8.1,6.956L350.234,290.06H72.6L40.173,91.49a6.036,6.036,0,0,1,2.807-6.036Z" transform="translate(20.418 42.197)"/><path class="e" d="M351.18,290.807H72.322l-.091-.5L39.79,91.785a6.5,6.5,0,0,1,3.093-6.669l4.3-2.6h.166L309.9,84.029a9.144,9.144,0,0,1,8.676,7.454ZM73.348,289.615H349.776L317.441,91.649a7.922,7.922,0,0,0-7.544-6.458L47.486,83.682,43.457,86.1a5.326,5.326,0,0,0-2.52,5.462Z" transform="translate(20.212 41.993)"/><path class="a" d="M74.974,288.247H352.61L320.2,89.587a8.495,8.495,0,0,0-8.088-6.956H48.373a5.749,5.749,0,0,0-5.809,6.956Z" transform="translate(21.603 42.048)"/><path class="e" d="M352.809,289.054a.6.6,0,0,1-.588-.5L319.809,89.881a7.891,7.891,0,0,0-7.544-6.458H48.571a5.3,5.3,0,0,0-4.1,1.8,5.447,5.447,0,0,0-1.117,4.527L73.2,272.441a.6.6,0,0,1-.5.694.588.588,0,0,1-.679-.5L42.159,89.881a6.594,6.594,0,0,1,1.4-5.432,6.428,6.428,0,0,1,5.01-2.218H312.31a9.129,9.129,0,0,1,8.676,7.544l32.456,198.66a.588.588,0,0,1-.5.679Z" transform="translate(21.405 41.845)"/><path class="i" d="M335.524,273.234,305.618,90.07H50.42L80.341,273.234Z" transform="translate(25.667 45.836)"/><path class="g" d="M71.271,234.492H451.088A11.211,11.211,0,0,0,462.3,223.281h0a11.211,11.211,0,0,0-11.211-11.211H71.271A11.211,11.211,0,0,0,60.06,223.281h0A11.211,11.211,0,0,0,71.271,234.492Z" transform="translate(30.573 107.92)"/><path class="j" d="M71.271,224.178H451.088a11.181,11.181,0,0,0,10.472-7.288,11.406,11.406,0,0,1,.739,3.938,11.211,11.211,0,0,1-11.211,11.211H71.271A11.211,11.211,0,0,1,60.06,220.828a11.076,11.076,0,0,1,.754-3.938A11.166,11.166,0,0,0,71.271,224.178Z" transform="translate(30.573 110.373)"/><path class="i" d="M251.934,219.343h25.289a12.856,12.856,0,0,0,11.588-7.273H240.27a12.856,12.856,0,0,0,11.664,7.273Z" transform="translate(122.279 107.92)"/><path class="e" d="M451.434,235.287H71.617a11.815,11.815,0,1,1,0-23.614H451.434a11.815,11.815,0,1,1,0,23.614ZM71.617,212.88a10.607,10.607,0,0,0,0,21.215H451.434a10.607,10.607,0,1,0,0-21.215Z" transform="translate(30.227 107.714)"/><path class="g" d="M71.271,234.492h198a11.211,11.211,0,0,0,11.211-11.211h0a11.211,11.211,0,0,0-11.211-11.211h-198A11.211,11.211,0,0,0,60.06,223.281h0A11.211,11.211,0,0,0,71.271,234.492Z" transform="translate(30.573 107.92)"/><path class="e" d="M269.613,235.287h-198a11.815,11.815,0,1,1,0-23.614h198a11.815,11.815,0,0,1,0,23.614Zm-198-22.407a10.607,10.607,0,0,0,0,21.215h198a10.607,10.607,0,1,0,0-21.215Z" transform="translate(30.227 107.714)"/><rect class="e" width="17.428" height="5.07" transform="translate(127.932 333.736) rotate(180)"/><rect class="e" width="17.428" height="5.07" transform="translate(148.74 333.736) rotate(180)"/><path class="g" d="M113.412,289.9h179.03L260.755,87.237l-5.07-21.124c-.86-5.492-4.617-8.9-10.125-8.9L84.743,57.9c-5.492,0-8.872,1.645-8,7.137Z" transform="translate(38.994 29.114)"/><path class="k" d="M130,132.279h43.049a.392.392,0,0,0,.392-.468l-1.026-6.473a.543.543,0,0,0-.528-.468H128.835a.392.392,0,0,0-.392.468l1.011,6.473a.573.573,0,0,0,.543.468Z" transform="translate(65.368 63.545)"/><path class="k" d="M131.522,140.969h72.91a.392.392,0,0,0,.392-.468l-1.011-6.473a.558.558,0,0,0-.543-.468H130.375a.392.392,0,0,0-.392.468l1.011,6.473a.573.573,0,0,0,.528.468Z" transform="translate(66.152 67.967)"/><path class="k" d="M135.8,164.729h43.094a.392.392,0,0,0,.392-.468l-1.011-6.473a.573.573,0,0,0-.543-.468H134.635a.392.392,0,0,0-.392.468l1.011,6.473A.573.573,0,0,0,135.8,164.729Z" transform="translate(68.319 80.058)"/><path class="k" d="M137.347,173.419h72.925a.392.392,0,0,0,.392-.468l-1.011-6.473a.573.573,0,0,0-.543-.468H136.14a.392.392,0,0,0-.407.468l1.026,6.473a.543.543,0,0,0,.589.468Z" transform="translate(69.078 84.48)"/><path class="k" d="M124.437,99.239H167.53a.392.392,0,0,0,.392-.468L166.912,92.3a.573.573,0,0,0-.543-.468H123.275a.392.392,0,0,0-.392.468l1.011,6.473a.573.573,0,0,0,.543.468Z" transform="translate(62.539 46.731)"/><path class="k" d="M125.967,107.939h72.925a.392.392,0,0,0,.392-.468L198.273,101a.573.573,0,0,0-.543-.468H124.82a.392.392,0,0,0-.407.468l1.026,6.473a.543.543,0,0,0,.528.468Z" transform="translate(63.317 51.158)"/><path class="k" d="M141.6,197.179H184.7a.392.392,0,0,0,.392-.468l-1.011-6.473a.573.573,0,0,0-.543-.468H140.44a.392.392,0,0,0-.407.468l1.026,6.473a.558.558,0,0,0,.543.468Z" transform="translate(71.266 96.572)"/><path class="k" d="M215.433,198.928a.573.573,0,0,0-.543-.468H141.965a.392.392,0,0,0-.392.468l.936,5.945h73.845Z" transform="translate(72.05 100.994)"/><path class="b" d="M102.8,155.372h36.621a1.886,1.886,0,0,0,1.9-2.263l-4.9-31.34a2.761,2.761,0,0,0-2.625-2.278H97.189a1.9,1.9,0,0,0-1.916,2.278l4.9,31.355a2.746,2.746,0,0,0,2.625,2.248Z" transform="translate(48.473 60.807)"/><path class="b" d="M108.2,188.1h36.621a1.886,1.886,0,0,0,1.916-2.263l-4.919-31.355a2.746,2.746,0,0,0-2.625-2.263H102.589a1.886,1.886,0,0,0-1.916,2.263l4.919,31.355a2.731,2.731,0,0,0,2.61,2.263Z" transform="translate(51.221 77.463)"/><path class="b" d="M114.052,220.8h36.606a1.9,1.9,0,0,0,1.916-2.278l-4.9-31.355a2.746,2.746,0,0,0-2.625-2.263H108.424a1.886,1.886,0,0,0-1.9,2.263l4.9,31.355a2.761,2.761,0,0,0,2.625,2.278Z" transform="translate(54.198 94.093)"/><path class="b" d="M97.4,122.637h36.606a1.9,1.9,0,0,0,1.916-2.278L131.02,89a2.746,2.746,0,0,0-2.625-2.263H91.774A1.886,1.886,0,0,0,89.873,89l4.9,31.325a2.761,2.761,0,0,0,2.625,2.309Z" transform="translate(45.725 44.141)"/><path class="e" d="M80.217,87.956l-3.44-22.2A8.3,8.3,0,0,1,85.166,55.8H245.8A12.071,12.071,0,0,1,257.33,65.76l3.47,22.2Z" transform="translate(38.994 28.395)"/><path class="g" d="M104.675,67.377a3.35,3.35,0,0,0,3.184,2.761,2.294,2.294,0,0,0,2.324-2.761A3.35,3.35,0,0,0,107,64.63a2.294,2.294,0,0,0-2.324,2.746Z" transform="translate(53.254 32.889)"/><path class="g" d="M96.745,67.377a3.365,3.365,0,0,0,3.184,2.761,2.294,2.294,0,0,0,2.324-2.761,3.335,3.335,0,0,0-3.184-2.746,2.294,2.294,0,0,0-2.324,2.746Z" transform="translate(49.218 32.889)"/><path class="g" d="M88.815,67.377A3.365,3.365,0,0,0,92,70.138a2.294,2.294,0,0,0,2.324-2.761,3.335,3.335,0,0,0-3.184-2.746,2.293,2.293,0,0,0-2.324,2.746Z" transform="translate(45.183 32.889)"/><path class="g" d="M114.977,110.348l-2.746-3.787h-7.348l-.513,3.787H100.22L102.6,92.83h3.787l12.75,17.518Zm-8.933-12.313-.694,5.085h4.376Z" transform="translate(51.01 47.24)"/><path class="g" d="M115.415,143.088h-7.7L105.29,125.57h6.82a10.789,10.789,0,0,1,3.123.423,5.145,5.145,0,0,1,3.712,4.21,3.2,3.2,0,0,1-.905,3.018,3.772,3.772,0,0,1-.573.438l-.588.287a5.6,5.6,0,0,1,2.807,1.509,4.783,4.783,0,0,1,1.343,2.776,4.2,4.2,0,0,1-.815,3.229C119.4,142.545,117.784,143.088,115.415,143.088Zm-5.206-10.426h1.856a5.779,5.779,0,0,0,2.369-.347c.5-.241.694-.739.588-1.509a1.871,1.871,0,0,0-.951-1.509,6.292,6.292,0,0,0-2.5-.377h-1.886Zm.981,7.122h2.716a5.326,5.326,0,0,0,2.459-.422c.528-.272.724-.815.619-1.615a1.841,1.841,0,0,0-1.117-1.615,8.1,8.1,0,0,0-2.9-.377h-2.309Z" transform="translate(53.59 63.901)"/><path class="g" d="M120.951,172.581A4.134,4.134,0,0,0,125,170.3l3.229,2.58a6.564,6.564,0,0,1-6.036,3.35,12.071,12.071,0,0,1-7.424-2.55,12.3,12.3,0,0,1-4.527-6.458,7.107,7.107,0,0,1,.739-6.5,6.654,6.654,0,0,1,5.764-2.6,12.478,12.478,0,0,1,8.178,3.274l-1.615,2.761a7.816,7.816,0,0,0-5.3-2.309,3.984,3.984,0,0,0-3.335,1.509,4.059,4.059,0,0,0-.422,3.878,7.454,7.454,0,0,0,2.641,3.923A6.5,6.5,0,0,0,120.951,172.581Z" transform="translate(55.869 80.46)"/><path class="g" d="M129.781,193.284a9.37,9.37,0,0,1,3.3,6.367,7.786,7.786,0,0,1-1.615,6.473q-2.143,2.369-7.152,2.384h-6.036l-2.173-17.5H122.3A11.407,11.407,0,0,1,129.781,193.284ZM128.272,203.7a4.677,4.677,0,0,0,.951-3.938,6.035,6.035,0,0,0-1.946-3.968,6.82,6.82,0,0,0-4.527-1.388h-2.278l1.358,10.638H124.3a5.16,5.16,0,0,0,3.923-1.343Z" transform="translate(59.096 97.192)"/><path class="d" d="M202.13,108.886H183.948a2.052,2.052,0,0,1-2.082-1.72l-2.429-14.048a2.7,2.7,0,0,1,2.641-3.018h18.107a2.052,2.052,0,0,1,2.082,1.705l2.429,14.063a2.716,2.716,0,0,1-2.565,3.018Z" transform="translate(91.312 45.851)"/><path class="d" d="M206.954,142.336H188.847a2.052,2.052,0,0,1-2.082-1.72l-2.429-14.048a2.716,2.716,0,0,1,2.641-3.018h18.182a2.067,2.067,0,0,1,2.082,1.72l2.429,14.048a2.731,2.731,0,0,1-2.716,3.018Z" transform="translate(93.806 62.873)"/><path class="d" d="M211.789,175.8H193.683a2.052,2.052,0,0,1-2.082-1.705l-2.414-14.063a2.7,2.7,0,0,1,2.641-3.018h18.182a2.052,2.052,0,0,1,2.082,1.72l2.414,14.048a2.7,2.7,0,0,1-2.716,3.018Z" transform="translate(96.274 79.9)"/><path class="d" d="M216.64,209.256H198.533a2.052,2.052,0,0,1-2.082-1.72l-2.444-14.048a2.7,2.7,0,0,1,2.641-3.018h18.182a2.052,2.052,0,0,1,2.082,1.705l2.429,14.063a2.716,2.716,0,0,1-2.7,3.018Z" transform="translate(98.727 96.928)"/><path class="l" d="M182.96,94.588l6.654,9.581L212.278,86.5" transform="translate(93.115 44.019)"/><path class="m" d="M250.576,200.764c-2.852-7.544,9.732-19.253,28.111-26.209s35.595-6.5,38.431,1.011" transform="translate(127.319 86.317)"/><path class="n" d="M251.121,192.4c-.257-8.027,15.466-15.089,35.112-15.647s35.761,5.417,36.017,13.459" transform="translate(127.8 89.929)"/><path class="g" d="M217.29,107.733l2.082,23.765,46.594,73.528s35.67,71.687,37.209,91.952h65.5l-57.911-100.93,2.218-64.49a13.384,13.384,0,0,0-6.036-11.6L262.738,90.8l-41-.513.2,4.527a6.036,6.036,0,0,0,4.527,5.628l27.945,7.318,15.451,18.71-9.808,12.479h-9.506l-15.089-18.408-2.565-5.04a14.681,14.681,0,0,0-14.666-7.922Z" transform="translate(110.585 45.948)"/><path class="b" d="M321.649,289.95a72.426,72.426,0,0,0-5.628-9.581c-5.191-7.544-11.286-14.636-15.376-22.875-8.3-16.719-7.544-36.56-14.2-54.018-12.841-33.784-50.7-52.962-64.007-86.565-1.69-4.255-3.018-8.691-4.949-12.81l.679,7.726,1.1,12.644L265.865,198h0s28.79,57.866,35.761,84.3c1,2.625,1.946,5.191,2.837,7.65Z" transform="translate(110.687 52.975)"/><path class="e" d="M369.906,297.79h-67.07v-.543c-1.509-19.766-36.213-89.96-37.134-91.7l-46.67-73.634-2.143-24.489,1.509-.166a15.376,15.376,0,0,1,15.255,8.254l2.49,4.889,14.938,18.107h8.933l9.325-11.875-15.013-18.2-27.764-7.258A6.669,6.669,0,0,1,221.583,95l-.226-5.145,41.8.543.151.091,44.286,29.2a14.033,14.033,0,0,1,6.262,12.071l-2.2,64.324ZM303.938,296.6h63.917L310.366,196.423l2.218-64.656a12.825,12.825,0,0,0-5.719-11.09l-44.1-29.091-40.182-.5.166,3.863a5.477,5.477,0,0,0,4.089,5.085l28.126,7.363,15.874,19.238-10.276,13.082H250.478l-15.315-18.71-2.535-4.949a14.153,14.153,0,0,0-14.063-7.544h-.347l2.007,23.041,46.564,73.468c1.373,2.867,35.052,70.767,37.149,91.574Z" transform="translate(110.382 45.724)"/><path class="g" d="M300.663,157.206l-90.88-61.231L202.57,86.59l11.694,2.731,90.88,61.231Z" transform="translate(103.094 44.065)"/><path class="f" d="M205.016,89.94,202.39,86.5l4.27,1Z" transform="translate(103.003 44.019)"/><rect class="a" width="8.027" height="109.591" transform="matrix(0.559, -0.829, 0.829, 0.559, 312.878, 140.04)"/><rect class="e" width="2.867" height="109.591" transform="matrix(0.559, -0.829, 0.829, 0.559, 312.861, 140.034)"/><path class="d" d="M300.663,157.206l-90.88-61.231L202.57,86.59l11.694,2.731,90.88,61.231Z" transform="translate(103.094 44.065)"/><path class="g" d="M271.476,133.406c-1.222,1.886-2.882,3.018-3.712,2.46s-.5-2.5.724-4.391,2.882-3.018,3.712-2.444S272.7,131.52,271.476,133.406Z" transform="translate(136.038 65.586)"/><path class="f" d="M269.954,132.041c-.438.694-1.056,1.086-1.358.89s-.181-.905.272-1.6,1.056-1.1,1.358-.905S270.407,131.317,269.954,132.041Z" transform="translate(136.61 66.347)"/><path class="d" d="M271.476,133.406c-1.222,1.886-2.882,3.018-3.712,2.46s-.5-2.5.724-4.391,2.882-3.018,3.712-2.444S272.7,131.52,271.476,133.406Z" transform="translate(136.038 65.586)"/><path class="m" d="M316.982,173.56c2.852,7.544-9.732,19.269-28.111,26.224s-35.58,6.5-38.431-1.026" transform="translate(127.455 88.323)"/><path class="n" d="M322.239,185.66c.241,8.057-15.481,15.044-35.1,15.6s-35.761-5.417-36-13.459" transform="translate(127.811 94.48)"/><path class="o" d="M140.032,56l14.621,93.249a6.383,6.383,0,0,1-6.443,7.635H50.9L35.3,56Z" transform="translate(17.973 28.498)"/><path class="g" d="M31.154,157.8H154.34a6.368,6.368,0,0,0,6.443-7.635l-16.6-105.426a9.265,9.265,0,0,0-8.842-7.635H12.2a6.609,6.609,0,0,0-6.383,8L22.312,150.116a9.28,9.28,0,0,0,8.842,7.68Z" transform="translate(2.895 18.88)"/><path class="e" d="M8.455,61.671,5.784,44.651A6.368,6.368,0,0,1,12.212,37h123.2a9.265,9.265,0,0,1,8.842,7.635l2.656,17.02Z" transform="translate(2.886 18.828)"/><path class="p" d="M18.867,45.893a2.58,2.58,0,0,1-2.444,2.112,1.765,1.765,0,0,1-1.78-2.112,2.58,2.58,0,0,1,2.444-2.112,1.765,1.765,0,0,1,1.78,2.112Z" transform="translate(7.442 22.279)"/><path class="g" d="M24.947,45.893A2.565,2.565,0,0,1,22.5,48.005a1.765,1.765,0,0,1-1.78-2.112,2.58,2.58,0,0,1,2.444-2.112,1.765,1.765,0,0,1,1.78,2.112Z" transform="translate(10.536 22.279)"/><path class="p" d="M24.947,45.893A2.565,2.565,0,0,1,22.5,48.005a1.765,1.765,0,0,1-1.78-2.112,2.58,2.58,0,0,1,2.444-2.112,1.765,1.765,0,0,1,1.78,2.112Z" transform="translate(10.536 22.279)"/><path class="p" d="M31.011,45.892A2.565,2.565,0,0,1,28.612,48a1.765,1.765,0,0,1-1.78-2.112,2.58,2.58,0,0,1,2.444-2.112,1.765,1.765,0,0,1,1.735,2.112Z" transform="translate(13.646 22.279)"/><path class="b" d="M36.16,89.377h92.223l-.86-5.417H35.3Z" transform="translate(17.973 42.726)"/><path class="b" d="M34.52,78.907h92.208l-.845-5.417H33.66Z" transform="translate(17.138 37.398)"/><path class="b" d="M37.575,99.852H72.159l-.845-5.432H36.73Z" transform="translate(18.7 48.049)"/><path class="b" d="M15.805,106.667a21.426,21.426,0,0,0,6.262.951c11.121,0,18.725-9.053,16.99-20.144A24.474,24.474,0,0,0,15.76,67.33,18.56,18.56,0,0,0,9.8,68.341Z" transform="translate(4.996 34.263)"/><path class="e" d="M.244,84.669a24.459,24.459,0,0,0,23.3,20.144c11.136,0,18.74-9.053,16.99-20.144a24.444,24.444,0,0,0-23.3-20.129C6.114,64.54-1.506,73.548.244,84.669Z" transform="translate(0.006 32.844)"/><path class="e" d="M32.19,76.122h92.223l-.86-5.432H31.33Z" transform="translate(15.952 35.973)"/><path class="e" d="M33.83,86.592h92.223l-.86-5.432H32.97Z" transform="translate(16.787 41.301)"/><path class="e" d="M35.245,97.062H69.829l-.845-5.432H34.4Z" transform="translate(17.515 46.629)"/><path class="g" d="M8.775,82.262l6.141-2.2-.226-1.509,2.294,1.328h1.509l1.856-1.358.226,1.509,6.881,2.233a1.509,1.509,0,0,1,.966,1.1l.815,5.281H8.986l-.83-5.281A.981.981,0,0,1,8.775,82.262Z" transform="translate(4.15 39.958)"/><path class="g" d="M14.273,68.841a5.93,5.93,0,0,1,5.658,4.9l.453,5.885a1.946,1.946,0,0,1-.936,1.871l-.287.2-1.841,1.358H15.813L13.5,81.727l-.5-.226A2.852,2.852,0,0,1,11.5,79.645L10.109,73.76a4.089,4.089,0,0,1,4.165-4.919Z" transform="translate(5.109 35.031)"/><path class="q" d="M137.19,6.79h53.626a.86.86,0,0,0,.845-1L190.786.709A.86.86,0,0,0,189.941,0H136.284a.845.845,0,0,0-.83,1l.83,5.04A.86.86,0,0,0,137.19,6.79Z" transform="translate(68.933)"/><path class="q" d="M156.52,16.47H265.688a.86.86,0,0,0,.845-1l-.875-5.085a.845.845,0,0,0-.83-.709H155.644a.845.845,0,0,0-.83,1l.86,5.085A.86.86,0,0,0,156.52,16.47Z" transform="translate(78.785 4.926)"/><path class="r" d="M138.088,16.47h20.325a.86.86,0,0,0,.845-1l-.845-5.085a.845.845,0,0,0-.83-.709H137.289a.86.86,0,0,0-.845,1l.875,5.085A.845.845,0,0,0,138.088,16.47Z" transform="translate(69.438 4.926)"/><path class="a" d="M286.656,60.84H115.2a4.059,4.059,0,0,1-4.119-3.425l-4.8-27.809a5.372,5.372,0,0,1,5.236-6.036H282.96a4.074,4.074,0,0,1,4.119,3.41l4.8,27.809a5.341,5.341,0,0,1-5.221,6.051Z" transform="translate(54.074 11.994)"/><path class="s" d="M220.206,33.776H141.518a.528.528,0,0,1-.513-.392l-1-3.229a.528.528,0,0,1,.513-.694h78.749a.528.528,0,0,1,.528.392l.936,3.214a.558.558,0,0,1-.528.709Z" transform="translate(71.244 14.992)"/><path class="g" d="M176.853,40.455H143.341a.558.558,0,0,1-.528-.392l-.936-3.229a.543.543,0,0,1,.528-.694h33.512a.513.513,0,0,1,.513.392l.936,3.229a.528.528,0,0,1-.513.694Z" transform="translate(72.198 18.391)"/><path class="g" d="M245.815,40.455H170.371a.558.558,0,0,1-.528-.392l-.936-3.229a.543.543,0,0,1,.528-.694H244.88a.543.543,0,0,1,.528.392l.92,3.229a.528.528,0,0,1-.513.694Z" transform="translate(85.953 18.391)"/><ellipse class="g" cx="10.321" cy="12.992" rx="10.321" ry="12.992" transform="matrix(0.665, -0.747, 0.747, 0.665, 169.536, 53)"/><path class="e" d="M124.374,38.764h0a.407.407,0,0,0,.422-.543l-1.509-6.352a.709.709,0,0,0-.679-.558h0a.438.438,0,0,0-.422.558l1.509,6.352A.739.739,0,0,0,124.374,38.764Z" transform="translate(62.179 15.933)"/><path class="e" d="M121.172,40.21h0a.438.438,0,0,1-.121-.694l3.289-3.652a.724.724,0,0,1,.86-.136h0a.438.438,0,0,1,.121.694l-3.289,3.652a.724.724,0,0,1-.86.136Z" transform="translate(61.548 18.139)"/><path class="o" d="M100.127,187.122l-7.544-45.387a11.724,11.724,0,0,0-11.437-9.778L47.21,131.64l10.909,66.934,31.913.3a10.155,10.155,0,0,0,10.094-11.754Z" transform="translate(24.033 66.99)"/><path class="e" d="M48.508,195.77l43.758.407a10.125,10.125,0,0,0,10.079-11.8L94.8,138.99a11.679,11.679,0,0,0-11.422-9.763l-43.758-.407a10.14,10.14,0,0,0-10.094,11.8l7.544,45.372a11.724,11.724,0,0,0,11.437,9.778Z" transform="translate(14.965 65.555)"/><path class="g" d="M48.753,162.7a1.1,1.1,0,0,1,0,1.283l-1.765,2.143a1.509,1.509,0,0,0,.362,1.992l4.089,3.486a1.509,1.509,0,0,0,2.007,0l1.735-2.128a1.071,1.071,0,0,1,1.3-.226l.905.347a1.509,1.509,0,0,1,.981,1.1l.543,3.018a1.765,1.765,0,0,0,1.66,1.4h4.919a1.132,1.132,0,0,0,1.147-1.4L66.09,170.7a.936.936,0,0,1,.543-1.086l.86-.362a1.267,1.267,0,0,1,1.328.241l2.535,2.158a1.418,1.418,0,0,0,1.992,0l2.837-3.47a1.509,1.509,0,0,0-.347-1.992l-2.52-2.128a1.343,1.343,0,0,1-.468-1.343,7.4,7.4,0,0,0,.2-.83.951.951,0,0,1,.966-.785h3.018a1.132,1.132,0,0,0,1.147-1.4l-.875-4.9a1.765,1.765,0,0,0-1.66-1.418H72.624a1.509,1.509,0,0,1-1.207-.739l-.543-.92a1.086,1.086,0,0,1,0-1.283l1.765-2.143a1.509,1.509,0,0,0-.362-1.992l-4.089-3.486a1.4,1.4,0,0,0-2.007,0l-1.765,2.1a1.071,1.071,0,0,1-1.3.226,10,10,0,0,0-.936-.362,1.509,1.509,0,0,1-.981-1.1l-.558-3.018a1.735,1.735,0,0,0-1.66-1.4h-4.9a1.147,1.147,0,0,0-1.162,1.4l.558,3.018a.92.92,0,0,1-.543,1.071l-.845.377a1.283,1.283,0,0,1-1.343-.241l-2.535-2.143a1.388,1.388,0,0,0-1.992,0l-2.837,3.455a1.509,1.509,0,0,0,.422,2.037l2.52,2.128a1.343,1.343,0,0,1,.468,1.328,8.541,8.541,0,0,0-.2.845.951.951,0,0,1-.966.785H42.612a1.147,1.147,0,0,0-1.162,1.4l.89,4.9A1.765,1.765,0,0,0,44,161.039h3.848S48.33,161.959,48.753,162.7Zm14.727.966c-3.757,1.509-8.691-.89-10.291-5.221A5.885,5.885,0,0,1,56.1,150.7c3.757-1.509,8.691.89,10.306,5.236a5.885,5.885,0,0,1-2.988,7.726Z" transform="translate(21.087 70.862)"/><path class="e" d="M258.57,55.722l25.757.241a6.036,6.036,0,0,0,5.945-6.926l-4.527-26.722a6.865,6.865,0,0,0-6.73-5.749l-25.757-.257a6.036,6.036,0,0,0-5.945,6.956l4.527,26.722a6.911,6.911,0,0,0,6.73,5.734Z" transform="translate(125.828 8.3)"/><path class="g" d="M260.67,34.587l8.223,1.509a.89.89,0,0,0,1.086-1.071h0a1.388,1.388,0,0,0-1.1-1.086l-8.224-1.509a.89.89,0,0,0-1.086,1.071h0a1.509,1.509,0,0,0,1.1,1.086Z" transform="translate(132.087 16.489)"/><path class="g" d="M261.1,36.832l8.224,1.509a.89.89,0,0,0,1.086-1.071h0a1.373,1.373,0,0,0-1.1-1.071l-8.223-1.509A.89.89,0,0,0,260,35.776h0a1.388,1.388,0,0,0,1.1,1.056Z" transform="translate(132.305 17.638)"/><path class="g" d="M256.345,28.158a6.277,6.277,0,0,1,6.322-7.816,9.929,9.929,0,0,1,9.325,7.816,6.564,6.564,0,0,1-1.615,5.945l.92,4.844L260.811,37.09l-.573-3.018A9.778,9.778,0,0,1,256.345,28.158Z" transform="translate(130.362 10.349)"/><path class="g" d="M265.639,37.689a1.328,1.328,0,0,1-1.388,1.373,2.128,2.128,0,0,1-2.007-1.675,1.132,1.132,0,0,1,0-.317Z" transform="translate(133.456 18.864)"/></g></g></svg>