<svg xmlns="http://www.w3.org/2000/svg" width="451.878" height="350.37" viewBox="0 0 451.878 350.37"><defs><style>.a{fill:#0571ba;}.b{fill:#0494c6;}.c{fill:#dffffd;}.d{fill:#69ccee;}.e{fill:#00ebc7;}.f{fill:#0b3c5f;}.g{fill:#232368;}.h{fill:#2b2b7f;}.i{fill:#fff;}.j{fill:#f3ae98;}.k{fill:#fcd011;}.l{fill:#b0e9f1;}.m{fill:#f29173;}.n{fill:#004275;}.o{fill:#f19e84;}.p{fill:#232b59;}</style></defs><g transform="translate(0)"><rect class="a" width="2.204" height="77.944" transform="translate(290.562 222.801)"/><path class="a" d="M85.576,273.68,84.325,275.5l63.392,43.457a1.107,1.107,0,0,0,1.539-.277h0a1.107,1.107,0,0,0-.288-1.539Z" transform="translate(209.039 29.412)"/><path class="a" d="M210.492,273.68l1.251,1.816-63.381,43.457a1.107,1.107,0,0,1-1.539-.277h0a1.107,1.107,0,0,1,.288-1.539Z" transform="translate(77.744 29.412)"/><path class="a" d="M143.048,317.679l17.022-44.3h2.37l-17.332,45.063a1.107,1.107,0,0,1-2.06-.8Z" transform="translate(131.068 29.38)"/><rect class="b" width="10.942" height="9.469" rx="0.7" transform="translate(286.188 297.278)"/><rect class="c" width="244.895" height="219.644" transform="translate(169.216 1.894)"/><path class="b" d="M33.53,222.047H279.688V1.14H33.53Zm244.9-1.263H34.781V2.4H278.425Z" transform="translate(135.055 0.123)"/><rect class="b" width="251.828" height="3.788" transform="translate(165.75)"/><rect class="b" width="251.828" height="3.788" transform="translate(165.75 220.276)"/><rect class="d" width="210.696" height="4.33" transform="translate(187.257 126.451)"/><rect class="d" width="210.696" height="4.33" transform="translate(187.257 139.198)"/><rect class="d" width="137.858" height="4.33" transform="translate(260.096 151.867)"/><rect class="d" width="210.696" height="4.33" transform="translate(187.257 175.368)"/><rect class="d" width="210.696" height="4.33" transform="translate(187.257 188.115)"/><rect class="d" width="137.858" height="4.33" transform="translate(260.096 200.784)"/><rect class="d" width="9.934" height="11.617" transform="translate(302.013 93.869)"/><rect class="d" width="9.934" height="30.3" transform="translate(283.053 75.186)"/><rect class="d" width="9.934" height="24.42" transform="translate(264.094 81.067)"/><rect class="d" width="9.934" height="41.076" transform="translate(245.145 64.399)"/><rect class="d" width="9.934" height="32.582" transform="translate(226.185 72.894)"/><rect class="d" width="9.934" height="46.957" transform="translate(207.225 58.519)"/><rect class="d" width="9.934" height="61.664" transform="translate(188.453 43.823)"/><rect class="d" width="19.082" height="3.178" transform="translate(271.79 39.238)"/><rect class="d" width="51.187" height="3.178" transform="translate(239.685 30.555)"/><path class="d" d="M126.21,21.68l8.539.188L132.8,24.825l32.039,28.506a4.43,4.43,0,0,0,5.947.155l10.355-8.472c3.477-2.835,8.14-2.215,11.075,1.4l12.027,14.84a4.43,4.43,0,0,0,6.534.864l7.586-6.069c3.455-2.758,7.941-2.215,10.9,1.307l18.827,22.459-2.481,3.234L226.779,60.6a4.43,4.43,0,0,0-6.468-.775l-7.586,6.069c-3.522,2.813-8.051,2.215-11.075-1.451l-12-14.851a4.541,4.541,0,0,0-6.589-.82L172.7,57.241a7.487,7.487,0,0,1-9.967-.266L130.507,28.3l-1.916,2.913Z" transform="translate(64.015 2.33)"/><path class="d" d="M124.95,33.179a5.836,5.836,0,1,0,1.705-4.145A5.859,5.859,0,0,0,124.95,33.179Z" transform="translate(176.831 2.936)"/><path class="e" d="M48.68,55.415A33.136,33.136,0,1,0,81.812,22.28L81.8,55.415l-31.84-9.081A32.759,32.759,0,0,0,48.68,55.415Z" transform="translate(283.014 2.394)"/><path class="e" d="M82.23,41.158l31.862,9.137V17.17A33.157,33.157,0,0,0,82.231,41.155Z" transform="translate(246.717 1.845)"/><path class="f" d="M264.179,315.962h21.3v-.41a1.7,1.7,0,0,0-1.429-1.683c-3.123-.476-8.472-1.683-11.861-7.442-.111-.188-.233-.388-.332-.587a4.009,4.009,0,0,0-7.276,1.683c0,.21,0,.432,0,.653C264.334,310.823,264.123,314.245,264.179,315.962Z" transform="translate(-161.16 32.681)"/><path class="f" d="M275.83,308.091v.055a4.02,4.02,0,0,0,8.029-.066,4.253,4.253,0,0,0-.377-1.683c-.111-.188-.233-.388-.332-.587a4.009,4.009,0,0,0-7.276,1.683A5.241,5.241,0,0,0,275.83,308.091Z" transform="translate(-172.457 32.677)"/><path class="g" d="M276.19,245.11a7.531,7.531,0,1,0,2.217-5.326,7.542,7.542,0,0,0-2.217,5.326Z" transform="translate(-180.27 25.534)"/><path class="g" d="M295.929,312.12a39.084,39.084,0,0,1-8.793,2.436c-4.906-32.117-17.9-54.554-8.86-71.066l16.7,1.019C295.63,261.221,296.46,286.958,295.929,312.12Z" transform="translate(-183.95 26.168)"/><path class="g" d="M279.251,175.782a19.934,19.934,0,1,0,16.612-22.758,19.935,19.935,0,0,0-16.612,22.758Z" transform="translate(-211.007 16.419)"/><path class="g" d="M315.542,168.68c2.027,26.469,2.857,54.41,3.322,83.5l-15.017,8.085C291.31,240.71,276.16,189.19,276.16,174.073Z" transform="translate(-207.827 18.128)"/><path class="f" d="M319.426,316.262h15.206v-.41a1.927,1.927,0,0,0-1.418-1.694c-3.389-1.384-4-3.322-5.77-7.453-.078-.2-.221-.388-.321-.587a4.02,4.02,0,0,0-7.276,1.661v.664C319.592,311.124,319.382,314.546,319.426,316.262Z" transform="translate(-271.504 32.712)"/><path class="f" d="M325.57,308.388v.055a4.009,4.009,0,1,0,8.018-.055,3.909,3.909,0,0,0-.376-1.683c-.1-.188-.221-.388-.321-.587a4.02,4.02,0,0,0-7.276,1.661A3.67,3.67,0,0,0,325.57,308.388Z" transform="translate(-277.271 32.712)"/><path class="a" d="M309.834,244.415a7.52,7.52,0,1,0,3.548-4.542A7.531,7.531,0,0,0,309.834,244.415Z" transform="translate(-250.572 25.674)"/><path class="h" d="M318.87,313.5a21.519,21.519,0,0,1-9.07.919c3.788-32.216-2.824-58.253,10.244-71.786l15.826,5.427C332.093,264.336,326.069,289.376,318.87,313.5Z" transform="translate(-262.088 26.075)"/><path class="h" d="M309.834,244.415a7.52,7.52,0,1,0,3.548-4.542A7.531,7.531,0,0,0,309.834,244.415Z" transform="translate(-250.572 25.674)"/><path class="h" d="M294.139,170.443a19.934,19.934,0,1,0,22.028-17.531,19.934,19.934,0,0,0-22.028,17.531Z" transform="translate(-242.606 16.42)"/><path class="h" d="M335.541,174.013c-5.072,26.048-9.812,53.469-17.144,81.632l-16.612,3.8c-6.9-22.149-9.7-76.127-5.715-90.713Z" transform="translate(-244.527 18.133)"/><ellipse class="i" cx="8.638" cy="8.638" rx="8.638" ry="8.638" transform="translate(92.102 100.665) rotate(-125.47)"/><path class="i" d="M242.808,104.656a7.221,7.221,0,1,0-4.02-3.8,7.221,7.221,0,0,0,4.02,3.8Z" transform="translate(-99.477 9.746)"/><path class="i" d="M242.727,88.621c-3.732-2.8-5.6-6.357-3.909-10.809,2.027-5.3,6.722-6.645,11.363-5.537,29.082,6.789,33.446,16.247,51.575,20.776,3.322.831,5.272,5.238,3.322,10.211-1.24,3.322-4.862,4.574-8.284,4.053C260.979,101.767,246.26,91.3,242.727,88.621Z" transform="translate(-152.766 7.729)"/><path class="j" d="M194.406,66.661c2.093.554.709,4.95,1.285,4.906,5.028-.343,10.133.952,9.967,1.849s-4.973-.532-5.161-.144c-.354.7,7.265.653,6.933,2.148-.3,1.3-6.135-.587-6.324.255-.277,1.229,6.224.2,6.113,1.838-.089,1.251-6.169-.277-6.113.587s4.995,1.107,4.651,2.215c-.3.93-4.109-.465-7.254-.21a36.547,36.547,0,0,1-7.752-.565,1.728,1.728,0,0,1-1.03-3.145,31.387,31.387,0,0,0,2.769-4.3C194.794,68.92,193.675,66.462,194.406,66.661Z" transform="translate(0.145 7.163)"/><path class="i" d="M246.98,104.933a7.221,7.221,0,1,0-8.649-5.371A7.221,7.221,0,0,0,246.98,104.933Z" transform="translate(-99.429 9.745)"/><path class="i" d="M256.792,79.112c-21.175,15.073-41.375,26.38-43.634,27.2a7.143,7.143,0,0,1-9.458-3.876c-1.528-3.655-1.561-6.933,2.913-9.58,12.913-7.642,26.978-11.019,47.544-18.406Z" transform="translate(-64.478 8.001)"/><path class="i" d="M273.8,82.795a8.638,8.638,0,1,0,10.322-6.534A8.638,8.638,0,0,0,273.8,82.795Z" transform="translate(-176.983 8.173)"/><path class="i" d="M314.611,66.521h0c12.957,2.215,21.142,14.984,19.813,29.071-3,31.7-3.433,71.332-8.184,75.208-1.107.9-.41,1.971-1.107,2.381-24.962,7.232-35.882,5.814-52.583.532-1.384-9.458,6.08-50.2,13.777-86.272C289.284,73.609,301.654,64.328,314.611,66.521Z" transform="translate(-219.345 7.115)"/><path class="i" d="M296.079,77.785a8.638,8.638,0,1,0,3.812-5.409,8.638,8.638,0,0,0-3.812,5.409Z" transform="translate(-223.936 7.634)"/><path class="f" d="M306.28,168.357a85.088,85.088,0,0,1-26.38-3.9l.233-3.322c-.122,0,26.668,8.738,54-.377L333.767,164A85.974,85.974,0,0,1,306.28,168.357Z" transform="translate(-227.238 17.277)"/><rect class="f" width="6.578" height="4.784" rx="0.76" transform="translate(86.783 181.24) rotate(-6.35)"/><path class="k" d="M293.243,168.865l4.674-.521a1.4,1.4,0,0,0,.952-.521,1.417,1.417,0,0,0,.3-1.041l-.321-2.89a1.462,1.462,0,0,0-.521-.952,1.417,1.417,0,0,0-1.041-.3l-4.674.521a1.418,1.418,0,0,0-1.251,1.562l.321,2.891a1.418,1.418,0,0,0,1.406,1.262Zm4.43-5.172a.476.476,0,0,1,.166.31l.321,2.891a.454.454,0,0,1-.1.332.41.41,0,0,1-.3.166l-4.674.521a.465.465,0,0,1-.343-.089.476.476,0,0,1-.166-.31l-.321-2.89a.465.465,0,0,1,.4-.509l4.7-.52h.055a.454.454,0,0,1,.321.1Z" transform="translate(-204.965 17.478)"/><path class="i" d="M302.275,73.366a8.638,8.638,0,1,0,12.038,1.982,8.638,8.638,0,0,0-12.038-1.982Z" transform="translate(-229.822 7.712)"/><path class="i" d="M343.078,103.891a7.232,7.232,0,1,0,10.078,1.661,7.232,7.232,0,0,0-10.078-1.661Z" transform="translate(-314.237 11.02)"/><path class="i" d="M346.158,72.644c4.43-1.573,8.395-1.174,11.174,2.7,3.322,4.607,1.827,9.258-1.639,12.537-21.706,20.521-32.006,18.938-45.728,31.6-2.547,2.348-7.287,1.517-10.388-2.813-2.038-2.835-1.107-6.578,1.185-9.137C325.127,80.629,341.972,74.161,346.158,72.644Z" transform="translate(-272.842 7.714)"/><path class="l" d="M298.532,101.511a.576.576,0,0,1-.465-.244.554.554,0,0,1,.155-.764,118.356,118.356,0,0,0,16.258-13.068c3.743-3.544,4.33-7.963,1.562-11.817a8.8,8.8,0,0,0-1.916-1.971.543.543,0,0,1-.122-.775.554.554,0,0,1,.764-.122,9.491,9.491,0,0,1,2.215,2.215c3.112,4.352,2.481,9.3-1.706,13.29a120.458,120.458,0,0,1-16.468,13.223A.5.5,0,0,1,298.532,101.511Z" transform="translate(-232.059 7.807)"/><path class="j" d="M328.941,159.53s3.743,2.093,4.131,4.928c.509,3.71,1.739,4.1,1.229,4.507s-1.174.144-1.96-1.318C331.355,165.787,328.941,159.53,328.941,159.53Z" transform="translate(-281.838 17.145)"/><path class="b" d="M306.194,170.185l10.3,41.131a1.672,1.672,0,0,0,1.883,1.362L349.64,206.8a2.215,2.215,0,0,0,1.506-2.647L342.087,161.5a1.683,1.683,0,0,0-1.96-1.44l-9.912,2.215-3.777.853-1.993.454-12.969,3.057-3.81.875a2.215,2.215,0,0,0-1.473,2.669Z" transform="translate(-273.355 17.199)"/><path class="l" d="M331.033,204.9a.432.432,0,0,1-.421-.343l-9.192-42.017a.25.25,0,0,0-.277-.255L307.5,165.162a.421.421,0,0,1-.5-.332.41.41,0,0,1,.321-.5l13.644-2.879a1.107,1.107,0,0,1,1.285.908l9.137,42.017a.421.421,0,0,1-.321.509Z" transform="translate(-254.505 17.349)"/><path class="l" d="M342.041,168.721a.41.41,0,0,1-.41-.343.421.421,0,0,1,.321-.5l2.425-.5a.432.432,0,0,1,.509.332.421.421,0,0,1-.332.5l-2.425.5Z" transform="translate(-306.356 17.987)"/><path class="j" d="M338.145,163.195c.964,2.315,2.215,9.48.93,9.5s-.875-5.061-1.595-5.161c-.963-.133,1.34,6.877-.133,7.11s-1.174-6.412-2.215-6.224c-1.218.221,2.137,5.9.554,6.058-1.274.122-2.536-6.091-3.378-6.036s1.041,4.242-.078,4.43c-.908.166-1.9-4.075-2.148-7.143-.277-3.489,1.107-4.53.365-5.659-1.019-1.506.055-2.769,1.706-2.8C333.028,157.281,337.148,160.781,338.145,163.195Z" transform="translate(-288.262 16.902)"/><path class="m" d="M332.047,169.479a.244.244,0,0,1-.244-.221,26.992,26.992,0,0,0-1.362-6.412,8.849,8.849,0,0,0-.509-1.03.266.266,0,0,1,.1-.332.244.244,0,0,1,.332.1,9.407,9.407,0,0,1,.52,1.107,27.065,27.065,0,0,1,1.406,6.556.244.244,0,0,1-.221.266Z" transform="translate(-280.781 17.351)"/><path class="i" d="M340.248,110a7.221,7.221,0,1,0,2.286-5.036A7.221,7.221,0,0,0,340.248,110Z" transform="translate(-314.619 11.071)"/><path class="i" d="M350.134,166.13c-15.914-30.09-15.5-52.527-15.682-54.919a7.154,7.154,0,0,1,6.213-8.118c3.943-.521,7.11.321,8.494,5.327,4,14.464,4.43,34.6,6.169,56.381Z" transform="translate(-308.768 11.065)"/><path class="n" d="M287.028,80.386l-3.9-3.8,2.6-2.857,3.389,1.938Z" transform="translate(-185.803 7.924)"/><path class="n" d="M284.34,77.48a97.714,97.714,0,0,1,3.023,21.341,149.919,149.919,0,0,1-.72,21.507c-.7,7.077-1.207,7.1-1.5,14.2s-.365,14.231,0,21.23l-1.4,1.927-1.783-1.761c-.2-7.254.055-14.4.465-21.529s1.107-7.221,1.96-14.32a149.01,149.01,0,0,0,1.107-21.2,96.436,96.436,0,0,0-2.525-21.042Z" transform="translate(-182.794 8.327)"/><path class="o" d="M283.4,68.982c2.115-2.348,3.433-7.254,4.164-10.92a4.2,4.2,0,0,1,4.928-3.455h0a4.2,4.2,0,0,1,2.979,5.227c-.908,3.632-1.816,8.627-.908,11.662C293.731,74.752,282.756,72.282,283.4,68.982Z" transform="translate(-192.584 5.861)"/><path class="j" d="M297.649,39.975c.41,7.409.177,25.66-8.694,27.044-6.08.963-15.073-9.967-15.593-15.914s-4.507-15.217,9.89-17.786C294.825,31.259,297.417,35.9,297.649,39.975Z" transform="translate(-182.637 3.526)"/><path class="p" d="M281.883,45.858l.576,1.107h0c.964,1.528,2.924,3.178,4.308,7.752.975,3.19,4.984,1.706,9.126.93,4.862-.975,3.976,1.429,3.976,1.794s-2.06,12.26-9.115,11.285-7.852-5.371-7.309-9.114c.565-3.987-.653-9.048-3.178-11.008-1.517-1.107-4.43,0-3.865,3.2.664,3.477,3.322,4.142,4.563,7.221s-3.322,4.784-3.322,4.784,1.107-1.838-.089-4.917a111.855,111.855,0,0,0-4.685-10.333,18.1,18.1,0,0,1-1.894-6.434,2.425,2.425,0,0,1,2.414-2.7c-.133-2.215.432-5.537,5.36-9.258A37.71,37.71,0,0,1,289.69,24.75c-1.916,3.034-.886,5.017-.886,5.017,7.686-2.558,1.827-8.516,1.827-8.516s7.475.177,10.156,5.272c3.887,7.4-.7,12.348-.7,12.348S298,33.842,288.306,36.2C278.97,38.427,281.262,44.784,281.883,45.858Zm12.8,18.528a3.012,3.012,0,0,0,3-2.436c.521-1.606.775-2.9-1.55-3-2.647-.122-5.349.089-5.859,2.591S293.91,64.441,294.685,64.386Z" transform="translate(-185.553 2.284)"/><path class="b" d="M.787,316.545H161.116a.853.853,0,0,0,.8-.9.864.864,0,0,0-.8-.908H.787a.853.853,0,0,0-.786.908.842.842,0,0,0,.786.9Z" transform="translate(289.963 33.825)"/><path class="b" d="M152.268,316.545h46a.853.853,0,0,0,.8-.9.864.864,0,0,0-.8-.908h-46a.864.864,0,0,0-.8.908.853.853,0,0,0,.8.9Z" transform="translate(85.058 33.825)"/><path class="b" d="M210.986,316.545H393.5a.842.842,0,0,0,.786-.9.853.853,0,0,0-.786-.908H210.986a.853.853,0,0,0-.786.908.842.842,0,0,0,.786.9Z" transform="translate(-210.198 33.825)"/></g></svg>