<svg xmlns="http://www.w3.org/2000/svg" width="49.999" height="49.998" viewBox="0 0 49.999 49.998"><defs><style>.a{fill:#00ebc7;}</style></defs><g transform="translate(0 0.001)"><g transform="translate(0 -0.001)"><path class="a" d="M84.367,81.245a3.11,3.11,0,0,1-6.221,0c0-.409-.1-.821-.61-.828-.649,0-.607.727-.607.828a4.328,4.328,0,1,0,4.315-4.315c-.325,0-.851.078-.851.649,0,.484.464.565.8.565a3.133,3.133,0,0,1,3.175,3.1Z" transform="translate(-51.952 -51.953)"/><path class="a" d="M67.9,47.2A20.7,20.7,0,0,0,35.1,30.418a.61.61,0,1,0,.714.974,19.48,19.48,0,1,1-4.425,4.438.611.611,0,1,0-.993-.711A20.7,20.7,0,1,0,67.9,47.2Z" transform="translate(-17.896 -17.912)"/><path class="a" d="M67.27,64.094a7.987,7.987,0,1,1-3.191,3.191A.61.61,0,0,0,63,66.707a9.227,9.227,0,1,0,3.688-3.685.609.609,0,0,0,.578,1.071Z" transform="translate(-41.787 -41.802)"/><path class="a" d="M51.205,47.915a13.6,13.6,0,0,1,7.915-2.523,13.743,13.743,0,1,1-13.73,13.73,13.6,13.6,0,0,1,2.523-7.915.61.61,0,1,0-1-.7,14.818,14.818,0,0,0-2.747,8.62,14.974,14.974,0,1,0,6.331-12.2.61.61,0,1,0,.7,1Z" transform="translate(-29.829 -29.83)"/><path class="a" d="M29.733,28.872,15.841,14.979l-.419-8.318a.6.6,0,0,0-.162-.4L9.162.178A.607.607,0,0,0,8.591.015a.617.617,0,0,0-.438.4L6.429,5.567,5.1,4.236a.61.61,0,0,0-.86.864L5.565,6.428.416,8.152a.61.61,0,0,0-.237,1.01l6.084,6.1a.6.6,0,0,0,.4.175l8.315.419,13.9,13.9a.61.61,0,0,0,.86-.864ZM6.958,14.216,1.737,9l4.792-1.6,7.162,7.162ZM7.39,6.528,9,1.736,14.217,6.96l.325,6.734Z" transform="translate(0 0.001)"/></g></g></svg>