<svg xmlns="http://www.w3.org/2000/svg" width="40" height="40" viewBox="0 0 40 40"><defs><style>.a{fill:#fff;}</style></defs><path class="a" d="M40,20A20,20,0,0,0,6.156,5.566,1.185,1.185,0,0,0,7.8,7.277a17.631,17.631,0,1,1-.382,25.067c.02-.085.041-.168.063-.252.017-.067.033-.134.051-.2.028-.1.059-.2.089-.3.018-.059.035-.119.054-.178.037-.115.077-.227.118-.34.015-.043.029-.086.045-.129q.173-.465.384-.909c.021-.044.044-.087.065-.131.05-.1.1-.205.154-.306.028-.053.058-.105.087-.158.049-.09.1-.18.149-.268.033-.057.068-.112.1-.168.05-.082.1-.165.151-.246.037-.058.076-.113.114-.17.052-.077.1-.155.157-.231.04-.057.082-.113.124-.17.054-.073.107-.147.162-.219.043-.057.089-.112.133-.168s.111-.14.169-.208.094-.109.141-.164.116-.133.176-.2.1-.106.149-.159.121-.127.182-.189.1-.1.156-.153.125-.121.189-.18.109-.1.163-.147.13-.115.2-.171.113-.095.17-.141.134-.109.2-.162l.176-.135c.069-.052.138-.1.208-.152l.183-.128q.106-.073.214-.143l.188-.121q.109-.068.22-.134c.064-.038.129-.076.194-.113s.15-.084.226-.125l.2-.105c.076-.039.154-.077.231-.115s.135-.065.2-.1.158-.071.237-.105.137-.06.207-.088.162-.064.243-.1.139-.054.21-.079.166-.058.249-.086.141-.048.212-.07.17-.051.256-.076.142-.042.214-.061c.087-.023.175-.044.263-.065.071-.017.143-.035.215-.051.09-.02.181-.037.271-.055.071-.014.142-.029.213-.042.093-.016.188-.03.282-.044.07-.011.139-.022.209-.032.1-.013.2-.023.3-.034.066-.007.132-.015.2-.021.111-.01.223-.016.335-.022.056,0,.112-.008.168-.011q.253-.011.508-.011h2.918a11.388,11.388,0,0,1,8.819,4.166,1.185,1.185,0,1,0,1.83-1.507A13.759,13.759,0,0,0,25.015,21.6a7.572,7.572,0,1,0-10.03,0l-.117.031q-.244.067-.484.143l-.059.018q-.269.086-.534.183c-.055.02-.109.042-.164.063-.121.046-.242.093-.361.142-.066.027-.131.056-.2.085-.107.046-.213.093-.318.141l-.2.1q-.152.073-.3.15l-.2.106q-.151.08-.3.165c-.064.036-.128.072-.191.109-.1.061-.207.124-.309.188-.056.035-.112.069-.167.1-.127.082-.252.166-.377.252l-.086.058q-.228.16-.448.329c-.043.033-.084.067-.126.1-.1.081-.207.163-.308.247-.054.045-.107.091-.16.136-.088.075-.176.151-.262.229-.056.05-.11.1-.165.152q-.123.114-.243.231l-.162.161q-.119.12-.234.243c-.051.054-.1.108-.152.163-.08.087-.158.177-.235.266-.044.051-.09.1-.133.154-.091.109-.181.22-.269.332-.027.034-.055.068-.082.1q-.171.22-.333.448c-.029.04-.056.082-.084.123-.078.113-.156.226-.231.341-.038.058-.074.118-.111.177-.063.1-.126.2-.186.3-.039.065-.076.131-.114.2q-.085.148-.166.3-.055.1-.109.205-.078.151-.153.3c-.034.069-.067.138-.1.207-.05.108-.1.217-.146.326-.028.065-.058.13-.085.2-.053.128-.1.257-.153.386-.019.049-.039.1-.057.147l-.008.021A17.577,17.577,0,0,1,2.37,20,1.185,1.185,0,0,0,0,20,20,20,0,0,0,34.745,33.51h0A19.944,19.944,0,0,0,40,20ZM20,10.736a5.2,5.2,0,1,1-5.2,5.2A5.208,5.208,0,0,1,20,10.736Z"/></svg>