<svg xmlns="http://www.w3.org/2000/svg" width="167.131" height="167.132" viewBox="0 0 167.131 167.132"><defs><style>.a{fill:#e8ebec;}.b{fill:#fff;}.c{fill:#00ebc7;}.d{fill:#273d83;}.e{fill:#21365f;}</style></defs><path class="a" d="M110.528,80.137H38.343a22.988,22.988,0,1,1,2.092-45.929V31.886a26.971,26.971,0,0,1,53.074-6.609,15.539,15.539,0,0,1,8.012-2.22,15.846,15.846,0,0,1,15.82,15.82,15.488,15.488,0,0,1-1.021,5.588,18.3,18.3,0,0,1-5.792,35.723Zm-72.185-42.1a19.214,19.214,0,0,0-18.06,9.039c-1.56,2.525-2.216,5.91-2.531,9.052.25,6.195.267,7.48,2.531,11.144a19.214,19.214,0,0,0,18.06,9.039h72.185a14.493,14.493,0,0,0,2.73-28.706,1.914,1.914,0,0,1-1.3-2.832A11.967,11.967,0,0,0,93.484,30.023a1.939,1.939,0,0,1-1.939.383,1.965,1.965,0,0,1-1.25-1.556A23.143,23.143,0,0,0,44.212,31.86,22.428,22.428,0,0,0,44.62,36.1a1.99,1.99,0,0,1-.561,1.735,1.939,1.939,0,0,1-1.735.485,18.677,18.677,0,0,0-3.981-.281Z" transform="translate(25.447 7.894)"/><path class="b" d="M130.947,72.9H5.917a1.965,1.965,0,0,1-1.608-.868,1.914,1.914,0,0,1-.153-1.812,37.713,37.713,0,0,0,0-26.537,1.914,1.914,0,0,1,.153-1.812A1.965,1.965,0,0,1,5.917,41H130.947a1.863,1.863,0,0,1,1.735,1.123,1.914,1.914,0,0,1-.306,2.067,19.928,19.928,0,0,0,0,25.516,1.914,1.914,0,0,1-1.429,3.164ZM8.673,69.068H127.2a24.317,24.317,0,0,1,0-24.24H8.673a43.505,43.505,0,0,1,0,24.24Z" transform="translate(6.203 63.616)"/><path class="b" d="M139.945,86.4H14.915a1.888,1.888,0,0,1-1.582-.842,1.939,1.939,0,0,1-.2-1.786,45.036,45.036,0,0,0,0-29.191,1.939,1.939,0,0,1,1.786-2.552H139.945a1.939,1.939,0,0,1,1.735,1.1,1.914,1.914,0,0,1-.23,2.016,23.5,23.5,0,0,0,0,28.221,1.965,1.965,0,0,1,.23,2.041A1.914,1.914,0,0,1,139.945,86.4ZM17.594,82.573H136.347a28.068,28.068,0,0,1,0-26.792H17.594a50.777,50.777,0,0,1,0,26.792Z" transform="translate(20.17 80.731)"/><path class="b" d="M19.569,55.827a5.741,5.741,0,0,0-5.741,5.741v15.31a5.741,5.741,0,0,0,5.741,5.741H149.7a1.914,1.914,0,0,1,0,3.827H19.569A9.569,9.569,0,0,1,10,76.878V61.569A9.594,9.594,0,0,1,19.569,52H149.7a1.914,1.914,0,0,1,0,3.827" transform="translate(15.516 80.684)"/><path class="b" d="M139.7,72.9H12.12A12.12,12.12,0,0,1,0,60.775V53.12A12.12,12.12,0,0,1,12.12,41H139.7a1.914,1.914,0,0,1,0,3.827H12.12A8.318,8.318,0,0,0,3.827,53.12v7.655a8.318,8.318,0,0,0,8.293,8.293H139.7a1.914,1.914,0,0,1,0,3.827Z" transform="translate(0 63.616)"/><path class="b" d="M75.99,51.827H28.454a1.914,1.914,0,1,1,0-3.827H75.99a1.914,1.914,0,1,1,0,3.827Z" transform="translate(41.18 74.478)"/><path class="b" d="M41.227,48.327H34.414a1.914,1.914,0,1,1,0-3.827h6.813a1.914,1.914,0,0,1,0,3.827Z" transform="translate(50.428 69.047)"/><path class="b" d="M50.585,48.327H17.414a1.914,1.914,0,0,1,0-3.827H50.585a1.914,1.914,0,0,1,0,3.827Z" transform="translate(24.05 69.047)"/><path class="b" d="M60.963,63.827H54.584a1.914,1.914,0,0,1,0-3.827h6.379a1.914,1.914,0,0,1,0,3.827Z" transform="translate(81.724 93.097)"/><path class="b" d="M75.611,63.827H34.454a1.914,1.914,0,0,1,0-3.827H75.611a1.914,1.914,0,0,1,0,3.827Z" transform="translate(50.49 93.097)"/><path class="b" d="M84.748,59.827H24.454a1.914,1.914,0,1,1,0-3.827H84.748a1.914,1.914,0,0,1,0,3.827Z" transform="translate(34.973 86.891)"/><path class="c" d="M72.159,39.163V18.75H41.54V39.163H26.23L56.849,69.782,87.469,39.163Z" transform="translate(40.699 29.093)"/><path class="d" d="M6.914,48.034A1.914,1.914,0,0,1,5,46.12V35.914a1.914,1.914,0,0,1,3.827,0V46.12A1.914,1.914,0,0,1,6.914,48.034Z" transform="translate(7.758 52.755)"/><path class="d" d="M15.12,39.827H4.914a1.914,1.914,0,1,1,0-3.827H15.12a1.914,1.914,0,1,1,0,3.827Z" transform="translate(4.655 55.858)"/><circle class="d" cx="1.914" cy="1.914" r="1.914" transform="translate(28.068 91.858)"/><circle class="d" cx="1.914" cy="1.914" r="1.914" transform="translate(35.723 91.858)"/><circle class="d" cx="1.914" cy="1.914" r="1.914" transform="translate(45.929 91.858)"/><circle class="d" cx="1.914" cy="1.914" r="1.914" transform="translate(61.239 91.858)"/><path class="d" d="M57.664,14.034A1.939,1.939,0,0,1,55.75,12.12V1.914a1.914,1.914,0,0,1,3.827,0V12.12A1.914,1.914,0,0,1,57.664,14.034Z" transform="translate(86.503)"/><path class="d" d="M65.87,5.827H55.664a1.914,1.914,0,0,1,0-3.827H65.87a1.914,1.914,0,0,1,0,3.827Z" transform="translate(83.4 3.103)"/><circle class="d" cx="1.914" cy="1.914" r="1.914" transform="translate(126.943 5.103)"/><circle class="d" cx="1.914" cy="1.914" r="1.914" transform="translate(119.288 5.103)"/><circle class="d" cx="1.914" cy="1.914" r="1.914" transform="translate(109.082 5.103)"/><circle class="d" cx="1.914" cy="1.914" r="1.914" transform="translate(93.772 5.103)"/><path class="e" d="M26.87,16.827H16.664a1.914,1.914,0,1,1,0-3.827H26.87a1.914,1.914,0,1,1,0,3.827Z" transform="translate(22.886 20.171)"/><path class="e" d="M18.664,25.034A1.939,1.939,0,0,1,16.75,23.12V12.914a1.914,1.914,0,1,1,3.827,0V23.12A1.914,1.914,0,0,1,18.664,25.034Z" transform="translate(25.99 17.068)"/><path class="e" d="M15.12,7.827H4.914A1.914,1.914,0,1,1,4.914,4H15.12a1.914,1.914,0,1,1,0,3.827Z" transform="translate(4.655 6.206)"/><path class="e" d="M6.914,16.034A1.939,1.939,0,0,1,5,14.12V3.914a1.914,1.914,0,1,1,3.827,0V14.12a1.939,1.939,0,0,1-1.914,1.914Z" transform="translate(7.758 3.103)"/><path class="d" d="M72.12,46.827H61.914a1.914,1.914,0,1,1,0-3.827H72.12a1.914,1.914,0,1,1,0,3.827Z" transform="translate(93.097 66.72)"/><path class="d" d="M63.914,55.034A1.914,1.914,0,0,1,62,53.12V42.914a1.914,1.914,0,0,1,3.827,0V53.12a1.888,1.888,0,0,1-1.914,1.914Z" transform="translate(96.2 63.616)"/></svg>