<svg xmlns="http://www.w3.org/2000/svg" width="185.897" height="152.834" viewBox="0 0 185.897 152.834"><defs><style>.a{fill:#fff;}.b{fill:#00ebc7;}.c{fill:#273d83;}</style></defs><g transform="translate(-17.758)"><g transform="translate(17.758 0)"><path class="a" d="M151.253,139.5H15.92a8.773,8.773,0,0,1-8.75-8.75v-119A1.773,1.773,0,0,1,8.92,10H158.253A1.75,1.75,0,0,1,160,11.75v119a8.75,8.75,0,0,1-8.75,8.75ZM10.67,13.5V130.75A5.25,5.25,0,0,0,15.92,136H151.253a5.25,5.25,0,0,0,5.25-5.25V13.5Z" transform="translate(9.56 13.333)"/><path class="b" d="M86.087,75.5h-66.5a6.417,6.417,0,0,1-6.417-6.417V22.417A6.417,6.417,0,0,1,19.587,16h66.5A6.417,6.417,0,0,1,92.5,22.417V69.083A6.417,6.417,0,0,1,86.087,75.5Zm-66.5-56a2.917,2.917,0,0,0-2.917,2.917V69.083A2.917,2.917,0,0,0,19.587,72h66.5A2.917,2.917,0,0,0,89,69.083V22.417A2.917,2.917,0,0,0,86.087,19.5Z" transform="translate(17.56 21.333)"/><path class="a" d="M42.92,77.5H17.253a4.083,4.083,0,0,1-4.083-4.083V50.083A4.107,4.107,0,0,1,17.253,46H42.92A4.083,4.083,0,0,1,47,50.083V73.417A4.083,4.083,0,0,1,42.92,77.5Zm-25.667-28a.583.583,0,0,0-.583.583V73.417a.583.583,0,0,0,.583.583H42.92a.583.583,0,0,0,.583-.583V50.083a.583.583,0,0,0-.583-.583Z" transform="translate(17.56 61.334)"/><path class="a" d="M62.42,77.5H36.753a4.083,4.083,0,0,1-4.083-4.083V50.083A4.107,4.107,0,0,1,36.753,46H62.42A4.083,4.083,0,0,1,66.5,50.083V73.417A4.083,4.083,0,0,1,62.42,77.5Zm-25.667-28a.583.583,0,0,0-.583.583V73.417a.583.583,0,0,0,.583.583H62.42A.583.583,0,0,0,63,73.417V50.083a.583.583,0,0,0-.583-.583Z" transform="translate(43.56 61.334)"/><path class="a" d="M81.92,77.5H56.253a4.083,4.083,0,0,1-4.083-4.083V50.083A4.107,4.107,0,0,1,56.253,46H81.92A4.083,4.083,0,0,1,86,50.083V73.417A4.083,4.083,0,0,1,81.92,77.5Zm-25.667-28a.583.583,0,0,0-.583.583V73.417a.583.583,0,0,0,.583.583H81.92a.583.583,0,0,0,.583-.583V50.083a.583.583,0,0,0-.583-.583Z" transform="translate(69.56 61.334)"/><path class="b" d="M26.96,22.25V52.583l21-15.167Z" transform="translate(35.947 29.667)"/><path class="b" d="M28,55.337a1.89,1.89,0,0,1-.793-.187,1.773,1.773,0,0,1-.957-1.563V23.254a1.75,1.75,0,0,1,2.777-1.423L50.027,37a1.773,1.773,0,0,1,0,2.847l-21,15.167A1.843,1.843,0,0,1,28,55.337Zm1.75-28.653V50.157L46.083,38.49Z" transform="translate(35 28.663)"/><path class="a" d="M158.253,26.833H8.92a1.773,1.773,0,0,1-1.75-1.75V8.75A8.773,8.773,0,0,1,15.92,0H151.253A8.75,8.75,0,0,1,160,8.75V25.083A1.75,1.75,0,0,1,158.253,26.833ZM10.67,23.333H156.5V8.75a5.25,5.25,0,0,0-5.25-5.25H15.92a5.25,5.25,0,0,0-5.25,5.25Z" transform="translate(9.56 0)"/><path class="a" d="M56.306,9.471a2.333,2.333,0,0,1-1.633-4.083,2.337,2.337,0,1,1,1.657,3.99Z" transform="translate(71.841 6.279)"/><path class="a" d="M59.42,7.083A2.333,2.333,0,0,1,61.753,4.75h0a2.333,2.333,0,0,1,2.333,2.333h0a2.333,2.333,0,0,1-2.333,2.333h0A2.333,2.333,0,0,1,59.42,7.083Z" transform="translate(79.227 6.333)"/><path class="a" d="M67.263,9.418a2.345,2.345,0,1,1,.023,0Z" transform="translate(86.573 6.332)"/><path class="a" d="M72.373,19.5H62.83a1.75,1.75,0,0,1,0-3.5h9.543a1.75,1.75,0,1,1,0,3.5Z" transform="translate(81.44 21.333)"/><path class="a" d="M67.71,19.5H53.92a1.75,1.75,0,1,1,0-3.5H67.71a1.75,1.75,0,1,1,0,3.5Z" transform="translate(69.56 21.333)"/><path class="a" d="M75.587,25.5H60.42a1.75,1.75,0,0,1,0-3.5H75.587a1.75,1.75,0,0,1,0,3.5Z" transform="translate(78.227 29.333)"/><path class="a" d="M62.087,25.5H53.92a1.75,1.75,0,1,1,0-3.5h8.167a1.75,1.75,0,1,1,0,3.5Z" transform="translate(69.56 29.333)"/><path class="a" d="M77.253,31.5H53.92a1.75,1.75,0,1,1,0-3.5H77.253a1.75,1.75,0,1,1,0,3.5Z" transform="translate(69.56 37.333)"/><path class="a" d="M75.587,37.5H60.42a1.75,1.75,0,0,1,0-3.5H75.587a1.75,1.75,0,0,1,0,3.5Z" transform="translate(78.227 45.333)"/><path class="a" d="M62.087,37.5H53.92a1.75,1.75,0,1,1,0-3.5h8.167a1.75,1.75,0,1,1,0,3.5Z" transform="translate(69.56 45.333)"/><path class="a" d="M70.253,43.5H53.92a1.75,1.75,0,1,1,0-3.5H70.253a1.75,1.75,0,1,1,0,3.5Z" transform="translate(69.56 53.334)"/><path class="b" d="M18.35,47.767a1.773,1.773,0,0,1-1.75-1.75V28.05a1.75,1.75,0,0,1,3.5,0V46.017a1.75,1.75,0,0,1-1.75,1.75Z" transform="translate(22.133 35.067)"/><path class="b" d="M18.35,28.867a1.773,1.773,0,0,1-1.75-1.75V21.75a1.75,1.75,0,0,1,3.5,0v5.367a1.75,1.75,0,0,1-1.75,1.75Z" transform="translate(22.133 26.667)"/><path class="c" d="M85.253,55.4H75.92a1.75,1.75,0,1,1,0-3.5h9.333a1.75,1.75,0,0,1,0,3.5Z" transform="translate(98.893 69.2)"/><path class="c" d="M77.92,62.733a1.773,1.773,0,0,1-1.75-1.75V51.65a1.75,1.75,0,0,1,3.5,0v9.333A1.75,1.75,0,0,1,77.92,62.733Z" transform="translate(101.56 66.534)"/><ellipse class="c" cx="1.75" cy="1.75" rx="1.75" ry="1.75" transform="translate(177.73 107.1)"/><ellipse class="c" cx="1.75" cy="1.75" rx="1.75" ry="1.75" transform="translate(177.73 100.1)"/><ellipse class="c" cx="1.75" cy="1.75" rx="1.75" ry="1.75" transform="translate(177.73 90.767)"/><ellipse class="c" cx="1.75" cy="1.75" rx="1.75" ry="1.75" transform="translate(177.73 76.767)"/><path class="c" d="M11.083,24.65H1.75a1.75,1.75,0,0,1,0-3.5h9.333a1.75,1.75,0,0,1,0,3.5Z" transform="translate(0 28.2)"/><path class="c" d="M3.75,31.983A1.773,1.773,0,0,1,2,30.233V20.9a1.75,1.75,0,1,1,3.5,0v9.333a1.773,1.773,0,0,1-1.75,1.75Z" transform="translate(2.667 25.533)"/><ellipse class="c" cx="1.75" cy="1.75" rx="1.75" ry="1.75" transform="translate(4.667 63.35)"/><ellipse class="c" cx="1.75" cy="1.75" rx="1.75" ry="1.75" transform="translate(4.667 72.683)"/><ellipse class="c" cx="1.75" cy="1.75" rx="1.75" ry="1.75" transform="translate(4.667 84.35)"/><ellipse class="c" cx="1.75" cy="1.75" rx="1.75" ry="1.75" transform="translate(4.667 103.017)"/></g></g></svg>