<svg xmlns="http://www.w3.org/2000/svg" xmlns:xlink="http://www.w3.org/1999/xlink" width="563.021" height="359.03" viewBox="0 0 563.021 359.03"><defs><style>.a{fill:none;}.b{fill:#f2f6fc;}.c{fill:#232374;}.d{fill:#fff;}.e{fill:#dce7f8;}.f{fill:#cedef6;}.g{fill:#ffcb5c;}.h{fill:#ff9500;}.i{fill:#5e5e5e;}.j{fill:#a2a2a2;}.k{fill:#aeaecb;}.l{fill:#9a9abf;}.m{fill:#8686b2;}.n{fill:#7272a6;}.o{fill:#5f5f99;}.p{fill:#4b4b8d;}.q{fill:#373780;}.r{fill:#aac6ef;}.s{fill:#ffab00;}.t{clip-path:url(#a);}.u{fill:#ff8d00;}.v{fill:#8f6000;}.w{clip-path:url(#b);}.x{clip-path:url(#c);}.y{fill:#ffc548;}.z{fill:#ffda8b;}.aa{fill:#ffd16e;}.ab{clip-path:url(#d);}.ac{clip-path:url(#e);}.ad{fill:#7aa6e6;}.ae{fill:#95b8eb;}.af{fill:#005fcc;}.ag{fill:#146ecf;}.ah{fill:#ffc039;}.ai{fill:#ff7900;}.aj{fill:#050561;}.ak{fill:#ffc241;}.al{fill:#0053bd;}.am{fill:#c5d8f4;}</style><clipPath id="a"><path class="a" d="M284.649,81.637h-1.733c-2.3,0-4.126-3.948-4.126-8.817s1.857-8.83,4.126-8.83h1.733c-2.283,0-4.126,3.948-4.126,8.83S282.366,81.637,284.649,81.637Z" transform="translate(-278.79 -63.99)"/></clipPath><clipPath id="b"><path class="a" d="M259.683,96.093h-1.747c-2.283,0-4.126-3.948-4.126-8.817s1.857-8.817,4.126-8.817h1.747c-2.283,0-4.126,3.948-4.126,8.817S257.4,96.093,259.683,96.093Z" transform="translate(-253.81 -78.46)"/></clipPath><clipPath id="c"><path class="a" d="M290.429,46.817H288.7c-2.3,0-4.126-3.947-4.126-8.817s1.843-8.83,4.126-8.83h1.733c-2.283,0-4.126,3.948-4.126,8.83S288.146,46.817,290.429,46.817Z" transform="translate(-284.57 -29.17)"/></clipPath><clipPath id="d"><path class="a" d="M279.269,61.813h-1.733c-2.3,0-4.126-3.948-4.126-8.817s1.843-8.817,4.126-8.817h1.733c-2.283,0-4.126,3.948-4.126,8.817S276.972,61.813,279.269,61.813Z" transform="translate(-273.41 -44.18)"/></clipPath><clipPath id="e"><path class="a" d="M260.461,128.723l-2.118.867c-2.751,1.128-6.987-2.751-9.408-8.679s-2.1-11.636.674-12.778l2.118-.853c-2.751,1.128-3.081,6.877-.674,12.778S257.683,129.865,260.461,128.723Z" transform="translate(-247.305 -107.28)"/></clipPath></defs><g transform="translate(-0.02 0.03)"><g transform="translate(0.02 -0.03)"><rect class="b" width="264.551" height="175.616" transform="translate(143.609 6.121)"/><path class="c" d="M238.187,144.257a5.13,5.13,0,0,0-5.117-5.117h-48.8a5.13,5.13,0,0,0-5.13,5.117h0a5.13,5.13,0,0,0,5.13,5.13h48.8a5.13,5.13,0,0,0,5.117-5.13Z" transform="translate(67.228 52.279)"/><path class="c" d="M244.578,150.828c0-1.045-2.682-1.9-5.983-1.9H181.487c-3.315,0-6,.853-6,1.9h0c0,1.045,2.682,1.9,6,1.9H238.6c3.3,0,5.983-.853,5.983-1.9Z" transform="translate(65.858 55.955)"/><rect class="c" width="11.114" height="18.17" transform="translate(270.342 179.701)"/><path class="c" d="M204.864,152.172l-61.358,69.666a1.692,1.692,0,0,1-2.668-2.077L192.98,142.9a7.54,7.54,0,0,1,12.475,8.473A6,6,0,0,1,204.864,152.172Z" transform="translate(52.728 52.451)"/><path class="c" d="M226.322,142.9l52.143,76.818A1.692,1.692,0,0,1,275.8,221.8L214.424,152.13a7.543,7.543,0,0,1,11.32-9.972C225.936,142.419,226.143,142.694,226.322,142.9Z" transform="translate(79.768 52.452)"/><path class="c" d="M209.389,144.905l-6.052,71.715a.853.853,0,0,1-.922.784.867.867,0,0,1-.756-.784l-6.052-71.729a6.9,6.9,0,0,1,13.754-1.155,8.1,8.1,0,0,1,.027,1.169Z" transform="translate(73.401 51.631)"/><path class="d" d="M374.72,133.328a4.5,4.5,0,0,1-4.5,4.5H105.658a4.5,4.5,0,0,1-4.5-4.5h0a4.484,4.484,0,0,1,4.484-4.5H370.223A4.5,4.5,0,0,1,374.72,133.328Z" transform="translate(37.952 48.409)"/><rect class="e" width="264.551" height="8.445" transform="translate(143.609 6.121)"/><path class="d" d="M101.16,5.216A4.5,4.5,0,0,1,105.671.76H370.223a4.484,4.484,0,0,1,4.5,4.456h0a4.5,4.5,0,0,1-4.5,4.511H105.671a4.511,4.511,0,0,1-4.511-4.511Z" transform="translate(37.952 0.327)"/><path class="c" d="M364.676,139.141H117.1a1.045,1.045,0,1,1,0-2.077H364.676a3.466,3.466,0,0,0,0-6.877,1.032,1.032,0,0,1-1.045-1.032,1.045,1.045,0,0,1,1.045-1.045,5.543,5.543,0,0,1,0,11.086Z" transform="translate(43.498 48.138)"/><path class="c" d="M105.933,139.145a5.5,5.5,0,0,1-5.5-5.5.811.811,0,0,1,0-.193,5.5,5.5,0,0,1,5.5-5.35h76.846a1.045,1.045,0,0,1,1.045,1.045,1.032,1.032,0,0,1-1.045,1.032H105.933a3.452,3.452,0,0,0-3.439,3.466.564.564,0,0,1,0,.151,3.466,3.466,0,0,0,3.452,3.315,1.045,1.045,0,1,1,0,2.077Z" transform="translate(37.676 48.135)"/><path class="c" d="M117.14,136.7h-9.972a1.045,1.045,0,1,1,0-2.077h9.972a1.045,1.045,0,0,1,0,2.077Z" transform="translate(39.77 50.581)"/><path class="c" d="M308.557,130.147H166.282a1.032,1.032,0,0,1-1.032-1.032,1.045,1.045,0,0,1,1.032-1.045H308.5a1.045,1.045,0,0,1,1.045,1.045A1.032,1.032,0,0,1,308.557,130.147Z" transform="translate(62.013 48.123)"/><path class="c" d="M290.054,130.147H275.845a1.032,1.032,0,0,1-1.045-1.032,1.045,1.045,0,0,1,1.045-1.045h14.208a1.045,1.045,0,0,1,1.031,1.045,1.032,1.032,0,0,1-1.031,1.032Z" transform="translate(103.142 48.123)"/><path class="c" d="M295.906,130.147h-5.13a1.032,1.032,0,0,1-1.045-1.032,1.045,1.045,0,0,1,1.045-1.045h5.13a1.045,1.045,0,0,1,1.045,1.045,1.031,1.031,0,0,1-1.045,1.032Z" transform="translate(108.747 48.123)"/><path class="c" d="M105.953,11.086a5.543,5.543,0,1,1,0-11.086H353.531a1.045,1.045,0,1,1,0,2.091H105.953a3.466,3.466,0,1,0,0,6.877,1.045,1.045,0,0,1,0,2.077Z" transform="translate(37.67 0.041)"/><path class="c" d="M318.008,11.1H241.163a1.045,1.045,0,0,1,0-2.077h76.846a3.452,3.452,0,0,0,3.439-3.507V5.362a3.466,3.466,0,0,0-3.452-3.3,1.045,1.045,0,1,1,0-2.091,5.5,5.5,0,0,1,5.5,5.5.84.84,0,0,1,0,.193,5.5,5.5,0,0,1-5.488,5.433Z" transform="translate(90.166 0.03)"/><path class="c" d="M297.377,2.091h-9.972a1.045,1.045,0,1,1,0-2.091h9.972a1.045,1.045,0,1,1,0,2.091Z" transform="translate(107.482 0.041)"/><path class="c" d="M274.308,8.629H132.088a1.045,1.045,0,1,1,0-2.077h142.22a1.045,1.045,0,1,1,0,2.077Z" transform="translate(49.126 2.498)"/><path class="c" d="M129.843,8.629H115.648a1.045,1.045,0,1,1,0-2.077h14.195a1.045,1.045,0,1,1,0,2.077Z" transform="translate(42.953 2.498)"/><path class="c" d="M112.448,8.629h-5.13a1.045,1.045,0,1,1,0-2.077h5.144a1.045,1.045,0,0,1,0,2.077Z" transform="translate(39.826 2.498)"/><path class="c" d="M104.725,92.116a1.045,1.045,0,0,1-1.045-1.045V7.6a1.045,1.045,0,0,1,1.045-1.045A1.032,1.032,0,0,1,105.757,7.6V91.071a1.032,1.032,0,0,1-1.032,1.045Z" transform="translate(38.898 2.5)"/><path class="c" d="M104.712,134.766a1.032,1.032,0,0,1-1.032-1.032V116.693a1.045,1.045,0,0,1,2.077,0v17.042a1.032,1.032,0,0,1-1.045,1.032Z" transform="translate(38.898 43.504)"/><path class="c" d="M104.712,117.9a1.045,1.045,0,0,1-1.032-1.045v-9.766a1.045,1.045,0,0,1,2.077,0v9.766A1.045,1.045,0,0,1,104.712,117.9Z" transform="translate(38.898 39.9)"/><path class="c" d="M104.713,73.162a1.045,1.045,0,0,1-1.032-1.045v-.949a1.045,1.045,0,1,1,2.077,0v.949A1.045,1.045,0,0,1,104.713,73.162Z" transform="translate(38.896 26.323)"/><rect class="f" width="17.344" height="16.657" transform="translate(159.757 145.095)"/><rect class="f" width="17.344" height="42.515" transform="translate(185.766 119.237)"/><rect class="f" width="17.344" height="59.35" transform="translate(211.776 102.401)"/><rect class="f" width="17.344" height="72.087" transform="translate(237.799 89.665)"/><rect class="f" width="17.344" height="85.043" transform="translate(263.795 76.708)"/><rect class="f" width="17.344" height="89.802" transform="translate(289.818 71.949)"/><rect class="f" width="17.344" height="104.079" transform="translate(315.828 57.672)"/><rect class="f" width="17.344" height="112.043" transform="translate(341.837 49.708)"/><rect class="f" width="17.344" height="134.064" transform="translate(367.847 27.688)"/><path class="g" d="M120.24,48.894a12.516,12.516,0,1,1,3.671,8.855,12.53,12.53,0,0,1-3.671-8.855Z" transform="translate(45.115 13.688)"/><path class="g" d="M126.344,60.908H137.8c-.371-2.613.413-4.842,4.264-9.958H122.08C125.931,56.067,126.729,58.295,126.344,60.908Z" transform="translate(45.806 19.17)"/><path class="h" d="M131.089,63.449h0a.481.481,0,0,1-.44-.275l.44-.206-.454.179c-3.521-7.7-7.276-17.551-5.227-20.742a2.352,2.352,0,0,1,2.1-1.087,5.777,5.777,0,0,1,3.425,1.087,6.162,6.162,0,0,1,3.576-1.114,2.435,2.435,0,0,1,2.159,1.1c2.3,3.59-2.833,15.735-5.144,20.783a.481.481,0,0,1-.44.275Zm-3.576-21.182a1.375,1.375,0,0,0-1.279.633c-1.375,2.063.481,9.064,4.855,18.83,3.425-7.661,6.355-16.354,4.759-18.843a1.375,1.375,0,0,0-1.375-.66,5.089,5.089,0,0,0-2.82.811,6.561,6.561,0,0,1,1.664,6.327,2.641,2.641,0,0,1-2.531,1.884,2.462,2.462,0,0,1-2.407-1.761,6.685,6.685,0,0,1,1.857-6.423,4.718,4.718,0,0,0-2.723-.8Zm3.411,1.375a5.763,5.763,0,0,0-1.733,5.5,1.5,1.5,0,0,0,1.485,1.1,1.678,1.678,0,0,0,1.609-1.238,5.5,5.5,0,0,0-1.362-5.364Z" transform="translate(46.837 15.542)"/><path class="i" d="M125,63.618a5.914,5.914,0,1,1,1.732,4.2,5.928,5.928,0,0,1-1.732-4.2Z" transform="translate(46.902 21.7)"/><rect class="i" width="11.856" height="7.73" transform="translate(171.957 79.033)"/><path class="j" d="M137.08,58.047H124.963a.5.5,0,0,1,0-.977H137.08a.5.5,0,0,1,0,.977Z" transform="translate(46.733 21.467)"/><path class="j" d="M137.08,59.457H124.963a.5.5,0,0,1,0-.977H137.08a.5.5,0,0,1,0,.977Z" transform="translate(46.733 21.997)"/><path class="j" d="M137.1,60.87H124.985a.5.5,0,1,1,0-.99H137.1a.5.5,0,1,1,0,.99Z" transform="translate(46.71 22.522)"/><path class="j" d="M137.08,62.267H124.963a.5.5,0,0,1,0-.977H137.08a.5.5,0,0,1,0,.977Z" transform="translate(46.733 23.052)"/><path class="j" d="M137.1,63.68H124.985a.5.5,0,1,1,0-.99H137.1a.5.5,0,1,1,0,.99Z" transform="translate(46.71 23.577)"/><path class="g" d="M129.62,36.039a.977.977,0,0,1-.99-.977V31.239a.99.99,0,0,1,1.967,0V35.09a.977.977,0,0,1-.977.949Z" transform="translate(48.265 11.441)"/><path class="g" d="M124.311,37.52a.977.977,0,0,1-.853-.5L121.532,33.7a.963.963,0,0,1,.358-1.375.977.977,0,0,1,1.375.358l1.884,3.384a.963.963,0,0,1-.358,1.375.88.88,0,0,1-.481.083Z" transform="translate(45.542 12.12)"/><path class="g" d="M120.406,41.4a.963.963,0,0,1-.5-.138l-3.329-1.926a.98.98,0,1,1,.99-1.692l3.329,1.926a.977.977,0,0,1,.358,1.375.99.99,0,0,1-.853.454Z" transform="translate(43.56 14.125)"/><path class="g" d="M119.023,46.719h-3.851a.99.99,0,1,1,0-1.967h3.851a.99.99,0,0,1,0,1.967Z" transform="translate(42.797 16.84)"/><path class="g" d="M135.464,37.522a.935.935,0,0,1-.5-.138.977.977,0,0,1-.358-1.375l1.926-3.329a.963.963,0,0,1,1.375-.358.99.99,0,0,1,.371,1.375l-1.926,3.329a.99.99,0,0,1-.894.5Z" transform="translate(50.454 12.118)"/><path class="g" d="M139.728,41.4a.977.977,0,0,1-.481-1.829l3.329-1.926a.977.977,0,0,1,.977,1.692l-3.329,1.926A.894.894,0,0,1,139.728,41.4Z" transform="translate(52.063 14.126)"/><path class="g" d="M141.239,46.717a.99.99,0,0,1,0-1.967h3.851a.99.99,0,0,1,0,1.967Z" transform="translate(52.67 16.842)"/><path class="c" d="M220.126,93.278a1.788,1.788,0,1,1-1.788-1.788,1.788,1.788,0,0,1,1.788,1.788Z" transform="translate(81.273 34.39)"/><path class="k" d="M215.923,93.543a1.788,1.788,0,1,1-1.265-.525,1.788,1.788,0,0,1,1.265.525Z" transform="translate(79.891 34.964)"/><path class="l" d="M213.142,96.7a1.788,1.788,0,1,1-1.273.519,1.788,1.788,0,0,1,1.273-.519Z" transform="translate(79.317 36.346)"/><path class="m" d="M213.393,100.9a1.788,1.788,0,1,1-.525,1.265,1.788,1.788,0,0,1,.525-1.265Z" transform="translate(79.891 37.728)"/><path class="n" d="M216.55,103.7a1.788,1.788,0,1,1,1.788,1.788A1.788,1.788,0,0,1,216.55,103.7Z" transform="translate(81.273 38.302)"/><path class="o" d="M220.753,103.433a1.788,1.788,0,1,1,2.531,0A1.788,1.788,0,0,1,220.753,103.433Z" transform="translate(82.655 37.728)"/><path class="p" d="M223.548,100.276a1.788,1.788,0,1,1,1.788-1.788,1.788,1.788,0,0,1-1.788,1.788Z" transform="translate(83.229 36.346)"/><path class="q" d="M223.283,96.073a1.788,1.788,0,1,1,.525-1.265A1.788,1.788,0,0,1,223.283,96.073Z" transform="translate(82.655 34.964)"/><path class="c" d="M164.416,91.618a1.788,1.788,0,1,1-1.788-1.788A1.788,1.788,0,0,1,164.416,91.618Z" transform="translate(60.358 33.767)"/><path class="k" d="M160.213,91.883a1.788,1.788,0,1,1-1.265-.525,1.788,1.788,0,0,1,1.265.525Z" transform="translate(58.976 34.341)"/><path class="l" d="M157.418,95a1.788,1.788,0,1,1-1.788,1.788A1.788,1.788,0,0,1,157.418,95Z" transform="translate(58.402 35.708)"/><path class="m" d="M157.683,99.243a1.788,1.788,0,1,1-.525,1.265A1.788,1.788,0,0,1,157.683,99.243Z" transform="translate(58.975 37.104)"/><path class="n" d="M160.84,102.038a1.788,1.788,0,1,1,1.788,1.788A1.788,1.788,0,0,1,160.84,102.038Z" transform="translate(60.358 37.679)"/><path class="o" d="M165.043,101.773a1.788,1.788,0,1,1,1.265.525A1.788,1.788,0,0,1,165.043,101.773Z" transform="translate(61.739 37.105)"/><path class="p" d="M167.838,98.616a1.788,1.788,0,1,1,1.788-1.788,1.788,1.788,0,0,1-1.788,1.788Z" transform="translate(62.314 35.723)"/><path class="q" d="M167.573,94.413a1.788,1.788,0,1,1,.525-1.265,1.788,1.788,0,0,1-.525,1.265Z" transform="translate(61.74 34.341)"/><path class="r" d="M199.09,48.671a16.175,16.175,0,1,1,22.488-4.126A16.175,16.175,0,0,1,199.09,48.671Zm14.126-20.632a33.773,33.773,0,1,1,0,.041Z" transform="translate(72.091 7.241)"/><path class="r" d="M201.547,39.448a7.771,7.771,0,1,1,10.825-2.008,7.771,7.771,0,0,1-10.825,2.008Zm6.795-9.889a4.223,4.223,0,1,0,1.768,2.708,4.223,4.223,0,0,0-1.768-2.708Z" transform="translate(74.379 9.532)"/><path class="r" d="M208.388,27.228a3.232,3.232,0,0,1-.839-4.525l2.063-3.026a3.274,3.274,0,0,1,5.405,3.659l-2.077,3.012a3.26,3.26,0,0,1-4.553.88Z" transform="translate(77.676 6.965)"/><path class="r" d="M201.276,25.845a3.287,3.287,0,0,1-1.375-2.1l-.674-3.59a3.274,3.274,0,0,1,6.423-1.2l.66,3.6a3.26,3.26,0,0,1-5.048,3.287Z" transform="translate(74.76 6.23)"/><path class="r" d="M195.662,29.552h0l-3.026-2.077a3.264,3.264,0,1,1,3.7-5.378h0l3.012,2.077a3.26,3.26,0,0,1-3.686,5.378Z" transform="translate(71.764 8.121)"/><path class="r" d="M190.68,36.972a3.26,3.26,0,0,1,1.238-5.9l3.6-.674a3.274,3.274,0,1,1,1.2,6.423l-3.6.66A3.246,3.246,0,0,1,190.68,36.972Z" transform="translate(71.025 11.416)"/><path class="r" d="M195.856,45.557a3.26,3.26,0,0,1-.839-4.539l2.063-3.012a3.264,3.264,0,1,1,5.378,3.7L200.4,44.718A3.274,3.274,0,0,1,195.856,45.557Z" transform="translate(72.973 13.779)"/><path class="r" d="M205.334,47.706a3.246,3.246,0,0,1-1.375-2.091l-.66-3.6a3.26,3.26,0,1,1,6.41-1.183l.674,3.59a3.256,3.256,0,0,1-5.048,3.287Z" transform="translate(76.272 14.34)"/><path class="r" d="M213.908,42.068,210.882,40a3.274,3.274,0,0,1,3.7-5.392l3.012,2.091a3.26,3.26,0,1,1-3.686,5.378Z" transform="translate(78.661 12.853)"/><path class="r" d="M212.468,32.912a3.26,3.26,0,0,1,1.265-5.9l3.59-.674a3.274,3.274,0,1,1,1.2,6.423l-3.59.674a3.218,3.218,0,0,1-2.462-.523Z" transform="translate(79.207 9.892)"/><path class="s" d="M218.252,66.867c-9.834,9.546-4.126,28.183-4.126,28.183H190.468V93.441c.1-3.3.3-10.66.193-12.145,0-.33-.261-.5-.674-.536-1.9-.22-7.249,2.063-9.353.468-3.92-3,1.857-16.216-2.159-17-1.128-.22-5.213.853-5.5-.77s6.588-10.467,6.038-11.953c-2.517-6.657,2.751-21.058,17.881-22.984s21.168,3.3,25.157,10.357S223.643,61.627,218.252,66.867Z" transform="translate(64.909 10.597)"/><path class="h" d="M206.273,57.788c-2.641,4.305-18.087,17.881-20.411,24.552.1-3.3.3-10.66.193-12.145,0-.33-.261-.5-.674-.536C199.437,66.99,207.043,56.537,206.273,57.788Z" transform="translate(69.571 21.698)"/><path class="c" d="M192.606,47.479a10.935,10.935,0,1,1,11-10.935,10.935,10.935,0,0,1-11,10.935Zm0-16.89a5.956,5.956,0,1,0,4.238,1.73,5.956,5.956,0,0,0-4.238-1.73Z" transform="translate(68.204 9.656)"/><path class="c" d="M190.631,38.182a3.631,3.631,0,1,1,3.631-3.631,3.631,3.631,0,0,1-3.631,3.631Zm0-5.6a1.981,1.981,0,1,0,1.967,1.967,1.981,1.981,0,0,0-1.967-1.967Z" transform="translate(70.179 11.65)"/><path class="c" d="M190.256,30.392A2.214,2.214,0,0,1,188,28.233V25.757a2.214,2.214,0,0,1,4.415,0v2.476A2.2,2.2,0,0,1,190.256,30.392Z" transform="translate(70.554 8.945)"/><path class="c" d="M186.113,32.217a2.2,2.2,0,0,1-1.554-.646l-1.747-1.747a2.214,2.214,0,1,1,3.122-3.122l1.747,1.747a2.214,2.214,0,0,1-1.568,3.769Z" transform="translate(68.315 9.775)"/><path class="c" d="M184.233,36.377h-2.476a2.214,2.214,0,0,1,0-4.415h2.476a2.214,2.214,0,1,1,0,4.415Z" transform="translate(67.445 12.038)"/><path class="c" d="M184.3,42.817a2.146,2.146,0,0,1-1.554-.646,2.2,2.2,0,0,1,0-3.122l1.747-1.747a2.214,2.214,0,1,1,3.122,3.122l-1.747,1.747a2.2,2.2,0,0,1-1.568.646Z" transform="translate(68.338 13.755)"/><path class="c" d="M190.258,45.474A2.214,2.214,0,0,1,188,43.328V40.852a2.214,2.214,0,1,1,4.415,0v2.476a2.2,2.2,0,0,1-2.159,2.146Z" transform="translate(70.553 14.482)"/><path class="c" d="M196.63,42.751a2.173,2.173,0,0,1-1.568-.646l-1.747-1.747a2.214,2.214,0,0,1,3.122-3.122l1.747,1.747a2.2,2.2,0,0,1,0,3.122,2.146,2.146,0,0,1-1.554.646Z" transform="translate(72.35 13.821)"/><path class="c" d="M199.328,36.367h-2.476a2.214,2.214,0,1,1,0-4.415h2.476a2.214,2.214,0,0,1,0,4.415Z" transform="translate(72.981 12.035)"/><path class="c" d="M194.912,32.151a2.214,2.214,0,0,1-1.568-3.769l1.747-1.747a2.214,2.214,0,0,1,3.122,3.122l-1.747,1.706A2.228,2.228,0,0,1,194.912,32.151Z" transform="translate(72.322 9.841)"/><path class="c" d="M200.856,50.6a8.253,8.253,0,1,1,11.526-1.279A8.253,8.253,0,0,1,200.856,50.6Zm7.9-9.889a3.176,3.176,0,1,1-.014,0Z" transform="translate(74.203 13.509)"/><path class="c" d="M206.17,40.2a1.637,1.637,0,0,1-.248-2.324l1.155-1.444a1.654,1.654,0,0,1,2.586,2.063l-1.169,1.444a1.664,1.664,0,0,1-2.324.261Z" transform="translate(77.143 13.485)"/><path class="c" d="M202.638,39.309a1.678,1.678,0,0,1-.619-1.114l-.206-1.843a1.654,1.654,0,1,1,3.287-.371l.206,1.857a1.651,1.651,0,0,1-1.458,1.829,1.692,1.692,0,0,1-1.21-.358Z" transform="translate(75.736 12.998)"/><path class="c" d="M199.668,40.9h0l-1.5-1.155a1.678,1.678,0,0,1-.261-2.338,1.651,1.651,0,0,1,2.324-.248h0l1.444,1.155a1.654,1.654,0,1,1-2.063,2.586Z" transform="translate(74.14 13.854)"/><path class="c" d="M196.868,44.419a1.582,1.582,0,0,1-.605-1.1,1.651,1.651,0,0,1,1.458-1.829l1.843-.206a1.654,1.654,0,0,1,.371,3.287l-1.857.206a1.6,1.6,0,0,1-1.21-.358Z" transform="translate(73.653 15.536)"/><path class="c" d="M199.17,48.979a1.65,1.65,0,0,1-.261-2.324l1.155-1.444a1.654,1.654,0,1,1,2.586,2.063l-1.155,1.444a1.65,1.65,0,0,1-2.324.261Z" transform="translate(74.514 16.781)"/><path class="c" d="M203.888,50.416a1.678,1.678,0,0,1-.619-1.114l-.206-1.8a1.653,1.653,0,1,1,3.287-.358l.206,1.843a1.651,1.651,0,0,1-1.458,1.829A1.692,1.692,0,0,1,203.888,50.416Z" transform="translate(76.206 17.187)"/><path class="c" d="M208.448,47.891,206.99,46.8a1.654,1.654,0,0,1,2.063-2.586l1.458,1.155a1.654,1.654,0,0,1-2.063,2.586Z" transform="translate(77.45 16.507)"/><path class="c" d="M208.038,43.169a1.582,1.582,0,0,1-.605-1.1,1.651,1.651,0,0,1,1.458-1.829l1.843-.206a1.654,1.654,0,0,1,.371,3.287l-1.843.206A1.609,1.609,0,0,1,208.038,43.169Z" transform="translate(77.846 15.067)"/><path class="r" d="M179.493,32.172h0a.55.55,0,0,1-.523-.536,10.288,10.288,0,0,1,10.137-10.1.523.523,0,0,1,.523.509.509.509,0,0,1-.509.523,9.243,9.243,0,0,0-9.105,9.078.523.523,0,0,1-.523.523Z" transform="translate(67.164 8.128)"/><path class="r" d="M177.993,32.75h0a.55.55,0,0,1-.523-.536A12.379,12.379,0,0,1,189.67,20h0a.523.523,0,0,1,.523.523.509.509,0,0,1-.509.523,11.306,11.306,0,0,0-11.169,11.141.523.523,0,0,1-.523.564Z" transform="translate(66.601 7.55)"/><path class="r" d="M210.646,48.244h0a.33.33,0,0,1,.069.468,6.588,6.588,0,0,1-9.037,1.582.33.33,0,0,1-.082-.454.316.316,0,0,1,.454-.1,5.928,5.928,0,0,0,8.129-1.375.33.33,0,0,1,.468-.124Z" transform="translate(75.637 18.135)"/><path class="r" d="M211.991,48.8h0a.33.33,0,0,1,.069.468,7.909,7.909,0,0,1-10.88,1.912h0a.33.33,0,0,1-.1-.454.344.344,0,0,1,.468-.1,7.262,7.262,0,0,0,9.972-1.747.33.33,0,0,1,.468-.083Z" transform="translate(75.447 18.338)"/><path class="r" d="M217.6,25.038h0a.344.344,0,0,1,.468-.083,6.616,6.616,0,0,1,1.6,9.05.344.344,0,0,1-.468.083.33.33,0,0,1-.082-.468,5.928,5.928,0,0,0-1.375-8.115.344.344,0,0,1-.138-.468Z" transform="translate(81.652 9.389)"/><path class="r" d="M218.157,24.218h0a.33.33,0,0,1,.454-.083,7.936,7.936,0,0,1,1.926,10.893h0a.344.344,0,0,1-.468.1.33.33,0,0,1-.083-.468,7.249,7.249,0,0,0-1.761-9.972.344.344,0,0,1-.069-.468Z" transform="translate(81.853 9.081)"/><path class="s" d="M274.913,66.4a8.817,8.817,0,1,1-8.8-8.8,8.816,8.816,0,0,1,8.8,8.8Z" transform="translate(96.565 21.666)"/><path class="g" d="M273.53,66.106a7.73,7.73,0,1,1-7.716-7.716,7.73,7.73,0,0,1,7.716,7.716Z" transform="translate(96.861 21.963)"/><path class="s" d="M267.511,68.848a3.04,3.04,0,0,1-.867,2.407,2.6,2.6,0,0,1-1.375.66v.839h-1.54v-.88a2.654,2.654,0,0,1-1.664-1.293,4.4,4.4,0,0,1-.564-2.008l1.733-.124a2.585,2.585,0,0,0,.55,1.513.922.922,0,0,0,.743.344,1.142,1.142,0,0,0,.949-.591,1.376,1.376,0,0,0,.179-.8,2.256,2.256,0,0,0-.674-1.485L263.4,65.877a6.532,6.532,0,0,1-1.21-1.375,3.548,3.548,0,0,1-.468-1.788,3.383,3.383,0,0,1,.44-1.706,2.448,2.448,0,0,1,1.6-1.21V59h1.54v.77a2.49,2.49,0,0,1,1.2.619,3.026,3.026,0,0,1,.949,2.063l-1.747.316a2.2,2.2,0,0,0-.426-1.169.825.825,0,0,0-.7-.275.811.811,0,0,0-.756.44,1.582,1.582,0,0,0-.22.88,2.668,2.668,0,0,0,.715,1.678,6.315,6.315,0,0,0,.8.756,10.421,10.421,0,0,1,.839.743,6.424,6.424,0,0,1,1.032,1.375,3.811,3.811,0,0,1,.536,1.651Z" transform="translate(98.149 22.192)"/><path class="d" d="M267.46,60.592a1.252,1.252,0,1,1,1.252,1.252,1.252,1.252,0,0,1-1.252-1.252Z" transform="translate(100.387 22.32)"/><path class="d" d="M256.53,67.042A2.421,2.421,0,0,0,259.1,64.47a2.421,2.421,0,0,0,2.572,2.572,2.421,2.421,0,0,0-2.572,2.572,2.434,2.434,0,0,0-2.572-2.572Z" transform="translate(96.283 24.246)"/><path class="s" d="M283.791,65.4v.825a1.279,1.279,0,0,1,.578.619,5.226,5.226,0,0,1,.44,2.063l-.825.316a4.031,4.031,0,0,0-.193-1.169.371.371,0,0,0-.33-.275c-.165,0-.289.138-.358.44a3.177,3.177,0,0,0-.1.88,4.607,4.607,0,0,0,.33,1.678,7.4,7.4,0,0,0,.371.756c.193.358.33.591.4.743a8.625,8.625,0,0,1,.481,1.375,6.726,6.726,0,0,1,.248,1.719,5.585,5.585,0,0,1-.4,2.421,1.279,1.279,0,0,1-.646.646v.839h-.715V78.4a1.994,1.994,0,0,1-.784-1.279,8.6,8.6,0,0,1-.261-2.022l.811-.124a4.621,4.621,0,0,0,.261,1.513c.1.234.206.344.33.344h0c.193,0,.33-.206.454-.591a2.821,2.821,0,0,0,.082-.784,3.961,3.961,0,0,0-.316-1.5l-.756-1.513a8.845,8.845,0,0,1-.578-1.458,7.4,7.4,0,0,1-.22-1.788,6.507,6.507,0,0,1,.206-1.706,1.871,1.871,0,0,1,.757-1.21V65.4Z" transform="translate(105.857 24.595)"/><path class="g" d="M284.041,64.79c2.008,0,3.631,3.466,3.631,7.73s-1.623,7.689-3.631,7.689-3.631-3.452-3.631-7.716S282.047,64.79,284.041,64.79Zm1,13.122a5.584,5.584,0,0,0,.4-2.421,6.726,6.726,0,0,0-.248-1.719,8.63,8.63,0,0,0-.481-1.375c-.069-.151-.206-.385-.4-.743a7.392,7.392,0,0,1-.371-.756,4.608,4.608,0,0,1-.33-1.678,3.176,3.176,0,0,1,.1-.88c.069-.3.193-.44.358-.44a.371.371,0,0,1,.33.275,4.031,4.031,0,0,1,.193,1.169l.825-.316a5.227,5.227,0,0,0-.44-2.063,1.279,1.279,0,0,0-.578-.619v-.715h-.715v.825a1.871,1.871,0,0,0-.756,1.21,6.5,6.5,0,0,0-.206,1.706,7.4,7.4,0,0,0,.22,1.788,8.843,8.843,0,0,0,.578,1.458l.756,1.513a3.961,3.961,0,0,1,.316,1.5,2.821,2.821,0,0,1-.083.784c-.124.385-.261.578-.454.591h0c-.124,0-.234-.11-.33-.344a4.622,4.622,0,0,1-.261-1.513l-.811.124a8.6,8.6,0,0,0,.261,2.022,1.994,1.994,0,0,0,.784,1.279v.88h.715v-.894a1.279,1.279,0,0,0,.646-.646Z" transform="translate(105.248 24.366)"/><path class="s" d="M284.176,64c2.283,0,4.126,3.948,4.126,8.83s-1.857,8.817-4.126,8.817S280.05,77.7,280.05,72.83,281.893,64,284.176,64Zm0,16.505c2.008,0,3.631-3.452,3.631-7.716s-1.623-7.73-3.631-7.73-3.631,3.466-3.631,7.73S282.182,80.505,284.176,80.505Z" transform="translate(105.113 24.069)"/><g transform="translate(383.43 88.055)"><g class="t"><g transform="translate(-0.02 0.014)"><path class="u" d="M281.588,78.733c-.124-.289-.234-.605-.344-.935s-.165-.536-.234-.825-.124-.523-.179-.784a7.226,7.226,0,0,1-.124-.756,7.617,7.617,0,0,0-.1-.784,5.544,5.544,0,0,0-.069-.812,3.653,3.653,0,0,1,0-.867v-.977a5.443,5.443,0,0,1,.1-1.183,13.121,13.121,0,0,1,1.2-4.484,8.077,8.077,0,0,1,.44-.77c.124-.179.261-.344.385-.509a4.728,4.728,0,0,1,.371-.371,3.279,3.279,0,0,1,.358-.289,2.5,2.5,0,0,1,.371-.206l.371-.138a2.118,2.118,0,0,1,.413,0H282.8a1.858,1.858,0,0,0-.4,0l-.385.138a2.5,2.5,0,0,0-.371.206l-.358.289a3.065,3.065,0,0,0-.358.371c-.138.165-.275.33-.4.509a8.091,8.091,0,0,0-.44.77,13.437,13.437,0,0,0-1.224,4.484c0,.385-.069.77-.083,1.183s0,.536,0,.812v1.843a2.194,2.194,0,0,0,.1.784l.124.756a3.226,3.226,0,0,0,.179.784c.069.261.151.564.234.825s.234.646.358.935c.756,1.774,1.843,2.888,3.067,2.888h1.733C283.444,81.621,282.344,80.493,281.588,78.733Z" transform="translate(-278.776 -63.988)"/><path class="v" d="M283,64Z" transform="translate(-277.189 -64)"/></g></g></g><path class="d" d="M277.632,69.47a1.884,1.884,0,1,1,.889,1.765,1.884,1.884,0,0,1-.889-1.765Z" transform="translate(104.203 25.476)"/><path class="s" d="M258.821,79.875v.784a1.224,1.224,0,0,1,.564.605,4.787,4.787,0,0,1,.44,2.063l-.811.316a4.015,4.015,0,0,0-.193-1.155c-.083-.193-.193-.289-.344-.289s-.275.151-.344.44a3.191,3.191,0,0,0-.11.88,4.731,4.731,0,0,0,.33,1.692,5.64,5.64,0,0,0,.385.756c.193.344.33.591.4.743a9.621,9.621,0,0,1,.481,1.375,7.4,7.4,0,0,1,.248,1.609,5.5,5.5,0,0,1-.4,2.407,1.183,1.183,0,0,1-.646.646V93.6h-.715v-.88a1.981,1.981,0,0,1-.784-1.293,8.473,8.473,0,0,1-.261-2.008l.812-.124a4.69,4.69,0,0,0,.261,1.513q.151.33.33.33h0c.193,0,.33-.206.454-.578a2.945,2.945,0,0,0,.082-.8,3.852,3.852,0,0,0-.316-1.485l-.77-1.527a9.492,9.492,0,0,1-.564-1.458,7.32,7.32,0,0,1-.22-1.788,6.478,6.478,0,0,1,.206-1.692,1.83,1.83,0,0,1,.757-1.21V79.82Z" transform="translate(96.482 30.009)"/><path class="g" d="M259.071,79.25c2.008,0,3.631,3.466,3.631,7.73s-1.623,7.73-3.631,7.73-3.631-3.466-3.631-7.73S257.063,79.25,259.071,79.25Zm1,13.122a5.5,5.5,0,0,0,.4-2.462,7.4,7.4,0,0,0-.248-1.719,9.625,9.625,0,0,0-.481-1.375c-.069-.151-.206-.4-.4-.743a5.637,5.637,0,0,1-.385-.756,4.733,4.733,0,0,1-.33-1.692,3.191,3.191,0,0,1,.11-.88c.069-.289.193-.44.344-.44s.261.1.344.289a4.014,4.014,0,0,1,.193,1.155l.811-.316a4.786,4.786,0,0,0-.44-2.063,1.224,1.224,0,0,0-.564-.605v-.784h-.715v.784a1.829,1.829,0,0,0-.757,1.21,6.478,6.478,0,0,0-.206,1.692,7.32,7.32,0,0,0,.22,1.788,9.493,9.493,0,0,0,.564,1.458l.77,1.527a3.852,3.852,0,0,1,.316,1.485,2.944,2.944,0,0,1-.082.8c-.124.371-.261.578-.454.578h0q-.179,0-.33-.33a4.69,4.69,0,0,1-.261-1.513l-.812.124a8.473,8.473,0,0,0,.261,2.008,1.981,1.981,0,0,0,.784,1.293v.88h.715v-.853a1.183,1.183,0,0,0,.646-.646Z" transform="translate(95.874 29.795)"/><path class="s" d="M259.206,78.46c2.283,0,4.126,3.947,4.126,8.817s-1.857,8.817-4.126,8.817-4.126-3.948-4.126-8.817S256.923,78.46,259.206,78.46Zm0,16.505c2.008,0,3.631-3.466,3.631-7.73s-1.623-7.73-3.631-7.73-3.631,3.466-3.631,7.73S257.2,94.965,259.206,94.965Z" transform="translate(95.739 29.498)"/><g transform="translate(349.072 107.958)"><g class="w"><g transform="translate(0.06 0)"><path class="u" d="M256.6,93.218c-.124-.3-.234-.619-.344-.949s-.165-.536-.234-.825-.124-.509-.179-.77-.1-.509-.138-.77a4.883,4.883,0,0,0-.083-.77,2.674,2.674,0,0,1,0-.812V86.465a5.381,5.381,0,0,1,.1-1.183,13.053,13.053,0,0,1,1.21-4.47,6.7,6.7,0,0,1,.454-.77,4.93,4.93,0,0,1,.385-.509,5,5,0,0,1,.371-.385l.358-.275a2.5,2.5,0,0,1,.371-.206,1.21,1.21,0,0,1,.371-.138,2.158,2.158,0,0,1,.413-.069h-1.747a2.159,2.159,0,0,0-.413.069,1.377,1.377,0,0,0-.371.138,2.506,2.506,0,0,0-.371.206l-.358.275a3.2,3.2,0,0,0-.358.385,5.029,5.029,0,0,0-.4.509,6.685,6.685,0,0,0-.44.77,13.039,13.039,0,0,0-1.224,4.47,5.775,5.775,0,0,1-.083,1.183,2.64,2.64,0,0,0,0,.812v1.045a3.186,3.186,0,0,0,.069.812,6.545,6.545,0,0,0,.1.77l.124.77a2.985,2.985,0,0,0,.179.77c.069.248.151.564.234.825a9.626,9.626,0,0,0,.358.949c.757,1.761,1.843,2.875,3.053,2.875h1.747C258.456,96.093,257.356,94.979,256.6,93.218Z" transform="translate(-253.853 -78.46)"/><path class="v" d="M258,78.46Z" transform="translate(-252.297 -78.46)"/></g></g></g><path class="d" d="M253.23,83.661a1.774,1.774,0,0,0,1.884-1.871,1.761,1.761,0,0,0,1.926,1.871,1.774,1.774,0,0,0-1.871,1.884,1.788,1.788,0,0,0-1.939-1.884Z" transform="translate(95.044 30.748)"/><path class="s" d="M291.013,90.607A8.817,8.817,0,1,1,282.2,81.79,8.817,8.817,0,0,1,291.013,90.607Z" transform="translate(102.609 30.748)"/><path class="g" d="M289.63,90.306a7.73,7.73,0,1,1-7.73-7.716A7.73,7.73,0,0,1,289.63,90.306Z" transform="translate(102.906 31.049)"/><path class="s" d="M283.637,93.052a3.067,3.067,0,0,1-.867,2.421,2.751,2.751,0,0,1-1.375.646v.839h-1.527v-.88A2.586,2.586,0,0,1,278.2,94.8a4.5,4.5,0,0,1-.564-2.008l1.733-.124a2.627,2.627,0,0,0,.536,1.513.935.935,0,0,0,.756.33,1.142,1.142,0,0,0,.949-.578,1.458,1.458,0,0,0,.179-.8,2.215,2.215,0,0,0-.674-1.485l-1.609-1.527a6.245,6.245,0,0,1-1.21-1.458,3.508,3.508,0,0,1-.468-1.788,3.233,3.233,0,0,1,.44-1.692,2.407,2.407,0,0,1,1.6-1.21V83.19h1.527v.784a2.586,2.586,0,0,1,1.21.605,3.012,3.012,0,0,1,.935,2.063l-1.733.316a2.187,2.187,0,0,0-.426-1.155.839.839,0,0,0-.7-.289.853.853,0,0,0-.77.44,1.733,1.733,0,0,0-.206.88,2.668,2.668,0,0,0,.715,1.692,6.024,6.024,0,0,0,.784.757c.426.344.715.591.853.729a6.74,6.74,0,0,1,1.018,1.375,3.672,3.672,0,0,1,.564,1.664Z" transform="translate(104.208 31.274)"/><path class="s" d="M252.15,117.49a11.636,11.636,0,1,1-3.4-8.237,11.65,11.65,0,0,1,3.4,8.237Z" transform="translate(85.891 39.777)"/><path class="g" d="M250.311,117.1a10.192,10.192,0,1,1-2.98-7.216,10.206,10.206,0,0,1,2.98,7.216Z" transform="translate(86.285 40.172)"/><path class="s" d="M242.359,120.712a4,4,0,0,1-1.142,3.191,3.37,3.37,0,0,1-1.788.867v1.114h-2.022v-1.169a3.4,3.4,0,0,1-2.2-1.692,6.052,6.052,0,0,1-.757-2.655l2.3-.165a3.411,3.411,0,0,0,.715,1.994,1.183,1.183,0,0,0,.99.44,1.458,1.458,0,0,0,1.252-.77,1.829,1.829,0,0,0,.248-1.045,3,3,0,0,0-.894-1.967l-2.132-2.008a8.679,8.679,0,0,1-1.6-1.926,4.7,4.7,0,0,1-.619-2.366,4.429,4.429,0,0,1,.578-2.242,3.2,3.2,0,0,1,2.118-1.6V107.7h2.022v1.018a3.384,3.384,0,0,1,1.6.812,3.948,3.948,0,0,1,1.238,2.751l-2.3.413a2.943,2.943,0,0,0-.564-1.527,1.224,1.224,0,0,0-1.939.206,2.283,2.283,0,0,0-.275,1.155,3.563,3.563,0,0,0,.935,2.228,8.664,8.664,0,0,0,1.059,1c.55.454.922.784,1.114.977a8.926,8.926,0,0,1,1.375,1.747A4.855,4.855,0,0,1,242.359,120.712Z" transform="translate(87.993 40.476)"/><path class="s" d="M292.44,111.3A11.65,11.65,0,1,1,280.8,99.66,11.65,11.65,0,0,1,292.44,111.3Z" transform="translate(101.017 37.457)"/><path class="g" d="M290.571,110.9a10.206,10.206,0,1,1-10.192-10.192A10.206,10.206,0,0,1,290.571,110.9Z" transform="translate(101.4 37.851)"/><path class="s" d="M282.649,114.555a4,4,0,0,1-1.155,3.191,3.411,3.411,0,0,1-1.774.853v1.114h-2.036v-1.155a3.494,3.494,0,0,1-2.2-1.706,5.818,5.818,0,0,1-.743-2.655l2.3-.165a3.287,3.287,0,0,0,.715,1.994,1.238,1.238,0,0,0,.99.454,1.513,1.513,0,0,0,1.252-.77,1.926,1.926,0,0,0,.234-1.059,2.916,2.916,0,0,0-.88-1.953l-2.132-2.022a8.873,8.873,0,0,1-1.609-1.926,4.676,4.676,0,0,1-.619-2.366,4.512,4.512,0,0,1,.592-2.242,3.218,3.218,0,0,1,2.1-1.6V101.53h2.036v1.018a3.59,3.59,0,0,1,1.6.812,4,4,0,0,1,1.238,2.751l-2.311.426a2.929,2.929,0,0,0-.55-1.54,1.155,1.155,0,0,0-.935-.371,1.1,1.1,0,0,0-1,.578,2.338,2.338,0,0,0-.275,1.169,3.618,3.618,0,0,0,.935,2.228,9.634,9.634,0,0,0,1.045.99,14.7,14.7,0,0,1,1.114.977,8.913,8.913,0,0,1,1.375,1.747A5.021,5.021,0,0,1,282.649,114.555Z" transform="translate(103.12 38.159)"/><path class="s" d="M278.343,31.277a8.8,8.8,0,1,1-2.578-6.238,8.817,8.817,0,0,1,2.578,6.238Z" transform="translate(97.852 8.474)"/><path class="g" d="M276.942,30.98a7.716,7.716,0,1,1-2.255-5.465A7.716,7.716,0,0,1,276.942,30.98Z" transform="translate(98.153 8.77)"/><path class="s" d="M270.944,33.681a3.081,3.081,0,0,1-.88,2.407,2.545,2.545,0,0,1-1.375.66v.839h-1.527v-.88a2.655,2.655,0,0,1-1.678-1.279,4.511,4.511,0,0,1-.564-2.022l1.733-.124a2.544,2.544,0,0,0,.55,1.513.908.908,0,0,0,.743.344,1.114,1.114,0,0,0,.949-.591,1.376,1.376,0,0,0,.179-.784,2.256,2.256,0,0,0-.66-1.485l-1.6-1.485a6.876,6.876,0,0,1-1.21-1.458,3.508,3.508,0,0,1-.468-1.788,3.466,3.466,0,0,1,.44-1.706,2.393,2.393,0,0,1,1.609-1.2V23.86h1.527v.784a2.586,2.586,0,0,1,1.21.605,3.026,3.026,0,0,1,.935,2.063l-1.706.316a2.188,2.188,0,0,0-.426-1.155.839.839,0,0,0-.7-.289.811.811,0,0,0-.756.44,1.706,1.706,0,0,0-.206.88,2.655,2.655,0,0,0,.7,1.678,6.281,6.281,0,0,0,.8.757,10.7,10.7,0,0,1,.839.743,6.312,6.312,0,0,1,1.031,1.375A4.126,4.126,0,0,1,270.944,33.681Z" transform="translate(99.433 8.999)"/><path class="d" d="M269.46,33.112a1.252,1.252,0,1,1,1.252,1.252A1.252,1.252,0,0,1,269.46,33.112Z" transform="translate(101.137 12.003)"/><path class="d" d="M261.94,25.122A2.421,2.421,0,0,0,264.5,22.55a2.421,2.421,0,0,0,2.572,2.572,2.421,2.421,0,0,0-2.572,2.572,2.421,2.421,0,0,0-2.558-2.572Z" transform="translate(98.314 8.507)"/><path class="d" d="M269.63,31.788a2.407,2.407,0,0,0,2.558-2.558,2.421,2.421,0,0,0,2.572,2.558,2.435,2.435,0,0,0-2.572,2.627,2.421,2.421,0,0,0-2.558-2.627Z" transform="translate(101.201 11.015)"/><path class="s" d="M289.571,30.56v.77a1.279,1.279,0,0,1,.578.619,5.227,5.227,0,0,1,.44,2.063l-.825.316a4.031,4.031,0,0,0-.193-1.169.358.358,0,0,0-.33-.275c-.165,0-.275.138-.358.426a3.315,3.315,0,0,0-.1.88,4.676,4.676,0,0,0,.33,1.692,7.4,7.4,0,0,0,.33.784c.193.344.33.591.4.743a8.627,8.627,0,0,1,.481,1.375,6.728,6.728,0,0,1,.248,1.719,5.5,5.5,0,0,1-.4,2.407,1.265,1.265,0,0,1-.646.66v.839h-.715v-.88a2.036,2.036,0,0,1-.743-1.362,8.378,8.378,0,0,1-.261-2.008l.811-.124a4.621,4.621,0,0,0,.261,1.513c.1.234.206.344.33.344h0c.193,0,.344-.206.454-.591a2.817,2.817,0,0,0,.083-.784,3.961,3.961,0,0,0-.3-1.513l-.756-1.513a8.846,8.846,0,0,1-.578-1.458,7.439,7.439,0,0,1-.206-1.8,6.492,6.492,0,0,1,.165-1.692,1.871,1.871,0,0,1,.756-1.21v-.77Z" transform="translate(108.027 11.515)"/><path class="g" d="M289.821,30c2.008,0,3.631,3.452,3.631,7.73s-1.623,7.716-3.631,7.716-3.631-3.452-3.631-7.716S287.827,30,289.821,30Zm1,13.108a5.5,5.5,0,0,0,.4-2.407,6.728,6.728,0,0,0-.248-1.719,8.621,8.621,0,0,0-.481-1.375c-.069-.151-.206-.4-.4-.743a7.4,7.4,0,0,1-.371-.756,4.676,4.676,0,0,1-.33-1.692,3.315,3.315,0,0,1,.1-.88c.083-.289.193-.426.358-.426a.358.358,0,0,1,.33.275,4.03,4.03,0,0,1,.193,1.169l.825-.316a5.227,5.227,0,0,0-.44-2.063,1.279,1.279,0,0,0-.578-.619v-.77h-.715v.77a1.87,1.87,0,0,0-.784,1.2,6.491,6.491,0,0,0-.193,1.692,7.441,7.441,0,0,0,.206,1.8,8.851,8.851,0,0,0,.578,1.458l.756,1.513a3.962,3.962,0,0,1,.316,1.5,2.82,2.82,0,0,1-.083.784c-.11.385-.261.578-.454.591h0c-.124,0-.234-.11-.33-.344a4.621,4.621,0,0,1-.261-1.513l-.811.124a8.376,8.376,0,0,0,.275,2.022,2.036,2.036,0,0,0,.784,1.293v.88h.715v-.8a1.265,1.265,0,0,0,.647-.66Z" transform="translate(107.418 11.304)"/><path class="s" d="M289.956,29.15c2.283,0,4.126,3.948,4.126,8.83s-1.857,8.817-4.126,8.817-4.126-3.947-4.126-8.817S287.673,29.15,289.956,29.15Zm0,16.505c2.008,0,3.631-3.452,3.631-7.716s-1.623-7.62-3.631-7.62-3.631,3.452-3.631,7.73,1.637,7.716,3.631,7.716Z" transform="translate(107.283 10.985)"/><g transform="translate(391.38 40.163)"><g class="x"><g transform="translate(0.008 -0.028)"><path class="u" d="M287.36,43.908c-.124-.289-.234-.605-.344-.935s-.165-.55-.234-.825-.124-.523-.179-.784a7.452,7.452,0,0,1-.124-.77,2.955,2.955,0,0,0-.1-.77c-.1-.261,0-.536-.069-.812a3.651,3.651,0,0,1,0-.867v-.977a5.445,5.445,0,0,1,.1-1.183,13.121,13.121,0,0,1,1.224-4.484,8.111,8.111,0,0,1,.44-.77c.124-.179.261-.358.385-.509a4.734,4.734,0,0,1,.371-.371,3.292,3.292,0,0,1,.358-.289,2.5,2.5,0,0,1,.371-.206l.371-.138.413-.069H288.6l-.4.069-.385.138a1.858,1.858,0,0,0-.358.206,4.649,4.649,0,0,0-.729.66c-.138.151-.261.33-.4.509a8.086,8.086,0,0,0-.44.77,13.438,13.438,0,0,0-1.224,4.484c0,.385-.069.77-.083,1.183s0,.536,0,.812v1.843a2.084,2.084,0,0,0,.1.77,5.032,5.032,0,0,1,.138.77c.055.248.11.523.165.784s.151.564.234.825.234.646.358.935c.756,1.774,1.843,2.888,3.067,2.888h1.733C289.286,46.824,288.117,45.683,287.36,43.908Z" transform="translate(-284.576 -29.15)"/><path class="v" d="M288.76,29.15Z" transform="translate(-283.004 -29.15)"/></g></g></g><path class="d" d="M289.4,31.78a1.884,1.884,0,0,1,3.755,0,1.884,1.884,0,0,1-3.755,0Z" transform="translate(108.624 11.326)"/><path class="d" d="M284.18,36.25a1.884,1.884,0,1,1,1.877,1.723A1.884,1.884,0,0,1,284.18,36.25Z" transform="translate(106.664 13.004)"/><path class="u" d="M279.463,123.354a.316.316,0,0,1-.3.344H254.4a.33.33,0,0,1-.3-.344V120.3a.316.316,0,0,1,.3-.33h24.758a.3.3,0,0,1,.3.33Z" transform="translate(95.371 45.082)"/><rect class="y" width="25.377" height="3.067" transform="translate(349.457 165.382)"/><rect class="z" width="14.057" height="3.067" transform="translate(355.124 165.382)"/><rect class="aa" width="2.696" height="3.067" transform="translate(352.414 165.382)"/><rect class="aa" width="1.032" height="3.067" transform="translate(370.831 165.382)"/><rect class="aa" width="1.032" height="3.067" transform="translate(372.207 165.382)"/><path class="u" d="M279.463,120.657a.316.316,0,0,1-.3.33H254.4a.316.316,0,0,1-.3-.33V117.59a.316.316,0,0,1,.3-.33h24.758a.3.3,0,0,1,.3.33Z" transform="translate(95.371 44.065)"/><rect class="y" width="25.377" height="3.067" transform="translate(349.457 161.655)"/><rect class="z" width="14.057" height="3.067" transform="translate(355.124 161.655)"/><rect class="aa" width="2.696" height="3.067" transform="translate(352.414 161.655)"/><rect class="aa" width="1.032" height="3.067" transform="translate(370.831 161.655)"/><rect class="aa" width="1.032" height="3.067" transform="translate(372.207 161.655)"/><path class="u" d="M279.919,117.927a.316.316,0,0,1-.3.33H254.859a.316.316,0,0,1-.289-.33V114.86a.316.316,0,0,1,.289-.33h24.758a.316.316,0,0,1,.3.33Z" transform="translate(95.547 43.04)"/><rect class="y" width="25.377" height="3.067" transform="translate(350.021 157.928)"/><rect class="z" width="14.057" height="3.067" transform="translate(355.674 157.928)"/><rect class="aa" width="2.696" height="3.067" transform="translate(352.978 157.928)"/><rect class="aa" width="1.032" height="3.067" transform="translate(371.395 157.928)"/><rect class="aa" width="1.032" height="3.067" transform="translate(372.771 157.928)"/><path class="u" d="M279.283,115.237a.316.316,0,0,1-.3.33H254.223a.316.316,0,0,1-.3-.33V112.17a.316.316,0,0,1,.3-.33h24.758a.316.316,0,0,1,.3.33Z" transform="translate(95.303 42.03)"/><rect class="y" width="25.377" height="3.067" transform="translate(349.196 154.2)"/><rect class="z" width="14.057" height="3.067" transform="translate(354.862 154.2)"/><rect class="aa" width="2.696" height="3.067" transform="translate(352.167 154.2)"/><rect class="aa" width="1.032" height="3.067" transform="translate(370.57 154.2)"/><rect class="aa" width="1.032" height="3.067" transform="translate(371.959 154.2)"/><path class="u" d="M279.463,112.527a.316.316,0,0,1-.3.33H254.4a.316.316,0,0,1-.3-.33V109.46a.316.316,0,0,1,.3-.33h24.758a.316.316,0,0,1,.3.33Z" transform="translate(95.371 41.013)"/><rect class="y" width="25.377" height="3.067" transform="translate(349.457 150.473)"/><rect class="z" width="14.057" height="3.067" transform="translate(355.124 150.473)"/><rect class="aa" width="2.696" height="3.067" transform="translate(352.414 150.473)"/><rect class="aa" width="1.032" height="3.067" transform="translate(370.831 150.473)"/><rect class="aa" width="1.032" height="3.067" transform="translate(372.207 150.473)"/><path class="u" d="M279.919,109.817a.316.316,0,0,1-.3.33H254.859a.316.316,0,0,1-.289-.33V106.75a.316.316,0,0,1,.289-.33h24.758a.316.316,0,0,1,.3.33Z" transform="translate(95.547 39.995)"/><rect class="y" width="25.377" height="3.067" transform="translate(350.021 146.745)"/><rect class="z" width="14.057" height="3.067" transform="translate(355.674 146.745)"/><rect class="aa" width="2.696" height="3.067" transform="translate(352.978 146.745)"/><rect class="aa" width="1.032" height="3.067" transform="translate(371.395 146.745)"/><rect class="aa" width="1.032" height="3.067" transform="translate(372.771 146.745)"/><path class="u" d="M280.194,107.089a.316.316,0,0,1-.3.33H255.079a.316.316,0,0,1-.289-.33v-3a.316.316,0,0,1,.289-.33h24.758a.316.316,0,0,1,.3.33Z" transform="translate(95.63 38.996)"/><rect class="y" width="25.377" height="3.067" transform="translate(350.447 143.018)"/><rect class="z" width="14.057" height="3.067" transform="translate(356.1 143.018)"/><rect class="aa" width="2.696" height="3.067" transform="translate(353.404 143.018)"/><rect class="aa" width="1.032" height="3.067" transform="translate(371.822 143.018)"/><rect class="aa" width="1.032" height="3.067" transform="translate(373.197 143.018)"/><path class="u" d="M280.739,104.327a.316.316,0,0,1-.3.33H255.679a.316.316,0,0,1-.289-.33V101.26a.316.316,0,0,1,.289-.33h24.758a.316.316,0,0,1,.3.33Z" transform="translate(95.855 37.934)"/><rect class="y" width="25.377" height="3.067" transform="translate(351.218 139.194)"/><rect class="z" width="14.057" height="3.067" transform="translate(356.871 139.194)"/><rect class="aa" width="2.696" height="3.067" transform="translate(354.175 139.194)"/><rect class="aa" width="1.032" height="3.067" transform="translate(372.592 139.194)"/><rect class="aa" width="1.032" height="3.067" transform="translate(373.967 139.194)"/><path class="u" d="M281.429,101.617a.316.316,0,0,1-.3.33H256.369a.316.316,0,0,1-.289-.33V98.55a.316.316,0,0,1,.289-.33h24.758a.316.316,0,0,1,.3.33Z" transform="translate(96.114 36.917)"/><rect class="y" width="25.377" height="3.067" transform="translate(352.167 135.467)"/><rect class="z" width="14.057" height="3.067" transform="translate(357.82 135.467)"/><rect class="aa" width="2.696" height="3.067" transform="translate(355.124 135.467)"/><rect class="aa" width="1.032" height="3.067" transform="translate(373.541 135.467)"/><rect class="aa" width="1.032" height="3.067" transform="translate(374.916 135.467)"/><path class="d" d="M255.62,102.394a3.549,3.549,0,0,0,3.562-3.934,3.549,3.549,0,0,0,3.549,3.934,3.549,3.549,0,0,0-3.549,3.948,3.562,3.562,0,0,0-3.562-3.948Z" transform="translate(95.941 37.007)"/><path class="d" d="M254.41,105.821a2.517,2.517,0,0,0,2.517-2.751,2.517,2.517,0,0,0,2.517,2.751,2.5,2.5,0,0,0-2.517,2.751,2.5,2.5,0,0,0-2.517-2.751Z" transform="translate(95.487 38.737)"/><path class="d" d="M269.18,120.481a2.517,2.517,0,0,0,2.517-2.751,2.517,2.517,0,0,0,2.517,2.751,2.5,2.5,0,0,0-2.517,2.751,2.5,2.5,0,0,0-2.517-2.751Z" transform="translate(101.032 44.241)"/><path class="u" d="M298.167,123.342a.33.33,0,0,1-.3.344H273.079a.316.316,0,0,1-.289-.344v-3.053a.3.3,0,0,1,.289-.289h24.758a.316.316,0,0,1,.3.33Z" transform="translate(102.387 45.094)"/><rect class="y" width="25.377" height="3.067" transform="translate(375.178 165.382)"/><rect class="z" width="14.057" height="3.067" transform="translate(380.831 165.382)"/><rect class="aa" width="2.696" height="3.067" transform="translate(378.135 165.382)"/><rect class="aa" width="1.032" height="3.067" transform="translate(396.552 165.382)"/><rect class="aa" width="1.032" height="3.067" transform="translate(397.927 165.382)"/><path class="u" d="M298.167,120.657a.316.316,0,0,1-.3.33H273.079a.316.316,0,0,1-.289-.33V117.59a.3.3,0,0,1,.289-.33h24.758a.316.316,0,0,1,.3.33Z" transform="translate(102.387 44.065)"/><rect class="y" width="25.377" height="3.067" transform="translate(375.178 161.655)"/><rect class="z" width="14.057" height="3.067" transform="translate(380.831 161.655)"/><rect class="aa" width="2.696" height="3.067" transform="translate(378.135 161.655)"/><rect class="aa" width="1.032" height="3.067" transform="translate(396.552 161.655)"/><rect class="aa" width="1.032" height="3.067" transform="translate(397.927 161.655)"/><path class="u" d="M298.559,117.927a.316.316,0,0,1-.289.33H273.513a.316.316,0,0,1-.3-.33V114.86a.316.316,0,0,1,.3-.33h24.758a.316.316,0,0,1,.289.33Z" transform="translate(102.545 43.04)"/><rect class="y" width="25.377" height="3.067" transform="translate(375.728 157.928)"/><rect class="z" width="14.057" height="3.067" transform="translate(381.395 157.928)"/><rect class="aa" width="2.696" height="3.067" transform="translate(378.685 157.928)"/><rect class="aa" width="1.032" height="3.067" transform="translate(397.102 157.928)"/><rect class="aa" width="1.032" height="3.067" transform="translate(398.491 157.928)"/><path class="u" d="M297.973,115.237a.316.316,0,0,1-.3.33H272.913a.316.316,0,0,1-.3-.33V112.17a.316.316,0,0,1,.3-.33h24.758a.316.316,0,0,1,.3.33Z" transform="translate(102.32 42.03)"/><rect class="y" width="25.377" height="3.067" transform="translate(374.916 154.2)"/><rect class="z" width="14.057" height="3.067" transform="translate(380.583 154.2)"/><rect class="aa" width="2.696" height="3.067" transform="translate(377.873 154.2)"/><rect class="aa" width="1.032" height="3.067" transform="translate(396.291 154.2)"/><rect class="aa" width="1.032" height="3.067" transform="translate(397.666 154.2)"/><path class="u" d="M298.167,112.527a.316.316,0,0,1-.3.33H273.079a.316.316,0,0,1-.289-.33V109.46a.316.316,0,0,1,.289-.33h24.758a.316.316,0,0,1,.3.33Z" transform="translate(102.388 41.013)"/><rect class="y" width="25.377" height="3.067" transform="translate(375.178 150.473)"/><rect class="z" width="14.057" height="3.067" transform="translate(380.831 150.473)"/><rect class="aa" width="2.696" height="3.067" transform="translate(378.135 150.473)"/><rect class="aa" width="1.032" height="3.067" transform="translate(396.552 150.473)"/><rect class="aa" width="1.032" height="3.067" transform="translate(397.927 150.473)"/><path class="u" d="M260.553,123.354a.33.33,0,0,1-.3.344H235.493a.316.316,0,0,1-.3-.344V120.3a.3.3,0,0,1,.3-.33h24.758a.316.316,0,0,1,.3.33Z" transform="translate(88.271 45.082)"/><rect class="y" width="25.377" height="3.067" transform="translate(323.447 165.382)"/><rect class="z" width="14.057" height="3.067" transform="translate(329.101 165.382)"/><rect class="aa" width="2.696" height="3.067" transform="translate(326.405 165.382)"/><rect class="aa" width="1.032" height="3.067" transform="translate(344.822 165.382)"/><rect class="aa" width="1.032" height="3.067" transform="translate(346.197 165.382)"/><path class="u" d="M260.553,120.657a.316.316,0,0,1-.3.33H235.493a.316.316,0,0,1-.3-.33V117.59a.3.3,0,0,1,.3-.33h24.758a.316.316,0,0,1,.3.33Z" transform="translate(88.271 44.065)"/><rect class="y" width="25.377" height="3.067" transform="translate(323.447 161.655)"/><rect class="z" width="14.057" height="3.067" transform="translate(329.101 161.655)"/><rect class="aa" width="2.696" height="3.067" transform="translate(326.405 161.655)"/><rect class="aa" width="1.032" height="3.067" transform="translate(344.822 161.655)"/><rect class="aa" width="1.032" height="3.067" transform="translate(346.197 161.655)"/><path class="u" d="M260.919,117.927a.316.316,0,0,1-.289.33H235.873a.316.316,0,0,1-.3-.33V114.86a.316.316,0,0,1,.3-.33h24.758a.316.316,0,0,1,.289.33Z" transform="translate(88.414 43.04)"/><rect class="y" width="25.377" height="3.067" transform="translate(323.998 157.928)"/><rect class="z" width="14.057" height="3.067" transform="translate(329.664 157.928)"/><rect class="aa" width="2.696" height="3.067" transform="translate(326.955 157.928)"/><rect class="aa" width="1.032" height="3.067" transform="translate(345.372 157.928)"/><rect class="aa" width="1.032" height="3.067" transform="translate(346.761 157.928)"/><path class="u" d="M260.359,115.237a.316.316,0,0,1-.289.33H235.313a.316.316,0,0,1-.3-.33V112.17a.316.316,0,0,1,.3-.33h24.758a.316.316,0,0,1,.289.33Z" transform="translate(88.204 42.03)"/><rect class="y" width="25.377" height="3.067" transform="translate(323.186 154.2)"/><rect class="z" width="14.057" height="3.067" transform="translate(328.853 154.2)"/><rect class="aa" width="2.696" height="3.067" transform="translate(326.143 154.2)"/><rect class="aa" width="1.032" height="3.067" transform="translate(344.56 154.2)"/><rect class="aa" width="1.032" height="3.067" transform="translate(345.936 154.2)"/><path class="d" d="M287.88,114.161a2.517,2.517,0,0,0,2.517-2.751,2.517,2.517,0,0,0,2.517,2.751,2.5,2.5,0,0,0-2.517,2.751,2.5,2.5,0,0,0-2.517-2.751Z" transform="translate(108.053 41.869)"/><path class="c" d="M297.065,153.995a1.032,1.032,0,0,1-1.045-1.032V65.6a1.045,1.045,0,1,1,2.091,0v87.368a1.032,1.032,0,0,1-1.045,1.032Z" transform="translate(111.109 24.276)"/><path class="c" d="M297.065,64.16a1.045,1.045,0,0,1-1.045-1.045V61.285a1.045,1.045,0,1,1,2.091,0V63.17A1.045,1.045,0,0,1,297.065,64.16Z" transform="translate(111.109 22.658)"/><path class="s" d="M263.693,46.237A8.8,8.8,0,1,1,261.115,40,8.817,8.817,0,0,1,263.693,46.237Z" transform="translate(92.352 14.09)"/><path class="g" d="M262.292,45.936a7.716,7.716,0,1,1-7.716-7.716A7.716,7.716,0,0,1,262.292,45.936Z" transform="translate(92.653 14.39)"/><path class="s" d="M256.287,48.692a3.067,3.067,0,0,1-.867,2.421,2.751,2.751,0,0,1-1.375.646V52.6h-1.527v-.88a2.558,2.558,0,0,1-1.664-1.279,4.333,4.333,0,0,1-.564-2.022l1.733-.124a2.462,2.462,0,0,0,.536,1.513.908.908,0,0,0,.757.344,1.142,1.142,0,0,0,.949-.591,1.5,1.5,0,0,0,.179-.784,2.214,2.214,0,0,0-.674-1.485l-1.623-1.527a6.877,6.877,0,0,1-1.2-1.458,3.507,3.507,0,0,1-.468-1.788,3.232,3.232,0,0,1,.44-1.692,2.38,2.38,0,0,1,1.6-1.21V38.83h1.5v.784a2.586,2.586,0,0,1,1.21.605,2.957,2.957,0,0,1,.935,2.063l-1.733.316A2.187,2.187,0,0,0,254,41.443a.935.935,0,0,0-1.472.151,1.705,1.705,0,0,0-.206.88,2.668,2.668,0,0,0,.715,1.692,7.113,7.113,0,0,0,.784.756c.426.344.7.578.853.729a7.125,7.125,0,0,1,1.018,1.375A3.728,3.728,0,0,1,256.287,48.692Z" transform="translate(93.94 14.619)"/><path class="d" d="M245.26,47.492a2.421,2.421,0,0,0,2.572-2.572,2.421,2.421,0,0,0,2.572,2.572,2.421,2.421,0,0,0-2.558,2.572,2.435,2.435,0,0,0-2.586-2.572Z" transform="translate(92.052 16.906)"/><path class="s" d="M278.424,45.54v.784a1.224,1.224,0,0,1,.564.605,4.992,4.992,0,0,1,.44,2.063l-.825.316a3.59,3.59,0,0,0-.193-1.155q-.1-.289-.33-.289c-.165,0-.275.138-.358.44a3.177,3.177,0,0,0-.1.88,4.608,4.608,0,0,0,.33,1.678,6.214,6.214,0,0,0,.371.756l.4.743a8.759,8.759,0,0,1,.481,1.375,6.711,6.711,0,0,1,.248,1.706,5.5,5.5,0,0,1-.4,2.421,1.375,1.375,0,0,1-.633.646v.853H277.7v-.894a2.008,2.008,0,0,1-.784-1.279,9.367,9.367,0,0,1-.261-2.008l.811-.124a4.69,4.69,0,0,0,.261,1.513q.138.33.33.33h0q.289,0,.454-.578a3.015,3.015,0,0,0,.083-.8,3.961,3.961,0,0,0-.316-1.5c-.165-.33-.426-.839-.756-1.513a7.651,7.651,0,0,1-.564-1.458,6.7,6.7,0,0,1-.22-1.788,6.589,6.589,0,0,1,.206-1.706,1.733,1.733,0,0,1,.743-1.2v-.784Z" transform="translate(103.837 17.139)"/><path class="g" d="M278.672,44.93c2.008,0,3.631,3.466,3.631,7.73s-1.623,7.716-3.631,7.716S275,56.924,275,52.66,276.678,44.93,278.672,44.93Zm1,13.122a5.5,5.5,0,0,0,.4-2.421,6.711,6.711,0,0,0-.248-1.706,8.765,8.765,0,0,0-.481-1.375l-.4-.743a6.219,6.219,0,0,1-.371-.756,4.608,4.608,0,0,1-.33-1.678,3.176,3.176,0,0,1,.1-.88c.083-.3.193-.44.358-.44s.261.1.33.289a3.589,3.589,0,0,1,.193,1.155l.825-.316a4.992,4.992,0,0,0-.44-2.063,1.224,1.224,0,0,0-.564-.605v-.784h-.729v.784a1.733,1.733,0,0,0-.743,1.2,6.584,6.584,0,0,0-.206,1.706,6.7,6.7,0,0,0,.22,1.788,7.649,7.649,0,0,0,.564,1.458c.33.674.591,1.183.756,1.513a3.96,3.96,0,0,1,.316,1.5,3.013,3.013,0,0,1-.082.8q-.165.55-.454.578h0q-.193,0-.33-.33a4.69,4.69,0,0,1-.261-1.513l-.812.124a9.367,9.367,0,0,0,.261,2.008,2.008,2.008,0,0,0,.784,1.279v.894h.729v-.853a1.375,1.375,0,0,0,.633-.646Z" transform="translate(103.217 16.91)"/><path class="s" d="M278.8,44.14c2.283,0,4.126,3.947,4.126,8.817s-1.857,8.817-4.126,8.817-4.126-3.948-4.126-8.817S276.5,44.14,278.8,44.14Zm0,16.505c2.008,0,3.631-3.452,3.631-7.716S280.8,45.2,278.8,45.2s-3.672,3.494-3.672,7.757,1.623,7.716,3.617,7.716Z" transform="translate(103.093 16.613)"/><g transform="translate(376.03 60.808)"><g class="ab"><g transform="translate(0.008 -0.055)"><path class="u" d="M276.214,58.873c-.124-.289-.248-.605-.358-.935s-.165-.536-.234-.825-.124-.509-.179-.784-.1-.5-.124-.756-.069-.509-.1-.77a5.548,5.548,0,0,0-.069-.812,3.769,3.769,0,0,1,0-.88v-.977a5.379,5.379,0,0,1,.1-1.183,13.218,13.218,0,0,1,1.224-4.484,7.83,7.83,0,0,1,.44-.757c.124-.193.261-.358.385-.523a4.721,4.721,0,0,1,.371-.371,2.078,2.078,0,0,1,.358-.275l.371-.22.371-.138a2.117,2.117,0,0,1,.413,0h-1.733a2,2,0,0,0-.413,0l-.385.138a3.106,3.106,0,0,0-.358.22,1.661,1.661,0,0,0-.358.275,4.725,4.725,0,0,0-.371.371,5.136,5.136,0,0,0-.385.523,5.793,5.793,0,0,0-.454.756A13.536,13.536,0,0,0,273.5,50.95c0,.385-.069.784-.083,1.183s0,.536,0,.812V54.8a6.926,6.926,0,0,0,.1.77,6.675,6.675,0,0,0,.138.756c.055.248.11.536.165.784a6.949,6.949,0,0,0,.248.825,8.257,8.257,0,0,0,.344.935c.756,1.774,1.843,2.888,3.067,2.888h1.733C278.057,61.816,276.97,60.647,276.214,58.873Z" transform="translate(-273.416 -44.128)"/><path class="v" d="M277.6,44.14Z" transform="translate(-271.845 -44.14)"/></g></g></g><path class="d" d="M279.4,52.342a1.252,1.252,0,1,1,1.252,1.252A1.252,1.252,0,0,1,279.4,52.342Z" transform="translate(104.869 19.222)"/><path class="s" d="M251.778,108.85l.4.949a1.733,1.733,0,0,1,.99.468,6.492,6.492,0,0,1,1.554,2.3l-.839.784a5.5,5.5,0,0,0-.811-1.375.5.5,0,0,0-.55-.179c-.193.083-.261.316-.22.715a4.992,4.992,0,0,0,.316,1.114,6.038,6.038,0,0,0,1.238,1.884,8.485,8.485,0,0,0,.839.743c.413.33.688.55.839.7a10.4,10.4,0,0,1,1.252,1.375,9.914,9.914,0,0,1,1.155,1.953,7.345,7.345,0,0,1,.7,3.15,1.623,1.623,0,0,1-.454,1.1l.413,1.032-.867.358-.44-1.073a2.668,2.668,0,0,1-1.6-1.183,11.912,11.912,0,0,1-1.375-2.311l.935-.564a6.052,6.052,0,0,0,1.059,1.719q.344.33.578.248h0c.22-.11.316-.413.261-.935a4.322,4.322,0,0,0-.289-1,4.979,4.979,0,0,0-1.128-1.651l-1.678-1.472a10.593,10.593,0,0,1-1.375-1.5,8.734,8.734,0,0,1-1.155-2.063,8.17,8.17,0,0,1-.591-2.173,2.38,2.38,0,0,1,.316-1.843l-.385-.949Z" transform="translate(94.158 40.907)"/><path class="g" d="M251.469,108.3c2.435-1,6.121,2.407,8.253,7.592s1.843,10.206-.578,11.2-6.134-2.407-8.253-7.606S249.034,109.329,251.469,108.3Zm7.7,15.46a7.344,7.344,0,0,0-.7-3.15,9.916,9.916,0,0,0-1.155-1.953,10.4,10.4,0,0,0-1.252-1.375c-.151-.151-.426-.371-.839-.7a8.486,8.486,0,0,1-.839-.743,6.038,6.038,0,0,1-1.238-1.884,4.993,4.993,0,0,1-.316-1.114c0-.4,0-.633.22-.715a.5.5,0,0,1,.55.179,5.5,5.5,0,0,1,.812,1.375l.839-.784a6.492,6.492,0,0,0-1.554-2.3,1.733,1.733,0,0,0-.99-.468l-.4-.949-.867.358.385.949a2.38,2.38,0,0,0-.316,1.843,8.169,8.169,0,0,0,.591,2.173,8.733,8.733,0,0,0,1.155,2.063,10.594,10.594,0,0,0,1.375,1.5l1.678,1.472a4.979,4.979,0,0,1,1.128,1.651,4.32,4.32,0,0,1,.289,1c0,.523,0,.825-.261.935h0q-.22.083-.578-.248a6.052,6.052,0,0,1-1.059-1.719l-.935.564a11.911,11.911,0,0,0,1.375,2.311,2.669,2.669,0,0,0,1.6,1.183l.44,1.073.867-.358-.413-1.032a1.623,1.623,0,0,0,.454-1.1Z" transform="translate(93.628 40.634)"/><path class="s" d="M251.149,107.333c2.751-1.128,6.987,2.751,9.408,8.679s2.1,11.636-.674,12.764-6.987-2.751-9.408-8.665S248.371,108.461,251.149,107.333Zm8.253,20.123c2.421-.99,2.751-6,.578-11.2s-5.791-8.6-8.253-7.592-2.751,6-.591,11.182,5.791,8.6,8.253,7.606Z" transform="translate(93.398 40.265)"/><g transform="translate(340.124 147.598)"><g class="ac"><g transform="translate(0.02 0.041)"><path class="u" d="M255.3,126.731a12.266,12.266,0,0,1-.88-.977c-.234-.275-.468-.564-.7-.88s-.4-.564-.605-.867l-.536-.867c-.165-.289-.33-.578-.5-.894s-.316-.619-.481-.949-.316-.688-.468-1.045a1.29,1.29,0,0,0-.083-.206c-.124-.33-.261-.66-.371-.99s-.344-1-.481-1.485a17.3,17.3,0,0,1-.729-6.052,7.3,7.3,0,0,1,.165-1.155,4.658,4.658,0,0,1,.22-.812,3.962,3.962,0,0,1,.261-.646,3.193,3.193,0,0,1,.289-.523,3.575,3.575,0,0,1,.344-.426,1.952,1.952,0,0,1,.4-.358,2.667,2.667,0,0,1,.468-.289l-2.118.867a2.242,2.242,0,0,0-.468.289,2.393,2.393,0,0,0-.4.344,3.746,3.746,0,0,0-.344.44,2.753,2.753,0,0,0-.289.523,4.355,4.355,0,0,0-.261.633,7.216,7.216,0,0,0-.22.825,7.357,7.357,0,0,0-.165,1.142,17.233,17.233,0,0,0,.729,6.052c.138.5.3.99.481,1.485s.248.66.371.99l.1.22c.138.358.3.7.454,1.045l.481.949.5.894c.179.3.358.591.55.867a10.32,10.32,0,0,0,.591.853c.234.316.468.619.7.894a12.009,12.009,0,0,0,.88.963c1.8,1.788,3.686,2.6,5.158,1.994l2.118-.867C258.984,129.317,257.1,128.505,255.3,126.731Z" transform="translate(-247.319 -107.31)"/><path class="v" d="M251.018,107.31l-2.118.867h.11l2.118-.853h-.11Z" transform="translate(-246.725 -107.31)"/></g></g></g><path class="d" d="M247,116.269a2.324,2.324,0,0,0,1.375-3.219,2.338,2.338,0,0,0,3.219,1.375,2.324,2.324,0,0,0-1.375,3.2A2.311,2.311,0,0,0,247,116.269Z" transform="translate(92.705 42.484)"/><path class="s" d="M252.643,41.216a.523.523,0,0,1-.523-.523V18.453a.523.523,0,1,1,1.045,0V40.693a.523.523,0,0,1-.523.523Z" transform="translate(94.627 6.773)"/><path class="s" d="M262.083,61.6a.523.523,0,0,1-.523-.523V38.853a.523.523,0,0,1,.523-.523.509.509,0,0,1,.509.523V61.08a.509.509,0,0,1-.509.523Z" transform="translate(98.171 14.432)"/><path class="s" d="M255.213,37.665a.523.523,0,0,1-.523-.523V27.913a.523.523,0,1,1,1.045,0v9.229a.523.523,0,0,1-.523.523Z" transform="translate(95.592 10.324)"/><path class="s" d="M266.013,54.458a.523.523,0,0,1-.523-.523V45.573a.523.523,0,1,1,1.045,0v8.363a.523.523,0,0,1-.523.523Z" transform="translate(99.647 16.955)"/><path class="s" d="M255.213,81.714a.523.523,0,0,1-.523-.523V69.143a.523.523,0,1,1,1.045,0V81.191a.523.523,0,0,1-.523.523Z" transform="translate(95.592 25.804)"/><path class="s" d="M275.669,81.714a.509.509,0,0,1-.509-.523V69.143a.509.509,0,0,1,.509-.523.523.523,0,0,1,.523.523V81.191a.523.523,0,0,1-.523.523Z" transform="translate(103.277 25.804)"/><path class="s" d="M282.883,66.284a.523.523,0,0,1-.523-.523V53.713a.523.523,0,1,1,1.045,0V65.761a.523.523,0,0,1-.523.523Z" transform="translate(105.981 20.011)"/><path class="s" d="M276.793,46.585a.523.523,0,0,1-.523-.523V33.973a.523.523,0,0,1,1.045,0V46.035a.523.523,0,0,1-.523.55Z" transform="translate(103.694 12.6)"/><path class="s" d="M288.443,30.884a.509.509,0,0,1-.523-.509V18.313a.523.523,0,1,1,1.045,0V30.375a.509.509,0,0,1-.523.509Z" transform="translate(108.068 6.72)"/><path class="s" d="M286.553,26.644a.523.523,0,0,1-.523-.523V14.073a.523.523,0,1,1,1.045,0V26.121a.523.523,0,0,1-.523.523Z" transform="translate(107.358 5.128)"/><path class="s" d="M279.279,40.068a.509.509,0,0,1-.509-.523V27.483a.509.509,0,0,1,.509-.523.523.523,0,0,1,.523.523V39.545A.523.523,0,0,1,279.279,40.068Z" transform="translate(104.633 10.163)"/><path class="s" d="M110.567,117.348a.784.784,0,0,1-.248,0,.619.619,0,0,1-.316-.8l.963-2.228a.619.619,0,0,1,1.128.481l-.963,2.228a.633.633,0,0,1-.564.316Z" transform="translate(41.254 42.849)"/><path class="s" d="M112.615,124.905a.8.8,0,0,1-.248,0,.605.605,0,0,1-.3-.8l1.843-4.291a.619.619,0,0,1,.811-.316.605.605,0,0,1,.3.8l-1.843,4.291a.633.633,0,0,1-.564.316Zm3.714-8.583a.537.537,0,0,1-.248,0,.619.619,0,0,1-.316-.8l1.857-4.291a.619.619,0,0,1,.8-.316.605.605,0,0,1,.316.8l-1.857,4.291A.591.591,0,0,1,116.328,116.323Zm3.714-8.583a.784.784,0,0,1-.248,0,.619.619,0,0,1-.316-.8l1.857-4.291a.607.607,0,0,1,1.114.481l-1.857,4.291a.605.605,0,0,1-.55.316Zm3.714-8.569a.537.537,0,0,1-.248,0,.619.619,0,0,1-.316-.8l1.857-4.291a.619.619,0,0,1,.8-.316.605.605,0,0,1,.316.8L124.375,98.8a.591.591,0,0,1-.619.371Zm3.714-8.583a.536.536,0,0,1-.248,0,.605.605,0,0,1-.316-.8l1.857-4.374a.605.605,0,0,1,.8-.316.591.591,0,0,1,.316.8l-1.857,4.291a.605.605,0,0,1-.55.4Zm3.714-8.569a.8.8,0,0,1-.248,0,.605.605,0,0,1-.316-.8l1.857-4.291a.607.607,0,1,1,1.114.481L131.733,81.7a.591.591,0,0,1-.481.316Z" transform="translate(42.026 28.786)"/><path class="s" d="M128.818,75.216a.537.537,0,0,1-.248,0,.605.605,0,0,1-.316-.8l.963-2.228a.607.607,0,1,1,1.114.481l-.963,2.228A.591.591,0,0,1,128.818,75.216Z" transform="translate(48.105 27.006)"/><path class="s" d="M173.185,131.294a.605.605,0,0,1-.481-.234l-2.916-3.892a.605.605,0,0,1,.124-.853.633.633,0,0,1,.853.124l2.9,3.892a.605.605,0,0,1-.124.853.578.578,0,0,1-.358.11Zm-5.818-7.771a.633.633,0,0,1-.5-.234l-2.9-3.892a.605.605,0,0,1,.11-.853.619.619,0,0,1,.853.124l2.916,3.892a.605.605,0,0,1-.124.839.591.591,0,0,1-.358.124Zm-5.832-7.771a.605.605,0,0,1-.481-.248l-2.916-3.879a.609.609,0,0,1,.977-.729l2.916,3.892a.605.605,0,0,1-.124.839.633.633,0,0,1-.371.124Zm-5.818-7.771a.605.605,0,0,1-.5-.248l-2.9-3.879a.609.609,0,1,1,.977-.729L156.2,107a.605.605,0,0,1-.124.853A.591.591,0,0,1,155.716,107.981ZM149.9,100.21a.605.605,0,0,1-.5-.248l-2.916-3.879a.619.619,0,0,1,.124-.853.605.605,0,0,1,.853.124l2.916,3.879a.619.619,0,0,1-.124.853.591.591,0,0,1-.358.124Zm-5.832-7.771a.578.578,0,0,1-.481-.248l-2.916-3.879a.609.609,0,1,1,.977-.729l2.9,3.879a.605.605,0,0,1-.11.853A.633.633,0,0,1,144.067,92.438Zm-5.818-7.771a.646.646,0,0,1-.5-.248l-2.9-3.892a.6.6,0,1,1,.963-.729l2.916,3.893a.605.605,0,0,1-.124.853.591.591,0,0,1-.358.124Zm-5.832-7.785a.633.633,0,0,1-.481-.234l-2.9-3.892a.609.609,0,1,1,.977-.729l2.916,3.892a.633.633,0,0,1-.124.853.592.592,0,0,1-.385.11Z" transform="translate(48.371 26.991)"/><path class="s" d="M162.3,128.618a.633.633,0,0,1-.413-.151.605.605,0,0,1,0-.867l3.287-3.562a.605.605,0,0,1,.867,0,.591.591,0,0,1,0,.853l-3.3,3.562a.55.55,0,0,1-.44.165Zm6.6-7.125a.578.578,0,0,1-.413-.165.605.605,0,0,1,0-.853l3.3-3.562a.605.605,0,0,1,.853,0,.619.619,0,0,1,0,.867l-3.3,3.562A.646.646,0,0,1,168.9,121.494Zm6.588-7.125a.605.605,0,0,1-.413-.165.591.591,0,0,1,0-.853l3.3-3.562a.605.605,0,1,1,.88.825l-3.287,3.562A.646.646,0,0,1,175.493,114.369Zm6.6-7.125a.578.578,0,0,1-.413-.165.591.591,0,0,1,0-.853l3.287-3.576a.619.619,0,0,1,.867,0,.591.591,0,0,1,0,.853l-3.3,3.576a.591.591,0,0,1-.44.165Zm6.6-7.139a.619.619,0,0,1-.426-.151.633.633,0,0,1,0-.867l3.3-3.562a.591.591,0,0,1,.853,0,.605.605,0,0,1,0,.853l-3.3,3.562a.592.592,0,0,1-.426.165Zm6.588-7.125a.605.605,0,0,1-.413-.165.591.591,0,0,1,0-.853l3.3-3.562a.605.605,0,0,1,.88.825l-3.287,3.562A.646.646,0,0,1,195.285,92.981Zm6.6-7.125a.578.578,0,0,1-.413-.165.605.605,0,0,1,0-.853l.619-.66a.605.605,0,0,1,.853,0,.619.619,0,0,1,0,.867l-.619.66a.619.619,0,0,1-.44.151Z" transform="translate(60.683 31.579)"/><path class="s" d="M231.252,128.093a.55.55,0,0,1-.44-.193l-.124-.124a.608.608,0,1,1,.894-.825l.124.124a.619.619,0,0,1,0,.867.564.564,0,0,1-.454.151Zm-3.411-3.686a.646.646,0,0,1-.454-.193l-3.3-3.562a.619.619,0,0,1,0-.867.605.605,0,0,1,.853,0l3.3,3.562a.605.605,0,0,1,0,.853A.633.633,0,0,1,227.841,124.407Zm-6.6-7.125a.591.591,0,0,1-.44-.193l-3.3-3.576a.591.591,0,0,1,0-.853.619.619,0,0,1,.867,0l3.287,3.576a.591.591,0,0,1,0,.853.605.605,0,0,1-.344.193Zm-6.6-7.139a.564.564,0,0,1-.44-.193l-3.3-3.562a.619.619,0,0,1,0-.853.605.605,0,0,1,.867,0l3.3,3.562a.619.619,0,0,1,0,.867A.564.564,0,0,1,214.637,110.144Zm-6.588-7.125a.592.592,0,0,1-.454-.193l-3.3-3.562a.605.605,0,0,1,0-.853.591.591,0,0,1,.853,0l3.3,3.562a.619.619,0,0,1,0,.867A.688.688,0,0,1,208.049,103.019Zm-6.6-7.125a.591.591,0,0,1-.44-.193l-3.3-3.562a.605.605,0,0,1,0-.867.619.619,0,0,1,.867,0l3.287,3.562a.591.591,0,0,1,0,.853.605.605,0,0,1-.413.206Zm-6.6-7.125a.619.619,0,0,1-.44-.193l-3.356-3.562a.619.619,0,0,1,0-.867.605.605,0,0,1,.853,0l3.3,3.562a.605.605,0,0,1,0,.853A.578.578,0,0,1,194.844,88.769Z" transform="translate(71.632 31.567)"/><path class="s" d="M220.395,131.024a.633.633,0,0,1-.316-.069.605.605,0,0,1-.193-.839l2.586-4.126a.605.605,0,1,1,1.018.646l-2.586,4.126A.591.591,0,0,1,220.395,131.024Zm5.172-8.253a.536.536,0,0,1-.316-.1.605.605,0,0,1-.193-.839l2.586-4.126a.619.619,0,0,1,.839-.179.605.605,0,0,1,.193.839l-2.586,4.126a.605.605,0,0,1-.509.316Zm5.185-8.253a.729.729,0,0,1-.33-.083.605.605,0,0,1-.179-.839l2.586-4.126a.605.605,0,0,1,.839-.193.619.619,0,0,1,.179.839l-2.586,4.126a.591.591,0,0,1-.509.344Zm5.172-8.253a.536.536,0,0,1-.316-.1.605.605,0,0,1-.193-.839L238,101.2a.619.619,0,0,1,.839-.179.605.605,0,0,1,.193.839l-2.586,4.126a.605.605,0,0,1-.523.385Zm5.185-8.253a.66.66,0,0,1-.33-.083.605.605,0,0,1-.193-.839l2.586-4.126a.619.619,0,0,1,.839-.193.605.605,0,0,1,.193.839l-2.586,4.126a.619.619,0,0,1-.509.413Zm5.172-8.253a.6.6,0,0,1-.509-.935l2.586-4.126a.605.605,0,0,1,.839-.193.633.633,0,0,1,.193.839l-2.6,4.126a.591.591,0,0,1-.509.468Zm5.172-8.253a.66.66,0,0,1-.316-.1.605.605,0,0,1-.193-.839l2.586-4.126a.619.619,0,0,1,.839-.193.605.605,0,0,1,.193.839l-2.586,4.126a.647.647,0,0,1-.523.509Z" transform="translate(82.49 28.636)"/><path class="s" d="M126.83,73.176a3.466,3.466,0,1,1,3.466,3.466,3.466,3.466,0,0,1-3.466-3.466Z" transform="translate(47.589 26.213)"/><path class="s" d="M188.85,85.38a3.466,3.466,0,1,1,3.452,3.452A3.466,3.466,0,0,1,188.85,85.38Z" transform="translate(70.874 30.789)"/><path class="s" d="M249.154,80.074l-5.364-3.384L253.982,66.43Z" transform="translate(91.5 24.981)"/><path class="s" d="M159.4,116.846a3.466,3.466,0,1,1,3.466,3.466A3.466,3.466,0,0,1,159.4,116.846Z" transform="translate(59.817 42.608)"/><path class="s" d="M107.88,116.846a3.466,3.466,0,1,1,3.466,3.466A3.466,3.466,0,0,1,107.88,116.846Z" transform="translate(40.474 42.608)"/><path class="s" d="M217.27,116.556a3.466,3.466,0,1,1,3.466,3.466,3.466,3.466,0,0,1-3.466-3.466Z" transform="translate(81.543 42.499)"/><path class="r" d="M114.4,199.628H76.92l3.562-36.188h37.467Z" transform="translate(28.851 61.402)"/><path class="d" d="M78.81,195.863l2.971-30.273H114.64l-2.971,30.273Z" transform="translate(29.561 62.21)"/><rect class="ad" width="28.815" height="3.81" transform="translate(96.734 257.22)"/><rect class="ae" width="17.688" height="3.81" transform="translate(125.55 257.22)"/><path class="c" d="M113.275,164.105H89.893a.523.523,0,0,1,0-1.045h23.382a.523.523,0,1,1,0,1.045Z" transform="translate(33.525 61.26)"/><path class="c" d="M104.3,200.31h0a.523.523,0,0,1-.468-.564l3.549-36.2a.523.523,0,1,1,1.032.11l-3.549,36.188a.509.509,0,0,1-.564.468Z" transform="translate(38.953 61.242)"/><path class="c" d="M89.111,164.105H85.563a.523.523,0,0,1,0-1.045h3.549a.523.523,0,1,1,0,1.045Z" transform="translate(31.9 61.26)"/><path class="c" d="M84.16,164.105h-.468a.523.523,0,0,1,0-1.045h.468a.523.523,0,1,1,0,1.045Z" transform="translate(31.197 61.26)"/><path class="c" d="M102.9,195.673h0a.523.523,0,0,1-.468-.578l2.875-29.407a.523.523,0,0,1,.578-.468.509.509,0,0,1,.468.564l-2.943,29.393A.523.523,0,0,1,102.9,195.673Z" transform="translate(38.428 62.07)"/><path class="c" d="M104.846,187.645H97.763a.523.523,0,0,1,0-1.045h7.083a.523.523,0,1,1,0,1.045Z" transform="translate(36.48 70.098)"/><path class="c" d="M82.8,184.261l.124-.591h25.721l-.1.591Z" transform="translate(31.059 68.998)"/><path class="c" d="M83.391,189.732H82.8L86.844,169.1h.591Z" transform="translate(31.059 63.527)"/><path class="k" d="M87.418,184.559H84.97l.619-3.219h2.435Z" transform="translate(31.873 68.123)"/><path class="l" d="M90.078,185.918H87.63l1.568-8.2h2.435Z" transform="translate(32.872 66.764)"/><path class="m" d="M92.748,186.68H90.3l2.077-10.99H94.8Z" transform="translate(33.874 66.002)"/><path class="n" d="M95.408,188.155H92.96l3.067-16.4h2.407Z" transform="translate(34.873 64.526)"/><path class="o" d="M98.078,189.154H95.63L99.316,169.1h2.407Z" transform="translate(35.875 63.527)"/><path class="af" d="M55.315,189.86c-1.375,8.707.22,28.582,10.66,28.031s29.668-2.751,29.778,6.533c.124,11.1-3.59,58.759-3.59,58.759l3.108-.083s20.466-67.121,11.7-78.551S77.8,190.919,77.8,190.919Z" transform="translate(20.581 71.321)"/><path class="ag" d="M126.844,269.657l3.053-1.9s-9.064-75.429-24.056-77.63c-9.05-1.375-32.144.674-32.144.674l-18.513-.88c0,7.386-1.375,28.1,9.972,26.67,11.98-1.5,36.93-10.673,41.634-2.971,5.626,9.243,20.013,56.021,20.013,56.021Z" transform="translate(20.671 71.244)"/><path class="ag" d="M118.546,245.715l-9.628,5.667s-2.751-2.435-1.21-3.452a26.013,26.013,0,0,0,2.462-1.761S117.707,243.79,118.546,245.715Z" transform="translate(40.234 92.009)"/><path class="r" d="M109.226,251.831a.564.564,0,0,1-.4-.179,13.535,13.535,0,0,1-2.2-4.044.523.523,0,1,1,.977-.344,13.755,13.755,0,0,0,1.747,3.356l9.174-5.433a.536.536,0,0,1,.715.193.523.523,0,0,1-.179.715l-9.628,5.653A.481.481,0,0,1,109.226,251.831Z" transform="translate(39.982 92.069)"/><path class="r" d="M126.6,268.857a.523.523,0,0,1-.5-.358c-.138-.454-14.016-45.389-19.545-54.522-3.191-5.254-17.427-1.939-28.884.715-4.594,1.073-8.927,2.077-12.255,2.5a7.1,7.1,0,0,1-5.873-1.692c-4.993-4.47-4.814-16.23-4.718-23.259V190a.5.5,0,0,1,.165-.371.454.454,0,0,1,.385-.151l18.5.88a.523.523,0,0,1,0,1.032l-17.963-.839v1.706c-.1,6.41-.261,18.321,4.374,22.475a6.011,6.011,0,0,0,5.034,1.375,120.84,120.84,0,0,0,12.145-2.476c12.379-2.875,26.408-6.134,30-.234,5.6,9.188,19.077,52.885,19.655,54.742a.536.536,0,0,1-.344.66Z" transform="translate(20.545 71.178)"/><path class="r" d="M65.352,158.852a4.9,4.9,0,0,0,4.786-3.865l2.517-11.609a4.925,4.925,0,0,0-9.628-2.077L60.511,152.91a4.9,4.9,0,0,0,3.741,5.832A5.5,5.5,0,0,0,65.352,158.852Z" transform="translate(22.648 51.631)"/><path class="af" d="M91.712,261.126H82.084s-1-3.879.619-3.961L85.811,257S91.959,258.747,91.712,261.126Z" transform="translate(30.674 96.528)"/><path class="r" d="M60.888,141.253c.385,5.956,2.283,10.577,6.781,10.275s8.748-5.35,8.363-11.306-3.191-10.577-7.689-10.288S60.5,135.3,60.888,141.253Z" transform="translate(22.821 48.818)"/><path class="r" d="M92.722,187.465c1.375-.853,3.4-1.637,6.107.578s-3.562,2.159-6.272,2.2S92.722,187.465,92.722,187.465Z" transform="translate(34.285 70.099)"/><path class="c" d="M106.86,201.405l-11.21-2.751c-1.265-3.191-2.38-8.321-2.132-16.753.358-12.792-2.888-33.286-25.748-33.272-31.814,0-8.569,52.267-8.817,56.668s27.7.949,27.7.949l-1.045-15.515c.454,4.058,1.375,9.257,3.535,12.571a3.879,3.879,0,0,0,1.829,2.077,4.016,4.016,0,0,0,3.177.33l12.489-1.224a1.609,1.609,0,0,0,1.375-1.21A1.582,1.582,0,0,0,106.86,201.405Z" transform="translate(19.116 55.842)"/><path class="r" d="M102.415,202.067h-.124l-11.21-2.751A.564.564,0,0,1,90.71,199c-1.637-4.126-2.366-9.889-2.159-16.959.234-8.088-.935-19.256-7.771-26.23-4.126-4.319-10.054-6.506-17.427-6.506h0a.523.523,0,1,1,.028-1.045c7.661,0,13.754,2.3,18.17,6.877,7.1,7.29,8.253,18.706,8.06,26.986-.193,6.795.481,12.269,2.008,16.3l11,2.641a.523.523,0,0,1,.385.633A.536.536,0,0,1,102.415,202.067Z" transform="translate(23.561 55.703)"/><path class="g" d="M73.663,148.686c3.342,5.653,6.877,15.983,2.531,18.8s-23.6,2.751-25.5-1.155,4.7-7.441,5.213-17.441,2.214-14.084,8.638-20.962c4.869-5.172,16.78-5.5,14.58,6.437C78.106,139.924,69.853,142.193,73.663,148.686Z" transform="translate(18.876 46.791)"/><path class="ah" d="M62.892,157.814c-8.431-4.855-3.59-24.373,3.4-31.924a10.028,10.028,0,0,0-1.747,1.527c-6.492,6.877-8.129,10.852-8.638,21.03s-7.1,13.534-5.213,17.441,21.223,3.975,25.5,1.155c3.315-2.187,1.981-8.872-.344-14.4C74.047,158.612,68.931,161.307,62.892,157.814Z" transform="translate(18.877 47.305)"/><path class="ag" d="M31.018,261.34c-8.129,5.763-10.618,14.841-5.887,22.186H61.855a18.885,18.885,0,0,0,2.421-12.888c-1.252-5.8-6.024-8.473-9.766-12.5-4.278-4.608.729-10.206,2.751-14.69,2.393-5.309,3.191-11.155-.55-16.065-3.329-4.36-8.789-6.973-10.068-12.7-1.059-4.635-.591-9.628-3.108-13.878a8.253,8.253,0,0,0-8.253-4.291,5.1,5.1,0,0,0-1.761.633,6.107,6.107,0,0,0-1.912,1.651c-3.026,3.727-2.214,9.174-.481,13.355.1.193.179.4.275.605s.151.344.138.289h0c1.224,2.586,3.48,4.319,4.773,6.726.99,1.857-2.751,4.346-3.741,5.323-3.48,3.287-8.638,7.812-7.647,13.218C26.712,247.627,43.479,252.483,31.018,261.34Z" transform="translate(8.512 73.798)"/><path class="ag" d="M46.984,274.721a17.881,17.881,0,0,1-.564-10.385,14.5,14.5,0,0,1,1.375-3.26,12.159,12.159,0,0,0,1.678-4.594v-.22c.289-3.576.413-5.213,3.287-7.262h0c.371-.261.77-.509,1.183-.77,1.871-1.2,4.209-2.668,4.635-5.185a11.732,11.732,0,0,0-1.293-6.2,18.332,18.332,0,0,1-.935-3.191,12.847,12.847,0,0,1,1.238-8.363c.715-1.375,2.627-3.535,3.535-3.535.3,0,.523.591.605.853a17.716,17.716,0,0,1,.55,3.892,16.615,16.615,0,0,0,.743,4.718,13.108,13.108,0,0,0,4.278,5.5c.591.523,1.2,1.059,1.774,1.637,3.384,3.466,1.582,6.4-1.788,10.825a17.991,17.991,0,0,0-3.8,6.685c-.66,3.219.5,6.121,1.609,8.94,1.293,3.246,2.5,6.327,1.114,9.917h1.953c1.265-3.961-.069-7.331-1.375-10.6-1.059-2.668-2.063-5.2-1.513-7.881a17.014,17.014,0,0,1,3.452-5.942c3-3.934,6.382-8.376,1.637-13.218-.605-.619-1.238-1.183-1.857-1.747a11.567,11.567,0,0,1-3.769-4.718,15.667,15.667,0,0,1-.646-4.223,18.293,18.293,0,0,0-.619-4.333c-.591-1.871-1.733-2.146-2.366-2.146-2.3,0-4.7,3.617-5.172,4.525a14.648,14.648,0,0,0-1.375,9.628,20.1,20.1,0,0,0,1.155,3.466,10.316,10.316,0,0,1,1.2,5.2c-.289,1.719-2.159,2.9-3.81,3.947a4.515,4.515,0,0,0-.426.275l-.234.138h0L52,247.4l-.248.179-.165.124-.413.289h0c-3.026,2.407-3.219,4.745-3.48,8.253v.206a10.8,10.8,0,0,1-1.485,3.893,16.162,16.162,0,0,0-1.568,3.7,19.985,19.985,0,0,0,.371,10.8Z" transform="translate(16.52 82.603)"/><path class="ag" d="M19.61,245.008c2.971,2.682,5.777,5.227,4.732,9.092a21.608,21.608,0,0,1-2.861,5.749c-1.981,3.164-4.044,6.437-2.93,11.182a18.061,18.061,0,0,0,1.692,4.305h2.118a15.762,15.762,0,0,1-2.008-4.732c-.949-3.989.743-6.671,2.682-9.779a23,23,0,0,0,3.081-6.244c1.375-4.965-2.173-8.143-5.268-10.935a16.588,16.588,0,0,1-4.5-5.254c-1.829-4.333-1.375-14.621,2.613-18.2l.11-.1c.578.33,1.664,2.49,2.82,12.929.11.977.193,1.692.234,1.953.977,4.759,4.016,7.235,6.973,9.628a25.638,25.638,0,0,1,4.965,4.924c3.163,4.47,3.012,10.357,2.875,16.065,0,1.375-.083,2.751-.069,4.126a17.175,17.175,0,0,0,.1,2.132c.1.756.11,2.242.124,3.507h1.857a33.227,33.227,0,0,0-.124-3.6c0-.8-.083-1.5-.1-2.063,0-1.307,0-2.668.069-4.057.138-5.736.3-12.214-3.219-17.193a26.917,26.917,0,0,0-5.309-5.24c-2.82-2.283-5.5-4.443-6.313-8.569,0-.248-.124-.894-.22-1.788-1.2-10.756-2.407-14.58-4.635-14.58a2.063,2.063,0,0,0-1.375.578c-4.594,4.126-5.158,15.391-3.081,20.288a17.977,17.977,0,0,0,4.965,5.873Z" transform="translate(5.038 81.988)"/><path class="d" d="M39.523,283.51H41.49c8.61-24.056.165-65.663-7.923-84.4-.413-.949-.812-1.816-1.2-2.613a5.1,5.1,0,0,0-1.761.633c.413.8.812,1.706,1.252,2.751C39.935,218.507,48.394,260.128,39.523,283.51Z" transform="translate(11.465 73.814)"/><path class="ag" d="M16.177,261.567H6.1a1.031,1.031,0,0,1-1.045-1.032A1.045,1.045,0,0,1,6.1,259.49H16.177a1.045,1.045,0,0,1,1.032,1.045,1.032,1.032,0,0,1-1.032,1.032Z" transform="translate(1.868 97.463)"/><path class="ag" d="M3.816,261.571H1.065a1.045,1.045,0,0,1,0-2.091H3.816a1.045,1.045,0,1,1,0,2.091Z" transform="translate(-0.02 97.459)"/><path class="ag" d="M402.279,261.567H17.335a1.031,1.031,0,0,1-1.045-1.032,1.045,1.045,0,0,1,1.045-1.045H402.279a1.045,1.045,0,0,1,1.045,1.045,1.032,1.032,0,0,1-1.045,1.032Z" transform="translate(6.088 97.463)"/><path class="s" d="M98.756,277.91l-13-66.75-9.518,2.366,19.655,65.086Z" transform="translate(28.596 79.318)"/><path class="s" d="M52.735,278.611l19.641-65.086-9.5-2.366L49.86,277.91Z" transform="translate(18.692 79.318)"/><rect class="s" width="30.26" height="6.533" transform="translate(82.774 302.293)"/><path class="s" d="M52.68,213.033a3.81,3.81,0,0,0,3.824,3.81H99.885a3.81,3.81,0,0,0,3.837-3.81h0a3.81,3.81,0,0,0-3.837-3.782H56.5a3.81,3.81,0,0,0-3.824,3.782Z" transform="translate(19.75 78.601)"/><path class="ai" d="M86.383,215.455H62.753a.523.523,0,0,1,0-1.045h23.63a.523.523,0,0,1,0,1.045Z" transform="translate(23.336 80.538)"/><path class="ai" d="M60.623,215.455h-3.48a.523.523,0,0,1,0-1.045h3.521a.523.523,0,1,1,0,1.045Z" transform="translate(21.23 80.538)"/><path class="ai" d="M89.073,215.455h-7.62a.523.523,0,0,1,0-1.045h7.62a.523.523,0,1,1,0,1.045Z" transform="translate(30.357 80.538)"/><path class="ai" d="M54.631,266.332H54.48a.536.536,0,0,1-.344-.66l15.35-50.891a.509.509,0,0,1,.646-.344.523.523,0,0,1,.358.646L55.126,265.974a.509.509,0,0,1-.5.358Z" transform="translate(20.289 80.539)"/><path class="ai" d="M52.371,261.672H52.22a.523.523,0,0,1-.344-.646l1.926-6.4a.518.518,0,1,1,.99.3l-1.926,6.4a.523.523,0,0,1-.5.344Z" transform="translate(19.44 95.501)"/><rect class="s" width="43.863" height="28.018" rx="7.12" transform="translate(59.047 235.777)"/><path class="s" d="M57.923,218.595a1.54,1.54,0,0,0,.426-.069,1.637,1.637,0,0,0,1.142-2.008l-7.4-26.67a1.637,1.637,0,0,0-3.15.88l7.4,26.67a1.651,1.651,0,0,0,1.582,1.2Z" transform="translate(18.331 70.893)"/><path class="s" d="M76.354,218.611a1.718,1.718,0,0,0,.44-.069,1.623,1.623,0,0,0,1.128-2.008l-7.4-26.67a1.629,1.629,0,1,0-3.136.88l7.4,26.67a1.637,1.637,0,0,0,1.568,1.2Z" transform="translate(25.249 70.877)"/><path class="aj" d="M121.248,189.86c-1.169,8.707.193,28.582,8.913,28.031s24.758-2.751,24.854,6.533c.1,11.1-3,58.759-3,58.759l2.6-.083s17.1-67.121,9.766-78.551-24.359-13.631-24.359-13.631Z" transform="translate(45.358 71.321)"/><path class="aj" d="M151.263,261.126H143.23s-.839-3.879.509-3.961l2.6-.165S151.442,258.747,151.263,261.126Z" transform="translate(53.649 96.528)"/><path class="c" d="M121.315,189.86c-1.375,8.707-1.155,28.582,8.913,28.031s35.761-2.751,35.83,6.533c.11,11.1-3.452,58.759-3.452,58.759l2.985-.083s19.724-67.121,11.279-78.551-28.114-13.631-28.114-13.631Z" transform="translate(45.292 71.321)"/><path class="ag" d="M158.34,282.67a.275.275,0,0,1-.151,0,.523.523,0,0,1-.385-.605c.206-.66,19.861-66.172,11.416-77.272s-28.348-13.507-28.554-13.507a.509.509,0,0,1-.454-.578.523.523,0,0,1,.578-.468c.825.1,20.632,2.366,29.3,13.851s-10.426,75.484-11.251,78.194A.509.509,0,0,1,158.34,282.67Z" transform="translate(52.611 71.463)"/><path class="c" d="M160.094,260.884H150.81s-.963-3.6.605-3.672l2.985-.151S160.314,258.752,160.094,260.884Z" transform="translate(56.482 96.551)"/><path class="r" d="M131.09,158.852a4.91,4.91,0,0,0,4.787-3.865l2.517-11.609a4.925,4.925,0,0,0-9.628-2.077l-2.517,11.609a4.9,4.9,0,0,0,3.824,5.8A5.5,5.5,0,0,0,131.09,158.852Z" transform="translate(47.332 51.631)"/><path class="ak" d="M163.17,181.932c-.55-12.792-3.3-33.286-29.531-33.272-36.463,0-9.821,52.267-10.1,56.668s31.759.949,31.759.949l-1.664-21.5s-5.034,26.532,8.528,22.5C165.728,206.208,163.885,198.918,163.17,181.932Z" transform="translate(42.926 55.854)"/><path class="g" d="M146.143,150.82a40.314,40.314,0,0,0-8.1-.77c-36.477,0-9.834,52.267-10.109,56.668a.688.688,0,0,0,0,.179c9.215.619,29.256.839,32.543-.138,3.562-1.073,1.719-8.363,1-25.349C161.094,171.438,159.32,156.859,146.143,150.82Z" transform="translate(44.575 56.375)"/><path class="s" d="M153.2,207.213a.523.523,0,0,1-.151-1.032c2.214-.66,1.926-4.855,1.375-13.2-.22-3.15-.5-7.07-.688-11.609-.481-11.072-2.613-24.5-15.13-30.136a.523.523,0,0,1,.44-.949c12.97,5.873,15.13,19.669,15.666,31.03.193,4.539.481,8.445.7,11.595.646,9.188.949,13.383-2.063,14.277Z" transform="translate(51.896 56.444)"/><path class="r" d="M126.068,142.863c.385,5.956,4.346,10.55,8.858,10.261s7.826-5.364,7.441-11.32-4.346-10.55-8.844-10.261S125.683,136.894,126.068,142.863Z" transform="translate(47.292 49.423)"/><path class="ag" d="M139.341,128.4c4.621-.193,7.592,5.5,1.073,8.541s-2.9,7.537-4.305,11.1-10.756,7.7-12.173-1.664C122.148,134.536,130.525,128.786,139.341,128.4Z" transform="translate(46.411 48.246)"/><path class="s" d="M146.547,201.411a.523.523,0,0,1-.124-1.032s.715-.77-.151-7.881c-1.375-11.389-4.91-25.129-6.244-25.844a.523.523,0,0,1,.454-.935c2.751,1.375,7.9,27.894,7.18,33.863-.083.7-.275,1.651-1,1.816Z" transform="translate(52.451 62.246)"/><path class="al" d="M136.11,147.835a10.344,10.344,0,0,0,.261-4.374,11.65,11.65,0,0,1-6.217-.165c-6.423-2.077-1.375-11,4.484-14.346-6.877,1.926-12.173,7.524-10.7,17.22C125.354,155.537,134.707,151.411,136.11,147.835Z" transform="translate(46.41 48.454)"/><path class="s" d="M164.5,277.91l-13.012-66.75-9.5,2.366,19.641,65.086Z" transform="translate(53.277 79.318)"/><path class="s" d="M118.475,278.611l19.641-65.086-9.5-2.366L115.6,277.91Z" transform="translate(43.373 79.318)"/><rect class="s" width="30.26" height="6.533" transform="translate(173.181 302.293)"/><rect class="s" width="43.863" height="28.018" rx="7.12" transform="translate(149.469 235.777)"/><path class="s" d="M118.42,213.04a3.81,3.81,0,0,0,3.81,3.81h43.423a3.81,3.81,0,0,0,3.81-3.81h0a3.81,3.81,0,0,0-3.81-3.81H122.23A3.81,3.81,0,0,0,118.42,213.04Z" transform="translate(44.432 78.594)"/><path class="s" d="M123.636,218.611a1.664,1.664,0,0,0,1.582-2.077l-7.345-26.67a1.629,1.629,0,1,0-3.136.88l7.4,26.67A1.637,1.637,0,0,0,123.636,218.611Z" transform="translate(43.026 70.877)"/><path class="s" d="M142.1,218.611a1.539,1.539,0,0,0,.426-.069,1.623,1.623,0,0,0,1.142-2.008l-7.4-26.67a1.635,1.635,0,0,0-3.15.88l7.4,26.67a1.651,1.651,0,0,0,1.582,1.2Z" transform="translate(49.927 70.877)"/><path class="ai" d="M152.293,215.455h-23.63a.523.523,0,0,1,0-1.045h23.63a.523.523,0,1,1,0,1.045Z" transform="translate(48.081 80.538)"/><path class="ai" d="M126.544,215.455h-3.521a.523.523,0,0,1,0-1.045h3.521a.523.523,0,1,1,0,1.045Z" transform="translate(45.963 80.538)"/><path class="ai" d="M154.983,215.455h-7.62a.523.523,0,0,1,0-1.045h7.62a.523.523,0,0,1,0,1.045Z" transform="translate(55.101 80.538)"/><path class="ai" d="M120.292,266.332H120.1a.536.536,0,0,1-.344-.66l15.35-50.891a.509.509,0,0,1,.646-.344.523.523,0,0,1,.358.646l-15.364,50.891a.509.509,0,0,1-.454.358Z" transform="translate(44.925 80.539)"/><path class="ai" d="M118.021,261.672h-.151a.523.523,0,0,1-.344-.646l1.926-6.4a.523.523,0,0,1,.646-.344.509.509,0,0,1,.344.647l-1.926,6.4a.523.523,0,0,1-.5.344Z" transform="translate(44.088 95.501)"/><path class="g" d="M381.477,223.419c.275-5.914-2.875-11.911-8.94-16.216-13.493-9.628,4.676-14.841,6.533-24.9,1.073-5.846-4.511-10.756-8.253-14.318-1.114-1.045-5.117-3.741-4.044-5.763,1.375-2.613,3.851-4.5,5.172-7.29h0l.138-.316c.1-.22.193-.44.3-.66,1.871-4.539,2.751-10.426-.523-14.483a6.753,6.753,0,0,0-2.077-1.774,5.764,5.764,0,0,0-1.9-.7c-3.329-.633-7,1.458-8.885,4.663-2.751,4.621-2.214,10.013-3.356,15.047-1.375,6.189-7.3,9.023-10.921,13.754-4.058,5.309-3.191,11.664-.591,17.413,2.173,4.855,7.579,10.921,2.957,15.914-4.058,4.374-9.229,7.262-10.591,13.562a16.946,16.946,0,0,0-.1,6.121Z" transform="translate(126.183 51.434)"/><path class="g" d="M395.966,219.242H348.884l-.165-.811a11.83,11.83,0,0,1,.11-5.35c1.1-4.016,4.4-6.423,7.606-8.748,1.128-.811,2.283-1.664,3.342-2.572,2.751-2.366,1.307-4.9-1.375-8.775-.646-.922-1.265-1.8-1.761-2.668-3.329-5.887-3.081-11.1.756-15.13a33.639,33.639,0,0,1,4.456-3.672c2.751-2.063,5.5-3.989,6.272-6.877a30.108,30.108,0,0,0,.743-3.989,17.261,17.261,0,0,1,2.751-8.349,10.756,10.756,0,0,1,9.876-4.126,8.335,8.335,0,0,1,4.553,2.256c3.067,3.026,3.329,7.661.688,12.723l-.248.44a3.146,3.146,0,0,1-.248.426l-.1.151a16.658,16.658,0,0,1-2.833,3.2,15.488,15.488,0,0,0-2.3,2.517c0,.3.44.99,2.957,2.655l.88.591.536.4c3.934,2.943,9.339,6.973,8.156,12.063-.756,3.274-3.892,5.887-6.643,8.253s-5.02,4.126-4.855,6.107c.124,1.375,1.623,2.861,4.456,4.47,6.341,3.562,9.793,8.624,9.491,13.864Zm-45.389-1.994H394c-.193-4.126-3.219-8.129-8.473-11.086-3.535-1.994-5.268-3.906-5.5-6.024-.275-2.943,2.558-5.309,5.5-7.812,2.641-2.214,5.364-4.5,5.983-7.125.88-3.824-3.906-7.4-7.414-10l-.536-.413-.77-.523c-1.857-1.21-3.549-2.435-3.837-3.865a2.022,2.022,0,0,1,.3-1.568,17.523,17.523,0,0,1,2.586-2.847,14.926,14.926,0,0,0,2.586-2.916l.468-.825c1.018-1.953,3.067-6.973-.358-10.343a5.364,5.364,0,0,0-1.774-1.21,5.721,5.721,0,0,0-1.664-.5,8.679,8.679,0,0,0-7.964,3.329,15.322,15.322,0,0,0-2.407,7.441,29.622,29.622,0,0,1-.812,4.25c-1,3.549-4.044,5.791-7,7.95a32.539,32.539,0,0,0-4.209,3.452c-3.191,3.329-3.342,7.606-.454,12.709.454.784,1.032,1.623,1.664,2.5,2.3,3.26,5.5,7.73,1.087,11.457-1.114.949-2.311,1.816-3.466,2.655-3.053,2.228-5.942,4.319-6.877,7.661a9.628,9.628,0,0,0-.082,3.645Z" transform="translate(130.799 55.639)"/><path class="d" d="M352.966,223.4c-5.584-25.954,2.668-64.563,10.563-82.829.481-1.1.922-2.091,1.375-2.943a5.763,5.763,0,0,0-1.9-.7c-.426.88-.853,1.816-1.293,2.833-7.95,18.4-16.2,57.136-10.742,83.64Z" transform="translate(131.078 51.45)"/><path class="g" d="M424.2,201.137H308.425a1.032,1.032,0,0,1-1.045-1.032,1.045,1.045,0,0,1,1.045-1.045H424.2a1.045,1.045,0,0,1,1.045,1.045,1.032,1.032,0,0,1-1.045,1.032Z" transform="translate(115.374 74.776)"/><path class="g" d="M406.584,201.137H396.515a1.031,1.031,0,0,1-1.045-1.032,1.045,1.045,0,0,1,1.045-1.045h10.068a1.045,1.045,0,0,1,1.045,1.045,1.031,1.031,0,0,1-1.045,1.032Z" transform="translate(148.446 74.776)"/><path class="g" d="M409.636,201.127h-2.751a1.045,1.045,0,0,1-1.045-1.045,1.032,1.032,0,0,1,1.045-1.032h2.751a1.032,1.032,0,0,1,1.045,1.032,1.045,1.045,0,0,1-1.045,1.045Z" transform="translate(152.339 74.772)"/><path class="r" d="M299.087,90.424c-4.759-3.535-15.68-8.1-12.1-.853,1.375,2.875,5.694-.179,9.312,2.393C296.68,92.24,299.087,90.424,299.087,90.424Z" transform="translate(107.451 32.223)"/><path class="d" d="M293.553,93.832A33.547,33.547,0,0,0,318.2,91.618c6.382-3.122,13.232-8.253,15.859-15.13a6.973,6.973,0,1,1,12.805,5.5,27.316,27.316,0,0,1-8.555,9.394,49.6,49.6,0,0,1-12.571,6.74A42.075,42.075,0,0,1,299.481,99.5a36.411,36.411,0,0,1-6.011-2.435C293.47,95.978,293.484,94.891,293.553,93.832Z" transform="translate(110.152 27.082)"/><path class="r" d="M333.1,83.079l4.484,2.641a37.99,37.99,0,0,0,2.256-22.2l-4.924,1.692A30.576,30.576,0,0,1,333.1,83.079Z" transform="translate(125.03 23.889)"/><path class="ad" d="M334.42,65.212l4.924-1.692a37.34,37.34,0,0,1,.715,8.019,3.934,3.934,0,0,1-3.466,1.829,3.122,3.122,0,0,1-1.623-.66,30.467,30.467,0,0,0-.55-7.5Z" transform="translate(125.526 23.889)"/><path class="r" d="M332.682,65.915c-.344,3.384,1.293,6.327,3.659,6.561s4.566-2.3,4.924-5.681-1.664-5.227-3.672-6.6C333.535,57.649,333.026,62.531,332.682,65.915Z" transform="translate(124.856 22.374)"/><path class="c" d="M344.382,61.205c-4.388-1.375-1.981-11.512-10.013-9.972s-4.5,10.756,1.884,11.444a6.217,6.217,0,0,1,5.364,6.685c-.426,2.751,1.375-.4.206,2.407s-.688,5.405.908,2.751S348.769,62.581,344.382,61.205Z" transform="translate(123.762 19.216)"/><path class="r" d="M338.143,64.711c-.179,1.045.179,1.981.812,2.091s1.279-.646,1.458-1.692-.179-1.967-.812-2.077S338.321,63.679,338.143,64.711Z" transform="translate(126.906 23.702)"/><path class="d" d="M328.6,72.309a58.306,58.306,0,0,1,11-.564c-.206,1.114-.5,2.517,1.527,3.012a3.37,3.37,0,0,0,3.741-2.641,27.069,27.069,0,0,1,12.681,6.258c5.983,5.749-8.376,46.311-8.9,49.516s-15.8,2.338-17.977,1.692S313.046,75.087,328.6,72.309Z" transform="translate(120.766 26.956)"/><path class="r" d="M330.833,125.582h-.165c-2.159-.646-8.982-25.294-9.3-41.126a.536.536,0,0,1,.509-.536.55.55,0,0,1,.536.509c.344,16.78,7.262,39.035,8.638,40.19a.481.481,0,0,1,.316.633.55.55,0,0,1-.536.33Z" transform="translate(120.626 31.548)"/><path class="d" d="M332.68,77.012c.234,1.747,4.2-.7,4.855-1.485.234.867,3.741,3.342,5.364,2.476,1.375-.756-.536-4.718-2.38-6.162a3.383,3.383,0,0,1-2.9,3.439h-.069c-2.091,0-2.173-1.375-2.242-2.531h-.1a4.869,4.869,0,0,0-2.531,4.264Z" transform="translate(124.872 27.013)"/><path class="c" d="M331.169,200.156a15.422,15.422,0,0,0-.3-4.236s-5.075.1-6.382.33-8.8,1.458-10.825,3.466c-.165.165-.179.316-.1.44Z" transform="translate(117.677 73.597)"/><path class="c" d="M350.145,200.156a14.884,14.884,0,0,0-.3-4.236s-5.062.1-6.368.33-8.8,1.458-10.825,3.466c-.165.165-.179.316-.1.44Z" transform="translate(124.806 73.597)"/><path class="ag" d="M335.32,113.41s-28.5,40.438-27.137,49.516,18.458,64.315,18.458,64.315l6.244-.3-8.693-59.144L345.485,137.3l-.248-23.878Z" transform="translate(115.658 42.619)"/><path class="ag" d="M344.947,227.441,330.78,135.287l1.651-20.975,12.833-1.692s5.653,7.028,6.781,20.15c.674,7.8-1.554,94.479-1.554,94.479Z" transform="translate(124.159 42.323)"/><path class="c" d="M328.046,114.173h0l12.626-.358a.536.536,0,0,0,.509-.55.55.55,0,0,0-.536-.5l-12.626.358a.523.523,0,1,0,.028,1.045Z" transform="translate(122.931 42.379)"/><path class="am" d="M336.2,75.942c.234.88,3.741,3.356,5.364,2.49s-.536-4.718-2.38-6.162a3.384,3.384,0,0,1-2.9,3.439h0a.206.206,0,0,0-.083.234Z" transform="translate(126.191 27.174)"/><path class="am" d="M332.67,77.156c.234,1.747,4.2-.7,4.855-1.485.1-.11.124-.179.069-.206h0c-2.091,0-2.173-1.375-2.228-2.545H335.3A4.883,4.883,0,0,0,332.67,77.156Z" transform="translate(124.869 27.418)"/><path class="c" d="M336.45,74.443c.867-.11,2.022.605,1.637,1.472s-.811,1.375-1.6,1.375-1.884-1.472-1.375-2.214S335.858,74.526,336.45,74.443Z" transform="translate(125.738 27.986)"/><path class="d" d="M336.216,75.526c.234.867,3.741,3.342,5.364,2.476,1.375-.756-.536-4.718-2.38-6.162a3.383,3.383,0,0,1-2.9,3.439h0a.179.179,0,0,0-.083.248Z" transform="translate(126.192 27.013)"/><path class="d" d="M332.68,76.756c.234,1.747,4.2-.7,4.855-1.485.1-.11.124-.193.069-.22h-.069c-2.091,0-2.173-1.375-2.242-2.531h-.069A4.869,4.869,0,0,0,332.68,76.756Z" transform="translate(124.872 27.268)"/><path class="c" d="M337.519,75.694l-1,1.375c-.275.523-.633,1.169-1,1.912a19.274,19.274,0,0,0-1.018,2.572c-.316.963-.688,2.008-.963,3.15s-.578,2.324-.853,3.59-.468,2.558-.66,3.892-.371,2.751-.468,4.126-.193,2.751-.261,4.126,0,2.751,0,4.03a22.672,22.672,0,0,0,.206,3.769c.206,1.21.206,2.324.385,3.37.083.523.165,1.032.234,1.5s.206.922.3,1.375c.193.839.344,1.582.55,2.173l.605,1.884a1.375,1.375,0,0,0,1.8.963,1.8,1.8,0,0,0,.784-2.159h0v-.179s-.22-.578-.591-1.6a16.513,16.513,0,0,1-.564-1.9c-.1-.371-.22-.757-.316-1.183s-.179-.894-.261-1.375a30.084,30.084,0,0,1-.5-3.109c-.179-1.114-.22-2.324-.344-3.549s-.11-2.531-.11-3.851,0-2.641.083-3.961.179-2.668.3-3.961.289-2.586.5-3.81.4-2.407.674-3.507.523-2.118.8-3.053.605-1.733.853-2.476l.811-1.747.935-1.472h0a.729.729,0,0,0-.11-.88.44.44,0,0,0-.8-.041Z" transform="translate(124.339 28.371)"/><path class="g" d="M352.213,135.411a.715.715,0,0,0,1.018.083l17.014-14.4a.743.743,0,0,0,.083-1.032L349.146,95.069a.743.743,0,0,0-1.032-.083L331.073,109.36a.729.729,0,0,0-.1,1.032Z" transform="translate(124.169 35.639)"/><path class="d" d="M334.714,110.695a.234.234,0,0,1-.193-.1.261.261,0,0,1,0-.371L348.179,98.66a.275.275,0,0,1,.371,0,.248.248,0,0,1,0,.358l-13.658,11.567a.289.289,0,0,1-.179.11Z" transform="translate(125.535 37.055)"/><path class="d" d="M336.974,113.352a.248.248,0,0,1-.193-.083.261.261,0,0,1,0-.371l13.658-11.567a.261.261,0,0,1,.371,0,.275.275,0,0,1,0,.371l-13.7,11.581a.234.234,0,0,1-.138.069Z" transform="translate(126.383 38.056)"/><path class="d" d="M339.236,116.013a.289.289,0,0,1-.206-.1.275.275,0,0,1,0-.371l13.741-11.526a.258.258,0,0,1,.358.371L339.47,115.958a.289.289,0,0,1-.234.055Z" transform="translate(127.229 39.067)"/><path class="d" d="M341.484,118.679a.275.275,0,0,1-.193-.083.261.261,0,0,1,0-.371l13.658-11.567a.263.263,0,0,1,.344.4l-13.658,11.567a.275.275,0,0,1-.151.055Z" transform="translate(128.076 40.06)"/><path class="d" d="M343.743,121.353a.261.261,0,0,1-.165-.468l13.658-11.567a.263.263,0,0,1,.344.4l-13.672,11.567a.247.247,0,0,1-.165.069Z" transform="translate(128.926 41.059)"/><path class="d" d="M346.006,124.012a.247.247,0,0,1-.206-.1.261.261,0,0,1,0-.358l13.658-11.567a.248.248,0,0,1,.358,0,.261.261,0,0,1,0,.371L346.157,123.93A.262.262,0,0,1,346.006,124.012Z" transform="translate(129.771 42.058)"/><path class="c" d="M321.128,154.187a.523.523,0,0,0,.234-.99l-4.305-2.132a.523.523,0,1,0-.468.935l4.305,2.132a.454.454,0,0,0,.234.055Z" transform="translate(118.723 56.736)"/><path class="c" d="M321.279,154.392a.523.523,0,0,0,.014-1.045l-4.456-.206a.523.523,0,0,0-.041,1.045l4.456.193A.048.048,0,0,0,321.279,154.392Z" transform="translate(118.723 57.535)"/><path class="r" d="M349.005,117.289c-2.421,3.865-5.928,9.628-8.431,4-2.187-4.965,4.126-1.458,6.011-4.319C346.832,116.67,349.005,117.289,349.005,117.289Z" transform="translate(127.666 43.926)"/><path class="c" d="M340.252,66.642a7.317,7.317,0,0,1-2.008,1.032,3.383,3.383,0,0,1-2.27.083,11.127,11.127,0,0,1-2.228-1.375c-.481-.3-1.375-.825-1.884-.413s-.344,1.472-.124,2.049a5.241,5.241,0,0,0,2.049,2.545,4.126,4.126,0,0,0,3.329.5,6.382,6.382,0,0,0,3.315-2.421,6.215,6.215,0,0,0,.77-1.651,3.6,3.6,0,0,0,.22-.922c0-.289-.138-.413-.371-.206Q340.67,66.269,340.252,66.642Z" transform="translate(124.439 24.728)"/><path class="d" d="M349.358,134.273a26.321,26.321,0,0,1-3.108-1.664,11.134,11.134,0,0,0,.949-1.238,44.139,44.139,0,0,0,3.3-7.9c2.5-11,1.224-28.1-8.72-35.569A7.386,7.386,0,0,1,344.833,75.1c6-1.252,9.628,5.5,11.595,10.123,5.859,13.851,5.3,31.552-3.081,44.138a36.56,36.56,0,0,1-3.989,4.91Z" transform="translate(127.313 28.18)"/><path class="r" d="M349.839,129.088a.523.523,0,0,1-.44-.811c7.868-11.8,9.092-29.338,3.04-43.643a26.216,26.216,0,0,0-3.8-6.671.536.536,0,0,1,.069-.743.523.523,0,0,1,.729,0A27.507,27.507,0,0,1,353.4,84.1c6.176,14.607,4.91,32.529-3.122,44.619A.55.55,0,0,1,349.839,129.088Z" transform="translate(130.821 28.977)"/><path class="c" d="M301.413,95.1,257.66,73.328a.517.517,0,0,1,.44-.935l44.647,19.889a1.561,1.561,0,1,1-1.279,2.847Z" transform="translate(96.597 27.202)"/><path class="r" d="M292.528,89.2a.55.55,0,0,1-.316-.11l-2.517-1.967a.524.524,0,0,1,.646-.825l2.517,1.967a.523.523,0,0,1,.083.729A.5.5,0,0,1,292.528,89.2Z" transform="translate(108.659 32.4)"/><path class="c" d="M345.079,221.519a.523.523,0,0,1-.509-.44L330.4,130.41a.523.523,0,1,1,1.032-.165L345.6,220.859a.523.523,0,0,1-.44.591Z" transform="translate(124.014 48.768)"/><path class="c" d="M328.606,212.32a.523.523,0,0,1-.523-.44l-8.541-57.617a.521.521,0,1,1,1.032-.151l8.542,57.617a.523.523,0,0,1-.44.591Z" transform="translate(119.938 57.733)"/><path class="c" d="M308.279,162.513h0a.523.523,0,0,1-.509-.536c.1-6.685,24.758-47.177,27.426-48.855a.523.523,0,1,1,.55.88c-1.939,1.21-26.835,41.346-26.931,48a.523.523,0,0,1-.536.509Z" transform="translate(115.52 42.468)"/></g></g></svg>