<svg xmlns="http://www.w3.org/2000/svg" width="62.366" height="51.274" viewBox="0 0 62.366 51.274"><defs><style>.a{fill:#fff;}.b{fill:#00ebc7;}.c{fill:#273d83;}</style></defs><g transform="translate(-17.758)"><g transform="translate(17.758 0)"><path class="a" d="M55.508,53.446h-45.4A2.943,2.943,0,0,1,7.17,50.51V10.587A.6.6,0,0,1,7.757,10h50.1a.587.587,0,0,1,.587.587V50.51a2.936,2.936,0,0,1-2.936,2.936ZM8.344,11.174V50.51a1.761,1.761,0,0,0,1.761,1.761h45.4a1.761,1.761,0,0,0,1.761-1.761V11.174Z" transform="translate(-1.557 -2.172)"/><path class="b" d="M37.633,35.962H15.323a2.153,2.153,0,0,1-2.153-2.153V18.153A2.153,2.153,0,0,1,15.323,16h22.31a2.153,2.153,0,0,1,2.153,2.153V33.809a2.153,2.153,0,0,1-2.153,2.153ZM15.323,17.174a.979.979,0,0,0-.979.979V33.809a.979.979,0,0,0,.979.979h22.31a.979.979,0,0,0,.979-.979V18.153a.979.979,0,0,0-.979-.979Z" transform="translate(-2.86 -3.475)"/><path class="a" d="M23.151,56.568H14.54a1.37,1.37,0,0,1-1.37-1.37V47.37A1.378,1.378,0,0,1,14.54,46h8.611a1.37,1.37,0,0,1,1.37,1.37V55.2A1.37,1.37,0,0,1,23.151,56.568ZM14.54,47.174a.2.2,0,0,0-.2.2V55.2a.2.2,0,0,0,.2.2h8.611a.2.2,0,0,0,.2-.2V47.37a.2.2,0,0,0-.2-.2Z" transform="translate(-2.86 -9.991)"/><path class="a" d="M42.651,56.568H34.04a1.37,1.37,0,0,1-1.37-1.37V47.37A1.378,1.378,0,0,1,34.04,46h8.611a1.37,1.37,0,0,1,1.37,1.37V55.2A1.37,1.37,0,0,1,42.651,56.568ZM34.04,47.174a.2.2,0,0,0-.2.2V55.2a.2.2,0,0,0,.2.2h8.611a.2.2,0,0,0,.2-.2V47.37a.2.2,0,0,0-.2-.2Z" transform="translate(-7.096 -9.991)"/><path class="a" d="M62.151,56.568H53.54a1.37,1.37,0,0,1-1.37-1.37V47.37A1.378,1.378,0,0,1,53.54,46h8.611a1.37,1.37,0,0,1,1.37,1.37V55.2a1.37,1.37,0,0,1-1.37,1.37ZM53.54,47.174a.2.2,0,0,0-.2.2V55.2a.2.2,0,0,0,.2.2h8.611a.2.2,0,0,0,.2-.2V47.37a.2.2,0,0,0-.2-.2Z" transform="translate(-11.331 -9.991)"/><path class="b" d="M26.96,22.25V32.426l7.045-5.088Z" transform="translate(-5.856 -4.833)"/><path class="b" d="M26.837,32.85a.634.634,0,0,1-.266-.063.6.6,0,0,1-.321-.524V22.087a.587.587,0,0,1,.932-.478L34.227,26.7a.595.595,0,0,1,0,.955L27.182,32.74a.618.618,0,0,1-.344.11Zm.587-9.613v7.875L32.9,27.2Z" transform="translate(-5.701 -4.669)"/><path class="a" d="M57.857,9H7.757a.6.6,0,0,1-.587-.587V2.936A2.943,2.943,0,0,1,10.106,0h45.4a2.936,2.936,0,0,1,2.936,2.936v5.48A.587.587,0,0,1,57.857,9ZM8.344,7.828H57.269V2.936a1.761,1.761,0,0,0-1.761-1.761h-45.4A1.761,1.761,0,0,0,8.344,2.936Z" transform="translate(-1.557 0)"/><path class="a" d="M54.694,6.307a1.1,1.1,0,1,0,.008-.031Z" transform="translate(-11.703 -1.023)"/><path class="a" d="M59.42,5.533A.783.783,0,0,1,60.2,4.75h0a.783.783,0,0,1,.783.783h0a.783.783,0,0,1-.783.783h0A.783.783,0,0,1,59.42,5.533Z" transform="translate(-12.906 -1.032)"/><path class="a" d="M65.713,6.315a.787.787,0,1,1,.008,0Z" transform="translate(-14.103 -1.032)"/><path class="a" d="M64.869,17.174h-3.2a.587.587,0,0,1,0-1.174h3.2a.587.587,0,1,1,0,1.174Z" transform="translate(-13.266 -3.475)"/><path class="a" d="M57.383,17.174H52.757a.587.587,0,1,1,0-1.174h4.626a.587.587,0,1,1,0,1.174Z" transform="translate(-11.331 -3.475)"/><path class="a" d="M64.345,23.174H59.257a.587.587,0,0,1,0-1.174h5.088a.587.587,0,1,1,0,1.174Z" transform="translate(-12.743 -4.778)"/><path class="a" d="M55.5,23.174h-2.74a.587.587,0,1,1,0-1.174H55.5a.587.587,0,1,1,0,1.174Z" transform="translate(-11.331 -4.778)"/><path class="a" d="M60.585,29.174H52.757a.587.587,0,1,1,0-1.174h7.828a.587.587,0,1,1,0,1.174Z" transform="translate(-11.331 -6.081)"/><path class="a" d="M64.345,35.174H59.257a.587.587,0,0,1,0-1.174h5.088a.587.587,0,0,1,0,1.174Z" transform="translate(-12.743 -7.385)"/><path class="a" d="M55.5,35.174h-2.74a.587.587,0,0,1,0-1.174H55.5a.587.587,0,1,1,0,1.174Z" transform="translate(-11.331 -7.385)"/><path class="a" d="M58.237,41.174h-5.48a.587.587,0,1,1,0-1.174h5.48a.587.587,0,1,1,0,1.174Z" transform="translate(-11.331 -8.688)"/><path class="b" d="M17.187,33.5a.6.6,0,0,1-.587-.587V26.887a.587.587,0,1,1,1.174,0v6.028A.587.587,0,0,1,17.187,33.5Z" transform="translate(-3.605 -5.712)"/><path class="b" d="M17.187,22.975a.6.6,0,0,1-.587-.587v-1.8a.587.587,0,0,1,1.174,0v1.8A.587.587,0,0,1,17.187,22.975Z" transform="translate(-3.605 -4.344)"/><path class="c" d="M77.888,53.074H74.757a.587.587,0,1,1,0-1.174h3.131a.587.587,0,0,1,0,1.174Z" transform="translate(-16.109 -11.272)"/><path class="c" d="M76.757,54.205a.6.6,0,0,1-.587-.587V50.487a.587.587,0,1,1,1.174,0v3.131A.587.587,0,0,1,76.757,54.205Z" transform="translate(-16.544 -10.838)"/><ellipse class="c" cx="0.587" cy="0.587" rx="0.587" ry="0.587" transform="translate(59.626 35.931)"/><ellipse class="c" cx="0.587" cy="0.587" rx="0.587" ry="0.587" transform="translate(59.626 33.582)"/><ellipse class="c" cx="0.587" cy="0.587" rx="0.587" ry="0.587" transform="translate(59.626 30.451)"/><ellipse class="c" cx="0.587" cy="0.587" rx="0.587" ry="0.587" transform="translate(59.626 25.754)"/><path class="c" d="M3.718,22.324H.587a.587.587,0,0,1,0-1.174H3.718a.587.587,0,0,1,0,1.174Z" transform="translate(0 -4.594)"/><path class="c" d="M2.587,23.455A.6.6,0,0,1,2,22.868V19.737a.587.587,0,1,1,1.174,0v3.131A.6.6,0,0,1,2.587,23.455Z" transform="translate(-0.434 -4.159)"/><ellipse class="c" cx="0.587" cy="0.587" rx="0.587" ry="0.587" transform="translate(1.566 21.253)"/><ellipse class="c" cx="0.587" cy="0.587" rx="0.587" ry="0.587" transform="translate(1.566 24.384)"/><ellipse class="c" cx="0.587" cy="0.587" rx="0.587" ry="0.587" transform="translate(1.566 28.298)"/><ellipse class="c" cx="0.587" cy="0.587" rx="0.587" ry="0.587" transform="translate(1.566 34.561)"/></g></g></svg>