<svg xmlns="http://www.w3.org/2000/svg" width="508.148" height="418" viewBox="0 0 508.148 418"><defs><style>.a{fill:#e6f5ff;}.b{fill:#438cb4;}.c{fill:#829dff;}.d{fill:#9ce2ff;}.e{fill:#b7eaff;}.f{fill:#fff;}.g{fill:#0062a6;}.h{fill:#111159;}.i{fill:#0072bf;}.j{fill:#eef9ff;}.k{fill:#00ebc7;}.l{fill:#c9eaff;}.m{fill:#edf8ff;}.n{fill:#e88428;}.o{fill:#f18419;}.p{fill:#fdae2a;}.q{fill:#b5e8fd;}.r{fill:#fdcc7d;}.s{fill:#91d4f0;}.t{fill:#d49c6b;}.u{fill:#ffb02a;}.v{fill:#793913;}.w{fill:#ff7cae;}.x{fill:#999;}.y{fill:#f06691;}.z{fill:#7b7b7b;}.aa{fill:#ed9823;}.ab{fill:#491b02;}.ac{fill:#b57b45;}.ad{fill:#365e7e;}</style></defs><g transform="translate(0 -0.002)"><g transform="translate(0 0.002)"><path class="a" d="M286.777,32.3c4.784,21.071-25.672,112.554,4.039,88.57,37.259-30.042,102.242-32,82.429,11.09-14.384,31.283-85.144,49.954-85.773,60.878s96-6.124,100.7,19.217c7.664,41.148-69.866,55.2-95.87,60.862-25.325,5.5-34.461,62.236-40.486,75.676-.662,1.473-53.546-14.781-53.546-14.781-1.655-.463-3.31-.811-2.45-2.731,7.6-15.84,34.759-70.065,13.887-82.1-25.639-14.781-82.264-58.892-68.724-85.442,10.693-20.955,62.269,8.988,83.555,22.544,1.655,1.059,3.608-1.539,2.466-3.31-.877-1.357-1.821-2.9-2.847-4.6-5.975-9.931-67.4-67.284-70.181-88.752s21.65-42.406,43.035-15.873a276.421,276.421,0,0,0,35.918,36.6c2.3,1.953,9.8,6.422,8.59,3.31C230.433,85.511,224.16,7.733,248.144,3.4,278.252-2.032,282.821,15,286.777,32.3Z" transform="translate(91.024 1.55)"/><path class="b" d="M203.62,116.28s22.61-55.631,31.813-49.557C247.284,74.553,203.62,116.28,203.62,116.28Z" transform="translate(133.413 43.411)"/><path class="b" d="M194.85,121.435s45.336-38.7,50.649-34.594,3.724,27.791-17.942,30.588S194.85,121.435,194.85,121.435Z" transform="translate(127.667 56.696)"/><path class="b" d="M198.013,129.961s-8.971-62.12,4.717-62.5S198.013,129.961,198.013,129.961Z" transform="translate(127.848 44.197)"/><path class="b" d="M195.359,148.208s-29.479-69.519-12.364-74S195.359,148.208,195.359,148.208Z" transform="translate(116.399 48.494)"/><path class="b" d="M186.48,129.192s60.531-34.163,64.272-10.875S186.48,129.192,186.48,129.192Z" transform="translate(122.183 72.194)"/><path class="b" d="M178.31,146.889s48-32.161,58.594-19.068S178.31,146.889,178.31,146.889Z" transform="translate(116.83 81.693)"/><path class="b" d="M192.411,157.772s-8.938-74.666-24.166-65.728S192.411,157.772,192.411,157.772Z" transform="translate(107.942 59.818)"/><path class="b" d="M188.642,169.01S178.165,103.2,159.51,114.19,188.642,169.01,188.642,169.01Z" transform="translate(101.681 74.004)"/><path class="b" d="M172,178.723s35.719-54.258,54.307-35.008S172,178.723,172,178.723Z" transform="translate(112.695 91.453)"/><path class="b" d="M188.609,178.086s-19.862-57.932-36.911-46.793S188.609,178.086,188.609,178.086Z" transform="translate(97.212 85.089)"/><path class="b" d="M171.746,208.156a119.309,119.309,0,0,1,1.738-11.9c3.062-15.542,9.269-32.277,18.439-49.756a298.532,298.532,0,0,1,34.842-51.775l3.492-2.185a380.7,380.7,0,0,0-36.216,55.135c-14.2,27.063-28.321,66.407-14.9,100.206l-2.268.894a86.915,86.915,0,0,1-5.131-40.619Z" transform="translate(112.172 60.63)"/><path class="c" d="M156.781,256.868c-10.759-24.994,44.028-64.8,32.144-88.918-5.942-12.05-23.372-9.766-25.474-21.683s14.5-16.353,19.482-35.074S173.78,86.829,172.34,58.144c-1.407-27.758,10.908-42.075,3.31-49.358-6.472-6.273-22.891-2.83-34.561,4.966C104.477,38.414,119.9,103.132,90.441,114.586c-12.513,4.966-19.4-5.131-27.625.943C41,131.668,78.457,210.737,61.342,221.2c-8.276,5.065-19.664-11.586-28.834-7.018-17.049,8.64-18.042,87.031,28.023,121.873,3.31,2.483,29.38,21.518,64.09,15.609,44.078-7.581,79.665-51.709,72.4-71.323C191.524,265.359,163.849,273.3,156.781,256.868Z" transform="translate(14.235 3.626)"/><path class="d" d="M154.721,81.052l-.861-1.043h0c1.126-.943,2.615-2.1,4.155-3.31l.828,1.092c-1.539,1.159-3,2.3-4.121,3.31Zm8.408-6.422-.795-1.092c1.423-1.026,2.88-2.052,4.337-3.062l.778,1.126C165.993,72.594,164.536,73.62,163.129,74.63Zm157.41-5.214V68.058c1.738,0,3.509,0,5.247-.132v1.341C324.1,69.366,322.31,69.4,320.539,69.416Zm-5.313-.116c-1.755,0-3.542-.2-5.3-.364l.116-1.357c1.738.166,3.509.281,5.247.364Zm15.94-.414-.132-1.341c1.655-.166,3.492-.381,5.214-.612l.2,1.341c-1.755.248-3.592.447-5.247.612Zm-159.33-.232-.745-1.142c1.49-.977,3-1.937,4.486-2.847l.712,1.142c-1.473.927-2.979,1.87-4.452,2.847Zm132.88-.331c-1.655-.232-3.509-.53-5.247-.844l.248-1.341c1.655.331,3.476.612,5.2.844Zm37.06-.91-.248-1.324c1.655-.331,3.443-.679,5.148-1.076l.3,1.324c-1.8.4-3.559.761-5.28,1.076Zm-47.5-1.026c-1.655-.4-3.443-.844-5.148-1.308l.364-1.308c1.655.463,3.393.91,5.082,1.291ZM352.2,65.029l-.364-1.308c1.655-.447,3.31-.96,5.048-1.49l.414,1.291c-1.854.5-3.559,1.043-5.247,1.506Zm-68.112-1.49c-1.655-.546-3.31-1.142-4.966-1.755l.463-1.275c1.655.612,3.31,1.192,4.966,1.655Zm-103.136-.463-.7-1.159c1.539-.91,3.1-1.788,4.618-2.632l.662,1.175c-1.655.844-3.211,1.721-4.734,2.615Zm181.377-1.241-.463-1.275c1.655-.6,3.31-1.225,4.966-1.87l.513,1.258c-1.854.662-3.526,1.291-5.164,1.887Zm-88.206-2c-1.655-.662-3.31-1.39-4.866-2.135l.563-1.225c1.655.728,3.228,1.44,4.817,2.119Zm-83.936-1.854-.612-1.208c1.655-.811,3.195-1.655,4.75-2.35l.6,1.225c-1.7.745-3.294,1.523-4.883,2.334Zm182.073-.1-.546-1.241c1.655-.7,3.195-1.44,4.784-2.2l.6,1.225c-1.837.778-3.459,1.523-5.065,2.218Zm-107.936-2.5c-1.556-.778-3.145-1.655-4.7-2.466l.646-1.192c1.556.844,3.112,1.655,4.668,2.45ZM199.56,53.46l-.53-1.241c1.655-.712,3.31-1.39,4.966-2.019l.5,1.258C202.838,52.086,201.2,52.748,199.56,53.46Zm55.5-3.178a37.934,37.934,0,0,0-4.684-2.235l.5-1.274a38.463,38.463,0,0,1,4.817,2.35Zm-45.634-.612-.43-1.291c1.655-.579,3.41-1.109,5.081-1.572l.364,1.291c-1.672.463-3.36,1.026-5.048,1.572Zm10.113-2.847-.3-1.324c1.771-.4,3.542-.728,5.247-.977l.2,1.341c-1.7.248-3.443.579-5.181.96Zm25.887-.364a41.717,41.717,0,0,0-5.115-.96l.166-1.341a48,48,0,0,1,5.28.977Zm-15.542-1.192-.083-1.341c1.44-.116,2.88-.166,4.27-.166H235.2v1.357h-1.043c-1.49,0-2.88.05-4.3.149Z" transform="translate(100.81 28.669)"/><path class="e" d="M314.392,120.534a36.663,36.663,0,0,1-17.363,31.184,37.607,37.607,0,0,1-4.966,2.566,36.7,36.7,0,1,1,22.329-33.75Z" transform="translate(157.905 54.915)"/><path class="f" d="M259.044,94.7A18.489,18.489,0,0,0,274.7,128.069l-2.7-4.8a13.093,13.093,0,1,1,4.833-2.731l2.7,4.784a18.489,18.489,0,0,0-20.491-30.654Z" transform="translate(163.613 60.457)"/><path class="f" d="M281.441,133.116a37.6,37.6,0,0,1-4.966,2.566L264.79,114.975a16.817,16.817,0,0,0,4.833-2.715Z" transform="translate(173.492 73.551)"/><path class="f" d="M265.746,110.992a13.97,13.97,0,0,1-2.565,1.109l2.7,4.767a16.817,16.817,0,0,0,4.833-2.715l-2.7-4.784a12.514,12.514,0,0,1-2.268,1.622Z" transform="translate(172.437 71.657)"/><rect class="e" width="82.611" height="10.908" rx="3.29" transform="translate(35.603 27.275)"/><rect class="g" width="61.69" height="10.908" rx="3.29" transform="translate(88.984 50.762)"/><path class="e" d="M265.349,43.178c6.29-.48,7.862-1.109,14.615-1.258-3.923-5.826,2.83-22,23.57-15.559,2.417-9.931,11.471-13.821,25.126-13.043,14.284.828,20.823,11.9,20.823,24.365s-10.61,19.333-23.719,19.333c-6.373,0-47.289-.48-56.277-.48-13.407,0-27.327-2.036-27.327-6.124S251.992,44.171,265.349,43.178Z" transform="translate(158.665 8.66)"/><path class="a" d="M145.709,29.942c6.29-.463,7.862-1.092,14.615-1.258-3.939-5.81,2.814-21.981,23.554-15.542C186.311,3.21,195.348-.68,209.02.1c14.268.828,20.74,11.9,20.74,24.348s-10.626,19.333-23.719,19.333c-6.389,0-47.306-.48-56.277-.48-13.407,0-27.344-2.052-27.344-6.124S132.335,30.951,145.709,29.942Z" transform="translate(80.21 -0.002)"/><path class="d" d="M14.868,127.33l-1.208-.993s.7-.861,1.986-2.367L16.838,125C15.563,126.42,14.885,127.33,14.868,127.33Z" transform="translate(8.95 81.223)"/><path class="d" d="M18.465,183.215l-1.175-1.043c1.308-1.49,2.681-3.029,4.088-4.585l1.159,1.059C21.13,180.186,19.756,181.726,18.465,183.215Zm8.276-9.087-1.159-1.059c1.374-1.49,2.781-3,4.188-4.486l1.142,1.076C29.423,171.149,28.016,172.638,26.741,174.128Zm8.276-8.888-1.126-1.092,4.27-4.386,1.126,1.109C37.9,162.31,36.457,163.733,35.017,165.24Zm8.574-8.69L42.5,155.424c1.44-1.44,2.913-2.88,4.37-4.287l1.092,1.126Zm8.773-8.508L51.288,146.9l4.469-4.188,1.076,1.142c-1.457,1.374-2.946,2.781-4.436,4.188ZM204.643,142.3a31.975,31.975,0,0,1-3.426-.215l.2-1.655a22.544,22.544,0,0,0,5.876,0l.232,1.539a17.43,17.43,0,0,1-2.847.331Zm-9.517-1.39c-1.87-.48-3.857-1.092-5.926-1.8l.513-1.49c2.019.712,3.973,1.291,5.793,1.771Zm18.472-.348-.43-1.506c1.937-.546,3.89-1.175,5.76-1.854l.546,1.473A46.655,46.655,0,0,1,213.6,140.561Zm-152.279-.894-1.059-1.159c1.523-1.374,3.062-2.748,4.568-4.072l1.043,1.175c-1.457,1.39-3,2.764-4.5,4.121Zm122.1-2.83c-1.821-.761-3.708-1.655-5.611-2.516l.679-1.423c1.87.894,3.741,1.655,5.545,2.483Zm41.711-.48-.646-1.44c1.887-.861,3.691-1.771,5.379-2.731l.778,1.374a40.484,40.484,0,0,1-5.462,2.864Zm-154.6-4.684-1.026-1.192c1.556-1.341,3.128-2.665,4.684-3.956l.993,1.208C73.65,128.974,72.077,130.348,70.538,131.672Zm101.828,0c-1.788-.943-3.592-1.953-5.379-2.979l.794-1.357c1.771,1.026,3.559,2.019,5.313,2.963Zm63.56-1.324L235,129.073a37.171,37.171,0,0,0,4.552-3.873l1.109,1.109a37.541,37.541,0,0,1-4.734,3.972ZM161.74,125.5c-1.655-1.109-3.459-2.235-5.131-3.31l.894-1.49c1.655,1.142,3.31,2.268,5.081,3.31Zm-81.817-1.655-.993-1.225c1.655-1.291,3.211-2.566,4.8-3.807l.96,1.225c-1.572,1.258-3.178,2.532-4.767,3.824Zm164.627-2.549-1.357-.811a15.426,15.426,0,0,0,2.036-5.379l1.556.248a17.163,17.163,0,0,1-2.235,5.959Zm-92.94-2.847c-1.655-1.225-3.31-2.5-4.85-3.774l.993-1.225c1.539,1.258,3.161,2.516,4.8,3.741Zm-62.087-2.1-.943-1.258c1.655-1.241,3.31-2.466,4.966-3.641l.927,1.275C92.8,113.9,91.145,115.12,89.523,116.345Zm52.553-5.578c-1.556-1.39-3.079-2.814-4.486-4.2l1.092-1.126c1.407,1.39,2.9,2.781,4.436,4.155Zm102.788-1.274a17.578,17.578,0,0,0-2.582-5.346l1.291-.91a19.334,19.334,0,0,1,2.8,5.694Zm-145.476-.381-.894-1.291c1.655-1.175,3.393-2.35,5.065-3.459l.877,1.308C102.765,106.827,101.077,107.986,99.388,109.112Zm10.113-6.737-.844-1.324c1.655-1.109,3.492-2.2,5.214-3.228l.811,1.341C113.011,100.19,111.273,101.283,109.5,102.375Zm23.785-.348c-1.407-1.655-2.748-3.178-3.956-4.734l1.241-.96c1.192,1.523,2.5,3.1,3.89,4.635Zm105.056-2.284a45.087,45.087,0,0,0-4.651-3.79l.91-1.291a48.4,48.4,0,0,1,4.817,3.939ZM119.979,96.085l-.778-1.374c1.788-1.01,3.592-2.019,5.363-2.946l.745,1.374C123.554,94.082,121.75,95.076,119.979,96.085Zm108.7-3.426c-1.655-.977-3.426-1.953-5.313-2.913l.728-1.407c1.9.977,3.724,1.97,5.4,2.963Zm-102.871-.414a54.46,54.46,0,0,1-3.062-5.4l1.423-.7a51.31,51.31,0,0,0,2.946,5.247Zm4.966-1.87-.7-1.407c1.854-.91,3.724-1.8,5.545-2.615l.646,1.44c-1.837.811-3.691,1.672-5.528,2.582Zm87.147-3.31c-1.788-.795-3.658-1.655-5.595-2.367l.579-1.457c1.953.778,3.857,1.655,5.644,2.383Zm-76.057-1.655-.579-1.457c1.92-.778,3.857-1.506,5.744-2.168l.513,1.473c-1.887.646-3.807,1.374-5.71,2.135ZM206.6,82.628c-1.837-.662-3.774-1.341-5.744-2l.5-1.49c1.986.662,3.939,1.341,5.793,2.019ZM153.282,81.4l-.447-1.506c1.986-.6,3.989-1.142,5.926-1.655l.381,1.523c-1.92.463-3.89.993-5.859,1.589Zm-32.823-.3a29.794,29.794,0,0,1-1.159-6.141l1.556-.116a28.006,28.006,0,0,0,1.109,5.81Zm74.6-2.168a58.445,58.445,0,0,0-5.926-1.109l.215-1.556a61.424,61.424,0,0,1,6.075,1.142Zm-29.992-.381-.281-1.539c2.052-.381,4.088-.679,6.091-.894l.166,1.556c-1.953.166-3.973.463-5.975.828Zm18.058-1.291c-1.97-.1-4.006-.1-6.042,0V75.61h6.174Zm-61.938-8.276-1.539-.3a22.129,22.129,0,0,1,2.1-5.926l1.39.728a20.872,20.872,0,0,0-1.953,5.429Zm5.33-10.345L125.342,57.6a35.454,35.454,0,0,1,4.585-4.237l.96,1.241a33.237,33.237,0,0,0-4.37,3.972Zm9.368-7.465-.795-1.357a58.889,58.889,0,0,1,5.512-2.83l.646,1.44a55.864,55.864,0,0,0-5.363,2.748Zm10.957-4.966-.546-1.473c1.854-.679,3.824-1.341,5.843-1.953l.463,1.506c-2,.579-3.939,1.225-5.76,1.92Zm11.586-3.526-.381-1.539.993-.248,4.966-1.159.348,1.539c-1.655.364-3.31.761-4.966,1.159Zm11.884-2.7L170,38.451l6.008-1.175.3,1.539Zm12.017-2.284-.265-1.539c1.986-.348,4.022-.679,6.042-.993l.248,1.556Zm12.066-1.87-.232-1.556c1.986-.3,4.022-.563,6.075-.828l.2,1.556Zm225.522-.877-6.091-.53.132-1.572,6.091.53Zm-213.422-.7-.182-1.556,6.075-.679.166,1.556Zm201.24-.331-6.091-.48.116-1.556,6.108.463Zm-12.2-.96-6.091-.43.1-1.556,6.108.414Zm-176.925,0-.149-1.556,6.091-.563.132,1.655C222.651,32.591,220.6,32.79,218.613,32.972Zm164.726-.761-6.091-.364.083-1.572,6.108.364Zm-152.577-.281-.116-1.572,6.091-.43.1,1.556ZM371.14,31.5l-6.091-.314.083-1.655,6.108.314Zm-128.212-.4-.1-1.572,6.108-.348v1.572c-1.953.116-4.006.215-6.008.348Zm116.013-.2-6.124-.265V29.066l6.124.265ZM255.16,30.456V28.884l6.124-.248v1.572C259.182,30.274,257.129,30.373,255.16,30.456Zm91.616,0-6.108-.2V28.685l6.108.2Zm-12.166-.463-6.108-.149V28.271l6.124.166Zm-67.2,0V28.42l6.124-.166V29.91Zm54.9-.331H316.2V28.089l6.108.1Zm-42.771,0V28.089c2.019,0,4.088-.083,6.124-.1v1.572c-2.052.1-4.022.1-6.124.1Zm30.555-.149h-6.108V28.007H310.1Zm-18.323,0V28.007H297.9v1.572Z" transform="translate(11.329 18.336)"/><path class="h" d="M221.978,57.7v258.46a7.581,7.581,0,0,1-7.564,7.548H78.024a7.6,7.6,0,0,1-7.564-7.564l.166-237.555V57.6A7.581,7.581,0,0,1,78.19,50.05H214.48a7.564,7.564,0,0,1,7.5,7.647Z" transform="translate(46.166 32.79)"/><path class="i" d="M199.526,170.82,199.51,207l-48.315,37.49-27.228-.017L104.6,244.46Z" transform="translate(68.535 111.919)"/><path class="j" d="M211.681,68.184V301.4a8.077,8.077,0,0,1-7.564,8.475H82.492a8.077,8.077,0,0,1-7.548-8.491V215.315l.1-35.885V68.085a8.094,8.094,0,0,1,7.564-8.475H204.1a7.068,7.068,0,0,1,5.363,2.532,8.938,8.938,0,0,1,2.218,6.041Z" transform="translate(49.097 39.054)"/><path class="f" d="M151.322,59.66,75,118.866V67.158a7.6,7.6,0,0,1,7.564-7.548Z" transform="translate(49.14 39.054)"/><path class="f" d="M211.647,79.33l-.017,38.98L74.96,224.326l.017-38.964Z" transform="translate(49.114 51.975)"/><path class="j" d="M144.792,55.941c0,1.225-1.407,2.235-3.128,2.235H106.772c-1.655,0-3.128-1.01-3.112-2.251s1.407-2.235,3.112-2.235h34.892C143.385,53.69,144.792,54.7,144.792,55.941Z" transform="translate(67.919 35.175)"/><path class="j" d="M139.213,56.026a2.45,2.45,0,1,1-.717-1.749A2.466,2.466,0,0,1,139.213,56.026Z" transform="translate(87.981 35.09)"/><path class="j" d="M102.246,55.976a2.483,2.483,0,1,1-2.466-2.466A2.483,2.483,0,0,1,102.246,55.976Z" transform="translate(63.738 35.057)"/><rect class="k" width="110.038" height="110.038" rx="4.98" transform="matrix(0.003, -1, 1, 0.003, 138.68, 248.831)"/><path class="l" d="M164.9,108.322c-1.854,1.97-17.628,18.125-34.279,17.81-14.632-.3-32.657-16.751-34.13-18.207a9.534,9.534,0,0,1,8.475-5.164h51.311a9.5,9.5,0,0,1,8.624,5.562Z" transform="translate(63.221 67.326)"/><path class="m" d="M147.173,109.762v28.486a9.517,9.517,0,0,1-9.517,9.517h-.149c-.2-.447-10.18-21.054-12.6-25.887A69.038,69.038,0,0,0,146.659,106.7a9.435,9.435,0,0,1,.513,3.062Z" transform="translate(81.842 69.908)"/><path class="a" d="M143.944,122.389c2.417,4.833,12.4,25.441,12.6,25.887H105.377a9.5,9.5,0,0,1-9.517-9.517V110.273a9.385,9.385,0,0,1,.629-3.41,9.581,9.581,0,0,1,.414-.943c1.473,1.39,19.5,17.843,34.13,18.207,16.651.314,32.425-15.84,34.279-17.81a6.818,6.818,0,0,1,.381.96,69.039,69.039,0,0,1-21.749,15.112Z" transform="translate(62.808 69.397)"/><path class="i" d="M96.8,105.953a9.579,9.579,0,0,0-.414.943l-.381-.348.7-.679Z" transform="translate(62.906 69.364)"/><path class="i" d="M165.411,107.211a69.039,69.039,0,0,1-21.749,15.178l-.877.331a32.475,32.475,0,0,1-11.487,2.268h-.563a30.556,30.556,0,0,1-10.1-2.218l-.877-.348C108.638,117.9,98.392,108.8,96.29,106.863a9.578,9.578,0,0,1,.414-.943c1.473,1.39,19.5,17.843,34.13,18.207,16.651.314,32.425-15.84,34.279-17.81a6.816,6.816,0,0,1,.3.894Z" transform="translate(63.09 69.397)"/><path class="i" d="M116.918,116.143l-.182.265c-2.433,3.973-12.811,24.067-13.556,25.507H102.12c.861-1.655,11.106-21.518,13.738-25.854l.281-.43Z" transform="translate(66.91 75.759)"/><path class="i" d="M137.906,141.9h-1.043c-.2-.48-10.113-20.938-12.431-25.556l-.132-.265.828-.414a3.313,3.313,0,0,1,.182.348C127.726,120.841,137.707,141.448,137.906,141.9Z" transform="translate(81.442 75.778)"/><path class="n" d="M352.661,169.964,276.522,237.38a10.13,10.13,0,0,1-13.06,0l-79.7-67.35a3.84,3.84,0,0,1,1.357-6.621h0a11.765,11.765,0,0,1,1.887-.149H348.8a11.156,11.156,0,0,1,3.079.43H352a3.84,3.84,0,0,1,.662,6.273Z" transform="translate(119.503 106.966)"/><path class="o" d="M350.762,190.958a11.818,11.818,0,0,0-3.079-.414H184l78.192-66.506a10.1,10.1,0,0,1,13.06,0l75.477,66.738Z" transform="translate(120.558 79.698)"/><path class="p" d="M269.183,181.87v.215a.629.629,0,0,1-.646.646h-.4Z" transform="translate(175.687 119.159)"/><rect class="q" width="147.661" height="119.986" rx="7.15" transform="translate(313.513 228.151)"/><path class="p" d="M362.816,174.566v89.381A11.355,11.355,0,0,1,351.461,275.3h-161.8a11.355,11.355,0,0,1-11.355-11.355V174.566a11.355,11.355,0,0,1,8.806-11.073l.629-.132a3.84,3.84,0,0,0-1.357,6.621l79.7,67.268a10.13,10.13,0,0,0,13.06,0l47.9-42.39,1.043-.927,27.245-24.1a3.84,3.84,0,0,0-.679-6.224A11.322,11.322,0,0,1,362.816,174.566Z" transform="translate(116.83 107.032)"/><path class="r" d="M182.28,185.183v59.157a14.351,14.351,0,0,0,14.351,14.351H228.08a4.353,4.353,0,0,0,3.724-6.621L189.861,182.7a4.171,4.171,0,0,0-7.581,2.483Z" transform="translate(119.431 118.544)"/><rect class="s" width="94.247" height="12.331" transform="translate(340.377 234.341)"/><rect class="s" width="114.242" height="5.545" rx="0.65" transform="translate(330.627 258.64)"/><rect class="s" width="114.242" height="5.545" rx="0.65" transform="translate(330.627 271.236)"/><rect class="s" width="114.242" height="5.545" rx="0.65" transform="translate(330.627 283.832)"/><path class="s" d="M314.049,179.738v3.956l-1.043.927H201.826l-2.086-1.755v-3.128a.646.646,0,0,1,.662-.646H313.337a.629.629,0,0,1,.712.646Z" transform="translate(130.871 117.336)"/><path class="s" d="M300.844,186.7l-6.257,5.545H212.621L206.05,186.7Z" transform="translate(135.005 122.324)"/><path class="s" d="M280.689,194.31l-6.257,5.528H221.615l-6.555-5.528Z" transform="translate(140.909 127.31)"/><path class="s" d="M260.557,201.92l-6.257,5.528H230.631l-6.571-5.528Z" transform="translate(146.805 132.296)"/><path class="t" d="M194.558,231.923l-13.192,4.933L140.8,252.051l-3.956,1.473-1.092-14.169-.166-2-.943-12.182,3.774.43,41.993,4.734,13.821,1.556Z" transform="translate(88.217 147.53)"/><path class="u" d="M210.525,237.525,61.954,251.346,63.609,267.8l-13.242,1.225h0l-16.8,1.539a11.222,11.222,0,0,1-12.447-9.617l-.6-5.744-.232-2.268a10.908,10.908,0,0,1,10.246-11.7l16.784-1.539h.1l13.242-1.225,147.115-13.507a11.968,11.968,0,0,1,5.611.811,10.792,10.792,0,0,1,6.869,8.822l.2,2Z" transform="translate(13.276 147.358)"/><path class="v" d="M176.094,229.846,162.7,231.087l-.414-2.8Z" transform="translate(106.333 149.574)"/><path class="w" d="M48.6,246.734l-28.139,2.615-.232-2.268a10.908,10.908,0,0,1,10.246-11.7l16.784-1.539Z" transform="translate(13.236 153.211)"/><path class="x" d="M51.242,245.978l-13.324,1.241L36.61,234.325,49.918,233.1Z" transform="translate(23.987 152.726)"/><path class="y" d="M50.2,258.066l-16.8,1.539a11.222,11.222,0,0,1-12.447-9.617l-.6-5.744L48.5,241.63Z" transform="translate(13.34 158.315)"/><path class="z" d="M52.4,257.333l-13.308,1.225L37.4,242.121l13.324-1.241Z" transform="translate(24.505 157.823)"/><path class="aa" d="M199.229,247.6a13.143,13.143,0,0,1-6.124,2.168L47.115,263.171,45.46,246.718,194.031,232.9l9.931-.927.513,4.85a11.587,11.587,0,0,1-5.247,10.775Z" transform="translate(29.786 151.985)"/><path class="ab" d="M176.278,229.263,163.086,234.2l-.546-3.724,13.391-1.241Z" transform="translate(106.497 150.19)"/><path class="ac" d="M178.929,233.711,138.36,248.906a11.586,11.586,0,0,0,5.2-10.775l-.513-4.85,35.339-3.31Z" transform="translate(90.654 150.675)"/><rect class="s" width="55.698" height="7.101" rx="1.83" transform="translate(148.422 285.057)"/><rect class="e" width="55.698" height="7.101" rx="1.83" transform="translate(190.614 298.398)"/><rect class="e" width="85.707" height="7.117" rx="1.83" transform="translate(138.524 271.716)"/><rect class="b" width="85.707" height="7.117" rx="1.83" transform="translate(138.524 313.278)"/><path class="i" d="M279.949,49.47l-7.4,15.344L320.27,49.6Z" transform="translate(178.576 32.41)"/><path class="e" d="M272.74,42.37l47.405,11.884-40.321-.132Z" transform="translate(178.701 27.758)"/><path class="e" d="M277.27,56.75l39.907-7.2L282.054,72.855Z" transform="translate(181.669 32.463)"/><path class="ad" d="M280.363,53.9l-7.813,8.011,9.319-2.963Z" transform="translate(178.576 35.313)"/><path class="i" d="M11.16,134.347l6.19,23.4L54.824,97.32Z" transform="translate(7.312 63.762)"/><path class="e" d="M0,128.206,62.136,97.32,18.472,134.347Z" transform="translate(0 63.762)"/><path class="e" d="M15.53,141.895,51.961,97.32,35.525,154.872Z" transform="translate(10.175 63.762)"/><path class="ad" d="M15.943,124.25,14.9,140.107l7.316-11.8Z" transform="translate(9.763 81.407)"/></g></g></svg>