<svg xmlns="http://www.w3.org/2000/svg" width="20.645" height="20.629" viewBox="0 0 20.645 20.629"><defs><style>.a{fill:#fff;}</style></defs><g transform="translate(0 0)"><path class="a" d="M18.5,12.556a12.466,12.466,0,0,1-2.141-.441,2.414,2.414,0,0,0-2.424.6L12.61,14.033a15.232,15.232,0,0,1-6-6.018L7.931,6.7a2.424,2.424,0,0,0,.6-2.429,11.445,11.445,0,0,1-.441-2.121A2.419,2.419,0,0,0,5.68,0H2.424A2.424,2.424,0,0,0,0,2.434v.218A19.688,19.688,0,0,0,1.849,9.358,19.921,19.921,0,0,0,5.76,14.87a19.728,19.728,0,0,0,5.527,3.906,19.827,19.827,0,0,0,6.7,1.844A2.478,2.478,0,0,0,19.852,20a2.424,2.424,0,0,0,.793-1.789V14.965A2.419,2.419,0,0,0,18.5,12.556Z" transform="translate(0 0)"/></g></svg>