<svg xmlns="http://www.w3.org/2000/svg" width="53.117" height="57.788" viewBox="0 0 53.117 57.788"><defs><style>.a{fill:#00ebc7;}</style></defs><g transform="translate(0 0)"><path class="a" d="M21.064,12.463a6.262,6.262,0,1,1,6.3-6.219A6.276,6.276,0,0,1,21.064,12.463Zm0-10.455A4.279,4.279,0,1,0,24.145,3.23a4.279,4.279,0,0,0-3.081-1.222Z" transform="translate(6.293 0.06)"/><path class="a" d="M34.485,27.75H11.364a.984.984,0,0,1-.984-1V14.442a3.694,3.694,0,0,1,2.382-3.423l4.65-1.769a1,1,0,0,1,.713,1.854l-4.664,1.769a1.669,1.669,0,0,0-1.1,1.569V25.767H33.5V14.442a1.683,1.683,0,0,0-1.113-1.569L27.739,11.1a.984.984,0,0,1-.571-1.284.97.97,0,0,1,1.269-.571L33.1,11.019a3.694,3.694,0,0,1,2.411,3.423V26.752a1,1,0,0,1-1.027,1Z" transform="translate(4.425 4)"/><path class="a" d="M17.186,26.733h-.128a1,1,0,0,1-.856-1.113l1.74-13.607a1,1,0,0,1,1.968.314l-1.74,13.607a.984.984,0,0,1-.984.8Z" transform="translate(6.904 4.874)"/><path class="a" d="M22.229,26.905a.984.984,0,0,1-.984-.87L19.562,12.271a1,1,0,0,1,.87-1.1.97.97,0,0,1,1.1.856l1.683,13.764a.97.97,0,0,1-.856,1.1Z" transform="translate(8.337 4.845)"/><path class="a" d="M34.224,44.3H10.689a1,1,0,0,1-.827-.428.97.97,0,0,1-.1-.927l4.279-10.911a1,1,0,0,1,.927-.628H29.988a.97.97,0,0,1,.927.628l4.279,10.911a1.013,1.013,0,0,1-.1.927A1,1,0,0,1,34.224,44.3ZM12.13,42.322H32.783l-3.466-8.929H15.6Z" transform="translate(4.13 13.477)"/><path class="a" d="M47.412,44.584H5.705A5.705,5.705,0,0,1,0,38.879V10.922A5.705,5.705,0,0,1,5.705,5.217H18.129a1,1,0,1,1,0,2H5.705a3.766,3.766,0,0,0-3.723,3.708v27.9A3.78,3.78,0,0,0,5.706,42.6H47.412a3.78,3.78,0,0,0,3.78-3.78v-27.9a3.78,3.78,0,0,0-3.78-3.766H36.543a1,1,0,1,1,0-2H47.412a5.705,5.705,0,0,1,5.705,5.705V38.821a5.705,5.705,0,0,1-5.705,5.762Z" transform="translate(0 2.285)"/><path class="a" d="M45.094,37.97H4.814a.984.984,0,0,1-.984-1V9.728a1,1,0,0,1,.984-1H12.16a1,1,0,1,1,0,2H5.813v25.26H44.1V10.727H39.232a1,1,0,1,1,0-2h5.862a1,1,0,0,1,.984,1V36.971a.984.984,0,0,1-.984,1Z" transform="translate(1.633 3.807)"/><path class="a" d="M45.574,41.045H4.624a1,1,0,1,1,0-1.983h40.95a1,1,0,0,1,0,1.983Z" transform="translate(1.495 16.736)"/><path class="a" d="M38.93,22.795H9.034a1,1,0,1,1,0-1.983H38.987a1,1,0,0,1,0,1.983Z" transform="translate(3.375 8.955)"/></g></svg>