<svg xmlns="http://www.w3.org/2000/svg" width="19.736" height="17.431" viewBox="0 0 19.736 17.431"><defs><style>.a{fill:#fff;stroke:#fff;}</style></defs><g transform="translate(0.5 -1.992)"><path class="a" d="M1.4,10.97a.21.21,0,0,0,.031.038l7.363,7.823A.29.29,0,0,0,9,18.923H9a.288.288,0,0,0,.2-.081l8.04-7.774.054-.05a.149.149,0,0,0,.031-.037A5.01,5.01,0,1,0,9.368,5.027,5.01,5.01,0,1,0,1.4,10.97Zm3.613-7.9A4.423,4.423,0,0,1,9.1,5.8a.289.289,0,0,0,.534,0,4.432,4.432,0,1,1,7.25,4.813.245.245,0,0,0-.021.025L9.012,18.222,1.889,10.656a.267.267,0,0,0-.038-.048A4.43,4.43,0,0,1,5.011,3.071Z" transform="translate(0 0)"/></g></svg>