<svg xmlns="http://www.w3.org/2000/svg" xmlns:xlink="http://www.w3.org/1999/xlink" width="549.678" height="343.388" viewBox="0 0 549.678 343.388"><defs><style>.a{fill:#f4aa74;}.b{fill:#00ebc7;}.c{fill:#0f1b29;}.d{fill:url(#a);}.e{fill:url(#b);}.f{fill:#101b29;}.g{fill:#082947;}.h{fill:#e8512e;}.i{fill:#14b6c8;}.j{fill:url(#c);}.k{fill:url(#d);}.l{fill:#e85a32;}.m{fill:url(#e);}.n{fill:#fff;}.o{fill:url(#f);}.p{fill:#e1e1e1;}.q{fill:#f4f5f5;opacity:0.25;}.r{fill:#f3a974;}.s{fill:#e95c33;}.t{fill:#16b4c6;}.u{fill:#ffefda;}.v{fill:#18b1c3;}.w{fill:#0e888e;}.x{fill:#d7eeff;}.y{fill:#b23d22;}.z{fill:#072033;}.aa{fill:#e85c30;}.ab{fill:url(#g);}.ac{fill:#111159;}.ad{fill:#829dff;}.ae{fill:#c1c1c1;}.af,.an{fill:#adadad;}.af{opacity:0.11;}.ag{fill:url(#h);}.ah{fill:#efefef;}.ai{fill:url(#i);}.aj{fill:#f5f5f5;}.ak{fill:#bcbcbc;}.al{fill:#afafaf;}.am{fill:#2b2b7f;}.ao{fill:#d1d1d1;}.ap{fill:url(#j);}.aq{fill:#0f1c29;}.ar{fill:url(#k);}.as{fill:#ee9052;}.at{fill:url(#l);}.au{fill:url(#m);}.av{fill:url(#n);}.aw{fill:url(#o);}.ax{fill:url(#p);}.ay{fill:url(#q);}.az{fill:url(#r);}</style><linearGradient id="a" x1="703.098" y1="-75.687" x2="703.631" y2="-74.47" gradientUnits="objectBoundingBox"><stop offset="0" stop-color="#0f1e2d"/><stop offset="1" stop-color="#082947"/></linearGradient><linearGradient id="b" x1="1107.82" y1="-0.45" x2="1108.626" y2="0.671" xlink:href="#a"/><linearGradient id="c" x1="3444.589" y1="-0.052" x2="3443.169" y2="1.594" gradientUnits="objectBoundingBox"><stop offset="0" stop-color="#fff"/><stop offset="0.99" stop-color="#aeaeae"/></linearGradient><linearGradient id="d" x1="1973.61" y1="0.043" x2="1973.61" y2="2.331" gradientUnits="objectBoundingBox"><stop offset="0" stop-color="#fff"/><stop offset="1" stop-color="#aaa"/></linearGradient><linearGradient id="e" x1="0.499" y1="-0.104" x2="0.499" y2="1.318" gradientUnits="objectBoundingBox"><stop offset="0" stop-color="#a7a6a6"/><stop offset="0.5" stop-color="#bebebe"/><stop offset="0.99" stop-color="#d0d1d1"/></linearGradient><linearGradient id="f" x1="686.034" y1="-259.688" x2="686.034" y2="-253.118" xlink:href="#e"/><linearGradient id="g" x1="0.5" y1="1.023" x2="0.5" y2="-0.681" gradientUnits="objectBoundingBox"><stop offset="0" stop-color="#fff"/><stop offset="1" stop-color="#a8a8a8"/></linearGradient><linearGradient id="h" x1="0.5" y1="0.829" x2="0.5" y2="-0.876" xlink:href="#g"/><radialGradient id="i" cx="0.5" cy="0.5" r="0.5" gradientTransform="translate(0)" gradientUnits="objectBoundingBox"><stop offset="0.01" stop-color="#727272"/><stop offset="0.14" stop-color="#7c7c7c"/><stop offset="0.37" stop-color="#979797"/><stop offset="0.66" stop-color="#c3c3c3"/><stop offset="1" stop-color="#fff"/></radialGradient><linearGradient id="j" x1="30.235" y1="3.92" x2="30.655" y2="4.962" gradientUnits="objectBoundingBox"><stop offset="0" stop-color="#0c1e2e"/><stop offset="1" stop-color="#082947"/></linearGradient><linearGradient id="k" x1="184.193" y1="-137.499" x2="185.384" y2="-137.02" xlink:href="#j"/><linearGradient id="l" x1="616.282" y1="-302.003" x2="617.337" y2="-301.518" gradientUnits="objectBoundingBox"><stop offset="0" stop-color="#f16236"/><stop offset="1" stop-color="#bf3326"/></linearGradient><linearGradient id="m" x1="126.096" y1="-907.876" x2="127.072" y2="-907.63" xlink:href="#l"/><linearGradient id="n" x1="-974.901" y1="-21.522" x2="-975.44" y2="-22.661" xlink:href="#e"/><linearGradient id="o" x1="2220.425" y1="-390.844" x2="2220.425" y2="-384.322" xlink:href="#e"/><linearGradient id="p" x1="748.095" y1="0.041" x2="748.095" y2="2.322" xlink:href="#d"/><linearGradient id="q" x1="1114.981" y1="-187.729" x2="1114.981" y2="-185.6" xlink:href="#d"/><linearGradient id="r" x1="2385.488" y1="-521.754" x2="2385.488" y2="-519.802" xlink:href="#d"/></defs><g transform="translate(-0.034 0.039)"><g transform="translate(0.034 -0.039)"><g transform="translate(0 0)"><path class="a" d="M34.77,197.592a70.863,70.863,0,0,0,7.065.6c1.169-.065.948-1.688.831-2.689s-3.377-2.857-6.494-3.455C33.8,191.579,34.407,197.28,34.77,197.592Z" transform="translate(10.241 57.426)"/><path class="b" d="M22.289,199.16c4.247,1.611,19.352,4.364,19.352,4.364a7.793,7.793,0,0,0,1.948-3.793c1.195-4.26.4-6,.4-6s-9.481-3.974-16.092-6.013c-5.2-1.611-10.027.727-10.715,4.948C16.626,196.121,19.912,198.264,22.289,199.16Z" transform="translate(5.072 55.988)"/><path class="c" d="M35.513,263.46s-6.65-1.714-7.143-1.87-1.377-.481-1.481,1.3-.169,2.312-.169,2.312,7.715,0,8.546-.078S36.747,264.421,35.513,263.46Z" transform="translate(7.94 78.175)"/><path class="d" d="M33.3,215.024s-.39,22.391-.649,26.872-8.884,5.416-11.261-.39-5.52-13.858-5.546-19.755,1.4-10.39,5.663-13.884S33.4,208.985,33.3,215.024Z" transform="translate(4.689 61.801)"/><path class="e" d="M31.38,233.715c.195,5.494-.182,5.533-.156,12.183s.26,25.807.26,25.807a1.39,1.39,0,0,1-.974.507c-.844,0-.987-.468-.987-.468a38.184,38.184,0,0,0-1.623-7.793c-1.156-3.026-6.6-22.171-7.559-25.976s-.364-7,4.078-7.793S31.289,231.3,31.38,233.715Z" transform="translate(5.916 68.774)"/><path class="f" d="M15.1,262.918v-.455c-.221-1.208-.935-.948-1.416-.792l-.792.208-.792-.208c-.468-.156-1.182-.416-1.4.792a4.4,4.4,0,0,0,0,.455c-.1,1.727-.169,2.273-.169,2.273h4.845A11.6,11.6,0,0,1,15.1,262.918Z" transform="translate(3.103 78.197)"/><path class="g" d="M25.052,215.916S20.1,240.19,19.13,244.489s-9.442,3.805-10.806-2.182-4.429-18.066-.74-30.639C9.584,204.876,26.117,210.1,25.052,215.916Z" transform="translate(1.698 62.338)"/><path class="g" d="M19.242,234.21c-.494,6.728-4.858,37.665-4.858,37.665s-.13.273-.948.156-.909-.61-.909-.61a34.86,34.86,0,0,0-.753-7.39c-.792-3.065-3.013-17.352-3.546-21.248s-.61-11.832,3.78-12.079S19.294,233.418,19.242,234.21Z" transform="translate(2.339 68.98)"/><path class="h" d="M27.677,186.91c6.975,1.052,6.715,7.351,7.208,12.6,1.143,12.1,1.779,28.184,1.779,28.184s-3.818,1.883-14.975,1.117c-14.495-.987-15.69-5.2-15.69-5.2s3.442-19.846,6.494-29.522A11.248,11.248,0,0,1,23.04,186.52a27.472,27.472,0,0,1,4.637.39Z" transform="translate(1.749 55.783)"/><path class="g" d="M27.891,183.444c2.013-2.13,2.182-8.533-1.065-9.494-4.026-1.195-3.961,2.948-6.247,3.208-4.974.584-5.936,3.9-4.858,7.793.662,2.377,2.818,3.455,5.13,3.792,1.026.156.494-2.4,2.857-3.961a6.663,6.663,0,0,1,4.182-1.338Z" transform="translate(4.535 51.962)"/><path class="g" d="M26.968,188.015c.221,2.1,1.3,6.793-3.611,6.143a7.091,7.091,0,0,1-6.143-7.507c.857-1.481,3.091-.455,4.546-.247S26.786,186.235,26.968,188.015Z" transform="translate(5.095 55.587)"/><path class="a" d="M18.4,186.47h.857a26.639,26.639,0,0,1,4.637.675,10.391,10.391,0,0,1,1.468.429c.078,1.3,1.1,5.2-2.6,4.806S18.2,187.756,18.4,186.47Z" transform="translate(5.445 55.768)"/><path class="a" d="M18.861,189.1c.455-4.169,1.078-4.832,1.883-8.053,0-.117,4.728.078,5.624-2.429A24.6,24.6,0,0,1,27,184.231c-.091,2.455-.636,3.9-3.143,3.013.156,1.169,0,2.6.1,3.585a2.1,2.1,0,0,1-2.078,2.715C20.887,193.53,18.445,192.959,18.861,189.1Z" transform="translate(5.578 53.422)"/><path class="a" d="M18.477,181.588c-.273.61.247,1.442,1.169,1.844s1.883.234,2.156-.377-.247-1.455-1.169-1.857A1.652,1.652,0,0,0,18.477,181.588Z" transform="translate(5.455 54.13)"/><path class="a" d="M4.3,199.882a68.51,68.51,0,0,0-3.9,5.936c-.507,1.065,1.026,1.637,1.961,2s4.117-1.624,6.13-4.078C10.066,201.87,4.741,199.7,4.3,199.882Z" transform="translate(0.047 59.772)"/><path class="b" d="M17.756,188.263C13.47,191.38,1.43,205.225,1.43,205.225a7.936,7.936,0,0,0,2.455,3.546c3.182,3.078,5.091,3.2,5.091,3.2s3.533-2.6,7.52-6.273c1.948-1.766,2.74-3.624,3.65-9.26C20.717,192.925,19.821,186.769,17.756,188.263Z" transform="translate(0.384 56.235)"/><path class="i" d="M17.458,223.05a.779.779,0,0,0,.792,1.013H38.668a1.4,1.4,0,0,0,1.3-1.013l3.52-14.56a.779.779,0,0,0-.792-1H22.264a1.377,1.377,0,0,0-1.3,1Z" transform="translate(5.162 62.048)"/><path class="j" d="M17.458,223.05l3.533-14.56a1.377,1.377,0,0,1,1.3-1h.987a1.4,1.4,0,0,0-1.3,1l-3.52,14.56a.779.779,0,0,0,.792,1.013h-.987a.779.779,0,0,1-.805-1.013Z" transform="translate(5.162 62.048)"/><path class="g" d="M30.912,214.693c.377-1.662-.468-3.013-1.87-3.013a3.7,3.7,0,0,0-3.221,3.013c-.377,1.675.468,3.026,1.87,3.026a3.728,3.728,0,0,0,3.221-3.026Z" transform="translate(7.645 63.3)"/><path class="k" d="M27.055,214.693a3.961,3.961,0,0,1,2.6-2.922,1.857,1.857,0,0,0-.6-.091,3.7,3.7,0,0,0-3.234,3.013c-.377,1.675.468,3.026,1.87,3.026a2.091,2.091,0,0,0,.636-.091,2.351,2.351,0,0,1-1.273-2.935Z" transform="translate(7.645 63.3)"/><path class="a" d="M17.982,211.514c.623-.286,2.6-1,2.857-.494.533,1.182-.831.987-1.727,2.364-.584.883-3.312-.065-3.312-.065a5.961,5.961,0,0,1,2.182-1.805Z" transform="translate(4.677 63.051)"/><path class="a" d="M3.432,203.846c5.2,1.662,15.235,10.39,17.755,10.871,1.649.3,2.39-1.221,5.2.351,1.3.753.844,4.974-.662,5.2-3.481.623-4.909-.935-5.481-3.351-1.013-1.065-13.391-6.078-16.742-7.793-1.52-.753-3.7-2.052-3.442-3.234C.432,204.106,1.51,203.222,3.432,203.846Z" transform="translate(-0.034 60.9)"/><path class="a" d="M53.878,186.1c0-.571-.351-2.247-.727-2.182-1.091.208-1.3,2.6-1.117,3.767a.649.649,0,0,0,.857.636A3.208,3.208,0,0,0,53.878,186.1Z" transform="translate(15.486 55.005)"/><path class="a" d="M41.621,200.424c5.2-1.559,13.585-9.092,16.118-10.832,4.455,0,1.818-3.741,4.507-3.585,1.7.091,2.3-1.688-.195-1.831-1.572-.091-4.273-1.3-5.845,3.481-.714,1.3-11.066,5.793-14.456,7.39-1.533.727-3.741,1.961-3.507,3.156C38.621,200.113,39.686,201.009,41.621,200.424Z" transform="translate(11.378 55.022)"/><path class="l" d="M13.153,186.517a.312.312,0,0,1-.338-.286l-.675-8.884a.313.313,0,1,1,.623-.052l.675,8.884a.312.312,0,0,1-.286.338Z" transform="translate(3.583 52.941)"/><rect class="l" width="14.497" height="6.24" transform="translate(17.605 227.765) rotate(-30.174)"/><rect class="g" width="23.262" height="2.403" rx="0.8" transform="translate(13.718 229.959) rotate(-30.12)"/><path class="g" d="M13.98,184.464a.87.87,0,1,0-.753.935A.883.883,0,0,0,13.98,184.464Z" transform="translate(3.614 54.93)"/><path class="g" d="M123.041,35.019H112.118l-6.312-11.248a.883.883,0,0,0-.779-.442H89.116a.753.753,0,0,0-.364.091.844.844,0,0,0-.273,1.169l6.494,11.546h0l.1.143.1.091.117.078a.922.922,0,0,0,.455.13h27.275a.818.818,0,1,0,0-1.624Z" transform="translate(26.355 7.021)"/><path class="m" d="M88.745,23.423a.844.844,0,0,1,1.143.351L96.2,35.021h10.936a.818.818,0,1,1,0,1.623H95.784a1.078,1.078,0,0,1-.455-.13l-.13-.078a.3.3,0,0,0-.091-.091l-.1-.156v-.065h0L88.511,24.579a.844.844,0,0,1,.234-1.156Z" transform="translate(26.363 7.019)"/><path class="n" d="M95.07,33.589a.091.091,0,0,0,.091.078h.948a.091.091,0,0,0,.091-.078v-.961a.091.091,0,0,0-.091-.078h-.948a.091.091,0,0,0-.091.078Z" transform="translate(28.363 9.776)"/><path class="n" d="M97.633,32.94a.078.078,0,0,0,.078.078h1.3a.078.078,0,0,0,.078-.078v-.312A.091.091,0,0,0,99,32.55H97.7a.078.078,0,0,0-.078.078Z" transform="translate(29.125 9.776)"/><path class="n" d="M97.63,33.443a.078.078,0,0,0,.078.078h1.3a.078.078,0,0,0,.078-.078v-.312a.091.091,0,0,0-.078-.091h-1.3a.091.091,0,0,0-.078.091Z" transform="translate(29.128 9.923)"/><path class="n" d="M96.23,32.94a.078.078,0,0,0,.078.078h1.3a.091.091,0,0,0,.091-.078v-.312a.091.091,0,0,0-.091-.078h-1.3a.078.078,0,0,0-.078.078Z" transform="translate(28.71 9.776)"/><path class="n" d="M96.23,33.44a.078.078,0,0,0,.078.078h1.3a.091.091,0,0,0,.091-.078v-.312a.078.078,0,0,0-.091-.078h-1.3a.078.078,0,0,0-.078.078Z" transform="translate(28.71 9.925)"/><path class="o" d="M100.344,32.7h-.558v.727h.558Zm1.546,0h-.571v.727h.571Zm-.779,0h-.558v.727h.558Zm2.351,0h-.6v.727h.571Zm-.805,0H102.1v.727h.558Zm-3.546.39a.39.39,0,0,0,.39.364h.078V32.7H99.5a.377.377,0,0,0-.39.39Zm4.624-.364h0v.727h0a.377.377,0,0,0,.429-.364.364.364,0,0,0-.429-.39Z" transform="translate(29.57 9.82)"/><path class="p" d="M118.717,32.331h-15.9a.818.818,0,1,1,0,1.623h15.9a.818.818,0,1,0,0-1.623Z" transform="translate(30.679 9.709)"/><path class="q" d="M104.858,25.046a1.974,1.974,0,0,0-1.546-.9H91.337c-.558,0-.805.4-.52.9L95.4,33.2a1.935,1.935,0,0,0,1.533.9H108.91c.571,0,.805-.4.533-.9Z" transform="translate(27.057 7.266)"/><path class="r" d="M138.729,39.971s-23.768,4.961-28,6.13-3.377,9.611,2.6,10.7,17.508,2.6,26.379.156c5.572-1.52,9.338-5.429,8.806-9.858C147.925,41.75,144.483,38.633,138.729,39.971Z" transform="translate(32.253 11.901)"/><path class="f" d="M121.169,76.579a2.313,2.313,0,0,1,0-.455c.208-1.208.935-.948,1.4-.805l.792.221.792-.221c.468-.143,1.195-.4,1.4.805a3.816,3.816,0,0,1,0,.455c.1,1.727.169,2.26.169,2.26H121S121.065,78.306,121.169,76.579Z" transform="translate(36.111 22.518)"/><path class="r" d="M118.52,47.833c.494,6.741,4.858,37.665,4.858,37.665s.143.286.948.156.909-.6.909-.6a34.794,34.794,0,0,1,.753-7.39c.792-3.065,3.013-17.3,3.559-21.131s.61-11.845-3.793-12.092S118.468,47.054,118.52,47.833Z" transform="translate(35.37 13.326)"/><path class="f" d="M106.863,77.149s6.494-1.675,6.988-1.831,1.3-.455,1.455,1.3.169,2.273.169,2.273-7.559,0-8.364-.065S105.656,78.085,106.863,77.149Z" transform="translate(31.688 22.519)"/><path class="r" d="M108.206,49.3c.61,6.728.545,7.065,1.013,11.209.727,6.494,2.909,24.56,2.909,24.56s.1.429,1.026.636a1.039,1.039,0,0,0,.909-.3,37.12,37.12,0,0,1,.623-7.715c.74-3.091,3.364-18.482,3.9-22.326s-.208-10.715-4.611-10.884S107.946,46.664,108.206,49.3Z" transform="translate(32.28 13.339)"/><path class="g" d="M118.452,44.256c-3.9.857-8.014,1.649-9.26,2.689s-1.6,1.714-1.3,5.949.623,9.092.623,9.092.429,1.4,8.286,1.753,17.9,0,17.9,0l.533-4.273A14.066,14.066,0,0,0,146.558,57.4c3.792-2.689,3.052-10.39,2.6-13.637-.429-2.74-6.832-6.728-14.066-6.572S119.959,43.945,118.452,44.256Z" transform="translate(32.165 11.162)"/><path class="r" d="M126.964,19.684c-.507-1.727-.61-2.6-1.169-4.208a6.78,6.78,0,0,1-7.221-5.806,26.325,26.325,0,0,0,0,5.533c.338,2.39.546,3.234,3,2.766.221,1.688.156,1.948.338,3.169.3,2.026,1.3,2.6,2.312,2.6S128.081,23.333,126.964,19.684Z" transform="translate(35.343 2.94)"/><path class="g" d="M132.471,13.514c0-5.026-3.78-9.208-8-8.663-5.078.649-6.494,3.611-6.611,6.052,0,2.065,1.377,2.805,2.091,3.585.39.429,1.662,3.792,3.286,4.572C126.38,20.644,132.42,18.2,132.471,13.514Z" transform="translate(35.173 1.485)"/><path class="r" d="M121.467,11.532c.52.416.442,1.377-.169,2.143s-1.52,1.052-2.039.636-.442-1.364.169-2.13S120.948,11.129,121.467,11.532Z" transform="translate(35.488 3.442)"/><path class="g" d="M119.75,18.787s.961-2.169,4.585-2.39c2.831-.182,3.611-.143,3.663,1.39s-2.234,2.208-2.377,2.247-1.9,0-2.208,0a11.688,11.688,0,0,1-2.091-.636C121.192,19.32,119.75,18.787,119.75,18.787Z" transform="translate(35.738 4.927)"/><path class="r" d="M111.017,27.123c-.636-.675-1.377-1.3-1.857-1.039-.753.416.351,1.3.688,2.857.208,1.026,2.221,1.1,2.221,1.1a5.286,5.286,0,0,0-1.052-2.922Z" transform="translate(32.496 7.826)"/><path class="r" d="M130.857,36.116c-4.715-3.65-14.287-4.6-17.91-6.624-1.6-.883-3.9-3.78-5.351-2.6-.987.714-2.234,3.4-1.195,4.208.818.636,4.507,1.442,5.507.377,1.455.13,12,5.741,15.378,7.351,1.533.714,3.689,1.533,4.468.6C132.987,37.96,132.519,37.246,130.857,36.116Z" transform="translate(31.632 8.003)"/><path class="r" d="M130.036,33.284a39.029,39.029,0,0,1-2.9,4.767,2.792,2.792,0,0,1-3.416.143c-.7-.688-.221-4.338,1.156-7.117C125.932,28.946,130.01,32.817,130.036,33.284Z" transform="translate(36.829 9.146)"/><path class="s" d="M134.482,24.874a34.977,34.977,0,0,1-3.9,15.677,7.039,7.039,0,0,1-4.7-.727,6.754,6.754,0,0,1-2.974-2.455A73.835,73.835,0,0,0,125,24.03c0-1.624.481-6.65,3.026-6.65C131.105,17.367,134.43,19.185,134.482,24.874Z" transform="translate(36.682 5.243)"/><path class="r" d="M96.963,31.6c-.792-.494-1.675-.909-2.065-.533-.623.61.675,1.143,1.416,2.6.481.935,2.429.481,2.429.481A5.2,5.2,0,0,0,96.963,31.6Z" transform="translate(28.263 9.289)"/><path class="r" d="M118.423,35.31c-5.507-2.286-14.975-.74-19.014-1.688-3.143-.727-6.4-3.4-6.962-1.623-.766.935.766,3.9,1.987,4.455.948.39,4.078.39,4.494-.623,1.455-.26,13.092,2.4,16.78,3.052,1.662.3,3.9.52,4.455-.6C120.969,36.518,120.333,35.959,118.423,35.31Z" transform="translate(27.518 9.432)"/><path class="b" d="M117.026,24.849c-.442-3.494.688-5.871,6.325-6.988,1.675-.338,2.948-.39,4.546-.61,5.52-.792,8.079,1.948,10.39,7.585a255.391,255.391,0,0,1,8.754,24.145s-1.468,4.78-16.014,4.845c-12.3,0-15.027-3.572-15.027-3.572a80.4,80.4,0,0,0,1.026-25.4Z" transform="translate(34.617 5.165)"/><path class="r" d="M118.323,35.007a38.639,38.639,0,0,1-4.13,3.767,2.779,2.779,0,0,1-3.312-.831c-.481-.857,1.013-4.221,3.117-6.494C115.608,29.682,118.427,34.553,118.323,35.007Z" transform="translate(33.061 9.332)"/><path class="s" d="M125.788,28.018a35.068,35.068,0,0,1-8.143,13.962,7,7,0,0,1-4.3-2.026,6.676,6.676,0,0,1-2.156-3.2,73.926,73.926,0,0,0,5.741-12.209c.507-1.546,2.338-6.247,4.78-5.533C124.659,19.874,127.334,22.55,125.788,28.018Z" transform="translate(33.18 5.711)"/><path class="t" d="M130.562,13.1a3.2,3.2,0,0,0-.156-1.6c-.221-.39-3.1-.429-4.6,1.6a4.208,4.208,0,0,0-.74,4.312,4.922,4.922,0,0,0,3.546-1.026,4.6,4.6,0,0,0,1.948-3.286Z" transform="translate(37.238 3.423)"/><circle class="g" cx="3.676" cy="3.676" r="3.676" transform="translate(163.566 16.168)"/><rect class="g" width="157.505" height="51.017" transform="translate(341.762 292.371)"/><rect class="g" width="200.496" height="11.702" transform="translate(320.253 280.669)"/><rect class="u" width="58.29" height="13.91" transform="translate(118.199 327.101)"/><path class="v" d="M108.957,253.038h52.16a.74.74,0,0,0,.779-.805v-.286c0-.4-.325-.727-6.494-.727H61.356a7.676,7.676,0,0,0,0,15.352H155.35c6.169,0,6.494-.325,6.494-.727v-.3a.727.727,0,0,0-.727-.727h-52.16a5.923,5.923,0,0,1,0-11.819Z" transform="translate(15.996 75.115)"/><path class="w" d="M150.918,265.9v-.3a.727.727,0,0,0-.727-.727H97.979a5.923,5.923,0,0,1,0-11.819h52.16a.74.74,0,0,0,.779-.818v-.286a.727.727,0,0,0-.727-.727H98.1a7.676,7.676,0,1,0,0,15.352h52.043a.727.727,0,0,0,.779-.675Z" transform="translate(26.974 75.115)"/><rect class="x" width="95.462" height="13.871" transform="translate(82.183 297.8)"/><path class="l" d="M65.182,242.772a.909.909,0,0,1-.909-.9V231.109a.909.909,0,0,1,.909-.9H159.8a.9.9,0,0,0,.9-.9h0a.9.9,0,0,0-.9-.9H63.376a.9.9,0,0,0-.9.9V243.6a.9.9,0,0,0,.9.9H159.8a.9.9,0,0,0,.9-.9h0a.9.9,0,0,0-.9-.9Z" transform="translate(18.625 68.302)"/><path class="y" d="M151.513,239.665a2.26,2.26,0,0,0,.9-.091c0-.065-.4-.1-.9-.1H90.21v1.792h61.3c.494,0,.9,0,.9-.1a2.259,2.259,0,0,0-.9-.091h-.779v-1.4Z" transform="translate(26.911 71.604)"/><rect class="x" width="47.588" height="11.585" transform="translate(84.222 313.711)"/><path class="g" d="M64.194,240.75a.844.844,0,0,0-.844.831v.338a.844.844,0,0,0,.844.844h41.951a.831.831,0,0,1,.831.831v7.949a.844.844,0,0,1-.831.844H64.194a.844.844,0,0,0-.844.831v.338a.844.844,0,0,0,.844.844h108.32a.844.844,0,0,0,.844-.844V241.581a.844.844,0,0,0-.844-.831H64.194Z" transform="translate(18.885 71.986)"/><path class="z" d="M109.276,253.556V241.581a.844.844,0,0,0-.844-.831H64.194a.844.844,0,0,0-.844.831v.338a.844.844,0,0,0,.844.844h41.951a.831.831,0,0,1,.831.831v7.949a.844.844,0,0,1-.831.844H64.194a.844.844,0,0,0-.844.831v.338a.844.844,0,0,0,.844.844h44.289A.844.844,0,0,0,109.276,253.556Z" transform="translate(18.885 71.986)"/><path class="aa" d="M94.233,246.46H83.83v13.157l5.2-5,5.208,5Z" transform="translate(25.005 73.693)"/><path class="g" d="M247.717,267.281c1.818,4.169-.416,7.572-4.961,7.572H189.933a13.728,13.728,0,0,1-11.585-7.572l-15.7-36.016c-1.818-4.169.416-7.585,4.961-7.585h52.835a13.741,13.741,0,0,1,11.572,7.585Z" transform="translate(48.366 66.886)"/><rect class="g" width="94.605" height="7.481" rx="2.86" transform="translate(195.101 334.258)"/><path class="ab" d="M100.188,66.689v3.9h111.7v-3.9A11.689,11.689,0,0,0,200.2,55H88.46a11.689,11.689,0,0,1,11.728,11.689Z" transform="translate(26.388 16.484)"/><rect class="ac" width="311.128" height="214.029" rx="6.37" transform="translate(86.106 87.07)"/><path class="ad" d="M66.33,202.75v29.444a8.286,8.286,0,0,0,8.273,8.273H369.184a8.3,8.3,0,0,0,8.273-8.273V202.75Z" transform="translate(19.776 60.632)"/><path class="ae" d="M198.308,220.085a8.143,8.143,0,0,1-7.156-12.027,11.429,11.429,0,0,0-2.234-.208,12.248,12.248,0,1,0,12.248,12.235q0-.253,0-.507a8.247,8.247,0,0,1-2.857.507Z" transform="translate(52.745 62.156)"/><path class="af" d="M84.87,69.351v112.4a2.078,2.078,0,0,0,2.065,2.065H194.424a2.078,2.078,0,0,0,2.078-2.065V69.351A11.689,11.689,0,0,1,196.736,67H85.1a11.69,11.69,0,0,0-.234,2.351Z" transform="translate(25.315 20.07)"/><path class="ag" d="M91.339,55A11.689,11.689,0,0,0,79.65,66.689v112.4a2.065,2.065,0,0,0,2.065,2.065H189.2a2.065,2.065,0,0,0,2.065-2.065V66.689A11.689,11.689,0,0,1,202.958,55Z" transform="translate(23.756 16.484)"/><path class="b" d="M114.1,66.62l4.078,15.43c.195.688.377,1.416.533,2.169s.338,1.611.507,2.6c.221-1.143.416-2.091.571-2.844s.3-1.377.455-1.909l3.805-15.43h8.936L123.806,99.1h-8.2l-4-13.845c-.156-.494-.39-1.442-.74-2.87-.143-.623-.26-1.13-.351-1.481-.078.312-.182.753-.312,1.3q-.507,2.143-.779,3.039l-3.9,13.845h-8.26L88.18,66.62h8.858l3.728,15.508c.169.805.351,1.6.52,2.4s.325,1.611.468,2.455l.481-1.948c.156-.675.377-1.649.688-2.909L107,66.62Z" transform="translate(26.304 19.956)"/><g transform="translate(113.393 87.537)"><rect class="ah" width="35.899" height="6.611" rx="1.59" transform="translate(55.615)"/><rect class="ah" width="35.899" height="6.611" rx="1.59" transform="translate(55.615 13.365)"/><rect class="ah" width="35.899" height="6.611" rx="1.59" transform="translate(55.615 26.716)"/><rect class="ah" width="91.5" height="6.611" rx="1.59" transform="translate(0 40.068)"/><rect class="ah" width="91.5" height="6.611" rx="1.59" transform="translate(0 53.42)"/><rect class="ah" width="91.5" height="6.611" rx="1.59" transform="translate(0 66.784)"/><rect class="ah" width="91.5" height="6.611" rx="1.59" transform="translate(0 80.136)"/><rect class="ah" width="91.5" height="6.611" rx="1.59" transform="translate(0 93.488)"/></g><rect class="ad" width="131.984" height="37.211" rx="3.18" transform="translate(103.367 213.417)"/><circle class="ai" cx="17.781" cy="17.781" r="17.781" transform="translate(106.887 214.235)"/><circle class="g" cx="13.949" cy="13.949" r="13.949" transform="translate(110.718 218.067)"/><path class="aj" d="M102.615,182.482H92.926a2.779,2.779,0,0,0-2.766,2.766v7.585a13.949,13.949,0,0,0,15.222,0v-7.585a2.779,2.779,0,0,0-2.766-2.766Zm-4.871-.533a5.91,5.91,0,1,0-5.91-5.91A5.91,5.91,0,0,0,97.745,181.949Z" transform="translate(26.896 50.885)"/><g transform="translate(143.85 218.262)"><rect class="ak" width="76.214" height="5.507" rx="1.33"/><rect class="ak" width="47.822" height="5.507" rx="1.33" transform="translate(0 9.105)"/></g><path class="g" d="M118.322,181.38l1.688,3.416,3.767.545-2.727,2.65.649,3.754-3.377-1.766-3.364,1.766.649-3.754-2.727-2.65,3.767-.545Z" transform="translate(33.685 54.247)"/><path class="g" d="M132.032,181.38l1.688,3.416,3.767.545-2.727,2.65.649,3.754-3.377-1.766-3.364,1.766.649-3.754-2.727-2.65,3.767-.545Z" transform="translate(37.781 54.247)"/><path class="g" d="M145.742,181.38l1.688,3.416,3.767.545-2.727,2.65.649,3.754-3.377-1.766-3.364,1.766.649-3.754-2.727-2.65,3.766-.545Z" transform="translate(41.878 54.247)"/><path class="al" d="M159.452,181.38l1.688,3.416,3.767.545-2.727,2.65.636,3.754-3.364-1.766-3.364,1.766.649-3.754-2.727-2.65,3.767-.545Z" transform="translate(45.975 54.247)"/><path class="al" d="M173.162,181.38l1.688,3.416,3.754.545-2.715,2.65.636,3.754-3.364-1.766-3.364,1.766.649-3.754-2.727-2.65,3.766-.545Z" transform="translate(50.071 54.247)"/><path class="am" d="M364.931,35.559a4.442,4.442,0,0,0-4.4-4.429H196.736a4.429,4.429,0,0,0-4.416,4.416V134.06a4.429,4.429,0,0,0,4.416,4.416H360.528a4.442,4.442,0,0,0,4.4-4.429Z" transform="translate(57.422 9.352)"/><path class="an" d="M248.48,56.26c0-1.429.974-1.948,2.156-1.143l31.236,21.17a1.649,1.649,0,0,1,0,2.922l-31.236,21.17c-1.182.805-2.156.286-2.156-1.143Z" transform="translate(74.202 16.406)"/><rect class="ad" width="131.984" height="37.211" rx="3.18" transform="translate(249.742 164.167)"/><g transform="translate(257.989 169.011)"><rect class="ak" width="108.45" height="5.507" rx="1.33"/><rect class="ak" width="80.058" height="5.507" rx="1.33" transform="translate(0 9.105)"/></g><path class="aj" d="M208.234,147.453l-1.753-1.753-2.494,2.494-2.494-2.494-1.753,1.753,2.494,2.494-2.494,2.494,1.753,1.753,2.494-2.494,2.494,2.494,1.753-1.753-2.494-2.494Z" transform="translate(59.639 43.586)"/><g transform="translate(271.133 191.299)"><rect class="ak" width="25.521" height="4.481" rx="1.33"/><rect class="ao" width="10.079" height="4.481" rx="1.33" transform="translate(28.262)"/></g><path class="g" d="M251.206,153.939l-4.026-4.026,1.753-1.753,2.273,2.273,4.585-4.572,1.753,1.753Z" transform="translate(73.814 43.633)"/><g transform="translate(333.761 191.299)"><rect class="ak" width="25.521" height="4.481" rx="1.33"/><rect class="ao" width="10.079" height="4.481" rx="1.33" transform="translate(28.262)"/></g><rect class="ad" width="131.984" height="37.211" rx="3.18" transform="translate(249.742 213.417)"/><g transform="translate(257.989 218.262)"><rect class="ak" width="108.45" height="5.507" rx="1.33"/><rect class="ak" width="80.058" height="5.507" rx="1.33" transform="translate(0 9.105)"/></g><path class="aj" d="M208.234,185.373l-1.753-1.753-2.494,2.494-2.494-2.494-1.753,1.753,2.494,2.494-2.494,2.494,1.753,1.753,2.494-2.494,2.494,2.494,1.753-1.753-2.494-2.494Z" transform="translate(59.639 54.916)"/><g transform="translate(271.133 240.549)"><rect class="ak" width="25.521" height="4.481" rx="1.33"/><rect class="ao" width="10.079" height="4.481" rx="1.33" transform="translate(28.262)"/></g><path class="g" d="M251.206,191.859l-4.026-4.026,1.753-1.753,2.273,2.273,4.585-4.572,1.753,1.753Z" transform="translate(73.814 54.964)"/><g transform="translate(333.761 240.549)"><rect class="ak" width="25.521" height="4.481" rx="1.33"/><rect class="ao" width="10.079" height="4.481" rx="1.33" transform="translate(28.262)"/></g><path class="ap" d="M395.053,199.146s21.781,5.2,26.106,6.494,3.351,9.832-2.818,10.9-14.728,2.39-20.5,1.13-9.845-3.611-12.326-8.52S389.2,197.717,395.053,199.146Z" transform="translate(114.981 59.495)"/><path class="aq" d="M423.253,234.54s-6.845.675-7.351.7-1.455,0-.948,1.714.636,2.234.636,2.234,7.247-2.6,7.988-3.013S424.733,234.995,423.253,234.54Z" transform="translate(123.901 70.131)"/><path class="ar" d="M417.609,207.265c.52,5.481.156,5.546.584,12.183s1.779,25.742,1.779,25.742a1.429,1.429,0,0,1-.948.571c-.831,0-1.013-.416-1.013-.416a37.967,37.967,0,0,0-2.078-7.637c-1.3-2.948-7.9-21.742-9.092-25.508s-.766-6.962,3.624-7.962S417.349,204.875,417.609,207.265Z" transform="translate(121.349 60.988)"/><path class="aq" d="M414.978,239.058s-6.871-.195-7.377-.234-1.455-.156-1.169,1.585.351,2.286.351,2.286,7.52-1.688,8.312-1.961S416.277,239.733,414.978,239.058Z" transform="translate(121.383 71.406)"/><path class="g" d="M413.143,211.168c-.182,5.494-.571,5.507-.987,12.144s-1.507,25.768-1.507,25.768a1.4,1.4,0,0,1-1.013.442c-.831-.078-.948-.546-.948-.546a38.112,38.112,0,0,0-1.091-7.793c-.948-3.091-5.065-22.573-5.767-26.457s.117-7,4.6-7.442S413.221,208.765,413.143,211.168Z" transform="translate(119.957 61.968)"/><path class="g" d="M391.067,203.838s21.768,5.312,26.08,6.494,3.325,9.858-2.857,10.9-14.741,2.338-20.5,1.052-18.183-7.793-13.066-22.573C382.52,194.564,385.209,202.4,391.067,203.838Z" transform="translate(113.357 59.206)"/><path class="as" d="M401.28,192.686s3.9,3.9,5.2,4.793c.961.675,1.779-.753,2.3-1.611s-.922-4.325-3.013-6.715C404.19,187.335,401.19,192.218,401.28,192.686Z" transform="translate(119.858 56.449)"/><path class="at" d="M392.961,184.413c2.377,3.9,12.624,15.3,12.624,15.3a7.975,7.975,0,0,0,3.9-1.818c3.559-2.6,4-4.494,4-4.494s-5.078-8.936-9.092-14.6c-3.143-4.494-8.364-5.572-11.494-2.6C390.35,178.542,391.636,182.244,392.961,184.413Z" transform="translate(116.917 52.201)"/><path class="b" d="M401.447,173.847c6.975,1.052,8.079,7.4,7.2,12.585-2.312,13.715,1.792,23.313,1.792,23.313s-3.312,6.052-14.988,5.987c-14.521-.065-16.806-2.766-16.806-2.766a105.489,105.489,0,0,1,8.26-33.119,9.949,9.949,0,0,1,9.884-6.4,27.7,27.7,0,0,1,4.663.4Z" transform="translate(113.094 51.87)"/><path class="g" d="M391.918,164.541c.9-1.481,2.663-.9,3.455-1.195s.857-2.117,3.156-1.818c1.468.195,1.649,1.818,2.416,2s2.338-1.3,4.182,0,1.52,5.2-1.169,6.351a14.286,14.286,0,0,1-4.754,1.792,5.193,5.193,0,0,0-.533.143l-2.247,2.026s-.987,2.844-2.026,1.675l-.117-.117-.182-.195c-1.39-1.3-2.805-1.559-3.156-3.455s.974-1.779,1.117-2.9S390.84,166.32,391.918,164.541Z" transform="translate(116.753 48.305)"/><path class="g" d="M400.48,174.974c.221,2.1,1.3,6.793-3.624,6.143a7.1,7.1,0,0,1-6.143-7.507c.857-1.481,3.091-.455,4.546-.234S400.286,173.2,400.48,174.974Z" transform="translate(116.697 51.691)"/><path class="a" d="M391.9,173.43h.857a27.935,27.935,0,0,1,4.637.675,11.07,11.07,0,0,1,1.481.429c.065,1.3,1.091,5.2-2.6,4.806S391.7,174.716,391.9,173.43Z" transform="translate(117.047 51.871)"/><path class="a" d="M392.575,175.784c.481-3.792,3.26-6.013,5.26-8.663,0-.117,4.325,1.922,6.13,0a24.328,24.328,0,0,1-1.611,5.416c-1.052,2.221-2.091,3.286-4.065,1.546-.13,1.117-1.026,2.208-.883,3.234a2.091,2.091,0,0,1-2.078,2.714C394.342,179.953,392.095,179.629,392.575,175.784Z" transform="translate(117.238 49.985)"/><path class="a" d="M394.606,167.334c-.494.468-.338,1.429.351,2.169s1.637.948,2.13.481.338-1.429-.338-2.156S395.113,166.88,394.606,167.334Z" transform="translate(117.779 49.979)"/><path class="a" d="M383.266,193.724s-1.117,5.351-1.156,6.988c0,1.182,2.6,1.416,3.585,1.377s2.143-3.468,2.987-6.494C389.357,193.231,383.617,193.386,383.266,193.724Z" transform="translate(114.131 57.878)"/><path class="au" d="M384.665,183.293c-1.935,4.1-4.845,16.313-4.845,16.313a7.962,7.962,0,0,0,3.637,2.247c4.143,1.533,5.948.883,5.948.883s4.7-9.092,7.26-15.586c2.026-5.091-.39-9.65-3.442-10.092C389.756,176.565,385.743,180.994,384.665,183.293Z" transform="translate(113.447 52.944)"/><path class="i" d="M395.79,206.273a.844.844,0,0,0,.87.818h2.078l9.273.078,15.91.143a.87.87,0,0,0,.442-.13l.13-.078a.3.3,0,0,0,.143-.1.571.571,0,0,0,.1-.143h0l6.585-11.481a.857.857,0,0,0-.26-1.182.766.766,0,0,0-.377-.091h0l-15.832-.143h-.065a.844.844,0,0,0-.779.442l-6.4,11.183H396.673A.857.857,0,0,0,395.79,206.273Z" transform="translate(118.218 58.005)"/><path class="av" d="M415.155,194.022a.857.857,0,0,0-1.143.351l-6.4,11.183-9.923-.078h-1.013a.857.857,0,0,0-.883.818.844.844,0,0,0,.87.818l11.351.091a.727.727,0,0,0,.442-.117l.13-.078.1-.091a.99.99,0,0,0,.1-.143v-.065h0l6.572-11.494a.844.844,0,0,0-.208-1.195Z" transform="translate(118.218 57.996)"/><path class="n" d="M404.47,204.139a.091.091,0,0,1-.091.078h-.948a.091.091,0,0,1-.091-.078v-.948a.091.091,0,0,1,.091-.091h.948a.078.078,0,0,1,.078.078Z" transform="translate(120.474 60.737)"/><path class="n" d="M402,203.47a.091.091,0,0,1-.091.078h-1.3a.078.078,0,0,1-.078-.078v-.312a.078.078,0,0,1,.078-.078h1.3a.091.091,0,0,1,.091.078Z" transform="translate(119.635 60.731)"/><path class="n" d="M401.985,203.97a.078.078,0,0,1-.078.078h-1.3a.078.078,0,0,1-.078-.078v-.312a.078.078,0,0,1,.091-.078h1.3a.081.081,0,0,1,.078.091Z" transform="translate(119.635 60.88)"/><path class="n" d="M403.4,203.48a.091.091,0,0,1-.091.078h-1.3a.078.078,0,0,1-.078-.078v-.312a.078.078,0,0,1,.078-.078h1.3a.078.078,0,0,1,.078.078Z" transform="translate(120.053 60.734)"/><path class="n" d="M403.388,203.98a.078.078,0,0,1-.078.078h-1.3a.091.091,0,0,1-.091-.078v-.312a.078.078,0,0,1,.078-.078h1.3s.091,0,.091.078Z" transform="translate(120.05 60.883)"/><path class="aw" d="M400.09,203.94h.571v-.727H400.1Zm-1.546,0h.571v-.727h-.61Zm.779,0h.558v-.727h-.572Zm-2.338,0h.558v-.727h-.558Zm.792,0h.558v-.727h-.571Zm3.156-.7h-.065v.727h.078a.364.364,0,0,0,0-.727Zm-4.624.325a.4.4,0,0,0,.39.377h.078v-.74h-.065a.39.39,0,0,0-.4.338Z" transform="translate(118.374 60.766)"/><path class="g" d="M417.317,199.984c.3-1.3-.364-2.364-1.455-2.364a2.922,2.922,0,0,0-2.507,2.364c-.286,1.3.364,2.351,1.468,2.351A2.883,2.883,0,0,0,417.317,199.984Z" transform="translate(123.447 59.099)"/><path class="ax" d="M414.33,199.984a3.078,3.078,0,0,1,2-2.286,1.766,1.766,0,0,0-.468-.078,2.922,2.922,0,0,0-2.507,2.364c-.286,1.3.364,2.351,1.468,2.351a1.7,1.7,0,0,0,.494-.078,1.805,1.805,0,0,1-.987-2.273Z" transform="translate(123.447 59.099)"/><path class="as" d="M418.563,182.361c.61-.325,2.4-1.494,2.13-1.974-.61-1.143-1.3,0-2.935,0-1.052-.078-1.948,2.663-1.948,2.663A6.052,6.052,0,0,0,418.563,182.361Z" transform="translate(124.2 53.798)"/><path class="as" d="M408.457,200.314c4.078-3.624,9.741-15.677,11.871-17.118,1.377-.922,1.857-.9,2.831-3.9.169-.571,2.338.338,2.429-.312.3-2.4-6.78-2.377-7.078,2.6-.494,1.377-9.806,10.949-12.209,13.832-1.078,1.3-2.6,3.364-1.844,4.351C405.6,201.289,406.95,201.652,408.457,200.314Z" transform="translate(120.748 53.067)"/><path class="a" d="M401.034,196.793c.688.078,2.831.143,2.883-.4.143-1.3-1.1-.688-2.377-1.714-.818-.675-3.13,1.052-3.13,1.052a5.987,5.987,0,0,0,2.624,1.065Z" transform="translate(119.001 58.173)"/><path class="a" d="M384.97,203.739c5.416-.636,16.962-7.26,19.482-7.221,1.662,0,2.039.338,4.559-1.6.481-.364,1.74,1.623,2.169,1.143,1.636-1.792-4.182-5.832-7.273-1.948-1.195.857-14.287,3.364-17.923,4.351-1.637.442-4.039,1.3-4.013,2.507C382.009,202.908,382.957,203.973,384.97,203.739Z" transform="translate(114.089 57.565)"/><path class="r" d="M332.627,169.885c.117.922.13,1.9-.377,2.091-.805.312-.753-1.091-1.766-2.351-.649-.831.571-2.416.571-2.416a5.2,5.2,0,0,1,1.572,2.676Z" transform="translate(98.648 50.013)"/><path class="r" d="M338.713,154.168c-.208,5.949-5.6,13.923-6.351,18-.338,1.792.429,5.416-1.442,5.767-1.182.3-4.039-.455-4-1.766,0-1.039,1.779-4.4,3.234-4.481.831-1.208,3.247-12.91,4.182-16.534.416-1.624,1.169-3.805,2.39-3.805C338.713,151.35,338.908,152.194,338.713,154.168Z" transform="translate(97.64 45.274)"/><rect class="s" width="17.144" height="23.703" rx="0.8" transform="translate(416.236 217.123) rotate(-67.48)"/><path class="ay" d="M343.624,161.826l-1.844-.766a1.039,1.039,0,0,1,.558,1.3l-5.78,13.923a1.039,1.039,0,0,1-1.3.558l1.844.766a1.039,1.039,0,0,0,1.3-.558l5.78-13.923A1.026,1.026,0,0,0,343.624,161.826Z" transform="translate(100.132 48.175)"/><path class="g" d="M335.081,166.458a3.117,3.117,0,1,0-1.686,1.7,3.117,3.117,0,0,0,1.686-1.7Z" transform="translate(98.285 48.504)"/><path class="az" d="M332.95,162.33c1.013.416,1.3,2.052.636,3.65s-2.013,2.6-3.026,2.13a3.13,3.13,0,0,0,2.39-5.78Z" transform="translate(98.728 48.555)"/><path class="r" d="M377.176,162.17c.935,0,1.909,0,2.065.533.26.831-1.143.675-2.468,1.585-.87.6-2.364-.727-2.364-.727A5.2,5.2,0,0,1,377.176,162.17Z" transform="translate(111.83 48.507)"/><path class="r" d="M361.789,157.2c5.923.623,13.495,6.559,17.521,7.6,1.753.468,5.416,0,5.637,1.844.221,1.195-.74,4-2.039,3.9-1.026-.117-4.26-2.091-4.247-3.546-1.143-.909-12.637-4.156-16.183-5.338-1.611-.52-3.728-1.429-3.637-2.6C358.97,157.045,359.8,156.863,361.789,157.2Z" transform="translate(107.177 46.982)"/><path class="f" d="M342.207,214.629a4.242,4.242,0,0,0-.065-.455c-.208-1.208-.922-.948-1.4-.805-.091,0-.377.117-.792.221-.416-.1-.7-.182-.792-.221-.468-.143-1.195-.4-1.4.805a2.427,2.427,0,0,0,0,.455c-.1,1.727-.182,2.26-.182,2.26h4.857A17.95,17.95,0,0,1,342.207,214.629Z" transform="translate(100.822 63.767)"/><path class="r" d="M351.112,170.181s-3.9,21.573-4.922,25.859-9.442,3.818-10.806-2.169-3.273-14.962-1.3-23.937c1.3-5.637,2.078-5.858,6.754-8.546S352.126,164.35,351.112,170.181Z" transform="translate(99.527 48.067)"/><path class="r" d="M346.329,185.9c-.494,6.741-4.857,37.665-4.857,37.665s-.13.273-.948.156-.909-.61-.909-.61a34.86,34.86,0,0,0-.74-7.468c-.792-3.065-3.013-17.287-3.546-21.132s-.623-11.832,3.78-12.079S346.381,185.122,346.329,185.9Z" transform="translate(100.076 54.557)"/><path class="f" d="M357.544,215.209s-6.494-1.688-7-1.831-1.3-.468-1.455,1.3-.169,2.26-.169,2.26,7.559,0,8.364-.065S358.739,216.131,357.544,215.209Z" transform="translate(104.214 63.772)"/><path class="r" d="M359.684,171.123s-1.7,19.118-2.312,23.469-7.988,7.468-9.845,1.623-5.4-16.884-4.948-22.625,2.2-10.04,6.624-13.1S360.1,167.1,359.684,171.123Z" transform="translate(102.307 47.827)"/><path class="r" d="M356.463,187.351c-.61,6.728-.546,7.065-1.013,11.209-.727,6.494-2.9,24.56-2.9,24.56s-.117.429-1.039.636a1.039,1.039,0,0,1-.909-.3,37.116,37.116,0,0,0-.623-7.715c-.74-3.078-3.351-18.482-3.832-22.313s.208-10.728,4.611-10.9S356.709,184.714,356.463,187.351Z" transform="translate(103.347 54.588)"/><path class="g" d="M333.514,170.291a168.141,168.141,0,0,0-.286,19.729c.3,4.948.286,6.052.286,6.052s1.662,2,12.274,2.143,15.092-2.961,15.092-2.961,1.533-19.274,1.662-23.158-5.273-12-16.547-12.2S333.916,166.525,333.514,170.291Z" transform="translate(99.476 47.828)"/><path class="r" d="M347.8,142.484c.494-1.727.61-2.663,1.169-4.208a6.806,6.806,0,0,0,7.221-5.806,26.323,26.323,0,0,1,0,5.533c-.338,2.377-.545,3.234-3,2.753-.221,1.7-.156,1.948-.338,3.182-.312,2.026-1.3,2.6-2.312,2.6S346.718,146.146,347.8,142.484Z" transform="translate(103.805 39.632)"/><path class="b" d="M362.81,147.459c-.286-3.507-.688-5.871-6.338-6.988-1.662-.338-2.948-.39-4.546-.61-5.507-.792-8.066,1.948-10.39,7.585a150.463,150.463,0,0,0-8.325,28.69s2.429,2.468,15.871,3.585c10.91.9,13.741-1.3,13.741-1.3S363.381,154.641,362.81,147.459Z" transform="translate(99.52 41.801)"/><path class="r" d="M356.191,157.616a38.641,38.641,0,0,0,4.13,3.767,2.792,2.792,0,0,0,3.312-.831c.481-.857-1.013-4.221-3.117-6.494C358.905,152.3,356.087,157.162,356.191,157.616Z" transform="translate(106.385 45.969)"/><path class="s" d="M350.455,150.628A35.067,35.067,0,0,0,358.6,164.59a7.091,7.091,0,0,0,4.3-2.026,6.676,6.676,0,0,0,2.156-3.2,73.92,73.92,0,0,1-5.741-12.209c-.507-1.546-2.338-6.247-4.793-5.533C351.585,142.484,348.9,145.16,350.455,150.628Z" transform="translate(104.536 42.347)"/><path class="r" d="M336.322,148.384a39.1,39.1,0,0,0-2.779,4.845,2.766,2.766,0,0,0,1.533,3.039c.948.3,3.9-1.9,5.676-4.442C342.1,149.878,336.75,148.176,336.322,148.384Z" transform="translate(99.603 44.382)"/><path class="s" d="M345.108,141.193a34.951,34.951,0,0,0-11.858,10.975,7.065,7.065,0,0,0,2.909,3.767,6.624,6.624,0,0,0,3.585,1.4,74.56,74.56,0,0,1,10.663-8.247c1.416-.831,5.6-3.637,4.377-5.871C353.3,140.53,350.121,138.491,345.108,141.193Z" transform="translate(99.532 41.858)"/><path class="g" d="M357.826,144.248c-.623-5.312,2.1-6.351,2.481-6.78.714-.779,2.039-1.766,1.688-3.585-.442-2.4-1.117-5.4-6.2-6.052-4.234-.546-7.988,3.65-11.092,11.585-1.39,3.559-7.936,1.559-12.988,8.715-3.1,4.4-2.948,12.845,5.2,17.859,4.52,2.779,20.469,5.2,22.833-8.949C360.293,153.482,358.02,145.871,357.826,144.248Z" transform="translate(98.516 38.232)"/><path class="r" d="M351.968,134.33c-.507.416-.442,1.377.169,2.143s1.533,1.052,2.052.636.442-1.377-.169-2.143A1.621,1.621,0,0,0,351.968,134.33Z" transform="translate(105.023 40.136)"/><path class="l" d="M387.522,173.573a.312.312,0,0,1-.312-.312v-8.91a.312.312,0,1,1,.623,0v8.91A.312.312,0,0,1,387.522,173.573Z" transform="translate(115.655 49.066)"/><rect class="l" width="14.573" height="6.273" transform="translate(504.327 212.771) rotate(-30.69)"/><rect class="g" width="23.262" height="2.403" rx="0.8" transform="translate(499.947 213.92) rotate(-30.69)"/><path class="g" d="M388.52,171.58a.87.87,0,1,0-.87.87.87.87,0,0,0,.87-.87Z" transform="translate(115.526 51.059)"/><path class="l" d="M341.07,136.658a.3.3,0,0,1-.3-.312v-8.91a.312.312,0,1,1,.61,0v8.91a.312.312,0,0,1-.312.312Z" transform="translate(101.777 38.016)"/><rect class="l" width="14.573" height="6.273" transform="translate(445.583 165.216) rotate(-2.96)"/><rect class="g" width="23.262" height="2.403" rx="0.8" transform="translate(441.173 164.178) rotate(-2.96)"/><path class="g" d="M342.02,134.65a.87.87,0,1,0-.87.87A.87.87,0,0,0,342.02,134.65Z" transform="translate(101.632 40.024)"/><path class="l" d="M130.37,11.148a.312.312,0,0,0,.312-.312V1.926a.312.312,0,1,0-.61,0v8.91a.3.3,0,0,0,.3.312Z" transform="translate(38.82 0.514)"/><rect class="l" width="6.273" height="14.573" transform="translate(151.553 7.747) rotate(-87.04)"/><rect class="g" width="2.403" height="23.262" rx="0.8" transform="translate(147.476 2.4) rotate(-87.04)"/><path class="g" d="M129.64,9.143A.87.87,0,1,1,130.5,10,.857.857,0,0,1,129.64,9.143Z" transform="translate(38.693 2.518)"/></g></g></g></svg>