<svg xmlns="http://www.w3.org/2000/svg" xmlns:xlink="http://www.w3.org/1999/xlink" width="562.601" height="349.27" viewBox="0 0 562.601 349.27"><defs><style>.a{fill:url(#a);}.b{fill:url(#b);}.c{fill:#002daa;}.d{fill:#ff5722;}.e{fill:url(#c);}.f{fill:url(#d);}.g{fill:#1942b2;}.h{fill:url(#e);}.i{fill:#2b2b7f;}.j{fill:#cfe1f8;}.k{fill:#fff;}.l{fill:#eef4fc;}.m{fill:#829dff;}.n{fill:#002280;}.ac,.n{opacity:0.3;}.o{fill:#00ebc7;}.p{fill:#d1e1fc;}.q{fill:#e1ebfd;}.r{fill:#111159;}.s{fill:#e3edfe;}.t{fill:#1067db;}.u{fill:url(#f);}.v{fill:#b3cdfa;}.w{fill:#ffbca7;}.x{fill:#bf411a;}.y{fill:#802c11;}.z{fill:#ff794e;}.aa{fill:#9fc2f1;}.ab{fill:#0c1630;}.ac{fill:#191c3c;}</style><linearGradient id="a" y1="0.5" x2="1.001" y2="0.5" gradientUnits="objectBoundingBox"><stop offset="0" stop-color="#f4f8ff"/><stop offset="0.29" stop-color="#f1f6ff"/><stop offset="0.52" stop-color="#e7effe"/><stop offset="0.73" stop-color="#d6e4fd"/><stop offset="0.92" stop-color="#bed5fb"/><stop offset="1" stop-color="#b3cdfa"/></linearGradient><linearGradient id="b" x1="0.5" y1="0.027" x2="0.502" y2="1.002" xlink:href="#a"/><linearGradient id="c" x1="0" y1="0.5" x2="1" y2="0.5" xlink:href="#a"/><linearGradient id="d" x1="0.499" y1="0.033" x2="0.503" y2="0.995" gradientUnits="objectBoundingBox"><stop offset="0.29" stop-color="#f4f8ff"/><stop offset="0.46" stop-color="#e1ecfe"/><stop offset="0.81" stop-color="#c0d5fb"/><stop offset="1" stop-color="#b3cdfa"/></linearGradient><linearGradient id="e" y1="0.5" x2="1" y2="0.5" gradientUnits="objectBoundingBox"><stop offset="0" stop-color="#e3edfe"/><stop offset="0.27" stop-color="#f1f6ff"/><stop offset="0.6" stop-color="#fcfdff"/><stop offset="1" stop-color="#fff"/></linearGradient><linearGradient id="f" x1="4.767" y1="1.063" x2="3.872" y2="-0.092" gradientUnits="objectBoundingBox"><stop offset="0" stop-color="#e9f1fe"/><stop offset="1" stop-color="#fff"/></linearGradient></defs><g transform="translate(-0.05 0)"><g transform="translate(0.05 0)"><path class="a" d="M29.614,170.89a15.264,15.264,0,0,0,0,30.529H93.263V170.89Z" transform="translate(12.109 145.298)"/><path class="b" d="M56.663,201.419a41.316,41.316,0,0,1,0-30.529h118.97a41.316,41.316,0,0,0,0,30.529Z" transform="translate(45.6 145.298)"/><path class="c" d="M176.894,202.391H56.517l-.148-.426a41.834,41.834,0,0,1,0-31.01l.148-.426H176.894l-.259.87a40.539,40.539,0,0,0,0,30.048ZM57.405,201H174.988a41.982,41.982,0,0,1,0-29.234H57.405a40.705,40.705,0,0,0,0,29.234Z" transform="translate(45.302 144.992)"/><rect class="d" width="139.545" height="3.256" transform="translate(86.407 314.56)"/><rect class="d" width="139.545" height="3.256" transform="translate(86.407 345.089)"/><path class="d" d="M101.412,203.8H30.363a16.893,16.893,0,1,1,0-33.785h71.049v3.256H30.363a13.636,13.636,0,1,0,0,27.273h71.049Z" transform="translate(11.361 144.55)"/><path class="e" d="M35.916,146.45a20.686,20.686,0,0,0,0,41.371h64.462V146.45Z" transform="translate(12.857 124.518)"/><path class="f" d="M52.158,187.83a55.822,55.822,0,0,1,0-41.39H152.7a56.062,56.062,0,0,0,0,41.39Z" transform="translate(40.873 124.51)"/><path class="c" d="M153.979,188.775H52.012l-.167-.407a56.58,56.58,0,0,1,0-41.871l.167-.407H153.96l-.352.888a55.285,55.285,0,0,0,0,40.909ZM52.9,187.48h99.154a56.636,56.636,0,0,1,0-40.076H52.9a55.322,55.322,0,0,0,0,40.076Z" transform="translate(40.575 124.212)"/><path class="c" d="M101.39,191.035H36.927a22.887,22.887,0,1,1,0-45.775H101.39v4.4H36.927a18.5,18.5,0,1,0,0,37H101.39Z" transform="translate(11.845 123.506)"/><rect class="g" width="90.643" height="4.404" transform="translate(109.313 268.766)"/><rect class="g" width="90.643" height="4.404" transform="translate(109.313 310.138)"/><path class="d" d="M53.055,173.992l-9.288-4.145-9.307,4.145V156.1H53.055Z" transform="translate(29.207 132.723)"/><path class="h" d="M421.1,71.16,159.268,72.714a8.511,8.511,0,0,0-8.086,6.938L118.84,277.665H395.691L428.126,79.708a5.976,5.976,0,0,0-2.794-6.05Z" transform="translate(100.95 60.503)"/><path class="c" d="M396.6,278.629H118.42l.13-.777,32.4-198.087a9.251,9.251,0,0,1,8.715-7.493L421.674,70.81l4.311,2.59a6.587,6.587,0,0,1,3.108,6.716Zm-276.648-1.314H395.494l32.268-197.4a5.236,5.236,0,0,0-2.5-5.384l-4-2.405L159.625,73.585a7.845,7.845,0,0,0-7.4,6.383Z" transform="translate(100.593 60.206)"/><path class="i" d="M393.78,275.956H116.91L149.271,77.869a8.474,8.474,0,0,1,8.067-6.938H420.331a5.754,5.754,0,0,1,5.736,6.938Z" transform="translate(99.309 60.307)"/><path class="i" d="M117.168,276.928h0a.648.648,0,0,1-.555-.74L148.882,78.064a9.251,9.251,0,0,1,8.715-7.493H420.589a6.476,6.476,0,0,1,5.051,2.239,6.642,6.642,0,0,1,1.406,5.551l-29.77,182.249a.648.648,0,0,1-.759.537.666.666,0,0,1-.537-.759l29.77-182.23a5.347,5.347,0,0,0-1.11-4.4,5.2,5.2,0,0,0-4.052-1.85H157.6a7.826,7.826,0,0,0-7.4,6.383L117.816,276.373a.666.666,0,0,1-.648.555Z" transform="translate(99.051 60.001)"/><path class="j" d="M123.95,259.617,153.794,76.98H408.258L378.432,259.617Z" transform="translate(105.295 65.452)"/><path class="k" d="M442.9,198.473H64.1a11.1,11.1,0,0,1-11.1-11.1h0a11.1,11.1,0,0,1,11.1-11.1H442.846a11.1,11.1,0,0,1,11.1,11.1h0a11.1,11.1,0,0,1-11.046,11.1Z" transform="translate(44.971 149.872)"/><path class="l" d="M442.935,187.333H64.135A11.1,11.1,0,0,1,53.7,180.08,11.048,11.048,0,0,0,64.061,195.1H442.806a11.048,11.048,0,0,0,10.361-15.024A11.1,11.1,0,0,1,442.935,187.333Z" transform="translate(44.937 153.112)"/><path class="j" d="M133.92,183.444H108.665A12.842,12.842,0,0,1,97.1,176.189l48.348,0A12.841,12.841,0,0,1,133.92,183.444Z" transform="translate(82.466 149.803)"/><path class="c" d="M443.456,199.5H64.657a11.842,11.842,0,1,1,0-23.665H443.4a11.842,11.842,0,0,1,0,23.665Zm-378.8-22.351a10.528,10.528,0,1,0,0,21.037H443.4a10.528,10.528,0,1,0,0-21.037Z" transform="translate(44.415 149.494)"/><path class="k" d="M359.578,198.473H162.1a11.1,11.1,0,0,1-11.1-11.1h0a11.1,11.1,0,0,1,11.1-11.1H359.578a11.1,11.1,0,0,1,11.1,11.1h0A11.1,11.1,0,0,1,359.578,198.473Z" transform="translate(128.294 149.872)"/><path class="c" d="M359.7,199.495H162.226a11.842,11.842,0,0,1,0-23.665H359.7a11.842,11.842,0,0,1,0,23.665ZM162.226,177.144a10.528,10.528,0,1,0,0,21.037H359.7a10.528,10.528,0,1,0,0-21.037Z" transform="translate(128.169 149.498)"/><rect class="c" width="17.374" height="5.051" transform="translate(461.857 334.635)"/><rect class="c" width="17.374" height="5.051" transform="translate(441.098 334.635)"/><path class="m" d="M154.9,55.3l-36.135.333a8.363,8.363,0,0,1-8.345-9.732l6.272-37.486A9.658,9.658,0,0,1,126.13.333L162.266,0a8.363,8.363,0,0,1,8.326,9.751l-6.254,37.486A9.658,9.658,0,0,1,154.9,55.3Z" transform="translate(93.697 0)"/><path class="k" d="M146.818,18.273c.389-.3.352-.833,0-.888l-8.437-1.147a.352.352,0,0,1-.167,0h0a.389.389,0,0,1-.148-.2l-1.092-4.663h0l-.814-3.238c-.093-.389-.648-.389-.944,0l-5.995,7.956a.777.777,0,0,1-.463.3l-9.1,1.369c-.444,0-.759.611-.518.907l3.182,4.089h0l1.536,1.98a.463.463,0,0,1,0,.463L121.21,31.28h0l-.111.259-1.018,2.368c-.148.333,0,.592.3.611a.7.7,0,0,0,.315,0l8.918-4.2a.5.5,0,0,1,.481,0l6.772,4c.333.2.87-.13.907-.555l.777-8.678a.647.647,0,0,1,.278-.463Z" transform="translate(101.133 6.668)"/><path class="k" d="M62.051,161.495,58.7,153.742H43.66l-3.33,7.753H31.8L47.305,125.6h7.753l15.505,35.895ZM51.209,136.276l-4.515,10.417h8.992Z" transform="translate(26.946 106.791)"/><path class="k" d="M70.709,161.5H55V125.609H68.969a20.353,20.353,0,0,1,6.383.74,9.066,9.066,0,0,1,3.978,2.368,9.251,9.251,0,0,1,2.424,6.272,7.4,7.4,0,0,1-2.72,6.254,12.02,12.02,0,0,1-1.3.907l-1.277.592a9.436,9.436,0,0,1,5.31,3,8.4,8.4,0,0,1,1.98,5.68,9.621,9.621,0,0,1-2.572,6.624Q78.128,161.5,70.709,161.5Zm-7.7-21.352h3.811a12.748,12.748,0,0,0,4.94-.722,3.016,3.016,0,0,0,1.628-3.108,3.219,3.219,0,0,0-1.5-3.164,11.655,11.655,0,0,0-5.033-.777H63.012Zm0,14.58h5.551a12.008,12.008,0,0,0,5.162-.851,3.367,3.367,0,0,0,1.721-3.33,3.219,3.219,0,0,0-1.85-3.293,15.412,15.412,0,0,0-5.828-.8H63.012Z" transform="translate(46.671 106.782)"/><path class="k" d="M91.565,154.754a11.823,11.823,0,0,0,9.658-4.663l5.144,5.273A19.372,19.372,0,0,1,78.3,157.011,17.688,17.688,0,0,1,72.933,143.8a17.892,17.892,0,0,1,5.551-13.34,18.5,18.5,0,0,1,13.377-5.329,18.984,18.984,0,0,1,14.8,6.716l-4.977,5.662a11.675,11.675,0,0,0-9.455-4.737,10.99,10.99,0,0,0-7.734,2.96,10.25,10.25,0,0,0-3.2,7.956,10.861,10.861,0,0,0,3.016,8.03A9.991,9.991,0,0,0,91.565,154.754Z" transform="translate(61.912 106.389)"/><path class="n" d="M144.584,70.57a17.744,17.744,0,0,0-6.013,1.092l-6.661,35.414h19.927a13.858,13.858,0,0,0,13.192-11.4l4.052-25.108Z" transform="translate(112.063 60.002)"/><path class="k" d="M137,278.487,170.3,65.709a13.248,13.248,0,0,1,12.619-10.916H359.029a9.1,9.1,0,0,1,9.251,10.916L335.753,278.487Z" transform="translate(116.391 46.582)"/><path class="o" d="M318.677,141.113H157.465a3.256,3.256,0,0,1-3.293-3.923L162.664,83a4.755,4.755,0,0,1,4.533-4H328.39a3.275,3.275,0,0,1,3.312,3.923l-8.493,54.194A4.755,4.755,0,0,1,318.677,141.113Z" transform="translate(130.932 67.169)"/><path class="p" d="M192.074,158.335H151.979a2.072,2.072,0,0,1-2.091-2.479l5.384-34.377a3.016,3.016,0,0,1,2.886-2.5h40.076a2.091,2.091,0,0,1,2.109,2.5l-5.384,34.377A3.034,3.034,0,0,1,192.074,158.335Z" transform="translate(127.315 101.162)"/><path class="p" d="M187.53,188.085H147.4a2.072,2.072,0,0,1-2.109-2.479l5.384-34.4a3.034,3.034,0,0,1,2.886-2.479h40.15a2.072,2.072,0,0,1,2.091,2.479l-5.384,34.4a3.016,3.016,0,0,1-2.886,2.479Z" transform="translate(123.404 126.456)"/><path class="q" d="M283.993,126.7H183.71a.278.278,0,0,1-.278-.333l.74-4.663a.389.389,0,0,1,.389-.333H284.826a.278.278,0,0,1,.278.333l-.722,4.663A.407.407,0,0,1,283.993,126.7Z" transform="translate(155.865 103.194)"/><path class="q" d="M283.1,133.257H182.832a.278.278,0,0,1-.278-.352l.722-4.663a.407.407,0,0,1,.389-.333H283.948a.278.278,0,0,1,.277.333l-.74,4.663a.407.407,0,0,1-.389.352Z" transform="translate(155.115 108.755)"/><path class="q" d="M239.648,139.8h-57.69a.3.3,0,0,1-.3-.333l.74-4.663a.407.407,0,0,1,.389-.352h57.764a.278.278,0,0,1,.278.352l-.722,4.663A.407.407,0,0,1,239.648,139.8Z" transform="translate(154.361 114.315)"/><path class="q" d="M279.376,156.979H179.13a.277.277,0,0,1-.277-.333l.722-4.663a.407.407,0,0,1,.389-.333H280.227a.3.3,0,0,1,.3.333l-.74,4.663a.389.389,0,0,1-.407.333Z" transform="translate(151.971 128.939)"/><path class="q" d="M278.512,163.519H178.247a.3.3,0,0,1-.3-.333l.74-4.663a.389.389,0,0,1,.389-.333H279.344a.278.278,0,0,1,.278.333l-.722,4.663a.407.407,0,0,1-.389.333Z" transform="translate(151.207 134.5)"/><path class="q" d="M235.115,170.077H177.35a.277.277,0,0,1-.278-.333l.722-4.663a.426.426,0,0,1,.389-.352h57.764a.315.315,0,0,1,.3.352l-.74,4.663a.389.389,0,0,1-.389.333Z" transform="translate(150.457 140.06)"/><path class="r" d="M351.027,89.508l3.7-24.349a9.1,9.1,0,0,0-9.251-10.916H169.37a13.248,13.248,0,0,0-12.619,10.916L152.94,89.508Z" transform="translate(129.944 46.115)"/><path class="s" d="M170.9,65.157a3.7,3.7,0,0,1-3.5,3.016,2.516,2.516,0,0,1-2.553-3.016,3.7,3.7,0,0,1,3.5-3.016,2.516,2.516,0,0,1,2.553,3.016Z" transform="translate(140.03 52.834)"/><path class="k" d="M177.993,65.157a3.7,3.7,0,0,1-3.5,3.016,2.516,2.516,0,0,1-2.553-3.016,3.7,3.7,0,0,1,3.5-3.016,2.516,2.516,0,0,1,2.553,3.016Z" transform="translate(146.058 52.834)"/><path class="s" d="M177.993,65.157a3.7,3.7,0,0,1-3.5,3.016,2.516,2.516,0,0,1-2.553-3.016,3.7,3.7,0,0,1,3.5-3.016,2.516,2.516,0,0,1,2.553,3.016Z" transform="translate(146.058 52.834)"/><path class="s" d="M185.092,65.157a3.7,3.7,0,0,1-3.5,3.016,2.516,2.516,0,0,1-2.572-3.016,3.7,3.7,0,0,1,3.5-3.016,2.516,2.516,0,0,1,2.572,3.016Z" transform="translate(152.078 52.833)"/><path class="k" d="M222.055,103.429,197.3,116.473a1.647,1.647,0,0,1-2.553-1.628l4.367-26a2.165,2.165,0,0,1,3.09-1.628l20.353,12.952a1.85,1.85,0,0,1-.555,3.256l-24.756,13.044a1.647,1.647,0,0,1-2.553-1.628l4.422-26a2.165,2.165,0,0,1,3.09-1.628l20.353,12.952a1.85,1.85,0,0,1-.5,3.256Z" transform="translate(165.423 73.973)"/><path class="k" d="M175.236,134.438l-14.8,7.827a.981.981,0,0,1-1.536-.981l2.627-15.653a1.3,1.3,0,0,1,1.85-.981l12.249,7.827a1.166,1.166,0,0,1-.333,1.961l-14.8,7.827a.981.981,0,0,1-1.536-.981l2.627-15.653a1.3,1.3,0,0,1,1.85-.981l12.249,7.827a1.166,1.166,0,0,1-.444,1.961Z" transform="translate(134.995 105.872)"/><path class="k" d="M170.662,164.714l-14.8,7.827a1,1,0,0,1-1.536-.981l2.627-15.653a1.314,1.314,0,0,1,1.85-.981l12.249,7.827a1.166,1.166,0,0,1-.333,1.961l-14.8,7.826a1,1,0,0,1-1.536-.981l2.627-15.653a1.314,1.314,0,0,1,1.85-.981l12.249,7.827a1.166,1.166,0,0,1-.444,1.961Z" transform="translate(131.112 131.621)"/><path class="n" d="M177.678,100.12H133.661l-7.031,42.019h45.645a5.31,5.31,0,0,0,5.218-4.4l5.384-31.454a5.273,5.273,0,0,0-5.2-6.161Z" transform="translate(107.574 85.126)"/><path class="m" d="M223.055,138.077H62.972a5.292,5.292,0,0,1-5.218-6.18l5.4-31.454a5.273,5.273,0,0,1,5.2-4.4H228.495a5.292,5.292,0,0,1,5.218,6.18l-5.384,31.454a5.292,5.292,0,0,1-5.273,4.4Z" transform="translate(48.949 81.657)"/><path class="k" d="M122.655,109.261H87.5a.555.555,0,0,1-.537-.648l.574-3.33a.537.537,0,0,1,.537-.463h35.155a.555.555,0,0,1,.555.648l-.574,3.33a.537.537,0,0,1-.555.463Z" transform="translate(73.841 89.123)"/><path class="k" d="M158.18,114.441H86.539a.555.555,0,0,1-.555-.648l.574-3.33a.537.537,0,0,1,.555-.463h71.6a.555.555,0,0,1,.537.648l-.555,3.33A.555.555,0,0,1,158.18,114.441Z" transform="translate(73.008 93.527)"/><path class="k" d="M141.192,114.441h-13.3a.555.555,0,0,1-.555-.648l.574-3.33a.537.537,0,0,1,.555-.463h13.3a.555.555,0,0,1,.555.648l-.574,3.33A.537.537,0,0,1,141.192,114.441Z" transform="translate(108.165 93.527)"/><path class="k" d="M93.641,131.75H64.925a4.182,4.182,0,0,1-4.126-4.9l4.274-24.96a4.2,4.2,0,0,1,4.145-3.5h28.7a4.2,4.2,0,0,1,4.145,4.829L97.767,128.2A4.182,4.182,0,0,1,93.641,131.75Z" transform="translate(51.548 83.656)"/><path class="t" d="M81.722,109.6a9.251,9.251,0,0,0-8.807-7.715A6.531,6.531,0,0,0,66.31,109.6a9.251,9.251,0,0,0,8.77,7.7,6.513,6.513,0,0,0,6.642-7.7Zm-6.994,4.977a5.958,5.958,0,0,1-5.7-4.977,4.237,4.237,0,0,1,4.274-5,5.939,5.939,0,0,1,5.68,5,4.219,4.219,0,0,1-4.256,4.977Z" transform="translate(56.195 86.622)"/><rect class="t" width="3.534" height="6.217" transform="matrix(0.651, -0.759, 0.759, 0.651, 136.442, 204.213)"/><path class="u" d="M201.714,72.992h-36.6a7.79,7.79,0,0,1-7.882-9.251l5.551-36.6a11.212,11.212,0,0,1,10.694-9.251h36.6a7.79,7.79,0,0,1,7.882,9.251l-5.551,36.6A11.212,11.212,0,0,1,201.714,72.992Z" transform="translate(133.476 15.21)"/><path class="v" d="M212.26,18.13a8.178,8.178,0,0,1,1.332,5.995l-5.551,36.6a11.194,11.194,0,0,1-10.713,9.251h-36.6a8.733,8.733,0,0,1-2.831-.5,7.808,7.808,0,0,0,6.531,3.275h36.6A11.212,11.212,0,0,0,211.723,63.5l5.551-36.6a7.734,7.734,0,0,0-5.014-8.77Z" transform="translate(134.161 15.415)"/><path class="w" d="M169.578,36.809h-5.551a1.147,1.147,0,0,1-1.147-1.369l.833-5.551a1.647,1.647,0,0,1,1.573-1.369h5.551A1.147,1.147,0,0,1,172,29.89l-.833,5.551a1.647,1.647,0,0,1-1.591,1.369Z" transform="translate(138.377 24.249)"/><path class="w" d="M176.666,36.809h-5.551a1.147,1.147,0,0,1-1.166-1.369l.851-5.551a1.647,1.647,0,0,1,1.573-1.369h5.551a1.147,1.147,0,0,1,1.166,1.369l-.851,5.551a1.647,1.647,0,0,1-1.573,1.369Z" transform="translate(144.388 24.249)"/><path class="w" d="M183.756,36.809h-5.551a1.147,1.147,0,0,1-1.166-1.369l.833-5.551a1.684,1.684,0,0,1,1.591-1.369h5.551a1.129,1.129,0,0,1,1.147,1.369l-.833,5.551a1.647,1.647,0,0,1-1.573,1.369Z" transform="translate(150.416 24.249)"/><path class="w" d="M168.736,42.341h-5.551a1.147,1.147,0,0,1-1.166-1.369l.851-5.551a1.647,1.647,0,0,1,1.573-1.351h5.551a1.147,1.147,0,0,1,1.166,1.351l-.851,5.551A1.647,1.647,0,0,1,168.736,42.341Z" transform="translate(137.645 28.968)"/><path class="w" d="M175.826,42.341h-5.551a1.147,1.147,0,0,1-1.166-1.369l.833-5.551a1.684,1.684,0,0,1,1.591-1.351h5.551a1.129,1.129,0,0,1,1.147,1.351l-.833,5.551a1.647,1.647,0,0,1-1.573,1.369Z" transform="translate(143.673 28.968)"/><path class="w" d="M182.908,42.341h-5.551a1.147,1.147,0,0,1-1.147-1.369l.833-5.551a1.647,1.647,0,0,1,1.573-1.351h5.551a1.147,1.147,0,0,1,1.147,1.351l-.833,5.551A1.647,1.647,0,0,1,182.908,42.341Z" transform="translate(149.71 28.968)"/><path class="w" d="M167.9,47.889h-5.551a1.147,1.147,0,0,1-1.166-1.369l.833-5.551a1.665,1.665,0,0,1,1.573-1.369h5.551a1.129,1.129,0,0,1,1.147,1.369l-.833,5.551a1.647,1.647,0,0,1-1.554,1.369Z" transform="translate(136.931 33.669)"/><path class="w" d="M174.978,47.889h-5.551a1.147,1.147,0,0,1-1.147-1.369l.833-5.551a1.647,1.647,0,0,1,1.573-1.369h5.551a1.147,1.147,0,0,1,1.147,1.369l-.833,5.551a1.647,1.647,0,0,1-1.573,1.369Z" transform="translate(142.968 33.67)"/><path class="w" d="M182.1,47.889h-5.551a1.147,1.147,0,0,1-1.166-1.369l.851-5.551A1.647,1.647,0,0,1,177.8,39.6h5.551a1.147,1.147,0,0,1,1.166,1.369l-.851,5.551a1.647,1.647,0,0,1-1.573,1.369Z" transform="translate(149.004 33.67)"/><path class="d" d="M209.151,17.851H170.166a9.751,9.751,0,0,0-9.251,8.086l-1.3,8.474h55.1l1.3-8.474a6.79,6.79,0,0,0-6.864-8.086Z" transform="translate(135.623 15.176)"/><path class="x" d="M170.99,23.991a5.051,5.051,0,0,1-4.829,4.182,3.516,3.516,0,0,1-3.571-4.182,5.07,5.07,0,0,1,4.848-4.2,3.515,3.515,0,0,1,3.552,4.2Z" transform="translate(138.094 16.826)"/><path class="y" d="M169.037,23.378a3.478,3.478,0,0,1-3.293,2.868,2.405,2.405,0,0,1-2.442-2.868,3.46,3.46,0,0,1,3.312-2.868,2.405,2.405,0,0,1,2.424,2.868Z" transform="translate(138.714 17.438)"/><path class="x" d="M184.74,23.991a5.051,5.051,0,0,1-4.829,4.182,3.515,3.515,0,0,1-3.571-4.182,5.051,5.051,0,0,1,4.848-4.2,3.515,3.515,0,0,1,3.552,4.2Z" transform="translate(149.784 16.826)"/><path class="y" d="M182.812,23.379a3.478,3.478,0,0,1-3.293,2.868,2.405,2.405,0,0,1-2.5-2.868,3.46,3.46,0,0,1,3.312-2.868,2.405,2.405,0,0,1,2.479,2.868Z" transform="translate(150.379 17.437)"/><path class="v" d="M179.3,30.792h0a1.85,1.85,0,0,1-1.85-2.239l1.147-7.6a9.547,9.547,0,0,1,7.993-7.919,6.42,6.42,0,0,1,7.216,7.567L193.6,22h-4.5l.185-1.221A2.7,2.7,0,0,0,187,17.507a3.7,3.7,0,0,0-3.9,3.09l-1.221,7.956A2.683,2.683,0,0,1,179.3,30.792Z" transform="translate(150.747 11.024)"/><path class="v" d="M165.549,30.793h0a1.85,1.85,0,0,1-1.85-2.239l1.166-7.6a9.492,9.492,0,0,1,7.993-7.919,6.4,6.4,0,0,1,7.2,7.567l-.2,1.406h-4.459l.185-1.221a2.7,2.7,0,0,0-2.294-3.275,3.7,3.7,0,0,0-3.9,3.09l-1.2,7.956a2.72,2.72,0,0,1-2.627,2.239Z" transform="translate(139.056 11.023)"/><path class="z" d="M188.244,17.852H184.21a6.772,6.772,0,0,1,6.864,8.086L189.8,34.411l3.7,1.85,1.573-10.343a6.79,6.79,0,0,0-6.827-8.067Z" transform="translate(156.531 15.175)"/><path class="r" d="M209.342,126.015H68.872a5.292,5.292,0,0,1-5.218-6.18L76.44,42.884a5.31,5.31,0,0,1,5.218-4.4h140.47a5.31,5.31,0,0,1,5.218,6.18l-12.8,76.97A5.273,5.273,0,0,1,209.342,126.015Z" transform="translate(53.966 32.718)"/><path class="aa" d="M127.643,51.691H92.489a.555.555,0,0,1-.555-.648l.574-3.33a.555.555,0,0,1,.555-.463h35.155a.555.555,0,0,1,.555.648l-.574,3.33a.555.555,0,0,1-.555.463Z" transform="translate(78.067 40.174)"/><path class="aa" d="M163.2,56.871h-71.7a.574.574,0,0,1-.555-.648l.574-3.33a.555.555,0,0,1,.555-.463h71.6a.555.555,0,0,1,.555.648l-.574,3.33a.537.537,0,0,1-.463.463Z" transform="translate(77.235 44.578)"/><path class="w" d="M146.172,56.871h-13.3a.555.555,0,0,1-.555-.648l.574-3.33a.537.537,0,0,1,.537-.463h13.322a.555.555,0,0,1,.555.648l-.574,3.33a.555.555,0,0,1-.555.463Z" transform="translate(112.4 44.578)"/><path class="i" d="M147.569,95.517H73.023a4.2,4.2,0,0,1-4.126-4.9L73.171,65.6a4.2,4.2,0,0,1,4.145-3.478h74.528a4.182,4.182,0,0,1,4.145,4.9L151.7,91.983a4.182,4.182,0,0,1-4.126,3.534Z" transform="translate(58.437 52.817)"/><ellipse class="k" cx="13.007" cy="10.343" rx="13.007" ry="10.343" transform="matrix(0.746, -0.665, 0.665, 0.746, 132.276, 92.77)"/><path class="c" d="M80.476,53.427h0a.407.407,0,0,1-.426-.537l1.462-6.365a.722.722,0,0,1,.685-.555h0a.426.426,0,0,1,.426.555L81.16,52.89a.759.759,0,0,1-.685.537Z" transform="translate(67.951 39.086)"/><path class="c" d="M86.082,50.005h0a.426.426,0,0,0-.426-.555H80.735a.722.722,0,0,0-.685.555h0a.407.407,0,0,0,.426.537H85.4A.759.759,0,0,0,86.082,50.005Z" transform="translate(67.951 42.045)"/><path class="n" d="M67.455,96.084a5.273,5.273,0,0,0-5.2,4.4L58.74,120.84H82.257a13.9,13.9,0,0,0,13.211-11.4L97.6,96.01Z" transform="translate(49.851 81.632)"/><path class="n" d="M63.655,99.533a5.292,5.292,0,0,0,5.218,6.18H96.5l5.07-31.954h0l.481-3.09a6.92,6.92,0,0,0-6.994-8.308H69.908Z" transform="translate(53.966 53.02)"/><path class="k" d="M104.133,143.674h-77.1a9.492,9.492,0,0,1-9.584-11.4L27.644,68.739a13.858,13.858,0,0,1,13.192-11.4h77.1a9.51,9.51,0,0,1,9.6,11.4l-10.213,63.519a13.858,13.858,0,0,1-13.192,11.416Z" transform="translate(14.579 48.751)"/><path class="r" d="M116.719,56.882H33.458a10.1,10.1,0,0,0-9.64,8.326l-1.5,9.455h99.913l1.5-9.455a6.92,6.92,0,0,0-7.012-8.326Z" transform="translate(18.885 48.36)"/><path class="k" d="M31.407,62.4a1.85,1.85,0,0,1-1.758,1.517A1.258,1.258,0,0,1,28.372,62.4,1.85,1.85,0,0,1,30.13,60.86,1.277,1.277,0,0,1,31.407,62.4Z" transform="translate(24.008 51.746)"/><path class="k" d="M35.016,62.4a1.85,1.85,0,0,1-1.85,1.517,1.277,1.277,0,0,1-1.3-1.517,1.85,1.85,0,0,1,1.85-1.536,1.277,1.277,0,0,1,1.3,1.536Z" transform="translate(26.986 51.746)"/><path class="k" d="M35.016,62.4a1.85,1.85,0,0,1-1.85,1.517,1.277,1.277,0,0,1-1.3-1.517,1.85,1.85,0,0,1,1.85-1.536,1.277,1.277,0,0,1,1.3,1.536Z" transform="translate(26.986 51.746)"/><path class="k" d="M38.587,62.4a1.85,1.85,0,0,1-1.85,1.517A1.277,1.277,0,0,1,35.461,62.4a1.85,1.85,0,0,1,1.758-1.536A1.277,1.277,0,0,1,38.587,62.4Z" transform="translate(30.038 51.743)"/><path class="ab" d="M49.557,85.2,38.2,91.01l-1.776,25.7H61.694L69.5,91.694,58.863,85.2Z" transform="translate(30.874 72.441)"/><path class="k" d="M52.807,88.14l-6.013,8.511L43.5,88.14l.944-6.05H53.75Z" transform="translate(36.893 69.797)"/><path class="ab" d="M59.862,78.124a4.829,4.829,0,0,0-.3-1.129l-.777-2.22c-.481-1.332-1.2-1.147-2.387-1.536A10.823,10.823,0,0,0,53.275,72a5,5,0,0,0-2.239.592,4.257,4.257,0,0,1-.907.37,6.4,6.4,0,0,1-1.573,0A3.7,3.7,0,0,0,45.5,75.145a2.349,2.349,0,0,1-.278.574,2.073,2.073,0,0,1-.426.389c-1.85,1.536-1.314,4.089-1.351,5.976,0,1.036-.315,2.128.426,2.923l-.407-.055a6.235,6.235,0,0,0,3.7,1.85,21.333,21.333,0,0,0,4.367.241h5.347a1.721,1.721,0,0,0,1-.222,1.85,1.85,0,0,0,.592-1.036c.611-2.017.74-4.052,1.24-6.106A5.125,5.125,0,0,0,59.862,78.124Z" transform="translate(36.795 61.218)"/><path class="ac" d="M43.72,85.624l.944,2.276a3.941,3.941,0,0,0,3.7,2.387,5.662,5.662,0,0,0,4.145-1.85l.981-6.346H44.238Z" transform="translate(37.08 69.797)"/><path class="k" d="M44.983,78.955l-1.129,7.086a8.344,8.344,0,0,0,.5,4.552l.981,2.368a3.978,3.978,0,0,0,3.7,2.405h0a5.736,5.736,0,0,0,4.478-2.313l.352-.444a10.732,10.732,0,0,0,2.072-4.737l1.24-6.79,1-6.272H45.816Z" transform="translate(37.094 63.607)"/><path class="k" d="M44.885,83.859l-1.369-.629a4.293,4.293,0,0,1-.592-3.7s.592-1.332,1.536-.851l1.3,1.258Z" transform="translate(36.248 66.807)"/><path class="k" d="M50.276,83.89l1.536-.759s1.85-2.183,1.406-3.7c0,0-.333-1.277-1.406-.7L50.22,80.116Z" transform="translate(42.607 66.812)"/><path class="c" d="M45.241,84.544l-1.85-.833h0a4.663,4.663,0,0,1-.611-4.163,2.183,2.183,0,0,1,1.055-1.092,1.184,1.184,0,0,1,.962,0h.093l1.443,1.406Zm-1.369-1.406.87.389.722-3.238-1.11-1.073a.463.463,0,0,0-.352,0c-.315.111-.574.574-.648.722a3.812,3.812,0,0,0,.592,3.2Z" transform="translate(36.077 66.621)"/><path class="c" d="M50.06,84.593V80.116l1.85-1.554a1.258,1.258,0,0,1,1.129,0,1.591,1.591,0,0,1,.611.925c.5,1.647-1.388,3.923-1.462,4.015h-.111Zm.648-4.163v3.016l.962-.463c.5-.629,1.591-2.257,1.277-3.312a.82.82,0,0,0-.389-.555.537.537,0,0,0-.463,0Z" transform="translate(42.471 66.683)"/><path class="ab" d="M44.289,80.974a25.236,25.236,0,0,1-.259,3.33c-.092.444-.481,1.721.518,1.388a.888.888,0,0,0,.518-.722c.241-1.073-.5-2,.167-2.979s1.425-1.184,1.721-2.017a5.717,5.717,0,0,0,0-1.85,2,2,0,0,1,.555-1.314,1.314,1.314,0,0,1,1.314-.407c.407.148.611.555.87.87a2.553,2.553,0,0,0,2.812.592,11.47,11.47,0,0,0,1.85-1.018,2.516,2.516,0,0,1,1.85-.407c.851.259,1.073,1.277,1.129,2.183a10.38,10.38,0,0,1-.278,3.09,23.536,23.536,0,0,1-1.092,2.294,2.238,2.238,0,0,0-.167.574,1.85,1.85,0,0,0,.241.962h.222a3.9,3.9,0,0,0,1.11-1.85A5.4,5.4,0,0,0,58,81.233c0-1.85.7-3.848.7-5.736a1.258,1.258,0,0,0-.111-.537.981.981,0,0,0-.537-.352,22.2,22.2,0,0,0-8.326-.7,6.55,6.55,0,0,0-3,.611,4.977,4.977,0,0,0-2.183,2.96A13.655,13.655,0,0,0,44.289,80.974Z" transform="translate(37.215 62.734)"/><path class="k" d="M33.121,101.1,32.9,99.911,21.65,91.881h0a2.257,2.257,0,0,1,2.757-.3l2.239,1.536.925-.185a2.535,2.535,0,0,1,2.054.37l1.11.8,3.941,1.24A3,3,0,0,1,36.748,97.6l.518,2.313Z" transform="translate(18.316 77.582)"/><path class="k" d="M62.3,101.089l.611-1.184,13.8-8.03h0a2.072,2.072,0,0,0-2.59-.3l-2.738,1.536-.87-.185a2.942,2.942,0,0,0-2.165.37L67,94.1l-4.348,1.24a4.607,4.607,0,0,0-2.775,2.257L58.62,99.9Z" transform="translate(49.749 77.589)"/><path class="c" d="M33.116,101.754l-.278-1.517-11.508-8.2.352-.3a2.627,2.627,0,0,1,3.2-.333l2.128,1.462.759-.167a2.942,2.942,0,0,1,2.35.426l1.055.759,3.886,1.24a3.386,3.386,0,0,1,2.313,2.59l.592,2.646ZM22.57,92.1,33.523,99.9l.185.944,3.441-.981-.444-2a2.646,2.646,0,0,0-1.85-1.98l-4.034-1.314-1.11-.777a2.165,2.165,0,0,0-1.85-.315l-1.073.222L24.42,92.078a1.85,1.85,0,0,0-1.85.019Z" transform="translate(18.044 77.386)"/><path class="c" d="M62.759,101.685,58.3,100.279l1.462-2.7a4.9,4.9,0,0,1,3-2.424L67,93.914l1.314-.777a3.349,3.349,0,0,1,2.479-.352l.74.167,2.609-1.48a2.442,2.442,0,0,1,3.127.389l.259.333-14.062,8.178Zm-3.423-1.85,3.053.962.518-1.018,13.47-7.827a1.85,1.85,0,0,0-1.85,0l-2.849,1.628-.981-.148a2.664,2.664,0,0,0-1.85.333l-1.425.814-4.348,1.258a4.292,4.292,0,0,0-2.553,2.072Z" transform="translate(49.477 77.437)"/><path class="ab" d="M57.217,85.21,43.785,92.056A9.251,9.251,0,0,0,39.048,98L35.9,111.409l-2.942-6.531-5.551,1.591L30.463,116.9l10.361-.2,5.125-14.3L56.477,89.762Z" transform="translate(23.213 72.449)"/><path class="ab" d="M48.882,85.21l11.249,6.846A6.18,6.18,0,0,1,63,98l-1.11,13.414,5-6.531,5.033,1.591-6.383,10.454-10.269-.167L54.673,102.4,48.16,89.762Z" transform="translate(40.855 72.449)"/><path class="v" d="M44.889,85.2,41.91,86.736l1.406,11.49,4.829-4.219Z" transform="translate(35.541 72.441)"/><path class="v" d="M51.33,85.2l2.5,1.536-5.051,11.49-3.5-4.219Z" transform="translate(38.407 72.441)"/><path class="ab" d="M46.991,85.1c-.222.352-.352.74-.574,1.073a1.039,1.039,0,0,1-1.018.518c-.352-.111-.444-.648-.426-1.073a16.8,16.8,0,0,0,.3-3.589,3.978,3.978,0,0,1-.13-.925,7.621,7.621,0,0,0,0-.888.543.543,0,0,0-.481-.592.759.759,0,0,0-.629.5,2.331,2.331,0,0,0,0,.8,12.952,12.952,0,0,1-.333,3.867,9.029,9.029,0,0,0,.2,3.7,5.44,5.44,0,0,0,.352,1.221,3.7,3.7,0,0,0,2.461,1.85,13.23,13.23,0,0,0,3.33.315,5.792,5.792,0,0,0,2.257-.167c2.128-.851,3.367-4.607,3.867-6.457a10.139,10.139,0,0,0,.222-2.331,15.543,15.543,0,0,1,.907-3.034v-.352c0-.074-.315,0-.315-.241a2.738,2.738,0,0,0-.925,1.092,3.588,3.588,0,0,0-.13.611,8.789,8.789,0,0,1-.537,2.368,25.908,25.908,0,0,0-1.166,2.794c-.148.444-.352.962-.8,1.073a.629.629,0,0,1-.722-.518,2.461,2.461,0,0,1,0-1.036,1.351,1.351,0,0,0-.111-.981c-.241-.37-.759-.426-1.221-.463C49.988,84.045,48.046,83.4,46.991,85.1Z" transform="translate(36.973 67.416)"/><path class="k" d="M45.46,83.408h1a1.739,1.739,0,0,0,1.036-.37l.666-.518.555.537a1.314,1.314,0,0,0,.907.352h.925a3.145,3.145,0,0,1-3.2,2.664C45.441,85.943,45.867,84.814,45.46,83.408Z" transform="translate(38.56 70.162)"/><path class="k" d="M27.42,97.431l5.532-1.591,1,2.183L28.068,99.67Z" transform="translate(23.221 81.487)"/><path class="k" d="M64.146,97.431,59.114,95.84,57.43,98.023l5.347,1.647Z" transform="translate(48.737 81.487)"/><path class="d" d="M36.83,76.252A6.679,6.679,0,0,1,30.465,81.8a4.57,4.57,0,0,1-4.626-5.551A6.679,6.679,0,0,1,32.2,70.7a4.57,4.57,0,0,1,4.626,5.551Z" transform="translate(21.786 60.111)"/><path class="k" d="M31.075,74.5,27.8,76.22l.555-3.46Z" transform="translate(23.545 61.864)"/><path class="k" d="M255.42,151.2h47.625v44.776a23.813,23.813,0,0,1-23.813,23.813h0a23.813,23.813,0,0,1-23.813-23.813V151.2Z" transform="translate(217.076 128.557)"/><path class="l" d="M278.915,181.558c2.276-1.406,4.7-3.589,4.33-6.309a6.79,6.79,0,0,0-2.479-3.849c-6.716-6.069-10.546-8.585-14.228-17.17a18.206,18.206,0,0,0-8.308,11.471,55.93,55.93,0,0,0-1.388,14.617c0,11.1-1.943,32.62,14.8,31.343,2.9-.222,6.143-1.11,7.6-3.7a11.342,11.342,0,0,0,.629-6.864c-.648-5.329-1.85-11.49-6.476-13.877C273.993,184.463,276.639,182.909,278.915,181.558Z" transform="translate(218.226 131.133)"/><path class="c" d="M259.937,130h0a3.571,3.571,0,0,0-3.516,3.7l6.864,35.913h7.031L263.452,133.7a3.571,3.571,0,0,0-3.515-3.7Z" transform="translate(217.925 110.532)"/><path class="d" d="M283.5,130h0a3.571,3.571,0,0,1,3.515,3.7l-6.864,35.913H273.12l6.864-35.913A3.571,3.571,0,0,1,283.5,130Z" transform="translate(232.126 110.532)"/><path class="k" d="M276.536,134.51l-.426,2.072h7.068l.407-2.072Z" transform="translate(234.668 114.366)"/><path class="k" d="M276.026,137.16l-.426,2.091h7.068l.407-2.091Z" transform="translate(234.234 116.619)"/><path class="d" d="M266.515,130h0a3.515,3.515,0,0,1,3.515,3.515v36.043H263V133.515A3.515,3.515,0,0,1,266.515,130Z" transform="translate(223.521 110.532)"/><path class="c" d="M273.945,130h0a3.515,3.515,0,0,1,3.515,3.515v36.043H270.43V133.515A3.515,3.515,0,0,1,273.945,130Z" transform="translate(229.838 110.532)"/><path class="t" d="M272.864,127.9h0a3.571,3.571,0,0,0-3.515,3.7L266,171.344h7.031l3.441-39.8a3.59,3.59,0,0,0-3.608-3.645Z" transform="translate(226.072 108.746)"/><path class="c" d="M279.658,221.139A24.775,24.775,0,0,1,254.92,196.4V150.7H304.4v45.7a24.775,24.775,0,0,1-24.738,24.738ZM256.77,152.55V196.4a22.887,22.887,0,1,0,45.775,0V152.55Z" transform="translate(216.651 128.132)"/><path class="c" d="M562.137,189.224H.563a.677.677,0,0,1,0-1.314H562.137a.677.677,0,0,1,0,1.314Z" transform="translate(-0.05 159.769)"/><ellipse class="d" cx="12.915" cy="10.158" rx="12.915" ry="10.158" transform="matrix(0.748, -0.664, 0.664, 0.748, 185.706, 246.777)"/><path class="k" d="M109.246,139.628l-3.016-3.978,2.812-2.276,1.3,1.7,5.865-4.737,1.739,2.276Z" transform="translate(90.229 110.821)"/></g></g></svg>