<svg xmlns="http://www.w3.org/2000/svg" width="81.531" height="80.942" viewBox="0 0 81.531 80.942"><defs><style>.a{fill:#1d84b5;}.b{fill:#70b9d6;}</style></defs><g transform="translate(0 0.01)"><g transform="translate(0 -0.01)"><path class="a" d="M47.592,62.239H5.425A5.337,5.337,0,0,1,0,57.01V22.235A5.337,5.337,0,0,1,5.425,17h7.222v2.034H5.425a3.309,3.309,0,0,0-3.391,3.2V57.01a3.309,3.309,0,0,0,3.391,3.2H47.592Z" transform="translate(0 -5.464)"/><path class="a" d="M89.641,60.306,88.088,59a3.058,3.058,0,0,0,.739-1.987V22.235a3.309,3.309,0,0,0-3.391-3.2H54.14V17H85.43a5.344,5.344,0,0,1,5.425,5.235V57.01A5.12,5.12,0,0,1,89.641,60.306Z" transform="translate(-17.425 -5.464)"/><rect class="a" width="2.034" height="43.205" transform="translate(7.29 12.552)"/><rect class="a" width="2.034" height="34.334" transform="translate(57.724 12.552)"/><path class="a" d="M94.279,52.864a4.8,4.8,0,1,1,4.964-4.794A4.883,4.883,0,0,1,94.279,52.864Zm0-7.561a2.767,2.767,0,1,0,2.93,2.767,2.855,2.855,0,0,0-2.93-2.767Z" transform="translate(-28.851 -13.918)"/><rect class="a" width="2.034" height="3.398" transform="translate(64.261 42.147)"/><rect class="a" width="2.034" height="6.829" transform="translate(64.261 19.185)"/><path class="b" d="M33.868,1.5A4.883,4.883,0,0,0,33,1.587a4.686,4.686,0,0,1,0,9.2,4.883,4.883,0,0,0,.9.088,4.693,4.693,0,1,0,0-9.379Z" transform="translate(-10.621 -0.474)"/><path class="a" d="M31.57,11.41A5.71,5.71,0,1,1,37.28,5.7a5.71,5.71,0,0,1-5.71,5.71Zm0-9.379A3.676,3.676,0,1,0,35.246,5.7,3.676,3.676,0,0,0,31.57,2.031Z" transform="translate(-8.323 0.01)"/><path class="b" d="M33.424,15.33H31.03a7.839,7.839,0,0,0-3.14.678,7.65,7.65,0,0,1,1.044-.081h2.421a7.839,7.839,0,0,1,7.805,7.819v5.262h2.1V23.163A7.833,7.833,0,0,0,33.424,15.33Z" transform="translate(-8.977 -4.927)"/><path class="a" d="M38.556,29.559H20.517A1.017,1.017,0,0,1,19.5,28.542V22.7a8.863,8.863,0,0,1,8.85-8.816h2.394A8.863,8.863,0,0,1,39.573,22.7v5.846A1.017,1.017,0,0,1,38.556,29.559ZM21.514,27.524H37.539V22.7a6.822,6.822,0,0,0-6.815-6.781H28.329A6.822,6.822,0,0,0,21.514,22.7Z" transform="translate(-6.276 -4.461)"/><path class="a" d="M39.373,25.97H18.167a1.017,1.017,0,0,1-1.017-1.017V3.747A1.017,1.017,0,0,1,18.167,2.73h4.143V4.764H19.184V23.936H38.356V4.764H35.284V2.73h4.069A1.017,1.017,0,0,1,40.37,3.747V24.953a1.017,1.017,0,0,1-1,1.017Z" transform="translate(-5.52 -0.872)"/><path class="b" d="M105.952,86.439a1.688,1.688,0,0,1-.292-1.078h0a8.511,8.511,0,0,0-1.478-5.391L97,69.547l-1.356-1.939a2.57,2.57,0,0,0-3.567-.678h0a2.611,2.611,0,0,0-.637.678,2.55,2.55,0,0,1,2.17,1.105l1.356,1.933,7.182,10.43a8.511,8.511,0,0,1,1.478,5.425h0a1.668,1.668,0,0,0,.292,1.071l4.272,6.2-10.715,7.378.149.21,12.6-8.673Z" transform="translate(-29.43 -21.392)"/><path class="a" d="M87.677,101.865a.841.841,0,0,1-.183,0,1,1,0,0,1-.678-.42l-3.933-5.717a1.573,1.573,0,0,0-.787-.6l-4.069-1.431a.678.678,0,0,1-.156-.075L66.159,89.305a3.585,3.585,0,0,1-2.034-4.774,3.757,3.757,0,0,1,4.632-1.885l1.96.678L62.07,70.778A3.594,3.594,0,0,1,61.514,68a3.554,3.554,0,0,1,1.661-2.312,3.743,3.743,0,0,1,4.9,1.146L70.4,70.229a3.533,3.533,0,0,1,1.051-1.146,3.594,3.594,0,0,1,3.838-.149,3.5,3.5,0,0,1,1.444-1.648,3.655,3.655,0,0,1,3.581,0,3.583,3.583,0,0,1,6.273-.692L95.048,78.93A9.609,9.609,0,0,1,96.7,84.972a.678.678,0,0,0,.115.427l4.266,6.2a1,1,0,0,1,.163.76.99.99,0,0,1-.42.678l-12.559,8.646a.99.99,0,0,1-.59.183ZM78.861,91.8l3.906,1.356a3.614,3.614,0,0,1,1.79,1.356L87.948,99.4l10.925-7.521-3.689-5.357a2.713,2.713,0,0,1-.468-1.722,7.568,7.568,0,0,0-1.3-4.747L84.876,67.727a1.539,1.539,0,0,0-2.157-.4h0a1.553,1.553,0,0,0-.678,1,1.519,1.519,0,0,0,.251,1.153h0a1.017,1.017,0,0,1-1.675,1.153h0l-.726-1.051a1.716,1.716,0,0,0-2.163-.563,1.553,1.553,0,0,0-.678,1,1.492,1.492,0,0,0,.237,1.194h0a1.017,1.017,0,0,1-1.675,1.153l-.848-1.248a1.548,1.548,0,0,0-2.55,1.756,1.024,1.024,0,0,1-1.682,1.16l-4.157-6.042a1.7,1.7,0,0,0-2.163-.563,1.564,1.564,0,0,0-.434,2.2L74.2,84.816a1.017,1.017,0,0,1-1.187,1.533l-4.957-1.811a1.709,1.709,0,0,0-2.089.821,1.546,1.546,0,0,0,0,1.227,1.519,1.519,0,0,0,.888.807L78.773,91.74Z" transform="translate(-19.774 -20.928)"/><rect class="a" width="2.034" height="4.686" transform="matrix(0.824, -0.567, 0.567, 0.824, 50.764, 53.101)"/><rect class="a" width="2.034" height="4.449" transform="matrix(0.824, -0.567, 0.567, 0.824, 55.85, 51.447)"/><rect class="a" width="2.034" height="3.757" transform="matrix(0.824, -0.567, 0.567, 0.824, 60.88, 49.7)"/><path class="a" d="M98.355,112.387a1.024,1.024,0,0,1-.841-.441l-2.713-3.96a1,1,0,0,1-.17-.76,1.024,1.024,0,0,1,.427-.678l12.593-8.633a1.038,1.038,0,0,1,.76-.163,1.058,1.058,0,0,1,.678.427l2.713,3.96a1.01,1.01,0,0,1-.258,1.411l-12.6,8.653A1.017,1.017,0,0,1,98.355,112.387Zm-1.309-4.747,1.567,2.279,10.925-7.521-1.567-2.279Z" transform="translate(-30.453 -31.45)"/><rect class="a" width="13.997" height="1.695" transform="translate(25.091 29.228)"/><rect class="a" width="2.326" height="1.695" transform="translate(20.622 29.228)"/><rect class="a" width="2.76" height="1.695" transform="translate(15.841 29.228)"/><rect class="a" width="3.391" height="1.695" transform="translate(35.698 36.111)"/><rect class="a" width="17.293" height="1.695" transform="translate(15.841 36.111)"/><path class="a" d="M28.355,70.381a3.465,3.465,0,1,1,3.465-3.465A3.465,3.465,0,0,1,28.355,70.381Zm0-5.2a1.77,1.77,0,1,0,1.77,1.77A1.77,1.77,0,0,0,28.355,65.179Z" transform="translate(-8.011 -20.415)"/><path class="a" d="M42.489,70.94a4.53,4.53,0,1,1,.78-.068A4.326,4.326,0,0,1,42.489,70.94Zm0-7.365a3.113,3.113,0,0,0-.5.041,2.835,2.835,0,1,0,3.282,2.306h0a2.841,2.841,0,0,0-2.787-2.346Z" transform="translate(-12.217 -19.909)"/><path class="a" d="M73.378,47.238H62.528a.848.848,0,0,1-.848-.848V27.158a.848.848,0,0,1,.848-.848h10.85a.848.848,0,0,1,.848.848V46.39A.848.848,0,0,1,73.378,47.238Zm-10-1.7H72.53V28.005H63.375Z" transform="translate(-19.852 -8.461)"/></g></g></svg>