<svg xmlns="http://www.w3.org/2000/svg" width="575.567" height="368.941" viewBox="0 0 575.567 368.941"><defs><style>.a{fill:#111159;}.b{fill:#2b2b7f;}.c{fill:#829dff;}.d,.h{fill:#fff;}.e{fill:#273d83;}.f{fill:none;}.g{fill:#e2f2ef;}.h{font-size:15px;font-family:Poppins-SemiBold, Poppins;font-weight:600;}</style></defs><path class="a" d="M180.386,59.36H14.615L5.39,82.107H185.555V59.36Z" transform="translate(2.307 25.404)"/><rect class="b" width="180.165" height="206.797" transform="translate(7.697 116.379)"/><rect class="c" width="187.876" height="9.11" transform="translate(0 107.268)"/><rect class="d" width="10.138" height="10.138" transform="translate(83.793 184.82)"/><rect class="d" width="10.138" height="10.138" transform="translate(98.343 184.82)"/><path class="e" d="M90.127,139.7H53v5.483H94.554V139.7Zm.443,2.742H56.156a.771.771,0,1,1,0-1.528H90.541a.771.771,0,0,1,0,1.528Z" transform="translate(22.682 59.786)"/><path class="a" d="M70.31,151.251a8.8,8.8,0,0,0,9.339-7.711H61a8.8,8.8,0,0,0,9.31,7.711Z" transform="translate(26.105 61.429)"/><path class="c" d="M89.858,140.552H55.472a.771.771,0,1,0,0,1.528H89.858a.771.771,0,0,0,0-1.528Z" transform="translate(23.365 60.147)"/><rect class="f" width="10.138" height="10.138" transform="translate(98.343 184.82)"/><rect class="f" width="10.138" height="10.138" transform="translate(83.793 184.82)"/><path class="e" d="M88.672,111.554v-1.742a16.307,16.307,0,1,0-32.6,0v49.864H88.815V111.554ZM69.938,155.135H59.8V145.011H69.938Zm0-14.18H59.8V130.817H69.938Zm0-14.18H59.8V116.637H69.938Zm0-19.292v5.155h-10V111.3c0-6.826,4.412-12.452,10-13.023Zm4.5,0v-9.21c5.555.571,10,6.2,10,13.023v1.342h-10Zm10,47.651H74.293V145.011H84.531Zm0-14.18H74.293V130.817H84.531Zm0-14.18H74.293V116.637H84.531Z" transform="translate(23.993 39.81)"/><rect class="d" width="10.138" height="10.138" transform="translate(83.793 156.447)"/><rect class="d" width="10.138" height="10.138" transform="translate(98.343 156.447)"/><rect class="d" width="10.138" height="10.138" transform="translate(83.793 170.627)"/><rect class="d" width="10.138" height="10.138" transform="translate(98.343 170.627)"/><path class="d" d="M58.79,109.723v1.342h10V96.7C63.2,97.271,58.79,102.84,58.79,109.723Z" transform="translate(25.16 41.383)"/><path class="d" d="M78.906,109.723c0-6.826-4.412-12.452-10-13.023v14.365h10Z" transform="translate(29.491 41.383)"/><rect class="d" width="10.138" height="10.138" transform="translate(27.331 184.82)"/><rect class="d" width="10.138" height="10.138" transform="translate(41.882 184.82)"/><path class="e" d="M50.557,139.7H13.43v5.483H54.984V139.7Zm.457,2.742h-34.4a.771.771,0,0,1,0-1.528h34.4a.771.771,0,0,1,0,1.528Z" transform="translate(5.747 59.786)"/><path class="a" d="M30.807,151.251a8.782,8.782,0,0,0,9.325-7.711H21.44a8.8,8.8,0,0,0,9.367,7.711Z" transform="translate(9.175 61.429)"/><path class="c" d="M50.259,140.55H15.86a.771.771,0,0,0,0,1.528h34.4a.771.771,0,0,0,0-1.528Z" transform="translate(6.502 60.149)"/><rect class="f" width="10.138" height="10.138" transform="translate(41.882 184.82)"/><rect class="f" width="10.138" height="10.138" transform="translate(27.331 184.82)"/><path class="e" d="M49.135,111.409v-1.742a16.307,16.307,0,0,0-32.615,0v49.864H49.234V111.409ZM30.4,154.991H20.261V144.866H30.4Zm0-14.18H20.261V130.673H30.4Zm0-14.18H20.261V116.493H30.4Zm0-19.292v5.155h-10v-1.342c0-6.826,4.412-12.452,10-13.023Zm4.484,0v-9.21c5.569.571,10,6.2,10,13.023v1.342h-10Zm10.067,47.651H34.812V144.866H44.951Zm0-14.18H34.812V130.673H44.951Zm0-14.18H34.812V116.493H44.951Z" transform="translate(7.07 39.954)"/><rect class="d" width="10.138" height="10.138" transform="translate(27.331 156.447)"/><rect class="d" width="10.138" height="10.138" transform="translate(41.882 156.447)"/><rect class="d" width="10.138" height="10.138" transform="translate(27.331 170.627)"/><rect class="d" width="10.138" height="10.138" transform="translate(41.882 170.627)"/><path class="d" d="M19.25,109.723v1.342h10V96.7C23.662,97.271,19.25,102.84,19.25,109.723Z" transform="translate(8.238 41.383)"/><path class="d" d="M39.366,109.723c0-6.826-4.412-12.452-10-13.023v14.365h10Z" transform="translate(12.569 41.383)"/><rect class="a" width="180.165" height="45.766" transform="translate(7.697 323.175)"/><rect class="a" width="180.165" height="7.54" transform="translate(7.697 116.379)"/><rect class="a" width="180.137" height="8.396" transform="translate(7.697 221.605)"/><rect class="d" width="10.138" height="10.138" transform="translate(144.295 184.82)"/><rect class="d" width="10.138" height="10.138" transform="translate(158.846 184.82)"/><path class="e" d="M132.467,139.7H95.34v5.483h41.554V139.7Zm.457,2.742h-34.4a.771.771,0,0,1,0-1.528h34.4a.771.771,0,0,1,0,1.528Z" transform="translate(40.801 59.786)"/><path class="a" d="M112.689,151.251a8.8,8.8,0,0,0,9.325-7.711H103.35a8.8,8.8,0,0,0,9.339,7.711Z" transform="translate(44.229 61.429)"/><path class="c" d="M132.169,140.55H97.77a.771.771,0,0,0,0,1.528h34.4a.771.771,0,0,0,0-1.528Z" transform="translate(41.556 60.149)"/><rect class="f" width="10.138" height="10.138" transform="translate(158.846 184.82)"/><rect class="f" width="10.138" height="10.138" transform="translate(144.295 184.82)"/><path class="e" d="M131.045,111.409v-1.742a16.307,16.307,0,0,0-32.615,0v49.864h32.714V111.409ZM112.31,155H102.171V144.881H112.31Zm0-14.18H102.171V130.687H112.31Zm0-14.18H102.171V116.507H112.31Zm0-19.292v5.155h-10v-1.342c0-6.826,4.412-12.452,10-13.023Zm4.484,0V98.129c5.569.571,10,6.2,10,13.023v1.342h-10Zm10,47.651H116.651V144.881h10.138Zm0-14.18H116.651V130.687h10.138Zm0-14.18H116.651V116.507h10.138Z" transform="translate(42.124 39.954)"/><rect class="d" width="10.138" height="10.138" transform="translate(144.295 156.447)"/><rect class="d" width="10.138" height="10.138" transform="translate(158.846 156.447)"/><rect class="d" width="10.138" height="10.138" transform="translate(144.295 170.627)"/><rect class="d" width="10.138" height="10.138" transform="translate(158.846 170.627)"/><path class="d" d="M101.16,109.723v1.342h10V96.7C105.572,97.271,101.16,102.84,101.16,109.723Z" transform="translate(43.292 41.383)"/><path class="d" d="M121.276,109.723c0-6.826-4.412-12.452-10-13.023v14.365h10Z" transform="translate(47.623 41.383)"/><rect class="d" width="10.138" height="10.138" transform="translate(83.793 290.247)"/><rect class="d" width="10.138" height="10.138" transform="translate(98.343 290.247)"/><path class="e" d="M90.127,213.54H53v5.469H94.554V213.54Zm.443,2.742H56.156a.771.771,0,1,1,0-1.528H90.541a.771.771,0,0,1,0,1.528Z" transform="translate(22.682 91.386)"/><path class="a" d="M70.31,225.081a8.8,8.8,0,0,0,9.339-7.711H61a8.8,8.8,0,0,0,9.31,7.711Z" transform="translate(26.105 93.025)"/><path class="c" d="M89.858,214.392H55.472a.771.771,0,1,0,0,1.528H89.858a.771.771,0,0,0,0-1.528Z" transform="translate(23.365 91.748)"/><rect class="f" width="10.138" height="10.138" transform="translate(98.343 290.247)"/><rect class="f" width="10.138" height="10.138" transform="translate(83.793 290.247)"/><path class="e" d="M88.672,185.384v-1.742a16.307,16.307,0,1,0-32.6,0V233.52H88.815V185.384Zm-18.735,43.6H59.8V218.841H69.938Zm0-14.18H59.8V204.661H69.938Zm0-14.18H59.8V190.482H69.938Zm0-19.292v5.141h-10v-1.328c0-6.826,4.412-12.466,10-13.023Zm4.5,0v-9.21c5.555.557,10,6.2,10,13.023v1.328h-10Zm10,47.651H74.293V218.841H84.531Zm0-14.18H74.293V204.661H84.531Zm0-14.18H74.293V190.482H84.531Z" transform="translate(23.993 71.406)"/><rect class="d" width="10.138" height="10.138" transform="translate(83.793 261.887)"/><rect class="d" width="10.138" height="10.138" transform="translate(98.343 261.887)"/><rect class="d" width="10.138" height="10.138" transform="translate(83.793 276.067)"/><rect class="d" width="10.138" height="10.138" transform="translate(98.343 276.067)"/><path class="d" d="M58.79,183.563v1.328h10V170.54C63.2,171.1,58.79,176.737,58.79,183.563Z" transform="translate(25.16 72.984)"/><path class="d" d="M78.906,183.563c0-6.826-4.412-12.466-10-13.023v14.351h10Z" transform="translate(29.491 72.984)"/><rect class="d" width="10.138" height="10.138" transform="translate(27.331 290.247)"/><rect class="d" width="10.138" height="10.138" transform="translate(41.882 290.247)"/><path class="e" d="M50.557,213.54H13.43v5.469H54.984V213.54Zm.457,2.742h-34.4a.771.771,0,0,1,0-1.528h34.4a.771.771,0,0,1,0,1.528Z" transform="translate(5.747 91.386)"/><path class="a" d="M30.807,225.081a8.782,8.782,0,0,0,9.325-7.711H21.44a8.8,8.8,0,0,0,9.367,7.711Z" transform="translate(9.175 93.025)"/><path class="c" d="M50.259,214.39H15.86a.771.771,0,0,0,0,1.528h34.4a.771.771,0,0,0,0-1.528Z" transform="translate(6.502 91.75)"/><rect class="f" width="10.138" height="10.138" transform="translate(41.882 290.247)"/><rect class="f" width="10.138" height="10.138" transform="translate(27.331 290.247)"/><path class="e" d="M49.135,185.239V183.5a16.307,16.307,0,1,0-32.615,0v49.879H49.234V185.239ZM30.4,228.835H20.261V218.7H30.4Zm0-14.18H20.261V204.517H30.4Zm0-14.18H20.261V190.337H30.4Zm0-19.292v5.141h-10V185c0-6.826,4.412-12.466,10-13.023Zm4.484,0v-9.21c5.569.557,10,6.2,10,13.023v1.328h-10Zm10.067,47.651H34.812V218.7H44.951Zm0-14.18H34.812V204.517H44.951Zm0-14.18H34.812V190.337H44.951Z" transform="translate(7.07 71.55)"/><rect class="d" width="10.138" height="10.138" transform="translate(27.331 261.887)"/><rect class="d" width="10.138" height="10.138" transform="translate(41.882 261.887)"/><rect class="d" width="10.138" height="10.138" transform="translate(27.331 276.067)"/><rect class="d" width="10.138" height="10.138" transform="translate(41.882 276.067)"/><path class="d" d="M19.25,183.563v1.328h10V170.54C23.662,171.1,19.25,176.737,19.25,183.563Z" transform="translate(8.238 72.984)"/><path class="d" d="M39.366,183.563c0-6.826-4.412-12.466-10-13.023v14.351h10Z" transform="translate(12.569 72.984)"/><rect class="d" width="10.138" height="10.138" transform="translate(144.295 290.247)"/><rect class="d" width="10.138" height="10.138" transform="translate(158.846 290.247)"/><path class="e" d="M132.467,213.54H95.34v5.469h41.554V213.54Zm.457,2.742h-34.4a.771.771,0,0,1,0-1.528h34.4a.771.771,0,0,1,0,1.528Z" transform="translate(40.801 91.386)"/><path class="a" d="M112.689,225.081a8.8,8.8,0,0,0,9.325-7.711H103.35a8.8,8.8,0,0,0,9.339,7.711Z" transform="translate(44.229 93.025)"/><path class="c" d="M132.169,214.39H97.77a.771.771,0,0,0,0,1.528h34.4a.771.771,0,0,0,0-1.528Z" transform="translate(41.556 91.75)"/><rect class="f" width="10.138" height="10.138" transform="translate(158.846 290.247)"/><rect class="f" width="10.138" height="10.138" transform="translate(144.295 290.247)"/><path class="e" d="M131.045,185.239V183.5a16.307,16.307,0,1,0-32.615,0v49.879h32.714V185.239Zm-18.735,43.6H102.171V218.7H112.31Zm0-14.18H102.171V204.517H112.31Zm0-14.18H102.171V190.337H112.31Zm0-19.292v5.141h-10V185c0-6.826,4.412-12.466,10-13.023Zm4.484,0v-9.21c5.569.557,10,6.2,10,13.023v1.328h-10Zm10,47.651H116.651V218.7h10.138Zm0-14.18H116.651V204.517h10.138Zm0-14.18H116.651V190.337h10.138Z" transform="translate(42.124 71.55)"/><rect class="d" width="10.138" height="10.138" transform="translate(144.295 261.887)"/><rect class="d" width="10.138" height="10.138" transform="translate(158.846 261.887)"/><rect class="d" width="10.138" height="10.138" transform="translate(144.295 276.067)"/><rect class="d" width="10.138" height="10.138" transform="translate(158.846 276.067)"/><path class="d" d="M101.16,183.563v1.328h10V170.54C105.572,171.1,101.16,176.737,101.16,183.563Z" transform="translate(43.292 72.984)"/><path class="d" d="M121.276,183.563c0-6.826-4.412-12.466-10-13.023v14.351h10Z" transform="translate(47.623 72.984)"/><path class="a" d="M276.683,59.36H442.455l9.225,22.747H271.5V59.36Z" transform="translate(116.19 25.404)"/><rect class="b" width="180.165" height="206.797" transform="translate(567.87 323.175) rotate(180)"/><rect class="c" width="187.876" height="9.11" transform="translate(575.567 116.379) rotate(180)"/><rect class="a" width="180.165" height="45.766" transform="translate(567.87 368.941) rotate(180)"/><rect class="a" width="180.165" height="7.54" transform="translate(567.87 123.918) rotate(180)"/><rect class="a" width="180.137" height="8.396" transform="translate(567.856 229.987) rotate(180)"/><rect class="d" width="10.138" height="10.138" transform="translate(464.4 184.906)"/><rect class="d" width="10.138" height="10.138" transform="translate(478.965 184.906)"/><path class="e" d="M356.647,139.77H319.52v5.469h41.539V139.77Zm.457,2.727H322.7a.757.757,0,0,1,0-1.514h34.4a.757.757,0,1,1,0,1.514Z" transform="translate(136.741 59.816)"/><path class="a" d="M336.869,151.311a8.8,8.8,0,0,0,9.325-7.711H327.53a8.8,8.8,0,0,0,9.339,7.711Z" transform="translate(140.169 61.455)"/><path class="c" d="M356.376,140.62h-34.4a.757.757,0,1,0,0,1.514h34.4a.757.757,0,0,0,0-1.514Z" transform="translate(137.468 60.179)"/><rect class="f" width="10.138" height="10.138" transform="translate(478.965 184.906)"/><rect class="f" width="10.138" height="10.138" transform="translate(464.4 184.906)"/><path class="e" d="M355.225,111.474v-1.756a16.307,16.307,0,1,0-32.615,0V159.61h32.714V111.474Zm-18.749,43.6H326.337V144.931h10.139Zm0-14.18H326.337V130.751h10.139Zm0-14.18H326.337V116.571h10.139Zm0-19.306v5.155h-10v-1.328c0-6.826,4.412-12.466,10-13.023Zm4.5,0v-9.2c5.569.557,10,6.2,10,13.023v1.328h-10Zm10,47.665H340.831V144.931h10.138Zm0-14.18H340.831V130.751h10.138Zm0-14.18H340.831V116.571h10.138Z" transform="translate(138.063 39.975)"/><rect class="d" width="10.138" height="10.138" transform="translate(464.4 156.547)"/><rect class="d" width="10.138" height="10.138" transform="translate(478.965 156.547)"/><rect class="d" width="10.138" height="10.138" transform="translate(464.4 170.727)"/><rect class="d" width="10.138" height="10.138" transform="translate(478.965 170.727)"/><path class="d" d="M325.34,109.772V111.1h10V96.82C329.752,97.305,325.34,102.946,325.34,109.772Z" transform="translate(139.232 41.435)"/><path class="d" d="M345.456,109.793c0-6.826-4.412-12.466-10-13.023v14.28h10Z" transform="translate(143.563 41.413)"/><rect class="d" width="10.138" height="10.138" transform="translate(407.939 184.906)"/><rect class="d" width="10.138" height="10.138" transform="translate(422.504 184.906)"/><path class="e" d="M317.127,139.77H280v5.469h41.539V139.77Zm.457,2.727H283.156a.757.757,0,1,1,0-1.514h34.4a.757.757,0,1,1,0,1.514Z" transform="translate(119.828 59.816)"/><path class="a" d="M297.31,151.311a8.8,8.8,0,0,0,9.339-7.711H288a8.8,8.8,0,0,0,9.31,7.711Z" transform="translate(123.252 61.455)"/><path class="c" d="M316.836,140.62h-34.4a.757.757,0,1,0,0,1.514h34.4a.757.757,0,1,0,0-1.514Z" transform="translate(120.547 60.179)"/><rect class="f" width="10.138" height="10.138" transform="translate(422.504 184.906)"/><rect class="f" width="10.138" height="10.138" transform="translate(407.939 184.906)"/><path class="e" d="M315.685,111.474v-1.756a16.307,16.307,0,1,0-32.615,0V159.61h32.743V111.474Zm-18.749,43.6H286.8V144.931h10.139Zm0-14.18H286.8V130.751h10.139Zm0-14.18H286.8V116.571h10.139Zm0-19.306v5.155h-10v-1.328c0-6.826,4.412-12.466,10-13.023Zm4.5,0v-9.2c5.569.557,10,6.2,10,13.023v1.328h-10Zm10,47.665H301.3V144.931h10.224Zm0-14.18H301.3V130.751h10.224Zm0-14.18H301.3V116.571h10.224Z" transform="translate(121.142 39.975)"/><rect class="d" width="10.138" height="10.138" transform="translate(407.939 156.547)"/><rect class="d" width="10.138" height="10.138" transform="translate(422.504 156.547)"/><rect class="d" width="10.138" height="10.138" transform="translate(407.939 170.727)"/><rect class="d" width="10.138" height="10.138" transform="translate(422.504 170.727)"/><path class="d" d="M285.79,109.772V111.1h10V96.82C290.2,97.305,285.79,102.946,285.79,109.772Z" transform="translate(122.306 41.435)"/><path class="d" d="M305.916,109.793c0-6.826-4.412-12.466-10-13.023v14.28h10Z" transform="translate(126.641 41.413)"/><rect class="d" width="10.138" height="10.138" transform="translate(524.903 184.906)"/><rect class="d" width="10.138" height="10.138" transform="translate(539.454 184.906)"/><path class="e" d="M399.017,139.77H361.89v5.469h41.568V139.77Zm.443,2.727H365.074a.757.757,0,1,1,0-1.514H399.46a.757.757,0,1,1,0,1.514Z" transform="translate(154.873 59.816)"/><path class="a" d="M379.224,151.311a8.8,8.8,0,0,0,9.339-7.711H369.9a8.8,8.8,0,0,0,9.325,7.711Z" transform="translate(158.301 61.455)"/><path class="c" d="M398.732,140.62H364.347a.757.757,0,1,0,0,1.514h34.385a.757.757,0,1,0,0-1.514Z" transform="translate(155.601 60.179)"/><rect class="f" width="10.138" height="10.138" transform="translate(539.454 184.906)"/><rect class="f" width="10.138" height="10.138" transform="translate(524.903 184.906)"/><path class="e" d="M397.58,111.329v-1.756a16.307,16.307,0,0,0-32.6,0v49.893h32.715V111.329Zm-18.735,43.6H368.707V144.786h10.138Zm0-14.18H368.707V130.606h10.138Zm0-14.18H368.707V116.427h10.138Zm0-19.306v5.155h-10v-1.328c0-6.826,4.412-12.466,10-13.023Zm4.5,0v-9.2c5.569.557,10,6.2,10,13.023v1.328h-10Zm10,47.665H383.2V144.786h10.139Zm0-14.18H383.2V130.606h10.139Zm0-14.18H383.2V116.427h10.139Z" transform="translate(156.196 40.12)"/><rect class="d" width="10.138" height="10.138" transform="translate(524.903 156.547)"/><rect class="d" width="10.138" height="10.138" transform="translate(539.454 156.547)"/><rect class="d" width="10.138" height="10.138" transform="translate(524.903 170.727)"/><rect class="d" width="10.138" height="10.138" transform="translate(539.454 170.727)"/><path class="d" d="M367.7,109.772V111.1h10V96.82C372.112,97.305,367.7,102.946,367.7,109.772Z" transform="translate(157.36 41.435)"/><path class="d" d="M387.826,109.793c0-6.826-4.412-12.466-10-13.023v14.28h10Z" transform="translate(161.695 41.413)"/><rect class="d" width="10.138" height="10.138" transform="translate(464.4 290.332)"/><rect class="d" width="10.138" height="10.138" transform="translate(478.965 290.332)"/><path class="e" d="M356.647,213.6H319.52v5.483h41.539V213.6Zm.457,2.742H322.7a.771.771,0,0,1,0-1.528h34.4a.771.771,0,0,1,0,1.528Z" transform="translate(136.741 91.412)"/><path class="a" d="M336.869,225.151a8.8,8.8,0,0,0,9.325-7.711H327.53A8.8,8.8,0,0,0,336.869,225.151Z" transform="translate(140.169 93.055)"/><path class="c" d="M356.349,214.45h-34.4a.771.771,0,0,0,0,1.528h34.4a.771.771,0,0,0,0-1.528Z" transform="translate(137.495 91.775)"/><rect class="f" width="10.138" height="10.138" transform="translate(478.965 290.332)"/><rect class="f" width="10.138" height="10.138" transform="translate(464.4 290.332)"/><path class="e" d="M355.225,185.3v-1.742a16.307,16.307,0,1,0-32.615,0v49.879h32.714V185.3Zm-18.749,43.6H326.337V218.756h10.139Zm0-14.18H326.337V204.577h10.139Zm0-14.18H326.337V190.4h10.139Zm0-19.292V186.4h-10v-1.342c0-6.826,4.412-12.466,10-13.023Zm4.5,0v-9.21c5.569.557,10,6.2,10,13.023V186.4h-10Zm10,47.651H340.831V218.756h10.138Zm0-14.18H340.831V204.577h10.138Zm0-14.18H340.831V190.4h10.138Z" transform="translate(138.063 71.576)"/><rect class="d" width="10.138" height="10.138" transform="translate(464.4 261.973)"/><rect class="d" width="10.138" height="10.138" transform="translate(478.965 261.973)"/><rect class="d" width="10.138" height="10.138" transform="translate(464.4 276.153)"/><rect class="d" width="10.138" height="10.138" transform="translate(478.965 276.153)"/><path class="d" d="M325.34,183.623v1.342h10V170.6C329.752,171.171,325.34,176.8,325.34,183.623Z" transform="translate(139.232 73.009)"/><path class="d" d="M345.456,183.623c0-6.826-4.412-12.466-10-13.023v14.365h10Z" transform="translate(143.563 73.009)"/><rect class="d" width="10.138" height="10.138" transform="translate(407.939 290.332)"/><rect class="d" width="10.138" height="10.138" transform="translate(422.504 290.332)"/><path class="e" d="M317.127,213.6H280v5.483h41.539V213.6Zm.457,2.742H283.156a.771.771,0,0,1,0-1.528h34.4a.771.771,0,0,1,0,1.528Z" transform="translate(119.828 91.412)"/><path class="a" d="M297.31,225.151a8.8,8.8,0,0,0,9.339-7.711H288A8.8,8.8,0,0,0,297.31,225.151Z" transform="translate(123.252 93.055)"/><path class="c" d="M316.809,214.45h-34.4a.771.771,0,0,0,0,1.528h34.4a.771.771,0,0,0,0-1.528Z" transform="translate(120.574 91.775)"/><rect class="f" width="10.138" height="10.138" transform="translate(422.504 290.332)"/><rect class="f" width="10.138" height="10.138" transform="translate(407.939 290.332)"/><path class="e" d="M315.685,185.3v-1.742a16.307,16.307,0,1,0-32.615,0v49.879h32.743V185.3Zm-18.749,43.6H286.8V218.756h10.139Zm0-14.18H286.8V204.577h10.139Zm0-14.18H286.8V190.4h10.139Zm0-19.292V186.4h-10v-1.342c0-6.826,4.412-12.466,10-13.023Zm4.5,0v-9.21c5.569.557,10,6.2,10,13.023V186.4h-10Zm10,47.651H301.3V218.756h10.224Zm0-14.18H301.3V204.577h10.224Zm0-14.18H301.3V190.4h10.224Z" transform="translate(121.142 71.576)"/><rect class="d" width="10.138" height="10.138" transform="translate(407.939 261.973)"/><rect class="d" width="10.138" height="10.138" transform="translate(422.504 261.973)"/><rect class="d" width="10.138" height="10.138" transform="translate(407.939 276.153)"/><rect class="d" width="10.138" height="10.138" transform="translate(422.504 276.153)"/><path class="d" d="M285.79,183.623v1.342h10V170.6C290.2,171.171,285.79,176.8,285.79,183.623Z" transform="translate(122.306 73.009)"/><path class="d" d="M305.916,183.623c0-6.826-4.412-12.466-10-13.023v14.365h10Z" transform="translate(126.641 73.009)"/><rect class="d" width="10.138" height="10.138" transform="translate(524.903 290.332)"/><rect class="d" width="10.138" height="10.138" transform="translate(539.454 290.332)"/><path class="e" d="M399.017,213.6H361.89v5.483h41.568V213.6Zm.443,2.742H365.074a.771.771,0,1,1,0-1.528H399.46a.771.771,0,1,1,0,1.528Z" transform="translate(154.873 91.412)"/><path class="a" d="M379.224,225.151a8.8,8.8,0,0,0,9.339-7.711H369.9A8.8,8.8,0,0,0,379.224,225.151Z" transform="translate(158.301 93.055)"/><path class="c" d="M398.768,214.452H364.382a.771.771,0,1,0,0,1.528h34.385a.771.771,0,1,0,0-1.528Z" transform="translate(155.565 91.773)"/><rect class="f" width="10.138" height="10.138" transform="translate(539.454 290.332)"/><rect class="f" width="10.138" height="10.138" transform="translate(524.903 290.332)"/><path class="e" d="M397.582,185.444V183.7a16.307,16.307,0,1,0-32.6,0v49.879H397.7V185.444Zm-18.735,43.6H368.709V218.9h10.138Zm0-14.18H368.709V204.721h10.138Zm0-14.18H368.709V190.542h10.138Zm0-19.292v5.155h-10V185.2c0-6.826,4.412-12.466,10-13.023Zm4.5,0v-9.21c5.569.557,10,6.2,10,13.023v1.342h-10Zm10,47.651H383.2V218.9h10.139Zm0-14.18H383.2V204.721h10.139Zm0-14.18H383.2V190.542h10.139Z" transform="translate(156.194 71.431)"/><rect class="d" width="10.138" height="10.138" transform="translate(524.903 261.973)"/><rect class="d" width="10.138" height="10.138" transform="translate(539.454 261.973)"/><rect class="d" width="10.138" height="10.138" transform="translate(524.903 276.153)"/><rect class="d" width="10.138" height="10.138" transform="translate(539.454 276.153)"/><path class="d" d="M367.7,183.623v1.342h10V170.6C372.112,171.171,367.7,176.8,367.7,183.623Z" transform="translate(157.36 73.009)"/><path class="d" d="M387.826,183.623c0-6.826-4.412-12.466-10-13.023v14.365h10Z" transform="translate(161.695 73.009)"/><rect class="a" width="163.487" height="7.54" transform="translate(206.04 116.379)"/><rect class="b" width="163.487" height="199.257" transform="translate(206.04 123.918)"/><path class="a" d="M131.56,108.115V81.6L231.474,19.31v88.8Z" transform="translate(56.302 8.264)"/><path class="c" d="M235.848,0,121.34,71.969l9.425,11.552L235.848,16.807Z" transform="translate(51.928)"/><path class="e" d="M127.94,78.484l5.169,6.34,99.914-62.287V11.77Z" transform="translate(54.753 5.037)"/><path class="a" d="M229.2,25.37,136.88,82.917V94.226l92.317-56.9Z" transform="translate(58.579 10.857)"/><path class="b" d="M136.88,90.644v2.642H229.2V33.74Z" transform="translate(58.579 14.439)"/><path class="a" d="M301.444,108.115V81.6L201.53,19.31v88.8Z" transform="translate(86.246 8.264)"/><path class="c" d="M201.53,0,316.052,71.969l-9.425,11.552L201.53,16.807Z" transform="translate(86.246)"/><path class="e" d="M306.628,78.484l-5.183,6.34L201.53,22.537V11.77Z" transform="translate(86.246 5.037)"/><path class="a" d="M201.53,25.37l92.317,57.547V94.226l-92.317-56.9Z" transform="translate(86.246 10.857)"/><path class="b" d="M293.847,90.644v2.642H201.53V33.74Z" transform="translate(86.246 14.439)"/><rect class="d" width="10.138" height="10.138" transform="translate(274.539 185.592)"/><rect class="d" width="10.138" height="10.138" transform="translate(289.09 185.592)"/><path class="e" d="M223.687,140.25H186.56v5.469h41.554V140.25Zm.443,2.727H189.744a.771.771,0,1,1,0-1.528H224.13a.771.771,0,1,1,0,1.528Z" transform="translate(79.84 60.021)"/><path class="a" d="M203.895,151.791a8.8,8.8,0,0,0,9.339-7.711H194.57a8.8,8.8,0,0,0,9.325,7.711Z" transform="translate(83.268 61.66)"/><path class="c" d="M223.438,141.092H189.052a.771.771,0,1,0,0,1.528h34.385a.771.771,0,1,0,0-1.528Z" transform="translate(80.532 60.378)"/><rect class="f" width="10.138" height="10.138" transform="translate(289.09 185.592)"/><rect class="f" width="10.138" height="10.138" transform="translate(274.539 185.592)"/><path class="e" d="M222.252,112.084v-1.742a16.307,16.307,0,1,0-32.6,0v49.893h32.714V112.084Zm-18.735,43.61H193.379V145.6h10.139Zm0-14.18H193.379v-10.2h10.139Zm0-14.194H193.379V117.2h10.139Zm0-19.292v5.155h-10v-1.342c0-6.826,4.412-12.452,10-13.023Zm4.5,0v-9.21c5.569.571,10,6.2,10,13.023v1.342h-10Zm10,47.665H207.873V145.6h10.138Zm0-14.18H207.873v-10.2h10.138Zm0-14.194H207.873V117.2h10.138Z" transform="translate(81.16 40.036)"/><rect class="d" width="10.138" height="10.138" transform="translate(274.539 157.232)"/><rect class="d" width="10.138" height="10.138" transform="translate(289.09 157.232)"/><rect class="d" width="10.138" height="10.138" transform="translate(274.539 171.412)"/><rect class="d" width="10.138" height="10.138" transform="translate(289.09 171.412)"/><path class="d" d="M192.37,110.263v1.342h10V97.24C196.782,97.811,192.37,103.437,192.37,110.263Z" transform="translate(82.326 41.615)"/><path class="d" d="M212.5,110.263c0-6.826-4.412-12.452-10-13.023v14.365h10Z" transform="translate(86.661 41.615)"/><path class="e" d="M212.133,168.05h-8.568a18.292,18.292,0,0,0-18.235,18.235v64.972h45.038V186.285a18.278,18.278,0,0,0-18.235-18.235Zm-6.554,26.132v53.063H189.343V189.8c0-17.364,16.236-16.978,16.236-16.978Zm20.163.186V247.2H209.505V172.819s7.468-.157,12.28,5.155c2.27,2.513,3.955,6.24,3.955,11.824Z" transform="translate(79.313 71.918)"/><path class="g" d="M200.64,224.64v-3.77l-3.77,3.77Z" transform="translate(84.252 94.523)"/><path class="d" d="M188.14,188.386v20.62l16.236-16.236V171.35S188.14,171.022,188.14,188.386Z" transform="translate(80.516 73.33)"/><path class="d" d="M188.14,233.314h12.466l3.77-3.77V200.6L188.14,216.879Z" transform="translate(80.516 85.848)"/><path class="g" d="M188.14,222.977l16.236-16.236V186.35L188.14,202.586Z" transform="translate(80.516 79.75)"/><path class="g" d="M202.26,230.683H218.5V206.75L202.26,222.986Z" transform="translate(86.559 88.48)"/><path class="d" d="M202.26,171.39v17.435l12.28-12.28C209.728,171.233,202.26,171.39,202.26,171.39Z" transform="translate(86.559 73.347)"/><path class="g" d="M202.26,187.28v20.348L218.5,191.393v-4.569c0-5.583-1.685-9.31-3.955-11.823Z" transform="translate(86.559 74.893)"/><path class="d" d="M202.26,231.661,218.5,215.425V186.48L202.26,202.716Z" transform="translate(86.559 79.805)"/><rect class="c" width="225.874" height="15.251" transform="translate(173.283 323.175)"/><rect class="e" width="255.504" height="15.251" transform="translate(158.56 338.426)"/><rect class="a" width="284.649" height="15.251" transform="translate(143.495 353.691)"/><rect class="e" width="18.164" height="6.811" transform="translate(187.876 298.843)"/><rect class="e" width="18.164" height="7.54" transform="translate(187.876 116.379)"/><rect class="e" width="18.164" height="8.753" transform="translate(187.876 314.422)"/><rect class="c" width="18.164" height="8.753" transform="translate(187.876 305.654)"/><rect class="c" width="18.164" height="13.623" transform="translate(187.876 123.918)"/><rect class="c" width="18.164" height="154.491" transform="translate(187.876 144.352)"/><rect class="e" width="18.164" height="6.811" transform="translate(187.876 137.541)"/><rect class="e" width="18.164" height="6.811" transform="translate(235.242 298.843)"/><rect class="e" width="18.164" height="7.54" transform="translate(235.242 116.379)"/><rect class="c" width="18.164" height="8.753" transform="translate(235.242 305.654)"/><rect class="e" width="18.164" height="8.753" transform="translate(235.242 314.422)"/><rect class="c" width="18.164" height="13.623" transform="translate(235.242 123.918)"/><rect class="c" width="18.164" height="154.491" transform="translate(235.242 144.352)"/><rect class="e" width="18.164" height="6.811" transform="translate(235.242 137.541)"/><rect class="e" width="18.164" height="6.811" transform="translate(322.161 298.843)"/><rect class="e" width="18.164" height="7.54" transform="translate(322.161 116.379)"/><rect class="c" width="18.164" height="8.753" transform="translate(322.161 305.654)"/><rect class="e" width="18.164" height="8.753" transform="translate(322.161 314.422)"/><rect class="c" width="18.164" height="13.623" transform="translate(322.161 123.918)"/><rect class="c" width="18.164" height="154.491" transform="translate(322.161 144.352)"/><rect class="e" width="18.164" height="6.811" transform="translate(322.161 137.541)"/><rect class="e" width="18.164" height="6.811" transform="translate(369.527 298.843)"/><rect class="e" width="18.164" height="7.54" transform="translate(369.527 116.379)"/><rect class="e" width="18.164" height="8.753" transform="translate(369.527 314.422)"/><rect class="c" width="18.164" height="8.753" transform="translate(369.527 305.654)"/><rect class="c" width="18.164" height="13.623" transform="translate(369.527 123.918)"/><rect class="c" width="18.164" height="154.491" transform="translate(369.527 144.352)"/><rect class="e" width="18.164" height="6.811" transform="translate(369.527 137.541)"/><text class="h" transform="translate(251.078 89.768)"><tspan x="0" y="0">COLLEGE</tspan></text></svg>