<svg xmlns="http://www.w3.org/2000/svg" xmlns:xlink="http://www.w3.org/1999/xlink" width="457.385" height="407.866" viewBox="0 0 457.385 407.866"><defs><style>.a{fill:none;}.b,.c{fill:#173d7a;}.b{opacity:0.5;}.d{fill:#396caa;}.e{fill:#274f89;}.f{fill:#d4ecff;}.g{fill:#fff;}.h{fill:#5793ce;}.i{fill:#ff2c9c;}.j{opacity:0.3;}.k{clip-path:url(#a);}.l{fill:#79b1e0;}.m{fill:#d3008d;}.n{fill:#e573b5;}.o{clip-path:url(#b);}.p{fill:#b70083;}</style><clipPath id="a"><path class="a" d="M321.712,208.169l-25.99-106.085,98.188-58.2L337.244,17.76,264.338,45.876s-.446,128.463,0,129.755,27.007,44.391,27.007,44.391Z" transform="translate(-264.14 -17.76)"/></clipPath><clipPath id="b"><path class="a" d="M189.78,204.9,163.79,98.817l98.188-58.2L381.7,85.136,289.831,205.028s-75.855,43.225-75.432,44.516-55.008-32.79-55.008-32.79Z" transform="translate(-159.39 -40.62)"/></clipPath></defs><g transform="translate(0 0)"><path class="b" d="M228.394,333.248l163.162-94.21c4.572-2.663,4.035-7.315-1.291-10.4l-111.1-64.117c-5.337-3.086-13.395-3.429-18.012-.754L97.976,258.01c-4.572,2.663-4.035,7.315,1.3,10.4l111.1,64.117C215.708,335.579,223.777,335.911,228.394,333.248Z" transform="translate(-45.707 23.13)"/><path class="c" d="M221.967,99.077,391.758,1.049a6.858,6.858,0,0,1,5.715-.709h0l.309.114h.08L404,2.81l-5.5,2.709a1.432,1.432,0,0,0,.08.3L426.24,131.7c1.394,6.3-1.383,13.715-6.183,16.435L254.334,243.792l.583,7.029-6.7-2.606c-2.286-1.051-4.057-3.429-4.812-6.857l-27.647-125.88C214.4,109.2,217.167,101.843,221.967,99.077Z" transform="translate(-215.415 -0.014)"/><path class="d" d="M229.383,99.077,399.174,1.049a6.858,6.858,0,0,1,5.715-.709h0l.309.114h.08l6.137,2.354-5.5,2.709a1.432,1.432,0,0,0,.08.3L424.2,88.779,341.137,153.5,224,105.843A13.143,13.143,0,0,1,229.383,99.077Z" transform="translate(-222.831 -0.014)"/><path class="e" d="M390.614,105.927,377.7,100.418c-.24-5.006,1.829-10.172,5.234-12.938l20.458,8.595Z" transform="translate(-377.661 12.486)"/><path class="f" d="M245.333,249.852l169.791-98.027c4.8-2.766,7.578-10.126,6.195-16.424L393.66,9.52c-1.383-6.309-6.4-9.143-11.2-6.389L212.7,101.159c-4.8,2.766-7.578,10.126-6.183,16.424l27.613,125.88C235.561,249.772,240.533,252.629,245.333,249.852Z" transform="translate(-199.91 0.281)"/><path class="g" d="M242.6,100.627,412.38,2.611a6.7,6.7,0,0,1,6.686-.3,6.994,6.994,0,0,0-5.052.891L244.258,101.233c-4.8,2.766-7.577,10.126-6.183,16.424l27.613,125.88a9.6,9.6,0,0,0,4.514,6.686c-2.857-.629-5.257-3.234-6.137-7.28l-27.659-125.88C235.023,110.765,237.789,103.4,242.6,100.627Z" transform="translate(-231.465 0.207)"/><path class="g" d="M248.183,239.337,407.87,147.184c4.389-2.537,6.926-9.258,5.657-15.029l-25.3-115.194c-1.269-5.715-5.852-8.378-10.286-5.84L218.3,103.262c-4.4,2.537-6.938,9.269-5.715,15.029L237.931,233.5C239.2,239.257,243.794,241.874,248.183,239.337Z" transform="translate(-199.08 1.436)"/><path class="c" d="M248.183,239.337,407.87,147.184c4.389-2.537,6.926-9.258,5.657-15.029l-25.3-115.194c-1.269-5.715-5.852-8.378-10.286-5.84L218.3,103.262c-4.4,2.537-6.938,9.269-5.715,15.029L237.931,233.5C239.2,239.257,243.794,241.874,248.183,239.337Z" transform="translate(-199.08 1.436)"/><path class="h" d="M217.108,238.743,376.785,146.6c4.4-2.537,6.926-9.269,5.715-15.029L357.184,16.367a8.823,8.823,0,0,0-4.023-6.057c2.537.651,4.629,3.029,5.417,6.629l25.258,115.194c1.269,5.715-1.269,12.492-5.657,15.029L218.491,239.315a6.114,6.114,0,0,1-6.217.217,6.389,6.389,0,0,0,4.834-.789Z" transform="translate(-169.389 1.457)"/><path class="c" d="M89.545,234.043l23.213-3.063,149.813-86.5c4.8-2.777,13.189-2.434,18.744.766l106.154,61.271L401.5,204.67v8h0c.091,1.84-.96,3.612-3.223,4.915l-169.8,98.05c-4.8,2.777-13.189,2.423-18.732-.777L94.128,248.135c-3.12-1.806-4.674-4.126-4.572-6.3h0Z" transform="translate(-46.465 20.364)"/><path class="d" d="M89.545,175.559,100.2,169.41H217.208l57.683,33.282,14.035-1.852v8h0c.091,1.84-.96,3.612-3.223,4.915l-169.8,98.05a17.555,17.555,0,0,1-9.669,1.817Z" transform="translate(66.111 24.194)"/><path class="h" d="M89.545,197.733l6.229-.823v8h0c.091,1.84-.96,3.612-3.223,4.915l-3.006,1.691Z" transform="translate(259.263 28.124)"/><path class="e" d="M258.351,297A21.715,21.715,0,0,1,242.43,296V278.24h15.921Z" transform="translate(-78.042 39.747)"/><path class="f" d="M228.481,309.286l169.791-98.039c4.8-2.766,4.195-7.612-1.349-10.812L281.318,133.712c-5.555-3.212-13.944-3.554-18.744-.777L92.795,230.951c-4.812,2.777-4.206,7.623,1.337,10.823L209.749,308.5C215.292,311.7,223.681,312.052,228.481,309.286Z" transform="translate(-46.469 18.713)"/><path class="g" d="M94.131,229.616l115.617,66.723c5.543,3.2,13.932,3.543,18.732.777l169.791-98.027a6.3,6.3,0,0,0,2.983-3.269c.754,2.286-.206,4.572-2.983,6.172L228.48,300.031c-4.8,2.777-13.189,2.423-18.732-.777L94.131,232.53c-3.726-2.149-5.212-5.04-4.332-7.555a9.063,9.063,0,0,0,4.332,4.64Z" transform="translate(-46.468 27.969)"/><path class="h" d="M160.542,174.248l7.68-4.377c.617-.354.537-.983-.171-1.394l-9.075-5.235a2.629,2.629,0,0,0-2.4-.091l-7.68,4.434c-.617.354-.549.971.171,1.383l9.063,5.235A2.686,2.686,0,0,0,160.542,174.248Z" transform="translate(119.052 23.265)"/><path class="h" d="M170.922,180.244l7.68-4.434c.617-.354.537-.971-.171-1.383l-9.075-5.235a2.663,2.663,0,0,0-2.4-.1l-7.68,4.434c-.617.354-.549.983.171,1.383l9.063,5.246a2.686,2.686,0,0,0,2.412.091Z" transform="translate(96.808 24.115)"/><path class="h" d="M181.3,186.246l7.68-4.446c.617-.354.537-.971-.171-1.383l-9.075-5.235a2.663,2.663,0,0,0-2.4-.1l-7.68,4.434c-.617.354-.549.983.171,1.394l9.063,5.235a2.686,2.686,0,0,0,2.412.1Z" transform="translate(74.565 24.971)"/><path class="h" d="M194.291,181.189l7.635-4.423c.617-.366.537-.983-.171-1.394l-7.612-4.389a2.663,2.663,0,0,0-2.4-.1l-7.692,4.434c-.617.354-.537.971.183,1.383l7.6,4.4a2.7,2.7,0,0,0,2.457.091Z" transform="translate(45.163 24.37)"/><path class="h" d="M204.587,187.177l7.68-4.412c.617-.354.537-.983-.171-1.394l-7.612-4.389a2.663,2.663,0,0,0-2.4-.1l-7.692,4.434c-.617.354-.537.983.171,1.394l7.612,4.389a2.7,2.7,0,0,0,2.412.08Z" transform="translate(23.005 25.228)"/><path class="h" d="M214.967,193.166l7.68-4.4c.617-.354.537-.971-.171-1.383l-7.612-4.4a2.663,2.663,0,0,0-2.4-.1l-7.692,4.434c-.617.366-.537.983.171,1.394l7.612,4.389A2.7,2.7,0,0,0,214.967,193.166Z" transform="translate(0.761 26.085)"/><path class="h" d="M225.347,199.166l7.68-4.4c.617-.354.537-.971-.171-1.383l-7.612-4.4a2.629,2.629,0,0,0-2.4-.091l-7.692,4.435c-.617.354-.537.971.171,1.383l7.612,4.4A2.7,2.7,0,0,0,225.347,199.166Z" transform="translate(-21.482 26.943)"/><path class="h" d="M235.727,205.154l7.68-4.389c.617-.354.537-.983-.171-1.394l-7.612-4.389a2.663,2.663,0,0,0-2.4-.1l-7.692,4.435c-.617.354-.537.983.171,1.394l7.612,4.389a2.7,2.7,0,0,0,2.412.057Z" transform="translate(-43.726 27.8)"/><path class="h" d="M246.107,211.143l7.68-4.377c.617-.354.537-.983-.171-1.394L246,200.983a2.663,2.663,0,0,0-2.4-.1l-7.692,4.434c-.617.354-.537.983.171,1.394L243.7,211.1a2.7,2.7,0,0,0,2.412.046Z" transform="translate(-65.969 28.658)"/><path class="h" d="M256.527,217.14l7.68-4.435c.617-.354.537-.971-.171-1.383l-7.612-4.4a2.629,2.629,0,0,0-2.4-.091l-7.692,4.434c-.617.354-.537.971.171,1.383l7.612,4.4A2.652,2.652,0,0,0,256.527,217.14Z" transform="translate(-88.298 29.507)"/><path class="h" d="M266.867,223.14l7.68-4.435c.617-.366.537-.983-.171-1.394l-7.612-4.389a2.663,2.663,0,0,0-2.4-.1l-7.692,4.435c-.617.354-.537.971.171,1.383l7.612,4.4A2.7,2.7,0,0,0,266.867,223.14Z" transform="translate(-110.456 30.364)"/><path class="h" d="M277.247,229.13l7.68-4.434c.617-.354.537-.983-.171-1.394l-7.612-4.389a2.663,2.663,0,0,0-2.4-.1l-7.692,4.435c-.617.354-.537.983.171,1.394l7.612,4.389A2.7,2.7,0,0,0,277.247,229.13Z" transform="translate(-132.699 31.22)"/><path class="h" d="M287.627,235.12l7.68-4.435c.617-.354.537-.971-.171-1.383l-7.612-4.4a2.663,2.663,0,0,0-2.4-.1l-7.692,4.435c-.617.366-.537.983.171,1.394l7.612,4.4a2.686,2.686,0,0,0,2.412.091Z" transform="translate(-154.943 32.076)"/><path class="h" d="M209.527,178.32l7.68-4.434c.617-.354.537-.983-.171-1.394l-7.612-4.389a2.7,2.7,0,0,0-2.412-.1l-7.68,4.435c-.617.354-.537.983.171,1.394l7.612,4.389A2.686,2.686,0,0,0,209.527,178.32Z" transform="translate(12.419 23.959)"/><path class="h" d="M198.966,172.32l7.68-4.435c.617-.366.537-.983-.171-1.394l-7.612-4.389a2.663,2.663,0,0,0-2.4-.1l-7.692,4.434c-.617.354-.537.971.183,1.383l7.612,4.4a2.663,2.663,0,0,0,2.4.1Z" transform="translate(35.049 23.101)"/><path class="h" d="M180.649,166.809l16.549-9.543c.617-.366.537-.983-.171-1.394l-7.612-4.389a2.686,2.686,0,0,0-2.412-.1l-16.538,9.555c-.617.354-.549.971.171,1.383l7.6,4.4a2.629,2.629,0,0,0,2.412.091Z" transform="translate(65.423 21.584)"/><path class="h" d="M190.762,159.186l13.429-7.76c.606-.354.537-.971-.183-1.383l-7.612-4.4a2.663,2.663,0,0,0-2.4-.1l-13.429,7.76c-.617.354-.537.971.171,1.383l7.612,4.4A2.686,2.686,0,0,0,190.762,159.186Z" transform="translate(46.887 20.749)"/><path class="h" d="M219.877,184.32l7.68-4.434c.617-.354.537-.971-.171-1.383l-7.612-4.4a2.7,2.7,0,0,0-2.412-.1l-7.68,4.435c-.617.366-.537.983.171,1.394l7.612,4.389A2.686,2.686,0,0,0,219.877,184.32Z" transform="translate(-9.76 24.816)"/><path class="h" d="M230.235,190.318l7.692-4.423c.617-.354.537-.971-.171-1.383l-7.612-4.4a2.652,2.652,0,0,0-2.412-.091l-7.68,4.434c-.617.354-.537.971.171,1.383l7.612,4.4A2.652,2.652,0,0,0,230.235,190.318Z" transform="translate(-31.982 25.675)"/><path class="h" d="M240.637,196.32l7.68-4.435c.617-.354.537-.983-.171-1.394l-7.612-4.389a2.7,2.7,0,0,0-2.412-.1l-7.68,4.434c-.617.354-.537.983.171,1.394l7.612,4.389a2.686,2.686,0,0,0,2.412.1Z" transform="translate(-54.247 26.531)"/><path class="h" d="M251.017,202.32l7.68-4.434c.617-.354.537-.983-.171-1.394l-7.612-4.389a2.7,2.7,0,0,0-2.412-.1l-7.68,4.435c-.617.354-.537.983.171,1.394l7.612,4.389a2.686,2.686,0,0,0,2.412.1Z" transform="translate(-76.491 27.389)"/><path class="h" d="M261.4,208.32l7.68-4.435c.617-.354.537-.971-.171-1.383l-7.612-4.4a2.652,2.652,0,0,0-2.412-.091l-7.68,4.434c-.617.354-.537.971.171,1.383l7.589,4.389A2.652,2.652,0,0,0,261.4,208.32Z" transform="translate(-98.734 28.246)"/><path class="h" d="M271.777,214.32l7.68-4.434c.617-.366.537-.983-.171-1.394l-7.612-4.389a2.7,2.7,0,0,0-2.412-.1l-7.68,4.435c-.617.354-.537.971.171,1.383l7.612,4.4a2.686,2.686,0,0,0,2.412.1Z" transform="translate(-120.978 29.104)"/><path class="h" d="M282.157,220.32l7.68-4.435c.617-.354.537-.983-.171-1.394l-7.612-4.389a2.7,2.7,0,0,0-2.411-.1l-7.68,4.435c-.617.354-.537.983.171,1.394l7.612,4.389a2.686,2.686,0,0,0,2.411.1Z" transform="translate(-143.221 29.961)"/><path class="h" d="M292.538,226.329l7.68-4.435c.617-.354.537-.971-.171-1.383l-7.623-4.469a2.7,2.7,0,0,0-2.411-.1l-7.68,4.434c-.617.366-.537.983.171,1.394l7.612,4.4a2.72,2.72,0,0,0,2.423.16Z" transform="translate(-165.455 30.81)"/><path class="h" d="M302.917,232.321l7.68-4.446c.617-.354.537-.971-.171-1.383l-7.612-4.4A2.686,2.686,0,0,0,300.4,222l-7.68,4.434c-.617.354-.537.971.171,1.383l7.612,4.4a2.686,2.686,0,0,0,2.412.1Z" transform="translate(-187.708 31.675)"/><path class="h" d="M313.419,243.6l16.766-9.68c.617-.354.537-.971-.171-1.383l-7.612-4.4a2.7,2.7,0,0,0-2.411-.1l-16.755,9.68c-.617.354-.549.983.171,1.394l7.555,4.389A2.663,2.663,0,0,0,313.419,243.6Z" transform="translate(-219.308 32.538)"/><path class="h" d="M335.95,231.787l14.149-8.16c.617-.366.537-.983-.171-1.394l-7.612-4.4a2.663,2.663,0,0,0-2.4-.091l-14.184,8.1c-.617.366-.537.983.171,1.394l7.612,4.389A2.663,2.663,0,0,0,335.95,231.787Z" transform="translate(-264.937 31.067)"/><path class="h" d="M238.057,183.166l7.68-4.4c.617-.354.537-.983-.171-1.394l-7.612-4.389a2.686,2.686,0,0,0-2.412-.1l-7.68,4.435c-.617.354-.537.983.171,1.394l7.612,4.389a2.7,2.7,0,0,0,2.412.069Z" transform="translate(-48.719 24.656)"/><path class="h" d="M227.417,177.03l7.68-4.435c.617-.354.537-.983-.171-1.394l-7.612-4.389a2.7,2.7,0,0,0-2.412-.1l-7.68,4.435c-.617.354-.537.983.171,1.394l7.612,4.389A2.686,2.686,0,0,0,227.417,177.03Z" transform="translate(-25.918 23.775)"/><path class="h" d="M216.765,170.891l7.692-4.446c.617-.354.537-.971-.171-1.383l-7.612-4.4a2.686,2.686,0,0,0-2.412-.091L206.582,165c-.617.354-.537.971.171,1.383l7.612,4.4a2.663,2.663,0,0,0,2.4.1Z" transform="translate(-3.117 22.896)"/><path class="h" d="M206.136,164.74l7.68-4.434c.617-.354.549-.971-.171-1.383l-7.612-4.4a2.663,2.663,0,0,0-2.4-.1l-7.68,4.446c-.617.354-.549.971.171,1.383l7.612,4.4a2.628,2.628,0,0,0,2.4.091Z" transform="translate(19.673 22.018)"/><path class="h" d="M248.437,189.16l7.68-4.389c.617-.354.537-.971-.171-1.383l-7.612-4.446a2.686,2.686,0,0,0-2.412-.1l-7.68,4.435c-.617.366-.537.983.171,1.394l7.635,4.4A2.72,2.72,0,0,0,248.437,189.16Z" transform="translate(-70.962 25.508)"/><path class="h" d="M258.817,195.154l7.68-4.389c.617-.354.537-.971-.171-1.383l-7.612-4.4a2.686,2.686,0,0,0-2.412-.091l-7.68,4.434c-.617.354-.537.971.171,1.383l7.612,4.4a2.7,2.7,0,0,0,2.411.046Z" transform="translate(-93.205 26.372)"/><path class="h" d="M269.3,201.143l7.623-4.377c.617-.354.537-.983-.171-1.394l-7.612-4.389a2.686,2.686,0,0,0-2.411-.1l-7.68,4.434c-.617.354-.537.983.171,1.394l7.612,4.389a2.7,2.7,0,0,0,2.469.046Z" transform="translate(-115.556 27.229)"/><path class="h" d="M279.577,207.14l7.68-4.434c.617-.354.537-.983-.171-1.394l-7.612-4.389a2.686,2.686,0,0,0-2.411-.1l-7.68,4.434c-.617.354-.537.983.171,1.394l7.612,4.389A2.7,2.7,0,0,0,279.577,207.14Z" transform="translate(-137.692 28.078)"/><path class="h" d="M289.957,213.13l7.68-4.435c.617-.354.537-.971-.171-1.383l-7.612-4.4a2.652,2.652,0,0,0-2.411-.091l-7.68,4.435c-.617.354-.537.971.171,1.383l7.612,4.4A2.651,2.651,0,0,0,289.957,213.13Z" transform="translate(-159.936 28.934)"/><path class="h" d="M300.337,219.13l7.68-4.435c.617-.366.537-.983-.171-1.394l-7.612-4.389a2.686,2.686,0,0,0-2.412-.1l-7.68,4.434c-.617.354-.537.971.171,1.383l7.612,4.4a2.7,2.7,0,0,0,2.412.1Z" transform="translate(-182.179 29.791)"/><path class="h" d="M310.717,225.12l7.68-4.434c.617-.354.537-.983-.171-1.394l-7.612-4.389a2.686,2.686,0,0,0-2.412-.1l-7.68,4.435c-.617.354-.537.983.171,1.394l7.612,4.389a2.7,2.7,0,0,0,2.412.1Z" transform="translate(-204.423 30.647)"/><path class="h" d="M321.1,231.11l7.68-4.434c.617-.354.537-.971-.171-1.383l-7.612-4.4a2.686,2.686,0,0,0-2.412-.1l-7.68,4.435c-.617.366-.537.983.171,1.394l7.612,4.4a2.686,2.686,0,0,0,2.412.091Z" transform="translate(-226.666 31.503)"/><path class="h" d="M331.527,237.111l7.68-4.434c.617-.366.537-.983-.171-1.394l-7.612-4.4a2.686,2.686,0,0,0-2.412-.091l-7.68,4.434c-.617.354-.537.971.171,1.383l7.612,4.4a2.7,2.7,0,0,0,2.412.1Z" transform="translate(-249.017 32.36)"/><path class="h" d="M232.576,168.32l7.692-4.434c.617-.366.537-.983-.183-1.394l-7.612-4.4a2.7,2.7,0,0,0-2.4-.091l-7.68,4.435c-.617.354-.537.971.171,1.383l7.612,4.4a2.663,2.663,0,0,0,2.4.1Z" transform="translate(-36.998 22.53)"/><path class="h" d="M222.213,162.38l7.7-4.435c.617-.354.549-.971-.171-1.383l-7.612-4.4a2.663,2.663,0,0,0-2.4-.1l-7.68,4.446c-.617.354-.549.971.171,1.383l7.589,4.423a2.663,2.663,0,0,0,2.4.069Z" transform="translate(-14.828 21.681)"/><path class="h" d="M211.936,156.42l7.68-4.435c.617-.354.537-.983-.171-1.394l-7.612-4.389a2.663,2.663,0,0,0-2.4-.1l-7.692,4.434c-.617.354-.537.983.183,1.394l7.612,4.377A2.663,2.663,0,0,0,211.936,156.42Z" transform="translate(7.255 20.829)"/><path class="h" d="M201.607,150.46l7.68-4.434c.617-.366.537-.983-.171-1.394l-7.612-4.389a2.686,2.686,0,0,0-2.412-.1l-7.68,4.446c-.617.354-.537.971.171,1.383l7.612,4.4a2.7,2.7,0,0,0,2.412.091Z" transform="translate(29.391 19.977)"/><path class="h" d="M207.172,143.951l7.658-4.435c.617-.354.537-.971-.171-1.383l-2.514-1.452a2.7,2.7,0,0,0-2.412-.1l-7.68,4.434c-.617.354-.537.983.171,1.394l2.514,1.452a2.7,2.7,0,0,0,2.434.091Z" transform="translate(11.687 19.469)"/><path class="h" d="M220.609,151.743l7.68-4.434c.617-.366.537-.983-.171-1.394l-2.514-1.452a2.686,2.686,0,0,0-2.412-.1l-7.68,4.434c-.617.354-.537.983.171,1.394l2.514,1.451a2.7,2.7,0,0,0,2.412.1Z" transform="translate(-17.156 20.58)"/><path class="h" d="M230.882,157.683l7.692-4.446c.617-.354.537-.971-.171-1.383l-2.526-1.452a2.663,2.663,0,0,0-2.4-.1l-7.68,4.434c-.617.354-.549.983.171,1.394l2.514,1.451A2.663,2.663,0,0,0,230.882,157.683Z" transform="translate(-39.189 21.429)"/><path class="h" d="M241.115,163.611l7.715-4.434c.617-.354.537-.971-.171-1.383l-2.514-1.452a2.7,2.7,0,0,0-2.412-.1l-7.68,4.434c-.617.354-.537.983.171,1.394l2.514,1.452a2.651,2.651,0,0,0,2.377.091Z" transform="translate(-61.172 22.278)"/><path class="h" d="M251.413,169.552l7.692-4.434c.617-.354.537-.971-.183-1.383l-2.514-1.463a2.663,2.663,0,0,0-2.4-.091l-7.68,4.435c-.617.354-.549.971.171,1.383l2.514,1.452A2.663,2.663,0,0,0,251.413,169.552Z" transform="translate(-83.184 23.126)"/><path class="h" d="M308.885,202.7l7.68-4.434c.617-.354.549-.971-.171-1.383l-2.514-1.451a2.663,2.663,0,0,0-2.4-.1l-7.692,4.434c-.617.354-.537.983.183,1.394l2.514,1.451a2.629,2.629,0,0,0,2.4.091Z" transform="translate(-206.328 27.865)"/><path class="h" d="M319.127,208.641l7.7-4.435c.617-.354.537-.971-.171-1.383l-2.514-1.452a2.7,2.7,0,0,0-2.412-.1l-7.68,4.435c-.617.354-.537.971.171,1.383l2.514,1.463A2.72,2.72,0,0,0,319.127,208.641Z" transform="translate(-228.319 28.714)"/><path class="h" d="M329.426,214.583l7.68-4.435c.617-.354.549-.983-.171-1.394l-2.514-1.452a2.652,2.652,0,0,0-2.411-.091l-7.68,4.434c-.617.354-.537.971.171,1.383l2.526,1.452a2.663,2.663,0,0,0,2.4.1Z" transform="translate(-250.345 29.561)"/><path class="h" d="M339.739,220.523l7.68-4.435c.617-.354.537-.983-.171-1.394l-2.514-1.452a2.7,2.7,0,0,0-2.412-.1l-7.68,4.435c-.617.366-.537.983.171,1.394l2.514,1.452A2.686,2.686,0,0,0,339.739,220.523Z" transform="translate(-272.441 30.41)"/><path class="h" d="M242.956,174.32l7.692-4.435c.617-.354.537-.983-.183-1.394l-7.612-4.389a2.663,2.663,0,0,0-2.4-.1l-7.68,4.434c-.617.354-.537.983.171,1.394l7.612,4.389a2.663,2.663,0,0,0,2.4.1Z" transform="translate(-59.241 23.387)"/><path class="h" d="M253.313,180.317l7.692-4.435c.617-.354.537-.971-.183-1.383l-7.612-4.4a2.663,2.663,0,0,0-2.377-.069l-7.68,4.434c-.617.366-.537.983.171,1.394l7.612,4.389a2.663,2.663,0,0,0,2.377.069Z" transform="translate(-81.462 24.248)"/><path class="h" d="M263.716,186.321l7.692-4.446c.617-.354.537-.971-.183-1.383l-7.612-4.4a2.629,2.629,0,0,0-2.4-.091l-7.68,4.435c-.617.354-.537.971.171,1.383l7.612,4.4a2.663,2.663,0,0,0,2.4.1Z" transform="translate(-103.728 25.101)"/><path class="h" d="M274.1,192.32l7.692-4.434c.617-.354.537-.983-.183-1.394l-7.612-4.389a2.663,2.663,0,0,0-2.4-.1l-7.68,4.434c-.617.354-.537.983.171,1.394l7.612,4.389A2.663,2.663,0,0,0,274.1,192.32Z" transform="translate(-125.972 25.96)"/><path class="h" d="M284.506,198.32l7.692-4.435c.617-.354.537-.983-.183-1.394L284.4,188.1a2.663,2.663,0,0,0-2.4-.1l-7.68,4.435c-.617.354-.537.983.171,1.394l7.612,4.389A2.663,2.663,0,0,0,284.506,198.32Z" transform="translate(-148.279 26.817)"/><path class="h" d="M294.856,204.32l7.692-4.435c.617-.354.537-.971-.183-1.383l-7.612-4.4a2.629,2.629,0,0,0-2.4-.091l-7.68,4.434c-.617.354-.537.971.171,1.383l7.612,4.4A2.629,2.629,0,0,0,294.856,204.32Z" transform="translate(-170.458 27.675)"/><path class="h" d="M305.236,210.323l7.692-4.457c.617-.366.537-.983-.183-1.394l-7.612-4.389a2.663,2.663,0,0,0-2.4-.1l-7.68,4.434c-.617.354-.537.971.171,1.383l7.612,4.4a2.663,2.663,0,0,0,2.4.126Z" transform="translate(-192.702 28.529)"/><path class="h" d="M315.616,216.329l7.692-4.434c.617-.354.537-.983-.183-1.394l-7.612-4.457a2.663,2.663,0,0,0-2.4-.1l-7.68,4.435c-.617.354-.537.983.171,1.394l7.612,4.389a2.663,2.663,0,0,0,2.4.171Z" transform="translate(-214.945 29.381)"/><path class="h" d="M326,222.32l7.692-4.435c.606-.354.537-.971-.183-1.383l-7.612-4.4a2.663,2.663,0,0,0-2.4-.1l-7.68,4.434c-.617.366-.537.983.171,1.394l7.612,4.4A2.663,2.663,0,0,0,326,222.32Z" transform="translate(-237.193 30.247)"/><path class="h" d="M170.531,176.159,193.149,163.1c.617-.354.549-.983-.171-1.394l-7.612-4.389a2.663,2.663,0,0,0-2.4-.1l-22.607,13.063c-.617.354-.537.983.171,1.394l7.612,4.389a2.7,2.7,0,0,0,2.389.1Z" transform="translate(81.016 22.417)"/><path class="h" d="M298.077,249.771l22.618-13.006c.617-.354.537-.971-.171-1.383l-7.612-4.4a2.663,2.663,0,0,0-2.4-.091l-22.63,13.063c-.617.354-.537.971.171,1.383l7.612,4.4a2.652,2.652,0,0,0,2.411.034Z" transform="translate(-192.274 32.946)"/><path class="h" d="M271.088,238.074l7.68-4.435c.617-.354.537-.971-.171-1.383l-9.063-5.235a2.7,2.7,0,0,0-2.411-.1l-7.68,4.435c-.617.354-.537.983.171,1.394l9.063,5.235A2.652,2.652,0,0,0,271.088,238.074Z" transform="translate(-117.843 32.379)"/><path class="h" d="M191.721,194.887l12.263-7.086c.617-.354.537-.983-.171-1.394l-9.075-5.235a2.663,2.663,0,0,0-2.4-.1l-12.286,7.1c-.617.354-.537.983.171,1.394l9.063,5.235a2.652,2.652,0,0,0,2.434.091Z" transform="translate(47.677 25.827)"/><path class="h" d="M257.058,232.637l12.286-7.1c.617-.354.537-.971-.171-1.383l-9.075-5.235a2.663,2.663,0,0,0-2.4-.1l-12.286,7.1c-.617.354-.537.971.171,1.383l9.063,5.235A2.7,2.7,0,0,0,257.058,232.637Z" transform="translate(-92.384 31.222)"/><path class="h" d="M206.744,203.537l12.241-7.1c.617-.354.537-.971-.171-1.383l-9.063-5.235a2.7,2.7,0,0,0-2.412-.1l-12.286,7.1c-.617.354-.537.971.171,1.383l9.075,5.235a2.663,2.663,0,0,0,2.446.1Z" transform="translate(15.533 27.063)"/><path class="h" d="M248.947,189.73l-53.42,30.859c-.663.377-.663.994,0,1.383l9.246,5.337a2.686,2.686,0,0,0,2.4,0l53.42-30.859Z" transform="translate(-26.11 27.098)"/><path class="h" d="M298.6,247.546l-8.56,4.937c-.5.3-.446.8.137,1.143l3.714,2.137a2.172,2.172,0,0,0,1.977.08l8.583-4.937c.514-.286.446-.8-.137-1.143l-3.714-2.149A2.217,2.217,0,0,0,298.6,247.546Z" transform="translate(-178.51 35.331)"/><path class="h" d="M288.156,241.505l-8.549,4.937c-.514.3-.446.8.137,1.143l3.714,2.137a2.149,2.149,0,0,0,1.966.08l8.56-4.937c.5-.3.446-.8-.137-1.143l-3.714-2.137A2.171,2.171,0,0,0,288.156,241.505Z" transform="translate(-156.112 34.469)"/><path class="h" d="M277.776,235.514l-8.549,4.937c-.514.286-.446.8.137,1.143l3.714,2.149a2.217,2.217,0,0,0,1.966.08l8.56-4.937c.5-.3.446-.8-.137-1.143l-3.714-2.137A2.172,2.172,0,0,0,277.776,235.514Z" transform="translate(-133.869 33.613)"/><path class="h" d="M293.893,238.194l-8.56,4.937c-.5.3-.434.8.149,1.143l3.7,2.137a2.171,2.171,0,0,0,1.977.08l8.56-4.937c.5-.3.434-.8-.149-1.143l-3.7-2.137A2.206,2.206,0,0,0,293.893,238.194Z" transform="translate(-168.397 33.996)"/><path class="f" d="M276.3,126.363,340.2,89.47l-.823-4.16-63.9,36.9Z" transform="translate(-197.667 12.176)"/><path class="f" d="M273.151,131.1l44.608-25.75-.823-4.149-44.6,25.75Z" transform="translate(-171.635 14.446)"/><path class="g" d="M274.733,119.7l38.585-22.287-.823-4.149L273.91,115.535Z" transform="translate(-168.987 13.312)"/><path class="i" d="M313.763,131.082l19.292-11.143-.823-4.149L312.94,126.933Z" transform="translate(-233.333 16.531)"/><path class="f" d="M253.463,59.154,272.755,48.01l-.823-4.16L252.64,54.993Z" transform="translate(-104.115 6.25)"/><path class="g" d="M251.633,67.6,270.925,56.46,270.1,52.3,250.81,63.443Z" transform="translate(-100.194 7.458)"/><path class="f" d="M334.493,184.762l19.292-11.143-.823-4.149L333.67,180.613Z" transform="translate(-277.755 24.203)"/><path class="f" d="M247.973,84.492l19.292-11.143-.823-4.149L247.15,80.332Z" transform="translate(-92.351 9.873)"/><path class="i" d="M296.451,85.717a2.412,2.412,0,0,0,3.429,1.063A3.029,3.029,0,0,0,301.125,83a2.412,2.412,0,0,0-3.429-1.074,3.04,3.04,0,0,0-1.246,3.794Z" transform="translate(-182.522 11.643)"/><path class="g" d="M303.682,89.907a2.411,2.411,0,0,0,3.429,1.074,3.04,3.04,0,0,0,1.291-3.806,2.411,2.411,0,0,0-3.429-1.063,3.017,3.017,0,0,0-1.292,3.794Z" transform="translate(-198.062 12.241)"/><path class="f" d="M311,94.106a2.412,2.412,0,0,0,3.429,1.074,3.029,3.029,0,0,0,1.234-3.794,2.4,2.4,0,0,0-3.429-1.063A3.017,3.017,0,0,0,311,94.106Z" transform="translate(-213.689 12.842)"/><path class="i" d="M318.263,98.306a2.412,2.412,0,0,0,3.429,1.074,3.029,3.029,0,0,0,1.246-3.794,2.4,2.4,0,0,0-3.429-1.063,3.006,3.006,0,0,0-1.246,3.783Z" transform="translate(-229.261 13.443)"/><path class="g" d="M193.683,255.756l52.974-30.584c1.531-.891,1.349-2.446-.434-3.429l-32-18.447a6.7,6.7,0,0,0-6.023-.251l-52.963,30.584c-1.543.891-1.349,2.446.423,3.429l32,18.447a6.7,6.7,0,0,0,6.023.251Z" transform="translate(33.463 28.916)"/><g class="j" transform="translate(25.726 20.282)"><g class="k"><path class="f" d="M246.716,129.134c-3.646,2.1-3.646,5.532,0,7.635l61.98,35.819a4.069,4.069,0,0,0,3.634,0,1.143,1.143,0,0,0,0-2.1l-62.026-35.807c-1.646-.949-1.646-2.5,0-3.429l6.012-3.429c-.663-1.006-1.269-2.057-1.863-3.12Z" transform="translate(-160.217 -2.477)"/><path class="h" d="M304.634,158.225l-62.026-35.807a14.7,14.7,0,0,0-13.246,0l-4.8,2.777c.594,1.063,1.2,2.114,1.863,3.12L233,124.509a6.629,6.629,0,0,1,5.977,0L301,160.327a4,4,0,0,0,3.634,0,1.143,1.143,0,0,0,0-2.1Z" transform="translate(-130.325 -3.029)"/><path class="h" d="M312.777,170.053l.011-87.227L247.78,46.6l-9.086-.606L229.9,51.682l-5.395,4.7,63.329,100.428L308.514,169Z" transform="translate(-137.725 -13.726)"/><path class="l" d="M229.156,176.112l19.43-11.212V80.61l-20.035,9.3Z" transform="translate(-78.139 -8.778)"/><path class="f" d="M243.93,55.67v87.078l68.232,39.03.914-.366v-87.2Z" transform="translate(-160.208 -12.342)"/><path class="g" d="M261.467,57.341,247.9,49.558a6.64,6.64,0,0,0-5.612.16l-12.572,7.269a1.92,1.92,0,0,0-1.143,2.069l34.287,20.481,27.453,16.892,19.5-11.3Z" transform="translate(-139.366 -13.294)"/><path class="h" d="M243.93,88.19v90.073a3.577,3.577,0,0,0,1.7-.423,1.314,1.314,0,0,0,.754-1.029h0V89.561Z" transform="translate(-93.519 -7.695)"/><path class="g" d="M224.967,79.306V78.22h-.354l-.1.743Z" transform="translate(-49.903 -9.12)"/><path class="g" d="M244.261,90.519V89.41l-.331.469Z" transform="translate(-91.393 -7.52)"/><path class="f" d="M289.276,96.835,227.3,61.062c-3.646-2.1-3.646-5.532,0-7.635l12.572-7.269a14.629,14.629,0,0,1,13.246,0L315.106,81.92a1.143,1.143,0,0,1,0,2.1,4.069,4.069,0,0,1-3.634,0L249.446,48.2a6.629,6.629,0,0,0-5.977,0L230.9,55.473c-1.646.949-1.646,2.5,0,3.429l62.014,35.83a1.143,1.143,0,0,1,0,2.1,4.069,4.069,0,0,1-3.634,0Z" transform="translate(-140.797 -13.928)"/><path class="g" d="M294.14,132.788l-32.23-18.607V81.86l32.23,18.618Z" transform="translate(-161.821 -8.599)"/><path class="g" d="M309.969,83.658a4.069,4.069,0,0,1-3.634,0L244.308,47.839a6.629,6.629,0,0,0-5.977,0l-12.572,7.269c-1.074.629-1.44,1.5-1.143,2.286a2.4,2.4,0,0,1,1.143-1.143l12.572-7.269a6.629,6.629,0,0,1,5.977,0L306.334,84.8a4,4,0,0,0,3.634,0c.754-.434.937-1.143.549-1.623A1.92,1.92,0,0,1,309.969,83.658Z" transform="translate(-135.659 -13.563)"/><path class="g" d="M312.271,95.179a4.069,4.069,0,0,1-3.634,0l-61.98-35.773a5,5,0,0,1-2.674-3.246c-.286,1.566.594,3.2,2.674,4.4l61.98,35.762a4,4,0,0,0,3.634,0c.766-.434.949-1.143.549-1.623a1.782,1.782,0,0,1-.549.48Z" transform="translate(-160.157 -12.272)"/><path class="i" d="M271.676,143.9c-3.646,2.1-3.646,5.532,0,7.646L333.7,187.358a4,4,0,0,0,3.634,0,1.143,1.143,0,0,0,0-2.1l-62.026-35.807c-1.646-.949-1.646-2.492,0-3.429l6.012-3.429c-.674-1.006-1.28-2.057-1.863-3.12Z" transform="translate(-213.75 -0.366)"/><path class="m" d="M329.619,173.005,267.582,137.2a14.675,14.675,0,0,0-13.258,0l-4.8,2.777a29.965,29.965,0,0,0,1.863,3.12l6.572-3.794a6.629,6.629,0,0,1,5.977,0l62.049,35.8a4,4,0,0,0,3.634,0,1.143,1.143,0,0,0,0-2.092Z" transform="translate(-183.825 -0.917)"/><path class="m" d="M337.737,184.823V97.6l-65-36.23-9.086-.606-8.789,5.7-5.395,4.686L312.8,171.588l20.675,12.183Z" transform="translate(-191.2 -11.615)"/><path class="n" d="M254.106,190.893l19.43-11.223V95.38l-20.035,9.3Z" transform="translate(-131.605 -6.667)"/><path class="i" d="M268.88,70.44v87.078l68.232,39.042.914-.366V108.979Z" transform="translate(-213.674 -10.231)"/><path class="g" d="M286.456,72.111l-13.566-7.783a6.686,6.686,0,0,0-5.612.16l-12.572,7.269c-.971.571-1.372,1.337-1.143,2.069L287.85,94.306,315.383,111.2l19.418-11.3Z" transform="translate(-192.87 -11.182)"/><path class="m" d="M268.85,103v90.027a3.577,3.577,0,0,0,1.7-.423,1.291,1.291,0,0,0,.754-1.029h0v-87.25Z" transform="translate(-146.92 -5.578)"/><path class="g" d="M249.916,94.076V92.99h-.343l-.1.743Z" transform="translate(-103.379 -7.009)"/><path class="g" d="M269.223,105.289V104.18l-.343.469Z" transform="translate(-144.87 -5.41)"/><path class="i" d="M314.284,111.61,252.246,75.791c-3.646-2.1-3.646-5.532,0-7.635l12.572-7.269a14.675,14.675,0,0,1,13.235,0l62.06,35.785a1.143,1.143,0,0,1,0,2.1,4,4,0,0,1-3.634,0L274.453,62.967a6.56,6.56,0,0,0-5.977,0L255.9,70.225c-1.646.949-1.646,2.5,0,3.429l62.026,35.807a1.143,1.143,0,0,1,0,2.1A4.069,4.069,0,0,1,314.284,111.61Z" transform="translate(-194.32 -11.822)"/><path class="g" d="M319.09,147.557,286.86,128.95V96.64l32.23,18.607Z" transform="translate(-215.287 -6.487)"/><path class="g" d="M334.919,98.427a4,4,0,0,1-3.634,0L269.258,62.62a6.56,6.56,0,0,0-5.977,0l-12.572,7.257c-1.074.629-1.44,1.509-1.143,2.286a2.5,2.5,0,0,1,1.143-1.143l12.572-7.269a6.629,6.629,0,0,1,5.977,0L331.284,99.57a4,4,0,0,0,3.634,0c.754-.434.937-1.074.549-1.623a1.76,1.76,0,0,1-.549.48Z" transform="translate(-189.125 -11.452)"/><path class="g" d="M337.292,109.955a4.069,4.069,0,0,1-3.634,0L271.62,74.136a4.994,4.994,0,0,1-2.674-3.246c-.3,1.577.594,3.2,2.674,4.4L333.646,111.1a4,4,0,0,0,3.634,0c.766-.434.949-1.086.549-1.623a1.76,1.76,0,0,1-.537.48Z" transform="translate(-213.693 -10.167)"/><path class="f" d="M297.306,159.693c-3.646,2.1-3.646,5.532,0,7.635l62.026,35.819a4.069,4.069,0,0,0,3.634,0,1.143,1.143,0,0,0,0-2.1l-62.026-35.8c-1.646-.949-1.646-2.5,0-3.429l6.012-3.429c-.663-1.006-1.269-2.057-1.863-3.12Z" transform="translate(-268.673 1.892)"/><path class="h" d="M355.125,188.785l-61.992-35.807a14.675,14.675,0,0,0-13.235,0l-4.812,2.777c.594,1.063,1.2,2.114,1.863,3.12l6.572-3.806a6.629,6.629,0,0,1,5.977,0l61.991,35.876a4.069,4.069,0,0,0,3.634,0,1.143,1.143,0,0,0,0-2.16Z" transform="translate(-238.636 1.339)"/><path class="h" d="M363.367,200.613l.011-87.227L298.37,77.156l-9.086-.606-8.789,5.692-5.395,4.7,63.329,100.428L359.1,199.561Z" transform="translate(-246.135 -9.358)"/><path class="l" d="M279.746,206.672l19.429-11.212V111.17l-20.035,9.3Z" transform="translate(-186.549 -4.411)"/><path class="f" d="M294.52,86.23v87.078l68.232,39.03.914-.366v-87.2Z" transform="translate(-268.618 -7.975)"/><path class="g" d="M312.057,87.907l-13.566-7.84a6.686,6.686,0,0,0-5.612.171l-12.572,7.269a1.92,1.92,0,0,0-1.143,2.069l34.287,20.481L340.9,126.995l19.5-11.315Z" transform="translate(-247.776 -8.932)"/><path class="h" d="M294.52,118.75v90.038a3.577,3.577,0,0,0,1.7-.423,1.314,1.314,0,0,0,.754-1.029h0V120.179Z" transform="translate(-201.929 -3.327)"/><path class="g" d="M275.557,109.866V108.78H275.2l-.1.743Z" transform="translate(-158.313 -4.752)"/><path class="g" d="M294.851,121.079V119.97l-.331.469Z" transform="translate(-199.803 -3.153)"/><path class="f" d="M339.932,127.4,277.906,91.582c-3.646-2.1-3.646-5.532,0-7.635l12.572-7.269a14.6,14.6,0,0,1,13.235,0l62.026,35.807a1.143,1.143,0,0,1,0,2.1,4.069,4.069,0,0,1-3.634,0L300.079,78.77a6.629,6.629,0,0,0-5.977,0l-12.572,7.269c-1.646.949-1.646,2.492,0,3.429l62.037,35.807a1.143,1.143,0,0,1,0,2.1,4.069,4.069,0,0,1-3.634.023Z" transform="translate(-249.272 -9.567)"/><path class="g" d="M344.73,163.348,312.5,144.73V112.42l32.23,18.618Z" transform="translate(-270.231 -4.232)"/><path class="g" d="M360.559,114.218a4.069,4.069,0,0,1-3.634,0L294.9,78.4a6.629,6.629,0,0,0-5.977,0l-12.572,7.269c-1.074.629-1.44,1.5-1.143,2.286a2.4,2.4,0,0,1,1.143-1.143l12.572-7.269a6.629,6.629,0,0,1,5.977,0l62.026,35.807a4,4,0,0,0,3.634,0c.754-.434.937-1.143.549-1.623a1.92,1.92,0,0,1-.549.491Z" transform="translate(-244.069 -9.196)"/><path class="g" d="M362.971,125.745a4.069,4.069,0,0,1-3.634,0L297.311,89.926A5,5,0,0,1,294.6,86.68c-.286,1.566.594,3.2,2.674,4.4L359.3,126.888a4,4,0,0,0,3.634,0c.766-.434.949-1.143.549-1.623A1.783,1.783,0,0,1,362.971,125.745Z" transform="translate(-268.677 -7.911)"/></g></g><g class="o" transform="translate(52.909 46.409)"><path class="f" d="M246.716,129.134c-3.646,2.1-3.646,5.532,0,7.635l61.98,35.819a4.069,4.069,0,0,0,3.634,0,1.143,1.143,0,0,0,0-2.1l-62.026-35.807c-1.646-.949-1.646-2.5,0-3.429l6.012-3.429c-.663-1.006-1.269-2.057-1.863-3.12Z" transform="translate(-187.399 -28.604)"/><path class="h" d="M304.634,158.225l-62.026-35.807a14.7,14.7,0,0,0-13.246,0l-4.8,2.777c.594,1.063,1.2,2.114,1.863,3.12L233,124.509a6.629,6.629,0,0,1,5.977,0L301,160.327a4,4,0,0,0,3.634,0,1.143,1.143,0,0,0,0-2.1Z" transform="translate(-157.507 -29.156)"/><path class="h" d="M312.777,170.053l.011-87.227L247.78,46.6l-9.086-.606L229.9,51.682l-5.395,4.7,63.329,100.428L308.514,169Z" transform="translate(-164.907 -39.853)"/><path class="l" d="M229.156,176.112l19.43-11.212V80.61l-20.035,9.3Z" transform="translate(-105.321 -34.905)"/><path class="f" d="M243.93,55.67v87.078l68.232,39.03.914-.366v-87.2Z" transform="translate(-187.39 -38.469)"/><path class="g" d="M261.467,57.341,247.9,49.558a6.64,6.64,0,0,0-5.612.16l-12.572,7.269a1.92,1.92,0,0,0-1.143,2.069l34.287,20.481,27.453,16.892,19.5-11.3Z" transform="translate(-166.548 -39.421)"/><path class="h" d="M243.93,88.19v90.073a3.577,3.577,0,0,0,1.7-.423,1.314,1.314,0,0,0,.754-1.029h0V89.561Z" transform="translate(-120.701 -33.822)"/><path class="g" d="M224.967,79.306V78.22h-.354l-.1.743Z" transform="translate(-77.086 -35.247)"/><path class="g" d="M244.261,90.519V89.41l-.331.469Z" transform="translate(-118.575 -33.647)"/><path class="f" d="M289.276,96.835,227.3,61.062c-3.646-2.1-3.646-5.532,0-7.635l12.572-7.269a14.629,14.629,0,0,1,13.246,0L315.106,81.92a1.143,1.143,0,0,1,0,2.1,4.069,4.069,0,0,1-3.634,0L249.446,48.2a6.629,6.629,0,0,0-5.977,0L230.9,55.473c-1.646.949-1.646,2.5,0,3.429l62.014,35.83a1.143,1.143,0,0,1,0,2.1,4.069,4.069,0,0,1-3.634,0Z" transform="translate(-167.979 -40.055)"/><path class="g" d="M294.14,132.788l-32.23-18.607V81.86l32.23,18.618Z" transform="translate(-189.004 -34.726)"/><path class="g" d="M309.969,83.658a4.069,4.069,0,0,1-3.634,0L244.308,47.839a6.629,6.629,0,0,0-5.977,0l-12.572,7.269c-1.074.629-1.44,1.5-1.143,2.286a2.4,2.4,0,0,1,1.143-1.143l12.572-7.269a6.629,6.629,0,0,1,5.977,0L306.334,84.8a4,4,0,0,0,3.634,0c.754-.434.937-1.143.549-1.623A1.92,1.92,0,0,1,309.969,83.658Z" transform="translate(-162.842 -39.69)"/><path class="g" d="M312.271,95.179a4.069,4.069,0,0,1-3.634,0l-61.98-35.773a5,5,0,0,1-2.674-3.246c-.286,1.566.594,3.2,2.674,4.4l61.98,35.762a4,4,0,0,0,3.634,0c.766-.434.949-1.143.549-1.623a1.782,1.782,0,0,1-.549.48Z" transform="translate(-187.34 -38.399)"/><path class="i" d="M271.676,143.9c-3.646,2.1-3.646,5.532,0,7.646L333.7,187.358a4,4,0,0,0,3.634,0,1.143,1.143,0,0,0,0-2.1l-62.026-35.807c-1.646-.949-1.646-2.492,0-3.429l6.012-3.429c-.674-1.006-1.28-2.057-1.863-3.12Z" transform="translate(-240.932 -26.493)"/><path class="m" d="M329.619,173.005,267.582,137.2a14.675,14.675,0,0,0-13.258,0l-4.8,2.777a29.965,29.965,0,0,0,1.863,3.12l6.572-3.794a6.629,6.629,0,0,1,5.977,0l62.049,35.8a4,4,0,0,0,3.634,0,1.143,1.143,0,0,0,0-2.092Z" transform="translate(-211.007 -27.044)"/><path class="m" d="M337.737,184.823V97.6l-65-36.23-9.086-.606-8.789,5.7-5.395,4.686L312.8,171.588l20.675,12.183Z" transform="translate(-218.383 -37.742)"/><path class="n" d="M254.106,190.893l19.43-11.223V95.38l-20.035,9.3Z" transform="translate(-158.787 -32.794)"/><path class="i" d="M268.88,70.44v87.078l68.232,39.042.914-.366V108.979Z" transform="translate(-240.856 -36.358)"/><path class="g" d="M286.456,72.111l-13.566-7.783a6.686,6.686,0,0,0-5.612.16l-12.572,7.269c-.971.571-1.372,1.337-1.143,2.069L287.85,94.306,315.383,111.2l19.418-11.3Z" transform="translate(-220.052 -37.309)"/><path class="m" d="M268.85,103v90.027a3.577,3.577,0,0,0,1.7-.423,1.291,1.291,0,0,0,.754-1.029h0v-87.25Z" transform="translate(-174.103 -31.705)"/><path class="g" d="M249.916,94.076V92.99h-.343l-.1.743Z" transform="translate(-130.561 -33.136)"/><path class="g" d="M269.223,105.289V104.18l-.343.469Z" transform="translate(-172.052 -31.537)"/><path class="i" d="M314.284,111.61,252.246,75.791c-3.646-2.1-3.646-5.532,0-7.635l12.572-7.269a14.675,14.675,0,0,1,13.235,0l62.06,35.785a1.143,1.143,0,0,1,0,2.1,4,4,0,0,1-3.634,0L274.453,62.967a6.56,6.56,0,0,0-5.977,0L255.9,70.225c-1.646.949-1.646,2.5,0,3.429l62.026,35.807a1.143,1.143,0,0,1,0,2.1A4.069,4.069,0,0,1,314.284,111.61Z" transform="translate(-221.502 -37.949)"/><path class="g" d="M319.09,147.557,286.86,128.95V96.64l32.23,18.607Z" transform="translate(-242.469 -32.614)"/><path class="g" d="M334.919,98.427a4,4,0,0,1-3.634,0L269.258,62.62a6.56,6.56,0,0,0-5.977,0l-12.572,7.257c-1.074.629-1.44,1.509-1.143,2.286a2.5,2.5,0,0,1,1.143-1.143l12.572-7.269a6.629,6.629,0,0,1,5.977,0L331.284,99.57a4,4,0,0,0,3.634,0c.754-.434.937-1.074.549-1.623a1.76,1.76,0,0,1-.549.48Z" transform="translate(-216.307 -37.579)"/><path class="g" d="M337.292,109.955a4.069,4.069,0,0,1-3.634,0L271.62,74.136a4.994,4.994,0,0,1-2.674-3.246c-.3,1.577.594,3.2,2.674,4.4L333.646,111.1a4,4,0,0,0,3.634,0c.766-.434.949-1.086.549-1.623a1.76,1.76,0,0,1-.537.48Z" transform="translate(-240.876 -36.294)"/><path class="f" d="M297.306,159.693c-3.646,2.1-3.646,5.532,0,7.635l62.026,35.819a4.069,4.069,0,0,0,3.634,0,1.143,1.143,0,0,0,0-2.1l-62.026-35.8c-1.646-.949-1.646-2.5,0-3.429l6.012-3.429c-.663-1.006-1.269-2.057-1.863-3.12Z" transform="translate(-295.855 -24.235)"/><path class="h" d="M355.125,188.785l-61.992-35.807a14.675,14.675,0,0,0-13.235,0l-4.812,2.777c.594,1.063,1.2,2.114,1.863,3.12l6.572-3.806a6.629,6.629,0,0,1,5.977,0l61.991,35.876a4.069,4.069,0,0,0,3.634,0,1.143,1.143,0,0,0,0-2.16Z" transform="translate(-265.818 -24.788)"/><path class="h" d="M363.367,200.613l.011-87.227L298.37,77.156l-9.086-.606-8.789,5.692-5.395,4.7,63.329,100.428L359.1,199.561Z" transform="translate(-273.317 -35.485)"/><path class="l" d="M279.746,206.672l19.429-11.212V111.17l-20.035,9.3Z" transform="translate(-213.731 -30.538)"/><path class="f" d="M294.52,86.23v87.078l68.232,39.03.914-.366v-87.2Z" transform="translate(-295.8 -34.102)"/><path class="g" d="M312.057,87.907l-13.566-7.84a6.686,6.686,0,0,0-5.612.171l-12.572,7.269a1.92,1.92,0,0,0-1.143,2.069l34.287,20.481L340.9,126.995l19.5-11.315Z" transform="translate(-274.958 -35.059)"/><path class="h" d="M294.52,118.75v90.038a3.577,3.577,0,0,0,1.7-.423,1.314,1.314,0,0,0,.754-1.029h0V120.179Z" transform="translate(-229.111 -29.454)"/><path class="g" d="M275.557,109.866V108.78H275.2l-.1.743Z" transform="translate(-185.496 -30.879)"/><path class="g" d="M294.851,121.079V119.97l-.331.469Z" transform="translate(-226.985 -29.28)"/><path class="f" d="M339.932,127.4,277.906,91.582c-3.646-2.1-3.646-5.532,0-7.635l12.572-7.269a14.6,14.6,0,0,1,13.235,0l62.026,35.807a1.143,1.143,0,0,1,0,2.1,4.069,4.069,0,0,1-3.634,0L300.079,78.77a6.629,6.629,0,0,0-5.977,0l-12.572,7.269c-1.646.949-1.646,2.492,0,3.429l62.037,35.807a1.143,1.143,0,0,1,0,2.1,4.069,4.069,0,0,1-3.634.023Z" transform="translate(-276.455 -35.694)"/><path class="g" d="M344.73,163.348,312.5,144.73V112.42l32.23,18.618Z" transform="translate(-297.414 -30.359)"/><path class="g" d="M360.559,114.218a4.069,4.069,0,0,1-3.634,0L294.9,78.4a6.629,6.629,0,0,0-5.977,0l-12.572,7.269c-1.074.629-1.44,1.5-1.143,2.286a2.4,2.4,0,0,1,1.143-1.143l12.572-7.269a6.629,6.629,0,0,1,5.977,0l62.026,35.807a4,4,0,0,0,3.634,0c.754-.434.937-1.143.549-1.623a1.92,1.92,0,0,1-.549.491Z" transform="translate(-271.252 -35.323)"/><path class="g" d="M362.971,125.745a4.069,4.069,0,0,1-3.634,0L297.311,89.926A5,5,0,0,1,294.6,86.68c-.286,1.566.594,3.2,2.674,4.4L359.3,126.888a4,4,0,0,0,3.634,0c.766-.434.949-1.143.549-1.623A1.783,1.783,0,0,1,362.971,125.745Z" transform="translate(-295.86 -34.038)"/></g><path class="b" d="M268.009,281.792a9.875,9.875,0,0,1,8.88,0l114.577,66.174c2.446,1.417,2.446,3.714,0,5.132a9.829,9.829,0,0,1-8.892,0L268.009,286.924C265.564,285.506,265.564,283.209,268.009,281.792Z" transform="translate(-240.13 40.104)"/><path class="f" d="M386.455,250.33h0a.5.5,0,0,1,.537-.229l6.937,1.5-2.732,4.64-4.686-5.326a.514.514,0,0,1-.057-.583Z" transform="translate(-378.154 35.724)"/><path class="h" d="M367.864,253.663a3.429,3.429,0,0,1,1.589-2.709,1.143,1.143,0,0,1,1.04-.126,44.23,44.23,0,0,1,22.79,6.1l.5.3-8.606,14.641-2.549-1.68a44.435,44.435,0,0,1-13.281-13.784l-1.086-1.772A1.143,1.143,0,0,1,367.864,253.663Z" transform="translate(-356.832 35.82)"/><path class="f" d="M366.35,267.215a13.258,13.258,0,0,1,6.08-10.355c3.337-1.9,6.012-.32,5.977,3.509a13.258,13.258,0,0,1-6.08,10.355C368.99,272.61,366.316,271.044,366.35,267.215Z" transform="translate(-339.728 36.577)"/><path class="f" d="M372.878,302.891l-51.088-31.83L330.4,256.42l52.654,29.167Z" transform="translate(-293.442 36.629)"/><path class="f" d="M320,294.644a15.692,15.692,0,0,1,7.189-12.229c3.943-2.183,7.075-.343,7.075,4.229a15.692,15.692,0,0,1-7.2,12.241C323.132,301.078,319.966,299.215,320,294.644Z" transform="translate(-242.61 40.213)"/><path class="f" d="M317.451,296.19a15.681,15.681,0,0,1,7.189-12.229c3.943-2.286,7.109-.377,7.075,4.149a15.692,15.692,0,0,1-7.2,12.241C320.583,302.579,317.371,300.716,317.451,296.19Z" transform="translate(-237.147 40.426)"/><rect class="f" width="78.404" height="20.07" transform="matrix(-0.862, -0.507, 0.507, -0.862, 149.929, 380.937)"/><path class="f" d="M258.32,330.95a15.692,15.692,0,0,1,7.189-12.229c3.943-2.286,7.1-.377,7.063,4.149a15.681,15.681,0,0,1-7.189,12.241C261.452,337.339,258.286,335.476,258.32,330.95Z" transform="translate(-110.424 45.394)"/><path class="d" d="M260.55,329.011a10.366,10.366,0,0,1,4.857-7.429c2.537-1.44,4.457-.434,4.3,2.286a10.286,10.286,0,0,1-4.857,7.429C262.333,332.725,260.4,331.731,260.55,329.011Z" transform="translate(-110.105 45.847)"/><path class="g" d="M324.437,294.544a15.692,15.692,0,0,1,7.2-12.241,5.589,5.589,0,0,1,4.217-.789c-1.28-1.326-3.429-1.486-5.715-.137a15.681,15.681,0,0,0-7.2,12.241c0,2.7,1.143,4.446,2.846,4.937a5.714,5.714,0,0,1-1.349-4.012Z" transform="translate(-247.562 40.062)"/><path class="h" d="M318.89,294.429a15.692,15.692,0,0,1,7.2-12.241c1.966-1.143,3.737-1.2,5.017-.457l3.829,2.286-1.829,3.109a16,16,0,0,1-6.515,11.1l-1.829,3.1-3.829-2.286h0C319.656,298.292,318.879,296.692,318.89,294.429Z" transform="translate(-242.014 40.176)"/><path class="f" d="M317.1,296.4a15.692,15.692,0,0,1,7.2-12.241c3.932-2.286,7.1-.366,7.063,4.16a15.658,15.658,0,0,1-7.2,12.229C320.232,302.79,317.066,300.927,317.1,296.4Z" transform="translate(-236.396 40.455)"/><path class="i" d="M247.53,330.735l4.389-7.475,14.321,8.423a4.343,4.343,0,0,1,1.543,5.932h0a4.343,4.343,0,0,1-5.932,1.531Z" transform="translate(-93.897 46.181)"/><path class="i" d="M261.16,328.772a6.777,6.777,0,0,1,3.109-5.28c1.7-.971,3.063-.16,3.052,1.783a6.777,6.777,0,0,1-3.109,5.28C262.52,331.526,261.149,330.715,261.16,328.772Z" transform="translate(-108.418 46.155)"/><path class="h" d="M302.628,307.683l2.149-1.223a4.572,4.572,0,0,1,4.572.491l7.36,4.332a5.589,5.589,0,0,1,2.469,4.4v3.692a3.12,3.12,0,0,0,.743,1.852l-.274,1.7,1.84-1.051h0a.949.949,0,0,0,.446-.9v-3.68a11.681,11.681,0,0,0-5.2-9.143l-7.372-4.32c-2.457-1.451-4.777-1.7-6.526-.709l-2.149,1.223a4.572,4.572,0,0,1-4.572-.491L266.4,286.413a.949.949,0,0,0-.983-.091h0l-1.829,1.051,1.566.606a2.994,2.994,0,0,0,1.223,1.611l29.716,17.452C298.6,308.426,300.89,308.677,302.628,307.683Z" transform="translate(-165.806 40.888)"/><path class="h" d="M304.972,307.391c1.234-.7,2.857-.526,4.572.491l7.36,4.332a5.6,5.6,0,0,1,2.492,4.4v3.692a3.029,3.029,0,0,0,1.349,2.389c.754.446,1.372.091,1.383-.789v-3.68a11.726,11.726,0,0,0-5.212-9.143l-7.36-4.32c-2.457-1.452-4.789-1.692-6.537-.7l-2.149,1.211a4.572,4.572,0,0,1-4.572-.491l-29.716-17.441c-.754-.446-1.372-.091-1.372.777a3.04,3.04,0,0,0,1.349,2.4l29.716,17.441c2.457,1.44,4.777,1.691,6.537.7Z" transform="translate(-167.853 41.021)"/><path class="g" d="M267.6,313.587v3.749a2.353,2.353,0,0,1-.1-.674V312.65a3.819,3.819,0,0,1,.1.937Z" transform="translate(-115.946 44.665)"/><ellipse class="b" cx="23.304" cy="13.452" rx="23.304" ry="13.452" transform="translate(154.068 272.465)"/><path class="i" d="M221.85,242.344V234.9h1.36a16.858,16.858,0,0,1,6.355-5.943c10.355-5.977,27.144-5.977,37.488,0a16.9,16.9,0,0,1,6.366,5.943h1.394v7.406h0c0,3.92-2.56,7.863-7.76,10.858-10.343,5.977-27.133,5.977-37.488,0C224.433,250.219,221.85,246.264,221.85,242.344Z" transform="translate(-70.982 32.064)"/><ellipse class="i" cx="26.504" cy="15.304" rx="26.504" ry="15.304" transform="translate(150.868 251.664)"/><path class="g" d="M229.563,244.356c10.355,5.977,27.144,5.977,37.488,0,4.96-2.869,7.52-6.583,7.726-10.286.229,4.08-2.286,8.206-7.726,11.315-10.343,5.977-27.133,5.977-37.488,0-5.383-3.109-8-7.235-7.715-11.3C222.02,237.773,224.6,241.487,229.563,244.356Z" transform="translate(-70.935 33.435)"/><path class="g" d="M264.167,239.541a1.143,1.143,0,0,0,.7-.971v-9.978c0-.754-1.074-1.371-2.389-1.371s-2.377.617-2.377,1.383v8.263l-24-2.937c-1.292-.16-2.56.32-2.834,1.063s.56,1.474,1.84,1.634l26.881,3.292a3.841,3.841,0,0,0,2-.274Z" transform="translate(-74.017 32.456)"/><path class="b" d="M127.592,168.834l19.692-11.372L127.592,146.09,107.9,157.462Z" transform="translate(186.78 20.862)"/><path class="m" d="M125.13,146.252l19.692,11.372V134.881L125.13,123.52Z" transform="translate(169.55 17.636)"/><path class="i" d="M127.592,136.3l19.692-11.361L127.592,113.57,107.9,124.942Z" transform="translate(186.78 16.214)"/><path class="i" d="M107.9,157.624l19.692-11.372V123.52L107.9,134.881Z" transform="translate(206.473 17.636)"/><path class="g" d="M114.11,143.8l5.509-3.177V134.26l-5.509,3.177Z" transform="translate(207.349 19.171)"/><path class="b" d="M20.5,347.32l20.5-11.841L20.5,323.65,0,335.479Z" transform="translate(416.378 46.237)"/><path class="c" d="M17.94,323.821l20.5,11.829v-23.67L17.94,300.14Z" transform="translate(398.438 42.877)"/><path class="f" d="M20.5,313.46l20.5-11.841L20.5,289.79,0,301.619Z" transform="translate(416.378 41.398)"/><path class="h" d="M0,335.65l20.5-11.829V300.14L0,311.981Z" transform="translate(436.881 42.877)"/><path class="g" d="M6.46,321.262l5.737-3.3V311.33L6.46,314.644Z" transform="translate(437.805 44.476)"/><path class="b" d="M94,331.507l76.4-44.1a2.583,2.583,0,0,0,0-4.469L97.753,241,16.492,287.928a2.572,2.572,0,0,0,0,4.457l67.752,39.122a9.738,9.738,0,0,0,9.76,0Z" transform="translate(268.313 34.425)"/><path class="i" d="M10.24,214.922c0-4.846,3.429-6.857,7.612-4.4l71.455,41.145a4.572,4.572,0,0,1,2.092,3.623c0,1.326-.926,1.874-2.092,1.211L17.852,215.356c-1.9-1.143-3.429-.194-3.429,1.989v8c-1.383-.08-2.777-.08-4.183-.057Z" transform="translate(354.284 29.919)"/><path class="m" d="M89.3,268.915,17.845,242.879a16.858,16.858,0,0,1-7.635-13.2V223.29c1.406,0,2.8,0,4.183.057V232.1a7.6,7.6,0,0,0,3.429,5.955L89.242,264.1a4.572,4.572,0,0,1,2.1,3.623C91.345,269.041,90.442,269.578,89.3,268.915Z" transform="translate(354.371 31.894)"/><path class="m" d="M177.041,264.2,90.122,314.5,16.53,270.615l-5.84-8.72.606,3.1,1.566-8.092,136.612,5.212,24.07-1.543Z" transform="translate(268.127 36.698)"/><path class="n" d="M99.446,250.01l.023,10.7-84,48.608L13.19,299.121Z" transform="translate(342.842 35.713)"/><path class="i" d="M10.76,260.168,97.541,209.96l78.244,45.511.16,1.109L89.038,306.867Z" transform="translate(269.143 29.989)"/><path class="g" d="M110.15,279.175l-20.4-12.1a7.646,7.646,0,0,1-3.063-5.715v-1.6a2.286,2.286,0,0,1,1.383-2.377L128.208,279.8l32.71,17.635v10.823Z" transform="translate(197.411 36.766)"/><path class="m" d="M10.234,299.791,96.467,249.9,98.3,248.84l1.669-.96a4.137,4.137,0,0,1,.549,1.943,1.486,1.486,0,0,1-.594,1.337h0L13.057,301.448Z" transform="translate(345.169 35.408)"/><path class="g" d="M87.081,306.781,86,307.41l-.206-.343.674-.537Z" transform="translate(272.253 43.79)"/><path class="g" d="M86.929,294.18l-1.109.64.274-.606Z" transform="translate(272.372 42.025)"/><path class="i" d="M165.338,295.674,93.883,254.529c-4.206-2.423-7.623-.446-7.623,4.412v1.6a16.847,16.847,0,0,0,7.623,13.189l71.455,41.145c1.143.674,2.092.126,2.092-1.212a4.572,4.572,0,0,0-2.069-3.589L93.906,268.93a7.578,7.578,0,0,1-3.429-5.943v-1.6c0-2.194,1.543-3.086,3.429-1.989l71.455,41.145c1.143.663,2.092.126,2.092-1.211A4.629,4.629,0,0,0,165.338,295.674Z" transform="translate(191.345 36.211)"/><path class="g" d="M162.225,312.981a4.572,4.572,0,0,0-2.092-3.589L88.679,268.248A7.577,7.577,0,0,1,85.25,262.3v-1.6c0-1.44.663-2.286,1.657-2.434a2.869,2.869,0,0,0-.5,1.772v1.6a7.578,7.578,0,0,0,3.429,5.943l71.455,41.145a4.572,4.572,0,0,1,2.092,3.612c0,1.017-.537,1.566-1.291,1.486a2.115,2.115,0,0,0,.137-.846Z" transform="translate(196.573 36.893)"/><path class="g" d="M163.615,299.377a4.629,4.629,0,0,0-2.092-3.623L90.069,254.609a5.783,5.783,0,0,0-4.789-.8c1.406-1.143,3.532-1.234,5.932.137l71.455,41.145a4.652,4.652,0,0,1,2.092,3.634c0,1.017-.537,1.566-1.3,1.486A1.988,1.988,0,0,0,163.615,299.377Z" transform="translate(195.16 36.131)"/><path class="g" d="M130.985,257.6,91.566,234.88l-34.2,19.784L96.8,277.385Z" transform="translate(260.832 33.551)"/><path class="b" d="M201.3,355.862c-15.784,9.143-41.373,9.143-57.146,0s-15.784-23.887,0-33,41.373-9.143,57.146,0S217.079,346.753,201.3,355.862ZM185.855,331.78c-7.257-4.183-19.018-4.183-26.287,0s-7.257,10.983,0,15.166,19.018,4.195,26.287,0S193.1,335.975,185.855,331.78Z" transform="translate(93.031 45.147)"/><path class="p" d="M143.72,320.006l14.424.217a15.327,15.327,0,0,1,4.572-3.829c7.932-4.572,20.39-4.926,29.03-1.063l8.572-8.058,13.189.206c-.651-.423-1.326-.846-2.034-1.257-18.287-10.583-48-10.583-66.38,0a34.916,34.916,0,0,0-8.252,6.423Z" transform="translate(87.483 42.612)"/><path class="m" d="M150.049,288.036v20.938l-13.189-.206V287.83Z" transform="translate(150.917 41.118)"/><path class="p" d="M148.4,295.888v20.938l8.572-8.058V287.83Z" transform="translate(130.805 41.118)"/><path class="p" d="M155.963,300.6v20.927l18.961-15.406,14.618,10.515V295.7l-13.464-6.526s-18.527,5.715-19.5,5.909S155.963,300.6,155.963,300.6Z" transform="translate(89.664 41.309)"/><path class="p" d="M185.28,298.97v20.938l14.424.217V299.2Z" transform="translate(45.923 42.71)"/><path class="m" d="M197.9,292.54v20.927l6.9,7.36V299.889Z" transform="translate(26.4 41.791)"/><path class="i" d="M143.72,301.716l14.424.229a14.994,14.994,0,0,1,4.572-3.829c7.932-4.572,20.39-4.937,29.03-1.074l8.572-8.057,13.189.206c-.651-.423-1.326-.846-2.034-1.257-18.287-10.583-48-10.583-66.38,0a35.237,35.237,0,0,0-8.252,6.435Z" transform="translate(87.483 39.998)"/><path class="h" d="M141.18,297.14v19.269l12.481-2.983s-.731-11.269-.994-11.566S141.18,297.14,141.18,297.14Z" transform="translate(142.368 42.448)"/><path class="c" d="M151.49,314v20.938l1.349,1.44,8.789-5.074s-1.36-16-1.52-16.3S151.49,314,151.49,314Z" transform="translate(122.618 44.858)"/><path class="d" d="M143.653,309.25l-7.543,7.086c6.286,4.972,5.543,11.989-2.286,16.469a26.72,26.72,0,0,1-7.212,2.777l7.795,8.309-6.915,6.5a62.929,62.929,0,0,0,24-7.406c15.761-9.143,17.967-23.052,6.629-33.522Z" transform="translate(147.438 44.179)"/><path class="d" d="M126.61,330.373v20.938l17.109-6.606L164.3,325.07l-.08-22.23L142.451,320.1Z" transform="translate(148.378 43.263)"/><path class="f" d="M143.653,290.93l-7.543,7.1c6.286,4.972,5.543,11.978-2.286,16.469a27.087,27.087,0,0,1-7.212,2.766l7.795,8.309-6.915,6.5a62.929,62.929,0,0,0,24-7.406c15.761-9.143,17.967-23.053,6.629-33.522Z" transform="translate(147.438 41.561)"/><path class="d" d="M215.74,343.05l-6.857-7.326c-6.377.389-12.995-.823-17.887-3.657s-7.132-6.857-6.252-10.686l-16.367-.251-6.3-6.709c-5.5,9.452-1.749,20.3,11.292,27.83,9.578,5.532,22.264,8.16,34.813,7.909Z" transform="translate(59.202 44.918)"/><path class="d" d="M214.812,330.736v20.938l-48.562-26.9V303.82l7.086,2.869Z" transform="translate(52.564 43.403)"/><path class="c" d="M167.2,321.15v20.938L159.63,349.2V328.259Z" transform="translate(107.746 45.88)"/><path class="h" d="M215.74,324.73l-6.857-7.326c-6.377.389-12.995-.823-17.887-3.646s-7.132-6.857-6.252-10.7l-16.367-.251-6.3-6.709c-5.5,9.452-1.749,20.3,11.292,27.83,9.578,5.532,22.264,8.16,34.813,7.909Z" transform="translate(59.202 42.3)"/></g></svg>