<svg xmlns="http://www.w3.org/2000/svg" width="80.929" height="59.3" viewBox="0 0 80.929 59.3"><defs><style>.a{fill:#70b9d6;}.b{fill:#1d84b5;}</style></defs><g transform="translate(0)"><path class="a" d="M105.4,67.07V75a2.549,2.549,0,0,1-2.549,2.549h4.122A2.542,2.542,0,0,0,109.514,75V67.07Z" transform="translate(-29.624 -19.318)"/><path class="a" d="M81.554,17.29a4.728,4.728,0,0,0-1.1.128,4.92,4.92,0,0,1,0,9.583,4.727,4.727,0,0,0,1.1.128,4.92,4.92,0,1,0,0-9.839Z" transform="translate(-23.172 -4.98)"/><path class="a" d="M82.932,31.11H80.12a8.23,8.23,0,0,1,7.924,8.23v6.13h3.111V39.34a8.23,8.23,0,0,0-8.223-8.23Z" transform="translate(-23.077 -8.961)"/><path class="b" d="M79.3,47.752H77.163V4.144a2.015,2.015,0,0,0-1.986-2.008H8.074A2.008,2.008,0,0,0,6.066,4.144V47.752H3.93V4.144A4.151,4.151,0,0,1,8.074,0h67.1a4.151,4.151,0,0,1,4.151,4.144Z" transform="translate(-1.132)"/><path class="b" d="M77.348,78.186H3.61A3.617,3.617,0,0,1,0,74.569V66.638A1.068,1.068,0,0,1,1.068,65.57H26.457a2.072,2.072,0,0,1,2.072,2.072,2.335,2.335,0,0,0,2.328,2.328H50.08A2.328,2.328,0,0,0,52.4,67.642a2.079,2.079,0,0,1,2.072-2.072H79.861a1.068,1.068,0,0,1,1.068,1.068v7.931a3.617,3.617,0,0,1-3.581,3.617ZM2.136,67.706v6.863A1.481,1.481,0,0,0,3.61,76.05H77.348a1.474,1.474,0,0,0,1.474-1.481V67.706H54.565a4.464,4.464,0,0,1-4.457,4.4H30.885a4.464,4.464,0,0,1-4.464-4.4Z" transform="translate(0 -18.886)"/><path class="b" d="M79.881,27.765a5.988,5.988,0,1,1,5.995-5.988A5.988,5.988,0,0,1,79.881,27.765Zm0-9.839a3.852,3.852,0,1,0,3.859,3.852A3.852,3.852,0,0,0,79.881,17.926Z" transform="translate(-21.286 -4.548)"/><path class="b" d="M87.521,46.106H68.568A1.068,1.068,0,0,1,67.5,45.038v-6.13a9.305,9.305,0,0,1,9.284-9.3H79.3a9.305,9.305,0,0,1,9.291,9.3v6.13a1.068,1.068,0,0,1-1.068,1.068ZM69.629,43.97H86.453V38.908A7.17,7.17,0,0,0,79.3,31.746H76.784a7.17,7.17,0,0,0-7.155,7.162Z" transform="translate(-19.442 -8.529)"/><path class="b" d="M88.5,42.906H66.238a1.068,1.068,0,0,1-1.068-1.068V19.568A1.068,1.068,0,0,1,66.238,18.5h4.35v2.136H67.306V40.77H87.433V20.65H84.208V18.514H88.48a1.068,1.068,0,0,1,1.068,1.068V41.838A1.068,1.068,0,0,1,88.5,42.906Z" transform="translate(-18.771 -5.329)"/><path class="b" d="M74.151,46.8H16.418a1.068,1.068,0,0,1-1.068-1.068v-35.3A1.068,1.068,0,0,1,16.418,9.36H74.151a1.068,1.068,0,0,1,1.068,1.068v3.453H73.083V11.5h-55.6V44.659h55.6V42.566h2.136v3.161A1.068,1.068,0,0,1,74.151,46.8Z" transform="translate(-4.421 -2.696)"/><rect class="b" width="4.507" height="2.136" transform="translate(36.36 13.898)"/><rect class="b" width="16.831" height="2.136" transform="translate(17.287 13.898)"/><rect class="b" width="17.778" height="2.136" transform="translate(23.089 20.391)"/><rect class="b" width="17.329" height="2.136" transform="translate(23.531 27.005)"/><rect class="b" width="4.478" height="2.136" transform="translate(16.375 27.005)"/><rect class="b" width="17.778" height="2.136" transform="translate(19.729 33.555)"/></g></svg>