<svg xmlns="http://www.w3.org/2000/svg" width="518.107" height="373.988" viewBox="0 0 518.107 373.988"><defs><style>.a{fill:#080a0c;}.b{fill:#06080a;}.c{fill:#bbc5ff;}.d{fill:#ffd648;}.e{fill:#ffc82c;}.f{fill:#dee4ff;}.g{fill:#5465e2;}.h{fill:#020089;}.i{fill:#1f1fb5;}.j{fill:none;stroke:#b7b7b7;stroke-linecap:round;stroke-miterlimit:10;}</style></defs><g transform="translate(-0.004 0.002)"><g transform="translate(0.004 0.5)"><path class="a" d="M75.648,298.377c100.867,58.14,265.921,58.14,366.806,0s100.867-153.276,0-211.451S176.5,28.786,75.648,86.961-25.22,240.237,75.648,298.377Z" transform="translate(-0.004 31.504)"/><path class="b" d="M98.6,234.837c68.049,39.232,179.419,39.232,247.467,0s68.049-103.4,0-142.633S166.65,52.989,98.6,92.2,30.553,195.6,98.6,234.837Z" transform="translate(35.55 46.061)"/><path class="c" d="M284.355,67.88l.3,101.322L155.3,243.7l1.031-125.158Z" transform="translate(116.085 49.868)"/><path class="d" d="M18.22,55.243l130.034,75.388,32.5-37.886,40.7-4.7L91.232,12.97,50.584,17.706Z" transform="translate(13.613 8.822)"/><path class="e" d="M36.74,17.706,166.913,92.745l40.7-4.7L77.388,12.97Z" transform="translate(27.458 8.822)"/><path class="f" d="M18.28,37.16l-.14,94.314,130.418,74.952-.245-93.877Z" transform="translate(13.554 26.904)"/><path class="g" d="M165.624,149.37l-72.75,43.024L92.63,98.517l32.5-37.886,40.7-4.7Z" transform="translate(69.237 40.936)"/><path class="g" d="M24.67,62.675l16.3,9.472V63.776A18.174,18.174,0,0,0,31.94,47.909h0a4.771,4.771,0,0,0-7.095,4.107Z" transform="translate(18.435 34.487)"/><path class="g" d="M40.27,71.6l16.339,9.472V72.7a18.192,18.192,0,0,0-9.017-15.868h0a4.788,4.788,0,0,0-7.217,4.054Z" transform="translate(30.096 41.116)"/><path class="g" d="M55.86,80.5,72.2,89.949V81.579a18.262,18.262,0,0,0-9.035-15.868h0a4.806,4.806,0,0,0-7.06,4.054Z" transform="translate(41.75 47.826)"/><path class="g" d="M71.45,89.443,87.789,98.9V90.526a18.192,18.192,0,0,0-9.035-15.868h0a4.788,4.788,0,0,0-7.2,4.054Z" transform="translate(53.404 54.448)"/><path class="g" d="M24.67,79.08l16.3,9.454V80.181a18.227,18.227,0,0,0-8.93-15.9h0a4.788,4.788,0,0,0-7.2,4.072Z" transform="translate(18.435 46.689)"/><path class="g" d="M40.27,87.98l16.339,9.472V89.081a18.192,18.192,0,0,0-9.017-15.868h0a4.788,4.788,0,0,0-7.217,4.054Z" transform="translate(30.096 53.36)"/><path class="g" d="M55.86,96.852,72.2,106.324V97.953a18.244,18.244,0,0,0-9.035-15.868h0A4.788,4.788,0,0,0,56.1,86.14Z" transform="translate(41.75 60.058)"/><path class="g" d="M71.45,105.8l16.339,9.472V106.9a18.174,18.174,0,0,0-9.035-15.868h0a4.771,4.771,0,0,0-7.2,4.054Z" transform="translate(53.404 66.68)"/><path class="g" d="M24.67,95.443l16.3,9.454V96.526A18.209,18.209,0,0,0,31.94,80.659h0a4.788,4.788,0,0,0-7.2,4.072Z" transform="translate(18.435 58.934)"/><path class="g" d="M40.27,104.352l16.339,9.454v-8.353a18.244,18.244,0,0,0-9.017-15.885h0a4.806,4.806,0,0,0-7.217,4.072Z" transform="translate(30.096 65.595)"/><path class="g" d="M55.86,113.225,72.2,122.679v-8.353a18.3,18.3,0,0,0-9.035-15.885h0a4.806,4.806,0,0,0-7.06,4.072Z" transform="translate(41.75 72.293)"/><path class="g" d="M71.45,122.165l16.339,9.489v-8.371A18.227,18.227,0,0,0,78.755,107.4h0a4.788,4.788,0,0,0-7.2,4.072Z" transform="translate(53.404 78.923)"/><path class="d" d="M168.57,135.053l130.016,75.371,32.521-37.869,40.7-4.7L241.564,92.78l-40.648,4.736Z" transform="translate(126.004 68.482)"/><path class="e" d="M187.08,97.516l130.191,75.039,40.7-4.7L227.727,92.78Z" transform="translate(139.841 68.482)"/><path class="f" d="M168.63,116.97l-.14,94.314,130.418,74.952-.262-93.895Z" transform="translate(125.945 86.565)"/><path class="g" d="M315.982,229.18,243.232,272.2l-.262-93.895,32.521-37.869,40.7-4.7Z" transform="translate(181.62 100.596)"/><path class="g" d="M175,142.51l16.339,9.472v-8.371a18.244,18.244,0,0,0-9.035-15.868h0a4.788,4.788,0,0,0-7.217,4.054Z" transform="translate(130.811 94.123)"/><path class="g" d="M190.61,151.421l16.339,9.472v-8.371a18.174,18.174,0,0,0-9.035-15.868h0a4.771,4.771,0,0,0-7.2,4.054Z" transform="translate(142.48 100.782)"/><path class="g" d="M206.21,160.33l16.339,9.472v-8.371a18.192,18.192,0,0,0-9.017-15.868h0a4.788,4.788,0,0,0-7.217,4.054Z" transform="translate(154.141 107.444)"/><path class="g" d="M221.8,169.234l16.339,9.472v-8.371a18.209,18.209,0,0,0-9.035-15.868h0a4.806,4.806,0,0,0-7.217,4.054Z" transform="translate(165.795 114.11)"/><path class="g" d="M175,158.882l16.339,9.454v-8.353A18.3,18.3,0,0,0,182.3,144.1h0a4.806,4.806,0,0,0-7.217,4.072Z" transform="translate(130.811 106.358)"/><path class="g" d="M190.61,167.793l16.409,9.454v-8.353a18.227,18.227,0,0,0-9.035-15.885h0a4.788,4.788,0,0,0-7.2,4.072Z" transform="translate(142.48 113.017)"/><path class="g" d="M206.21,176.687l16.339,9.472v-8.371a18.192,18.192,0,0,0-9.017-15.868h0a4.788,4.788,0,0,0-7.165,4.107Z" transform="translate(154.141 119.694)"/><path class="g" d="M221.8,185.6l16.339,9.472V186.7a18.209,18.209,0,0,0-9.035-15.868h0a4.788,4.788,0,0,0-7.217,4.054Z" transform="translate(165.795 126.334)"/><path class="g" d="M175,175.252l16.339,9.454v-8.371a18.3,18.3,0,0,0-9.035-15.868h0a4.806,4.806,0,0,0-7.217,4.072Z" transform="translate(130.811 118.595)"/><path class="g" d="M190.61,184.141l16.409,9.507v-8.371a18.209,18.209,0,0,0-9.035-15.868h0a4.788,4.788,0,0,0-7.2,4.072Z" transform="translate(142.48 125.277)"/><path class="g" d="M206.21,193.077l16.339,9.454v-8.371a18.244,18.244,0,0,0-9.017-15.868h0a4.788,4.788,0,0,0-7.217,4.072Z" transform="translate(154.141 131.911)"/><path class="g" d="M221.8,201.982l16.339,9.454v-8.353A18.262,18.262,0,0,0,229.1,187.2h0a4.806,4.806,0,0,0-7.217,4.072Z" transform="translate(165.795 138.577)"/><path class="g" d="M161.68,237.191l11.866-6.151.192-127.639-11.149,6.728Z" transform="translate(120.854 76.421)"/><path class="f" d="M155.859,103.49l11.394,6.571-.909,127.063-10.9-7.182Z" transform="translate(116.189 76.488)"/><path class="g" d="M98.56,200.991l11.883-6.151.175-127.64L99.486,73.911Z" transform="translate(73.67 49.36)"/><path class="f" d="M92.749,67.28l11.394,6.571-.926,127.08-10.887-7.2Z" transform="translate(69.013 49.42)"/><path class="c" d="M110.054,200.371l87.272,49.368.664-113.589,11.394-6.4L153.848,59.8,99.08,65.916l11.149,6.815Z" transform="translate(74.059 43.828)"/><path class="c" d="M92.57,70.255l11.394,6.571L115.1,70.115,103.946,63.3Z" transform="translate(69.192 46.445)"/><path class="c" d="M155.68,106.226l11.534,6.658,11.149-6.728L167.074,99.83Z" transform="translate(116.369 73.752)"/><path class="d" d="M92.11,98.763l66.948-12.949,55.676,83.008L335.785,98.973,266.775,25l-62.544,9.926Z" transform="translate(68.848 17.814)"/><path class="e" d="M238.138,25,130.42,85.814,186.1,168.822,307.148,98.973Z" transform="translate(97.486 17.814)"/><path class="c" d="M114.758,134.3l-5.068,2.831,60.22,34.828,4.928-2.9Z" transform="translate(81.99 99.519)"/><path class="f" d="M109.56,141.862l.227-5.942,60.22,34.828.087,5.854Z" transform="translate(81.893 100.73)"/><path class="g" d="M149.078,154.19l.017,16.165-4.858,2.726-.087-15.99Z" transform="translate(107.75 114.388)"/><path class="c" d="M111.526,139.32l-4.6,2.831,60.22,34.828,4.911-2.9Z" transform="translate(79.927 103.272)"/><path class="f" d="M106.8,146.882l.227-5.942,60.22,34.828.087,5.854Z" transform="translate(79.829 104.483)"/><path class="g" d="M146.3,159.21l.035,6.029-4.858,2.726-.087-5.854Z" transform="translate(105.687 118.14)"/><path class="c" d="M108.766,144.32l-4.6,2.831,60.22,34.828,4.911-2.9Z" transform="translate(77.864 107.01)"/><path class="f" d="M104.04,151.882l.227-5.942,60.22,34.828.087,5.854Z" transform="translate(77.766 108.221)"/><path class="g" d="M153.3,161.05l-.018,6.029-14.644,8.178-.017-5.854Z" transform="translate(103.616 119.516)"/><path class="g" d="M108.06,163.4,186.7,208.836l.3-40.193a87.6,87.6,0,0,0-43.479-76.3h0A23.05,23.05,0,0,0,108.846,111.9Z" transform="translate(80.771 65.806)"/><path class="h" d="M150.06,52.424V7.32l41.661,22.91-.3,46.275Z" transform="translate(112.168 4.598)"/><path class="i" d="M130.32,47.414V2.31l44.544,25.217-.3,46.275Z" transform="translate(97.411 0.853)"/><path class="g" d="M160.29,24.061,150.12,7.32l-.14,10.94Z" transform="translate(112.108 4.598)"/><line class="j" x1="0.384" y2="106.844" transform="translate(227.364)"/></g></g></svg>