<svg xmlns="http://www.w3.org/2000/svg" xmlns:xlink="http://www.w3.org/1999/xlink" width="472.493" height="395.374" viewBox="0 0 472.493 395.374"><defs><style>.a,.aa,.c,.d,.e,.f,.g,.h,.i,.j,.k,.l,.m,.n,.o,.p,.q,.r,.s,.t,.u,.v,.w,.x,.y,.z{fill-rule:evenodd;}.a{fill:url(#a);}.b{fill:#ecb01a;}.c{fill:#071a3b;}.d{fill:#fcd148;}.e{fill:url(#b);}.f,.g,.i{opacity:0.5;}.f{fill:url(#c);}.g{fill:url(#d);}.h{fill:url(#e);}.i{fill:url(#f);}.j{fill:#2b2b7f;}.k{fill:#111159;}.l{fill:#4f4f99;}.m{fill:#141444;}.n{fill:#e7a376;}.o{fill:#daeafa;}.p{fill:#08375c;}.q{fill:#e5efff;}.r{fill:#6988e2;}.s{fill:#829dff;}.t{fill:#cce0f5;}.u{fill:#f0b186;}.v{fill:#cddff2;}.w{fill:#0b4473;}.x{fill:#1989a5;}.y{fill:#f3a974;}.z{fill:#106e84;}.aa{fill:#00ebc7;}</style><linearGradient id="a" x1="0.816" y1="0.257" x2="0.429" y2="0.433" gradientUnits="objectBoundingBox"><stop offset="0" stop-color="#fdd248"/><stop offset="1" stop-color="#fabd23"/></linearGradient><linearGradient id="b" x1="0.413" y1="0.303" x2="0.685" y2="0.884" gradientUnits="objectBoundingBox"><stop offset="0" stop-color="#31adcc"/><stop offset="1" stop-color="#198aa6"/></linearGradient><linearGradient id="c" x1="0.606" y1="0.308" x2="0.368" y2="0.824" xlink:href="#b"/><linearGradient id="d" x1="0.252" y1="0.083" x2="0.763" y2="0.892" xlink:href="#b"/><linearGradient id="e" x1="0.632" y1="0.285" x2="0.362" y2="0.869" xlink:href="#b"/><linearGradient id="f" x1="0.585" y1="0.283" x2="0.31" y2="0.878" xlink:href="#b"/></defs><g transform="translate(0)"><path class="a" d="M312.62,305.44c1.28,0,55.2-.18,60.14-.16,0,1.11-.16,2.3-.26,3.41a108.344,108.344,0,0,1-2.3,14.81v.12c-2.25,9.54-6.19,18.65-12.5,26.22-1.63,2-5,5.69-7.19,7-4.1,2.45-10.86,2.52-15.08.15a9.211,9.211,0,0,1-1.45-1,55,55,0,0,1-8.53-9.38A65.58,65.58,0,0,1,315.16,323a123.152,123.152,0,0,1-2.54-17.56Z"/><ellipse class="b" cx="28.85" cy="16.27" rx="28.85" ry="16.27" transform="translate(313.85 288.41)"/><path class="c" d="M342.7,292.85c-15.46,0-28,7.07-28,15.8,0,4.25,10.14,11.74,28.08,12.57s27.34-8.81,27.92-12.57C370.7,299.92,358.16,292.85,342.7,292.85Z"/><path class="d" d="M342.7,287.67c-16.62,0-30.1,7.8-30.1,17.43s13.48,17.43,30.1,17.43,30.09-7.8,30.09-17.43S359.32,287.67,342.7,287.67Zm0,1.21c15.46,0,28,7.07,28,15.8s-12.54,15.79-28,15.79-28-7.07-28-15.79S327.24,288.88,342.7,288.88Z"/><path class="d" d="M313.23,308.66c2.84,7.92,14.95,13.87,29.47,13.87,14.15,0,26-5.65,29.23-13.27v-.06l-.55-.05-1.65-.29h-.06c-3.25,6.69-14.11,11.6-27,11.6-13.18,0-24.24-5.14-27.21-12.06l-1.58.07-.68.18Zm58.82.32-.51-.23.53.18Z"/><path class="e" d="M308.13,179.52a95.333,95.333,0,0,0-10.56,14.89c.89,1.6,1.68,3.24,2.59,4.86-1.73-.76-3-1.32-4.26-1.73-7.64,15.24-7.54,29.07-2.27,41.38,4.15,1.78,5.24,2,10.42,2.59l-7.52,3.16c6.6,11.23,18.34,17,14.76,34.86q-.21,1-.39,2.1l9.2,5.94c-4.8-.32-6.65-.35-9.72.24.27,8.31,5.36,17.07,27.71,25.13,2.18-.18,7.56-2.8,8.69-4.35-1-7.74,1.33-21.3,3.32-31.95,1.62-8.67,1.08-14.75-.85-19.42-2.78,1.37-5.64,2.37-8.5,3.62,2.3-4.11,3.43-6.1,4.33-10.11-7-7.7-18.69-11.66-26.74-24.46-.48-.77-1-1.58-1.48-2.43-1.57.67-3.17,1.27-4.76,2a32,32,0,0,0,2.73-5.58C309.59,210.29,304.77,196.27,308.13,179.52Z"/><path class="f" d="M310.39,264.71c1.55,4,2.13,8.69.9,14.82q-.21,1-.39,2.1l9.2,5.94c-4.8-.32-6.65-.35-9.72.24.27,8.31,5.36,17.07,27.71,25.13,2.18-.18,7.56-2.8,8.69-4.35-1-7.74,1.33-21.3,3.32-31.95,1.62-8.67,1.08-14.75-.85-19.42-2.78,1.37-5.64,2.37-8.5,3.62,2.3-4.11,3.43-6.1,4.33-10.11-4.43-4.86-10.71-8.23-16.76-13.27C325.19,247.86,316.15,254.28,310.39,264.71Z"/><path class="g" d="M305.48,236.23a35.78,35.78,0,0,1-11.76-8.92c3.65,2.31,6.69,4.7,10.12,5.94a35.886,35.886,0,0,1-1.68-3.94c-4.51-12.45-1.67-23.49,1.84-35.41-2.33,9.47-4.34,18.48-2.47,27.86.88-2.92,2.69-5.13,5.07-8.62-1.83,4.25-3.82,8-4.11,12.4.33,1.06.72,2.12,1.16,3.19A45.57,45.57,0,0,0,313,242.48c-.38-3.8.75-7,2.38-11.41-.68,4.12-1.39,9.13-.45,13.42,5.16,5.26,10.61,10.1,14.25,16.43,1.88-8.11,1.42-6.64,3.26-14.66.62,8.77.34,12.12-1.47,18.29a31.051,31.051,0,0,1,2.23,8.78c.88,8.17.82,13.26,1.33,17.66,4.59-9.27,2.48-4.91,8.63-18.08-.58,7.68-.33,8.52-7.57,23.47,1.17,3.95,3.36,8.19,7.76,14.62a22.86,22.86,0,0,1-4.23,1.74c-8-12-8.06-16.66-8.2-25.67-3.49-6.12-7.93-13-12.69-17.68,4.34,1.65,7.77,4.12,12.52,11.41-.1-2.15-.27-4.55-.56-7.27-.77-7.27-4.22-12.79-8.53-17.93a65.941,65.941,0,0,0-13.9-4.38,24.8,24.8,0,0,1,10.66.72C314,247.06,309.11,242.24,305.48,236.23Z"/><path class="h" d="M372.56,123.12a132.822,132.822,0,0,0-21.35,14c.35,2.53.54,5.06.88,7.63-1.85-1.87-3.21-3.24-4.64-4.42-17.73,15.9-24.68,33.92-24.11,52.61,4.48,4.43,5.77,5.31,12.21,8.69-3.79.08-7.59.17-11.38.27,2.83,18,15.13,31.46,1.35,52.84q-.81,1.25-1.59,2.52,4.45,6.22,8.93,12.43c-6.08-2.87-8.47-3.85-12.76-4.66-3.9,10.94-1.76,24.92,23.16,46.82,2.92.89,11.25.23,13.51-1.21,2.67-10.57,12.63-27,20.66-39.82,6.54-10.44,8.94-18.61,8.83-25.67-4.32.37-8.55.2-12.9.36,5.09-4.15,7.57-6.17,10.79-10.92C379,221,365.82,209.85,361.91,189.1c-.24-1.25-.47-2.56-.68-3.92-2.39.07-4.76,0-7.18.12a44.889,44.889,0,0,0,6.4-5.87C358.71,163.87,359.62,143.18,372.56,123.12Z"/><path class="i" d="M340.11,195.46c-3.89-3.72-8.6-11.28-10.72-17.61,3.56,4.88,6.28,9.54,10.11,12.91a56.231,56.231,0,0,1-.18-6c.52-18.49,9.85-31.38,20.51-45.08-7.87,11.12-15.09,21.8-17.46,34.94,2.65-3.35,6.13-5.29,11-8.61-4.56,4.59-9.05,8.38-11.69,14-.11,1.54-.16,3.12-.13,4.74.16,8.25,2.37,15.62,5.17,22.67,1.45-5.14,4.55-8.73,8.93-13.62-3,5-6.48,11.16-7.46,17.22,4,9.47,8.63,18.54,10.12,28.62,6.6-9.57,5.24-7.9,11.73-17.38-3.68,11.72-5.75,15.93-11.26,23a43.431,43.431,0,0,1-1.59,12.55c-3,11.07-5.71,17.64-7.3,23.63,10.7-9.7,5.73-5.12,20.45-19.09-4.67,9.69-4.78,10.91-21.83,26.64-.51,5.72.17,12.34,2.61,22.95a30.771,30.771,0,0,1-6.39.1c-4.31-19.7-1.95-25.77,2.48-37.54-1.41-9.74-3.65-21-7.46-29.46,4.8,4.36,8,9.32,10.43,21.22,1-2.84,2-6,3-9.72,2.71-9.85,1.05-18.79-1.92-27.67-9.12-8.77-11.4-9.61-15.82-12.81,6.51,1.82,10.17,3.76,13.49,6.39C345.61,213.88,341.75,205.13,340.11,195.46Z"/><path class="j" d="M203.8,251.45,135.35,388.84,47.09,337.88l.29-94.92Z"/><path class="k" d="M223.35,242.94l-.3,94.94-87.7,50.96.28-94.94Z"/><path class="l" d="M223.35,242.94,135.63,293.9,47.38,242.96l87.7-50.99Z"/><path class="m" d="M148,371.73c-1.67-5.93-.39-10.76-2.77-13.42-6.64-7.41-5.53-14.43-4.9-17.39,2-9.33,11.24-7.56,13.15-12.07,8.49-20.08,2.28-34.39,14.17-50.54-34-6-54.55-7.68-73.12-30.38-2-2.48-3.58-7.16-4.94-14.71-5.38-3.05-9.24-6.41-9.48-9.06l15-9c3.16-6.59,5.4,0,10.87-4.18l21.32,13.61,69.87,44.18-5,9.45L223,309.8l.05,27.77c-10.7-13-33.68-32-32.15-55.49l-30.15,56.07,1,26.72a29,29,0,0,0,3.59,6.42l-12.43,7.37C150.39,376.31,148.59,373.81,148,371.73Z"/><path class="n" d="M170.49,348.87c.22,3.27.76,6.9.91,9.05.33,4.57.26,8.38,2.36,13.29,1.2,2.79,2.7,4.82,5.73,8.51-.41,3.39-7.56,2.57-11-.41-1.73.12-3.15-1.32-4.9-4.73-7.36-5.9-6.67-9.14-8.35-17.3-.42-2-1.83-4.1-3.7-6.34-4.35-5.24-2-6.83,2.8-12.62,1.41-1.7,3.2-5.62,4.48-7.93,3.65-6.59,12,5.65,12,5.73a25.33,25.33,0,0,0-.94,4.62,19.581,19.581,0,0,0,.32,3C170.38,345.39,170.37,347.15,170.49,348.87Z"/><path class="o" d="M170.49,348.87c-5.06,2.51-18.69-7.45-16.12-10.55a4.809,4.809,0,0,0,1-1.72,8.219,8.219,0,0,0,1.15-2.16c2.81,4.2,9.76,7.68,13.55,5.87a25.2,25.2,0,0,0,.13,3.44Z"/><path class="o" d="M145.36,345.86a5.29,5.29,0,0,0-.17,3.14c1.94,7.63,3.62,5.46,5.39,9.62s.37,5.27,1.38,8.17c2.25,7.62,7.37,14.37,14.48,16.69,4.79,1.56,10.88,1.75,12.69-1.59.11-4.28-12.21-16-12.79-17.25-1.89-3.77-8.11-27.28-15-25.18C149.14,340.13,145.84,343.93,145.36,345.86Z"/><path class="p" d="M170.49,348.87c.22,3.27.76,6.9.91,9.05.33,4.57.26,8.38,2.36,13.29.93,2.18,2.88,3.91,4.76,6.31,2.89,3.66.21,6-4.34,5.85a20.628,20.628,0,0,1-6-1.19c-9.71-3.68-13.43-15.79-15.07-23.7a17.1,17.1,0,0,0-3.6-6.92c-4.35-5.24-1.69-11.11,4.47-13.91a3.45,3.45,0,0,0,1.41-1.15c.66,5,8.87,10.49,15,9.68C170.4,347.07,170.43,348,170.49,348.87Z"/><path class="q" d="M170.82,352.51a6.222,6.222,0,0,0-1.45-.28,9,9,0,0,0-3.82.51l-.29-.87a10,10,0,0,1,4.22-.57,7.819,7.819,0,0,1,1.24.21c0,.33.07.67.1,1Zm1.58,14.6h-.34a9.16,9.16,0,0,0-3.82.52l-.29-.87a10,10,0,0,1,4.22-.57h0c.07.32.13.64.21,1Zm-.52-2.92h-.3a9.2,9.2,0,0,0-3.82.52l-.28-.88a9.929,9.929,0,0,1,4.22-.56h.07a9.531,9.531,0,0,0,.11,1Zm-.27-3q-.33-.06-.69-.09a9.06,9.06,0,0,0-3.83.52l-.28-.88a10,10,0,0,1,4.22-.57l.52.07Zm-.2-3.11a7.31,7.31,0,0,0-1-.16,9,9,0,0,0-3.82.52l-.29-.88a10.151,10.151,0,0,1,4.22-.57,4.057,4.057,0,0,1,.8.12,2.983,2.983,0,0,0,.07.8v.17Zm-.28-2.85a7.118,7.118,0,0,0-1.23-.22,9.2,9.2,0,0,0-3.82.52l-.29-.88a10,10,0,0,1,4.23-.56,7.754,7.754,0,0,1,1,.15Z"/><path class="r" d="M133,202c7.49,3,16.84,3.79,25,6.57,16,5.53,45,18.43,57.74,29.98,4.51,4.1,6.18,9.13,5.55,12.88s-2.83,7.61-4.73,11.37c-13.44,26.56-29.19,50-45.91,76.67-6,.27-11.46-2.68-13.21-7.14C171.53,303.8,173.71,270,191,254.51c-16.11-6.57-79.07-28-80.59-41.77L127.52,203Z"/><path class="n" d="M260.62,364.19c2.11,2.5,4.69,5.1,6.09,6.74,3,3.5,5.17,6.61,9.77,9.32,2.62,1.54,5,2.29,9.66,3.46,1.67,3-4.57,6.56-9.09,6.16-1.32,1.13-3.31.81-6.74-.9-9.43-.39-10.79-3.42-17-9-1.54-1.38-3.9-2.22-6.73-2.92-6.61-1.64-5.66-4.31-5.22-11.83.13-2.19-.35-6.24-1.76-8.29-4.29-6.19,13.15-3.88,13.18-3.8,1.45,3.68,1.62,3.88,4.56,7.1C258.47,361.45,259.5,362.86,260.62,364.19Z"/><path class="o" d="M260.62,364.19c-2.6,5-19.48,5.06-19.24,1a5,5,0,0,0-.2-2,8.851,8.851,0,0,0-.35-2.43c4.74,1.72,11.93-.13,13.91-3.83a36.466,36.466,0,0,0,2.62,3.24Z"/><path class="o" d="M238.59,376.64a5.18,5.18,0,0,0,1.72,2.63c6.08,5,6.15,2.26,10,4.56s3.42,4,5.94,5.77c6.33,4.8,14.46,7.21,21.56,4.87,4.78-1.58,9.8-5,9.28-8.79-2.45-3.52-19.33-5.7-20.52-6.33-3.76-1.92-22.69-17.18-27-11.39C238.23,369.78,237.83,374.81,238.59,376.64Z"/><path class="p" d="M260.62,364.19c2.11,2.5,4.69,5.1,6.09,6.74,3,3.5,5.17,6.61,9.77,9.32,2,1.2,4.63,1.44,7.57,2.26,4.5,1.24,3.74,4.74,0,7.29a20.551,20.551,0,0,1-5.54,2.6c-10,2.78-20.18-4.77-26.18-10.18a17.43,17.43,0,0,0-7-3.44c-6.61-1.64-7.94-7.95-4.64-13.86a3.34,3.34,0,0,0,.45-1.75c3.47,3.6,13.36,3.2,17.81-1.08C259.48,362.79,260,363.5,260.62,364.19Z"/><path class="q" d="M263,366.92a7,7,0,0,0-1.34.63,8.93,8.93,0,0,0-2.77,2.68l-.75-.54a10,10,0,0,1,3.06-2.95,7.894,7.894,0,0,1,1.12-.57l.68.75Zm10,10.83-.3.17a9.2,9.2,0,0,0-2.77,2.69l-.75-.54a10.11,10.11,0,0,1,3.06-3h0l.74.65Zm-2.15-2.05c-.22-.23-.44-.46-.65-.7h-.07a9.84,9.84,0,0,0-3.13,3l.74.54a9.06,9.06,0,0,1,2.78-2.68l.26-.15Zm-2-2.24-.61.33a9.059,9.059,0,0,0-2.78,2.68l-.74-.54a9.84,9.84,0,0,1,3.06-2.95c.15-.09.3-.18.46-.26l.61.74Zm-2-2.39-.11-.14-.53-.6c-.24.11-.47.24-.71.38a10,10,0,0,0-3.07,3l.75.54a9.06,9.06,0,0,1,2.78-2.68,5.808,5.808,0,0,1,.89-.46Zm-1.91-2.13-.68-.73a6.475,6.475,0,0,0-.9.47,10,10,0,0,0-3.07,2.95l.75.54a9.06,9.06,0,0,1,2.78-2.68,7.221,7.221,0,0,1,1.09-.55Z"/><path class="s" d="M92.38,230.76c17.13,37.8,60.15,37.37,100.88,51.95,6.46,30.21,30.47,47.9,47.39,77.06,3.78.38,10.86-.56,13.74-3.73a723.771,723.771,0,0,0-33.33-78.37c-6.2-12.67-8-15.47-23.1-23.75-27.38-15-52.88-30.11-80.09-46.73C112.61,211.4,95.24,222.65,92.38,230.76Z"/><path class="t" d="M116.21,239.59l45.14,25.62c.73.52,1.08.05,1.55-1.27l62.18-36.22c.49-1,.6-2.16-2.36-3.68l-40.89-22.75c-2.66-1-4.41-1.3-6.56-.17L113.9,234.81v2C113.73,237.71,114.68,238.76,116.21,239.59Z"/><path class="o" d="M116.21,237.34,161.35,263c.73.52,1.08.05,1.55-1.27l62.18-36.22c.49-1,.6-2.16-2.36-3.68L181.83,199c-2.66-1-4.41-1.3-6.56-.17l-60.84,35C113.2,234.81,114.22,236.26,116.21,237.34Z"/><path class="t" d="M131,241.74l34.36,19.5c.56.4.83,0,1.18-1l55.58-32.35c.37-.79.45-1.64-1.8-2.8L189.24,207.8c-2-.78-3.37-1-5-.13l-54.56,31.4C128.75,239.81,129.52,240.91,131,241.74Z"/><path class="j" d="M107.22,115.38c15.38-.31,25.23,8.16,32.69,22,6.68,12.41,9.8,23.76,15.33,35.78,10.33,22.48,14,23.8,31.35,40.11a12.08,12.08,0,0,0-4.24,7.33c-19.68-9.84-30.21-16.16-37.23-24.73-5.18-6.32-8.17-13.15-13.5-24.46-.71,10.24,1.84,12.73,2.47,19.23a16.14,16.14,0,0,1-.62,5.12c.31,1.94.25,4.54.59,6.53-15.06,8.76-30,19-41,29.86l-3.9-5.75a17.41,17.41,0,0,1-5.29-5.35c-8.14-14.72-12.25-26.92-13.59-39.39-1.46-13.53.47-43,8.78-54.43C84.59,119.55,93.63,115.65,107.22,115.38Z"/><path class="k" d="M96.69,73.93c-2-13.13,12.21-18.49,23.89-18.44,24.83.08,25.64,14.41,50.3,6.27,19.18-6.33,39.14-6.6,53.29,6.84,15.3,14.52,15.17,39.27-9.83,42-16.67,1.79-22.87-10.87-46,.43-25.26,12.33-29.39,12.62-57.76,6C87.11,109.14,77.2,82.39,96.69,73.93Z"/><path class="u" d="M139.38,224.92c.29.09,5.5,2,5.93,2.16a27.089,27.089,0,0,0,2.57,1.22c5.69,2,12.2,2.67,13.37,3.4,2,1.26,8.37,4.67,9.54,6.17,1,1.27,1.86,2.26,4.82,6.29,1.44,2-1.49,2.42-1.85,2.26-1.72-.75-2.86-3.84-5-5.59a27.381,27.381,0,0,0-5.09-3,36.444,36.444,0,0,1,4.44,4.13,28.93,28.93,0,0,1,3,5.78c.72,1.83-1,2.77-1.6,2.15-1.49-1.47-2.89-4.33-4.22-6-2.21-1.14-3.23-2-5.72-3.26l4.17,4.2,3.08,5.5c1,2-.8,2.8-1.9,1.71a48.133,48.133,0,0,1-3.61-5.12c-1.34-.89-3.22-2.6-5.1-4.11l2.39,3.67a26.549,26.549,0,0,1,2.9,4.06c.48,1-.42,2.18-2,.79-1.19-1.06-2.91-2.91-3.44-3.46-2.82-3.18-4.41-3.3-6.47-4.81-2.39-1.75-5.23-5.65-7.75-7.18a41.06,41.06,0,0,0-6.54-2.65Z"/><path class="k" d="M147.92,227.94c-3.43,1-5,6.1-4.62,9.25-20.71-6.53-37.27-10.8-54-26.17-12.79-11.77-19-32.46-17.91-60.08.39-10.39,22.59-15.84,25.45,2.28,3.12,19.71,5.12,30.19,15.28,44.64C121.76,211.52,131.67,220.45,147.92,227.94Z"/><path class="o" d="M252.76,172.05c-.66-.37-1.19-.92-1.85-1.3-.36-.36-1.73.41-3.47,1.45l-57,34.28c-3.95,2.36-3.42,1.65-5.48,5.76Q173,236.18,161,260.17c-1.05,2.36-1.58,3.6-1.27,3.88l1.94,1.37Z"/><path class="t" d="M186.86,213.58l-24,47.93c-2,4.44-2.1,4.94,1.74,2.46l57.89-34.77c3.59-2.14,3-1.94,4.87-5.7l24.49-48.74c2.27-4,.37-3-2.57-1.21l-57,34.27C188.4,210.18,188.92,209.47,186.86,213.58Z"/><path class="v" d="M216.47,196.46c-.49-.18-1.41.36-2.06,1.2s-.79,1.66-.31,1.83,1.41-.36,2.07-1.2S217,196.63,216.47,196.46Z"/><path class="w" d="M216,197.12c-.27-.1-.79.2-1.16.68s-.45.93-.17,1,.79-.2,1.16-.68S216.23,197.21,216,197.12Z"/><path class="x" d="M215.74,197.39c-.19-.06-.54.14-.79.46s-.3.64-.12.7.54-.14.79-.46S215.92,197.46,215.74,197.39Z"/><path class="o" d="M215.54,197.65a.632.632,0,0,0-.44.26c-.14.18-.17.35-.06.39s.29-.08.43-.26S215.64,197.69,215.54,197.65Z"/><path class="n" d="M104,99.79c-.72,5.79-2.83,13-6.17,17.78,3.31,3.28,9.46,5.34,13,4.6.62-.13.78-1.94,1.24-2.14.36-2.56,1.14-6.51,1.64-9.1Z"/><path class="y" d="M132.72,87.37a18,18,0,0,1-2.8,12.39,5.3,5.3,0,0,0-.92,2.84c-.21,5.24-1,6.49-3.68,9.47s-3.36,4.68-5.07,5.27a7.4,7.4,0,0,1-5.18-.62c-3.15-1.31-7.39-5.9-9.62-9.06-1.65-2.34-1.15-3.14-1-5.75-1.82-4.34,1.24-5.35,2.4-5,3.36.91,2.12,4.68,3.55,6.35C121.37,103.12,130.05,91.21,132.72,87.37Z"/><path class="n" d="M132.72,87.37c-3.58,11-15.84,16.46-22.37,15.86C121.37,103.12,130.05,91.21,132.72,87.37Z"/><path class="x" d="M110.79,126.66c4.39,11.42,1.09,16.43-2.58,23.73-4.6,9.17-2.78,20.87-1,31.56a37.29,37.29,0,0,0,9.31,9.59,45.65,45.65,0,0,1,3.61-12.42c-2.6-5.53-4.69-13.92-3.75-20.24,1.36-9.17,7-18-2.74-33.28.23-1.13.53-1.5.57-2,.22-2.49-2-1.79-3.29-1.52-1.45.31-5.19,1.54-2.19,3.7A9.47,9.47,0,0,0,110.79,126.66Z"/><path class="z" d="M110.79,126.66a26.33,26.33,0,0,1,2.09,10.5c.35.13.7.27,1.05.43,1.22.55,2.8,2.55,5.26,4.6-.07-4.71-1.43-10.06-5.59-16.59.23-1.13.53-1.5.57-2,.22-2.49-2-1.79-3.29-1.52-1.45.31-5.19,1.54-2.19,3.7a9.47,9.47,0,0,0,2.1.88Z"/><path class="o" d="M99.2,115.17c0,2.57,7.47,7.29,12,6.8-1,.92-3,3.27-3.4,5-3.9-.7-11.43-5-11.24-8.53C96.57,117.42,97.08,115.33,99.2,115.17Z"/><path class="o" d="M112.55,116.89a19.33,19.33,0,0,1-1.66,5.18A6.34,6.34,0,0,1,116,123.9a10.83,10.83,0,0,0-3.45-7.01Z"/><path class="aa" d="M272,118.59c.08,9.33,7,13.54,15.4,9.36s15.17-15.2,15.09-24.53-7-13.54-15.39-9.36-15.18,15.2-15.1,24.53Zm13-3.82a2.39,2.39,0,0,1-1-2.12,6.48,6.48,0,0,1,2.33-4.68l-.07-8.38a1.85,1.85,0,0,1,.93-1.52.61.61,0,0,1,.94.59l.08,8.38c1.37-.24,2.37.67,2.39,2.33a6.39,6.39,0,0,1-3.26,5.29,3.68,3.68,0,0,1-1.1.35l-6,12.4a1.22,1.22,0,0,1-.56.6.91.91,0,0,1-.44.1c-.36,0-.42-.56-.19-1Zm2.12-23.72c9.9-4.92,18,0,18.13,11s-7.88,24-17.78,28.9-18,0-18.14-11S277.2,96,287.09,91.05Z"/><path class="aa" d="M290.48,28.63,288,31.88,315,70l7.55-7.19L339.6,87.29l-2.55,1.4c-4.18-6.08-8.52-12.29-13.62-19.3l-7.62,7.25L286,34.46l-2.39,3.08-7.85-20.7Z"/><path class="aa" d="M472,270.88l-4-3.73a1,1,0,0,0-.2-.15c-.34-.19-.69-.17-.7.2a1.9,1.9,0,0,0,.51,1.39l4,3.66a1.3,1.3,0,0,0,.2.15c.34.19.68.16.68-.21a1.73,1.73,0,0,0-.49-1.31Zm-4-15.47a.61.61,0,0,0,.53.08l3.27-1.1c.34-.13.28-.6.11-1.15a1.08,1.08,0,0,0-.5-.63.48.48,0,0,0-.48-.06l-3.27,1.17c-.34.05-.29.52-.18,1a1.14,1.14,0,0,0,.52.66Zm-18.76.88a1.071,1.071,0,0,0-.22-.1l-4-.93c-.39-.1-.51.3-.51.74a1.44,1.44,0,0,0,.73,1,.881.881,0,0,0,.21.09l4,1c.39.08.5-.3.5-.8a1.35,1.35,0,0,0-.68-1Zm15.9,3c0,4-1.95,7.66-3.35,10.22l-.23.38-2-1.18v-8.19a1.24,1.24,0,0,0-.56-.91l-.94-.53c-.27-.17-.56-.07-.56.26v8.19l-2-1.18c-.28-1-.56-1.92-.94-3-1.26-4-2.73-8.57-2.52-11.7.08-1.73.73-2.83,1.74-3.26A5.43,5.43,0,0,1,458,249l.34.19.37.2a13.63,13.63,0,0,1,4.15,3.81,10.92,10.92,0,0,1,2.2,5.86v.24Zm-6.49-11.9-.28-.16L458,247c-2.11-1.09-4-1.35-5.44-.71-1.26.6-2.16,2-2.28,4.28-.23,3.56,1.37,8.49,2.68,12.68.43,1.28.82,2.51,1.09,3.56a5.449,5.449,0,0,1,.44,2v4.52a4.79,4.79,0,0,0,2.16,3.73l.17.1v1.13a2,2,0,0,0,.87,1.6l1.5.86c.51.29.89,0,.9-.58v-1.13l.16.09c1.16.67,2.16.16,2.16-1.23v-4.52a3.92,3.92,0,0,1,.83-2.24c1.5-2.72,3.57-6.47,3.51-11v-.32a14.55,14.55,0,0,0-2.89-7.78,18.14,18.14,0,0,0-5.25-4.75Zm1-2.09c0,.44-.33.63-.77.38a1.61,1.61,0,0,1-.72-1.24v-6.86c0-.44.33-.63.72-.41a1.64,1.64,0,0,1,.77,1.27Zm-12.89-7.06a1.82,1.82,0,0,0-.53-.54c-.22-.12-.42-.13-.52.06a1.24,1.24,0,0,0,.12,1.22l3.24,4.92a1.73,1.73,0,0,0,.54.54c.23.13.43.14.51,0a1.28,1.28,0,0,0-.1-1.27Z"/><path class="aa" d="M406.72,304.65l5.91,3.42v-5.7c-.85-.44-1.69-.9-2.51-1.38-1.16-.66-2.29-1.35-3.41-2.08v5.74ZM447.26,289l9.94-1.12L456.86,301l-4-5.09a29.53,29.53,0,0,1-7.78,7.26c-9.32,5.55-21.33,4.25-34.31-3.24-1.3-.76-2.62-1.57-3.94-2.45a44.287,44.287,0,0,1-3.85-2.84l.36-1.81a56,56,0,0,0,7.22,4.92c.68.39,1.34.76,2,1.09,16.94,8.95,30.08,6.57,38.76-4.86l-4-5Zm-34.6,8.57v-3.13L406.75,291v2.9c1.42,1,2.9,1.93,4.4,2.8.5.29,1,.57,1.51.84Zm21.61-17.83-.06,23.22a22,22,0,0,0,5.93-1.51l.05-18.3-5.92-3.41Zm-.08,28.06v12.73l5.91,3.41.05-17.21a25.761,25.761,0,0,1-5.93,1.07ZM425,315.23l5.91,3.41V307.8a34.19,34.19,0,0,1-5.93-.79v8.22Zm6-12.16v-4.32l-5.92-3.42v7a29.757,29.757,0,0,0,5.93.73Zm-15.15,6.86,5.92,3.41v-7.18a52.827,52.827,0,0,1-5.92-2.23Zm6-8.46V285.58l-5.92-3.41v17a48.285,48.285,0,0,0,5.87,2.3Z"/><path class="aa" d="M7.39,161.72a.75.75,0,0,0,1.22.69l3-1.7-.07,2.81L12.81,160l20.56-11.87,2.33,3.62-.09-4.92,5.8-3.34a2.79,2.79,0,0,0,1.21-2.1V125.7c0-.74-.57-1-1.21-.67L8.56,144a2.73,2.73,0,0,0-1.21,2v15.69Zm1.17-20.37,32.79-18.93c1.9-1.1,3.46-.22,3.46,2v15.69a7.62,7.62,0,0,1-3.44,6l-3.51,2,.25,13L32,151.48l-17.85,10.3L9.06,175.6l.21-11-.65.37c-1.9,1.1-3.46.21-3.47-2V147.28a7.59,7.59,0,0,1,3.41-5.93Z"/><path class="aa" d="M16.77,188.5c-3.74,2.16-6.82.4-6.84-3.93a15.11,15.11,0,0,1,6.8-11.79c3.76-2.17,6.85-.39,6.86,3.91a15.06,15.06,0,0,1-6.82,11.81Zm-5.23,5.76a9,9,0,0,0-4.12,7.07v9.83l18.75-10.83V190.5c0-2.6-1.89-3.6-4.13-2.3l-.45.26L16.8,198l-4.74-4-.52.3Zm5.25.18,2.33-4.55-4.58,2.64Z"/><path class="aa" d="M33.62,185.68l.38-.22,3.68,3.06,3.59-7.25.38-.22c1.71-1,3.15-.2,3.16,1.8v7.42l-14.25,8.22v-7.42a7,7,0,0,1,3.07-5.39Zm4-4.42a11.39,11.39,0,0,0,5.16-8.92c0-3.29-2.33-4.64-5.19-3a11.39,11.39,0,0,0-5.15,9c0,3.26,2.32,4.6,5.18,2.95Zm0,4.58,1.71-3.49-3.46,2Z"/><path class="aa" d="M211.13,152l14.92-7.76a.54.54,0,0,1,.87.48v2.61a1.74,1.74,0,0,1-.85,1.4l-14.92,7.76a.537.537,0,0,1-.86-.48v-2.62a1.74,1.74,0,0,1,.84-1.39Zm.24,7.52a1.74,1.74,0,0,0-.84,1.39v.79c0,.51.39.73.86.48L222,156.37a1.72,1.72,0,0,0,.85-1.4v-.78c0-.51-.39-.73-.87-.47Z"/><path class="aa" d="M231,157.36q-25.42,13.14-50.86,26.27l-1,.5v-41l52.18-27v41l-.36.19ZM181.14,181l23.15-12V151.74l-23.14,12V181Zm0-19.43,23.15-12V132.31l-23.15,12v17.27ZM206.25,168l23.15-12V138.74l-23.15,12Zm0-19.43,23.15-12V119.32l-23.15,12Z"/><path class="aa" d="M212.48,130.56c-.37.18-.6.72-.42,1l6.06,9.14a.33.33,0,0,0,.43.06.92.92,0,0,0,.38-.4l5.56-11.25c.23-.47,0-.85-.39-.65l-2.18,1.08a.9.9,0,0,0-.38.41l-2.3,4.65a.87.87,0,0,1-.39.41.31.31,0,0,1-.42-.07l-3.53-5.3a.31.31,0,0,0-.42-.07Z"/><path class="aa" d="M187.8,166.14l2.57-1.28a1.89,1.89,0,0,0,.9-1.18l.77-3.11a1.78,1.78,0,0,1,.9-1.18c.38-.19.76-.14.91.28l.81,2.32c.13.38.5.49.92.28l2.56-1.28c.93-.46,1.33.66.58,1.64l-2.06,2.71a1.54,1.54,0,0,0-.34,1.35l.82,2.32a1.74,1.74,0,0,1-.9,1.85.79.79,0,0,1-.56.07l-2.08-.65a.73.73,0,0,0-.57.07,1.89,1.89,0,0,0-.56.48l-2.06,2.72a1.59,1.59,0,0,1-.55.48c-.6.3-1.14-.08-.93-.94l.78-3.11c.12-.5,0-.91-.36-1l-2.09-.64C186.5,168.1,186.88,166.6,187.8,166.14Z"/><path class="aa" d="M201.56,17.15a12.77,12.77,0,0,0-2.31,1.59,19.32,19.32,0,0,0-6,10.42c-1.49,7.49,2.93,11.37,8.38,8.5a13.16,13.16,0,0,0,2.3-1.58A19.32,19.32,0,0,0,210,25.67c1.51-7.52-2.93-11.4-8.4-8.52ZM189.36,30.3l.38-.19A2.65,2.65,0,0,0,191,28.46c.13-.45.27-.91.42-1.36.25-.7.14-1.34-.27-1.59l-.28-.17c-.54-.33-.54-1.29,0-2.15l2.07-3.37a2.46,2.46,0,0,1,1-.92,1,1,0,0,1,1,0l.28.17a1,1,0,0,0,1,0,2.05,2.05,0,0,0,.6-.45c.34-.34.68-.67,1-1a2.72,2.72,0,0,0,.9-1.88v-.43a2.63,2.63,0,0,1,1.35-2.2l3-1.47a.88.88,0,0,1,1.38.85v.42a.9.9,0,0,0,.94,1,8.689,8.689,0,0,1,1,0,1.33,1.33,0,0,0,.6-.15,2.54,2.54,0,0,0,1-.92l.27-.44a2.49,2.49,0,0,1,1-.93,1,1,0,0,1,1,0l2.12,1.28c.53.33.54,1.29,0,2.15l-.28.45a1.94,1.94,0,0,0-.24,1.85,6.6,6.6,0,0,1,.43.93.85.85,0,0,0,1.29.37l.39-.19a.88.88,0,0,1,1.38.85v3.28a2.66,2.66,0,0,1-1.36,2.2l-.38.19a2.65,2.65,0,0,0-1.27,1.65c-.13.46-.26.91-.42,1.36-.25.71-.14,1.35.28,1.6l.27.17c.54.33.54,1.29,0,2.14L210.24,35a2.5,2.5,0,0,1-1,.93,1,1,0,0,1-1,0l-.28-.16a1,1,0,0,0-1,0,2.05,2.05,0,0,0-.6.45c-.34.33-.67.66-1,1a2.74,2.74,0,0,0-.91,1.89v.43a2.66,2.66,0,0,1-1.35,2.19l-3,1.47a.88.88,0,0,1-1.38-.83V42a.9.9,0,0,0-.93-1c-.35,0-.69.05-1,.05a1.22,1.22,0,0,0-.6.14,2.45,2.45,0,0,0-1,.92l-.28.43a2.43,2.43,0,0,1-1,.93,1,1,0,0,1-1,0L191,42.19c-.54-.32-.55-1.29,0-2.14l.27-.44a1.93,1.93,0,0,0,.24-1.86,9,9,0,0,1-.43-.94c-.2-.51-.71-.66-1.29-.37l-.39.19a.88.88,0,0,1-1.38-.84V32.51a2.65,2.65,0,0,1,1.34-2.21Z"/><path class="aa" d="M22.63,27.05,76.19.31A3,3,0,0,1,77.43,0a2.2,2.2,0,0,1,2,1.25h0a2.77,2.77,0,0,1,.27,1.22l.66,41.6a4.59,4.59,0,0,1-.7,2.37A4.44,4.44,0,0,1,78,48.14L24.38,74.88a2.69,2.69,0,0,1-1.22.31A2.2,2.2,0,0,1,22,74.87a2.13,2.13,0,0,1-.83-.92,2.84,2.84,0,0,1-.29-1.25l-.66-41.61a4.74,4.74,0,0,1,2.46-4ZM77.22,2.39,23.66,29.12a2.53,2.53,0,0,0-1.18,1.94l.66,41.61a.66.66,0,0,0,0,.21.6.6,0,0,0,.18-.07L76.91,46.07a2.18,2.18,0,0,0,.84-.84,2.3,2.3,0,0,0,.36-1.12L77.45,2.5a.74.74,0,0,0,0-.18.63.63,0,0,0-.23.07Z"/><path class="aa" d="M44.42,51.5,71.1,38c1-.48,1.73,0,1.75,1.11a3.33,3.33,0,0,1-1.69,2.79L44.49,55.4a1.14,1.14,0,0,1-1.77-1.11,3.35,3.35,0,0,1,1.7-2.79ZM44,26.2,70.71,12.69a1.12,1.12,0,0,1,1.74,1.08V16.5a3.37,3.37,0,0,1-1.69,2.79L44.13,32.8a1.13,1.13,0,0,1-1.77-1.07V29A3.38,3.38,0,0,1,44,26.2Zm.23,14.23a3.34,3.34,0,0,0-1.7,2.78,1.13,1.13,0,0,0,1.76,1.11L71,30.81A3.34,3.34,0,0,0,72.68,28a1.124,1.124,0,0,0-1.75-1.12Z"/><path class="aa" d="M26.78,29.13c-.35.17-.57.69-.4.95l5.78,8.7a.3.3,0,0,0,.4.07.86.86,0,0,0,.36-.39l5.3-10.72c.22-.44,0-.8-.37-.62l-2.07,1a.83.83,0,0,0-.37.39L33.22,33a.8.8,0,0,1-.37.38.29.29,0,0,1-.4-.06l-3.37-5a.29.29,0,0,0-.4-.06Z"/><path class="aa" d="M27.6,42c-.35.17-.57.69-.4.94L33,51.61c.08.13.24.14.4.06a.81.81,0,0,0,.36-.39L39,40.57c.22-.44,0-.81-.37-.62L36.6,41a.83.83,0,0,0-.37.39L34,45.8a.88.88,0,0,1-.37.39c-.16.08-.32.07-.4-.06L29.9,41.07c-.08-.12-.23-.14-.4-.06Z"/><path class="aa" d="M263.36,246.74c7.78-3.87,14.11,1.35,11.95,11.45a25.63,25.63,0,0,1-8.64,14,18.348,18.348,0,0,1-3.27,2.13c-7.77,3.86-14.06-1.36-11.93-11.42a25.62,25.62,0,0,1,8.59-14,18.42,18.42,0,0,1,3.3-2.16Z"/><path class="aa" d="M257,256.32c-.45.23-.74.91-.52,1.24L264,268.94a.39.39,0,0,0,.53.08,1.15,1.15,0,0,0,.47-.5l6.93-14c.29-.57,0-1.05-.49-.81L268.73,255a1.09,1.09,0,0,0-.48.51l-2.87,5.8a1.09,1.09,0,0,1-.47.5.38.38,0,0,1-.53-.08l-4.4-6.61a.4.4,0,0,0-.53-.08Z"/><path class="aa" d="M11.46,264.25a11.128,11.128,0,0,0-2,1.35,16.32,16.32,0,0,0-5.1,8.81c-1.26,6.33,2.47,9.61,7.08,7.18a10.58,10.58,0,0,0,1.94-1.34,16.32,16.32,0,0,0,5.13-8.79c1.28-6.36-2.48-9.64-7.09-7.21ZM1.14,275.37l.33-.16a2.24,2.24,0,0,0,1.07-1.4c.1-.38.22-.76.35-1.14.21-.6.12-1.14-.23-1.35l-.23-.14c-.45-.28-.46-1.09,0-1.82l1.75-2.84a2.12,2.12,0,0,1,.82-.79.86.86,0,0,1,.82,0l.23.15a.87.87,0,0,0,.81,0,2.181,2.181,0,0,0,.51-.38q.42-.44.87-.84A2.3,2.3,0,0,0,9,263v-.37a2.27,2.27,0,0,1,1.15-1.86l2.49-1.24a.75.75,0,0,1,1.17.72v.36c0,.54.32.86.79.81h.86a1,1,0,0,0,.51-.12,2.11,2.11,0,0,0,.81-.77l.23-.38a2.07,2.07,0,0,1,.81-.78.85.85,0,0,1,.83,0l1.78,1.08c.45.28.46,1.1,0,1.82l-.23.38a1.61,1.61,0,0,0-.21,1.56,6.371,6.371,0,0,1,.37.79c.16.43.6.56,1.09.32l.32-.17a.75.75,0,0,1,1.17.72v2.78a2.23,2.23,0,0,1-1.14,1.85l-.33.16a2.33,2.33,0,0,0-1.07,1.4c-.1.38-.22.76-.35,1.14-.21.61-.12,1.15.23,1.36l.24.14c.45.28.45,1.09,0,1.81l-1.75,2.85a2.14,2.14,0,0,1-.81.78.83.83,0,0,1-.82,0L16.9,280a.87.87,0,0,0-.81,0,2.182,2.182,0,0,0-.51.38c-.28.29-.56.56-.86.83a2.26,2.26,0,0,0-.76,1.59v.37A2.28,2.28,0,0,1,12.84,285l-2.5,1.24a.74.74,0,0,1-1.17-.7v-.37c0-.54-.32-.86-.79-.82a8.394,8.394,0,0,1-.86,0,1,1,0,0,0-.51.12,2.11,2.11,0,0,0-.81.77l-.23.37a2.1,2.1,0,0,1-.81.79.85.85,0,0,1-.82,0l-1.79-1.08c-.45-.28-.46-1.09,0-1.81l.23-.38a1.64,1.64,0,0,0,.2-1.57,8,8,0,0,1-.37-.78.71.71,0,0,0-1.09-.32l-.32.16A.75.75,0,0,1,0,280v-2.77a2.24,2.24,0,0,1,1.14-1.86Z"/></g></svg>