<svg xmlns="http://www.w3.org/2000/svg" width="16.855" height="19.5" viewBox="0 0 16.855 19.5"><defs><style>.a{fill:#fff;}</style></defs><g transform="translate(-22.503)"><path class="a" d="M39.358,12.643H37.6V7.891a5.5,5.5,0,0,0-3.83-5.23A2.743,2.743,0,0,0,31.034,0h-.046A2.744,2.744,0,0,0,28.25,2.613a5.5,5.5,0,0,0-3.992,5.278v4.752H22.5v4.506h5.671a2.792,2.792,0,0,0,5.513,0h5.671V12.643ZM30.987.882h.046a1.862,1.862,0,0,1,1.837,1.577,5.508,5.508,0,0,0-.754-.052H29.744a5.514,5.514,0,0,0-.59.032A1.862,1.862,0,0,1,30.987.882ZM30.93,18.618a1.913,1.913,0,0,1-1.858-1.469h3.716A1.913,1.913,0,0,1,30.93,18.618Zm7.546-2.351H23.385V13.525H25.14V7.891a4.609,4.609,0,0,1,4.6-4.6h2.373a4.609,4.609,0,0,1,4.6,4.6v5.633h1.756Z"/></g></svg>