<svg xmlns="http://www.w3.org/2000/svg" width="90.372" height="66.219" viewBox="0 0 90.372 66.219"><defs><style>.a{fill:#70b9d6;}.b{fill:#1d84b5;}</style></defs><path class="a" d="M45.889,31.52V47.365a1.892,1.892,0,0,1-1.248,1.8,33.765,33.765,0,0,1-9.151,1.821A32.692,32.692,0,0,0,47.606,49.2a1.892,1.892,0,0,0,1.264-1.8V31.52Z" transform="translate(-7.274 -6.46)"/><path class="a" d="M105.056,67.07v8.857a2.846,2.846,0,0,1-2.846,2.846h5.112a2.838,2.838,0,0,0,2.838-2.846V67.07Z" transform="translate(-20.949 -13.747)"/><path class="b" d="M88.093,53.323H85.708V4.627a2.25,2.25,0,0,0-2.218-2.242H8.557A2.242,2.242,0,0,0,6.315,4.627v48.7H3.93V4.627A4.635,4.635,0,0,1,8.557,0H83.489a4.635,4.635,0,0,1,4.635,4.627Z" transform="translate(-0.806)"/><path class="b" d="M86.373,79.658H4.031A4.047,4.047,0,0,1,0,75.619V66.763A1.193,1.193,0,0,1,1.193,65.57H29.544a2.314,2.314,0,0,1,2.314,2.314,2.608,2.608,0,0,0,2.6,2.6H55.923a2.6,2.6,0,0,0,2.592-2.6,2.322,2.322,0,0,1,2.314-2.314H89.179a1.193,1.193,0,0,1,1.193,1.193v8.857a4.039,4.039,0,0,1-4,4.039ZM2.385,67.955v7.664a1.654,1.654,0,0,0,1.646,1.654H86.373a1.646,1.646,0,0,0,1.646-1.654V67.955H60.932a4.985,4.985,0,0,1-4.977,4.913H34.489A4.985,4.985,0,0,1,29.5,67.955Z" transform="translate(0 -13.439)"/><path class="b" d="M34.1,52.161a31.189,31.189,0,0,1-10.622-1.868,3.085,3.085,0,0,1-2.011-2.9V31.49h2.385v15.9a.692.692,0,0,0,.437.66,29.822,29.822,0,0,0,20.067,0,.684.684,0,0,0,.453-.66V31.514H47.2V47.359a3.077,3.077,0,0,1-2.075,2.926A34.457,34.457,0,0,1,34.1,52.161Z" transform="translate(-4.401 -6.454)"/><path class="b" d="M31.975,34.439a1.2,1.2,0,0,1-.517-.119L10.644,24.326A1.216,1.216,0,0,1,10,23.261a1.193,1.193,0,0,1,.668-1.073l20.8-10.28a1.177,1.177,0,0,1,1.057,0l20.8,10.28a1.193,1.193,0,0,1,0,2.139L32.492,34.32A1.169,1.169,0,0,1,31.975,34.439Zm-18.087-11.2,18.087,8.69,18.1-8.69-18.1-8.9Z" transform="translate(-2.05 -2.415)"/><rect class="b" width="23.962" height="2.385" transform="translate(54.46 14.994)"/><rect class="b" width="10.057" height="2.385" transform="translate(68.365 22.682)"/><rect class="b" width="10.502" height="2.385" transform="translate(54.46 22.682)"/><rect class="b" width="31.293" height="2.385" transform="translate(47.138 30.378)"/><rect class="b" width="4.715" height="2.385" transform="translate(73.708 38.066)"/><rect class="b" width="5.494" height="2.385" transform="translate(65.622 38.066)"/><rect class="b" width="14.653" height="2.385" transform="translate(47.138 38.066)"/><rect class="b" width="2.385" height="5.168" transform="translate(49.547 20.838)"/></svg>