<svg xmlns="http://www.w3.org/2000/svg" width="50.017" height="50.009" viewBox="0 0 50.017 50.009"><defs><style>.a{fill:#00ebc7;}</style></defs><g transform="translate(0 0.039)"><g transform="translate(0 -0.039)"><path class="a" d="M61.751,1.305,89.17,7.2,81.228,44.161l-1.99-.412a.61.61,0,1,0-.247,1.195l2.6.536a.61.61,0,0,0,.718-.468L90.5,6.858a.614.614,0,0,0-.481-.714L61.41-.026a.617.617,0,0,0-.724.464l-.7,3.306A.61.61,0,0,0,61.173,4Z" transform="translate(-40.499 0.039)"/><path class="a" d="M31.142,16.266l27.925,2.692L55.443,56.6l-2.981-.282a.6.6,0,0,0-.649.552.607.607,0,0,0,.549.649l3.572.341h.058a.614.614,0,0,0,.607-.552L60.33,18.465a.61.61,0,0,0-.546-.649L30.658,14.987a.584.584,0,0,0-.669.546l-.24,2.442a.61.61,0,1,0,1.214.117Z" transform="translate(-20.085 -10.104)"/><path class="a" d="M42.06,97.791a.614.614,0,0,0-.844.169l-4.468,6.689-1.916-1.913a.611.611,0,0,0-.864.864l2.442,2.439a.61.61,0,0,0,.938-.094l4.871-7.316A.61.61,0,0,0,42.06,97.791Z" transform="translate(-22.817 -65.957)"/><path class="a" d="M29.873,30H.61a.61.61,0,0,0-.61.623V64.777a.6.6,0,0,0,.178.429l4.871,4.871a.617.617,0,0,0,.432.179H29.873a.61.61,0,0,0,.61-.61V30.623a.61.61,0,0,0-.61-.623Zm-25,38.183L2.081,65.394H4.87Zm24.4.86H6.1V64.777a.61.61,0,0,0-.61-.61H1.221V31.234H29.273Z" transform="translate(0 -20.246)"/><path class="a" d="M40.98,45.693a.61.61,0,0,0-.6-.627H30.638a.61.61,0,1,0,0,1.218h9.741A.607.607,0,0,0,40.98,45.693Z" transform="translate(-20.247 -30.419)"/><path class="a" d="M50.977,60.71a.614.614,0,0,0-.61-.62H38.17a.61.61,0,1,0,0,1.221h12.2a.61.61,0,0,0,.61-.6Z" transform="translate(-25.364 -40.565)"/><path class="a" d="M20.531,60.09H15.66a.61.61,0,0,0,0,1.221h4.871a.61.61,0,0,0,0-1.221Z" transform="translate(-10.163 -40.565)"/><path class="a" d="M35.664,68.214a.61.61,0,0,0-.61-.607H15.538a.61.61,0,1,0,0,1.218H35.053a.61.61,0,0,0,.61-.61Z" transform="translate(-10.05 -45.64)"/><path class="a" d="M15.538,76.334h4.871a.61.61,0,0,0,0-1.218H15.538a.61.61,0,1,0,0,1.218Z" transform="translate(-10.05 -50.712)"/><path class="a" d="M50.274,75.117h-12.2a.61.61,0,1,0,0,1.218h12.2a.61.61,0,1,0,0-1.218Z" transform="translate(-25.271 -50.712)"/><path class="a" d="M30.476,86.39a7.929,7.929,0,1,0,7.913,7.926A7.929,7.929,0,0,0,30.476,86.39Zm0,14.635a6.709,6.709,0,1,1,6.692-6.709,6.709,6.709,0,0,1-6.692,6.709Z" transform="translate(-15.214 -58.325)"/></g></g></svg>