<svg xmlns="http://www.w3.org/2000/svg" width="490.102" height="359.147" viewBox="0 0 490.102 359.147"><defs><style>.a{fill:#ebebed;}.b{fill:#f5f5f7;}.c{fill:#273d83;}.d{fill:#111159;}.e{fill:#3021bf;}.f{fill:#00ebc7;}.g{fill:#05c6a1;}.h{fill:#ff8a33;}.i{fill:#462be2;}.j{fill:#ddd;}.k,.s{fill:#fff;}.l{fill:#2b2b7f;}.m{fill:#c0c0ce;}.n{fill:#ef9d7f;}.o{fill:#ffbea4;}.p{fill:#17203a;}.q{fill:#252f5a;}.r{fill:#dd8b66;}.s{opacity:0.2;}.t{fill:#37477c;}.u{fill:#05d8af;}.v{fill:#33ff9d;}.w{fill:#ffa76c;}</style></defs><path class="a" d="M333.174,227.542c-9.068,0-9.068-71.582,0-71.582H166.451c-9.068,0-9.068,71.582,0,71.582Z" transform="translate(129.89 126.888)"/><path class="b" d="M161.041,163.771h167.2a1.161,1.161,0,0,0,0-2.321h-167.2a1.161,1.161,0,1,0,0,2.321Z" transform="translate(130.077 131.354)"/><path class="b" d="M161.106,171.537H328.3a1.161,1.161,0,1,0,0-2.3h-167.2a1.161,1.161,0,1,0,0,2.3Z" transform="translate(130.012 137.68)"/><path class="b" d="M161.041,183.211h167.2a1.161,1.161,0,0,0,0-2.321h-167.2a1.161,1.161,0,1,0,0,2.321Z" transform="translate(130.077 147.171)"/><path class="b" d="M161.041,190.981h167.2a1.161,1.161,0,0,0,0-2.321h-167.2a1.161,1.161,0,1,0,0,2.321Z" transform="translate(130.077 153.492)"/><path class="b" d="M161.041,167.661h167.2a1.161,1.161,0,0,0,0-2.321h-167.2a1.161,1.161,0,1,0,0,2.321Z" transform="translate(130.077 134.519)"/><path class="b" d="M161.041,175.431h167.2a1.161,1.161,0,0,0,0-2.321h-167.2a1.161,1.161,0,1,0,0,2.321Z" transform="translate(130.077 140.841)"/><path class="b" d="M161.041,179.321h167.2a1.161,1.161,0,0,0,0-2.321h-167.2a1.161,1.161,0,1,0,0,2.321Z" transform="translate(130.077 144.006)"/><path class="b" d="M161.041,187.091h167.2a1.161,1.161,0,0,0,0-2.321h-167.2a1.161,1.161,0,1,0,0,2.321Z" transform="translate(130.077 150.327)"/><path class="c" d="M249.226,227.542c-9.068,0-9.068-71.582,0-71.582H64.711c-9.068,0-9.068,71.582,0,71.582Z" transform="translate(47.115 126.888)"/><path class="c" d="M66.769,153.4H251.3a4.643,4.643,0,0,1,1.505,9.068c-4.86,7.672-4.86,55.115,0,62.8a4.643,4.643,0,0,1-1.505,9.068H66.769c-2.829,0-11.389,0-11.389-40.443S63.94,153.4,66.769,153.4Zm1.342,71.582h174.83c-1.814-5.876-3.047-15.452-3.047-31.158s1.306-25.263,3.047-31.139H68.111C63.469,171.011,63.469,216.677,68.111,224.983Z" transform="translate(45.057 124.805)"/><path class="d" d="M76.758,224.974a49.312,49.312,0,0,0,2.358,9.3H96.925a50.892,50.892,0,0,1-2.34-9.286,229.69,229.69,0,0,1,0-62.3,50.508,50.508,0,0,1,2.34-9.286H79.116a48.968,48.968,0,0,0-2.358,9.286C73.911,179.6,73.911,208.054,76.758,224.974Z" transform="translate(60.712 124.813)"/><path class="d" d="M134.624,224.974a50.888,50.888,0,0,0,2.412,9.3h17.828a50.889,50.889,0,0,1-2.34-9.286,229.693,229.693,0,0,1,0-62.3,50.509,50.509,0,0,1,2.34-9.286H137.036a50.511,50.511,0,0,0-2.34,9.286C131.777,179.6,131.777,208.054,134.624,224.974Z" transform="translate(107.799 124.813)"/><path class="d" d="M90.578,224.982a49.311,49.311,0,0,0,2.358,9.286h11.154a49.313,49.313,0,0,1-2.358-9.286,229.693,229.693,0,0,1,0-62.3,48.966,48.966,0,0,1,2.358-9.286H92.936a48.965,48.965,0,0,0-2.358,9.286C87.731,179.606,87.731,208.062,90.578,224.982Z" transform="translate(71.956 124.805)"/><path class="d" d="M99.214,224.974a49.437,49.437,0,0,0,2.34,9.3h11.154a49.44,49.44,0,0,1-2.34-9.286c-2.847-16.921-2.847-45.34,0-62.3a49.076,49.076,0,0,1,2.34-9.286H101.554a49.079,49.079,0,0,0-2.34,9.286C96.349,179.6,96.349,208.054,99.214,224.974Z" transform="translate(78.971 124.813)"/><path class="d" d="M168.5,234.278H335.225a4.643,4.643,0,1,0,0-9.267H169.861c-4.643-8.343-4.643-53.991,0-62.315H335.225a4.643,4.643,0,1,0,0-9.286H168.5c-2.811,0-11.371,0-11.371,40.443S165.69,234.278,168.5,234.278Zm0-71.582Z" transform="translate(127.84 124.813)"/><g transform="translate(308.492 299.134)"><path class="a" d="M190.246,167.1v31.339a1.814,1.814,0,0,1-2.285,1.632l-7.472-2.521-7.472,2.521a1.814,1.814,0,0,1-2.267-1.632V167.1a1.523,1.523,0,0,1,1.505-1.523h16.485A1.542,1.542,0,0,1,190.246,167.1Z" transform="translate(-169.571 -164.419)"/><path class="a" d="M189.052,201.847a2.9,2.9,0,0,0,2.884-2.884V167.624a2.684,2.684,0,0,0-2.684-2.684H172.766a2.666,2.666,0,0,0-2.666,2.684v31.339a2.92,2.92,0,0,0,1.2,2.34,2.847,2.847,0,0,0,2.612.381l7.109-2.394,7.037,2.394A2.756,2.756,0,0,0,189.052,201.847Zm-8.034-4.933h-.381l-7.472,2.593a.491.491,0,0,1-.744-.453v-31.43a.363.363,0,0,1,.345-.363h16.486a.363.363,0,0,1,.363.363v31.339a.562.562,0,0,1-.744.526l-7.49-2.521a1.161,1.161,0,0,0-.363-.054Z" transform="translate(-170.1 -164.94)"/></g><path class="e" d="M173.594,201.328a2.74,2.74,0,0,0,.925-.145l7.109-2.394,7.109,2.394a2.884,2.884,0,0,0,3.809-2.739V167.2a2.666,2.666,0,0,0-2.666-2.666h-16.5a2.666,2.666,0,0,0-2.666,2.666v31.339a2.884,2.884,0,0,0,2.884,2.884Z" transform="translate(138.888 133.86)"/><path class="f" d="M73.4,127.44H379.9c16.54,0,16.54,43.653,0,43.653H73.4" transform="translate(59.718 103.684)"/><path class="g" d="M381.476,176.4H75.052a3.673,3.673,0,0,1,0-7.345h306.5c5.677,0,8.742-9.34,8.742-18.136s-3.065-18.136-8.742-18.136H75.052a3.682,3.682,0,1,1,0-7.363h306.5c11.045,0,16.087,13.221,16.087,25.5S392.521,176.4,381.476,176.4Z" transform="translate(58.066 102.041)"/><path class="b" d="M23.15,171.093c16.54,0,16.54-43.653,0-43.653H235.231c16.558,0,16.558,43.653,0,43.653Z" transform="translate(18.835 103.684)"/><path class="a" d="M235.04,136.182H29.415a.907.907,0,0,1-.925-.907.925.925,0,0,1,.925-.925H235.04a.916.916,0,0,1,0,1.832Z" transform="translate(23.179 109.306)"/><path class="a" d="M234.958,145.414H29.333a.925.925,0,0,1,0-1.814H234.958a.925.925,0,0,1,0,1.814Z" transform="translate(23.261 116.832)"/><path class="a" d="M235.528,133.1H28.633a.925.925,0,0,1,0-1.814H235.528a.925.925,0,0,1,0,1.814Z" transform="translate(22.691 106.817)"/><path class="a" d="M234.438,139.262H30.155a.925.925,0,0,1-.925-.925.907.907,0,0,1,.925-.907H234.438a.916.916,0,0,1,0,1.832Z" transform="translate(23.781 111.812)"/><path class="a" d="M234.438,142.342H30.155a.925.925,0,0,1-.925-.925.907.907,0,0,1,.925-.907H234.438a.916.916,0,0,1,0,1.832Z" transform="translate(23.781 114.318)"/><path class="a" d="M235.6,148.492H28.707a.916.916,0,0,1,0-1.832H235.6a.916.916,0,0,1,0,1.832Z" transform="translate(22.618 119.321)"/><path class="g" d="M236.883,176.4H24.8a3.673,3.673,0,0,1,0-7.345H236.883c5.677,0,8.742-9.34,8.742-18.136s-3.065-18.136-8.742-18.136H24.8a3.682,3.682,0,0,1,0-7.363H236.883c11.063,0,16.087,13.221,16.087,25.5S247.946,176.4,236.883,176.4Z" transform="translate(17.183 102.041)"/><g transform="translate(229.002 238.904)"><path class="a" d="M126.78,133.417v15a1.36,1.36,0,0,0,1.814,1.288l5.93-2,5.93,1.995a1.36,1.36,0,0,0,1.814-1.288v-15a1.2,1.2,0,0,0-1.2-1.2H128.013a1.2,1.2,0,0,0-1.233,1.2Z" transform="translate(-125.855 -131.332)"/><path class="a" d="M128.555,151.1a2.195,2.195,0,0,1-1.324-.435,2.3,2.3,0,0,1-.961-1.814v-15a2.122,2.122,0,0,1,2.122-2.122H141.45a2.1,2.1,0,0,1,2.1,2.122v15a2.267,2.267,0,0,1-3.011,2.158l-5.622-1.9-5.64,1.9A2.43,2.43,0,0,1,128.555,151.1Zm-.163-17.574a.29.29,0,0,0-.272.29v15a.435.435,0,0,0,.181.363.454.454,0,0,0,.4,0l5.93-1.995a.8.8,0,0,1,.58,0l5.93,1.995a.526.526,0,0,0,.4,0,.435.435,0,0,0,.181-.363v-15a.29.29,0,0,0-.272-.29Z" transform="translate(-126.27 -131.73)"/></g><path class="h" d="M126.3,133.049v15a1.342,1.342,0,0,0,1.814,1.288l5.912-1.995,5.93,1.995a1.342,1.342,0,0,0,1.814-1.288v-15a1.179,1.179,0,0,0-1.2-1.2h-13a1.179,1.179,0,0,0-1.27,1.2Z" transform="translate(102.757 107.271)"/><path class="h" d="M128.075,150.705a2.285,2.285,0,0,1-2.285-2.285v-15a2.122,2.122,0,0,1,2.122-2.122h13.04a2.122,2.122,0,0,1,2.122,2.122v15a2.285,2.285,0,0,1-.961,1.814,2.231,2.231,0,0,1-2.049.308l-5.64-1.814-5.622,1.814A2.031,2.031,0,0,1,128.075,150.705Zm6.348-3.9a.908.908,0,0,1,.308,0l5.949,2.086a.381.381,0,0,0,.4,0,.435.435,0,0,0,.2-.363v-15a.272.272,0,0,0-.29-.272h-13a.272.272,0,0,0-.29.272v15a.435.435,0,0,0,.2.363.4.4,0,0,0,.4,0l5.912-1.995a.8.8,0,0,1,.218-.018Z" transform="translate(102.342 106.825)"/><path class="g" d="M305.883,147.711H162.845a5.713,5.713,0,0,1-5.695-5.695h0a5.713,5.713,0,0,1,5.695-5.677H305.883a5.7,5.7,0,0,1,5.677,5.677h0a5.7,5.7,0,0,1-5.677,5.695Z" transform="translate(127.856 110.925)"/><path class="i" d="M58.34,202.883h83.1c11.408-6.184,19.95-20.185,19.95-38.448L200.8,24.48H438.016L398.679,164.435c0,18.263-8.524,32.264-19.95,38.448H243.671" transform="translate(47.465 19.917)"/><path class="c" d="M380.812,209.625H245.772a4.643,4.643,0,1,1,0-9.286H379.524c10.192-6.094,16.486-18.916,16.5-33.805a4.172,4.172,0,0,1,.181-1.251L433.95,31.149H206.381L168.1,167.169c-.236,18.48-8.76,34.458-22.343,41.858a4.588,4.588,0,0,1-2.231.562h-83.1a4.643,4.643,0,1,1,0-9.286h81.884c10.174-6.094,16.486-18.916,16.5-33.805a4.171,4.171,0,0,1,.181-1.251L198.383,25.273a4.643,4.643,0,0,1,4.48-3.373H440.08a4.625,4.625,0,0,1,4.461,5.894L405.314,167.169c-.236,18.48-8.76,34.458-22.343,41.858a4.57,4.57,0,0,1-2.158.6Z" transform="translate(45.382 17.818)"/><path class="b" d="M115.079,182.674c-6.275-6.928,36.725-156.6,49.275-156.6H389.113L346.022,182.039Z" transform="translate(93.122 21.21)"/><path class="a" d="M125.524,152.718h-.163a1.179,1.179,0,0,1-1-1.306c4.951-36.018,16.848-75.083,36.417-119.425a1.161,1.161,0,0,1,1.542-.58,1.143,1.143,0,0,1,.58,1.523c-19.478,44.143-31.321,83.008-36.272,118.79A1.161,1.161,0,0,1,125.524,152.718Z" transform="translate(101.175 25.467)"/><path class="a" d="M129.524,152.72h-.163a1.179,1.179,0,0,1-1-1.306c4.933-36.272,16.848-75.264,36.417-119.425a1.161,1.161,0,0,1,2.122.943c-19.478,43.961-31.339,82.809-36.272,118.79A1.161,1.161,0,0,1,129.524,152.72Z" transform="translate(104.429 25.465)"/><path class="a" d="M133.525,152.72h-.163a1.161,1.161,0,0,1-1-1.306c4.915-36.381,16.83-75.445,36.417-119.425a1.161,1.161,0,1,1,2.122.943c-19.5,43.78-31.357,82.645-36.272,118.79A1.161,1.161,0,0,1,133.525,152.72Z" transform="translate(107.682 25.465)"/><path class="a" d="M137.417,152.72h-.145a1.161,1.161,0,0,1-1-1.306c4.824-36.036,17.084-76.171,36.417-119.425a1.161,1.161,0,1,1,2.122.943c-19.242,43-31.43,82.972-36.272,118.79a1.179,1.179,0,0,1-1.124,1Z" transform="translate(110.864 25.465)"/><path class="a" d="M141.377,152.718h-.145a1.161,1.161,0,0,1-1-1.306c4.824-36.272,17.066-76.407,36.417-119.425a1.143,1.143,0,0,1,1.523-.58,1.124,1.124,0,0,1,.58,1.523c-19.242,42.819-31.43,82.79-36.272,118.79A1.179,1.179,0,0,1,141.377,152.718Z" transform="translate(114.085 25.468)"/><path class="a" d="M145.344,152.718H145.2a1.2,1.2,0,0,1-1.016-1.306c4.824-36.381,17.066-76.57,36.435-119.425a1.143,1.143,0,0,1,1.523-.58,1.161,1.161,0,0,1,.58,1.542c-19.26,42.638-31.448,82.609-36.272,118.772a1.143,1.143,0,0,1-1.106,1Z" transform="translate(117.301 25.468)"/><path class="a" d="M149.3,152.718h-.163a1.179,1.179,0,0,1-1-1.306c4.806-36.562,17.048-76.751,36.435-119.425a1.143,1.143,0,0,1,1.523-.58,1.161,1.161,0,0,1,.58,1.542C167.4,75.423,155.217,115.376,150.411,151.72A1.161,1.161,0,0,1,149.3,152.718Z" transform="translate(120.522 25.468)"/><path class="a" d="M153.264,152.718H153.1a1.179,1.179,0,0,1-1-1.306c4.788-36.725,17.048-76.914,36.417-119.425a1.161,1.161,0,0,1,1.542-.58,1.179,1.179,0,0,1,.58,1.542c-19.3,42.311-31.484,82.265-36.272,118.772A1.161,1.161,0,0,1,153.264,152.718Z" transform="translate(123.744 25.467)"/><path class="a" d="M157.225,152.718h-.163a1.161,1.161,0,0,1-1-1.306c4.77-36.888,17.03-77.078,36.417-119.425a1.161,1.161,0,0,1,1.542-.58,1.179,1.179,0,0,1,.58,1.542c-19.315,42.148-31.5,82.1-36.272,118.772A1.161,1.161,0,0,1,157.225,152.718Z" transform="translate(126.965 25.467)"/><path class="a" d="M161.167,138.387h-.145a1.161,1.161,0,0,1-1-1.306c3.627-27.984,11.081-56.584,22.887-87.415a1.165,1.165,0,0,1,2.176.834c-11.752,30.65-19.206,59.069-22.761,86.889a1.161,1.161,0,0,1-1.161,1Z" transform="translate(130.186 39.799)"/><path class="a" d="M165.127,152.707h-.145a1.161,1.161,0,0,1-1-1.306C168.718,114.187,180.978,74,200.4,31.958a1.161,1.161,0,0,1,2.1.979c-19.333,41.821-31.52,81.775-36.272,118.754A1.179,1.179,0,0,1,165.127,152.707Z" transform="translate(133.408 25.478)"/><path class="a" d="M169.094,152.707h-.145a1.2,1.2,0,0,1-1.016-1.306c4.733-37.378,16.993-77.567,36.435-119.443a1.161,1.161,0,0,1,2.1.979C187.121,74.65,174.933,114.549,170.2,151.692a1.143,1.143,0,0,1-1.106,1.016Z" transform="translate(136.624 25.478)"/><path class="a" d="M173.055,152.717h-.145a1.161,1.161,0,0,1-1.016-1.306C176.61,113.87,188.87,73.681,208.33,31.968a1.179,1.179,0,0,1,1.542-.562,1.161,1.161,0,0,1,.562,1.542C191.064,74.443,178.877,114.4,174.162,151.7a1.143,1.143,0,0,1-1.106,1.016Z" transform="translate(139.844 25.468)"/><path class="a" d="M177.014,152.777h-.145a1.161,1.161,0,0,1-1.016-1.288c4.7-37.7,16.939-77.894,36.435-119.461a1.161,1.161,0,1,1,2.086.979c-19.369,41.35-31.556,81.3-36.272,118.754a1.161,1.161,0,0,1-1.088,1.016Z" transform="translate(143.067 25.408)"/><path class="a" d="M180.974,152.72h-.145a1.161,1.161,0,0,1-1.016-1.288c4.679-37.868,16.921-77.984,36.417-119.461a1.179,1.179,0,0,1,1.56-.562,1.161,1.161,0,0,1,.544,1.542c-19.387,41.187-31.575,81.14-36.272,118.754A1.161,1.161,0,0,1,180.974,152.72Z" transform="translate(146.288 25.465)"/><path class="a" d="M184.917,152.718h-.145a1.143,1.143,0,0,1-1-1.288c4.661-38.085,16.921-78.22,36.417-119.461a1.164,1.164,0,1,1,2.1,1C202.89,73.971,190.7,113.925,186.023,151.7A1.161,1.161,0,0,1,184.917,152.718Z" transform="translate(149.509 25.468)"/><path class="a" d="M188.877,134.5h-.145a1.143,1.143,0,0,1-1-1.288,357.276,357.276,0,0,1,19.3-78.656,1.161,1.161,0,1,1,2.176.78,355.956,355.956,0,0,0-19.17,78.148,1.161,1.161,0,0,1-1.161,1.016Z" transform="translate(152.731 43.682)"/><path class="a" d="M192.844,152.716H192.7a1.161,1.161,0,0,1-1.016-1.288c4.625-38.321,16.885-78.51,36.435-119.461a1.143,1.143,0,0,1,1.542-.544,1.161,1.161,0,0,1,.562,1.542c-19.442,40.715-31.629,80.669-36.272,118.736a1.124,1.124,0,0,1-1.106,1.016Z" transform="translate(155.946 25.47)"/><path class="a" d="M196.8,152.758h-.145a1.161,1.161,0,0,1-1.016-1.288C200.25,112.986,212.51,72.8,232.079,32.01a1.161,1.161,0,1,1,2.086,1c-19.442,40.552-31.629,80.505-36.272,118.736a1.143,1.143,0,0,1-1.088,1.016Z" transform="translate(159.168 25.427)"/><path class="a" d="M200.764,152.717h-.145a1.161,1.161,0,0,1-1.016-1.288c4.588-38.629,16.848-78.819,36.435-119.479a1.16,1.16,0,0,1,2.086,1.016c-19.478,40.407-31.665,80.36-36.272,118.736a1.161,1.161,0,0,1-1.088,1.016Z" transform="translate(162.389 25.468)"/><path class="a" d="M204.706,152.7h-.127a1.161,1.161,0,0,1-1.016-1.288c4.57-38.775,16.83-78.982,36.435-119.479a1.161,1.161,0,0,1,2.086,1.016c-19.5,40.262-31.683,80.215-36.272,118.736a1.179,1.179,0,0,1-1.106,1.016Z" transform="translate(165.611 25.483)"/><path class="a" d="M208.666,152.7h-.127a1.161,1.161,0,0,1-1.016-1.288c4.552-38.938,16.812-79.127,36.435-119.479a1.161,1.161,0,0,1,2.086,1.016c-19.514,40.117-31.7,80.07-36.272,118.736A1.179,1.179,0,0,1,208.666,152.7Z" transform="translate(168.833 25.483)"/><path class="a" d="M212.667,152.717h-.2a1.161,1.161,0,0,1-1.034-1.288c4.534-39.065,16.812-79.272,36.453-119.479a1.143,1.143,0,0,1,1.542-.526,1.161,1.161,0,0,1,.544,1.542c-19.532,39.9-31.72,79.925-36.272,118.736A1.179,1.179,0,0,1,212.667,152.717Z" transform="translate(172.014 25.468)"/><path class="a" d="M216.586,152.718h-.127a1.161,1.161,0,0,1-1.016-1.288c4.516-39.21,16.776-79.417,36.435-119.479a1.161,1.161,0,0,1,1.56-.526,1.143,1.143,0,0,1,.526,1.542c-19.532,39.9-31.72,79.8-36.272,118.736A1.143,1.143,0,0,1,216.586,152.718Z" transform="translate(175.277 25.468)"/><path class="a" d="M220.459,152.717h0a1.161,1.161,0,0,1-1.016-1.288c4.5-39.355,16.758-79.562,36.435-119.479a1.164,1.164,0,0,1,2.086,1.034C238.4,72.647,226.226,112.6,221.692,151.7a1.143,1.143,0,0,1-1.233,1.016Z" transform="translate(178.531 25.468)"/><path class="a" d="M224.524,152.718h-.145a1.161,1.161,0,0,1-1.016-1.288c4.48-39.5,16.739-79.707,36.435-119.479a1.161,1.161,0,0,1,1.56-.526,1.179,1.179,0,0,1,.526,1.56C242.3,72.521,230.11,112.456,225.612,151.7A1.161,1.161,0,0,1,224.524,152.718Z" transform="translate(181.72 25.468)"/><path class="a" d="M228.456,122.745h-.127a1.161,1.161,0,0,1-1.016-1.288A329.962,329.962,0,0,1,237.633,68.99a1.143,1.143,0,0,1,1.433-.8,1.161,1.161,0,0,1,.8,1.433,329.064,329.064,0,0,0-10.265,52.1A1.161,1.161,0,0,1,228.456,122.745Z" transform="translate(184.934 55.441)"/><path class="j" d="M287.751,26.273c-9.485,5.441-23.141,33.57-34.621,72.961-21.981,75.482-20.548,68.391-8.306,76.171,11.734,7.545,7.545,1.288,7.545,1.288L291.577,25.82Z" transform="translate(192.017 21.007)"/><path class="k" d="M37.83,138.189s11.77-12.3,17.066-22.525a3.373,3.373,0,0,1,3.41-1.814,715.088,715.088,0,0,0,125.845,2.72c37.215-2.63,161.809-20.747,217.5-8.179a10.882,10.882,0,0,1,7.254,15.6c-3.21,6.2-7.853,12.8-13.548,14.182Z" transform="translate(30.778 84.611)"/><path class="j" d="M165.865,112.335a143.275,143.275,0,0,1-4.425,25.844H294.848c5.695-1.4,10.337-7.98,13.566-14.182a10.882,10.882,0,0,0-7.363-15.615c-31.248-7.019-84.1-4.425-131.068-.308a4.461,4.461,0,0,0-4.117,4.262Z" transform="translate(131.346 84.621)"/><path class="c" d="M338.27,129.576H31.773a4.643,4.643,0,1,1,0-9.286h306.5a4.643,4.643,0,0,1,0,9.286Z" transform="translate(22.073 97.867)"/><path class="l" d="M297.663,209.614H162.623a4.643,4.643,0,0,1,0-9.286H296.375c10.192-6.094,16.486-18.916,16.5-33.805a4.172,4.172,0,0,1,.181-1.251L352.451,25.3a4.645,4.645,0,1,1,8.941,2.521L322.165,167.158c-.236,18.48-8.76,34.458-22.343,41.858a4.57,4.57,0,0,1-2.158.6Z" transform="translate(128.531 17.828)"/><path class="m" d="M100.3,235.476h0c-5.441,0-11.262-6.493-12.822-14.418L69.957,132.029c-1.56-7.944,1.65-14.509,7.146-14.509h0c5.441,0,11.281,6.493,12.84,14.509l17.519,89.029C109.022,229.02,105.812,235.476,100.3,235.476Z" transform="translate(56.596 95.613)"/><path class="m" d="M89.666,235.476h0c-5.441,0-11.9-6.493-14.237-14.418L49.386,132.029c-2.34-7.944.254-14.509,5.749-14.509h0c5.441,0,11.9,6.493,14.237,14.509l26.152,89.029C97.755,229.02,95.162,235.476,89.666,235.476Z" transform="translate(39.48 95.613)"/><path class="n" d="M114.611,48.954a195.03,195.03,0,0,1,1.342,31.883,122.9,122.9,0,0,1-1.687,16.322,72.931,72.931,0,0,1-2.013,8.324,51.179,51.179,0,0,1-3.319,8.216,74.538,74.538,0,0,1-9.34,14.092A77.985,77.985,0,0,1,87.625,139.4a62.7,62.7,0,0,1-14.509,8.615A39.174,39.174,0,0,1,56.032,151.1a4.135,4.135,0,0,1,0-8.252h.109a32.192,32.192,0,0,0,12.7-4.1,54.879,54.879,0,0,0,11.3-8.234,73.994,73.994,0,0,0,16.5-22.67,39.683,39.683,0,0,0,2.176-6.221,58.762,58.762,0,0,0,1.324-6.765,139.03,139.03,0,0,0,1.143-14.509c.218-4.933.218-9.938,0-14.944s-.29-10.192-.453-15.089v-.181a6.964,6.964,0,0,1,13.856-1.215Z" transform="translate(42.446 34.925)"/><path class="e" d="M92.434,37.341c4.625-1.2,7.545,13.656,9.485,21.582,1.378,5.6,2.122,17.9,2.43,24.647a4.081,4.081,0,0,1-4.407,4.28L80.519,86.326a4.081,4.081,0,0,1-3.772-3.881C76.184,71.89,76.057,41.548,92.434,37.341Z" transform="translate(62.302 30.325)"/><path class="o" d="M60.48,170.627c2.829,5.822,7.581,18.825,7.581,18.825l8.107-1.995S72.3,171.661,70.817,167Z" transform="translate(49.206 135.87)"/><path class="o" d="M78.31,174.258c2.176,5.8,5.64,18.825,5.64,18.825l7.472-1.995s-2.43-15.76-3.518-20.349Z" transform="translate(63.712 138.913)"/><path class="i" d="M150.257,52.4A24.085,24.085,0,0,0,126.681,33.16h-.453l-21.328.4a6.928,6.928,0,0,0-3.065.78l-11.9,6.166h0A21.328,21.328,0,0,0,79.056,64.082,380.256,380.256,0,0,1,88,149.611a6.928,6.928,0,0,0,6.946,7.254,5.881,5.881,0,0,0,.8,0l54.172-6.13a6.982,6.982,0,0,0,6.166-6.438A346.2,346.2,0,0,0,150.257,52.4Z" transform="translate(63.892 26.979)"/><path class="k" d="M99.431,56.712a13.221,13.221,0,1,1,13.221-13.221A13.221,13.221,0,0,1,99.431,56.712Zm0-25.862a12.7,12.7,0,1,0,12.7,12.7,12.7,12.7,0,0,0-12.7-12.7Z" transform="translate(70.14 24.627)"/><path class="k" d="M95.574,57.191a3.627,3.627,0,0,1-2.829-1.56,6.728,6.728,0,0,1-1.215-3.79c0-2.974,1.687-5.441,3.881-5.441h0a3.627,3.627,0,0,1,2.829,1.56,6.6,6.6,0,0,1,1.215,3.79h0a6.384,6.384,0,0,1-1.07,3.809,3.482,3.482,0,0,1-2.811,1.687Zm-.091-10.265h0c-1.814,0-3.373,2.249-3.319,4.915a5.949,5.949,0,0,0,1.106,3.428,2.992,2.992,0,0,0,2.358,1.342h0a3.011,3.011,0,0,0,2.358-1.433,5.985,5.985,0,0,0,.961-3.482h0a5.949,5.949,0,0,0-1.124-3.428,2.992,2.992,0,0,0-2.34-1.342Z" transform="translate(74.468 37.751)"/><path class="k" d="M96.646,64.557c-2.176,0-3.972-2.376-4.044-5.332a6.529,6.529,0,0,1,1.07-3.827,3.627,3.627,0,0,1,2.811-1.669h0a3.627,3.627,0,0,1,2.829,1.56,6.492,6.492,0,0,1,1.27,3.772h0a6.4,6.4,0,0,1-1.07,3.827A3.518,3.518,0,0,1,96.7,64.557Zm0-10.247h0a3.011,3.011,0,0,0-2.358,1.433,6.021,6.021,0,0,0-.961,3.464c0,2.648,1.614,4.77,3.464,4.77h0a3.011,3.011,0,0,0,2.358-1.433,5.894,5.894,0,0,0,.961-3.464h0A5.967,5.967,0,0,0,99,55.634a3.011,3.011,0,0,0-2.448-1.324Z" transform="translate(75.337 43.714)"/><path class="p" d="M133.616,100h-6.2c-4.1,0-8.216.163-12.314.345-8.216.417-16.449,1.106-24.737,2.267a187.78,187.78,0,0,0-24.973,5.151A108.817,108.817,0,0,0,40,118.154h0l-1.6.889a13.078,13.078,0,0,0-2.213,1.542,14.382,14.382,0,0,0-1.7,20.276c.4.472,1.07,1.415,1.614,2.176l1.814,2.485c1.161,1.7,2.3,3.428,3.446,5.187,2.285,3.518,4.5,7.127,6.674,10.755,4.371,7.254,8.524,14.8,12.55,22.38s7.853,15.325,11.571,23.141,7.254,15.742,10.7,23.722l14.509-4.824c-2.158-8.615-4.389-17.211-6.855-25.771s-5.078-17.1-7.907-25.608-5.876-16.975-9.177-25.39Q71.61,144.8,69.8,140.425c1.469-.472,2.956-.925,4.48-1.36a154.664,154.664,0,0,1,20.766-4.171c7.146-1.016,14.509-1.614,21.763-1.995,3.627-.181,7.363-.272,11.063-.308h5.55a5.441,5.441,0,0,0,5.441-5.1l1.36-27.2C137.661,100.145,135.738,100.109,133.616,100Z" transform="translate(25.291 81.359)"/><path class="q" d="M178.654,113.709,177.275,96.5a6.982,6.982,0,0,0-2.5-4.788,7.055,7.055,0,0,0-5.223-1.542L111.732,96.68a6.982,6.982,0,0,0-6.184,7.254l.254,7.254c-5.223,1.215-10.446,2.5-15.706,4.044a187.88,187.88,0,0,0-24.774,8.887h0l-1.306.562a13.5,13.5,0,0,0-1.542.762,14.509,14.509,0,0,0-5.3,19.949c.381.635.889,1.669,1.342,2.575l1.4,2.829,2.757,5.858c1.814,3.954,3.627,7.962,5.3,12.006,3.428,8.089,6.692,16.322,9.83,24.61s6.112,16.685,9.068,25.1,5.6,16.939,8.288,25.39l15.017-3.337c-1.324-8.977-2.7-17.973-4.262-26.932s-3.228-17.955-5.078-26.914-3.845-17.918-6.076-26.877c-.925-3.627-1.814-7.254-2.884-11.008,2.376-.78,4.788-1.542,7.254-2.249,7.127-2.1,14.509-3.809,22.053-5.441s15.107-2.9,22.742-4.117l6.783-1.016,9.068-.472a19.949,19.949,0,0,0,6.638-1.523h.4v-.127a20.348,20.348,0,0,0,7.037-5.151A19.949,19.949,0,0,0,178.654,113.709Z" transform="translate(44.89 73.326)"/><path class="e" d="M82.953,95.873c0,2.521,0,7.254-.163,9.993a.562.562,0,0,0,.6.58c5.967-.308,52.594-2.775,71.111-6.511a.544.544,0,0,0,.453-.544,98.293,98.293,0,0,0-.435-9.975,3.21,3.21,0,0,0-3.627-2.884c-10.138,1.4-41.713,5.64-66.178,7.472a1.814,1.814,0,0,0-1.759,1.868Z" transform="translate(67.357 70.379)"/><path class="o" d="M102.153,61.739a9.249,9.249,0,0,1-6.239-2.43C83.491,48.028,82.186,30.291,82.077,28.314a9.291,9.291,0,1,1,18.553-1.052c.2,3.337,2.013,13.076,7.762,18.3a9.286,9.286,0,0,1-6.239,16.159Z" transform="translate(66.765 15.049)"/><path class="r" d="M96.61,29.21S72.743,34.8,88.721,46.584C102.414,56.686,106.567,34.705,96.61,29.21Z" transform="translate(67.701 23.765)"/><path class="o" d="M107,25.937c0,1.632.236,3.627.363,5.441l.526,5.441c.2,1.814.417,3.627.653,5.241s.508,3.264.762,4.552l.236,1.233A16.54,16.54,0,0,1,77.968,57.2c-1.016-2.5-1.814-4.733-2.521-6.946s-1.342-4.316-1.959-6.42-1.161-4.189-1.7-6.275-1.034-4.081-1.542-6.384v-.472a18.662,18.662,0,0,1,36.435-8.034A18.3,18.3,0,0,1,107,25.937Z" transform="translate(56.872 6.925)"/><path class="q" d="M117.838,26.614c-.145-7.907-.326-11.444-4.48-11.589l3.228-1.814a3.881,3.881,0,0,0-3.337.308A4.806,4.806,0,0,0,113,8.6l-1.56,5.35C108.824,8.1,100.917,3.073,88.657,8.931c-11.19,5.259-18.517,5.1-18.517,5.1a12.985,12.985,0,0,0,4.135,3.083A64.71,64.71,0,0,1,65.1,17.2a10.591,10.591,0,0,0,5.876,4.534c-3.627.345-6.475.308-6.475.308a11.861,11.861,0,0,0,8.506,4.933c-2.739,1.36-4.7,2.176-4.7,2.176,5.568,5.006,19.95,1.052,27.966-6.239,4.552,8.832,12.5,18.879,16.014,18.553C118,40.959,118,39.236,117.838,26.614Z" transform="translate(52.477 5.142)"/><path class="o" d="M86.78,27.825c1.922-5.785,5.06-9.068,8.669-4.516,5.223,6.565-.508,17.229-4.316,13.493A16.322,16.322,0,0,1,86.78,27.825Z" transform="translate(70.604 17.224)"/><path class="s" d="M94.086,228.347a800.557,800.557,0,0,0-23.958-97.209,6,6,0,0,1,3.446-7.381c32.645-13.384,79.109-18.553,79.58-18.607v.58c-.453,0-46.773,5.223-79.417,18.571a5.441,5.441,0,0,0-3.119,6.674A798.978,798.978,0,0,1,94.648,228.2Z" transform="translate(56.823 85.549)"/><path class="l" d="M93.542,178.862a20.929,20.929,0,0,1-7.073,4.57,1.614,1.614,0,0,0-.979,1.124c-.907,3.627-5.169,16.177-9.993,19.623-5.441,3.845,8.2,3.827,12.55-2.847s7.6-10.61,10.7-13.04c2.466-1.959,1.179-6.094-2.757-9.594a1.7,1.7,0,0,0-2.448.163Z" transform="translate(60.396 145.028)"/><path class="l" d="M79.788,176.6a21.419,21.419,0,0,1-7.925,2.865,1.614,1.614,0,0,0-1.215.852c-1.687,3.246-8.705,14.509-14.182,16.848-6.094,2.539,7.109,5.586,12.876.091s9.812-8.633,13.366-10.3c2.847-1.324,2.539-5.658-.508-9.975a1.814,1.814,0,0,0-2.412-.381Z" transform="translate(44.661 143.441)"/><path class="k" d="M79.091,185.946a2.974,2.974,0,0,1-1.632-.453,1.161,1.161,0,0,1-.544-1.143,3.246,3.246,0,0,1,2.14-2.321,4.57,4.57,0,0,1,4.806,1.034.254.254,0,0,1,.109.218.326.326,0,0,1,0,.218,8.488,8.488,0,0,1-4.879,2.448Zm1.542-3.627a3.772,3.772,0,0,0-1.36.254,2.72,2.72,0,0,0-1.814,1.814.617.617,0,0,0,.29.6c1.941,1.233,4.661-.979,5.441-1.7a4.135,4.135,0,0,0-2.485-.961Z" transform="translate(62.569 147.864)"/><path class="k" d="M83.183,185.142h0a8.234,8.234,0,0,1-4.987-1.814,2.63,2.63,0,0,1-.671-1.995,1.487,1.487,0,0,1,1.415-1.523h.109c1.433,0,3.627,1.687,4.425,5.042a.254.254,0,0,1,0,.254A.326.326,0,0,1,83.183,185.142Zm-4.135-4.806h0a.925.925,0,0,0-.871.979,2.1,2.1,0,0,0,.526,1.578,7.255,7.255,0,0,0,4.189,1.65C82.022,181.787,80.209,180.336,79.048,180.336Z" transform="translate(63.065 146.292)"/><path class="k" d="M62.253,182.162a3.192,3.192,0,0,1-2.176-.78,1.179,1.179,0,0,1-.345-1.215,3.283,3.283,0,0,1,2.521-1.922,4.588,4.588,0,0,1,4.552,1.814.308.308,0,0,1,0,.218.345.345,0,0,1-.127.2A9.249,9.249,0,0,1,62.253,182.162Zm.871-3.428a4.535,4.535,0,0,0-.762,0,2.72,2.72,0,0,0-2.067,1.505.562.562,0,0,0,.181.635c1.7,1.56,4.752-.163,5.677-.744a4.026,4.026,0,0,0-3.029-1.4Z" transform="translate(48.558 144.955)"/><path class="k" d="M65.763,182.2h0a8.179,8.179,0,0,1-4.661-2.7,2.557,2.557,0,0,1-.308-2.086,1.487,1.487,0,0,1,1.632-1.251c1.433.145,3.464,2.231,3.627,5.749a.29.29,0,0,1-.109.236.326.326,0,0,1-.181.054Zm-3.518-5.441a.925.925,0,0,0-.889.816,2.031,2.031,0,0,0,.236,1.65,7.254,7.254,0,0,0,3.845,2.321c-.254-2.9-1.941-4.661-3.065-4.788Z" transform="translate(49.382 143.318)"/><path class="o" d="M156.31,73.275a159.359,159.359,0,0,0-10.446-31.049,6.964,6.964,0,0,0-12.876,5.3v.236c1.687,4.534,3.464,9.413,4.9,14.2s2.884,9.63,3.917,14.509a91.169,91.169,0,0,1,2.249,14.164,26.7,26.7,0,0,1-1.542,11.879c-.218.526-1,1.814-1.614,2.884l-1.977,3.264c-1.324,2.1-2.7,4.171-4.135,6.166a82.9,82.9,0,0,1-9.3,11.154,43.526,43.526,0,0,1-24.012,12.858,79.615,79.615,0,0,1-11.5-2.43,5.042,5.042,0,0,0-2.394,0c-4.534.816-9.3,9.957-8.089,14.382.762,2.757,4.57.78,8.814.163,9.068-1.342,20.276-1.378,20.421-3.627v-.834a46.862,46.862,0,0,0,9.938-2.757,58.144,58.144,0,0,0,14.763-9.068,84.116,84.116,0,0,0,11.825-12.024c1.814-2.158,3.391-4.371,4.987-6.6l2.321-3.373a40.532,40.532,0,0,0,2.376-3.79,30.577,30.577,0,0,0,3.047-9.666,47.26,47.26,0,0,0,.544-9.068,88.866,88.866,0,0,0-2.213-16.866Z" transform="translate(64.513 30.988)"/><path class="i" d="M109.3,33.506c-4.752-.526-1.814,15.688-1.433,23.831s3.065,23.413,3.065,23.413L134.747,76.9a3.011,3.011,0,0,0,2.5-3.482C135.653,64.028,129.179,35.7,109.3,33.506Z" transform="translate(86.747 27.25)"/><path class="k" d="M110.5,76.991c0-.163-2.612-15.379-3.083-23.45,0-.816-.091-1.723-.163-2.666-.236-3.845-.544-8.633-.4-12.7h.58c-.145,3.954.163,8.723.4,12.568,0,.943.127,1.814.163,2.666.453,8.052,3.047,23.232,3.065,23.4Z" transform="translate(86.907 31.063)"/><path class="t" d="M75.73,175.2l1.669,6.13,18.3-3.065-1.088-7.526Z" transform="translate(61.613 138.913)"/><path class="q" d="M57.59,172.047l1.886,6.057,18.19-3.754-1.378-7.49Z" transform="translate(46.855 135.756)"/><path class="q" d="M99.652,103.857h0a1.161,1.161,0,0,1-1.088-1.233,7.254,7.254,0,0,0-1.36-5.658c-1.179-1.251-3.246-1.814-6.493-1.814a1.161,1.161,0,1,1,0-2.321c3.936,0,6.547.834,8.2,2.593a9.431,9.431,0,0,1,1.977,7.4A1.161,1.161,0,0,1,99.652,103.857Z" transform="translate(72.857 75.526)"/><path class="b" d="M102.023,93.807c0,1.088-2.739,2.194-6.293,2.5s-6.547-.363-6.62-1.433v-.925L102.041,92.9Z" transform="translate(72.499 75.583)"/><path class="q" d="M101.992,93.574c0,1.07-2.739,2.194-6.311,2.485s-6.529-.345-6.62-1.433,2.739-2.194,6.311-2.485S101.9,92.486,101.992,93.574Z" transform="translate(72.458 74.908)"/><path class="b" d="M99.863,93.356c0,.635-2.14,1.306-4.9,1.542s-5.042,0-5.1-.707,2.14-1.306,4.9-1.542S99.809,92.667,99.863,93.356Z" transform="translate(73.117 75.308)"/><path class="u" d="M25.67,117.356a4.044,4.044,0,0,0,4.552,3.391L164.99,101.034a3.99,3.99,0,0,0,3.373-4.534Z" transform="translate(20.885 78.512)"/><path class="u" d="M78.51,103.337h0a4.607,4.607,0,0,0,5.1,3.3l38.394-5.6a3.99,3.99,0,0,0,3.373-4.534Z" transform="translate(63.875 78.512)"/><path class="u" d="M130.178,134.34,40.242,147.452a8.6,8.6,0,0,1-9.159-5.876L12.948,81.728a6.039,6.039,0,0,1,4.987-7.962l89.918-13.112a8.669,8.669,0,0,1,9.177,5.876l18.136,59.849a6.021,6.021,0,0,1-4.987,7.962Z" transform="translate(10.266 49.304)"/><path class="f" d="M129.051,134.48,39.134,147.61a8.651,8.651,0,0,1-9.177-5.894L11.821,81.867a6,6,0,0,1,4.969-7.944L106.726,60.83a8.633,8.633,0,0,1,9.068,5.894l18.136,59.849a6.021,6.021,0,0,1-4.879,7.907Z" transform="translate(9.344 49.455)"/><path class="k" d="M36.823,144.84a6.166,6.166,0,0,1-5.749-4.244L12.938,80.747a4.334,4.334,0,0,1,3.627-5.731L106.5,61.886a6.13,6.13,0,0,1,6.493,4.226l18.136,59.849a4.335,4.335,0,0,1-3.627,5.731l-89.936,13.13a5.441,5.441,0,0,1-.744.018Zm.689-.635v0l89.827-13.167a3.845,3.845,0,0,0,2.757-1.7,3.954,3.954,0,0,0,.381-3.283L112.341,66.2a5.441,5.441,0,0,0-5.876-3.772L16.547,75.615a3.772,3.772,0,0,0-3.138,5.006l18.136,59.849a5.441,5.441,0,0,0,5.876,3.736Z" transform="translate(10.331 50.321)"/><path class="k" d="M50.778,106.3a16.884,16.884,0,0,1-3.156-.29,4.335,4.335,0,0,1-3.119-2.448,3.935,3.935,0,0,1,.181-3.627h0a9.775,9.775,0,0,0,.762-7.817,13.312,13.312,0,0,0-5.241-6.982,4.135,4.135,0,0,1-1.814-3.9,4.062,4.062,0,0,1,2.539-3.373,14.055,14.055,0,0,1,3.428-.943A18.136,18.136,0,0,1,63.6,89.289a13.221,13.221,0,0,1-1.306,11.081,12.9,12.9,0,0,1-9.249,5.8,15.706,15.706,0,0,1-2.267.127Zm-5.1-5.8a2.757,2.757,0,0,0-.109,2.575,3.174,3.174,0,0,0,2.267,1.814,15.234,15.234,0,0,0,5.042.127,11.807,11.807,0,0,0,8.4-5.278,12.1,12.1,0,0,0,1.179-10.12A16.9,16.9,0,0,0,44.485,78.063a13.076,13.076,0,0,0-3.156.907,2.956,2.956,0,0,0-1.814,2.43,3.065,3.065,0,0,0,1.306,2.829,14.346,14.346,0,0,1,5.695,7.6,10.882,10.882,0,0,1-.871,8.723Z" transform="translate(31.214 62.49)"/><path class="v" d="M26.341,67.326A17.773,17.773,0,1,1,44.1,49.553,17.773,17.773,0,0,1,26.341,67.326Zm0-34.966A17.193,17.193,0,1,0,43.516,49.553,17.193,17.193,0,0,0,26.341,32.36Z" transform="translate(6.956 25.856)"/><path class="k" d="M19.224,9.612A9.612,9.612,0,1,1,9.612,0,9.612,9.612,0,0,1,19.224,9.612Z"/><path class="w" d="M52.132,56.229,52,55.74,47.09,37.35l18.861,5.06-.345.363ZM47.906,38.184l4.461,16.921L64.754,42.718Z" transform="translate(38.312 30.388)"/><rect class="w" width="0.58" height="35.51" transform="translate(3.056 190.843) rotate(-45)"/></svg>