<svg xmlns="http://www.w3.org/2000/svg" width="634.401" height="394.204" viewBox="0 0 634.401 394.204"><defs><style>.a{fill:none;}.a,.d,.f,.g{stroke:#111159;stroke-miterlimit:10;}.b{fill:#e8f4ff;}.c,.f{fill:#fff;}.d,.g,.h{fill:#e1e1ff;}.e{fill:#111159;}.g{stroke-width:0.5px;}.i{fill:#dbedff;}</style></defs><g transform="translate(0 -0.001)"><g transform="translate(0.5 0.504)"><path class="a" d="M.5,226.26,221.933,97.567C235.328,89.777,253.182,85.5,272.2,85.5s36.855,4.277,50.3,12.035L633.9,276.066v-1.329L323.073,96.559C309.449,88.693,291.381,84.34,272.2,84.34s-37.267,4.338-50.83,12.219L.5,224.947Z" transform="translate(-0.5 43.706)"/><path class="b" d="M479.239,121.341,271.522,1.415a6.323,6.323,0,0,0-3.834-.886l-7.988.733a6.491,6.491,0,0,1,3.834.9L471.251,122.089c4.078,2.352,6.109,8.507,4.582,13.746l-54.74,180.134c-1.1,3.62-3.635,5.85-6.43,6.109l7.988-.733c2.81-.26,5.33-2.5,6.43-6.109l54.663-180.149C485.349,129.848,483.317,123.693,479.239,121.341Z" transform="translate(136.185 -0.504)"/><path class="c" d="M492.528,121.832,284.81,1.905c-4.078-2.352-8.675,0-10.264,5.208L219.868,187.339c-1.527,5.239.443,11.394,4.582,13.746L432.167,321.012c4.078,2.352,8.675,0,10.264-5.224l54.6-180.21C498.622,130.339,496.606,124.184,492.528,121.832Z" transform="translate(114.909 -0.246)"/><path class="a" d="M492.528,121.832,284.81,1.905c-4.078-2.352-8.675,0-10.264,5.208L219.868,187.339c-1.527,5.239.443,11.394,4.582,13.746L432.167,321.012c4.078,2.352,8.675,0,10.264-5.224l54.6-180.21C498.622,130.339,496.606,124.184,492.528,121.832Z" transform="translate(114.909 -0.246)"/><path class="d" d="M383.857,141.761l-3.681-2.123c-2.031-1.176-4.322,0-5.117,2.6l-1.436,4.719a6.109,6.109,0,0,0,2.245,6.858l3.7,2.123c2.016,1.176,4.307,0,5.1-2.612l1.436-4.7A6.109,6.109,0,0,0,383.857,141.761Z" transform="translate(196.103 72.626)"/><path class="e" d="M282.132,5.94,225.04,194.062,421.791,307.65l57.092-188.122Z" transform="translate(117.908 2.363)"/><path class="a" d="M414.664,322.079l7.988-.733c2.81-.26,5.33-2.5,6.43-6.109l54.663-180.149c1.6-5.239-.428-11.394-4.506-13.746L271.522,1.415a6.323,6.323,0,0,0-3.834-.886l-7.988.733" transform="translate(136.185 -0.504)"/><path class="c" d="M335.777,63.463l-54.5-31.433a2.5,2.5,0,0,0-3.65,1.848L245.924,137.89a4.338,4.338,0,0,0,1.6,4.872l54.5,31.417a2.5,2.5,0,0,0,3.7-1.833l31.692-104a4.353,4.353,0,0,0-1.634-4.887Z" transform="translate(128.808 15.968)"/><path class="d" d="M309.839,64.082,276.666,44.929a2.52,2.52,0,0,0-3.65,1.787l-5.941,19.489a4.353,4.353,0,0,0,1.6,4.887l33.2,19.153a2.5,2.5,0,0,0,3.65-1.848l5.926-19.428a4.368,4.368,0,0,0-1.619-4.887Z" transform="translate(139.961 22.772)"/><path class="c" d="M369.35,165.6l-42.139-24.33c-1.436-.84-3.055,0-3.635,1.848l-3.757,12.341a4.338,4.338,0,0,0,1.527,4.872l42.124,24.315a2.5,2.5,0,0,0,3.65-1.848l3.757-12.326a4.322,4.322,0,0,0-1.527-4.872Z" transform="translate(167.768 73.557)"/><path class="c" d="M367.808,113.678,305.615,77.77l-.565,1.818L367.258,115.5Z" transform="translate(160.1 40.242)"/><path class="c" d="M298.19,102.108,392.931,156.8l.55-1.818L298.74,100.29Z" transform="translate(156.483 52.118)"/><path class="c" d="M311.18,100.212,389.792,145.6l.55-1.8L311.73,98.41Z" transform="translate(163.333 51.126)"/><path class="c" d="M306.17,75.918l94.741,54.694.55-1.818L306.72,74.1Z" transform="translate(160.691 38.307)"/><path class="c" d="M295.75,110.088l94.756,54.694.55-1.818L296.315,108.27Z" transform="translate(155.196 56.326)"/><path class="c" d="M296.97,106.1l94.741,54.694.55-1.818L297.52,104.28Z" transform="translate(155.839 54.222)"/><path class="c" d="M299.4,98.118l94.741,54.694.565-1.818L299.95,96.3Z" transform="translate(157.121 50.013)"/><path class="c" d="M307.84,70.43l-.55,1.818,94.741,54.709.55-1.833Z" transform="translate(161.281 36.371)"/><path class="c" d="M322.374,66.083l-1.527,5.223a2.7,2.7,0,0,1-1.314-.351c-.809-.473-.718-1.054-.26-2.551l1.069-3.528-1.13-.657-1.069,3.5c-.733,2.383-.718,3.559.779,4.414a2.872,2.872,0,0,0,1.527.26l-.122.412,1.13.657,2.047-6.72Z" transform="translate(166.755 33.096)"/><path class="c" d="M326.06,67.9a4.43,4.43,0,0,0-2.077,0l.244-.809-1.13-.657-2.047,6.72,1.146.657,1.42-4.689a7.636,7.636,0,0,1,2,.305Z" transform="translate(168.537 34.262)"/><path class="c" d="M338.089,75.881a2.9,2.9,0,0,0-1.527-3.757,7.436,7.436,0,0,0-2.169-.794l-.29,1.237a8.981,8.981,0,0,1,1.772.733,1.527,1.527,0,0,1,.9,2.077c-.29.947-1.023,1.359-2.26,2.016l-2.4,1.268-.4,1.283,4.46,2.566.4-1.3-3.131-1.8,2.047-.993C336.989,77.76,337.677,77.226,338.089,75.881Z" transform="translate(174.164 36.846)"/><path class="c" d="M342.326,77.171l.412-1.314-4.139-2.4-1.634,4.582.672.626a3.482,3.482,0,0,1,1.527.473,1.65,1.65,0,0,1,.718,2.184c-.321,1.054-.978,1.375-1.787.9a18.322,18.322,0,0,1-2.031-1.527l-.473,1.054a12.218,12.218,0,0,0,2.245,1.833c1.527.871,2.688.244,3.3-1.772a3.055,3.055,0,0,0-1.42-3.941,3.222,3.222,0,0,0-1.527-.382l.886-2.245Z" transform="translate(176.205 37.969)"/><path class="c" d="M314.952,60.839a16.664,16.664,0,0,1,1.787,1.3l.412-1.191a11.181,11.181,0,0,0-1.955-1.527c-2.138-1.237-3.131-.107-4.139,3.207s-.947,5.04,1.237,6.308a11.212,11.212,0,0,0,2.138.886l.351-1.252a14.366,14.366,0,0,1-1.894-.855c-1.405-.81-1.405-1.848-.626-4.383S313.623,60.075,314.952,60.839Z" transform="translate(162.936 30.307)"/><path class="c" d="M317.728,62.966c-1.756-1.008-2.734,0-3.391,2.123s-.55,3.864,1.252,4.9,2.734,0,3.406-2.215S319.469,63.974,317.728,62.966Zm.122,4.154c-.474,1.527-.916,2.184-1.894,1.619s-.947-1.436-.473-3.055.932-2.077,1.863-1.527.977,1.39.5,2.963Z" transform="translate(164.803 32.228)"/><path class="c" d="M330.735,70.471c-1.436-.84-2.612-.2-3.36,2.26s-.443,3.788,1.13,4.7a10.892,10.892,0,0,0,2.215.9l.321-1.1a18.6,18.6,0,0,1-1.97-.993c-.871-.5-1.023-1.207-.7-2.306l3.223,1.879.382-1.008C332.644,72.716,332.216,71.311,330.735,70.471Zm.168,3.6-2.215-1.268c.412-1.283.9-1.527,1.68-1.13S331.315,72.747,330.9,74.075Z" transform="translate(171.667 36.208)"/><path class="c" d="M327.05,69.856c.626.367,1.741,1.237,1.8,1.283l.4-1.207a16.341,16.341,0,0,0-1.894-1.436c-1.039-.611-2.123-.565-2.581.947s0,2.092,1.13,3.055,1.1,1.069.962,1.527-.55.611-1.3.183a15.438,15.438,0,0,1-1.726-1.237l-.412,1.191a15.6,15.6,0,0,0,1.848,1.42c1.3.748,2.245.626,2.734-.947.412-1.344.076-2-1.1-3.055-.947-.825-1.13-1.069-.993-1.527S326.424,69.459,327.05,69.856Z" transform="translate(169.793 35.158)"/><path class="e" d="M278.971,57.529l-1.191,3.727a1.94,1.94,0,0,1-.932-.244c-.58-.336-.5-.764-.183-1.833l.764-2.5-.809-.473-.764,2.5c-.519,1.68-.5,2.535.55,3.146a2.047,2.047,0,0,0,1.146.183l-.092.29.809.473,1.451-4.811Z" transform="translate(144.528 28.867)"/><path class="e" d="M281.626,58.829a3.268,3.268,0,0,0-1.527,0l.168-.58-.809-.458-1.527,4.8.825.473,1.023-3.36a5.193,5.193,0,0,1,1.42.229Z" transform="translate(145.799 29.706)"/><path class="e" d="M290.15,64.533a2.062,2.062,0,0,0-1.054-2.688,4.9,4.9,0,0,0-1.527-.565l-.214.871a7.391,7.391,0,0,1,1.268.535,1.115,1.115,0,0,1,.642,1.527c-.2.672-.733.977-1.619,1.436l-1.711.9-.275.916,3.177,1.848.275-.932-2.23-1.3,1.527-.7A3,3,0,0,0,290.15,64.533Z" transform="translate(149.875 31.546)"/><path class="e" d="M293.166,65.442l.29-.932L290.508,62.8l-1.176,3.36.474.443a2.551,2.551,0,0,1,1.115.336,1.161,1.161,0,0,1,.519,1.527c-.229.748-.7.977-1.283.657a13.565,13.565,0,0,1-1.451-1.069l-.336.748a8.9,8.9,0,0,0,1.6,1.314c1.069.611,1.924.168,2.352-1.268a2.169,2.169,0,0,0-1.008-2.81,2.215,2.215,0,0,0-1.084-.275l.626-1.527Z" transform="translate(151.304 32.348)"/><path class="e" d="M273.644,53.775a10.976,10.976,0,0,1,1.283.932l.29-.855a8.158,8.158,0,0,0-1.39-1.084c-1.527-.886-2.245,0-2.963,2.291s-.672,3.6.886,4.582a7.514,7.514,0,0,0,1.527.626l.244-.9a9.16,9.16,0,0,1-1.344-.6c-1.008-.6-1.008-1.329-.458-3.146S272.7,53.3,273.644,53.775Z" transform="translate(141.837 26.878)"/><path class="e" d="M275.629,55.3c-1.252-.718-1.955,0-2.428,1.527s-.382,2.749.9,3.5,1.955,0,2.444-1.527S276.882,56.03,275.629,55.3Zm.092,2.978c-.336,1.1-.657,1.527-1.344,1.161s-.687-1.039-.351-2.138.672-1.527,1.329-1.115S276.087,57.145,275.721,58.275Z" transform="translate(143.166 28.243)"/><path class="e" d="M284.925,60.655c-1.039-.6-1.863-.137-2.4,1.619s-.321,2.719.794,3.36a8.49,8.49,0,0,0,1.527.657l.229-.794s-.825-.367-1.42-.7-.718-.871-.5-1.65l2.337,1.344.275-.718C286.284,62.274,285.978,61.312,284.925,60.655Zm.122,2.581-1.527-.9c.29-.916.642-1.13,1.207-.809S285.337,62.29,285.047,63.237Z" transform="translate(148.075 31.086)"/><path class="e" d="M282.3,60.226c.443.26,1.237.886,1.283.916l.275-.871a10.689,10.689,0,0,0-1.344-1.023c-.733-.428-1.527-.4-1.848.687s0,1.527.809,2.138.794.764.687,1.1-.382.428-.932.122a15.012,15.012,0,0,1-1.222-.886l-.305.855a11.029,11.029,0,0,0,1.329,1.008c.916.535,1.6.458,1.94-.672s0-1.436-.779-2.154-.809-.764-.718-1.084S281.838,59.966,282.3,60.226Z" transform="translate(146.732 30.34)"/><path class="e" d="M324.734,151.435l.611-1.986.932.55.336-1.115-.932-.535.412-1.359-1.008-.58-.412,1.344-.443-.26-.351,1.115.458.26-.626,2.016c-.428,1.405-.29,2.016.626,2.535a4.975,4.975,0,0,0,.825.305l.26-1.069-.58-.305C324.52,152.153,324.6,151.893,324.734,151.435Z" transform="translate(169.818 76.438)"/><path class="e" d="M332.305,152.319l-1.13-.657-1.329,1.39-.4-.122,1.176-3.879-1.023-.58-2.062,6.812,1.008.58.55-1.818.443.168.2,2.337,1.13.657-.26-3.162Z" transform="translate(171.96 77.525)"/><path class="e" d="M332.945,151.769c-1.1-.641-1.94-.076-2.474,1.65s-.26,2.764.886,3.421a7.134,7.134,0,0,0,1.65.641l.29-.977a14.171,14.171,0,0,1-1.436-.718.977.977,0,0,1-.5-1.3l2.23,1.3.351-.871a2.413,2.413,0,0,0-.993-3.146Zm0,2.49-1.313-.764c.229-.733.5-.932.978-.657S333.22,153.464,332.945,154.258Z" transform="translate(173.367 79.129)"/><path class="e" d="M338.836,155.163c-1.329-.764-2.062,0-2.52,1.527s-.367,2.81.962,3.574,2.062,0,2.52-1.527S340.15,155.927,338.836,155.163Zm0,2.963c-.29.932-.6,1.359-1.161,1.039s-.565-.932-.275-1.863.6-1.344,1.161-1.023.458.9.214,1.848Z" transform="translate(176.456 80.896)"/><path class="e" d="M328.292,153.436l.611-2.016a1.8,1.8,0,0,0-.871-2.428,6.4,6.4,0,0,0-1.619-.611l-.244.932s.932.443,1.436.733a.565.565,0,0,1,.29.779l-.092.305-.84-.382c-.855-.412-1.436-.382-1.772.718a1.756,1.756,0,0,0,.672,2.276,2.428,2.428,0,0,0,1.222.306,2.169,2.169,0,0,0,.993.962l.321-.962C328.216,153.909,328.216,153.741,328.292,153.436Zm-1.084-.351a3.454,3.454,0,0,1-.794-.29c-.26-.153-.29-.443-.183-.779s.306-.428.58-.305l.718.336Z" transform="translate(170.627 77.477)"/><path class="e" d="M345.637,160.462a16.016,16.016,0,0,1,1.344.947l.351-1.069a10.682,10.682,0,0,0-1.405-1.1,1.176,1.176,0,0,0-1.94.748,1.787,1.787,0,0,0,.794,2.215c.642.55.7.7.642.916s-.244.305-.733,0-1.237-.886-1.283-.916l-.367,1.069a10.692,10.692,0,0,0,1.39,1.084c.947.55,1.649.428,2-.7a1.756,1.756,0,0,0-.733-2.2c-.642-.58-.764-.7-.7-.932S345.209,160.2,345.637,160.462Z" transform="translate(180.134 83.052)"/><path class="e" d="M348.366,160.655c-1.115-.641-1.94,0-2.474,1.665s-.275,2.764.871,3.421a7.973,7.973,0,0,0,1.665.642l.275-.993s-.809-.351-1.42-.7a.993.993,0,0,1-.519-1.3l2.23,1.283.351-.855a2.4,2.4,0,0,0-.978-3.162Zm0,2.49-1.313-.764c.229-.733.489-.932.977-.657s.58.626.351,1.42Z" transform="translate(181.497 83.821)"/><path class="e" d="M335.187,156.017c.29-.962.535-1.252,1.268-.825.275.153.825.565.855.58l.351-1.023a9.827,9.827,0,0,0-1.145-.916c-1.146-.642-1.833-.137-2.367,1.527s-.336,2.856.779,3.513a8.11,8.11,0,0,0,1.313.5l.275-1.054-.9-.428C334.881,157.529,334.851,157.1,335.187,156.017Z" transform="translate(175.295 80.211)"/><path class="e" d="M345.018,158.81a3.467,3.467,0,0,0-1.405,0l.153-.519-1.008-.58-1.527,4.857,1.023.6.993-3.269a11.032,11.032,0,0,1,1.329.29Z" transform="translate(179.179 82.397)"/><path class="e" d="M342.168,157.373l-1.115,3.635a2.047,2.047,0,0,1-.779-.244c-.5-.29-.412-.687-.153-1.527l.779-2.566-1.008-.58-.779,2.535c-.5,1.65-.519,2.581.6,3.223a2.047,2.047,0,0,0,1.054.153v.26l1.008.6,1.527-4.872Z" transform="translate(177.889 81.543)"/><path class="c" d="M250.028,106.84l-2.688,8.691,4.353-.871,2.6,4.887,2.7-8.691Z" transform="translate(129.668 55.572)"/><path class="f" d="M474.91,265.429,246.3,133.819a21.551,21.551,0,0,0-19.657,0l-76.016,44.293c-5.407,3.131-5.376,8.217,0,11.363L379.375,320.994a21.581,21.581,0,0,0,19.626,0l76.046-44.2C480.378,273.662,480.347,268.576,474.91,265.429Z" transform="translate(76.535 68.548)"/><path class="g" d="M298.285,237.316l-7.072-4.093a6.109,6.109,0,0,0-5.468,0l-6.415,3.727a1.68,1.68,0,0,0,0,3.177L286.4,244.2a6.109,6.109,0,0,0,5.5,0l6.4-3.727a1.68,1.68,0,0,0-.015-3.162Z" transform="translate(145.94 121.877)"/><path class="g" d="M298.516,240.368l6.888,3.986a6.109,6.109,0,0,0,5.5,0l6.43-3.742a1.68,1.68,0,0,0,0-3.177l-6.9-3.971a6.109,6.109,0,0,0-5.483,0l-6.445,3.742C296.973,238.062,297,239.5,298.516,240.368Z" transform="translate(156.05 122.002)"/><path class="g" d="M307.927,242.891l-6.888-3.986a6.109,6.109,0,0,0-5.483,0l-6.415,3.727a1.68,1.68,0,0,0,0,3.177l6.9,3.986a6.109,6.109,0,0,0,5.483,0l6.415-3.727a1.68,1.68,0,0,0-.015-3.177Z" transform="translate(151.113 124.871)"/><path class="g" d="M279.862,229.618l20.558,11.867a6.109,6.109,0,0,0,5.5,0l6.43-3.742a1.68,1.68,0,0,0,0-3.177l-20.573-11.883a6.109,6.109,0,0,0-5.483,0l-6.445,3.742a1.68,1.68,0,0,0,.015,3.192Z" transform="translate(146.204 116.318)"/><path class="g" d="M270.594,224.268l6.216,3.589a6.109,6.109,0,0,0,5.483,0l6.445-3.742a1.68,1.68,0,0,0,0-3.177l-6.232-3.589a6.018,6.018,0,0,0-5.5,0l-6.43,3.742C269.067,221.962,269.082,223.382,270.594,224.268Z" transform="translate(141.328 113.497)"/><path class="g" d="M281.926,209.405l6.2,3.574a6.109,6.109,0,0,0,5.5,0l6.98-4.063c1.527-.855,1.527-2.291,0-3.162l-6.2-3.589a6.109,6.109,0,0,0-5.5,0l-6.965,4.047a1.68,1.68,0,0,0-.015,3.192Z" transform="translate(147.301 105.496)"/><path class="g" d="M310.125,214.419c1.527-.871,1.527-2.291,0-3.177l-6.476-3.727a6.109,6.109,0,0,0-5.5,0l-6.98,4.063a1.68,1.68,0,0,0,0,3.177l6.476,3.742a6.11,6.11,0,0,0,5.483,0Z" transform="translate(152.184 108.317)"/><path class="g" d="M279.962,185.013l5.422,3.131a6.018,6.018,0,0,0,5.5,0l1.023-.58a1.7,1.7,0,0,0,0-3.192l-5.453-3.146a6.109,6.109,0,0,0-5.5,0l-1.008.6a1.68,1.68,0,0,0,.015,3.192Z" transform="translate(146.257 94.453)"/><path class="g" d="M288.7,190.053l7.01,4.063a6.109,6.109,0,0,0,5.5,0l1.008-.58a1.68,1.68,0,0,0,0-3.177L295.19,186.3a6.11,6.11,0,0,0-5.5,0l-1.023.6a1.68,1.68,0,0,0,.031,3.162Z" transform="translate(150.884 97.127)"/><path class="g" d="M298.086,193.773l-7.01-4.047a6.11,6.11,0,0,0-5.5,0l-6.186,3.6a1.68,1.68,0,0,0,0,3.177l7.026,4.063a6.109,6.109,0,0,0,5.483,0l6.232-3.62a1.68,1.68,0,0,0-.046-3.177Z" transform="translate(145.972 98.935)"/><path class="g" d="M269.847,177.464l-6.216-3.589a6.109,6.109,0,0,0-5.483,0l-6.216,3.589a1.68,1.68,0,0,0,0,3.177l6.216,3.589a6.11,6.11,0,0,0,5.483,0l6.216-3.62a1.68,1.68,0,0,0,0-3.146Z" transform="translate(131.491 90.579)"/><path class="g" d="M279.372,182.966l-6.476-3.742a6.109,6.109,0,0,0-5.483,0l-6.232,3.6a1.68,1.68,0,0,0,0,3.177l6.476,3.742a6.11,6.11,0,0,0,5.5,0l6.216-3.62a1.68,1.68,0,0,0,0-3.162Z" transform="translate(136.369 93.4)"/><path class="g" d="M225.5,162.4l-6.2-3.589a6.109,6.109,0,0,0-5.5,0l-6.965,4.047a1.68,1.68,0,0,0,0,3.192l6.2,3.589a6.109,6.109,0,0,0,5.5,0l6.98-4.047a1.68,1.68,0,0,0-.015-3.192Z" transform="translate(107.701 82.636)"/><path class="g" d="M232,155.614l-6.216-3.589a6.109,6.109,0,0,0-5.483,0l-6.232,3.62a1.68,1.68,0,0,0,0,3.177l6.216,3.574a6.109,6.109,0,0,0,5.483,0l6.232-3.62a1.68,1.68,0,0,0,0-3.162Z" transform="translate(111.526 79.056)"/><path class="g" d="M223.388,152.372l6.216,3.574a6.11,6.11,0,0,0,5.5,0l1.008-.58a1.7,1.7,0,0,0,0-3.192l-6.216-3.589a6.109,6.109,0,0,0-5.483,0l-1.023.6a1.7,1.7,0,0,0,0,3.192Z" transform="translate(116.444 77.242)"/><path class="g" d="M232.659,157.707l6.476,3.742a6.109,6.109,0,0,0,5.5,0l1.023-.6a1.68,1.68,0,0,0,0-3.177l-6.476-3.742a6.109,6.109,0,0,0-5.483,0l-1.023.6a1.68,1.68,0,0,0-.015,3.177Z" transform="translate(121.332 80.063)"/><path class="g" d="M261.241,174.213l6.216,3.589a6.109,6.109,0,0,0,5.483,0l1.023-.58a1.68,1.68,0,0,0,0-3.177l-6.2-3.589a6.109,6.109,0,0,0-5.5,0l-1.023.58a1.7,1.7,0,0,0,0,3.177Z" transform="translate(136.416 88.774)"/><path class="g" d="M242.093,163.162l6.384,3.681a6.109,6.109,0,0,0,5.483,0l1.023-.6a1.68,1.68,0,0,0,0-3.177l-6.338-3.681a6.018,6.018,0,0,0-5.5,0l-1.023.58a1.7,1.7,0,0,0-.031,3.192Z" transform="translate(126.316 82.932)"/><path class="g" d="M241.522,161.106l-6.476-3.742a6.109,6.109,0,0,0-5.483,0l-6.232,3.62a1.68,1.68,0,0,0,0,3.177l6.506,3.681a6.109,6.109,0,0,0,5.483,0l6.232-3.6a1.7,1.7,0,0,0-.03-3.131Z" transform="translate(116.409 81.872)"/><path class="g" d="M250.855,166.5l-6.445-3.681a6.109,6.109,0,0,0-5.483,0l-6.155,3.681a1.68,1.68,0,0,0,0,3.177l6.384,3.681a6.11,6.11,0,0,0,5.5,0l6.216-3.62a1.7,1.7,0,0,0-.015-3.238Z" transform="translate(121.388 84.746)"/><path class="g" d="M251.465,168.528l7.01,4.047a6.109,6.109,0,0,0,5.5,0l1.023-.6a1.68,1.68,0,0,0,0-3.177l-7.01-4.047a6.109,6.109,0,0,0-5.5,0l-1.008.58a1.7,1.7,0,0,0-.015,3.192Z" transform="translate(131.254 85.768)"/><path class="g" d="M260.851,172.288l-7-4.063a6.11,6.11,0,0,0-5.5,0l-6.216,3.62a1.68,1.68,0,0,0,0,3.177l7.01,4.047a5.987,5.987,0,0,0,5.483,0l6.232-3.6a1.68,1.68,0,0,0-.015-3.177Z" transform="translate(126.329 87.598)"/><path class="g" d="M191.118,164.294a1.7,1.7,0,0,0,0,3.192l7.01,4.047a6.109,6.109,0,0,0,5.5,0l6.109-3.589a1.68,1.68,0,0,0,0-3.177l-7.01-4.047a6.018,6.018,0,0,0-5.5,0Z" transform="translate(99.427 83.634)"/><path class="g" d="M218.767,173.13a1.7,1.7,0,0,0,0-3.192l-6.216-3.574a6.109,6.109,0,0,0-5.483,0l-6.109,3.574a1.7,1.7,0,0,0,0,3.192l6.216,3.574a6.018,6.018,0,0,0,5.5,0Z" transform="translate(104.616 86.618)"/><path class="g" d="M235.035,167.911l-6.491-3.742a5.987,5.987,0,0,0-5.483,0l-6.98,4.047a1.68,1.68,0,0,0,0,3.177l6.491,3.742a6.11,6.11,0,0,0,5.483,0l6.98-4.047a1.68,1.68,0,0,0,0-3.177Z" transform="translate(112.586 85.453)"/><path class="g" d="M244.368,173.3l-6.384-3.681a6.109,6.109,0,0,0-5.483,0l-6.98,3.986a1.68,1.68,0,0,0,0,3.177l6.384,3.681a6.109,6.109,0,0,0,5.483,0l6.98-4.047a1.68,1.68,0,0,0,0-3.116Z" transform="translate(117.564 88.332)"/><path class="g" d="M254.38,179.077l-7.026-4.063a6.109,6.109,0,0,0-5.483,0l-6.98,4.063a1.68,1.68,0,0,0,0,3.177l7.026,4.047a6.109,6.109,0,0,0,5.483,0l6.98-4.047a1.68,1.68,0,0,0,0-3.177Z" transform="translate(122.505 91.18)"/><path class="g" d="M219.608,183.926l6.384,3.681a6.11,6.11,0,0,0,5.5,0l6.109-3.589a1.68,1.68,0,0,0,0-3.177l-6.384-3.681a6.018,6.018,0,0,0-5.5,0l-6.109,3.574a1.7,1.7,0,0,0,0,3.192Z" transform="translate(114.451 92.303)"/><path class="g" d="M263.345,184.248l-6.2-3.574a6.109,6.109,0,0,0-5.483,0l-6.98,4.063a1.68,1.68,0,0,0,0,3.177l6.2,3.589a6.109,6.109,0,0,0,5.5,0l6.98-4.063C264.872,186.555,264.857,185.134,263.345,184.248Z" transform="translate(127.668 94.164)"/><path class="g" d="M228.991,189.332l7.01,4.047a6.11,6.11,0,0,0,5.5,0l6.109-3.574a1.68,1.68,0,0,0,0-3.192l-7.01-4.047a6.11,6.11,0,0,0-5.5,0l-6.109,3.589a1.68,1.68,0,0,0,0,3.177Z" transform="translate(119.394 95.16)"/><path class="g" d="M214.212,191.7l6.4,3.681a6.109,6.109,0,0,0,5.483,0l6.445-3.727a1.7,1.7,0,0,0,0-3.192l-6.384-3.681a6.109,6.109,0,0,0-5.483,0l-6.476,3.727a1.68,1.68,0,0,0,.015,3.192Z" transform="translate(111.584 96.332)"/><path class="g" d="M196.815,192.513l6.384,3.681a6.109,6.109,0,0,0,5.5,0l6.415-3.727a1.68,1.68,0,0,0,0-3.177l-6.384-3.7a6.11,6.11,0,0,0-5.483,0l-6.415,3.727a1.7,1.7,0,0,0-.015,3.192Z" transform="translate(102.436 96.759)"/><path class="g" d="M272.867,189.756l-6.476-3.742a6.109,6.109,0,0,0-5.483,0l-6.98,4.047a1.7,1.7,0,0,0,0,3.192l6.476,3.727a6.018,6.018,0,0,0,5.5,0l6.98-4.047a1.68,1.68,0,0,0-.015-3.177Z" transform="translate(132.549 96.98)"/><path class="g" d="M238.756,194.976l6.216,3.589a6.109,6.109,0,0,0,5.483,0l6.109-3.574a1.68,1.68,0,0,0,0-3.177l-6.17-3.589a6.109,6.109,0,0,0-5.5,0l-6.109,3.574a1.7,1.7,0,0,0-.031,3.177Z" transform="translate(124.567 98.144)"/><path class="g" d="M223.56,197.1l7.01,4.063a6.109,6.109,0,0,0,5.483,0L242.5,197.4a1.665,1.665,0,0,0,0-3.162l-7.01-4.017a6.109,6.109,0,0,0-5.483,0l-6.445,3.742a1.68,1.68,0,0,0,0,3.131Z" transform="translate(116.563 99.2)"/><path class="g" d="M281.261,194.574l-5.437-3.055a5.987,5.987,0,0,0-5.483,0l-6.949,3.971a1.68,1.68,0,0,0,0,3.177l5.437,3.146a6.109,6.109,0,0,0,5.483,0l6.98-4.047a1.68,1.68,0,0,0-.031-3.192Z" transform="translate(137.535 99.876)"/><path class="g" d="M248.028,200.336l6.476,3.727a6.018,6.018,0,0,0,5.5,0l6.109-3.574a1.7,1.7,0,0,0,0-3.192l-6.476-3.727a6.018,6.018,0,0,0-5.5,0l-6.109,3.574a1.7,1.7,0,0,0,0,3.192Z" transform="translate(129.438 100.957)"/><path class="g" d="M233.391,202.763l6.109,3.589a6.109,6.109,0,0,0,5.483,0l6.445-3.742a1.68,1.68,0,0,0,0-3.177l-6.2-3.589a6.109,6.109,0,0,0-5.483,0l-6.354,3.742a1.68,1.68,0,0,0,0,3.177Z" transform="translate(121.714 102.164)"/><path class="g" d="M291.591,200.562l-7.01-4.047a6.109,6.109,0,0,0-5.483,0l-6.98,4.047a1.7,1.7,0,0,0,0,3.192l7.01,4.047a6.109,6.109,0,0,0,5.5,0l7-4.093a1.68,1.68,0,0,0-.031-3.146Z" transform="translate(142.141 102.517)"/><path class="g" d="M257.515,205.8l5.422,3.055a6.018,6.018,0,0,0,5.5,0l6.109-3.574a1.68,1.68,0,0,0,0-3.177l-5.422-3.146a6.109,6.109,0,0,0-5.5,0l-6.109,3.589a1.68,1.68,0,0,0,0,3.253Z" transform="translate(134.369 103.803)"/><path class="g" d="M242.61,208.1l6.491,3.742a6.109,6.109,0,0,0,5.468,0l6.445-3.742a1.68,1.68,0,0,0,0-3.177l-6.537-3.7a6.11,6.11,0,0,0-5.483,0l-6.445,3.742a1.68,1.68,0,0,0,.061,3.131Z" transform="translate(126.592 105.001)"/><path class="g" d="M266.2,210.816l7.026,4.063a6.11,6.11,0,0,0,5.5,0l6.109-3.574a1.68,1.68,0,0,0,0-3.177l-7.026-4.063a6.109,6.109,0,0,0-5.5,0l-6.109,3.589a1.68,1.68,0,0,0,0,3.162Z" transform="translate(139.029 106.497)"/><path class="g" d="M252.053,213.613l5.422,3.131a6.11,6.11,0,0,0,5.483,0L269.4,213a1.68,1.68,0,0,0,0-3.177l-5.437-3.131a6.109,6.109,0,0,0-5.483,0l-6.445,3.742a1.7,1.7,0,0,0,.015,3.177Z" transform="translate(131.568 107.886)"/><path class="g" d="M276.006,216.47l6.216,3.589a6.109,6.109,0,0,0,5.5,0l6.109-3.574a1.7,1.7,0,0,0,0-3.192l-6.216-3.589a6.109,6.109,0,0,0-5.483,0l-6.109,3.574a1.68,1.68,0,0,0-.015,3.192Z" transform="translate(144.179 109.473)"/><path class="g" d="M260.8,218.613l7.026,4.063a6.109,6.109,0,0,0,5.483,0l6.445-3.742a1.68,1.68,0,0,0,0-3.177l-7.01-4.047a5.987,5.987,0,0,0-5.483,0l-6.445,3.742a1.665,1.665,0,0,0-.015,3.162Z" transform="translate(136.168 110.523)"/><path class="g" d="M294.211,234.976l-76.138-43.957a5.987,5.987,0,0,0-5.483,0l-6.4,3.711a1.68,1.68,0,0,0,0,3.177l76.138,43.972a6.109,6.109,0,0,0,5.5,0l6.415-3.727a1.68,1.68,0,0,0-.031-3.177Z" transform="translate(107.371 99.612)"/><path class="g" d="M279.33,226.37l-6.2-3.574a6.11,6.11,0,0,0-5.5,0l-6.4,3.711a1.68,1.68,0,0,0,0,3.177l6.216,3.589a6.109,6.109,0,0,0,5.483,0l6.415-3.711a1.68,1.68,0,0,0-.015-3.192Z" transform="translate(136.395 116.374)"/><path class="g" d="M287.951,231.332l-5.575-3.207a6.109,6.109,0,0,0-5.483,0l-6.415,3.727a1.7,1.7,0,0,0,0,3.192l5.575,3.207a6.018,6.018,0,0,0,5.5,0l6.415-3.711a1.7,1.7,0,0,0-.015-3.207Z" transform="translate(141.276 119.186)"/><path class="g" d="M187.385,187.058l6.476,3.742a6.11,6.11,0,0,0,5.5,0l6.415-3.727a1.68,1.68,0,0,0,0-3.177l-6.476-3.742a6.109,6.109,0,0,0-5.483,0l-6.415,3.711a1.7,1.7,0,0,0-.015,3.192Z" transform="translate(97.463 93.89)"/><path class="g" d="M178.128,181.708l6.2,3.589a6.109,6.109,0,0,0,5.5,0l6.415-3.727a1.68,1.68,0,0,0,0-3.177l-6.2-3.589a6.109,6.109,0,0,0-5.483,0l-6.415,3.727a1.68,1.68,0,0,0-.015,3.177Z" transform="translate(92.576 91.069)"/><path class="g" d="M187.255,173.217l-7.026-4.063a6.109,6.109,0,0,0-5.483,0l-6.415,3.727a1.68,1.68,0,0,0,0,3.177l7.01,4.047a6.018,6.018,0,0,0,5.5,0l6.4-3.711a1.68,1.68,0,0,0,.015-3.177Z" transform="translate(87.406 88.09)"/><path class="g" d="M336.9,238.16l-7.637-4.445a6.11,6.11,0,0,0-5.5,0l-6.109,3.589a1.68,1.68,0,0,0,0,3.177l7.637,4.445a6.018,6.018,0,0,0,5.5,0l6.109-3.574a1.7,1.7,0,0,0,0-3.192Z" transform="translate(166.148 122.133)"/><path class="g" d="M327.811,243.514l-7.637-4.445a5.987,5.987,0,0,0-5.483,0l-6.445,3.742c-1.527.871-1.527,2.291,0,3.177l7.637,4.445a6.109,6.109,0,0,0,5.483,0l6.445-3.742a1.68,1.68,0,0,0,0-3.177Z" transform="translate(161.181 124.95)"/><path class="g" d="M216.73,190l6.445-3.742c1.527-.871,1.527-2.291,0-3.177l-6.476-3.742a6.109,6.109,0,0,0-5.483,0l-6.445,3.742a1.68,1.68,0,0,0,0,3.177L211.247,190A6.11,6.11,0,0,0,216.73,190Z" transform="translate(106.622 93.458)"/><path class="g" d="M213.621,146.708l7.01,4.063a6.11,6.11,0,0,0,5.5,0l1.008-.6a1.68,1.68,0,0,0,0-3.177l-7.01-4.063a6.109,6.109,0,0,0-5.5,0l-1.008.6a1.68,1.68,0,0,0,0,3.177Z" transform="translate(111.289 74.261)"/><path class="g" d="M203.456,140.838l7.637,4.4a6.109,6.109,0,0,0,5.5,0l1.023-.6a1.68,1.68,0,0,0,0-3.177l-7.637-4.4a6.11,6.11,0,0,0-5.5,0l-1.008.58a1.68,1.68,0,0,0-.015,3.192Z" transform="translate(105.921 71.166)"/><path class="g" d="M194.131,147.3l7.637,4.383a6.11,6.11,0,0,0,5.483,0l6.232-3.62a1.68,1.68,0,0,0,0-3.177l-7.637-4.383a6.11,6.11,0,0,0-5.483,0l-6.232,3.62a1.68,1.68,0,0,0,0,3.177Z" transform="translate(101.011 72.981)"/><path class="g" d="M223.016,150.423l-7.01-4.047a6.109,6.109,0,0,0-5.5,0L204.291,150a1.68,1.68,0,0,0,0,3.177l7.026,4.047a6.109,6.109,0,0,0,5.483,0l6.216-3.62C224.544,152.729,224.528,151.309,223.016,150.423Z" transform="translate(106.369 76.075)"/><path class="g" d="M184.391,153.1l11.379,6.568a6.109,6.109,0,0,0,5.5,0l6.965-4.063a1.68,1.68,0,0,0,0-3.177l-11.379-6.568a6.109,6.109,0,0,0-5.483,0l-6.98,4.063a1.68,1.68,0,0,0,0,3.177Z" transform="translate(95.875 75.808)"/><path class="g" d="M204.018,153.166l-6.98,4.047a1.7,1.7,0,0,0,0,3.192l7.01,4.047a6.109,6.109,0,0,0,5.5,0l6.98-4.047a1.7,1.7,0,0,0,0-3.192l-7.01-4.047A6.109,6.109,0,0,0,204.018,153.166Z" transform="translate(102.549 79.656)"/><path class="g" d="M175.216,158.28,191.6,167.75a6.109,6.109,0,0,0,5.5,0l6.109-3.589a1.68,1.68,0,0,0,0-3.177l-16.388-9.469a6.109,6.109,0,0,0-5.483,0l-6.109,3.574a1.68,1.68,0,0,0-.015,3.192Z" transform="translate(91.029 78.787)"/><path class="g" d="M172.158,175.088l6.4-3.727a1.68,1.68,0,0,0,0-3.177l-10.187-5.865a5.987,5.987,0,0,0-5.483,0l-6.4,3.711a1.7,1.7,0,0,0,0,3.192l10.187,5.865A6.109,6.109,0,0,0,172.158,175.088Z" transform="translate(81.165 84.477)"/><path class="g" d="M165.828,163.782l22.452,12.952a6.109,6.109,0,0,0,5.468,0l6.522-3.742a1.68,1.68,0,0,0,0-3.177l-22.452-12.952a6.109,6.109,0,0,0-5.468,0L165.9,160.6a1.68,1.68,0,0,0-.076,3.177Z" transform="translate(86.106 81.61)"/><path class="g" d="M185.716,172.086c-1.527.871-1.527,2.291,0,3.177l7.026,4.047a6.109,6.109,0,0,0,5.483,0l6.445-3.742c1.527-.871,1.527-2.291,0-3.177l-7.01-4.047a6.109,6.109,0,0,0-5.483,0Z" transform="translate(96.567 87.662)"/><path class="g" d="M207.43,174a6.109,6.109,0,0,0-5.5,0l-6.43,3.742a1.68,1.68,0,0,0,0,3.177l6.216,3.589a6.109,6.109,0,0,0,5.483,0l6.461-3.742a1.68,1.68,0,0,0,0-3.177Z" transform="translate(101.734 90.64)"/><path class="g" d="M333.08,235.765l6.965-4.063c1.527-.871,1.527-2.291,0-3.177l-17.351-10.019a6.109,6.109,0,0,0-5.5,0l-6.965,4.063a1.68,1.68,0,0,0,0,3.177l17.381,10.035A6.109,6.109,0,0,0,333.08,235.765Z" transform="translate(162.235 114.112)"/><path class="g" d="M300.605,220.194l6.736,3.879a6.11,6.11,0,0,0,5.483,0l6.98-4.047a1.68,1.68,0,0,0,0-3.177l-6.72-3.895a6.11,6.11,0,0,0-5.483,0L300.621,217a1.7,1.7,0,0,0-.015,3.192Z" transform="translate(157.168 111.187)"/><path class="g" d="M327.22,242.87l6.109-3.574a1.7,1.7,0,0,0,0-3.192L306.3,220.51a6.018,6.018,0,0,0-5.5,0l-6.109,3.574a1.7,1.7,0,0,0,0,3.192l27.034,15.594A6.018,6.018,0,0,0,327.22,242.87Z" transform="translate(154.043 115.163)"/><path class="g" d="M285.255,221.82l6.476,3.742a6.109,6.109,0,0,0,5.5,0l6.109-3.589a1.68,1.68,0,0,0,0-3.177l-6.476-3.742a6.109,6.109,0,0,0-5.483,0l-6.109,3.574a1.7,1.7,0,0,0-.015,3.192Z" transform="translate(149.073 112.294)"/><path class="g" d="M210.179,178.47l6.476,3.742a6.109,6.109,0,0,0,5.5,0l6.109-3.589a1.68,1.68,0,0,0,0-3.177l-6.476-3.742a6.109,6.109,0,0,0-5.483,0l-6.109,3.589a1.68,1.68,0,0,0-.015,3.177Z" transform="translate(109.478 89.434)"/><path class="g" d="M355.881,227.149l-7.637-4.445a6.11,6.11,0,0,0-5.483,0l-6.216,3.62a1.665,1.665,0,0,0,0,3.162l7.637,4.46a6.11,6.11,0,0,0,5.483,0l6.232-3.62a1.68,1.68,0,0,0-.015-3.177Z" transform="translate(176.106 116.328)"/><path class="g" d="M346.911,232.509l-7.637-4.445a6.109,6.109,0,0,0-5.483,0l-6.98,4.063a1.68,1.68,0,0,0,0,3.177l7.637,4.445a6.109,6.109,0,0,0,5.5,0l6.98-4.063C348.438,234.815,348.438,233.395,346.911,232.509Z" transform="translate(170.978 119.155)"/><path class="g" d="M287.758,187.807l-5.422-3.131a6.109,6.109,0,0,0-5.5,0l-6.216,3.62a1.68,1.68,0,0,0,0,3.177l5.453,3.207a6.109,6.109,0,0,0,5.483,0l6.232-3.62a1.68,1.68,0,0,0-.031-3.253Z" transform="translate(141.347 96.272)"/><path class="g" d="M359.989,223.759l-7.637-4.445a6.109,6.109,0,0,0-5.483,0l-1.008.58a1.68,1.68,0,0,0,0,3.177l7.637,4.445a6.018,6.018,0,0,0,5.5,0l1.008-.58a1.68,1.68,0,0,0-.015-3.177Z" transform="translate(181.024 114.541)"/><path class="g" d="M326.781,212.052l7.01,4.047a6.11,6.11,0,0,0,5.5,0l1.008-.6a1.68,1.68,0,0,0,0-3.177l-7.01-4.047a6.018,6.018,0,0,0-5.5,0l-1.023.58a1.7,1.7,0,0,0,.015,3.192Z" transform="translate(170.963 108.714)"/><path class="g" d="M336.571,217.7l6.2,3.589a6.109,6.109,0,0,0,5.5,0l1.008-.6a1.7,1.7,0,0,0,0-3.192l-6.2-3.574a6.109,6.109,0,0,0-5.5,0l-1.008.6a1.68,1.68,0,0,0,0,3.177Z" transform="translate(176.125 111.697)"/><path class="g" d="M344.117,230.72l6.216-3.62a1.68,1.68,0,0,0,0-3.177L329.165,211.7a6.11,6.11,0,0,0-5.483,0l-6.216,3.62c-1.527.871-1.527,2.291,0,3.177l21.169,12.219A6.109,6.109,0,0,0,344.117,230.72Z" transform="translate(166.043 110.528)"/><path class="g" d="M317.223,206.544l6.736,3.895a6.109,6.109,0,0,0,5.483,0l1.008-.6a1.68,1.68,0,0,0,0-3.177l-6.8-3.941a6.109,6.109,0,0,0-5.5,0l-1.023.6a1.68,1.68,0,0,0,.092,3.223Z" transform="translate(165.859 105.791)"/><path class="g" d="M307.744,201.057l6.476,3.742a6.109,6.109,0,0,0,5.5,0l1.008-.6a1.68,1.68,0,0,0,0-3.177l-6.476-3.742a6.109,6.109,0,0,0-5.483,0l-1.023.6C306.216,198.72,306.231,200.247,307.744,201.057Z" transform="translate(160.919 102.923)"/><path class="g" d="M298.478,195.707l6.216,3.589a6.109,6.109,0,0,0,5.5,0l1.008-.6a1.68,1.68,0,0,0,0-3.177l-6.216-3.589a6.109,6.109,0,0,0-5.483,0l-1.008.6a1.68,1.68,0,0,0-.015,3.177Z" transform="translate(156.041 100.102)"/><path class="g" d="M307.08,198.964l-6.216-3.589a6.11,6.11,0,0,0-5.483,0l-6.216,3.62a1.665,1.665,0,0,0,0,3.162l6.216,3.589a5.987,5.987,0,0,0,5.483,0l6.231-3.6a1.68,1.68,0,0,0-.015-3.177Z" transform="translate(151.121 101.916)"/><path class="g" d="M316.612,204.456l-6.476-3.742a6.109,6.109,0,0,0-5.483,0l-6.262,3.62a1.68,1.68,0,0,0,0,3.177l6.476,3.742a6.109,6.109,0,0,0,5.483,0l6.369-3.65C318.14,206.763,318.14,205.342,316.612,204.456Z" transform="translate(155.991 104.732)"/><path class="g" d="M320.071,216.84l6.232-3.6a1.68,1.68,0,0,0,0-3.177l-6.736-3.895a6.109,6.109,0,0,0-5.483,0l-6.216,3.6a1.7,1.7,0,0,0,0,3.192l6.736,3.879A6.109,6.109,0,0,0,320.071,216.84Z" transform="translate(160.994 107.606)"/><path class="g" d="M270.511,179.528l6.476,3.742a6.018,6.018,0,0,0,5.5,0l1.023-.58a1.7,1.7,0,0,0,0-3.192l-6.491-3.742a6.109,6.109,0,0,0-5.5,0l-1.008.6a1.68,1.68,0,0,0,0,3.177Z" transform="translate(141.289 91.569)"/><path class="g" d="M318.423,248.964l-7.637-4.46a6.109,6.109,0,0,0-5.483,0l-6.415,3.727a1.7,1.7,0,0,0,0,3.192l7.637,4.445a6.11,6.11,0,0,0,5.5,0l6.4-3.727a1.68,1.68,0,0,0,0-3.177Z" transform="translate(156.258 127.824)"/><path class="g" d="M298.285,237.316l-7.072-4.093a6.109,6.109,0,0,0-5.468,0l-6.415,3.727a1.68,1.68,0,0,0,0,3.177L286.4,244.2a6.109,6.109,0,0,0,5.5,0l6.4-3.727a1.68,1.68,0,0,0-.015-3.162Z" transform="translate(145.94 121.877)"/><path class="g" d="M298.516,240.368l6.888,3.986a6.109,6.109,0,0,0,5.5,0l6.43-3.742a1.68,1.68,0,0,0,0-3.177l-6.9-3.971a6.109,6.109,0,0,0-5.483,0l-6.445,3.742C296.973,238.062,297,239.5,298.516,240.368Z" transform="translate(156.05 122.002)"/><path class="g" d="M307.927,242.891l-6.888-3.986a6.109,6.109,0,0,0-5.483,0l-6.415,3.727a1.68,1.68,0,0,0,0,3.177l6.9,3.986a6.109,6.109,0,0,0,5.483,0l6.415-3.727a1.68,1.68,0,0,0-.015-3.177Z" transform="translate(151.113 124.871)"/><path class="g" d="M279.862,229.618l20.558,11.867a6.109,6.109,0,0,0,5.5,0l6.43-3.742a1.68,1.68,0,0,0,0-3.177l-20.573-11.883a6.109,6.109,0,0,0-5.483,0l-6.445,3.742a1.68,1.68,0,0,0,.015,3.192Z" transform="translate(146.204 116.318)"/><path class="g" d="M270.594,224.268l6.216,3.589a6.109,6.109,0,0,0,5.483,0l6.445-3.742a1.68,1.68,0,0,0,0-3.177l-6.232-3.589a6.018,6.018,0,0,0-5.5,0l-6.43,3.742C269.067,221.962,269.082,223.382,270.594,224.268Z" transform="translate(141.328 113.497)"/><path class="g" d="M281.926,209.405l6.2,3.574a6.109,6.109,0,0,0,5.5,0l6.98-4.063c1.527-.855,1.527-2.291,0-3.162l-6.2-3.589a6.109,6.109,0,0,0-5.5,0l-6.965,4.047a1.68,1.68,0,0,0-.015,3.192Z" transform="translate(147.301 105.496)"/><path class="g" d="M310.125,214.419c1.527-.871,1.527-2.291,0-3.177l-6.476-3.727a6.109,6.109,0,0,0-5.5,0l-6.98,4.063a1.68,1.68,0,0,0,0,3.177l6.476,3.742a6.11,6.11,0,0,0,5.483,0Z" transform="translate(152.184 108.317)"/><path class="g" d="M279.962,185.013l5.422,3.131a6.018,6.018,0,0,0,5.5,0l1.023-.58a1.7,1.7,0,0,0,0-3.192l-5.453-3.146a6.109,6.109,0,0,0-5.5,0l-1.008.6a1.68,1.68,0,0,0,.015,3.192Z" transform="translate(146.257 94.453)"/><path class="g" d="M288.7,190.053l7.01,4.063a6.109,6.109,0,0,0,5.5,0l1.008-.58a1.68,1.68,0,0,0,0-3.177L295.19,186.3a6.11,6.11,0,0,0-5.5,0l-1.023.6a1.68,1.68,0,0,0,.031,3.162Z" transform="translate(150.884 97.127)"/><path class="g" d="M298.086,193.773l-7.01-4.047a6.11,6.11,0,0,0-5.5,0l-6.186,3.6a1.68,1.68,0,0,0,0,3.177l7.026,4.063a6.109,6.109,0,0,0,5.483,0l6.232-3.62a1.68,1.68,0,0,0-.046-3.177Z" transform="translate(145.972 98.935)"/><path class="g" d="M269.847,177.464l-6.216-3.589a6.109,6.109,0,0,0-5.483,0l-6.216,3.589a1.68,1.68,0,0,0,0,3.177l6.216,3.589a6.11,6.11,0,0,0,5.483,0l6.216-3.62a1.68,1.68,0,0,0,0-3.146Z" transform="translate(131.491 90.579)"/><path class="g" d="M279.372,182.966l-6.476-3.742a6.109,6.109,0,0,0-5.483,0l-6.232,3.6a1.68,1.68,0,0,0,0,3.177l6.476,3.742a6.11,6.11,0,0,0,5.5,0l6.216-3.62a1.68,1.68,0,0,0,0-3.162Z" transform="translate(136.369 93.4)"/><path class="g" d="M225.5,162.4l-6.2-3.589a6.109,6.109,0,0,0-5.5,0l-6.965,4.047a1.68,1.68,0,0,0,0,3.192l6.2,3.589a6.109,6.109,0,0,0,5.5,0l6.98-4.047a1.68,1.68,0,0,0-.015-3.192Z" transform="translate(107.701 82.636)"/><path class="g" d="M232,155.614l-6.216-3.589a6.109,6.109,0,0,0-5.483,0l-6.232,3.62a1.68,1.68,0,0,0,0,3.177l6.216,3.574a6.109,6.109,0,0,0,5.483,0l6.232-3.62a1.68,1.68,0,0,0,0-3.162Z" transform="translate(111.526 79.056)"/><path class="g" d="M223.388,152.372l6.216,3.574a6.11,6.11,0,0,0,5.5,0l1.008-.58a1.7,1.7,0,0,0,0-3.192l-6.216-3.589a6.109,6.109,0,0,0-5.483,0l-1.023.6a1.7,1.7,0,0,0,0,3.192Z" transform="translate(116.444 77.242)"/><path class="g" d="M232.659,157.707l6.476,3.742a6.109,6.109,0,0,0,5.5,0l1.023-.6a1.68,1.68,0,0,0,0-3.177l-6.476-3.742a6.109,6.109,0,0,0-5.483,0l-1.023.6a1.68,1.68,0,0,0-.015,3.177Z" transform="translate(121.332 80.063)"/><path class="g" d="M261.241,174.213l6.216,3.589a6.109,6.109,0,0,0,5.483,0l1.023-.58a1.68,1.68,0,0,0,0-3.177l-6.2-3.589a6.109,6.109,0,0,0-5.5,0l-1.023.58a1.7,1.7,0,0,0,0,3.177Z" transform="translate(136.416 88.774)"/><path class="g" d="M242.093,163.162l6.384,3.681a6.109,6.109,0,0,0,5.483,0l1.023-.6a1.68,1.68,0,0,0,0-3.177l-6.338-3.681a6.018,6.018,0,0,0-5.5,0l-1.023.58a1.7,1.7,0,0,0-.031,3.192Z" transform="translate(126.316 82.932)"/><path class="g" d="M241.522,161.106l-6.476-3.742a6.109,6.109,0,0,0-5.483,0l-6.232,3.62a1.68,1.68,0,0,0,0,3.177l6.506,3.681a6.109,6.109,0,0,0,5.483,0l6.232-3.6a1.7,1.7,0,0,0-.03-3.131Z" transform="translate(116.409 81.872)"/><path class="g" d="M250.855,166.5l-6.445-3.681a6.109,6.109,0,0,0-5.483,0l-6.155,3.681a1.68,1.68,0,0,0,0,3.177l6.384,3.681a6.11,6.11,0,0,0,5.5,0l6.216-3.62a1.7,1.7,0,0,0-.015-3.238Z" transform="translate(121.388 84.746)"/><path class="g" d="M251.465,168.528l7.01,4.047a6.109,6.109,0,0,0,5.5,0l1.023-.6a1.68,1.68,0,0,0,0-3.177l-7.01-4.047a6.109,6.109,0,0,0-5.5,0l-1.008.58a1.7,1.7,0,0,0-.015,3.192Z" transform="translate(131.254 85.768)"/><path class="g" d="M260.851,172.288l-7-4.063a6.11,6.11,0,0,0-5.5,0l-6.216,3.62a1.68,1.68,0,0,0,0,3.177l7.01,4.047a5.987,5.987,0,0,0,5.483,0l6.232-3.6a1.68,1.68,0,0,0-.015-3.177Z" transform="translate(126.329 87.598)"/><path class="g" d="M191.118,164.294a1.7,1.7,0,0,0,0,3.192l7.01,4.047a6.109,6.109,0,0,0,5.5,0l6.109-3.589a1.68,1.68,0,0,0,0-3.177l-7.01-4.047a6.018,6.018,0,0,0-5.5,0Z" transform="translate(99.427 83.634)"/><path class="g" d="M218.767,173.13a1.7,1.7,0,0,0,0-3.192l-6.216-3.574a6.109,6.109,0,0,0-5.483,0l-6.109,3.574a1.7,1.7,0,0,0,0,3.192l6.216,3.574a6.018,6.018,0,0,0,5.5,0Z" transform="translate(104.616 86.618)"/><path class="g" d="M235.035,167.911l-6.491-3.742a5.987,5.987,0,0,0-5.483,0l-6.98,4.047a1.68,1.68,0,0,0,0,3.177l6.491,3.742a6.11,6.11,0,0,0,5.483,0l6.98-4.047a1.68,1.68,0,0,0,0-3.177Z" transform="translate(112.586 85.453)"/><path class="g" d="M244.368,173.3l-6.384-3.681a6.109,6.109,0,0,0-5.483,0l-6.98,3.986a1.68,1.68,0,0,0,0,3.177l6.384,3.681a6.109,6.109,0,0,0,5.483,0l6.98-4.047a1.68,1.68,0,0,0,0-3.116Z" transform="translate(117.564 88.332)"/><path class="g" d="M254.38,179.077l-7.026-4.063a6.109,6.109,0,0,0-5.483,0l-6.98,4.063a1.68,1.68,0,0,0,0,3.177l7.026,4.047a6.109,6.109,0,0,0,5.483,0l6.98-4.047a1.68,1.68,0,0,0,0-3.177Z" transform="translate(122.505 91.18)"/><path class="g" d="M219.608,183.926l6.384,3.681a6.11,6.11,0,0,0,5.5,0l6.109-3.589a1.68,1.68,0,0,0,0-3.177l-6.384-3.681a6.018,6.018,0,0,0-5.5,0l-6.109,3.574a1.7,1.7,0,0,0,0,3.192Z" transform="translate(114.451 92.303)"/><path class="g" d="M263.345,184.248l-6.2-3.574a6.109,6.109,0,0,0-5.483,0l-6.98,4.063a1.68,1.68,0,0,0,0,3.177l6.2,3.589a6.109,6.109,0,0,0,5.5,0l6.98-4.063C264.872,186.555,264.857,185.134,263.345,184.248Z" transform="translate(127.668 94.164)"/><path class="g" d="M228.991,189.332l7.01,4.047a6.11,6.11,0,0,0,5.5,0l6.109-3.574a1.68,1.68,0,0,0,0-3.192l-7.01-4.047a6.11,6.11,0,0,0-5.5,0l-6.109,3.589a1.68,1.68,0,0,0,0,3.177Z" transform="translate(119.394 95.16)"/><path class="g" d="M214.212,191.7l6.4,3.681a6.109,6.109,0,0,0,5.483,0l6.445-3.727a1.7,1.7,0,0,0,0-3.192l-6.384-3.681a6.109,6.109,0,0,0-5.483,0l-6.476,3.727a1.68,1.68,0,0,0,.015,3.192Z" transform="translate(111.584 96.332)"/><path class="g" d="M196.815,192.513l6.384,3.681a6.109,6.109,0,0,0,5.5,0l6.415-3.727a1.68,1.68,0,0,0,0-3.177l-6.384-3.7a6.11,6.11,0,0,0-5.483,0l-6.415,3.727a1.7,1.7,0,0,0-.015,3.192Z" transform="translate(102.436 96.759)"/><path class="g" d="M272.867,189.756l-6.476-3.742a6.109,6.109,0,0,0-5.483,0l-6.98,4.047a1.7,1.7,0,0,0,0,3.192l6.476,3.727a6.018,6.018,0,0,0,5.5,0l6.98-4.047a1.68,1.68,0,0,0-.015-3.177Z" transform="translate(132.549 96.98)"/><path class="g" d="M238.756,194.976l6.216,3.589a6.109,6.109,0,0,0,5.483,0l6.109-3.574a1.68,1.68,0,0,0,0-3.177l-6.17-3.589a6.109,6.109,0,0,0-5.5,0l-6.109,3.574a1.7,1.7,0,0,0-.031,3.177Z" transform="translate(124.567 98.144)"/><path class="g" d="M223.56,197.1l7.01,4.063a6.109,6.109,0,0,0,5.483,0L242.5,197.4a1.665,1.665,0,0,0,0-3.162l-7.01-4.017a6.109,6.109,0,0,0-5.483,0l-6.445,3.742a1.68,1.68,0,0,0,0,3.131Z" transform="translate(116.563 99.2)"/><path class="g" d="M281.261,194.574l-5.437-3.055a5.987,5.987,0,0,0-5.483,0l-6.949,3.971a1.68,1.68,0,0,0,0,3.177l5.437,3.146a6.109,6.109,0,0,0,5.483,0l6.98-4.047a1.68,1.68,0,0,0-.031-3.192Z" transform="translate(137.535 99.876)"/><path class="g" d="M248.028,200.336l6.476,3.727a6.018,6.018,0,0,0,5.5,0l6.109-3.574a1.7,1.7,0,0,0,0-3.192l-6.476-3.727a6.018,6.018,0,0,0-5.5,0l-6.109,3.574a1.7,1.7,0,0,0,0,3.192Z" transform="translate(129.438 100.957)"/><path class="g" d="M233.391,202.763l6.109,3.589a6.109,6.109,0,0,0,5.483,0l6.445-3.742a1.68,1.68,0,0,0,0-3.177l-6.2-3.589a6.109,6.109,0,0,0-5.483,0l-6.354,3.742a1.68,1.68,0,0,0,0,3.177Z" transform="translate(121.714 102.164)"/><path class="g" d="M291.591,200.562l-7.01-4.047a6.109,6.109,0,0,0-5.483,0l-6.98,4.047a1.7,1.7,0,0,0,0,3.192l7.01,4.047a6.109,6.109,0,0,0,5.5,0l7-4.093a1.68,1.68,0,0,0-.031-3.146Z" transform="translate(142.141 102.517)"/><path class="g" d="M257.515,205.8l5.422,3.055a6.018,6.018,0,0,0,5.5,0l6.109-3.574a1.68,1.68,0,0,0,0-3.177l-5.422-3.146a6.109,6.109,0,0,0-5.5,0l-6.109,3.589a1.68,1.68,0,0,0,0,3.253Z" transform="translate(134.369 103.803)"/><path class="g" d="M242.61,208.1l6.491,3.742a6.109,6.109,0,0,0,5.468,0l6.445-3.742a1.68,1.68,0,0,0,0-3.177l-6.537-3.7a6.11,6.11,0,0,0-5.483,0l-6.445,3.742a1.68,1.68,0,0,0,.061,3.131Z" transform="translate(126.592 105.001)"/><path class="g" d="M266.2,210.816l7.026,4.063a6.11,6.11,0,0,0,5.5,0l6.109-3.574a1.68,1.68,0,0,0,0-3.177l-7.026-4.063a6.109,6.109,0,0,0-5.5,0l-6.109,3.589a1.68,1.68,0,0,0,0,3.162Z" transform="translate(139.029 106.497)"/><path class="g" d="M252.053,213.613l5.422,3.131a6.11,6.11,0,0,0,5.483,0L269.4,213a1.68,1.68,0,0,0,0-3.177l-5.437-3.131a6.109,6.109,0,0,0-5.483,0l-6.445,3.742a1.7,1.7,0,0,0,.015,3.177Z" transform="translate(131.568 107.886)"/><path class="g" d="M276.006,216.47l6.216,3.589a6.109,6.109,0,0,0,5.5,0l6.109-3.574a1.7,1.7,0,0,0,0-3.192l-6.216-3.589a6.109,6.109,0,0,0-5.483,0l-6.109,3.574a1.68,1.68,0,0,0-.015,3.192Z" transform="translate(144.179 109.473)"/><path class="g" d="M260.8,218.613l7.026,4.063a6.109,6.109,0,0,0,5.483,0l6.445-3.742a1.68,1.68,0,0,0,0-3.177l-7.01-4.047a5.987,5.987,0,0,0-5.483,0l-6.445,3.742a1.665,1.665,0,0,0-.015,3.162Z" transform="translate(136.168 110.523)"/><path class="g" d="M294.211,234.976l-76.138-43.957a5.987,5.987,0,0,0-5.483,0l-6.4,3.711a1.68,1.68,0,0,0,0,3.177l76.138,43.972a6.109,6.109,0,0,0,5.5,0l6.415-3.727a1.68,1.68,0,0,0-.031-3.177Z" transform="translate(107.371 99.612)"/><path class="g" d="M279.33,226.37l-6.2-3.574a6.11,6.11,0,0,0-5.5,0l-6.4,3.711a1.68,1.68,0,0,0,0,3.177l6.216,3.589a6.109,6.109,0,0,0,5.483,0l6.415-3.711a1.68,1.68,0,0,0-.015-3.192Z" transform="translate(136.395 116.374)"/><path class="g" d="M287.951,231.332l-5.575-3.207a6.109,6.109,0,0,0-5.483,0l-6.415,3.727a1.7,1.7,0,0,0,0,3.192l5.575,3.207a6.018,6.018,0,0,0,5.5,0l6.415-3.711a1.7,1.7,0,0,0-.015-3.207Z" transform="translate(141.276 119.186)"/><path class="g" d="M187.385,187.058l6.476,3.742a6.11,6.11,0,0,0,5.5,0l6.415-3.727a1.68,1.68,0,0,0,0-3.177l-6.476-3.742a6.109,6.109,0,0,0-5.483,0l-6.415,3.711a1.7,1.7,0,0,0-.015,3.192Z" transform="translate(97.463 93.89)"/><path class="g" d="M178.128,181.708l6.2,3.589a6.109,6.109,0,0,0,5.5,0l6.415-3.727a1.68,1.68,0,0,0,0-3.177l-6.2-3.589a6.109,6.109,0,0,0-5.483,0l-6.415,3.727a1.68,1.68,0,0,0-.015,3.177Z" transform="translate(92.576 91.069)"/><path class="g" d="M187.255,173.217l-7.026-4.063a6.109,6.109,0,0,0-5.483,0l-6.415,3.727a1.68,1.68,0,0,0,0,3.177l7.01,4.047a6.018,6.018,0,0,0,5.5,0l6.4-3.711a1.68,1.68,0,0,0,.015-3.177Z" transform="translate(87.406 88.09)"/><path class="g" d="M336.9,238.16l-7.637-4.445a6.11,6.11,0,0,0-5.5,0l-6.109,3.589a1.68,1.68,0,0,0,0,3.177l7.637,4.445a6.018,6.018,0,0,0,5.5,0l6.109-3.574a1.7,1.7,0,0,0,0-3.192Z" transform="translate(166.148 122.133)"/><path class="g" d="M327.811,243.514l-7.637-4.445a5.987,5.987,0,0,0-5.483,0l-6.445,3.742c-1.527.871-1.527,2.291,0,3.177l7.637,4.445a6.109,6.109,0,0,0,5.483,0l6.445-3.742a1.68,1.68,0,0,0,0-3.177Z" transform="translate(161.181 124.95)"/><path class="g" d="M216.73,190l6.445-3.742c1.527-.871,1.527-2.291,0-3.177l-6.476-3.742a6.109,6.109,0,0,0-5.483,0l-6.445,3.742a1.68,1.68,0,0,0,0,3.177L211.247,190A6.11,6.11,0,0,0,216.73,190Z" transform="translate(106.622 93.458)"/><path class="g" d="M213.621,146.708l7.01,4.063a6.11,6.11,0,0,0,5.5,0l1.008-.6a1.68,1.68,0,0,0,0-3.177l-7.01-4.063a6.109,6.109,0,0,0-5.5,0l-1.008.6a1.68,1.68,0,0,0,0,3.177Z" transform="translate(111.289 74.261)"/><path class="g" d="M203.456,140.838l7.637,4.4a6.109,6.109,0,0,0,5.5,0l1.023-.6a1.68,1.68,0,0,0,0-3.177l-7.637-4.4a6.11,6.11,0,0,0-5.5,0l-1.008.58a1.68,1.68,0,0,0-.015,3.192Z" transform="translate(105.921 71.166)"/><path class="g" d="M194.131,147.3l7.637,4.383a6.11,6.11,0,0,0,5.483,0l6.232-3.62a1.68,1.68,0,0,0,0-3.177l-7.637-4.383a6.11,6.11,0,0,0-5.483,0l-6.232,3.62a1.68,1.68,0,0,0,0,3.177Z" transform="translate(101.011 72.981)"/><path class="g" d="M223.016,150.423l-7.01-4.047a6.109,6.109,0,0,0-5.5,0L204.291,150a1.68,1.68,0,0,0,0,3.177l7.026,4.047a6.109,6.109,0,0,0,5.483,0l6.216-3.62C224.544,152.729,224.528,151.309,223.016,150.423Z" transform="translate(106.369 76.075)"/><path class="g" d="M184.391,153.1l11.379,6.568a6.109,6.109,0,0,0,5.5,0l6.965-4.063a1.68,1.68,0,0,0,0-3.177l-11.379-6.568a6.109,6.109,0,0,0-5.483,0l-6.98,4.063a1.68,1.68,0,0,0,0,3.177Z" transform="translate(95.875 75.808)"/><path class="g" d="M204.018,153.166l-6.98,4.047a1.7,1.7,0,0,0,0,3.192l7.01,4.047a6.109,6.109,0,0,0,5.5,0l6.98-4.047a1.7,1.7,0,0,0,0-3.192l-7.01-4.047A6.109,6.109,0,0,0,204.018,153.166Z" transform="translate(102.549 79.656)"/><path class="g" d="M175.216,158.28,191.6,167.75a6.109,6.109,0,0,0,5.5,0l6.109-3.589a1.68,1.68,0,0,0,0-3.177l-16.388-9.469a6.109,6.109,0,0,0-5.483,0l-6.109,3.574a1.68,1.68,0,0,0-.015,3.192Z" transform="translate(91.029 78.787)"/><path class="g" d="M172.158,175.088l6.4-3.727a1.68,1.68,0,0,0,0-3.177l-10.187-5.865a5.987,5.987,0,0,0-5.483,0l-6.4,3.711a1.7,1.7,0,0,0,0,3.192l10.187,5.865A6.109,6.109,0,0,0,172.158,175.088Z" transform="translate(81.165 84.477)"/><path class="g" d="M165.828,163.782l22.452,12.952a6.109,6.109,0,0,0,5.468,0l6.522-3.742a1.68,1.68,0,0,0,0-3.177l-22.452-12.952a6.109,6.109,0,0,0-5.468,0L165.9,160.6a1.68,1.68,0,0,0-.076,3.177Z" transform="translate(86.106 81.61)"/><path class="g" d="M185.716,172.086c-1.527.871-1.527,2.291,0,3.177l7.026,4.047a6.109,6.109,0,0,0,5.483,0l6.445-3.742c1.527-.871,1.527-2.291,0-3.177l-7.01-4.047a6.109,6.109,0,0,0-5.483,0Z" transform="translate(96.567 87.662)"/><path class="g" d="M207.43,174a6.109,6.109,0,0,0-5.5,0l-6.43,3.742a1.68,1.68,0,0,0,0,3.177l6.216,3.589a6.109,6.109,0,0,0,5.483,0l6.461-3.742a1.68,1.68,0,0,0,0-3.177Z" transform="translate(101.734 90.64)"/><path class="g" d="M333.08,235.765l6.965-4.063c1.527-.871,1.527-2.291,0-3.177l-17.351-10.019a6.109,6.109,0,0,0-5.5,0l-6.965,4.063a1.68,1.68,0,0,0,0,3.177l17.381,10.035A6.109,6.109,0,0,0,333.08,235.765Z" transform="translate(162.235 114.112)"/><path class="g" d="M300.605,220.194l6.736,3.879a6.11,6.11,0,0,0,5.483,0l6.98-4.047a1.68,1.68,0,0,0,0-3.177l-6.72-3.895a6.11,6.11,0,0,0-5.483,0L300.621,217a1.7,1.7,0,0,0-.015,3.192Z" transform="translate(157.168 111.187)"/><path class="g" d="M327.22,242.87l6.109-3.574a1.7,1.7,0,0,0,0-3.192L306.3,220.51a6.018,6.018,0,0,0-5.5,0l-6.109,3.574a1.7,1.7,0,0,0,0,3.192l27.034,15.594A6.018,6.018,0,0,0,327.22,242.87Z" transform="translate(154.043 115.163)"/><path class="g" d="M285.255,221.82l6.476,3.742a6.109,6.109,0,0,0,5.5,0l6.109-3.589a1.68,1.68,0,0,0,0-3.177l-6.476-3.742a6.109,6.109,0,0,0-5.483,0l-6.109,3.574a1.7,1.7,0,0,0-.015,3.192Z" transform="translate(149.073 112.294)"/><path class="g" d="M210.179,178.47l6.476,3.742a6.109,6.109,0,0,0,5.5,0l6.109-3.589a1.68,1.68,0,0,0,0-3.177l-6.476-3.742a6.109,6.109,0,0,0-5.483,0l-6.109,3.589a1.68,1.68,0,0,0-.015,3.177Z" transform="translate(109.478 89.434)"/><path class="g" d="M355.881,227.149l-7.637-4.445a6.11,6.11,0,0,0-5.483,0l-6.216,3.62a1.665,1.665,0,0,0,0,3.162l7.637,4.46a6.11,6.11,0,0,0,5.483,0l6.232-3.62a1.68,1.68,0,0,0-.015-3.177Z" transform="translate(176.106 116.328)"/><path class="g" d="M346.911,232.509l-7.637-4.445a6.109,6.109,0,0,0-5.483,0l-6.98,4.063a1.68,1.68,0,0,0,0,3.177l7.637,4.445a6.109,6.109,0,0,0,5.5,0l6.98-4.063C348.438,234.815,348.438,233.395,346.911,232.509Z" transform="translate(170.978 119.155)"/><path class="g" d="M287.758,187.807l-5.422-3.131a6.109,6.109,0,0,0-5.5,0l-6.216,3.62a1.68,1.68,0,0,0,0,3.177l5.453,3.207a6.109,6.109,0,0,0,5.483,0l6.232-3.62a1.68,1.68,0,0,0-.031-3.253Z" transform="translate(141.347 96.272)"/><path class="g" d="M359.989,223.759l-7.637-4.445a6.109,6.109,0,0,0-5.483,0l-1.008.58a1.68,1.68,0,0,0,0,3.177l7.637,4.445a6.018,6.018,0,0,0,5.5,0l1.008-.58a1.68,1.68,0,0,0-.015-3.177Z" transform="translate(181.024 114.541)"/><path class="g" d="M326.781,212.052l7.01,4.047a6.11,6.11,0,0,0,5.5,0l1.008-.6a1.68,1.68,0,0,0,0-3.177l-7.01-4.047a6.018,6.018,0,0,0-5.5,0l-1.023.58a1.7,1.7,0,0,0,.015,3.192Z" transform="translate(170.963 108.714)"/><path class="g" d="M336.571,217.7l6.2,3.589a6.109,6.109,0,0,0,5.5,0l1.008-.6a1.7,1.7,0,0,0,0-3.192l-6.2-3.574a6.109,6.109,0,0,0-5.5,0l-1.008.6a1.68,1.68,0,0,0,0,3.177Z" transform="translate(176.125 111.697)"/><path class="g" d="M344.117,230.72l6.216-3.62a1.68,1.68,0,0,0,0-3.177L329.165,211.7a6.11,6.11,0,0,0-5.483,0l-6.216,3.62c-1.527.871-1.527,2.291,0,3.177l21.169,12.219A6.109,6.109,0,0,0,344.117,230.72Z" transform="translate(166.043 110.528)"/><path class="g" d="M317.223,206.544l6.736,3.895a6.109,6.109,0,0,0,5.483,0l1.008-.6a1.68,1.68,0,0,0,0-3.177l-6.8-3.941a6.109,6.109,0,0,0-5.5,0l-1.023.6a1.68,1.68,0,0,0,.092,3.223Z" transform="translate(165.859 105.791)"/><path class="g" d="M307.744,201.057l6.476,3.742a6.109,6.109,0,0,0,5.5,0l1.008-.6a1.68,1.68,0,0,0,0-3.177l-6.476-3.742a6.109,6.109,0,0,0-5.483,0l-1.023.6C306.216,198.72,306.231,200.247,307.744,201.057Z" transform="translate(160.919 102.923)"/><path class="g" d="M298.478,195.707l6.216,3.589a6.109,6.109,0,0,0,5.5,0l1.008-.6a1.68,1.68,0,0,0,0-3.177l-6.216-3.589a6.109,6.109,0,0,0-5.483,0l-1.008.6a1.68,1.68,0,0,0-.015,3.177Z" transform="translate(156.041 100.102)"/><path class="g" d="M307.08,198.964l-6.216-3.589a6.11,6.11,0,0,0-5.483,0l-6.216,3.62a1.665,1.665,0,0,0,0,3.162l6.216,3.589a5.987,5.987,0,0,0,5.483,0l6.231-3.6a1.68,1.68,0,0,0-.015-3.177Z" transform="translate(151.121 101.916)"/><path class="g" d="M316.612,204.456l-6.476-3.742a6.109,6.109,0,0,0-5.483,0l-6.262,3.62a1.68,1.68,0,0,0,0,3.177l6.476,3.742a6.109,6.109,0,0,0,5.483,0l6.369-3.65C318.14,206.763,318.14,205.342,316.612,204.456Z" transform="translate(155.991 104.732)"/><path class="g" d="M320.071,216.84l6.232-3.6a1.68,1.68,0,0,0,0-3.177l-6.736-3.895a6.109,6.109,0,0,0-5.483,0l-6.216,3.6a1.7,1.7,0,0,0,0,3.192l6.736,3.879A6.109,6.109,0,0,0,320.071,216.84Z" transform="translate(160.994 107.606)"/><path class="g" d="M270.511,179.528l6.476,3.742a6.018,6.018,0,0,0,5.5,0l1.023-.58a1.7,1.7,0,0,0,0-3.192l-6.491-3.742a6.109,6.109,0,0,0-5.5,0l-1.008.6a1.68,1.68,0,0,0,0,3.177Z" transform="translate(141.289 91.569)"/><path class="g" d="M318.423,248.964l-7.637-4.46a6.109,6.109,0,0,0-5.483,0l-6.415,3.727a1.7,1.7,0,0,0,0,3.192l7.637,4.445a6.11,6.11,0,0,0,5.5,0l6.4-3.727a1.68,1.68,0,0,0,0-3.177Z" transform="translate(156.258 127.824)"/><path class="f" d="M343.729,294.654a4.583,4.583,0,0,0,.718-1.772,6.11,6.11,0,0,0-1.084-4.353,11.043,11.043,0,0,0-3.055-2.948c-.336-.229-.336-.229-7.728-4.383l-13.746-7.759-18.924-10.691-22.269-12.539L253.814,236.8l-23.6-13.273-21.6-12.219-17.809-10.019L178.593,194.4c-4.994-2.81-4.994-2.81-5.544-3.055s-1.665-.764-2.932-1.252c-5.33-2.062-13.578-4.582-18.007-5.911-1.833-.5-2.566,0-2.871.5a1.329,1.329,0,0,0-.137.626,2.627,2.627,0,0,0,.871,1.741,7.649,7.649,0,0,0,.733.687l1.894,1.7,1.726,1.527c3.635,3.223,5.987,5.193,6.247,5.407a64.435,64.435,0,0,0,7.3,5.559h.092l34.869,19.626,91.212,51.5,18.908,10.691,13.746,7.759c7,3.941,7,3.941,7.637,4.246a13.149,13.149,0,0,0,2.26.855,7.453,7.453,0,0,0,5.621-.519,4.688,4.688,0,0,0,1.512-1.436Z" transform="translate(77.862 96.247)"/><path class="a" d="M167.678,189.37a10.1,10.1,0,0,1-.489,3.635,11.974,11.974,0,0,1-5.239,6.659" transform="translate(84.638 99.093)"/><path class="a" d="M261.69,255.9a13.563,13.563,0,0,0,4.994-6.873,11.348,11.348,0,0,0,.58-3.513M263.8,243.56a6.369,6.369,0,0,1,0,4.582,9.744,9.744,0,0,1-5.208,6.033" transform="translate(135.6 127.669)"/><path class="d" d="M239.793,69.328a17.152,17.152,0,0,1-3.406,10.08,31.311,31.311,0,0,1-10.6,9.011c-18.129,10.126-46.95,9.836-64.362-.641a30.623,30.623,0,0,1-9.164-8.125h0A17.229,17.229,0,0,1,148.81,69.6V56.269c0,6.552,4.231,13.1,12.677,18.191,17.4,10.462,46.217,10.691,64.362.641,9.317-5.193,14.006-12.127,14.006-19.061C239.778,60.454,239.793,64.9,239.793,69.328Z" transform="translate(77.709 28.783)"/><path class="h" d="M239.794,62.017h0c0,6.934-4.689,13.868-14.006,19.061-18.145,10.126-46.966,9.821-64.362-.641-8.446-5.086-12.646-11.638-12.677-18.191,0-5.285,2.719-10.584,8.141-15.105l2.81-2.352c-11.226,9.363-9.928,22.284,4.2,30.776,16.083,9.683,42.765,9.958,59.566.611,15.182-8.477,17.076-21.917,5.361-31.585l2.78,2.383C237.045,51.478,239.779,56.748,239.794,62.017Z" transform="translate(77.678 22.745)"/><path class="f" d="M235.233,71.34l-8.981,53.93a13.624,13.624,0,0,1-3.055,6.354,15.837,15.837,0,0,1-1.191,1.329,25.08,25.08,0,0,1-5.819,4.322c-13.2,7.346-34.151,7.133-46.813-.473a24.346,24.346,0,0,1-4.781-3.681h0a13.425,13.425,0,0,1-1.191-1.313h0a13.655,13.655,0,0,1-3.055-6.323L151,71.584a30.623,30.623,0,0,0,9.164,8.125c17.412,10.478,46.232,10.768,64.362.641A31.311,31.311,0,0,0,235.233,71.34Z" transform="translate(78.864 36.851)"/><path class="d" d="M227.593,48.2c11.715,9.668,9.821,23.109-5.361,31.585-16.8,9.347-43.407,9.072-59.566-.611-14.128-8.492-15.426-21.383-4.2-30.776a34.49,34.49,0,0,1,5.437-3.681c16.8-9.363,43.407-9.164,59.566.6a38.367,38.367,0,0,1,4.124,2.887ZM211.526,73.321c9.3-5.178,10.691-13.318,4.063-19.367L211.5,50.3a.29.29,0,0,0-.107-.092,15.379,15.379,0,0,0-2.673-1.986c-8.278-4.979-21.994-5.117-30.623-.305a18.036,18.036,0,0,0-3.345,2.383l-.153.153-4.017,3.7c-6.354,5.865-5.3,13.746,3.33,18.863C184.08,79.064,200.926,79.232,211.526,73.321Z" transform="translate(78.836 19.184)"/><path class="i" d="M217.744,112.134a25.078,25.078,0,0,1-5.819,4.322c-13.2,7.346-34.151,7.133-46.813-.473a24.347,24.347,0,0,1-4.781-3.681h0a13.428,13.428,0,0,1-1.191-1.314c.977,3.375,3.62,6.6,8.019,9.256,11.592,6.965,30.776,7.163,42.872.428,4.918-2.749,7.912-6.232,8.92-9.851A15.834,15.834,0,0,1,217.744,112.134Z" transform="translate(83.157 57.67)"/><path class="d" d="M210.217,49.65c6.644,6.109,5.239,14.189-4.063,19.367-10.6,5.911-27.492,5.743-37.618-.382-8.629-5.193-9.683-13-3.33-18.863l4.017-3.7c-4.994,4.75-4.078,11.012,2.871,15.273,8.278,4.979,21.994,5.117,30.547.321,7.514-4.2,8.706-10.691,3.421-15.67Z" transform="translate(84.207 23.488)"/><path class="d" d="M204.4,48.065c5.285,4.918,4.093,11.47-3.421,15.67-8.614,4.8-22.33,4.582-30.547-.321-6.949-4.185-7.866-10.447-2.871-15.273l.153-.153a18.036,18.036,0,0,1,3.345-2.383c8.629-4.811,22.345-4.674,30.623.305a15.38,15.38,0,0,1,2.673,1.986.29.29,0,0,1,.046.168ZM190.47,57.4c2.581-1.436,2.673-3.8.2-5.3a10.111,10.111,0,0,0-9.164-.092c-2.581,1.436-2.673,3.818-.2,5.3a7.637,7.637,0,0,0,2.306.886,10.829,10.829,0,0,0,4.75,0,8.142,8.142,0,0,0,2.108-.871Z" transform="translate(85.932 21.424)"/><path class="i" d="M185.448,48.973c2.474,1.527,2.383,3.864-.2,5.3a8.14,8.14,0,0,1-2.092.794,2.612,2.612,0,0,0,.412-.214c1.527-.886,1.665-2.367.122-3.3a6.323,6.323,0,0,0-5.712,0c-1.6.9-1.65,2.383-.122,3.314a4.58,4.58,0,0,0,.55.26,7.636,7.636,0,0,1-2.306-.886c-2.474-1.527-2.383-3.864.2-5.3a10.111,10.111,0,0,1,9.149.031Z" transform="translate(91.152 24.471)"/><path class="i" d="M182.855,50.526c1.527.932,1.527,2.413-.122,3.3a2.612,2.612,0,0,1-.412.214,10.829,10.829,0,0,1-4.75,0,4.582,4.582,0,0,1-.55-.26c-1.527-.932-1.527-2.413.122-3.314A6.323,6.323,0,0,1,182.855,50.526Z" transform="translate(91.989 25.499)"/><path class="a" d="M218.94,110.81c-1.008,3.62-4,7.1-8.92,9.851-12.1,6.736-31.28,6.537-42.872-.428-4.4-2.658-7.041-5.88-8.019-9.256" transform="translate(83.151 57.665)"/><path class="a" d="M235.233,71.34l-8.981,53.93a13.624,13.624,0,0,1-3.055,6.354,15.837,15.837,0,0,1-1.191,1.329,25.08,25.08,0,0,1-5.819,4.322c-13.2,7.346-34.151,7.133-46.813-.473a24.346,24.346,0,0,1-4.781-3.681h0a13.425,13.425,0,0,1-1.191-1.313h0a13.655,13.655,0,0,1-3.055-6.323L151,71.584" transform="translate(78.864 36.851)"/><path class="a" d="M239.794,61.948c0,6.934-4.689,13.868-14.006,19.061-18.145,10.126-46.966,9.821-64.362-.641-8.446-5.086-12.646-11.638-12.677-18.191,0-5.285,2.719-10.584,8.141-15.105l2.81-2.352" transform="translate(77.678 22.813)"/><path class="a" d="M201.13,44.62l2.856,2.337c5.468,4.582,8.2,9.775,8.217,15.044" transform="translate(105.299 22.761)"/><path class="a" d="M227.593,48.187A38.368,38.368,0,0,0,223.47,45.3c-16.083-9.683-42.765-9.958-59.566-.6a34.488,34.488,0,0,0-5.437,3.681c-11.226,9.363-9.928,22.284,4.2,30.776,16.083,9.683,42.765,9.958,59.566.611C237.414,71.3,239.308,57.931,227.593,48.187Z" transform="translate(78.836 19.194)"/><path class="a" d="M182.314,54.028a2.611,2.611,0,0,0,.412-.214c1.527-.886,1.665-2.367.122-3.3a6.323,6.323,0,0,0-5.712,0c-1.6.9-1.65,2.383-.122,3.314a4.581,4.581,0,0,0,.55.26" transform="translate(91.995 25.51)"/><path class="a" d="M206.124,46l4.093,3.727c6.644,6.109,5.239,14.189-4.063,19.367-10.6,5.911-27.492,5.743-37.618-.382-8.629-5.193-9.683-13-3.33-18.863l4.017-3.7" transform="translate(84.207 23.488)"/><path class="a" d="M204.313,47.9a15.378,15.378,0,0,0-2.673-1.986c-8.278-4.979-21.994-5.117-30.623-.305a18.037,18.037,0,0,0-3.345,2.459l-.153.153c-4.994,4.75-4.078,11.012,2.871,15.273,8.278,4.979,21.994,5.117,30.547.321,7.515-4.2,8.706-10.691,3.421-15.67A.29.29,0,0,0,204.313,47.9Z" transform="translate(85.911 21.424)"/><path class="a" d="M178.417,55.079a7.636,7.636,0,0,1-2.306-.886c-2.474-1.527-2.383-3.864.2-5.3a10.111,10.111,0,0,1,9.164.092c2.474,1.527,2.383,3.864-.2,5.3a8.142,8.142,0,0,1-2.092.794,10.829,10.829,0,0,1-4.765,0Z" transform="translate(91.158 24.459)"/><path class="a" d="M239.773,56h0V69.3a17.152,17.152,0,0,1-3.406,10.08,31.311,31.311,0,0,1-10.6,9.011c-18.129,10.126-46.95,9.836-64.362-.641a30.624,30.624,0,0,1-9.164-8.125h0a17.228,17.228,0,0,1-3.452-10.05V56.244" transform="translate(77.699 28.762)"/><path class="d" d="M166.3,128.58v-1.863h-.137c-.779-6.186-5.254-12.219-13.456-17-18.053-10.416-47.21-10.416-65.126,0-8.156,4.735-12.57,10.814-13.273,17H74.19v1.863h0v42.292c0,6.827,4.582,13.654,13.609,18.863,18.038,10.416,47.195,10.416,65.126,0,8.965-5.208,13.425-12.035,13.379-18.863V128.6Z" transform="translate(38.359 52.969)"/><path class="f" d="M132.467,90.82,50.51,138.458,133,186.1l81.972-47.638Z" transform="translate(25.872 47.124)"/><path class="d" d="M133,174.932v-5.285L50.51,122.01v5.285Z" transform="translate(25.872 63.571)"/><path class="d" d="M104.52,174.932v-5.285l81.972-47.638v5.285Z" transform="translate(54.353 63.571)"/><path class="f" d="M168.152,197.75C149.625,187.5,148.3,148.142,148.3,148.142L111.4,117l-9.836,5.361,36.809,31.1s1.359,39.359,19.855,49.608l1.527-4.124Z" transform="translate(52.793 60.929)"/></g></g></svg>