<svg xmlns="http://www.w3.org/2000/svg" xmlns:xlink="http://www.w3.org/1999/xlink" width="587.239" height="358.6" viewBox="0 0 587.239 358.6"><defs><style>.a{fill:#829dff;}.b{fill:#002daa;}.c,.n{fill:none;stroke-linecap:round;stroke-miterlimit:10;stroke-width:2px;}.c{stroke:#111159;}.d{fill:url(#a);}.e{fill:#2b2b7f;}.f{fill:#cfe1f8;}.g{fill:#fff;}.h{fill:#eef4fc;}.i{fill:#1067db;}.j,.o{fill:#b3cdfa;}.k{fill:#e1ebfd;}.l,.u{fill:#002280;}.l,.t{opacity:0.3;}.m{fill:#ff5722;}.n{stroke:#002daa;}.o,.q{opacity:0.4;}.p{fill:#111159;}.r{fill:#3357bb;}.s{fill:#00ebc7;}</style><linearGradient id="a" x1="-0.539" y1="0.5" x2="0.461" y2="0.5" gradientUnits="objectBoundingBox"><stop offset="0" stop-color="#e3edfe"/><stop offset="0.27" stop-color="#f1f6ff"/><stop offset="0.6" stop-color="#fcfdff"/><stop offset="1" stop-color="#fff"/></linearGradient></defs><g transform="translate(1 0)"><rect class="a" width="33.899" height="243.568" rx="3.98" transform="translate(299.411 357.616) rotate(-90)"/><rect class="b" width="5.208" height="2.68" transform="translate(313.102 328.91) rotate(-90)"/><rect class="b" width="5.208" height="2.68" transform="translate(323.93 328.925) rotate(-90)"/><rect class="b" width="5.208" height="2.68" transform="translate(334.742 328.91) rotate(-90)"/><rect class="b" width="5.208" height="2.68" transform="translate(345.57 328.925) rotate(-90)"/><rect class="b" width="10.401" height="2.68" transform="translate(356.367 334.118) rotate(-90)"/><rect class="b" width="5.208" height="2.68" transform="translate(367.21 328.925) rotate(-90)"/><rect class="b" width="5.208" height="2.68" transform="translate(378.022 328.91) rotate(-90)"/><rect class="b" width="5.208" height="2.68" transform="translate(388.849 328.925) rotate(-90)"/><rect class="b" width="5.208" height="2.68" transform="translate(399.662 328.91) rotate(-90)"/><rect class="b" width="10.401" height="2.68" transform="translate(410.474 334.118) rotate(-90)"/><rect class="b" width="5.208" height="2.68" transform="translate(421.287 328.91) rotate(-90)"/><rect class="b" width="5.208" height="2.68" transform="translate(432.114 328.91) rotate(-90)"/><rect class="b" width="5.208" height="2.68" transform="translate(442.942 328.91) rotate(-90)"/><rect class="b" width="5.208" height="2.68" transform="translate(453.754 328.91) rotate(-90)"/><rect class="b" width="10.401" height="2.68" transform="translate(464.567 334.118) rotate(-90)"/><rect class="b" width="5.208" height="2.68" transform="translate(475.394 328.91) rotate(-90)"/><rect class="b" width="5.208" height="2.68" transform="translate(486.207 328.925) rotate(-90)"/><rect class="b" width="5.208" height="2.68" transform="translate(497.034 328.91) rotate(-90)"/><rect class="b" width="5.208" height="2.68" transform="translate(507.862 328.925) rotate(-90)"/><rect class="b" width="10.401" height="2.68" transform="translate(518.659 334.118) rotate(-90)"/><rect class="b" width="5.208" height="2.68" transform="translate(529.502 328.925) rotate(-90)"/><line class="c" x2="585.239" transform="translate(0 357.6)"/><path class="d" d="M450.719,84.09,173.313,85.613a8.985,8.985,0,0,0-8.543,7.371L130.49,302.865H423.81L458.09,93.09a6.32,6.32,0,0,0-2.97-6.411Z" transform="translate(66.706 43.968)"/><path class="b" d="M424.6,303.7H130l.122-.731L164.4,93.086a9.67,9.67,0,0,1,9.137-7.873L451.128,83.69l4.569,2.741a6.9,6.9,0,0,1,3.244,7.02Zm-293.076-1.264h292.01L457.722,93.3a5.619,5.619,0,0,0-2.665-5.756l-4.249-2.558L173.645,86.507a8.361,8.361,0,0,0-8,6.792Z" transform="translate(66.45 43.759)"/><path class="e" d="M421.335,301H128L162.3,91.136a9,9,0,0,1,8.559-7.355H449.539a6.092,6.092,0,0,1,6.091,7.355Z" transform="translate(65.404 43.806)"/><path class="e" d="M128.216,301.857h-.107a.64.64,0,0,1-.518-.716l34.3-209.9a9.67,9.67,0,0,1,9.137-7.873H449.709a6.777,6.777,0,0,1,5.284,2.33,6.975,6.975,0,0,1,1.523,5.741l-31.6,193.069a.64.64,0,0,1-.716.533.624.624,0,0,1-.518-.731L455.222,91.244a5.726,5.726,0,0,0-1.2-4.721,5.559,5.559,0,0,0-4.325-1.9H171.009a8.361,8.361,0,0,0-7.934,6.822L128.856,301.324a.64.64,0,0,1-.64.533Z" transform="translate(65.188 43.591)"/><path class="f" d="M137.07,285.081,168.685,91.57H438.278l-31.6,193.511Z" transform="translate(70.147 47.879)"/><path class="g" d="M458.844,242.951H57.568A11.848,11.848,0,0,1,45.72,231.118h0A11.848,11.848,0,0,1,57.568,219.27H458.844a11.848,11.848,0,0,1,11.848,11.848h0a11.833,11.833,0,0,1-11.848,11.833Z" transform="translate(22.383 114.65)"/><path class="h" d="M458.843,232.011H57.567a11.818,11.818,0,0,1-11.056-7.691,11.757,11.757,0,0,0,11.056,15.99H458.843A11.757,11.757,0,0,0,469.9,224.32a11.818,11.818,0,0,1-11.056,7.69Z" transform="translate(22.384 117.29)"/><path class="f" d="M141.444,226.934H114.733a13.584,13.584,0,0,1-12.183-7.614h51.214A13.6,13.6,0,0,1,141.444,226.934Z" transform="translate(52.097 114.676)"/><path class="b" d="M459.058,243.8H57.782a12.472,12.472,0,1,1,0-24.945H459.058a12.472,12.472,0,0,1,0,24.945ZM57.782,220.124a11.208,11.208,0,1,0,0,22.417H459.058a11.208,11.208,0,0,0,0-22.417Z" transform="translate(22.168 114.435)"/><path class="g" d="M392.889,242.951H183.708a11.833,11.833,0,0,1-11.848-11.833h0a11.848,11.848,0,0,1,11.848-11.848H392.889a11.848,11.848,0,0,1,11.848,11.848h0a11.833,11.833,0,0,1-11.848,11.833Z" transform="translate(88.337 114.65)"/><path class="b" d="M393.1,243.8H183.922a12.472,12.472,0,1,1,0-24.945H393.1a12.472,12.472,0,0,1,0,24.945ZM183.922,220.124a11.208,11.208,0,0,0,0,22.417H393.1a11.208,11.208,0,0,0,0-22.417Z" transform="translate(88.123 114.435)"/><rect class="b" width="18.411" height="5.345" transform="translate(453.648 343.087)"/><rect class="b" width="18.411" height="5.345" transform="translate(431.673 343.087)"/><path class="b" d="M323.105,79.491a1.233,1.233,0,0,1,1.2-1.051.9.9,0,0,1,.9,1.051,1.249,1.249,0,0,1-1.2,1.066.9.9,0,0,1-.9-1.066Z" transform="translate(167.411 41.014)"/><path class="i" d="M368.479,100.369a2.3,2.3,0,0,1,2.193-1.919,1.629,1.629,0,0,1,1.66,1.919,2.3,2.3,0,0,1-2.193,1.919,1.629,1.629,0,0,1-1.66-1.919Z" transform="translate(191.13 51.476)"/><path class="g" d="M188.91,63.164l4.036-26.772A7.218,7.218,0,0,1,200.1,30.3h179.79a7.234,7.234,0,0,1,7.157,8.376l-4.02,26.772a7.249,7.249,0,0,1-7.157,6.091H196.068a7.249,7.249,0,0,1-7.157-8.376Z" transform="translate(97.206 15.843)"/><path class="j" d="M227.006,40.434l.7-4.569a1.234,1.234,0,0,1,1.218-1.036h87.93a1.234,1.234,0,0,1,1.234,1.431L317.4,40.83a1.264,1.264,0,0,1-1.234,1.051H228.148a1.249,1.249,0,0,1-1.142-1.447Z" transform="translate(117.163 18.212)"/><path class="k" d="M225.056,52.259l.685-4.569a1.264,1.264,0,0,1,1.234-1.051H355.017a1.249,1.249,0,0,1,1.234,1.432l-.7,4.569a1.234,1.234,0,0,1-1.218,1.051H226.289a1.234,1.234,0,0,1-1.233-1.431Z" transform="translate(116.143 24.387)"/><path class="j" d="M192.946,36.4,188.91,63.174a7.249,7.249,0,0,0,7.157,8.376h36.549a9.436,9.436,0,0,0,.2-.944l5.878-39.062a11.838,11.838,0,0,0,.122-1.264H200.1A7.218,7.218,0,0,0,192.946,36.4Z" transform="translate(97.206 15.833)"/><path class="g" d="M219.011,49.009,199.99,59.03a1.264,1.264,0,0,1-1.964-1.249l3.35-20.041a1.675,1.675,0,0,1,2.376-1.249L219.438,46.5a1.523,1.523,0,0,1-.426,2.5L199.99,59.015a1.264,1.264,0,0,1-1.964-1.249l3.35-20.041a1.675,1.675,0,0,1,2.376-1.249L219.438,46.5a1.523,1.523,0,0,1-.426,2.513Z" transform="translate(102.01 18.987)"/><path class="g" d="M184.029,94.019l4.02-26.787a7.249,7.249,0,0,1,7.157-6.091H374.982a7.234,7.234,0,0,1,7.158,8.376l-4.02,26.772a7.264,7.264,0,0,1-7.158,6.091H191.156a7.249,7.249,0,0,1-7.127-8.361Z" transform="translate(94.656 31.968)"/><path class="j" d="M222.066,71.279l.685-4.569a1.264,1.264,0,0,1,1.234-1.051h88.022a1.249,1.249,0,0,1,1.234,1.447l-.7,4.569a1.234,1.234,0,0,1-1.218,1.036H223.3a1.234,1.234,0,0,1-1.234-1.431Z" transform="translate(114.58 34.332)"/><path class="k" d="M220.156,83.109l.685-4.569a1.249,1.249,0,0,1,1.234-1.051H350.117a1.249,1.249,0,0,1,1.233,1.432l-.7,4.569a1.233,1.233,0,0,1-1.218,1.051H221.45a1.233,1.233,0,0,1-1.294-1.431Z" transform="translate(113.581 40.517)"/><path class="b" d="M188.02,67.216,184.03,94a7.249,7.249,0,0,0,7.157,8.376h36.549a6.946,6.946,0,0,1,.2-.944l5.8-39a12.175,12.175,0,0,0,.122-1.264H195.178A7.249,7.249,0,0,0,188.02,67.216Z" transform="translate(94.655 31.984)"/><path class="g" d="M214.111,79.854,195.09,89.875a1.264,1.264,0,0,1-1.965-1.249l3.35-20.041a1.675,1.675,0,0,1,2.376-1.249l15.686,10.005a1.523,1.523,0,0,1-.426,2.513L195.09,89.875a1.264,1.264,0,0,1-1.965-1.249l3.35-20.041a1.675,1.675,0,0,1,2.376-1.249l15.686,10.005a1.523,1.523,0,0,1-.426,2.513Z" transform="translate(99.448 35.123)"/><path class="g" d="M174.2,155.7l4.036-26.772a7.234,7.234,0,0,1,7.158-6.091H365.2a7.249,7.249,0,0,1,7.157,8.376l-4.036,26.772a7.234,7.234,0,0,1-7.158,6.091H181.358A7.249,7.249,0,0,1,174.2,155.7Z" transform="translate(89.515 64.229)"/><path class="j" d="M212.265,132.979l.685-4.569a1.233,1.233,0,0,1,1.218-1.051h88.037a1.234,1.234,0,0,1,1.218,1.432l-.685,4.569a1.234,1.234,0,0,1-1.218,1.051H213.484a1.234,1.234,0,0,1-1.218-1.431Z" transform="translate(109.456 66.593)"/><path class="k" d="M210.361,144.8l.685-4.569a1.249,1.249,0,0,1,1.218-1.051H340.322a1.249,1.249,0,0,1,1.218,1.523l-.685,4.569a1.249,1.249,0,0,1-1.234,1.036H211.579a1.234,1.234,0,0,1-1.218-1.508Z" transform="translate(108.452 72.773)"/><path class="i" d="M178.236,128.942,174.2,155.714a7.249,7.249,0,0,0,7.157,8.376h36.549a9.416,9.416,0,0,0,.183-.944l5.878-39.062a8.879,8.879,0,0,0,.122-1.264h-38.7A7.234,7.234,0,0,0,178.236,128.942Z" transform="translate(89.515 64.219)"/><path class="g" d="M204.313,141.547l-19.036,10.02a1.249,1.249,0,0,1-1.949-1.249l3.35-20.041a1.66,1.66,0,0,1,2.376-1.249l15.67,10.02a1.523,1.523,0,0,1-.411,2.5l-19.036,10.02a1.249,1.249,0,0,1-1.949-1.249l3.35-20.041a1.66,1.66,0,0,1,2.376-1.249l15.67,10.02a1.523,1.523,0,0,1-.411,2.5Z" transform="translate(94.322 67.376)"/><path class="g" d="M169.3,186.559l4.036-26.787a7.234,7.234,0,0,1,7.157-6.091H360.3a7.249,7.249,0,0,1,7.157,8.376l-4.036,26.772a7.249,7.249,0,0,1-7.157,6.091H176.5a7.264,7.264,0,0,1-7.2-8.361Z" transform="translate(86.955 80.355)"/><path class="j" d="M207.355,163.814l.7-4.569a1.233,1.233,0,0,1,1.218-1.036h88.037a1.234,1.234,0,0,1,1.218,1.431l-.685,4.569a1.264,1.264,0,0,1-1.234,1.051H208.588a1.264,1.264,0,0,1-1.234-1.447Z" transform="translate(106.89 82.723)"/><path class="k" d="M205.445,175.649l.7-4.569a1.233,1.233,0,0,1,1.218-1.051H335.406a1.234,1.234,0,0,1,1.234,1.431l-.685,4.569a1.264,1.264,0,0,1-1.234,1.051H206.678a1.249,1.249,0,0,1-1.234-1.431Z" transform="translate(105.891 88.904)"/><path class="b" d="M173.335,159.777,169.3,186.564a7.264,7.264,0,0,0,7.157,8.376h36.549c.076-.32.137-.624.183-.944l5.878-39.062a9.137,9.137,0,0,0,.122-1.264h-38.7a7.234,7.234,0,0,0-7.157,6.107Z" transform="translate(86.954 80.35)"/><path class="g" d="M199.412,172.354l-19.036,10.02a1.249,1.249,0,0,1-1.949-1.249l3.335-20.041a1.675,1.675,0,0,1,2.376-1.249l15.686,10.02a1.523,1.523,0,0,1-.411,2.5l-19.036,10.02a1.249,1.249,0,0,1-1.949-1.249l3.335-20.041a1.675,1.675,0,0,1,2.376-1.249l15.686,10.02a1.523,1.523,0,0,1-.411,2.5Z" transform="translate(91.76 83.488)"/><path class="g" d="M164.4,217.394l4.005-26.772a7.218,7.218,0,0,1,7.158-6.091h179.82a7.234,7.234,0,0,1,7.157,8.376l-4.02,26.772a7.249,7.249,0,0,1-7.158,6.091H171.558a7.249,7.249,0,0,1-7.157-8.376Z" transform="translate(84.391 96.485)"/><path class="j" d="M202.455,194.669l.7-4.569a1.234,1.234,0,0,1,1.218-1.051H292.4a1.234,1.234,0,0,1,1.234,1.431l-.685,4.569a1.264,1.264,0,0,1-1.234,1.051H203.688a1.249,1.249,0,0,1-1.234-1.431Z" transform="translate(104.327 98.849)"/><path class="k" d="M200.545,206.5l.685-4.569a1.264,1.264,0,0,1,1.234-1.051H330.506a1.249,1.249,0,0,1,1.233,1.431l-.7,4.569a1.234,1.234,0,0,1-1.218,1.051H201.778a1.249,1.249,0,0,1-1.234-1.431Z" transform="translate(103.329 105.034)"/><path class="j" d="M168.416,190.627,164.38,217.4a7.249,7.249,0,0,0,7.157,8.376h36.549a6.29,6.29,0,0,0,.2-.929l5.817-39.062a12.183,12.183,0,0,0,.122-1.264H175.6a7.218,7.218,0,0,0-7.188,6.107Z" transform="translate(84.38 96.48)"/><path class="g" d="M194.5,203.246l-19.021,10.02A1.264,1.264,0,0,1,173.517,212l3.35-20.026a1.69,1.69,0,0,1,2.376-1.264l15.686,10.021a1.523,1.523,0,0,1-.426,2.513l-19.021,10.02A1.264,1.264,0,0,1,173.517,212l3.35-20.026a1.69,1.69,0,0,1,2.376-1.264l15.686,10.021a1.523,1.523,0,0,1-.426,2.513Z" transform="translate(89.193 99.637)"/><path class="l" d="M386.077,97.33H176.515a8.452,8.452,0,0,0-8.345,7.127l-.609,4.081-4.081,27.138a8.254,8.254,0,0,0,.533,4.569,8.5,8.5,0,0,0,3.411,4.005,8.375,8.375,0,0,0,4.4,1.234H381.386a8.452,8.452,0,0,0,8.345-7.127l4.69-31.234a8.452,8.452,0,0,0-8.345-9.792Z" transform="translate(83.896 50.891)"/><path class="g" d="M159.5,131.331l4.69-31.219A8.452,8.452,0,0,1,172.5,93H382.171a8.437,8.437,0,0,1,8.345,9.762l-4.69,31.219a8.452,8.452,0,0,1-8.345,7.127H167.842a8.437,8.437,0,0,1-8.345-9.777Z" transform="translate(81.817 48.627)"/><path class="j" d="M203.863,104.834l.807-5.345a1.432,1.432,0,0,1,1.416-1.218H308.728a1.523,1.523,0,0,1,1.432,1.66l-.807,5.345a1.523,1.523,0,0,1-1.431,1.234H205.294a1.523,1.523,0,0,1-1.431-1.675Z" transform="translate(105.067 51.383)"/><path class="k" d="M201.636,118.629l.807-5.345a1.523,1.523,0,0,1,1.432-1.234H353.116a1.523,1.523,0,0,1,1.431,1.675l-.807,5.345a1.523,1.523,0,0,1-1.432,1.218H203.068a1.431,1.431,0,0,1-1.432-1.66Z" transform="translate(103.897 58.588)"/><path class="m" d="M164.186,100.112l-4.69,31.219a8.437,8.437,0,0,0,8.345,9.762h42.564q.137-.533.228-1.1l6.838-45.473A12.46,12.46,0,0,0,217.624,93H172.5A8.452,8.452,0,0,0,164.186,100.112Z" transform="translate(81.818 48.627)"/><path class="g" d="M194.582,114.908l-22.173,11.68a1.523,1.523,0,0,1-2.284-1.523l3.9-23.361a1.949,1.949,0,0,1,2.772-1.523l18.274,11.68a1.721,1.721,0,0,1-.487,2.909l-22.173,11.68a1.523,1.523,0,0,1-2.284-1.523l3.9-23.361a1.949,1.949,0,0,1,2.772-1.523l18.274,11.68a1.721,1.721,0,0,1-.487,3.183Z" transform="translate(87.423 52.212)"/><path class="g" d="M159.732,122.784l3.183-9.7a6.335,6.335,0,0,1,5.772-4.355l5.421-.213h2.1l24.945-4.965c.107,2.619-2.147,4.234-4.569,5.071l-12.564,4.827h0a3.853,3.853,0,0,1,4.218,6.091l-4.812,6.259a8.589,8.589,0,0,1-4.416,4.66l-8.315,3.761-3.228,3.152-29.331,53.194c-.868,1.523-9.137-23.056-9.137-23.056Z" transform="translate(65.927 54.143)"/><path class="b" d="M138.231,191.529h0c-.563,0-1.2-.107-5.558-12.015-2.1-5.711-4.051-11.482-4.066-11.543l-.107-.3,30.914-44.894,3.168-9.609a6.99,6.99,0,0,1,6.335-4.782l5.437-.213h2.117l25.615-5.117v.746c.091,2.482-1.706,4.569-4.949,5.7l-9.914,3.807a4.2,4.2,0,0,1,1.036.609,4.477,4.477,0,0,1,.838,6.274l-4.767,6.2a9.137,9.137,0,0,1-4.706,4.9l-8.224,3.731-3.046,3.046-29.468,53.118a.746.746,0,0,1-.655.35Zm-8.406-23.665c3.168,9.366,6.929,19.554,8.33,22.005l29.178-52.63,3.366-3.274,8.421-3.822a7.934,7.934,0,0,0,4.1-4.31l.076-.152,4.812-6.259a3.228,3.228,0,0,0-3.518-5.041l-.822.259v-1.294l.4-.213,12.564-4.827c1.431-.5,3.685-1.614,4.066-3.7l-24.214,4.827h-2.223l-5.406.228a5.7,5.7,0,0,0-5.178,3.914l-3.274,9.853ZM159.993,123.045Z" transform="translate(65.666 53.882)"/><path class="b" d="M40.127,165.137c-.975-4.386-3.655-8.833-2.178-13.1,1.218-3.487,4.812-5.452,7.386-8.1,4.371-4.569,5.756-11.193,5.817-17.483a46.585,46.585,0,0,1,.426-9.137c1.249-6.091,5.741-10.812,8.939-16.112a22.294,22.294,0,0,1,3.624-5.178,17.391,17.391,0,0,1,6.091-3.137q7.355-2.528,14.787-4.751c2.406-.716,5.025-1.4,7.386-.518a12,12,0,0,1,4.432,3.594l7.614,8.635a9.015,9.015,0,0,1,4.371,5.665c.929,3.685,0,7.614-.746,11.254s-1.294,7.751.32,11.193,5.193,5.863,6,9.579-1.325,7.157-3.244,10.34c-3.259,5.452-6.259,11.726-4.98,17.955.777,3.777,3.046,7.142,3.548,10.965a12.183,12.183,0,0,1-4.858,11.117c-2.025,1.447-4.66,2.452-5.543,4.782-.655,1.736-.091,3.7-.381,5.543-.609,3.9-5.041,6.244-8.97,5.954s-7.462-2.452-10.8-4.569-6.9-4.234-10.858-4.416c-7.614-.365-14.985,6.64-22.158,3.99-5.8-2.147-7.736-9.487-7.279-15.655S41.437,171.183,40.127,165.137Z" transform="translate(18.092 45.597)"/><path class="g" d="M53.111,156.889c-1.751,5.817,34.645,2.6,30.153-1.523C75.756,148.574,78.3,120.34,78.3,120.34H57.543S56.522,145.483,53.111,156.889Z" transform="translate(26.215 62.922)"/><path class="n" d="M53.111,156.889c-1.751,5.817,34.645,2.6,30.153-1.523C75.756,148.574,78.3,120.34,78.3,120.34H57.543S56.522,145.483,53.111,156.889Z" transform="translate(26.215 62.922)"/><path class="g" d="M86.2,149.211c5.6,2.741,15.229-5.741,14.909-19.8,0-.3-2.223-30.777-6.229-34.782-9.625-9.64-49.265,0-49.265,0v23.1C45.62,138.84,86.2,149.211,86.2,149.211Z" transform="translate(22.33 47.24)"/><path class="e" d="M90.338,136.4l12.9-.274a13.706,13.706,0,0,1,8.482,2.726l18.274,13.584a14.011,14.011,0,0,0,4.751,2.284l32.772,8.635a5.513,5.513,0,0,0,5.909-2.178l26.681-35.544,13.31,8.589-17.254,41.559a20.01,20.01,0,0,1-15.518,11.574c-14.726,2.025-40.387,3.67-54.153-6.564,0,0-2.635.883.365,9.853a23.071,23.071,0,0,1-4.569,22.843l-.091.107,10.66,77.94H57.018V272.389L32.85,161.219,54.4,140.661l30.869,10.8Z" transform="translate(15.653 65.688)"/><path class="o" d="M27.75,190.753c.259-.883.548-1.767.822-2.635l3.564-11.269a57.047,57.047,0,0,1,3.548-9.244c1.386-2.65,3.2-5.071,4.569-7.721a28.112,28.112,0,0,0,2.193-19.965c-.563-2.1-1.371-4.142-1.751-6.289-.929-5.269,0-12.183.99-17.437a31.98,31.98,0,0,1,6.548-14.315C53.593,95.452,61.5,91.965,69.4,89.818c3.472-.944,6.853-2.269,10.264-3.183,3.959-1.081,8.954-.518,13.005-.107,5.147.518,17.6,1.69,19.98,7.614,1.706,4.249-.777,7.173-4.325,9.137-4.249,2.452-7.614,3.335-11.041,7.218-7.218,8.345-9.518,20.01-9.792,30.747a50.909,50.909,0,0,1-.7,9.64,12.716,12.716,0,0,1-4.98,8.01c-5.513,3.624-11.482,2.65-16.523,7.614-7.614,7.447-8.833,19.036-12.731,28.935a53.392,53.392,0,0,1-11.924,18.274c-2.025,2.041-4.4,3.99-7.249,4.279-8.863.929-8.193-14.818-7.371-20.117a49.676,49.676,0,0,1,1.736-7.127Z" transform="translate(11.844 44.972)"/><path class="p" d="M54.4,135.5l1.629.579c2.33.807,3.731,6.822,5.528,8.619,2.833,2.817,7.112,4.2,10.02,7.218A17.879,17.879,0,0,1,77,163.475c.32,9.442-8.132,18.868-10.112,28.021C63.353,207.958,81.78,210.5,94.648,207.425a5.7,5.7,0,0,1-.533,5.406,23.636,23.636,0,0,1-3.762,4.234c-9.472,9.518-10.432,21.2-12.609,33.671-2.467,14.117,7.462,18.107,11.8,30.122.244.655,1.523,4.8,1.721,5.467-9.244-.35-21.122.7-34.051-.944l-.244-18.274L32.85,156.059Z" transform="translate(15.653 70.849)"/><path class="j" d="M82.924,135.121l9.366,8.894v11.833l-4.675-6.168-4.69,9.259H72.233l-6.168,8.224L47.03,139.385,49.6,128.07,77.9,150.182l2.421-13.371Z" transform="translate(23.068 66.964)"/><path class="p" d="M98.649,188.494a23.072,23.072,0,0,1-4.569,22.843l-.091.107,1.02,6.807a15.488,15.488,0,0,0-8.269-8.406,12.488,12.488,0,0,0,10.31-11.939c0-6.411-7.98-16.675,0-21.549a9.427,9.427,0,0,1,3.32-1.127c8.071-1.523,16.873.137,24.518,2.954a58.507,58.507,0,0,0,9.579,3.213c6.579,1.188,13.127-1.234,18.625-4.706,4.873-3.046,10.432-7.218,13.706-11.97,3.5-4.995,5.391-10.919,7.1-16.752,1.523-5.437,2.924-12.076,6-16.873,1.142-1.782.457-1.523,2.33-.853a27.662,27.662,0,0,1,2.954,1.919l-17.239,41.544a20.01,20.01,0,0,1-15.518,11.574c-14.726,2.025-40.387,3.67-54.153-6.564C98.283,178.641,95.649,179.524,98.649,188.494Z" transform="translate(43.831 67.836)"/><path class="e" d="M45.779,140.1s-11.894-.746-14.559,23.65l8.026,74.286,16.432,45.9,15.229-.107-9.564-50.864-.3-72.047A21.32,21.32,0,0,0,45.809,140.1Z" transform="translate(14.801 73.253)"/><path class="p" d="M47.374,260.038l8.193,22.843h5.878c-3.883-16.554-11.132-32.574-13.021-49.539-.883-7.888-.579-15.884-1.812-23.726-1.736-11.178-6.5-21.716-8.254-32.879s-.411-23.1.777-34.737a18.96,18.96,0,0,0-4.188,5.8h0l-.274.563h0c-.091.183-.168.365-.244.548v.091c0,.183-.152.35-.213.533v.137l-.2.518v.183l-.183.5-.076.213a2.165,2.165,0,0,1-.168.5l-.091.244a2.11,2.11,0,0,1-.152.5l-.091.289-.137.487-.091.32-.137.487-.091.366a2.692,2.692,0,0,1-.122.472,2.771,2.771,0,0,1-.107.381.862.862,0,0,1-.107.5l-.091.411a2.793,2.793,0,0,1-.107.487l-.091.457-.091.472a3.128,3.128,0,0,1-.107.518,1.512,1.512,0,0,1-.076.457l-.091.563a.906.906,0,0,1-.076.442l-.091.624v.426l-.091.7v.366a9.188,9.188,0,0,1-.122,1.112l8.026,74.286Z" transform="translate(14.911 74.248)"/><path class="b" d="M24.084,185.716c.32-.868.655-1.721.99-2.574l4.294-11.01a56.59,56.59,0,0,1,4.127-9c1.523-2.558,3.518-4.858,5.071-7.416a28.021,28.021,0,0,0,3.472-19.8c-.426-2.132-1.1-4.218-1.34-6.381-.579-5.33.731-12.183,2.117-17.345a31.98,31.98,0,0,1,7.462-13.858c5.772-6.091,13.873-9.031,21.9-10.66,3.594-.716,6.975-1.812,10.447-2.558,4.036-.807,8.97,0,12.99.731,5.1.853,17.452,2.817,19.447,8.863,2.665,8.071-7.477,9.716-12.823,11.8-4.706,1.843-6.274,4.371-8.437,8.985A55.889,55.889,0,0,0,88.852,132.9c-.807,7.112-.365,14.787-4.142,20.879-2.726,4.355-7.127,7.218-10.965,10.477a27.092,27.092,0,0,0-5.239,5.482c-3.792,5.665-2.117,15.838-2.269,22.295-.168,6.975-.35,14.056-2.513,20.681A35.97,35.97,0,0,1,52.2,229.468a15.654,15.654,0,0,1-5.5,3.046,18.4,18.4,0,0,1-8,0,15.808,15.808,0,0,1-5.817-1.8,15.807,15.807,0,0,1-5.208-6.518c-5.025-9.7-8.132-20.909-5.772-31.554a52.859,52.859,0,0,1,2.178-6.929Z" transform="translate(9.511 44.329)"/><g class="q" transform="translate(30.612 129.119)"><path class="r" d="M21.906,192.687a52.861,52.861,0,0,1,2.178-6.975c.32-.868.655-1.721.99-2.574l4.294-11.01a56.59,56.59,0,0,1,4.127-9c1.523-2.558,3.518-4.858,5.071-7.416a28.021,28.021,0,0,0,3.472-19.8c-.426-2.132-1.1-4.218-1.34-6.381-.579-5.33.731-12.183,2.117-17.345A31.98,31.98,0,0,1,50.277,98.33c5.772-6.091,13.873-9.031,21.9-10.66,3.594-.716,6.975-1.812,10.447-2.558,3.868-.777,8.574,0,12.488.655a29.513,29.513,0,0,0-3.426,3.472c-5.406,6.533-8.3,14.665-11.1,22.63s-5.711,16.112-11.147,22.554c-2.467,2.924-5.406,5.421-7.843,8.391-9.716,11.833-9.807,28.539-10.371,43.843-.411,10.66-1.31,21.579-5.041,31.645a48.9,48.9,0,0,1-8.041,14.163,15,15,0,0,1-5.254-1.706,15.807,15.807,0,0,1-5.208-6.518C22.652,214.555,19.546,203.332,21.906,192.687Z" transform="translate(-21.102 -84.787)"/></g><path class="i" d="M216.464,36.26l-23.681.289a5.482,5.482,0,0,1-5.467-6.4l4.127-24.64A6.335,6.335,0,0,1,197.611.228L221.292,0a5.5,5.5,0,0,1,5.467,6.4l-4.1,24.579A6.35,6.35,0,0,1,216.464,36.26Z" transform="translate(96.379 0)"/><path class="g" d="M212.385,13.081c.259-.2.244-.548,0-.579l-5.528-.761h-.122a.228.228,0,0,1-.091-.137l-.716-3.046h0l-.487-2.1c0-.259-.426-.259-.624,0l-3.929,5.223a.518.518,0,0,1-.3.2l-5.97.9a.412.412,0,0,0-.335.594l2.086,2.68h0l1.005,1.294a.274.274,0,0,1,0,.3l-1.721,3.99h0l-.076.168-.67,1.523c-.091.213,0,.381.2.4a.3.3,0,0,0,.2,0l5.848-2.756a.35.35,0,0,1,.32,0L205.9,23.6a.442.442,0,0,0,.594-.381l.518-5.68a.457.457,0,0,1,.183-.3Z" transform="translate(100.032 3.275)"/><path class="s" d="M183.689,55.852l-31.63.289a7.325,7.325,0,0,1-7.294-8.528l5.482-32.8A8.437,8.437,0,0,1,158.5,7.745l31.63-.3a7.325,7.325,0,0,1,7.295,8.528l-5.482,32.818A8.467,8.467,0,0,1,183.689,55.852Z" transform="translate(74.118 3.89)"/><path class="g" d="M154.075,23.281a9.564,9.564,0,0,1,8.7-6.9,5.193,5.193,0,0,1,4.371,2.071,8.863,8.863,0,0,1,5.452-2.071,5.147,5.147,0,0,1,5.086,6.9,9.259,9.259,0,0,1-3.137,4.706l-12.411,9.807-7.493-10.02c-.076-.122-.259-.487-.259-.487a5.878,5.878,0,0,1-.3-4.005Z" transform="translate(78.924 8.563)"/><g class="t" transform="translate(196.241 92.061)"><path class="u" d="M186.581,84.191,184.51,96.633a4.112,4.112,0,0,1-4.051,3.426h-30.9l2.787-16.279Z" transform="translate(-119.563 -48.255)"/><path class="u" d="M151.612,70.606l-15.488-9.96a1.98,1.98,0,0,0-2.817,1.523l-3.35,19.9a1.523,1.523,0,0,0,2.33,1.523l18.914-9.96a1.751,1.751,0,0,0,.411-3.031Z" transform="translate(-129.823 -60.452)"/><line class="u" y1="3.472" x2="0.685" transform="translate(56.16 31.459)"/><path class="u" d="M132.28,84.582h52.493l.67-3.472H132.95Z" transform="translate(-128.598 -49.651)"/><path class="u" d="M129.965,83.594a3.122,3.122,0,0,0,3.152,3.914,5,5,0,0,0,4.675-3.914,3.137,3.137,0,0,0-3.152-3.914A4.98,4.98,0,0,0,129.965,83.594Z" transform="translate(-129.862 -50.4)"/><path class="u" d="M131.09,83a1.736,1.736,0,0,0,1.751,2.178,2.787,2.787,0,0,0,2.6-2.178,1.751,1.751,0,0,0-1.767-2.178A2.772,2.772,0,0,0,131.09,83Z" transform="translate(-129.251 -49.803)"/></g><path class="a" d="M204.617,113.708H95.412a4.1,4.1,0,0,1-4.051-4.812l9.944-59.864a4.112,4.112,0,0,1,4.051-3.411H214.638a4.112,4.112,0,0,1,4.051,4.8L208.744,110.3A4.127,4.127,0,0,1,204.617,113.708Z" transform="translate(46.214 23.853)"/><path class="g" d="M147.447,66.481l-15.579-9.944a1.98,1.98,0,0,0-2.817,1.523L125.776,77.9a1.523,1.523,0,0,0,2.315,1.523L147,69.481a1.767,1.767,0,0,0,.442-3Z" transform="translate(64.232 29.46)"/><path class="g" d="M101.29,80.442h93.382l.67-3.472H101.96Z" transform="translate(51.439 40.245)"/><path class="b" d="M128.14,80.442h52.493l.67-3.472H128.81Z" transform="translate(65.478 40.245)"/><path class="g" d="M125.825,79.455a3.122,3.122,0,0,0,3.152,3.914,5,5,0,0,0,4.675-3.914,3.122,3.122,0,0,0-3.152-3.914,4.98,4.98,0,0,0-4.675,3.914Z" transform="translate(64.214 39.497)"/><path class="b" d="M126.95,78.858a1.736,1.736,0,0,0,1.751,2.178,2.787,2.787,0,0,0,2.6-2.178,1.736,1.736,0,0,0-1.751-2.178,2.772,2.772,0,0,0-2.6,2.178Z" transform="translate(64.825 40.093)"/><path class="l" d="M102.482,45.62a4.112,4.112,0,0,0-4.051,3.41L96.68,59.585h15.807l12.457,10.553c.579.838,2.041.335,2.223-.761l1.234-7.34.411-2.452h9.868a6.731,6.731,0,0,0,6.4-5.482l1.431-8.482Z" transform="translate(49.028 23.853)"/><path class="p" d="M158.586,20.632l-7.614,45a6.762,6.762,0,0,1-6.4,5.467h-9.883l-.411,2.452-1.218,7.34c-.2,1.112-1.66,1.614-2.223.761L118.367,71.1H77.889a4.569,4.569,0,0,1-4.569-5.467l7.614-45a6.731,6.731,0,0,1,6.381-5.482h66.778a4.569,4.569,0,0,1,4.492,5.482Z" transform="translate(36.768 7.922)"/><path class="g" d="M133.819,56.08H82.042a.959.959,0,0,1-.975-1.157l5.467-32.635A1.523,1.523,0,0,1,87.9,21.13h51.778a.959.959,0,0,1,.975,1.157l-5.482,32.635A1.432,1.432,0,0,1,133.819,56.08Z" transform="translate(40.854 11.048)"/><ellipse class="b" cx="13.401" cy="10.645" rx="13.401" ry="10.645" transform="matrix(0.747, -0.665, 0.665, 0.747, 134.503, 50.644)"/><path class="g" d="M100.394,35.751h0a.442.442,0,0,1-.426-.579l1.523-6.548a.731.731,0,0,1,.7-.563h0a.442.442,0,0,1,.442.563l-1.523,6.548a.746.746,0,0,1-.716.579Z" transform="translate(50.736 14.672)"/><path class="g" d="M106.136,32.924h0a.426.426,0,0,0-.426-.563h-5.071a.746.746,0,0,0-.7.563h0a.442.442,0,0,0,.426.579h5.071a.746.746,0,0,0,.7-.579Z" transform="translate(50.72 16.92)"/><path class="l" d="M397.135,81.5H255.052a6.274,6.274,0,0,0-6.2,5.33l-3.487,23.193a6.274,6.274,0,0,0,6.2,7.249H390.039Z" transform="translate(126.732 42.614)"/><path class="p" d="M240.2,105.628l3.487-23.178a6.289,6.289,0,0,1,6.2-5.3H405.565a6.274,6.274,0,0,1,6.2,7.249l-3.487,23.193a6.274,6.274,0,0,1-6.2,5.284H246.394a6.274,6.274,0,0,1-6.2-7.249Z" transform="translate(124.029 40.34)"/><path class="s" d="M355.411,86.818l-33.5.3a4.249,4.249,0,0,1-4.188-4.751l5.863-34.645A3.259,3.259,0,0,1,326.842,45l33.5-.35h0a4.249,4.249,0,0,1,4.142,4.767l-5.878,34.676a3.229,3.229,0,0,1-3.2,2.726Z" transform="translate(164.588 23.346)"/><path class="g" d="M332.64,77.4l.487-2.482A12.381,12.381,0,0,1,326,71l3.929-3.853a10.508,10.508,0,0,0,4.157,2.954l1.005-5.071a9.533,9.533,0,0,1-4.751-2.467,5.041,5.041,0,0,1-.777-4.462,8.026,8.026,0,0,1,2.863-4.751,10.1,10.1,0,0,1,5.437-2.269l.335-1.66h3.609l-.35,1.736a12.5,12.5,0,0,1,6.213,2.817l-3.594,3.944a10.249,10.249,0,0,0-3.564-2.041l-.975,4.9a10.2,10.2,0,0,1,4.9,2.543,5,5,0,0,1,.853,4.569,8.1,8.1,0,0,1-2.909,4.828A10.66,10.66,0,0,1,336.66,75l-.472,2.391Zm4.294-21.61a2.467,2.467,0,0,0-1.8,1.873,1.8,1.8,0,0,0,1.051,2.086Zm2.878,12.381a1.691,1.691,0,0,0-.107-1.112,2.665,2.665,0,0,0-1.188-.883l-.838,4.188a2.757,2.757,0,0,0,2.132-2.193Z" transform="translate(168.933 25.84)"/><path class="g" d="M262.037,86.78l-5.284,7.081h-1.965l.091-4.386-3.335,4.386H249.58l.168-7.081h1.995l-.168,4.8,3.564-4.8h1.736l-.152,4.8,3.564-4.8Z" transform="translate(128.975 45.375)"/><path class="g" d="M270.012,86.78l-5.284,7.081h-1.934l.091-4.386-3.335,4.386h-1.98l.167-7.081h1.934l-.167,4.8,3.579-4.8h1.736l-.152,4.8,3.564-4.8Z" transform="translate(133.153 45.375)"/><path class="g" d="M277.991,86.78l-5.284,7.081h-1.919l.091-4.386-3.335,4.386H265.58l.167-7.081h1.934l-.167,4.8,3.579-4.8h1.736l-.168,4.8,3.579-4.8Z" transform="translate(137.341 45.375)"/><path class="g" d="M272.318,92.014a1.035,1.035,0,0,1,0-.929,1.979,1.979,0,0,1,.716-.914,1.842,1.842,0,0,1,1.036-.35.868.868,0,0,1,.777.35.914.914,0,0,1,0,.914,2.025,2.025,0,0,1-.716.929,1.767,1.767,0,0,1-1.051.365A.822.822,0,0,1,272.318,92.014Z" transform="translate(140.806 46.963)"/><path class="g" d="M275.387,93.807a3.046,3.046,0,0,1-1.127-.548l1.249-1.523a3.137,3.137,0,0,0,.959.5,4.173,4.173,0,0,0,1.234.183q1.294,0,1.523-.64a.3.3,0,0,0-.183-.442,4.265,4.265,0,0,0-1.005-.213,9.731,9.731,0,0,1-1.325-.3,1.355,1.355,0,0,1-.746-.609,1.416,1.416,0,0,1,0-1.234,3.046,3.046,0,0,1,.838-1.2,4.569,4.569,0,0,1,1.447-.807,6.091,6.091,0,0,1,1.873-.289,6.244,6.244,0,0,1,1.432.168,2.6,2.6,0,0,1,1.051.457l-1.249,1.523a3.046,3.046,0,0,0-1.827-.533,2.635,2.635,0,0,0-1.066.183.96.96,0,0,0-.5.472.32.32,0,0,0,.183.472,5.253,5.253,0,0,0,1.02.244,8.924,8.924,0,0,1,1.31.3,1.371,1.371,0,0,1,.731.609,1.4,1.4,0,0,1,0,1.2,2.833,2.833,0,0,1-.838,1.173,3.975,3.975,0,0,1-1.523.792,5.8,5.8,0,0,1-1.9.289,6.228,6.228,0,0,1-1.553-.228Z" transform="translate(141.879 45.322)"/><path class="g" d="M281.876,87.906h2.041l-2.711,7.081H279.15Zm.609-1.31a.853.853,0,0,1,0-.822,1.705,1.705,0,0,1,.67-.807,1.767,1.767,0,0,1,1.051-.335.914.914,0,0,1,.792.32.792.792,0,0,1,0,.792,1.827,1.827,0,0,1-.685.838,1.767,1.767,0,0,1-1.051.335A.9.9,0,0,1,282.485,86.6Z" transform="translate(144.436 44.249)"/><path class="g" d="M295.395,87.5a2.726,2.726,0,0,1-.122,2.345L293.75,93.9h-2.056l1.4-3.7a1.782,1.782,0,0,0,.137-1.264.822.822,0,0,0-.838-.411,2.1,2.1,0,0,0-1.325.472,3.045,3.045,0,0,0-.944,1.386l-1.371,3.548H286.7l1.432-3.731c.442-1.127.2-1.675-.7-1.675a2.071,2.071,0,0,0-1.31.472,3.046,3.046,0,0,0-.944,1.386l-1.371,3.548H281.75l2.726-7.081h1.965l-.32.822a4.111,4.111,0,0,1,1.234-.685,3.716,3.716,0,0,1,1.34-.244,2.406,2.406,0,0,1,1.249.3,1.523,1.523,0,0,1,.64.853,4.889,4.889,0,0,1,1.431-.853,4.355,4.355,0,0,1,1.523-.3,1.934,1.934,0,0,1,1.858.761Z" transform="translate(145.796 45.34)"/><path class="g" d="M295.2,94.049a3.047,3.047,0,0,1-.868.335,4.159,4.159,0,0,1-.975.107,1.965,1.965,0,0,1-1.706-.64,2.086,2.086,0,0,1,0-1.9l1.112-2.909h-1.1l.609-1.523h1.1l.655-1.736h2.056l-.655,1.736h1.751l-.594,1.523h-1.766l-.99,2.878a.869.869,0,0,0,0,.7c.091.168.274.244.563.244a1.9,1.9,0,0,0,.929-.259Z" transform="translate(150.851 44.852)"/><path class="g" d="M304.145,86.78l-2.726,7.081H299.5l.335-.838a4.843,4.843,0,0,1-1.249.7,3.7,3.7,0,0,1-1.325.244,2.1,2.1,0,0,1-1.9-.807,2.68,2.68,0,0,1,.107-2.376l1.523-4.005h2.056l-1.432,3.7c-.426,1.142-.167,1.706.792,1.706a2.162,2.162,0,0,0,1.355-.472,3.046,3.046,0,0,0,1.005-1.432l1.34-3.5Z" transform="translate(152.792 45.375)"/><path class="g" d="M303.231,87.906h2.056l-2.726,7.081H300.52Zm.609-1.31a.853.853,0,0,1,0-.822,1.8,1.8,0,0,1,.67-.807,1.766,1.766,0,0,1,1.051-.335.929.929,0,0,1,.807.32.792.792,0,0,1,0,.792,1.919,1.919,0,0,1-1.721,1.173.929.929,0,0,1-.807-.32Z" transform="translate(155.61 44.249)"/><path class="g" d="M307.5,94.049a3.047,3.047,0,0,1-.868.335,4.159,4.159,0,0,1-.975.107,1.965,1.965,0,0,1-1.706-.64,2.041,2.041,0,0,1,0-1.9l1.112-2.909h-1.1l.609-1.523h1.1l.655-1.736h2.056l-.655,1.736h1.751l-.594,1.523h-1.69l-1.112,2.878a.868.868,0,0,0,0,.7c.091.168.274.244.563.244a1.9,1.9,0,0,0,.929-.259Z" transform="translate(157.281 44.852)"/><path class="g" d="M309.6,87.906h2.041l-2.711,7.081H306.87Zm.609-1.31a.853.853,0,0,1,0-.822,1.8,1.8,0,0,1,.67-.807,1.767,1.767,0,0,1,1.051-.335.929.929,0,0,1,.807.32.792.792,0,0,1,0,.792,1.66,1.66,0,0,1-.685.838,1.752,1.752,0,0,1-1.036.335.929.929,0,0,1-.807-.32Z" transform="translate(158.93 44.249)"/><path class="g" d="M318.656,86.78l-5.711,7.081h-2.117l-.259-7.081h2.178l.122,4.812,3.868-4.812Z" transform="translate(160.865 45.375)"/><path class="g" d="M322.354,90.944h-5.345a1.112,1.112,0,0,0,.274,1.036,1.675,1.675,0,0,0,1.2.381,3.274,3.274,0,0,0,1.036-.167,3.519,3.519,0,0,0,1.005-.518l.64,1.188a5.269,5.269,0,0,1-3.366,1.142,3.548,3.548,0,0,1-1.949-.472,1.949,1.949,0,0,1-.914-1.294,3.335,3.335,0,0,1,.213-1.873,5.817,5.817,0,0,1,1.218-1.888,6.091,6.091,0,0,1,1.858-1.294,5.01,5.01,0,0,1,2.1-.472,3.046,3.046,0,0,1,1.721.457,1.873,1.873,0,0,1,.822,1.279,3.609,3.609,0,0,1-.259,1.934Zm-3.929-2.269a2.832,2.832,0,0,0-.99,1.081h3.487a1.1,1.1,0,0,0-1.173-1.523,2.482,2.482,0,0,0-1.325.442Z" transform="translate(163.122 45.337)"/><path class="g" d="M320.038,92.014a1.036,1.036,0,0,1,0-.929,2.086,2.086,0,0,1,.716-.914,1.842,1.842,0,0,1,1.051-.35.9.9,0,0,1,.777.35,1,1,0,0,1,0,.914,2.056,2.056,0,0,1-.731.929,1.767,1.767,0,0,1-1.051.365.838.838,0,0,1-.762-.365Z" transform="translate(165.758 46.964)"/><path class="g" d="M323.513,93.534a1.949,1.949,0,0,1-.914-1.294,3.2,3.2,0,0,1,.213-1.873,5.345,5.345,0,0,1,1.234-1.888,6.092,6.092,0,0,1,1.9-1.294,5.391,5.391,0,0,1,2.208-.472,3.046,3.046,0,0,1,1.782.472,1.645,1.645,0,0,1,.7,1.34l-1.919.853A1.1,1.1,0,0,0,327.5,88.4a2.589,2.589,0,0,0-1.523.518,3.137,3.137,0,0,0-1.066,1.523,1.523,1.523,0,0,0,0,1.431,1.218,1.218,0,0,0,1.127.518,2.665,2.665,0,0,0,1.965-.975l1.264.883a5.222,5.222,0,0,1-1.721,1.31,4.964,4.964,0,0,1-2.147.472,3.244,3.244,0,0,1-1.888-.548Z" transform="translate(167.125 45.337)"/><path class="g" d="M328.536,93.534a1.98,1.98,0,0,1-.9-1.294,3.213,3.213,0,0,1,.228-1.873,5.3,5.3,0,0,1,1.218-1.888,5.97,5.97,0,0,1,1.888-1.294,5.314,5.314,0,0,1,2.193-.472,3.046,3.046,0,0,1,1.812.472,2,2,0,0,1,.883,1.294,3.4,3.4,0,0,1-.213,1.888,5.423,5.423,0,0,1-1.234,1.873,5.664,5.664,0,0,1-1.873,1.294,5.192,5.192,0,0,1-2.178.472,3.2,3.2,0,0,1-1.827-.472Zm3.975-1.812a3.045,3.045,0,0,0,1.051-1.416,1.691,1.691,0,0,0,0-1.431,1.127,1.127,0,0,0-1.1-.533,2.467,2.467,0,0,0-1.523.533,3.046,3.046,0,0,0-1.051,1.431,1.6,1.6,0,0,0,0,1.416,1.157,1.157,0,0,0,1.1.533,2.406,2.406,0,0,0,1.523-.533Z" transform="translate(169.762 45.336)"/><path class="g" d="M346.514,87.506a2.726,2.726,0,0,1-.122,2.345L344.87,93.9h-2.056l1.431-3.731a1.706,1.706,0,0,0,.137-1.264c-.122-.274-.4-.411-.838-.411a2.1,2.1,0,0,0-1.325.472,3.046,3.046,0,0,0-.944,1.386L339.905,93.9h-2.056l1.447-3.731c.426-1.127.183-1.675-.716-1.675a2.071,2.071,0,0,0-1.31.472,3.045,3.045,0,0,0-.944,1.386L334.956,93.9H332.9l2.726-7.081h1.995l-.32.822a4.112,4.112,0,0,1,1.234-.685,3.717,3.717,0,0,1,1.34-.244,2.406,2.406,0,0,1,1.249.3,1.523,1.523,0,0,1,.64.853,4.888,4.888,0,0,1,1.432-.853,4.355,4.355,0,0,1,1.523-.3,1.934,1.934,0,0,1,1.8.792Z" transform="translate(172.54 45.334)"/></g></svg>