<svg xmlns="http://www.w3.org/2000/svg" width="35.11" height="49.642" viewBox="0 0 35.11 49.642"><defs><style>.a{fill:#00ebc7;}</style></defs><g transform="translate(-0.006 0)"><g transform="translate(0.006 0)"><path class="a" d="M45.1,146.34a4.189,4.189,0,0,0,.606.048h4.842a4.187,4.187,0,0,0,.606-.048v.645a.606.606,0,0,1-.606.612H45.683a.587.587,0,0,1-.583-.6Z" transform="translate(-30.563 -99.167)"/><path class="a" d="M17.572,0A17.542,17.542,0,0,0,7.347,31.813a8.967,8.967,0,0,1,3.546,7.333v3.836a4.239,4.239,0,0,0,2.421,3.823v1.022a1.808,1.808,0,0,0,1.812,1.815H19.99a1.818,1.818,0,0,0,1.818-1.815V46.805a4.239,4.239,0,0,0,2.421-3.823V39.146a8.989,8.989,0,0,1,3.546-7.333A17.542,17.542,0,0,0,17.572,0ZM19.99,46.009H15.154A3.03,3.03,0,0,1,12.737,44.8h9.671A3.03,3.03,0,0,1,19.99,46.009Zm3.027-3.027a2.9,2.9,0,0,1-.061.606H12.182a2.9,2.9,0,0,1-.061-.606v-.606h10.9Zm0-1.815H12.108A10.782,10.782,0,0,0,12,39.955H23.146a10.783,10.783,0,0,0-.11,1.212Zm0-2.276H12.108A10.782,10.782,0,0,0,12,37.68H23.146a10.783,10.783,0,0,0-.11,1.212Zm4.065-8.065a9.79,9.79,0,0,0-3.7,5.5h-5.2V28.454a.606.606,0,0,0-1.212,0v7.869H11.75a9.79,9.79,0,0,0-3.688-5.5,16.356,16.356,0,1,1,19.045,0Z" transform="translate(-0.006 0)"/><path class="a" d="M67.285,32.189A4.245,4.245,0,0,0,63.588,28a3.527,3.527,0,0,0,.061-.645,3.636,3.636,0,0,0-7.269,0v13.31a3.03,3.03,0,0,0,6.057,0c0-.019,0-.035,0-.055a3.636,3.636,0,0,0,3.033-3.578,3.584,3.584,0,0,0-.226-1.222,4.245,4.245,0,0,0,2.04-3.62Zm-2.646,2.556A3.63,3.63,0,0,0,61.818,33.4a.606.606,0,0,0,0,1.212,2.414,2.414,0,0,1,.322,4.809,3.024,3.024,0,0,0-2.756-1.783.606.606,0,1,0,0,1.212,1.818,1.818,0,1,1-1.818,1.815V27.344a2.424,2.424,0,1,1,2.424,2.424.606.606,0,1,0,0,1.209,3.636,3.636,0,0,0,3.14-1.812,3.02,3.02,0,0,1,1.509,5.58Z" transform="translate(-38.208 -16.146)"/><path class="a" d="M26.036,23.48A3.636,3.636,0,0,0,22.4,27.11a3.526,3.526,0,0,0,.061.645,4.229,4.229,0,0,0-1.66,7.82,3.614,3.614,0,0,0,2.814,4.806v.055a3.03,3.03,0,0,0,6.057,0V27.11a3.636,3.636,0,0,0-3.639-3.63ZM28.46,40.429a1.818,1.818,0,1,1-1.818-1.815.606.606,0,1,0,0-1.212,3.024,3.024,0,0,0-2.756,1.783,2.414,2.414,0,0,1,.322-4.809.606.606,0,0,0,0-1.212,3.63,3.63,0,0,0-2.795,1.347,3.017,3.017,0,0,1,1.5-5.577,3.63,3.63,0,0,0,3.124,1.805.606.606,0,1,0,0-1.209,2.424,2.424,0,1,1,2.424-2.424Z" transform="translate(-12.712 -15.911)"/></g></g></svg>